<?xml version="1.0" encoding="UTF-8" standalone="no"?>
<svg
   width="500px"
   height="500px"
   viewBox="0 0 500 500"
   version="1.1"
   id="svg12"
   xmlns="http://www.w3.org/2000/svg"
   xmlns:svg="http://www.w3.org/2000/svg">
  <defs
     id="defs16" />
  <g
     id="layer1">
    <!-- ================== BEZIERS ================== -->
    <path
       id="long_test_bezier"
       d="m 50,250 c 0,0 0,0 400,0"
       style="fill:none;stroke:#000000;stroke-width:0.3" />
    <!-- ================== WORD 1 ================== -->
    <g
       data-bezier-ref="long_test_bezier"
       data-text="Irgerstetten"
       id="g9">
      <g
         aria-label="Irgerstetten"
         id="text7"
         style="font-size:7px;font-family:font6;text-anchor:middle">
        <path
           d="m 224.5095,245.044 v 0.259 c 0.133,0.035 0.266,0.049 0.406,0.049 0,0.147 -0.007,0.273 -0.028,0.371 -0.007,0.021 -0.014,0.049 -0.021,0.077 l -0.014,0.049 -0.042,0.147 c -0.007,0.021 -0.014,0.049 -0.021,0.077 -0.014,0.035 -0.021,0.063 -0.021,0.077 -0.056,0.217 -0.105,0.385 -0.14,0.511 -0.042,0.14 -0.091,0.315 -0.147,0.518 l -0.098,0.329 c -0.126,0.434 -0.217,0.791 -0.287,1.057 -0.091,0.35 -0.203,0.637 -0.343,0.875 -0.189,0.154 -0.406,0.245 -0.651,0.287 -0.014,0.007 -0.035,0.014 -0.056,0.014 -0.028,0 -0.042,0 -0.049,0 v 0.252 c 0.266,0.007 0.504,0.007 0.714,0.007 h 0.294 c 0.784,0 1.421,-0.014 1.918,-0.056 v -0.203 c -0.14,0 -0.322,-0.014 -0.553,-0.049 -0.056,-0.203 -0.035,-0.469 0.056,-0.791 l 0.098,-0.35 c 0,-0.014 0.007,-0.035 0.021,-0.077 0.014,-0.042 0.021,-0.07 0.028,-0.098 0.07,-0.245 0.126,-0.455 0.175,-0.637 0.063,-0.224 0.126,-0.448 0.189,-0.672 l 0.042,-0.154 c 0.056,-0.203 0.105,-0.385 0.154,-0.546 0.014,-0.063 0.028,-0.126 0.049,-0.189 0.007,-0.014 0.014,-0.042 0.028,-0.084 0.007,-0.042 0.014,-0.07 0.021,-0.091 0.007,-0.035 0.021,-0.091 0.049,-0.168 0.028,-0.098 0.056,-0.189 0.098,-0.28 0.112,-0.161 0.217,-0.259 0.315,-0.294 l 0.294,-0.014 v -0.203 z"
           id="path18" />
        <path
           d="m 229.32549,246.493 c -0.063,0.063 -0.126,0.14 -0.189,0.231 -0.28,0.392 -0.56,0.721 -0.847,0.994 l -0.049,0.049 c -0.021,0.021 -0.035,0.035 -0.049,0.042 -0.182,0.175 -0.28,0.336 -0.28,0.476 h 0.238 c 0.077,-0.077 0.147,-0.154 0.21,-0.224 0.168,-0.196 0.392,-0.434 0.686,-0.721 0.154,0 0.392,0.021 0.707,0.049 -0.476,0.476 -0.756,0.945 -0.847,1.414 -0.035,0.441 0.042,0.784 0.231,1.036 0.14,0.112 0.308,0.161 0.518,0.161 h 0.098 c 0.266,0 0.504,-0.056 0.714,-0.168 0.399,-0.252 0.63,-0.497 0.686,-0.735 0,-0.007 0,-0.021 0.007,-0.049 0,-0.021 0.007,-0.042 0.007,-0.056 h 0.14 l 0.049,-0.238 h -0.189 l -0.049,0.238 c -0.098,0 -0.168,0.021 -0.21,0.063 -0.084,0.084 -0.175,0.161 -0.259,0.217 -0.196,0.07 -0.392,0.063 -0.581,-0.014 -0.252,-0.238 -0.378,-0.504 -0.378,-0.798 0.042,-0.49 0.231,-0.903 0.567,-1.225 l 0.119,-0.112 c 0.14,-0.14 0.252,-0.245 0.336,-0.322 l 0.035,-0.035 0.042,-0.042 v -0.231 h -0.238 c -0.154,0.098 -0.343,0.126 -0.56,0.091 -0.224,-0.056 -0.448,-0.091 -0.665,-0.091 z"
           id="path20" />
        <path
           d="m 234.73649,246.507 c -0.203,-0.098 -0.448,-0.105 -0.728,-0.035 -0.315,0.14 -0.588,0.455 -0.826,0.945 -0.161,0.336 -0.392,0.679 -0.686,1.036 -0.028,0.042 -0.063,0.077 -0.098,0.119 -0.154,0.182 -0.322,0.364 -0.504,0.539 -0.14,0.14 -0.217,0.273 -0.231,0.406 h 0.203 c 0.224,-0.252 0.399,-0.448 0.511,-0.574 0.168,-0.189 0.336,-0.378 0.511,-0.574 0,0.021 0,0.049 0.007,0.084 0.035,0.441 0.168,0.756 0.392,0.952 0.147,0.077 0.315,0.098 0.504,0.07 0.294,-0.084 0.567,-0.329 0.819,-0.721 l 0.084,-0.14 c 0.028,0.112 0.042,0.245 0.056,0.413 0,0.014 0,0.028 0,0.049 0,0.021 0.007,0.035 0.007,0.042 0,0.112 0.007,0.217 0.014,0.315 l -0.119,0.119 c -0.287,0.259 -0.483,0.462 -0.595,0.616 -0.259,0.378 -0.364,0.735 -0.308,1.064 0.133,0.14 0.231,0.21 0.287,0.21 h 0.056 0.049 c 0.014,0 0.028,0.007 0.056,0.007 0.021,0 0.042,0 0.056,0 0.182,-0.014 0.399,-0.147 0.665,-0.392 0.406,-0.441 0.602,-1.064 0.588,-1.876 -0.014,-0.112 0.007,-0.21 0.056,-0.28 0.007,-0.014 0.021,-0.028 0.035,-0.049 0.014,-0.014 0.028,-0.028 0.035,-0.035 0.028,-0.028 0.049,-0.056 0.063,-0.077 0.007,-0.014 0.014,-0.028 0.028,-0.049 0.014,-0.014 0.021,-0.028 0.035,-0.042 0.049,-0.056 0.105,-0.126 0.161,-0.196 0.007,-0.014 0.021,-0.028 0.049,-0.056 0.021,-0.028 0.035,-0.049 0.049,-0.063 0.028,-0.028 0.063,-0.063 0.105,-0.119 0.119,-0.14 0.189,-0.294 0.203,-0.462 h -0.161 c -0.063,0.098 -0.14,0.21 -0.238,0.329 -0.014,0.021 -0.035,0.049 -0.063,0.077 -0.014,0.021 -0.028,0.049 -0.056,0.077 -0.035,0.042 -0.056,0.07 -0.056,0.07 -0.07,0.091 -0.182,0.21 -0.322,0.35 -0.014,-0.182 -0.021,-0.336 -0.028,-0.462 -0.007,-0.042 -0.014,-0.105 -0.014,-0.189 -0.042,-0.56 -0.056,-0.931 -0.042,-1.113 0.028,-0.161 0.028,-0.294 0,-0.406 -0.084,0.028 -0.147,0.042 -0.203,0.042 -0.028,0.028 -0.056,0.07 -0.084,0.126 -0.028,0.056 -0.049,0.105 -0.063,0.161 -0.014,0.056 -0.028,0.091 -0.056,0.119 -0.063,-0.182 -0.133,-0.329 -0.203,-0.427 z m -1.029,0.553 c 0.196,-0.147 0.406,-0.133 0.637,0.035 0.056,0.168 0.077,0.343 0.07,0.518 -0.007,0.007 -0.007,0.021 -0.007,0.042 v 0.056 c 0.098,-0.021 0.182,-0.056 0.252,-0.105 0.028,-0.021 0.056,-0.042 0.07,-0.056 0,0.035 0.007,0.084 0.007,0.147 0,0.203 -0.042,0.399 -0.14,0.595 l -0.035,0.077 c -0.105,0.21 -0.224,0.364 -0.364,0.448 -0.168,0.042 -0.322,0.021 -0.476,-0.056 -0.154,-0.168 -0.252,-0.343 -0.301,-0.518 -0.056,-0.49 0.035,-0.882 0.287,-1.183 z m 0.98,2.779 c 0.084,-0.084 0.14,-0.119 0.168,-0.119 v 0.266 0.049 0.056 c 0,0.42 -0.063,0.7 -0.203,0.854 l -0.042,-0.007 -0.042,-0.007 -0.042,-0.007 -0.042,-0.007 -0.077,-0.014 c -0.091,-0.112 -0.14,-0.238 -0.147,-0.378 0.077,-0.259 0.217,-0.49 0.427,-0.686 z"
           id="path22" />
        <path
           d="m 240.73551,246.444 c -0.511,-0.084 -0.938,0.154 -1.288,0.721 -0.168,0.273 -0.287,0.469 -0.371,0.595 -0.007,0.014 -0.014,0.028 -0.028,0.049 -0.014,0.021 -0.028,0.035 -0.028,0.042 -0.049,0.07 -0.091,0.133 -0.119,0.175 -0.119,0.182 -0.189,0.315 -0.217,0.406 -0.007,0.028 -0.014,0.056 -0.014,0.077 h -0.091 c -0.084,0.084 -0.154,0.161 -0.196,0.245 l -0.042,0.084 c -0.07,0 -0.168,0.07 -0.308,0.21 l -0.084,0.084 c -0.035,0.028 -0.063,0.056 -0.091,0.084 -0.021,0.021 -0.049,0.049 -0.084,0.077 -0.084,0.091 -0.14,0.175 -0.168,0.259 0,0.014 -0.007,0.028 -0.007,0.049 l -0.007,0.035 c -0.098,0 -0.203,0.049 -0.329,0.14 v 0.238 h 0.189 c 0.084,-0.077 0.147,-0.161 0.175,-0.245 0,-0.007 0,-0.021 0.007,-0.042 0,-0.014 0.007,-0.028 0.007,-0.042 h 0.14 c 0.133,-0.14 0.238,-0.238 0.322,-0.308 0.154,-0.119 0.252,-0.231 0.308,-0.343 0.007,-0.028 0.014,-0.063 0.028,-0.105 h 0.091 c 0.119,-0.105 0.196,-0.203 0.224,-0.294 0,0 0.007,-0.014 0.007,-0.028 0,-0.014 0.007,-0.035 0.007,-0.049 l 0.077,-0.042 0.049,-0.021 0.056,-0.035 c 0,0.126 0.007,0.231 0.014,0.308 0,0.042 0.007,0.084 0.007,0.126 0.014,0.413 0.126,0.728 0.322,0.945 0.189,0.168 0.462,0.245 0.819,0.231 0.441,-0.049 0.826,-0.266 1.162,-0.658 0.098,-0.126 0.238,-0.273 0.42,-0.441 0.161,-0.147 0.252,-0.315 0.266,-0.511 h -0.238 c -0.224,0.35 -0.532,0.644 -0.938,0.896 -0.168,0.063 -0.357,0.049 -0.574,-0.049 -0.168,-0.084 -0.294,-0.245 -0.364,-0.469 0.371,-0.308 0.714,-0.7 1.029,-1.176 0.175,-0.336 0.231,-0.644 0.161,-0.924 -0.077,-0.126 -0.175,-0.224 -0.301,-0.294 z m -0.938,0.7 c 0.126,-0.126 0.231,-0.182 0.329,-0.182 0.063,0.063 0.126,0.14 0.189,0.231 0.035,0.266 0.021,0.504 -0.049,0.714 -0.231,0.329 -0.434,0.532 -0.609,0.602 -0.126,-0.532 -0.084,-0.987 0.14,-1.365 z"
           id="path24" />
        <path
           d="m 244.29851,246.493 c -0.063,0.063 -0.126,0.14 -0.189,0.231 -0.28,0.392 -0.56,0.721 -0.847,0.994 l -0.049,0.049 c -0.021,0.021 -0.035,0.035 -0.049,0.042 -0.182,0.175 -0.28,0.336 -0.28,0.476 h 0.238 c 0.077,-0.077 0.147,-0.154 0.21,-0.224 0.168,-0.196 0.392,-0.434 0.686,-0.721 0.154,0 0.392,0.021 0.707,0.049 -0.476,0.476 -0.756,0.945 -0.847,1.414 -0.035,0.441 0.042,0.784 0.231,1.036 0.14,0.112 0.308,0.161 0.518,0.161 h 0.098 c 0.266,0 0.504,-0.056 0.714,-0.168 0.399,-0.252 0.63,-0.497 0.686,-0.735 0,-0.007 0,-0.021 0.007,-0.049 0,-0.021 0.007,-0.042 0.007,-0.056 h 0.14 l 0.049,-0.238 h -0.189 l -0.049,0.238 c -0.098,0 -0.168,0.021 -0.21,0.063 -0.084,0.084 -0.175,0.161 -0.259,0.217 -0.196,0.07 -0.392,0.063 -0.581,-0.014 -0.252,-0.238 -0.378,-0.504 -0.378,-0.798 0.042,-0.49 0.231,-0.903 0.567,-1.225 l 0.119,-0.112 c 0.14,-0.14 0.252,-0.245 0.336,-0.322 l 0.035,-0.035 0.042,-0.042 v -0.231 h -0.238 c -0.154,0.098 -0.343,0.126 -0.56,0.091 -0.224,-0.056 -0.448,-0.091 -0.665,-0.091 z"
           id="path26" />
        <path
           d="m 249.2265,246.423 c -0.028,0.028 -0.063,0.077 -0.098,0.147 -0.154,0.266 -0.294,0.476 -0.413,0.623 -0.119,0.147 -0.231,0.294 -0.336,0.448 -0.182,0.252 -0.343,0.455 -0.469,0.616 -0.119,0.14 -0.203,0.245 -0.252,0.308 -0.266,0.35 -0.504,0.637 -0.728,0.868 -0.091,0.084 -0.175,0.175 -0.252,0.273 v 0.217 h 0.175 c 0.133,-0.161 0.245,-0.287 0.329,-0.378 0.343,-0.35 0.609,-0.665 0.805,-0.945 0.294,-0.434 0.588,-0.805 0.896,-1.099 0.07,0.154 0.14,0.28 0.224,0.378 0.252,0.294 0.413,0.539 0.469,0.749 0.028,0.238 -0.035,0.455 -0.175,0.651 -0.126,0.112 -0.245,0.168 -0.371,0.182 -0.266,0.007 -0.455,-0.049 -0.567,-0.168 -0.084,-0.105 -0.119,-0.252 -0.098,-0.448 0.084,-0.028 0.161,-0.042 0.217,-0.042 0.014,0.028 0.042,0.063 0.084,0.112 l 0.042,0.056 c -0.028,0.119 -0.042,0.224 -0.042,0.308 l 0.056,0.007 0.049,0.007 0.042,0.014 0.07,0.014 0.147,-0.147 c 0.133,-0.147 0.196,-0.357 0.196,-0.63 -0.14,-0.147 -0.238,-0.224 -0.294,-0.224 h -0.105 c -0.154,0 -0.294,0.028 -0.413,0.084 -0.357,0.203 -0.588,0.49 -0.686,0.861 -0.035,0.21 0,0.399 0.105,0.567 0.154,0.154 0.336,0.231 0.539,0.238 0.504,-0.021 0.938,-0.224 1.302,-0.616 0.371,-0.49 0.539,-1.036 0.504,-1.645 -0.042,-0.196 -0.126,-0.35 -0.266,-0.469 -0.175,-0.14 -0.343,-0.287 -0.511,-0.441 0.028,-0.14 0.042,-0.301 0.042,-0.476 z"
           id="path28" />
        <path
           d="m 252.08951,245.443 -0.434,0.441 c -0.007,0.266 -0.007,0.49 0.007,0.672 0.007,0.14 0.014,0.245 0.021,0.315 0.014,0.413 -0.014,0.658 -0.084,0.742 -0.049,0.042 -0.091,0.084 -0.133,0.14 -0.14,0.182 -0.245,0.308 -0.315,0.385 -0.007,0.014 -0.021,0.028 -0.035,0.042 l -0.028,0.028 c -0.049,0.042 -0.091,0.091 -0.133,0.133 -0.168,0.168 -0.252,0.329 -0.259,0.49 h 0.196 c 0.154,-0.175 0.308,-0.35 0.448,-0.532 0.028,-0.035 0.056,-0.063 0.07,-0.084 0.084,-0.112 0.154,-0.189 0.196,-0.245 0.014,-0.014 0.028,-0.028 0.049,-0.056 0,0.154 0,0.301 0.007,0.434 0,0.084 0.007,0.147 0.007,0.182 v 0.336 c 0,0.182 0,0.315 0.007,0.406 0,0.098 0.021,0.21 0.056,0.336 0.035,0.133 0.091,0.238 0.161,0.308 0.098,0.056 0.217,0.084 0.357,0.084 h 0.084 0.084 c 0.294,-0.007 0.581,-0.147 0.847,-0.427 l 0.028,-0.028 c 0.014,-0.014 0.021,-0.021 0.028,-0.035 0.154,-0.154 0.231,-0.315 0.245,-0.483 h -0.161 c -0.168,0.217 -0.315,0.364 -0.441,0.441 -0.14,0.028 -0.259,0.014 -0.364,-0.035 -0.126,-0.147 -0.203,-0.385 -0.217,-0.707 0,-0.007 -0.007,-0.021 -0.007,-0.042 0,-0.021 0,-0.035 0,-0.049 0,-0.063 -0.007,-0.126 -0.007,-0.196 -0.007,-0.126 -0.014,-0.231 -0.014,-0.308 -0.042,-0.686 0.014,-1.113 0.154,-1.281 l 0.028,-0.028 0.035,-0.035 c 0.042,-0.049 0.091,-0.098 0.14,-0.147 0.119,-0.119 0.203,-0.21 0.252,-0.28 v -0.203 h -0.154 l -0.084,0.084 c -0.133,0.161 -0.252,0.308 -0.357,0.434 0,-0.238 -0.014,-0.644 -0.042,-1.232 z"
           id="path30" />
        <path
           d="m 257.55649,246.444 c -0.511,-0.084 -0.938,0.154 -1.288,0.721 -0.168,0.273 -0.287,0.469 -0.371,0.595 -0.007,0.014 -0.014,0.028 -0.028,0.049 -0.014,0.021 -0.028,0.035 -0.028,0.042 -0.049,0.07 -0.091,0.133 -0.119,0.175 -0.119,0.182 -0.189,0.315 -0.217,0.406 -0.007,0.028 -0.014,0.056 -0.014,0.077 h -0.091 c -0.084,0.084 -0.154,0.161 -0.196,0.245 l -0.042,0.084 c -0.07,0 -0.168,0.07 -0.308,0.21 l -0.084,0.084 c -0.035,0.028 -0.063,0.056 -0.091,0.084 -0.021,0.021 -0.049,0.049 -0.084,0.077 -0.084,0.091 -0.14,0.175 -0.168,0.259 0,0.014 -0.007,0.028 -0.007,0.049 l -0.007,0.035 c -0.098,0 -0.203,0.049 -0.329,0.14 v 0.238 h 0.189 c 0.084,-0.077 0.147,-0.161 0.175,-0.245 0,-0.007 0,-0.021 0.007,-0.042 0,-0.014 0.007,-0.028 0.007,-0.042 h 0.14 c 0.133,-0.14 0.238,-0.238 0.322,-0.308 0.154,-0.119 0.252,-0.231 0.308,-0.343 0.007,-0.028 0.014,-0.063 0.028,-0.105 h 0.091 c 0.119,-0.105 0.196,-0.203 0.224,-0.294 0,0 0.007,-0.014 0.007,-0.028 0,-0.014 0.007,-0.035 0.007,-0.049 l 0.077,-0.042 0.049,-0.021 0.056,-0.035 c 0,0.126 0.007,0.231 0.014,0.308 0,0.042 0.007,0.084 0.007,0.126 0.014,0.413 0.126,0.728 0.322,0.945 0.189,0.168 0.462,0.245 0.819,0.231 0.441,-0.049 0.826,-0.266 1.162,-0.658 0.098,-0.126 0.238,-0.273 0.42,-0.441 0.161,-0.147 0.252,-0.315 0.266,-0.511 h -0.238 c -0.224,0.35 -0.532,0.644 -0.938,0.896 -0.168,0.063 -0.357,0.049 -0.574,-0.049 -0.168,-0.084 -0.294,-0.245 -0.364,-0.469 0.371,-0.308 0.714,-0.7 1.029,-1.176 0.175,-0.336 0.231,-0.644 0.161,-0.924 -0.077,-0.126 -0.175,-0.224 -0.301,-0.294 z m -0.938,0.7 c 0.126,-0.126 0.231,-0.182 0.329,-0.182 0.063,0.063 0.126,0.14 0.189,0.231 0.035,0.266 0.021,0.504 -0.049,0.714 -0.231,0.329 -0.434,0.532 -0.609,0.602 -0.126,-0.532 -0.084,-0.987 0.14,-1.365 z"
           id="path32" />
        <path
           d="m 260.6015,245.443 -0.434,0.441 c -0.007,0.266 -0.007,0.49 0.007,0.672 0.007,0.14 0.014,0.245 0.021,0.315 0.014,0.413 -0.014,0.658 -0.084,0.742 -0.049,0.042 -0.091,0.084 -0.133,0.14 -0.14,0.182 -0.245,0.308 -0.315,0.385 -0.007,0.014 -0.021,0.028 -0.035,0.042 l -0.028,0.028 c -0.049,0.042 -0.091,0.091 -0.133,0.133 -0.168,0.168 -0.252,0.329 -0.259,0.49 h 0.196 c 0.154,-0.175 0.308,-0.35 0.448,-0.532 0.028,-0.035 0.056,-0.063 0.07,-0.084 0.084,-0.112 0.154,-0.189 0.196,-0.245 0.014,-0.014 0.028,-0.028 0.049,-0.056 0,0.154 0,0.301 0.007,0.434 0,0.084 0.007,0.147 0.007,0.182 v 0.336 c 0,0.182 0,0.315 0.007,0.406 0,0.098 0.021,0.21 0.056,0.336 0.035,0.133 0.091,0.238 0.161,0.308 0.098,0.056 0.217,0.084 0.357,0.084 h 0.084 0.084 c 0.294,-0.007 0.581,-0.147 0.847,-0.427 l 0.028,-0.028 c 0.014,-0.014 0.021,-0.021 0.028,-0.035 0.154,-0.154 0.231,-0.315 0.245,-0.483 h -0.161 c -0.168,0.217 -0.315,0.364 -0.441,0.441 -0.14,0.028 -0.259,0.014 -0.364,-0.035 -0.126,-0.147 -0.203,-0.385 -0.217,-0.707 0,-0.007 -0.007,-0.021 -0.007,-0.042 0,-0.021 0,-0.035 0,-0.049 0,-0.063 -0.007,-0.126 -0.007,-0.196 -0.007,-0.126 -0.014,-0.231 -0.014,-0.308 -0.042,-0.686 0.014,-1.113 0.154,-1.281 l 0.028,-0.028 0.035,-0.035 c 0.042,-0.049 0.091,-0.098 0.14,-0.147 0.119,-0.119 0.203,-0.21 0.252,-0.28 v -0.203 h -0.154 l -0.084,0.084 c -0.133,0.161 -0.252,0.308 -0.357,0.434 0,-0.238 -0.014,-0.644 -0.042,-1.232 z"
           id="path34" />
        <path
           d="m 263.80749,245.443 -0.434,0.441 c -0.007,0.266 -0.007,0.49 0.007,0.672 0.007,0.14 0.014,0.245 0.021,0.315 0.014,0.413 -0.014,0.658 -0.084,0.742 -0.049,0.042 -0.091,0.084 -0.133,0.14 -0.14,0.182 -0.245,0.308 -0.315,0.385 -0.007,0.014 -0.021,0.028 -0.035,0.042 l -0.028,0.028 c -0.049,0.042 -0.091,0.091 -0.133,0.133 -0.168,0.168 -0.252,0.329 -0.259,0.49 h 0.196 c 0.154,-0.175 0.308,-0.35 0.448,-0.532 0.028,-0.035 0.056,-0.063 0.07,-0.084 0.084,-0.112 0.154,-0.189 0.196,-0.245 0.014,-0.014 0.028,-0.028 0.049,-0.056 0,0.154 0,0.301 0.007,0.434 0,0.084 0.007,0.147 0.007,0.182 v 0.336 c 0,0.182 0,0.315 0.007,0.406 0,0.098 0.021,0.21 0.056,0.336 0.035,0.133 0.091,0.238 0.161,0.308 0.098,0.056 0.217,0.084 0.357,0.084 h 0.084 0.084 c 0.294,-0.007 0.581,-0.147 0.847,-0.427 l 0.028,-0.028 c 0.014,-0.014 0.021,-0.021 0.028,-0.035 0.154,-0.154 0.231,-0.315 0.245,-0.483 h -0.161 c -0.168,0.217 -0.315,0.364 -0.441,0.441 -0.14,0.028 -0.259,0.014 -0.364,-0.035 -0.126,-0.147 -0.203,-0.385 -0.217,-0.707 0,-0.007 -0.007,-0.021 -0.007,-0.042 0,-0.021 0,-0.035 0,-0.049 0,-0.063 -0.007,-0.126 -0.007,-0.196 -0.007,-0.126 -0.014,-0.231 -0.014,-0.308 -0.042,-0.686 0.014,-1.113 0.154,-1.281 l 0.028,-0.028 0.035,-0.035 c 0.042,-0.049 0.091,-0.098 0.14,-0.147 0.119,-0.119 0.203,-0.21 0.252,-0.28 v -0.203 h -0.154 l -0.084,0.084 c -0.133,0.161 -0.252,0.308 -0.357,0.434 0,-0.238 -0.014,-0.644 -0.042,-1.232 z"
           id="path36" />
        <path
           d="m 269.27448,246.444 c -0.511,-0.084 -0.938,0.154 -1.288,0.721 -0.168,0.273 -0.287,0.469 -0.371,0.595 -0.007,0.014 -0.014,0.028 -0.028,0.049 -0.014,0.021 -0.028,0.035 -0.028,0.042 -0.049,0.07 -0.091,0.133 -0.119,0.175 -0.119,0.182 -0.189,0.315 -0.217,0.406 -0.007,0.028 -0.014,0.056 -0.014,0.077 h -0.091 c -0.084,0.084 -0.154,0.161 -0.196,0.245 l -0.042,0.084 c -0.07,0 -0.168,0.07 -0.308,0.21 l -0.084,0.084 c -0.035,0.028 -0.063,0.056 -0.091,0.084 -0.021,0.021 -0.049,0.049 -0.084,0.077 -0.084,0.091 -0.14,0.175 -0.168,0.259 0,0.014 -0.007,0.028 -0.007,0.049 l -0.007,0.035 c -0.098,0 -0.203,0.049 -0.329,0.14 v 0.238 h 0.189 c 0.084,-0.077 0.147,-0.161 0.175,-0.245 0,-0.007 0,-0.021 0.007,-0.042 0,-0.014 0.007,-0.028 0.007,-0.042 h 0.14 c 0.133,-0.14 0.238,-0.238 0.322,-0.308 0.154,-0.119 0.252,-0.231 0.308,-0.343 0.007,-0.028 0.014,-0.063 0.028,-0.105 h 0.091 c 0.119,-0.105 0.196,-0.203 0.224,-0.294 0,0 0.007,-0.014 0.007,-0.028 0,-0.014 0.007,-0.035 0.007,-0.049 l 0.077,-0.042 0.049,-0.021 0.056,-0.035 c 0,0.126 0.007,0.231 0.014,0.308 0,0.042 0.007,0.084 0.007,0.126 0.014,0.413 0.126,0.728 0.322,0.945 0.189,0.168 0.462,0.245 0.819,0.231 0.441,-0.049 0.826,-0.266 1.162,-0.658 0.098,-0.126 0.238,-0.273 0.42,-0.441 0.161,-0.147 0.252,-0.315 0.266,-0.511 h -0.238 c -0.224,0.35 -0.532,0.644 -0.938,0.896 -0.168,0.063 -0.357,0.049 -0.574,-0.049 -0.168,-0.084 -0.294,-0.245 -0.364,-0.469 0.371,-0.308 0.714,-0.7 1.029,-1.176 0.175,-0.336 0.231,-0.644 0.161,-0.924 -0.077,-0.126 -0.175,-0.224 -0.301,-0.294 z m -0.938,0.7 c 0.126,-0.126 0.231,-0.182 0.329,-0.182 0.063,0.063 0.126,0.14 0.189,0.231 0.035,0.266 0.021,0.504 -0.049,0.714 -0.231,0.329 -0.434,0.532 -0.609,0.602 -0.126,-0.532 -0.084,-0.987 0.14,-1.365 z"
           id="path38" />
        <path
           d="m 273.36248,246.423 c -0.259,0 -0.434,0.028 -0.518,0.091 -0.091,0.063 -0.28,0.28 -0.567,0.658 -0.14,0.182 -0.266,0.336 -0.392,0.469 -0.084,0.091 -0.14,0.189 -0.168,0.294 -0.007,0.035 -0.014,0.07 -0.014,0.105 h -0.147 c -0.063,0.07 -0.112,0.182 -0.14,0.336 h 0.189 c 0.063,-0.063 0.105,-0.14 0.126,-0.224 0,-0.014 0,-0.028 0.007,-0.056 0.007,-0.028 0.014,-0.042 0.014,-0.056 h 0.14 c 0.21,-0.196 0.371,-0.371 0.483,-0.539 0.014,-0.021 0.035,-0.056 0.063,-0.098 0.084,-0.063 0.189,-0.105 0.308,-0.119 0.07,0.294 0.105,0.581 0.112,0.854 v 0.063 0.07 c 0,0.189 0.007,0.336 0.007,0.434 0,0.126 0,0.28 0.007,0.448 l 0.007,0.287 v 0.14 0.063 0.056 c 0,0.077 0,0.14 0.007,0.196 0.035,0.035 0.105,0.056 0.203,0.063 l 0.182,0.014 c 0.112,0.014 0.224,0.021 0.329,0.021 l 0.049,-0.049 c -0.007,-0.21 -0.007,-0.399 -0.007,-0.581 v -0.238 -0.35 -0.112 c -0.007,-0.231 0.007,-0.399 0.049,-0.497 0.007,-0.007 0.014,-0.021 0.028,-0.035 0.014,-0.014 0.021,-0.028 0.028,-0.042 0.343,-0.63 0.609,-0.973 0.805,-1.043 0.07,0.21 0.105,0.42 0.112,0.616 v 0.049 0.056 c 0,0.147 0.007,0.259 0.007,0.343 0,0.112 0,0.231 0.007,0.35 0,0.028 0,0.07 0,0.119 0,0.056 0.007,0.091 0.007,0.112 0.007,0.56 0.077,0.945 0.203,1.155 0.133,0.112 0.35,0.161 0.651,0.154 0.168,-0.014 0.294,-0.042 0.371,-0.098 0.077,-0.049 0.266,-0.231 0.567,-0.553 0.014,-0.021 0.028,-0.035 0.042,-0.049 0.238,-0.231 0.357,-0.441 0.364,-0.637 h -0.189 c -0.077,0.077 -0.133,0.14 -0.175,0.189 l -0.07,0.084 c -0.182,0.203 -0.371,0.364 -0.567,0.483 l -0.14,-0.049 c -0.196,-0.476 -0.287,-0.98 -0.266,-1.519 0,-0.098 -0.007,-0.21 -0.007,-0.35 v -0.112 -0.112 c -0.007,-0.336 -0.091,-0.623 -0.252,-0.854 h -0.098 -0.133 c -0.084,0 -0.168,0 -0.245,0 -0.189,0.07 -0.329,0.147 -0.413,0.238 -0.084,0.091 -0.294,0.385 -0.63,0.882 -0.028,0.042 -0.049,0.07 -0.049,0.07 0,0 -0.007,-0.049 -0.007,-0.133 -0.007,-0.042 -0.014,-0.105 -0.014,-0.182 -0.028,-0.371 -0.112,-0.665 -0.266,-0.875 z"
           id="path40" />
      </g>
    </g>
  </g>
</svg>
