<?xml version="1.0" encoding="UTF-8"?>
<!-- Generator: visioncortex VTracer 0.6.4 -->
<svg version="1.1" xmlns="http://www.w3.org/2000/svg" width="135" height="147">
<path d="M0 0 C4.18844402 3.17111954 6.84799976 7.56030072 9.4375 12.0625 C9.67984375 11.54300781 9.9221875 11.02351563 10.171875 10.48828125 C12.20886078 6.24978392 14.31578828 2.63017054 17.4375 -0.9375 C18.7575 -0.9375 20.0775 -0.9375 21.4375 -0.9375 C22.07275914 4.2151575 19.85561412 7.73188034 17.5 12.125 C16.75809578 13.53064583 16.01969026 14.93814504 15.28515625 16.34765625 C14.95523682 16.96519775 14.62531738 17.58273926 14.28540039 18.21899414 C12.16863407 22.82126955 12.27723843 27.44700892 12.26953125 32.4296875 C12.26529648 33.25298553 12.26106171 34.07628357 12.25669861 34.92453003 C12.24679935 37.59557163 12.24677827 40.26644328 12.25 42.9375 C12.25060425 43.84310669 12.2512085 44.74871338 12.25183105 45.6817627 C10.93698014 76.59238233 10.93698014 76.59238233 22.4375 104.0625 C26.46549188 106.68945123 29.6475482 107.8608253 34.4375 107.0625 C40.02967805 103.52459144 42.55595055 98.91485044 45.4375 93.0625 C46.7575 93.0625 48.0775 93.0625 49.4375 93.0625 C48.03445125 104.07723906 41.0809156 113.4632659 32.72265625 120.5078125 C27.92378034 123.7371737 22.97111651 123.99578159 17.4375 123.0625 C10.20090125 120.71870608 4.35989876 116.63798015 0.4375 110.0625 C-1.21093872 105.79710366 -2.47309837 101.50130415 -3.5625 97.0625 C-4.1915625 97.908125 -4.820625 98.75375 -5.46875 99.625 C-19.34531646 118.10073496 -19.34531646 118.10073496 -29.5625 122.0625 C-30.614375 122.475 -31.66625 122.8875 -32.75 123.3125 C-39.4743651 124.63532592 -46.4032117 125.03900729 -53 123 C-57.93859253 119.26594223 -61.71417609 115.04634316 -63.5625 109.0625 C-65.35539727 91.11465466 -59.64567863 77.87384567 -48.5625 64.0625 C-46.91096384 62.04898331 -45.24150927 60.05332527 -43.5625 58.0625 C-44.635 57.670625 -45.7075 57.27875 -46.8125 56.875 C-50.46745216 55.31387671 -52.37135755 53.43348839 -54.5625 50.0625 C-57.13954194 42.33137419 -55.35011285 36.16289055 -52.109375 28.98046875 C-49.75332894 24.53610913 -46.86055692 20.84052363 -43.5625 17.0625 C-42.61697266 15.91974609 -42.61697266 15.91974609 -41.65234375 14.75390625 C-31.66876558 2.98400196 -16.06961762 -8.96548164 0 0 Z M-36.046875 16.88671875 C-39.20402164 21.41901431 -40.91334533 25.61263731 -40.5 31.1875 C-39.3724456 35.84805817 -37.87493639 39.56997206 -33.72265625 42.25 C-31.13931716 43.22167184 -29.52716829 43.08671592 -26.8125 42.6875 C-26.01328125 42.57664063 -25.2140625 42.46578125 -24.390625 42.3515625 C-23.78734375 42.25617187 -23.1840625 42.16078125 -22.5625 42.0625 C-23.95464268 46.76203619 -26.61314704 49.19162373 -30.25 52.25 C-40.17446111 60.9841788 -46.65454685 70.61343217 -47.72265625 84.08203125 C-47.97941911 90.45644835 -47.40889636 97.74549944 -43.09765625 102.76953125 C-38.24353378 106.88782098 -34.76800018 107.48359216 -28.57421875 107.39453125 C-20.27293111 106.4793439 -14.71889573 101.80973942 -9.3515625 95.734375 C-5.02456575 89.27222264 -2.90713987 83.12468139 -2.6875 75.375 C-2.6555957 74.54484375 -2.62369141 73.7146875 -2.59082031 72.859375 C-2.38942534 64.74520083 -2.8174687 56.65979773 -3.3125 48.5625 C-3.42295654 46.68558472 -3.42295654 46.68558472 -3.53564453 44.77075195 C-4.47594289 31.53539353 -6.55295043 19.24301419 -16.125 9.4375 C-24.01209797 4.98836781 -31.14625777 10.84924662 -36.046875 16.88671875 Z " fill="#000000" transform="translate(75.5625,13.9375)"/>
</svg>
