<?xml version="1.0" encoding="UTF-8"?>
<!-- Generator: visioncortex VTracer 0.6.4 -->
<svg version="1.1" xmlns="http://www.w3.org/2000/svg" width="161" height="130">
<path d="M0 0 C4.05742173 1.9873086 5.22903581 4.19057362 6.8125 8.25 C7.4003125 10.10625 7.4003125 10.10625 8 12 C11.465 7.545 11.465 7.545 15 3 C16.32 3 17.64 3 19 3 C18.55982593 8.17204528 17.2547607 12.0483655 14.9375 16.69140625 C10.81795324 26.83579016 12.08424901 40.00233791 16 50 C17.88659601 53.78871957 20.20989717 56.99966795 24 59 C29.73627957 60.43406989 33.01943035 60.16211621 38.16796875 57.2578125 C40.82289083 55.43503018 42.86207787 53.40516239 45 51 C46.32 51 47.64 51 49 51 C48.01689252 57.91816375 43.83216554 62.60921091 38.59375 67.03125 C31.68594989 72.06285749 25.03620524 75.72439186 16.30859375 75.421875 C11.28278939 74.5034539 6.69166096 71.95160887 3.34765625 68.09375 C1.29047643 64.89766773 0.25379819 61.58228053 -1 58 C-1.81791016 58.97839844 -1.81791016 58.97839844 -2.65234375 59.9765625 C-14.18406705 73.34153412 -14.18406705 73.34153412 -22.9140625 74.53515625 C-24.33758536 74.60797322 -25.76240847 74.65862507 -27.1875 74.6875 C-28.20372437 74.71674561 -28.20372437 74.71674561 -29.24047852 74.74658203 C-33.60029807 74.64281501 -36.55820933 73.6200998 -39.74023438 70.58325195 C-44.25326267 64.91135495 -44.40855692 58.46045902 -44.1875 51.5 C-44.16719727 50.26636719 -44.16719727 50.26636719 -44.14648438 49.0078125 C-44.11155016 47.00491779 -44.05776057 45.00236644 -44 43 C-44.99 43 -45.98 43 -47 43 C-47.495 45.475 -47.495 45.475 -48 48 C-48.99 48 -49.98 48 -51 48 C-51.12375 48.78375 -51.2475 49.5675 -51.375 50.375 C-52 53 -52 53 -54 55 C-55.32 55 -56.64 55 -58 55 C-57.25 50.25 -57.25 50.25 -55 48 C-54.01 48 -53.02 48 -52 48 C-51.67 46.35 -51.34 44.7 -51 43 C-50.01 43 -49.02 43 -48 43 C-47.90847656 42.27039063 -47.81695312 41.54078125 -47.72265625 40.7890625 C-46.87568158 37.52019811 -45.62270602 35.93224697 -43.4375 33.375 C-39.03601194 28.09003061 -34.99845078 22.59357741 -31 17 C-30.01 17 -29.02 17 -28 17 C-27.94457031 16.28199219 -27.88914062 15.56398438 -27.83203125 14.82421875 C-26.69855418 10.97678251 -24.68463558 9.43648228 -21.6875 6.8125 C-20.72199219 5.95269531 -19.75648437 5.09289063 -18.76171875 4.20703125 C-12.74742108 -0.59930281 -7.58640678 -0.81060237 0 0 Z M-27 17 C-31.37432386 28.21582693 -33.49615127 36.57005698 -29.25 48.3125 C-26.73737968 53.97715297 -24.40937555 57.90482929 -18.5625 60.5625 C-14.05399842 61.11617563 -12.67266845 60.67798741 -9 58 C-3.19313643 52.19313643 -0.96165347 47.03263489 0 39 C0.371348 36.62442625 0.74642979 34.24943353 1.125 31.875 C1.41892543 29.91700441 1.71140117 27.95878779 2 26 C-0.0245738 27.93254772 -1.42105792 29.63158688 -3 32 C-5.125 32.6875 -5.125 32.6875 -7 33 C-6.835 32.360625 -6.67 31.72125 -6.5 31.0625 C-5.25869237 23.96243426 -5.25869237 23.96243426 -6.90625 17.12109375 C-8.82978849 14.56254096 -10.77700976 13.09853057 -13.6875 11.8125 C-18.75487597 12.0993326 -22.64926275 14.51509276 -27 17 Z " fill="#000000" transform="translate(96,32)"/>
<path d="M0 0 C-0.15404113 5.08335725 -3.02068432 7.35754718 -6.50390625 10.64453125 C-8 12 -8 12 -12 12 C-11.84595887 6.91664275 -8.97931568 4.64245282 -5.49609375 1.35546875 C-4 0 -4 0 0 0 Z " fill="#000000" transform="translate(32,93)"/>
<path d="M0 0 C1.32 0 2.64 0 4 0 C4 1.32 4 2.64 4 4 C2.68 4 1.36 4 0 4 C0 2.68 0 1.36 0 0 Z " fill="#000000" transform="translate(33,89)"/>
</svg>
