<?xml version="1.0" encoding="UTF-8"?>
<!-- Generator: visioncortex VTracer 0.6.4 -->
<svg version="1.1" xmlns="http://www.w3.org/2000/svg" width="107" height="165">
<path d="M0 0 C0.73734375 0.08507813 1.4746875 0.17015625 2.234375 0.2578125 C4.66990847 1.00357662 5.68247153 1.88471385 7.25 3.875 C9.76052848 12.66184967 5.8848799 20.04603817 1.75 27.6875 C-1.89593822 34.04333938 -6.3632304 39.48936938 -11.234375 44.9375 C-15.62120893 50.06001415 -18.30744217 53.33255112 -18 60.25 C-17.94585937 61.83941406 -17.94585937 61.83941406 -17.890625 63.4609375 C-17.84421875 64.25757812 -17.7978125 65.05421875 -17.75 65.875 C-17.193125 65.22273438 -16.63625 64.57046875 -16.0625 63.8984375 C-3.34455578 49.33295409 -3.34455578 49.33295409 3.640625 48.63671875 C8.20873242 48.51814766 11.47797186 48.52407812 15.6875 50.4375 C21.19377157 55.67517296 23.14103051 61.39093338 23.48828125 68.87890625 C23.71627509 78.28752097 23.15415833 86.14805785 19.25 94.875 C18.87617187 95.75671875 18.50234375 96.6384375 18.1171875 97.546875 C15.38181132 103.52484944 11.81308082 108.1672682 7.25 112.875 C6.26 112.875 5.27 112.875 4.25 112.875 C4.229375 113.596875 4.20875 114.31875 4.1875 115.0625 C2.81704465 119.17386605 -0.07115766 120.78657422 -3.75 122.875 C-9.95753083 124.94417694 -17.27936951 124.97796004 -23.25 122.3125 C-32.61695809 113.17971587 -33.00171206 103.3215428 -33.875 90.6875 C-33.96136719 89.53830078 -34.04773437 88.38910156 -34.13671875 87.20507812 C-34.51065285 82.0798067 -34.79490091 77.01615406 -34.75 71.875 C-35.74 71.875 -36.73 71.875 -37.75 71.875 C-36.875 67.125 -36.875 67.125 -35.75 64.875 C-35.5740798 62.92406886 -35.4516653 60.96820193 -35.35546875 59.01171875 C-35.28650391 57.81353516 -35.21753906 56.61535156 -35.14648438 55.38085938 C-35.00954022 52.87874892 -34.88160411 50.37612546 -34.76367188 47.87304688 C-33.78322609 31.55252904 -29.06160712 20.11372614 -17.8125 8.5 C-17.32265625 7.98751709 -16.8328125 7.47503418 -16.328125 6.94702148 C-11.78326281 2.43288808 -6.70166538 -0.92682606 0 0 Z M-14.625 13.375 C-20.12982981 19.85127036 -19.81854363 30.61229596 -19.98046875 38.796875 C-19.71564272 41.18479787 -18.93203263 42.80060281 -17.75 44.875 C-16.28763907 42.9612931 -14.83005754 41.04424767 -13.375 39.125 C-12.9625 38.58617188 -12.55 38.04734375 -12.125 37.4921875 C-8.08669535 32.15120394 -6.46075829 29.13541046 -6.4375 22.375 C-6.42074219 21.2509375 -6.40398438 20.126875 -6.38671875 18.96875 C-6.77761677 15.63981203 -7.50121535 14.29585524 -9.75 11.875 C-12.75976086 11.56265248 -12.75976086 11.56265248 -14.625 13.375 Z M-7.375 64.375 C-11.94832528 67.39491551 -15.31324413 72.00148826 -17.75 76.875 C-19.07292566 89.02701711 -16.14120089 101.03438951 -8.75 110.875 C-5.39672361 113.11051759 -4.84256343 113.04783528 -1.0625 112.5 C-0.25425781 112.38914063 0.55398437 112.27828125 1.38671875 112.1640625 C2.00160156 112.06867188 2.61648437 111.97328125 3.25 111.875 C9.75846451 98.36124164 12.29153204 88.38768046 7.44921875 73.84375 C5.85190536 69.88948883 4.454024 67.69759257 1.25 64.875 C-3.14973096 62.78172677 -3.14973096 62.78172677 -7.375 64.375 Z " fill="#000000" transform="translate(66.75,15.125)"/>
<path d="M0 0 C1.32 0 2.64 0 4 0 C3.67 1.65 3.34 3.3 3 5 C1.35 5.33 -0.3 5.66 -2 6 C-1.125 1.125 -1.125 1.125 0 0 Z " fill="#000000" transform="translate(23,90)"/>
<path d="M0 0 C1.32 0 2.64 0 4 0 C3.67 1.65 3.34 3.3 3 5 C1.68 5 0.36 5 -1 5 C-0.67 3.35 -0.34 1.7 0 0 Z " fill="#000000" transform="translate(16,98)"/>
</svg>
