<?xml version="1.0" encoding="UTF-8"?>
<!-- Generator: visioncortex VTracer 0.6.4 -->
<svg version="1.1" xmlns="http://www.w3.org/2000/svg" width="122" height="143">
<path d="M0 0 C1.06734375 -0.00708984 2.1346875 -0.01417969 3.234375 -0.02148438 C12.3579977 0.05137011 20.06047104 1.36904222 26.875 7.7734375 C32.98639151 14.55326245 34.84457468 22.8063413 34.625 31.7265625 C33.82586767 40.39215376 31.40442315 47.36912152 26.375 54.4375 C27.20902344 54.51226562 28.04304688 54.58703125 28.90234375 54.6640625 C36.66037668 55.57049934 42.58598393 56.98596021 48.375 62.4375 C53.30464029 69.83196044 53.27832583 78.81790105 51.62109375 87.29296875 C48.68914858 100.14320532 44.19420314 111.91990302 33 119.8125 C25.23692572 124.54127621 18.41551772 125.94709077 9.375 125.4375 C6.11215138 122.0693982 4.63801522 119.2868396 4.28125 114.55078125 C4.52910707 108.96366972 6.66905039 104.86785435 10.5625 100.9375 C13.375 98.4375 13.375 98.4375 17.375 98.4375 C17.50777344 99.19675781 17.64054687 99.95601563 17.77734375 100.73828125 C18.04224609 102.22908203 18.04224609 102.22908203 18.3125 103.75 C18.57353516 105.22919922 18.57353516 105.22919922 18.83984375 106.73828125 C19.33246847 109.51939213 19.33246847 109.51939213 20.375 112.4375 C23.345 113.0975 26.315 113.7575 29.375 114.4375 C34.77442191 109.75800101 35.78491948 104.20454805 36.33203125 97.33984375 C36.48288825 87.15013923 34.72000226 77.62325017 28.375 69.4375 C24.96292178 66.31922108 22.13487361 64.36261176 17.4375 64.5625 C15.42205412 65.26551615 15.42205412 65.26551615 14.375 66.4375 C12.725 66.4375 11.075 66.4375 9.375 66.4375 C9.5 64.25 9.5 64.25 10.375 61.4375 C11.86827738 60.23638559 13.36307592 59.03693126 14.875 57.859375 C19.01738408 53.93274009 19.62232507 48.26699754 20 42.8125 C19.75148219 34.28725866 16.0007285 26.37763669 10.2578125 20.13671875 C8.04955656 18.30174451 5.87485749 16.84598643 3.375 15.4375 C2.60285156 14.99664062 1.83070312 14.55578125 1.03515625 14.1015625 C-5.82670018 10.78740818 -12.25684101 10.80591709 -19.625 12.4375 C-26.94190208 15.04757209 -33.69174212 18.50616443 -37.625 25.4375 C-40.82888262 32.36737944 -41.20627847 38.99479081 -39.625 46.4375 C-38.32855384 49.73434498 -37.70980814 50.38096124 -34.625 52.4375 C-31.65050392 52.67969315 -31.65050392 52.67969315 -28.4375 52.5625 C-27.35082031 52.54445312 -26.26414062 52.52640625 -25.14453125 52.5078125 C-24.31308594 52.48460937 -23.48164062 52.46140625 -22.625 52.4375 C-22.625 58.46735075 -22.625 58.46735075 -25.8125 61.75 C-26.40417969 62.36488281 -26.99585937 62.97976562 -27.60546875 63.61328125 C-33.04062402 68.52279288 -37.34348394 69.03426173 -44.515625 68.84765625 C-49.21716273 68.22747853 -50.69467416 67.15980579 -53.625 63.4375 C-57.21931532 54.77846763 -56.03086195 45.52520737 -52.66015625 36.99609375 C-49.57395061 30.35607555 -45.38543292 24.95994467 -40.625 19.4375 C-39.88765625 18.55449219 -39.1503125 17.67148437 -38.390625 16.76171875 C-27.91501693 4.57027832 -16.08288498 -0.30326608 0 0 Z " fill="#000000" transform="translate(64.625,8.5625)"/>
<path d="M0 0 C-0.08121094 1.19109375 -0.16242188 2.3821875 -0.24609375 3.609375 C-0.74695465 14.75688407 0.53229031 24.42034892 3.5 35.1875 C8.74393578 54.36732146 8.94761438 69.16182091 -0.9921875 86.81640625 C-7.22090569 96.6926812 -14.84598003 103.28199334 -26 107 C-28.62039714 107.17431213 -31.19062084 107.27684435 -33.8125 107.3125 C-34.51181641 107.34150391 -35.21113281 107.37050781 -35.93164062 107.40039062 C-41.08099711 107.46301142 -43.88850539 106.33481047 -48 103 C-51.39857051 99.14828676 -51.50331498 95.32430798 -51.36328125 90.37890625 C-50.8499559 87.01745315 -49.48109559 85.26217539 -47 83 C-43.54260443 81.27130221 -39.78024432 81.51033105 -36 82 C-33.12970131 83.79393668 -31.50868362 84.98263276 -30 88 C-29.76171875 89.98828125 -29.76171875 89.98828125 -29.6875 92.3125 C-29.65011719 93.07175781 -29.61273438 93.83101563 -29.57421875 94.61328125 C-30.15493496 97.86848861 -31.82562922 99.57688463 -34 102 C-21.25625563 98.76328438 -21.25625563 98.76328438 -12 90 C-10.77605911 86.96675518 -10.28872643 85.15536746 -10 82 C-9.86078125 80.53820312 -9.86078125 80.53820312 -9.71875 79.046875 C-9.29589091 69.95540465 -11.3033166 62.22357046 -13.75390625 53.546875 C-17.67245623 39.58722171 -19.69468094 24.34841582 -13 11 C-6.69311377 0 -6.69311377 0 0 0 Z " fill="#000000" transform="translate(66,26)"/>
</svg>
