<?xml version="1.0" encoding="UTF-8"?>
<!-- Generator: visioncortex VTracer 0.6.4 -->
<svg version="1.1" xmlns="http://www.w3.org/2000/svg" width="109" height="138">
<path d="M0 0 C5.30014641 3.78106679 8.25472944 8.02082664 9.8671875 14.33203125 C10.93017568 24.88387391 10.98146518 35.831919 5.8671875 45.33203125 C5.38121094 46.26273438 4.89523438 47.1934375 4.39453125 48.15234375 C-0.66902066 56.93874352 -7.81866395 64.21598748 -17.83984375 66.9296875 C-23.61513702 67.94306945 -28.26137448 68.28476333 -33.5703125 65.58203125 C-38.05077506 61.64796657 -39.77792607 58.94210862 -40.26171875 52.96875 C-39.87541498 45.06708204 -36.76964486 37.82052591 -31.1328125 32.33203125 C-28.42401915 30.97763457 -26.12347982 31.26701674 -23.1328125 31.33203125 C-23.2771875 32.17765625 -23.4215625 33.02328125 -23.5703125 33.89453125 C-23.84875 35.59609375 -23.84875 35.59609375 -24.1328125 37.33203125 C-24.3803125 38.48703125 -24.6278125 39.64203125 -24.8828125 40.83203125 C-25.18231979 45.02513327 -24.42773259 46.85008353 -22.1328125 50.33203125 C-19.52012182 53.2350209 -18.16925633 53.32856041 -14.1953125 53.70703125 C-10.41303825 53.53127501 -8.0387961 52.90590244 -5.1328125 50.33203125 C-1.73874711 44.39241681 -0.47732847 37.85101527 -1.46484375 31.04296875 C-3.45415222 23.77878426 -8.12995425 17.04476968 -14.375 12.8125 C-20.97387133 9.58156473 -26.7131057 9.48405573 -33.6953125 11.45703125 C-42.53364569 14.82257151 -45.93041704 20.2219091 -49.82470703 28.59863281 C-57.11813584 45.18203967 -56.98830726 65.06472792 -51.0078125 82.01953125 C-45.6978031 94.72949544 -37.74246981 102.90864885 -25.3203125 108.70703125 C-22.27026249 109.95696418 -19.43057923 110.98489791 -16.1328125 111.33203125 C-14.555 111.51765625 -14.555 111.51765625 -12.9453125 111.70703125 C-5.84152363 111.00829792 -0.10935503 107.78754899 4.7421875 102.58203125 C8.00458904 98.54066385 10.06135674 94.17749019 11.8671875 89.33203125 C13.1871875 89.33203125 14.5071875 89.33203125 15.8671875 89.33203125 C16.42774602 97.47802 11.85048814 102.86685446 6.71484375 108.83203125 C-3.32375029 119.27640326 -13.02168116 124.35138505 -27.6328125 124.70703125 C-40.99991318 124.36845221 -50.60580264 120.32696048 -59.9453125 110.64453125 C-70.78686494 97.27753482 -72.18995585 78.20050571 -70.828125 61.68359375 C-69.22004487 47.31563349 -64.1233533 34.30211304 -56.1328125 22.33203125 C-55.60171875 21.50574219 -55.070625 20.67945312 -54.5234375 19.828125 C-43.33101736 3.89831911 -19.16643288 -10.2341519 0 0 Z " fill="#000000" transform="translate(80.1328125,5.66796875)"/>
</svg>
