<?xml version="1.0" encoding="UTF-8"?>
<!-- Generator: visioncortex VTracer 0.6.4 -->
<svg version="1.1" xmlns="http://www.w3.org/2000/svg" width="115" height="107">
<path d="M0 0 C3.1936029 1.72269036 4.98166889 3.16390959 7.0078125 6.203125 C7.83313502 11.83032403 7.14630676 16.37467229 4.0078125 21.203125 C1.24329217 22.58538516 -1.0383238 22.29837887 -4.1171875 22.265625 C-5.21289062 22.25660156 -6.30859375 22.24757813 -7.4375 22.23828125 C-9.9921875 22.203125 -9.9921875 22.203125 -11.9921875 20.265625 C-14.67440303 16.15848247 -14.36600724 12.96932671 -13.9921875 8.203125 C-20.87087087 13.32841849 -25.37058311 19.62008763 -26.9921875 28.203125 C-27.70182046 36.13705414 -27.32351731 43.33750647 -22.9921875 50.203125 C-18.46050265 55.24208801 -13.60059115 59.77461112 -6.59765625 60.42578125 C0.55595437 59.95195567 4.29025451 57.50533761 9.0078125 52.203125 C11.12282667 49.60906916 13.11516138 46.96324121 15.0078125 44.203125 C16.3278125 44.203125 17.6478125 44.203125 19.0078125 44.203125 C17.92396991 53.6136313 8.06847418 63.37099146 1.0078125 69.203125 C-6.61059475 74.32474332 -13.81869152 76.18453913 -22.9921875 75.203125 C-30.0760441 73.14399449 -34.98511338 69.64382349 -38.7421875 63.203125 C-42.66198503 53.79561092 -43.27551301 38.84266269 -40.36523438 29.10546875 C-38.78212287 25.69030437 -36.50675217 22.96805758 -33.9921875 20.203125 C-33.2909375 19.089375 -32.5896875 17.975625 -31.8671875 16.828125 C-29.79444726 13.92628866 -27.60279849 11.63573979 -24.9921875 9.203125 C-24.07566406 8.33107422 -24.07566406 8.33107422 -23.140625 7.44140625 C-16.6609261 1.47457927 -9.03813341 -3.61525336 0 0 Z " fill="#000000" transform="translate(89.9921875,12.796875)"/>
<path d="M0 0 C-0.15404113 5.08335725 -3.02068432 7.35754718 -6.50390625 10.64453125 C-8 12 -8 12 -12 12 C-11.84595887 6.91664275 -8.97931568 4.64245282 -5.49609375 1.35546875 C-4 0 -4 0 0 0 Z " fill="#000000" transform="translate(43,56)"/>
<path d="M0 0 C1.32 0 2.64 0 4 0 C3.25 4.75 3.25 4.75 1 7 C-0.32 7 -1.64 7 -3 7 C-2.25 2.25 -2.25 2.25 0 0 Z " fill="#000000" transform="translate(16,79)"/>
<path d="M0 0 C1.32 0 2.64 0 4 0 C3.67 1.65 3.34 3.3 3 5 C1.35 5.33 -0.3 5.66 -2 6 C-1.125 1.125 -1.125 1.125 0 0 Z " fill="#000000" transform="translate(45,49)"/>
</svg>
