<?xml version="1.0" encoding="UTF-8"?>
<!-- Generator: visioncortex VTracer 0.6.4 -->
<svg version="1.1" xmlns="http://www.w3.org/2000/svg" width="123" height="138">
<path d="M0 0 C0.94875 0.7425 1.8975 1.485 2.875 2.25 C3.59558594 2.78109375 4.31617187 3.3121875 5.05859375 3.859375 C14.71525634 11.53396398 17.61656121 22.49834274 19.875 34.25 C20.28638508 38.51067956 20.35220974 42.72159553 20.3125 47 C20.30637695 48.13308594 20.30025391 49.26617187 20.29394531 50.43359375 C20.12415327 59.5971397 18.85790859 67.5818963 15.875 76.25 C15.45927734 77.58417969 15.45927734 77.58417969 15.03515625 78.9453125 C10.17282489 92.88250192 -0.12584422 107.71607608 -13.4375 114.3125 C-24.91049742 119.67666271 -37.35839094 120.17765922 -49.38037109 116.10180664 C-50.87652902 115.54941563 -52.36586156 114.97802627 -53.84619141 114.38452148 C-59.88343582 112.01591254 -65.54223223 111.09193365 -71.83203125 113.125 C-72.52683594 113.49625 -73.22164062 113.8675 -73.9375 114.25 C-77.20338057 115.96324882 -78.21347679 116.25 -82.125 116.25 C-81.80118571 113.30079904 -81.60308222 111.70303463 -79.41015625 109.625 C-65.71332896 101.15174305 -54.34256414 96.42955406 -38.125 99.25 C-33.89520783 95.63092649 -30.188495 92.3382885 -29.21875 86.5859375 C-28.80714767 76.33017937 -32.2893485 67.75400391 -36.56640625 58.68359375 C-40.7287225 49.51397975 -41.02670014 36.02243114 -37.5625 26.5625 C-35.2473819 21.8068964 -31.83292019 17.9787512 -28.125 14.25 C-26.805 14.25 -25.485 14.25 -24.125 14.25 C-24.05240455 17.80717709 -24.08881889 21.0582401 -24.75 24.5625 C-25.76085338 34.50255822 -21.3532545 43.93881435 -16.91015625 52.625 C-12.52043076 61.37320739 -13.45478792 69.94487845 -16.0234375 79.19921875 C-19.37421874 88.47921927 -24.77651154 95.76042577 -32.125 102.25 C-26.17347009 105.42414929 -20.83411393 106.24079742 -14.125 105.25 C-7.85271537 103.04144907 -2.3757075 99.1012735 0.875 93.25 C8.65271541 73.792511 9.16418591 53.72003971 2.125 33.9375 C-2.58736753 23.06692491 -10.49935331 16.11523003 -21.1875 11.4375 C-25.54577026 9.7377746 -29.42070586 8.50659786 -34.125 8.25 C-34.92035156 8.17652344 -35.71570312 8.10304688 -36.53515625 8.02734375 C-45.51248242 7.52358012 -54.03378121 10.01111846 -61.125 15.625 C-61.785 16.49125 -62.445 17.3575 -63.125 18.25 C-63.55039062 18.73984375 -63.97578125 19.2296875 -64.4140625 19.734375 C-70.00151581 26.59615977 -71.95245878 35.56168276 -71.125 44.25 C-70.17938428 49.37208514 -69.18820372 53.81531471 -65.125 57.3125 C-60.63833634 60.21013695 -57.41502582 60.61482937 -52.125 60.25 C-49.25194028 58.84539303 -47.37989001 57.50489001 -45.125 55.25 C-43.805 55.25 -42.485 55.25 -41.125 55.25 C-40.88492539 58.13589687 -40.83327905 59.77686508 -42.375 62.27734375 C-54.52251004 75.53656788 -54.52251004 75.53656788 -63.11328125 76.46484375 C-69.31101421 76.7324488 -75.75414682 75.95652445 -80.73046875 71.9609375 C-86.91452878 65.17842005 -86.64500937 56.15657793 -86.4296875 47.5390625 C-85.57192213 31.44001156 -75.0339288 18.96563414 -63.59912109 8.54394531 C-46.03698854 -6.87163974 -20.8495307 -11.67573719 0 0 Z " fill="#000000" transform="translate(97.125,9.75)"/>
</svg>
