<?xml version="1.0" encoding="UTF-8"?>
<!-- Generator: visioncortex VTracer 0.6.4 -->
<svg version="1.1" xmlns="http://www.w3.org/2000/svg" width="131" height="165">
<path d="M0 0 C6.59286586 5.46435729 10.26338387 11.31588499 13.4140625 19.21875 C13.72988281 19.99605469 14.04570313 20.77335937 14.37109375 21.57421875 C21.37730089 41.62646677 20.45773101 67.9846654 11.4140625 87.21875 C5.32814632 99.35291809 -0.43149633 110.24529029 -13.25390625 116.1484375 C-20.27806526 118.40473242 -27.47584402 118.66655214 -34.2109375 115.53125 C-42.42029989 107.53792346 -43.97938548 99.40858907 -44.5859375 88.21875 C-50.98037012 95.16564279 -57.34282062 102.13486952 -63.5859375 109.21875 C-64.9059375 109.21875 -66.2259375 109.21875 -67.5859375 109.21875 C-67.83379166 106.34561473 -67.96368037 104.75517297 -66.27246094 102.35351562 C-65.66950195 101.78310547 -65.06654297 101.21269531 -64.4453125 100.625 C-63.78660156 99.98691406 -63.12789062 99.34882812 -62.44921875 98.69140625 C-61.75183594 98.04042969 -61.05445313 97.38945313 -60.3359375 96.71875 C-58.97437228 95.41895711 -57.61494108 94.11692456 -56.2578125 92.8125 C-55.61908203 92.20019531 -54.98035156 91.58789062 -54.32226562 90.95703125 C-52.21733638 88.84973426 -50.36628126 86.60477772 -48.5859375 84.21875 C-47.5959375 84.21875 -46.6059375 84.21875 -45.5859375 84.21875 C-45.46532959 83.48156738 -45.34472168 82.74438477 -45.22045898 81.98486328 C-42.33589295 69.40997555 -31.14635885 54.00978624 -20.38671875 47.19140625 C-14.73805641 44.29818896 -9.76334764 42.24420918 -3.3984375 43.51953125 C-0.78522969 44.52764374 0.76129122 45.99110175 2.4140625 48.21875 C1.6291639 36.24904632 -2.42819994 24.69277997 -11.3984375 16.34375 C-17.31018502 12.40258499 -23.1236968 10.41699088 -30.25 11.4921875 C-34.00476244 12.66005675 -37.09646128 14.73239349 -40.32421875 16.94140625 C-42.5859375 18.21875 -42.5859375 18.21875 -46.5859375 18.21875 C-45.90277893 10.90369821 -42.01140831 7.77256108 -36.5859375 3.21875 C-25.38515884 -4.89750654 -12.12323584 -8.35074856 0 0 Z M3.4140625 50.21875 C3.31609375 51.01539063 3.218125 51.81203125 3.1171875 52.6328125 C2.22913543 58.92573317 1.37451662 63.23624321 -2.5859375 68.21875 C-2.9159375 69.20875 -3.2459375 70.19875 -3.5859375 71.21875 C-5.2359375 71.21875 -6.8859375 71.21875 -8.5859375 71.21875 C-8.3384375 70.0225 -8.0909375 68.82625 -7.8359375 67.59375 C-7.35391832 63.92649595 -7.56522489 63.25672311 -9.4609375 59.78125 C-10.96912126 57.95051721 -10.96912126 57.95051721 -12.5859375 56.21875 C-16.62208152 55.89585848 -19.10389425 55.98245429 -22.7734375 57.78125 C-28.01332147 62.32248277 -31.04991875 68.54888965 -31.84375 75.46484375 C-32.19090299 82.88234608 -30.51950658 89.2439919 -26.078125 95.26171875 C-22.02092459 99.6868978 -17.37142927 102.57043065 -11.5859375 104.21875 C-7.55952158 104.12724055 -4.85921303 102.50043047 -1.5859375 100.21875 C0.00683426 97.84829687 0.00683426 97.84829687 1.1015625 95.09375 C1.49730469 94.20429687 1.89304688 93.31484375 2.30078125 92.3984375 C5.09713229 84.41166646 5.70590175 77.02875425 5.6015625 68.59375 C5.60091797 67.59601563 5.60027344 66.59828125 5.59960938 65.5703125 C5.56854908 60.35218238 5.31416904 55.36015856 4.4140625 50.21875 C4.0840625 50.21875 3.7540625 50.21875 3.4140625 50.21875 Z " fill="#000000" transform="translate(87.5859375,21.78125)"/>
<path d="M0 0 C1.32 0 2.64 0 4 0 C3.25 4.75 3.25 4.75 1 7 C-0.32 7 -1.64 7 -3 7 C-2.25 2.25 -2.25 2.25 0 0 Z " fill="#000000" transform="translate(16,131)"/>
</svg>
