<?xml version="1.0" encoding="UTF-8"?>
<!-- Generator: visioncortex VTracer 0.6.4 -->
<svg version="1.1" xmlns="http://www.w3.org/2000/svg" width="113" height="121">
<path d="M0 0 C3.25204941 1.79194559 4.50298243 3.12430237 6.3125 6.3125 C8.20086108 13.69427515 6.41899718 19.43016229 3 26 C-3.10229337 35.50422265 -10.26104494 43.86615913 -19 51 C-17.44951277 55.65146169 -15.61505599 58.64218247 -11.171875 60.94921875 C-6.79972288 62.79319894 -3.59787807 63.68901643 1 62 C8.55196087 57.14721906 16.01366689 50.47949966 21 43 C22.65 43 24.3 43 26 43 C25.59031102 48.23491469 24.20183042 50.34876653 20.375 53.875 C17.21000457 56.86515857 14.24346268 59.80739646 11.5 63.1875 C5.04434136 70.67363936 -3.35139595 76.05556367 -13.24609375 77.27734375 C-19.49998273 77.54830948 -25.97144323 76.62086644 -30.828125 72.41796875 C-36.47305519 66.12907808 -37.33070374 60.40940188 -37.625 52.1875 C-37.68300781 50.86202148 -37.68300781 50.86202148 -37.7421875 49.50976562 C-37.83600784 47.34017028 -37.91907326 45.17011453 -38 43 C-39.32 43.66 -40.64 44.32 -42 45 C-42.0825 45.5775 -42.165 46.155 -42.25 46.75 C-43.20531013 49.6159304 -44.78469173 50.9990764 -47 53 C-47.66 53 -48.32 53 -49 53 C-49.185625 53.70125 -49.37125 54.4025 -49.5625 55.125 C-51.26405897 58.52811794 -53.25943667 60.14961832 -56.1796875 62.5078125 C-58.63086977 64.51715076 -60.79395606 66.72710624 -63 69 C-63.99 69 -64.98 69 -66 69 C-66.103125 69.598125 -66.20625 70.19625 -66.3125 70.8125 C-67.08876455 73.28243264 -68.07088921 74.32251235 -70 76 C-71.32 76 -72.64 76 -74 76 C-74 74.35 -74 72.7 -74 71 C-70.375 68 -70.375 68 -67 68 C-66.8956665 67.40670898 -66.79133301 66.81341797 -66.68383789 66.20214844 C-65.89465967 63.66077481 -64.95508327 62.60687696 -63.05859375 60.765625 C-62.47529297 60.19199219 -61.89199219 59.61835937 -61.29101562 59.02734375 C-60.37352539 58.14755859 -60.37352539 58.14755859 -59.4375 57.25 C-58.82197266 56.64800781 -58.20644531 56.04601562 -57.57226562 55.42578125 C-53.04110863 51 -53.04110863 51 -51 51 C-50.5978125 50.1028125 -50.5978125 50.1028125 -50.1875 49.1875 C-49.01506533 47.02775192 -47.80630718 45.64209744 -46 44 C-45.34 44 -44.68 44 -44 44 C-43.87431641 43.20335938 -43.87431641 43.20335938 -43.74609375 42.390625 C-42.73440048 39.14896909 -40.93184123 36.54868665 -39.0625 33.75 C-38.24625839 32.50725676 -37.43120153 31.26373473 -36.6171875 30.01953125 C-36.19018555 29.36807129 -35.76318359 28.71661133 -35.32324219 28.04541016 C-32.62919475 23.88106893 -30.04146311 19.64855412 -27.45141602 15.41894531 C-20.82024413 4.70129504 -13.44774023 -2.30899196 0 0 Z M-20 15 C-25.15397463 23.65131455 -25.14926379 34.32831293 -23 44 C-17.13572627 41.47385132 -13.65585162 36.35024101 -10.0625 31.25 C-8.40941145 26.19349386 -8.30082822 21.26218764 -9 16 C-10.75348531 12.79159935 -10.75348531 12.79159935 -13 11 C-16.25309951 11 -17.67356934 12.84379597 -20 15 Z " fill="#000000" transform="translate(84,23)"/>
</svg>
