<?xml version="1.0" encoding="UTF-8"?>
<!-- Generator: visioncortex VTracer 0.6.4 -->
<svg version="1.1" xmlns="http://www.w3.org/2000/svg" width="111" height="141">
<path d="M0 0 C0.79470703 -0.020625 1.58941406 -0.04125 2.40820312 -0.0625 C7.39568406 -0.09550236 10.94840208 0.33522415 15.1875 3.25 C19.3098258 8.44430481 18.91319553 13.912259 18.1875 20.25 C16.49301603 26.24446481 13.37134003 30.71750663 9.1875 35.25 C8.1975 35.25 7.2075 35.25 6.1875 35.25 C6.1875 35.91 6.1875 36.57 6.1875 37.25 C-0.43865673 40.34866202 -5.48622525 41.72266289 -12.8125 41.25 C-17.50360366 36.55889634 -17.10426391 35.39744678 -17.14453125 29.1640625 C-16.63465826 24.68917723 -14.76278111 22.56906625 -11.8125 19.25 C-9.8325 18.92 -7.8525 18.59 -5.8125 18.25 C-4.9683062 22.22977076 -4.36562735 26.22007218 -3.8125 30.25 C-0.62487635 32.37508244 1.45262223 32.7520163 5.1875 33.25 C6.94704753 28.74115945 7.70578487 25.08732548 7.1875 20.25 C4.96016636 15.51691603 2.21985525 13.02934682 -2.46484375 10.9453125 C-8.24823342 9.23242837 -13.70150163 9.36721886 -19.25 11.6875 C-23.84365693 16.28115693 -26.55509011 22.9680239 -27.0625 29.4375 C-26.70450759 34.89688429 -25.3168316 39.20840712 -22.0625 43.625 C-16.75506506 47.45814746 -11.08458963 47.47007332 -4.8125 47.25 C-4.8125 48.9 -4.8125 50.55 -4.8125 52.25 C-5.76511719 52.85328125 -6.71773437 53.4565625 -7.69921875 54.078125 C-8.966242 54.88526573 -10.2331637 55.69256588 -11.5 56.5 C-12.12583984 56.89574219 -12.75167969 57.29148438 -13.39648438 57.69921875 C-19.63183201 61.68200625 -23.98812315 64.68924744 -27.0625 71.6875 C-27.56265625 72.79996094 -28.0628125 73.91242188 -28.578125 75.05859375 C-31.64915602 82.99856951 -31.75365698 91.25736438 -28.8125 99.25 C-25.36815739 105.30729218 -21.81402077 109.836587 -15.0625 112 C-13.31881513 112.44235073 -11.56858187 112.85975958 -9.8125 113.25 C-9.07773437 113.44078125 -8.34296875 113.6315625 -7.5859375 113.828125 C-0.6127097 115.19741337 5.16746347 112.71452245 11.1875 109.25 C16.33952327 105.16878941 19.0829734 99.67729291 20.1875 93.25 C20.56599127 85.96691043 18.52015879 80.08431893 14.1875 74.25 C10.54020413 70.90664546 7.11221369 70.92456821 2.37109375 70.94921875 C-0.0725231 71.28581714 -1.70858748 71.97669936 -3.8125 73.25 C-6.11825932 76.47806304 -6.20901864 79.36411732 -5.8125 83.25 C-4.51786486 86.09819731 -3.46056303 87.77475377 -0.9375 89.625 C1.8045069 90.43147262 3.44255191 89.98644949 6.1875 89.25 C7.115625 89.064375 8.04375 88.87875 9 88.6875 C10.0828125 88.4709375 10.0828125 88.4709375 11.1875 88.25 C11.1875 94.25 11.1875 94.25 9.0625 96.5 C4.63959882 100.73060113 1.56930036 103.4901931 -4.6875 103.5 C-8.74024902 103.31274427 -8.74024902 103.31274427 -11.1875 101.1875 C-15.48355444 96.38001051 -16.03078999 92.01504229 -15.6875 85.75 C-14.57841703 76.51184298 -8.97280622 69.54142509 -1.91015625 63.66796875 C4.93662691 58.6450644 10.93670962 58.71255406 19.1875 59.25 C23.50896853 60.12768208 25.78257122 61.73851101 28.5625 65.25 C33.15248761 73.72382327 31.67125616 83.4475305 29.1640625 92.43359375 C27.67315143 96.73338129 25.68007832 100.45415929 23.1875 104.25 C22.75695312 104.92675781 22.32640625 105.60351562 21.8828125 106.30078125 C14.6008888 116.89454031 3.67462754 123.50694507 -8.8125 126.25 C-20.26940943 127.38902995 -31.35149723 127.61743628 -40.8125 120.25 C-47.69553787 112.53709231 -48.53237507 104.14357196 -48.14453125 94.10546875 C-47.04395904 81.32588324 -37.87608315 69.89202114 -28.8125 61.25 C-29.67875 61.188125 -30.545 61.12625 -31.4375 61.0625 C-36.08230175 59.94430699 -39.27455204 57.53855055 -41.95703125 53.546875 C-45.22394755 44.7754285 -43.12080787 33.5364328 -39.48828125 25.2890625 C-31.29948149 10.43851189 -17.12092902 0.10948636 0 0 Z " fill="#000000" transform="translate(64.8125,5.75)"/>
</svg>
