<?xml version="1.0" encoding="UTF-8"?>
<!-- Generator: visioncortex VTracer 0.6.4 -->
<svg version="1.1" xmlns="http://www.w3.org/2000/svg" width="139" height="132">
<path d="M0 0 C1.98 0 3.96 0 6 0 C6 1.65 6 3.3 6 5 C5.67 5.33 5.34 5.66 5 6 C4.46510265 16.51964779 6.36117521 26.30877121 12.01171875 35.29296875 C13 37 13 37 13 39 C13.67546875 38.51789063 14.3509375 38.03578125 15.046875 37.5390625 C15.93890625 36.90742187 16.8309375 36.27578125 17.75 35.625 C18.63171875 34.99851563 19.5134375 34.37203125 20.421875 33.7265625 C24.82766626 30.77601744 27.37608722 29.7470497 32.75 29.875 C34.22726563 29.90207031 34.22726563 29.90207031 35.734375 29.9296875 C36.48203125 29.95289062 37.2296875 29.97609375 38 30 C42.36853147 35.46066434 42.36853147 35.46066434 41.734375 41.3359375 C40.33413052 46.41554778 36.88701344 50.52649863 33 54 C31.35 54.33 29.7 54.66 28 55 C27.34 51.7 26.68 48.4 26 45 C24.02 44.67 22.04 44.34 20 44 C19.01 44.99 18.02 45.98 17 47 C17.02320313 48.18335938 17.04640625 49.36671875 17.0703125 50.5859375 C17.32012025 68.1992479 14.87157435 79.45074909 2.51171875 92.796875 C-5.2311532 99.58844542 -14.42339905 101.3638059 -24.40234375 101.28125 C-30.32441279 100.81828695 -34.89605385 99.23544279 -39 94.875 C-41.00482593 89.11112545 -42.02190499 84.11950665 -39.3125 78.5 C-36.65713702 75.62933732 -34.71113006 74.23570128 -30.81640625 73.69921875 C-26.0544804 73.67446004 -22.85310872 73.86934916 -19 77 C-17.27679812 80.44640377 -17.6276488 84.2242282 -18 88 C-19.62400184 91.63467079 -20.66113044 92.77408696 -24 95 C-17.64548858 95.46877543 -13.1394188 95.14785372 -7.59375 91.875 C-6 91 -6 91 -4 91 C-3.731875 90.46375 -3.46375 89.9275 -3.1875 89.375 C-2 87 -2 87 -0.375 84.5 C5.08576823 70.59986268 -2.63562721 54.34957638 -7.73046875 41.265625 C-10.86990694 33.19002399 -11.64374889 23.3472993 -9.05859375 14.9375 C-7.84211907 12.49692383 -6.51572036 10.26538746 -5 8 C-4.28457031 6.82244141 -4.28457031 6.82244141 -3.5546875 5.62109375 C-2.40046702 3.72487439 -1.21804683 1.85557772 0 0 Z " fill="#000000" transform="translate(72,26)"/>
<path d="M0 0 C7.10650857 2.92115551 15.5745207 5.2266418 23.02734375 2.16796875 C25.27894974 0.69809393 27.10326817 -1.10326817 29 -3 C30.32 -3 31.64 -3 33 -3 C32.77191496 0.87744573 32.48352888 3.35529482 30.125 6.5 C21.20201622 14.28826908 11.03414343 19.74642929 -0.96484375 19.42578125 C-8.35151541 18.38955575 -15.27028811 15.2243673 -22.0625 12.25 C-29.75253552 8.97764446 -41.02440914 8.06727721 -48.90625 11.12890625 C-54.59249131 14.75862362 -57.90132673 19.03358216 -60.25 25.375 C-61.86599839 33.18565887 -60.84251433 38.69067743 -58 46 C-57.38125 46.309375 -56.7625 46.61875 -56.125 46.9375 C-54.75 47.625 -53.375 48.3125 -52 49 C-49.44192238 48.91089842 -46.9237399 48.76705754 -44.375 48.5625 C-43.31539062 48.48418945 -43.31539062 48.48418945 -42.234375 48.40429688 C-40.48920013 48.27458793 -38.74454275 48.13795046 -37 48 C-37.66170375 52.95021415 -39.17423083 54.5832284 -42.9921875 57.57421875 C-50.1368092 62.64773416 -56.14473324 64.20421897 -65 63 C-68.72287955 61.77433367 -71.24501113 59.98415019 -73.66015625 56.8359375 C-75.33813687 53.2842934 -75.45409385 50.16082514 -75.375 46.3125 C-75.36484863 45.60206543 -75.35469727 44.89163086 -75.34423828 44.15966797 C-74.93526096 30.21322444 -68.60824059 19.76778468 -58.6328125 10.25390625 C-41.59498398 -4.33189057 -20.65672328 -8.56730458 0 0 Z " fill="#000000" transform="translate(89,9)"/>
</svg>
