<?xml version="1.0" encoding="UTF-8"?>
<!-- Generator: visioncortex VTracer 0.6.4 -->
<svg version="1.1" xmlns="http://www.w3.org/2000/svg" width="108" height="201">
<path d="M0 0 C2.4540873 1.68718502 3.79942046 3.12862987 4.4765625 6.0703125 C5.27807145 19.18974848 -4.31333587 29.39166983 -12 39 C-13.98 41.64 -15.96 44.28 -18 47 C-11.07 47.33 -4.14 47.66 3 48 C3.495 50.475 3.495 50.475 4 53 C-1.57521091 59.41993984 -9.02154974 59.31990309 -17 60 C-17.2476381 68.23187328 -16.47740834 76.26290033 -15.5625 84.4375 C-15.42779297 85.70271484 -15.29308594 86.96792969 -15.15429688 88.27148438 C-14.5347978 94.73083319 -14.5347978 94.73083319 -13 101 C-6.13673701 93.49277653 0.46525211 85.79283954 7 78 C8.65 78 10.3 78 12 78 C11.47241092 81.79082522 10.67338983 83.83595533 8.0625 86.625 C7.43601562 87.31078125 6.80953125 87.9965625 6.1640625 88.703125 C4.62037536 90.34155106 3.07310407 91.97660329 1.5234375 93.609375 C-1.04602963 96.35738516 -3.53708316 99.15630325 -6 102 C-6.639375 102.69867188 -7.27875 103.39734375 -7.9375 104.1171875 C-13.07390324 110.85871675 -12.4794539 118.20785794 -12.61303711 126.31835938 C-12.9513115 140.82319069 -18.50543512 153.25883343 -28.4375 163.9375 C-32.39265796 167.6013182 -36.62233751 170.75390437 -42.14453125 171.15625 C-45.68451413 170.89354255 -47.76138261 170.19685935 -50.5 167.9375 C-53.23435508 164.40562469 -52.34112465 159.30669873 -52 155 C-49.04079084 143.28646375 -41.69285022 134.92936177 -34.18359375 125.7890625 C-33.64863281 125.11617188 -33.11367188 124.44328125 -32.5625 123.75 C-32.08941406 123.16734375 -31.61632812 122.5846875 -31.12890625 121.984375 C-27.71702343 115.98701697 -29.39925274 109.29799052 -30.3125 102.8125 C-30.59923615 100.66427279 -30.88437169 98.51583137 -31.16796875 96.3671875 C-31.38138916 94.76375488 -31.38138916 94.76375488 -31.59912109 93.12792969 C-32.28028427 87.8130316 -32.82105129 82.48513145 -33.3527832 77.15356445 C-33.79688928 72.74888945 -34.34409807 68.37843307 -35 64 C-39.35253031 68.23346413 -43.45736624 72.60074575 -47.421875 77.19921875 C-49.19649815 79.2242219 -51.05776935 81.13545857 -53 83 C-54.32 83 -55.64 83 -57 83 C-57 81.35 -57 79.7 -57 78 C-55.82244141 76.83984375 -55.82244141 76.83984375 -54.62109375 75.65625 C-40.43495049 63.08294162 -40.43495049 63.08294162 -34.625 46.1875 C-33.96353956 29.45754294 -27.23576223 16.41808816 -15.19921875 4.8515625 C-10.50819348 0.9021025 -6.2032305 -0.45389491 0 0 Z M-15 12 C-20.73261543 20.51702863 -20.54992842 28.15017092 -20 38 C-14.19990264 33.4851977 -10.65635772 28.96685761 -8 22 C-7.71067184 18.85292179 -8.09749969 17.10234482 -9 14 C-9.66 13.34 -10.32 12.68 -11 12 C-12.32 12 -13.64 12 -15 12 Z M-29 128 C-30.48413185 129.93386878 -31.96237428 131.87178073 -33.4375 133.8125 C-33.85837891 134.35970703 -34.27925781 134.90691406 -34.71289062 135.47070312 C-38.79066473 140.85336495 -39.89783551 145.34202498 -39 152 C-37.18409021 155.02690443 -37.18409021 155.02690443 -35 157 C-32.03954142 156.67995042 -30.42488449 156.40971004 -28.25 154.3125 C-24.13278981 146.69566115 -25.77663416 136.25771939 -27 128 C-27.66 128 -28.32 128 -29 128 Z " fill="#000000" transform="translate(77,26)"/>
</svg>
