<?xml version="1.0" encoding="UTF-8"?>
<!-- Generator: visioncortex VTracer 0.6.4 -->
<svg version="1.1" xmlns="http://www.w3.org/2000/svg" width="101" height="141">
<path d="M0 0 C4.13558918 3.50626039 6.70171853 6.44032875 7.3359375 11.8828125 C7.46680637 22.74492842 4.9878165 30.52426439 -1.9375 38.95703125 C-5.47151864 42.45758381 -9.55542579 44.8205866 -14 47 C-14.75410156 47.38027344 -15.50820313 47.76054688 -16.28515625 48.15234375 C-19.96601063 49.30161771 -23.50101689 49.21355993 -27.3125 49.125 C-28.05306641 49.11597656 -28.79363281 49.10695312 -29.55664062 49.09765625 C-31.37123467 49.07424213 -33.18566071 49.03837615 -35 49 C-37.91540721 44.91611609 -39.67451309 42.26623558 -39.38671875 37.0859375 C-38.44385086 32.00016522 -36.14056423 28.16980947 -32.5625 24.5 C-29.74209271 22.84902988 -28.21002336 22.63314019 -25 23 C-25.04125 24.03125 -25.0825 25.0625 -25.125 26.125 C-24.97127774 30.89039016 -24.43772727 34.56227273 -21 38 C-18.67724823 38.40047444 -16.34260643 38.7397104 -14 39 C-10.50540398 36.22224419 -8.66086433 34.07806989 -8 29.6875 C-7.74003886 24.95305619 -8.53935583 21.07432749 -11 17 C-15.60705763 12.39294237 -20.51559045 8.96148923 -27.125 8.4375 C-33.45226053 8.69488009 -38.89941603 11.3790315 -44 15 C-50.3854618 22.50499081 -51.47485815 32.17122363 -51.3203125 41.67578125 C-50.64618698 48.67188881 -48.2879697 56.15269444 -43 61 C-38.32962777 63.99435244 -33.61101382 66.09674162 -28 66 C-18.0911395 62.89229498 -11.95808992 55.75651149 -7 46.9375 C-6.3211907 45.63123868 -5.64958755 44.32103622 -5 43 C-3.35 43.33 -1.7 43.66 0 44 C-0.05800781 44.65484375 -0.11601563 45.3096875 -0.17578125 45.984375 C-0.52041277 52.95577841 0.82413571 57.77710495 3.6875 64.09765625 C7.95476203 73.53389342 9.83760316 83.31042503 7 93.5 C2.50345314 105.11080176 -5.37394634 114.54475363 -16.625 119.8125 C-18.40998336 120.55787767 -20.20094346 121.28926162 -22 122 C-23.03125 122.433125 -24.0625 122.86625 -25.125 123.3125 C-33.34193286 125.27741873 -42.04349365 124.15809437 -49.4375 120.125 C-52.45290724 117.62441838 -53.75549314 115.74647759 -54.30078125 111.8515625 C-54.32718031 106.83574125 -53.94174207 103.26045404 -51 99 C-47.52179241 96.01867921 -44.38354276 95.47689071 -39.93359375 95.63671875 C-36.85927317 96.21431837 -35.13397831 97.80135568 -33 100 C-30.87448886 104.25102229 -31.56674946 109.67317023 -33 114.0625 C-33.33 114.701875 -33.66 115.34125 -34 116 C-27.63084994 117.62616597 -23.61254678 116.32321849 -18 113 C-12.75550639 108.78160297 -10.39659832 104.17278653 -9.5625 97.5 C-9.71884999 92.75431782 -11.24593797 88.33456786 -12.56762695 83.80444336 C-14.23858262 77.79306926 -14.41483704 72.18798586 -14 66 C-14.65484375 66.44730469 -15.3096875 66.89460938 -15.984375 67.35546875 C-25.659781 73.76474193 -34.11783481 78.41014438 -45.875 78.5 C-46.58865723 78.50636475 -47.30231445 78.51272949 -48.03759766 78.51928711 C-53.81586884 78.37886657 -58.01986261 76.98013739 -62.125 72.875 C-68.69522501 62.80065498 -70.41274673 52.20450713 -68.0625 40.4375 C-65.9345323 32.45255452 -61.58554818 25.78239471 -57 19 C-56.51660156 18.27683594 -56.03320312 17.55367187 -55.53515625 16.80859375 C-43.92376384 1.59731676 -17.80067583 -9.21820713 0 0 Z " fill="#000000" transform="translate(77,7)"/>
</svg>
