<?xml version="1.0" encoding="UTF-8"?>
<!-- Generator: visioncortex VTracer 0.6.4 -->
<svg version="1.1" xmlns="http://www.w3.org/2000/svg" width="132" height="152">
<path d="M0 0 C2.5896995 3.34154775 3.66180748 6.47149731 4.9375 10.5 C6.5875 7.2 8.2375 3.9 9.9375 0.5 C12.4125 0.005 12.4125 0.005 14.9375 -0.5 C15.91464021 3.2999897 15.69739103 5.70054485 14.9375 9.5 C14.50010883 18.5311201 15.36031135 27.61465905 15.9375 36.625 C16.03413743 38.16925313 16.13049376 39.71352388 16.2265625 41.2578125 C16.46030331 45.0054192 16.69784028 48.75276735 16.9375 52.5 C19.69737315 49.7862359 22.3808162 47.10889856 24.76171875 44.0546875 C25.23287109 43.45269531 25.70402344 42.85070312 26.18945312 42.23046875 C26.66318359 41.61816406 27.13691406 41.00585938 27.625 40.375 C28.11033203 39.75496094 28.59566406 39.13492188 29.09570312 38.49609375 C31.13531768 35.87976059 33.09661404 33.26132894 34.9375 30.5 C36.2575 30.5 37.5775 30.5 38.9375 30.5 C38.48042423 35.53520564 37.11864968 38.03004062 33.8125 41.8125 C33.00296875 42.75867188 32.1934375 43.70484375 31.359375 44.6796875 C30.56015625 45.61039063 29.7609375 46.54109375 28.9375 47.5 C27.63417567 49.13661719 26.34128471 50.78163775 25.0625 52.4375 C24.52882813 53.12714844 23.99515625 53.81679687 23.4453125 54.52734375 C22.94773437 55.17832031 22.45015625 55.82929687 21.9375 56.5 C21.380625 57.14195313 20.82375 57.78390625 20.25 58.4453125 C18.6123898 61.00895228 18.65833752 62.42226327 18.8125 65.4375 C19.21554852 82.27597133 16.36676943 98.36839196 4.47265625 111.1484375 C-5.14479355 120.08615777 -5.14479355 120.08615777 -11.8359375 120.79296875 C-12.69445312 120.75816406 -13.55296875 120.72335938 -14.4375 120.6875 C-15.31148437 120.66042969 -16.18546875 120.63335937 -17.0859375 120.60546875 C-19.0625 120.5 -19.0625 120.5 -24.0625 115.5 C-25.65466384 105.12145051 -22.24616624 97.85255472 -16.54833984 89.47949219 C-12.35261738 83.88979161 -7.20741254 79.19597973 -2.0625 74.5 C-1.05521242 73.50734108 -0.050338 72.51201585 0.9375 71.5 C0.79629984 68.91633755 0.64971667 66.33317115 0.5 63.75 C0.46068359 63.02039063 0.42136719 62.29078125 0.38085938 61.5390625 C0.17602902 58.0727027 -0.1477002 54.84666974 -1.0625 51.5 C-2.0215625 53.2015625 -2.0215625 53.2015625 -3 54.9375 C-7.69571569 62.40554501 -14.32884492 69.97359786 -23.0625 72.5 C-27.82881749 73.27269652 -31.04347852 73.01912415 -35.375 70.8125 C-43.05563618 64.2035805 -44.15321179 57.40691615 -44.9140625 47.66015625 C-44.96304688 46.94730469 -45.01203125 46.23445313 -45.0625 45.5 C-51.35537613 52.4618532 -51.35537613 52.4618532 -57.5625 59.5 C-61.67166283 64.21828579 -65.86758492 68.8580078 -70.0625 73.5 C-71.7125 73.5 -73.3625 73.5 -75.0625 73.5 C-74.60940625 68.77607816 -72.85030087 66.87862347 -69.4375 63.6875 C-65.05042354 59.47565627 -60.97349572 55.15289421 -57.0625 50.5 C-56.27101563 49.56414062 -55.47953125 48.62828125 -54.6640625 47.6640625 C-48.0835373 39.74125341 -42.39570847 31.63353375 -38 22.3125 C-33.40975693 12.70214675 -27.9314168 3.60110657 -17.75 -0.7578125 C-11.70992064 -2.42585767 -5.69583765 -2.78979803 0 0 Z M-25.0625 13.5 C-32.20903338 22.49995676 -33.30965037 31.2888301 -32.0625 42.5 C-30.57579914 47.55848425 -28.21621214 51.1540025 -24.8125 55.125 C-20.95485402 57.05382299 -17.28312594 57.48288549 -13.0625 56.5 C-8.60170052 53.70173775 -6.50072002 50.21860044 -4.3125 45.5625 C-4.00957031 44.95470703 -3.70664063 44.34691406 -3.39453125 43.72070312 C-1.01777002 38.824575 0.09177763 34.60238046 0 29.1875 C-0.020625 27.970625 -0.04125 26.75375 -0.0625 25.5 C-0.64 25.974375 -1.2175 26.44875 -1.8125 26.9375 C-4.01548751 28.46735244 -5.49020302 28.94338952 -8.0625 29.5 C-8.01609375 28.69175781 -7.9696875 27.88351563 -7.921875 27.05078125 C-7.62444706 20.49223185 -7.62444706 20.49223185 -9.625 14.375 C-15.01783909 10.22666223 -19.49914026 9.35707253 -25.0625 13.5 Z M-1.1875 81.5 C-8.70792932 88.65065944 -8.70792932 88.65065944 -11.625 98.1875 C-11.37198566 101.93730224 -10.39572848 104.48624655 -8.0625 107.5 C-6.0825 107.83 -4.1025 108.16 -2.0625 108.5 C3.66852335 102.21436149 3.07893241 95.68824971 3 87.625 C2.99548828 86.74585937 2.99097656 85.86671875 2.98632812 84.9609375 C2.97462337 82.80726197 2.95669069 80.65362183 2.9375 78.5 C1.15205897 78.5 0.03640621 80.31318186 -1.1875 81.5 Z " fill="#000000" transform="translate(84.0625,23.5)"/>
</svg>
