<?xml version="1.0" encoding="UTF-8"?>
<!-- Generator: visioncortex VTracer 0.6.4 -->
<svg version="1.1" xmlns="http://www.w3.org/2000/svg" width="124" height="154">
<path d="M0 0 C3.52074951 1.9804216 5.69903891 4.09711673 7 8 C8.30326115 19.72935039 2.02163443 30.08473582 -5 39 C-5.81984375 39.94488281 -6.6396875 40.88976563 -7.484375 41.86328125 C-11.87675192 47.12185673 -14.68677042 50.50632302 -14.125 57.5625 C-13.63011939 60.52000077 -12.94871748 63.15384756 -12 66 C-11.23816406 65.18015625 -10.47632813 64.3603125 -9.69140625 63.515625 C-2.36823479 55.79799141 3.44202996 50.04991335 14.5625 49.5 C19.79434922 49.75539013 23.96905229 50.51216945 28 54 C36.50780333 64.88668427 36.96747961 74.63364766 36 88 C34.37313651 99.90237926 28.58505965 111.01088368 19.1640625 118.55859375 C13.08637161 122.60673082 7.24022667 124.87663779 -0.0859375 123.62109375 C-2.85731404 122.72181034 -4.30509771 121.33049065 -6 119 C-7.88148373 115.23703254 -7.51855619 111.09716373 -7 107 C-5.1825094 102.01067253 -2.95280322 97.60504927 1 94 C2.65 94 4.3 94 6 94 C6.01417969 94.65226562 6.02835938 95.30453125 6.04296875 95.9765625 C6.39109993 102.35583108 7.21502949 105.66014303 12 110 C14.16531168 110.94436349 14.16531168 110.94436349 16 111 C16.94875 110.29875 17.8975 109.5975 18.875 108.875 C19.40867187 108.48054688 19.94234375 108.08609375 20.4921875 107.6796875 C24.75914033 102.92634627 24.41950071 96.40837483 24.31640625 90.39453125 C23.70507547 83.83593314 21.8338193 78.21988652 17.625 73.125 C16.75875 72.42375 15.8925 71.7225 15 71 C14.48953125 70.54882812 13.9790625 70.09765625 13.453125 69.6328125 C8.55418798 65.34017957 5.41313094 64.87899753 -1 65 C-7.01581498 70.15641284 -10.79816302 76.26488905 -11.49536133 84.28173828 C-11.77148713 89.22761516 -11.79692968 94.17269421 -11.8125 99.125 C-11.83567959 100.86201008 -11.86105203 102.59899235 -11.88867188 104.3359375 C-11.9510781 108.55739562 -11.98376446 112.77812218 -12 117 C-15.3 119.64 -18.6 122.28 -22 125 C-23.65 124.67 -25.3 124.34 -27 124 C-27.05534912 122.79577393 -27.11069824 121.59154785 -27.16772461 120.35083008 C-27.37633376 115.8237176 -27.58757718 111.29673102 -27.79956055 106.76977539 C-27.89043303 104.82156588 -27.98061934 102.87332422 -28.07006836 100.92504883 C-28.55979799 90.26864161 -29.07166811 79.62896286 -30 69 C-30.41773682 69.4532666 -30.83547363 69.9065332 -31.26586914 70.37353516 C-33.19406484 72.46110566 -35.12822762 74.54305933 -37.0625 76.625 C-37.71927734 77.33785156 -38.37605469 78.05070312 -39.05273438 78.78515625 C-48.28100195 88.69531552 -48.28100195 88.69531552 -52 91 C-53.32 91 -54.64 91 -56 91 C-55.5241908 86.41469923 -53.9563887 84.49888092 -50.66796875 81.34765625 C-49.34635742 80.05891602 -49.34635742 80.05891602 -47.99804688 78.74414062 C-47.07056641 77.85919922 -46.14308594 76.97425781 -45.1875 76.0625 C-34.48229963 66.67285502 -34.48229963 66.67285502 -30.53125 53.7109375 C-30.48755854 50.0448265 -30.49998033 46.38114476 -30.51171875 42.71484375 C-30.36259098 30.12032579 -27.03695376 16.62855607 -18.234375 7.0859375 C-16.55079959 5.5999992 -14.84121825 4.28274447 -13 3 C-12.195625 2.38125 -11.39125 1.7625 -10.5625 1.125 C-7.00095798 -0.43860381 -3.77503562 -0.80366969 0 0 Z M-14 12 C-19.11278691 21.11500945 -16.59812198 32.21315385 -15 42 C-10.0173749 37.27741089 -5.42322592 31.87556264 -4.8046875 24.75 C-5.30552376 19.46116909 -7.3054945 15.6945055 -11 12 C-11.99 12 -12.98 12 -14 12 Z " fill="#000000" transform="translate(74,10)"/>
</svg>
