<?xml version="1.0" encoding="UTF-8"?>
<!-- Generator: visioncortex VTracer 0.6.4 -->
<svg version="1.1" xmlns="http://www.w3.org/2000/svg" width="161" height="143">
<path d="M0 0 C-0.47452868 4.46523706 -1.80557616 6.23591933 -5.1875 9.125 C-5.94417969 9.78757812 -6.70085937 10.45015625 -7.48046875 11.1328125 C-10.19076988 13.14137675 -12.94718253 14.57741357 -16 16 C-16.55730492 32.30759944 -15.23004396 45.52189692 -10 61 C-7.36 58.36 -4.72 55.72 -2 53 C-0.02 53 1.96 53 4 53 C4.50660156 53.74056641 4.50660156 53.74056641 5.0234375 54.49609375 C5.46945313 55.13675781 5.91546875 55.77742188 6.375 56.4375 C6.81585938 57.07558594 7.25671875 57.71367188 7.7109375 58.37109375 C8.92160853 60.13740928 8.92160853 60.13740928 11 61 C10.98042236 60.39849121 10.96084473 59.79698242 10.94067383 59.17724609 C10.82433464 52.80136614 11.45493041 46.87402952 12.6875 40.625 C12.86756592 39.7081543 13.04763184 38.79130859 13.2331543 37.84667969 C16.05673748 24.20760295 21.34598005 12.2549308 33 4 C39.43382917 0.19222355 45.66898687 0.70234984 53 1 C54.37562854 2.28965176 55.70766393 3.62689293 57 5 C57 5.66 57 6.32 57 7 C57.721875 6.505 58.44375 6.01 59.1875 5.5 C62.14848659 3.92080715 63.71253029 3.71821688 67 4 C67 5.65 67 7.3 67 9 C62.49628878 13.07478634 57.76257033 16.77665558 52.875 20.375 C52.2773584 20.82794434 51.6797168 21.28088867 51.06396484 21.74755859 C47.6092817 24.25299491 45.30969126 25.60173048 41 25 C40.24758891 21.34543185 39.59950296 17.68266103 39 14 C37.68 13.34 36.36 12.68 35 12 C28.19821892 17.92218048 27.50199059 25.52319327 26.83703613 34.1026001 C26.56410226 39.17332356 26.5712927 44.23626465 26.625 49.3125 C26.62898804 50.07936127 26.63297607 50.84622253 26.63708496 51.63632202 C26.70631347 62.99290326 27.2451082 73.94526395 30 85 C30.1551709 85.65210449 30.3103418 86.30420898 30.47021484 86.97607422 C32.12829572 93.86023673 33.95849794 99.15411016 38 105 C38.33 105.99 38.66 106.98 39 108 C44.59822556 110.59124257 44.59822556 110.59124257 50.5 110.3125 C53.21370205 108.88780642 54.95891672 107.26787031 57 105 C58.32 105 59.64 105 61 105 C61 110.06237817 61 110.06237817 57.5625 113.6875 C49.60266206 121.49479749 43.51008603 123.55975379 32.453125 123.46875 C26.67054462 122.68378434 23.02236286 119.72841744 19.4765625 115.2734375 C11.17834246 102.496813 10.80165707 85.69748746 9 71 C6.36 72.98 3.72 74.96 1 77 C-2.64572278 76.69618977 -3.74203039 76.3029751 -6.171875 73.44921875 C-6.77515625 72.64097656 -7.3784375 71.83273438 -8 71 C-8.15855469 72.18335937 -8.31710938 73.36671875 -8.48046875 74.5859375 C-9.75409382 83.47589696 -10.98181693 91.37140817 -16 99 C-16.3604541 99.55171875 -16.7209082 100.1034375 -17.09228516 100.671875 C-26.35059021 114.67716556 -26.35059021 114.67716556 -33 119 C-33.68964844 119.48082031 -34.37929688 119.96164063 -35.08984375 120.45703125 C-40.40295015 123.66611216 -45.15879643 124.48021471 -51.25 124.5625 C-52.26018188 124.58449463 -52.26018188 124.58449463 -53.29077148 124.60693359 C-59.45170944 124.4805007 -62.87869725 121.84218397 -67.375 117.9375 C-69.88524196 113.39975491 -69.75035735 109.06676946 -69 104 C-67.01031547 100.08924075 -65.63466354 98.42310902 -62 96 C-57.31523374 95.24552454 -53.94558099 95.38247772 -49.9375 98 C-46.99118035 101.04136222 -46.95253859 104.83695643 -47 109 C-49.63736264 114.47008547 -49.63736264 114.47008547 -53.25 115.875 C-53.8275 115.91625 -54.405 115.9575 -55 116 C-54.505 116.99 -54.505 116.99 -54 118 C-47.26971932 118.48947496 -42.93911128 117.10608693 -37 114 C-35.6078125 113.319375 -35.6078125 113.319375 -34.1875 112.625 C-29.5398627 109.17246943 -27.2851126 104.55057598 -26.26171875 98.8984375 C-25.23846051 87.56623427 -26.98077923 77.25155607 -30.0625 66.375 C-33.77290774 53.17396623 -35.61696303 40.7265551 -29 28 C-27.45553784 25.50610925 -25.83750116 23.29687645 -24 21 C-25.27875 21.061875 -26.5575 21.12375 -27.875 21.1875 C-34.47290091 21.1875 -40.33768026 19.35726104 -46.1875 16.375 C-49.5726467 14.72003939 -52.23457862 14.13692441 -56 14 C-60.30269492 15.60100276 -62.1745316 18.23151237 -64.2109375 22.171875 C-65.88606178 26.052856 -66.18364026 28.97977634 -65.4375 33.125 C-63.22780442 37.54439116 -60.03032623 39.30671787 -55.4375 40.875 C-52.45092709 41.02815759 -50.7104031 40.2196814 -48 39 C-46.34080104 38.63128912 -44.6752357 38.28718326 -43 38 C-43.28752526 41.35446138 -43.92637956 42.90853218 -46.0625 45.5625 C-52.54155445 50.93873667 -59.28947462 53.3820729 -67.6796875 53.28515625 C-72.12166816 52.73925627 -75.56794572 50.74337043 -78.4375 47.25 C-80.79115232 37.83539074 -77.34311956 28.33957094 -72.578125 20.23046875 C-66.15652784 11.1543995 -57.09547194 3.20562492 -46 1 C-37.48102845 0.00484414 -31.44532369 1.31802829 -23.71484375 4.86328125 C-19.61639663 6.5793217 -17.40327134 6.80726641 -13 6 C-10.80998995 4.57956357 -8.88783014 3.06851078 -6.95703125 1.3125 C-4.49721593 -0.3371965 -2.90230097 -0.24060526 0 0 Z " fill="#000000" transform="translate(85,9)"/>
</svg>
