<?xml version="1.0" encoding="UTF-8"?>
<!-- Generator: visioncortex VTracer 0.6.4 -->
<svg version="1.1" xmlns="http://www.w3.org/2000/svg" width="85" height="149">
<path d="M0 0 C2.64 0 5.28 0 8 0 C11.63678758 4.68928836 11.42558455 8.90472225 11.40625 14.578125 C11.41708618 15.50413513 11.42792236 16.43014526 11.43908691 17.38421631 C11.47328567 20.33954848 11.48891987 23.29449624 11.5 26.25 C11.51465329 30.13057339 11.54852928 34.01030045 11.59375 37.890625 C11.59072876 38.76906067 11.58770752 39.64749634 11.58459473 40.55255127 C11.65610345 46.52210554 12.79396656 51.45597243 15 57 C17.97 57.495 17.97 57.495 21 58 C28.58132177 52.11359609 34.55311634 44.79434329 40.70654297 37.49291992 C41.75441067 36.28346144 42.86844873 35.13155127 44 34 C45.32 34 46.64 34 48 34 C46.57561385 45.90531707 28.87157554 61.18261653 19.7890625 68.6953125 C14.64717315 72.4450746 10.28162779 73.59999403 4.0859375 72.6484375 C0.76306821 71.61548562 -0.93133842 69.71511832 -3 67 C-4.28962445 63.13112666 -4.21433719 59.42241005 -4.28125 55.38671875 C-4.30886414 54.11596245 -4.30886414 54.11596245 -4.33703613 52.8195343 C-4.39576823 50.10892662 -4.44855887 47.39825525 -4.5 44.6875 C-4.56793023 41.12878151 -4.64168254 37.5702497 -4.71875 34.01171875 C-4.73232544 33.19902023 -4.74590088 32.38632172 -4.7598877 31.54899597 C-4.8527014 27.27031227 -5.16564657 23.21441376 -6 19 C-14.96717828 27.83460594 -14.96717828 27.83460594 -23.3984375 37.17578125 C-26.11275711 40.26745749 -29.05209608 43.13273782 -32 46 C-33.65 46 -35.3 46 -37 46 C-36.69847367 40.58257689 -33.60784189 38.18195488 -29.875 34.6875 C-28.68051237 33.53308823 -27.48778997 32.37684705 -26.296875 31.21875 C-25.72388672 30.66445312 -25.15089844 30.11015625 -24.56054688 29.5390625 C-21.50841139 26.5289464 -18.76504414 23.2703314 -16 20 C-14.83431582 18.68662733 -13.66762415 17.37414828 -12.5 16.0625 C-8.02555591 10.95173542 -3.76918152 5.65377228 0 0 Z " fill="#000000" transform="translate(37,59)"/>
<path d="M0 0 C2.4375 1.5 2.4375 1.5 4 4 C4.31874291 7.03067032 4.23342683 9.96545118 4 13 C1.82677119 15.59115742 0.37173066 16.87878348 -2.875 17.9375 C-6.71848305 18.01436966 -8.77080694 17.02763285 -12 15 C-13.60086627 11.79826746 -13.49917089 8.47422941 -13 5 C-9.21759811 -0.92576297 -6.78360996 -1.5204643 0 0 Z " fill="#000000" transform="translate(42,15)"/>
</svg>
