<?xml version="1.0" encoding="UTF-8"?>
<!-- Generator: visioncortex VTracer 0.6.4 -->
<svg version="1.1" xmlns="http://www.w3.org/2000/svg" width="101" height="145">
<path d="M0 0 C4.23736088 1.33728592 7.32984096 0.90929827 11.28125 -1.06640625 C13.15625 -2.00390625 13.15625 -2.00390625 17.15625 -2.00390625 C16.92557666 1.74114331 16.19287949 2.95804281 13.5390625 5.71484375 C12.46302632 6.6534011 11.37667819 7.58024395 10.28125 8.49609375 C3.693729 14.01124761 3.693729 14.01124761 0.72485352 21.84033203 C0.71876181 30.43775781 2.41930548 37.73346769 5.09375 45.87109375 C10.12371359 61.64728352 13.43781881 77.30227775 6.15625 92.99609375 C0.62784261 103.30052173 -8.58775155 113.10594898 -19.80078125 117.03125 C-28.50927794 119.38637804 -36.66101699 120.56725803 -44.84375 115.99609375 C-48.2563176 113.15228742 -49.55312703 111.72440027 -50.28515625 107.37109375 C-50.47985871 102.74848044 -50.15356082 99.65013882 -48.15625 95.43359375 C-44.84777229 91.9462794 -42.51885068 91.13283666 -37.78125 90.74609375 C-34.78904922 91.00074914 -33.26023314 91.24622665 -30.84375 92.99609375 C-28.03225468 96.41005236 -27.27141542 99.4930944 -27.40625 103.92578125 C-28.20047972 107.68418977 -30.41525193 110.08189607 -32.84375 112.99609375 C-25.35124218 112.70792037 -19.13031861 110.05542091 -12.84375 105.99609375 C-7.70891503 100.42291921 -5.71534123 94.89806362 -5.96484375 87.31640625 C-6.95118581 76.99618037 -9.57802684 66.98446349 -12.76953125 57.140625 C-16.24473346 45.99033165 -16.32157672 35.19361404 -11.2890625 24.5390625 C-9.43665498 21.27982657 -7.45427498 18.68120516 -4.84375 15.99609375 C-5.545 15.9703125 -6.24625 15.94453125 -6.96875 15.91796875 C-13.54615919 15.52475407 -18.20629757 14.35616473 -23.84375 10.99609375 C-28.09883257 8.61324751 -30.93234272 7.27984686 -35.84375 7.99609375 C-40.16040644 10.28138245 -43.04674264 12.40374161 -44.84375 16.99609375 C-45.53144242 22.06464161 -45.39518798 25.85237053 -43.15625 30.49609375 C-40.77836942 33.06677546 -39.18545288 34.06784295 -35.84375 34.99609375 C-34.956875 34.50109375 -34.07 34.00609375 -33.15625 33.49609375 C-29.96788762 32.05230701 -28.26187454 31.69449453 -24.84375 31.99609375 C-24.84375 34.12109375 -24.84375 34.12109375 -25.84375 36.99609375 C-31.72723762 42.86490934 -38.72481029 46.02712712 -46.96875 46.49609375 C-50.55059107 46.39675147 -52.61193114 45.88603325 -55.40625 43.62109375 C-59.69843459 38.99874112 -59.63062846 34.28918659 -59.4453125 28.16796875 C-58.64150253 19.48358967 -52.1239386 11.87166213 -46.09375 5.99609375 C-32.18417316 -5.05304592 -16.08981567 -6.93591353 0 0 Z " fill="#000000" transform="translate(72.84375,15.00390625)"/>
</svg>
