<?xml version="1.0" encoding="UTF-8"?>
<!-- Generator: visioncortex VTracer 0.6.4 -->
<svg version="1.1" xmlns="http://www.w3.org/2000/svg" width="105" height="193">
<path d="M0 0 C7.75 0.75 7.75 0.75 10 3 C11.51295185 12.14738651 11.33538083 21.53849227 11.55224609 30.79174805 C11.60452812 32.9667282 11.66153715 35.14155107 11.71875 37.31640625 C11.74904297 38.59974854 11.77933594 39.88309082 11.81054688 41.20532227 C12.00947727 45.18982633 12.45852101 49.04934078 13 53 C14.9177069 50.77172107 16.83419239 48.54241095 18.75 46.3125 C19.28882813 45.68666016 19.82765625 45.06082031 20.3828125 44.41601562 C23.32152415 40.9934917 26.20783921 37.5444177 29 34 C30.32 34 31.64 34 33 34 C32.63049366 39.41407115 30.57996473 42.16018164 26.875 45.875 C25.4394055 47.36272503 24.00844643 48.85371075 22.58984375 50.35766602 C21.46112704 51.5236484 20.29205862 52.65115707 19.09765625 53.74975586 C14.28417599 58.50502831 13.23595928 61.97881868 13.17578125 68.69726562 C13.20027344 69.72529297 13.22476563 70.75332031 13.25 71.8125 C13.38034027 86.49440038 10.5853624 97.71445031 0.4609375 108.7734375 C-1.98360828 111.23240538 -4.47344375 113.6257989 -7 116 C-7.72316406 116.72832031 -8.44632813 117.45664063 -9.19140625 118.20703125 C-12.42062192 121.40834873 -14.7698105 122.10922468 -19.25 122.125 C-23 122 -23 122 -28 117 C-29.35859237 104.01789517 -24.91756577 94.73576235 -17.0625 84.6875 C-15.72574568 83.11007758 -14.37125635 81.54752371 -13 80 C-12.24589844 79.13761719 -11.49179687 78.27523437 -10.71484375 77.38671875 C-8.82496841 75.24352679 -6.92106531 73.11521553 -5 71 C-4.34 71 -3.68 71 -3 71 C-2.97222486 69.66679321 -2.95326659 68.33340287 -2.9375 67 C-2.92589844 66.2575 -2.91429687 65.515 -2.90234375 64.75 C-2.95982791 61.86036321 -2.95982791 61.86036321 -3.4765625 58.46484375 C-4.36274166 51.78128206 -4.35298851 45.0192259 -4.51757812 38.28710938 C-4.72203048 31.92594079 -5.3990515 26.16397581 -7 20 C-12.71430856 21.38528692 -15.41681583 25.69301263 -19 30 C-24.15221591 35.85562127 -29.40364478 41.56559718 -35 47 C-36.32 47 -37.64 47 -39 47 C-38.94499831 42.56548879 -37.72401803 40.36733255 -34.71875 37.30078125 C-33.32316098 35.96016694 -31.91628812 34.63122795 -30.5 33.3125 C-24.90894483 27.92826942 -19.75918929 22.5641429 -14.953125 16.46484375 C-10.34268088 10.64646327 -5.33069859 5.16411426 0 0 Z M-3 77 C-4.6540144 79.07727398 -6.29819344 81.16117008 -7.9375 83.25 C-8.40607422 83.83652344 -8.87464844 84.42304688 -9.35742188 85.02734375 C-13.90182122 90.8467904 -14.73782518 95.73824687 -14 103 C-12.8646327 105.98244913 -12.8646327 105.98244913 -11 108 C-10.01 108.33 -9.02 108.66 -8 109 C-2.18810593 102.09059494 -1.18797492 96.81807368 -1.625 87.9375 C-1.65207031 86.88111328 -1.67914063 85.82472656 -1.70703125 84.73632812 C-1.7771029 82.15535574 -1.8752653 79.57880993 -2 77 C-2.33 77 -2.66 77 -3 77 Z " fill="#000000" transform="translate(49,61)"/>
<path d="M0 0 C2.140625 0.29296875 2.140625 0.29296875 6.140625 3.29296875 C6.140625 6.59296875 6.140625 9.89296875 6.140625 13.29296875 C4.490625 14.94296875 2.840625 16.59296875 1.140625 18.29296875 C-0.29798794 18.20550591 -1.73535008 18.09731527 -3.171875 17.98046875 C-3.97238281 17.92246094 -4.77289063 17.86445312 -5.59765625 17.8046875 C-8.22209834 17.21090181 -9.16758172 16.33516581 -10.859375 14.29296875 C-11.461912 7.30353957 -11.461912 7.30353957 -9.74609375 4.42578125 C-6.4420203 0.53535111 -5.01383051 0.25069153 0 0 Z " fill="#000000" transform="translate(50.859375,18.70703125)"/>
</svg>
