<?xml version="1.0" encoding="UTF-8"?>
<!-- Generator: visioncortex VTracer 0.6.4 -->
<svg version="1.1" xmlns="http://www.w3.org/2000/svg" width="145" height="150">
<path d="M0 0 C1.40053506 2.80107012 1.2075504 5.18891681 1.25 8.3125 C1.27578125 9.44300781 1.3015625 10.57351562 1.328125 11.73828125 C0.7746978 17.23961113 -2.06037461 20.33207291 -6 24 C-7.65 24 -9.3 24 -11 24 C-11.17015625 23.31292969 -11.3403125 22.62585938 -11.515625 21.91796875 C-11.75796875 21.01691406 -12.0003125 20.11585937 -12.25 19.1875 C-12.48203125 18.29417969 -12.7140625 17.40085937 -12.953125 16.48046875 C-14.15888432 13.62353901 -15.40101703 12.61630966 -18 11 C-23.74573405 11.49891149 -23.74573405 11.49891149 -28 15 C-28.37555384 20.63330758 -27.92369218 24.73170511 -26 30.0625 C-23.39656326 37.37250565 -23.06075934 42.82473315 -26.06640625 50.1015625 C-27.46426382 52.94406785 -29.14144901 55.43648139 -31 58 C-30.40832031 58.08636719 -29.81664063 58.17273438 -29.20703125 58.26171875 C-23.65931522 59.24818049 -20.57525255 60.37320258 -17 65 C-13.92691113 70.12963434 -13.18017726 74.92964697 -12.4375 80.75 C-12.1876479 82.53796364 -11.93636257 84.32572762 -11.68359375 86.11328125 C-11.56612793 86.96100098 -11.44866211 87.8087207 -11.32763672 88.68212891 C-10.07617753 97.83677051 -10.07617753 97.83677051 -6 106 C-6 106.66 -6 107.32 -6 108 C-0.14483797 109.29111482 -0.14483797 109.29111482 5.25 107.5625 C5.8275 107.046875 6.405 106.53125 7 106 C9.75 105.8125 9.75 105.8125 12 106 C11.79644059 109.56228965 11.11430808 110.8796757 8.625 113.5 C1.66101969 118.73545059 -5.77120966 121.88952141 -14.5546875 121.4140625 C-19.7456634 120.53507936 -22.17982278 118.09356962 -25.25 114 C-28.9297568 106.7931734 -29.01252816 98.35549596 -29.375 90.4375 C-29.75380526 83.86252302 -30.81285081 77.83578007 -34 72 C-36.79299621 69.68575329 -36.79299621 69.68575329 -39.8125 70.25 C-42.95668056 70.98980719 -45.94421729 71.96009626 -49 73 C-49.13535156 73.84820312 -49.27070312 74.69640625 -49.41015625 75.5703125 C-51.94711298 89.39444796 -57.83684548 104.74595836 -69.72119141 113.22851562 C-77.06833986 117.94025291 -83.41962501 121.14444659 -92.3125 121.25 C-93.60800781 121.27578125 -94.90351562 121.3015625 -96.23828125 121.328125 C-102.14610595 120.81280073 -106.19472607 118.50995428 -110 114 C-111.45053871 109.64838388 -111.6490053 105.54303712 -111 101 C-109.3251866 97.87534814 -107.21491615 95.60745808 -104 94 C-102.45976004 93.93049459 -100.91665012 93.91547643 -99.375 93.9375 C-98.55773437 93.94652344 -97.74046875 93.95554687 -96.8984375 93.96484375 C-95 94 -95 94 -92.5625 96.125 C-89.67173001 99.36830292 -89 100.69774878 -89 105 C-90.32447807 108.72115268 -91.81102914 111.7165437 -94 115 C-87.32129749 115.72594593 -82.57842509 113.63610216 -77 110 C-71.00502205 104.94565667 -68.60524973 98.83527281 -67.6484375 91.19140625 C-67.27075199 83.07116788 -68.7874528 75.71258314 -70.5 67.8125 C-73.4975375 53.85426983 -76.23329417 39.07369048 -69 26 C-68.24855781 24.45903577 -67.4984807 22.91740486 -66.75 21.375 C-65.88375 19.704375 -65.88375 19.704375 -65 18 C-65.66644531 17.90203125 -66.33289063 17.8040625 -67.01953125 17.703125 C-72.15718879 16.86960294 -76.83865839 15.7900887 -81.6875 13.875 C-86.50373802 12.05004371 -89.86845749 11.30419763 -95 12 C-98.40766001 13.70383 -100.38497834 14.99360092 -102.375 18.25 C-103.6144937 23.70377226 -103.79623519 27.40752961 -101.3125 32.375 C-97.87716638 36.27456789 -95.55778194 36.89068197 -90.4375 37.25 C-87.18725634 37.01361864 -85.76025739 36.52290063 -83 35 C-81.68 35 -80.36 35 -79 35 C-79.10472423 39.29369342 -80.1971101 41.62674261 -83.0625 44.6875 C-89.69002993 50.73930511 -96.15137841 51.57687462 -105 51.3515625 C-110.10726984 50.75305432 -112.58195722 48.60711515 -115.875 44.875 C-118.3520978 38.54463896 -117.5336875 31.63073209 -115.16796875 25.35546875 C-109.77348514 14.47629277 -101.31834418 5.53989037 -90 1 C-89.25105469 0.68933594 -88.50210938 0.37867188 -87.73046875 0.05859375 C-78.03981413 -3.43254677 -68.82661095 -1.77803408 -59.296875 1.4296875 C-55.59495468 2.3488718 -52.7014888 1.80759756 -49 1 C-48.67 0.67 -48.34 0.34 -48 0 C-46.35 0 -44.7 0 -43 0 C-43.4673111 4.584483 -45.00913689 6.38208057 -48.375 9.4375 C-54.49879283 15.36688671 -56.55928604 19.98482694 -57.0625 28.4765625 C-56.8338312 41.36776628 -52.79363525 53.79884879 -49 66 C-45.04 62.37 -41.08 58.74 -37 55 C-37 48.60981074 -37.25106744 45.38474149 -39.0625 39.625 C-41.49188609 31.14107896 -41.88889459 24.92643091 -37.5625 17.0625 C-31.9574079 8.52655252 -25.65865521 0.48388818 -15.6875 -2.75 C-10.24513056 -3.25626692 -4.7463006 -2.87686054 0 0 Z " fill="#000000" transform="translate(129,16)"/>
</svg>
