<?xml version="1.0" encoding="UTF-8"?>
<!-- Generator: visioncortex VTracer 0.6.4 -->
<svg version="1.1" xmlns="http://www.w3.org/2000/svg" width="133" height="162">
<path d="M0 0 C0.98484375 0.01804687 1.9696875 0.03609375 2.984375 0.0546875 C5.91652942 0.1456854 6.26810095 1.06382498 8.25 3.125 C10.47926461 7.58352923 9.67802807 12.50684509 8.44921875 17.15234375 C5.38551852 25.83809182 0.76732582 32.84212991 -4.75 40.125 C-5.4821875 41.1046875 -6.214375 42.084375 -6.96875 43.09375 C-12.15420561 49.8271028 -12.15420561 49.8271028 -16.75 52.125 C-16.255 59.055 -16.255 59.055 -15.75 66.125 C-15.02554688 65.23296875 -14.30109375 64.3409375 -13.5546875 63.421875 C-12.5785429 62.23923827 -11.6019568 61.05696587 -10.625 59.875 C-10.150625 59.28847656 -9.67625 58.70195313 -9.1875 58.09765625 C-5.37493019 53.51226824 -1.52621178 50.05040393 4.25 48.125 C6.03782086 47.98108872 7.83163868 47.90447991 9.625 47.875 C11.02878906 47.83632812 11.02878906 47.83632812 12.4609375 47.796875 C15.70850303 48.17894153 17.58337865 49.28260707 20.25 51.125 C20.81548013 62.02620033 20.33552491 70.59014908 13.0625 79.125 C12.55332031 79.66125 12.04414062 80.1975 11.51953125 80.75 C10.13667746 82.11983558 10.13667746 82.11983558 9.25 84.125 C10.013125 84.393125 10.77625 84.66125 11.5625 84.9375 C14.22587642 86.11434074 15.41267719 86.9304289 17.25 89.125 C17.89428711 90.96264648 17.89428711 90.96264648 18.27734375 92.99609375 C18.43009766 93.73537109 18.58285156 94.47464844 18.74023438 95.23632812 C19.03754847 96.78262108 19.33183816 98.32949874 19.62304688 99.87695312 C20.57196933 104.4389276 21.41710828 107.12430189 25.25 110.125 C30.0734377 109.82353514 32.80138172 107.36364352 36.3828125 104.40234375 C38.25 103.125 38.25 103.125 41.25 103.125 C41.3428125 102.073125 41.3428125 102.073125 41.4375 101 C42.54201202 97.0917267 44.53230992 95.12142752 47.25 92.125 C48.57 92.125 49.89 92.125 51.25 92.125 C51.25 93.775 51.25 95.425 51.25 97.125 C49.27 99.105 47.29 101.085 45.25 103.125 C44.26 103.125 43.27 103.125 42.25 103.125 C42.13011719 104.22328125 42.13011719 104.22328125 42.0078125 105.34375 C40.02546032 112.61918685 31.38035849 118.20157057 25.25 122.125 C21.96480525 123.22006492 19.51336585 123.22460608 16.0625 123.1875 C14.97582031 123.17847656 13.88914062 123.16945313 12.76953125 123.16015625 C10.25 123.125 10.25 123.125 8.34765625 121.37890625 C6.28527152 119.16289882 5.53235499 117.90525106 4.6875 115.0625 C4.4503125 114.28648438 4.213125 113.51046875 3.96875 112.7109375 C2.92548547 108.95745317 1.93719967 105.19053088 0.99609375 101.41015625 C0.38698822 98.96017457 0.38698822 98.96017457 -1.75 97.125 C-4.72 97.125 -7.69 97.125 -10.75 97.125 C-10.75 95.475 -10.75 93.825 -10.75 92.125 C-8.79709472 90.28556628 -6.83818082 88.45340869 -4.875 86.625 C-4.31941406 86.10035156 -3.76382813 85.57570313 -3.19140625 85.03515625 C1.0234375 81.125 1.0234375 81.125 3.25 81.125 C5.00792001 76.62032997 5.68944418 72.95888602 5.25 68.125 C3.62030133 64.50444327 3.62030133 64.50444327 0.5 62.5 C-2.37274004 62.02120999 -3.29486597 62.60983157 -5.75 64.125 C-7.39581223 65.91824699 -7.39581223 65.91824699 -8.8125 68 C-9.29847656 68.67804688 -9.78445312 69.35609375 -10.28515625 70.0546875 C-10.76855469 70.73789063 -11.25195312 71.42109375 -11.75 72.125 C-12.26916992 72.64368652 -12.78833984 73.16237305 -13.32324219 73.69677734 C-15.49044153 77.38516965 -15.12108348 80.8473255 -15.04296875 85.046875 C-15.03660149 86.33685394 -15.03660149 86.33685394 -15.03010559 87.65289307 C-15.01334116 90.3939167 -14.97569345 93.13419939 -14.9375 95.875 C-14.92245025 97.73566645 -14.90876235 99.59634445 -14.89648438 101.45703125 C-14.86344499 106.0133054 -14.81167833 110.56902716 -14.75 115.125 C-17.72 118.095 -20.69 121.065 -23.75 124.125 C-26.06 124.125 -28.37 124.125 -30.75 124.125 C-30.77505615 123.01688965 -30.8001123 121.9087793 -30.82592773 120.76708984 C-30.92131919 116.58845786 -31.02119753 112.40994233 -31.12231445 108.23144531 C-31.16517264 106.43557491 -31.20687309 104.63967645 -31.24731445 102.84375 C-31.48693266 92.24138377 -31.85351084 81.6958722 -32.75 71.125 C-38.32222439 76.60517542 -43.69568137 82.16057898 -48.75 88.125 C-50.07 88.125 -51.39 88.125 -52.75 88.125 C-52.38784374 82.80331497 -49.4145404 79.96381908 -46 76.1875 C-44.94236939 74.99118498 -43.8850745 73.79457307 -42.828125 72.59765625 C-42.31443359 72.02160645 -41.80074219 71.44555664 -41.27148438 70.85205078 C-39.04194476 68.32128004 -36.89540593 65.72729794 -34.75 63.125 C-34.09 63.125 -33.43 63.125 -32.75 63.125 C-32.7406543 62.44099121 -32.73130859 61.75698242 -32.72167969 61.05224609 C-32.31457737 37.31658423 -29.62749262 21.38660898 -12.046875 4.0859375 C-7.96942581 0.60484992 -5.36405253 -0.12771554 0 0 Z M-9.75 12.125 C-13.05564821 13.83481804 -14.19213906 15.73413196 -15.375 19.125 C-16.98372014 24.20798493 -17.09758326 28.89654305 -16.9375 34.1875 C-16.92396484 35.05310547 -16.91042969 35.91871094 -16.89648438 36.81054688 C-16.8615933 38.91564174 -16.80780665 41.02040974 -16.75 43.125 C-13.1260733 40.43204757 -10.54090392 37.78953385 -8 34.0625 C-7.40703125 33.20527344 -6.8140625 32.34804688 -6.203125 31.46484375 C-3.61808477 27.30237306 -3.42262156 23.95383203 -3.75 19.125 C-5.13214122 15.77338754 -5.13214122 15.77338754 -6.75 13.125 C-7.74 12.795 -8.73 12.465 -9.75 12.125 Z " fill="#000000" transform="translate(68.75,12.875)"/>
</svg>
