<?xml version="1.0" encoding="UTF-8"?>
<!-- Generator: visioncortex VTracer 0.6.4 -->
<svg version="1.1" xmlns="http://www.w3.org/2000/svg" width="98" height="141">
<path d="M0 0 C6.20693738 6.77822267 6.59479009 13.82955954 6.40625 22.6796875 C5.94400307 30.29685649 1.97253788 35.41592849 -3.5 40.4375 C-8.93629526 44.90112478 -13.89107 46.45142759 -20.875 46.1875 C-21.56335937 46.17396484 -22.25171875 46.16042969 -22.9609375 46.14648438 C-27.95761303 46.04238697 -27.95761303 46.04238697 -33 41 C-33.47205799 33.74866471 -33.43546933 28.91395911 -29 23 C-27.0625 21.0625 -27.0625 21.0625 -25 20 C-23.35 20 -21.7 20 -20 20 C-20 23.96 -20 27.92 -20 32 C-18.35 33.65 -16.7 35.3 -15 37 C-12.69 37 -10.38 37 -8 37 C-5.62816422 33.29400659 -5.58060688 30.33372887 -6 26 C-7.40621883 20.30392374 -9.03262379 16.13180872 -14.125 12.9375 C-15.40089207 12.26103647 -16.69070539 11.60930377 -18 11 C-18.66 10.67 -19.32 10.34 -20 10 C-27.29265184 9.26759594 -33.91030711 9.20256852 -40.1796875 13.33203125 C-43.54517232 16.41585532 -45.15416609 19.52616774 -46 24 C-46.29552701 35.12572289 -38.88563226 46.03569617 -32.6875 54.8125 C-26.82053561 63.41311809 -25.98199396 72.7860061 -27 83 C-28.70781606 90.63008142 -31.91475862 97.36985416 -36 104 C-35.38253906 103.71125 -34.76507813 103.4225 -34.12890625 103.125 C-23.60888784 98.51348508 -16.67070279 99.77078595 -6.02709961 103.22045898 C-2.22785876 104.43998447 0.95158339 105.31877296 5 105 C6.65 103.35 8.3 101.7 10 100 C11.32 100 12.64 100 14 100 C14.46757354 102.57165447 14.37073396 104.3576996 13.05078125 106.64453125 C7.12712624 114.16366927 -2.05003198 119.99658516 -11.5703125 121.37109375 C-18.33207661 121.54685826 -23.09016904 119.95370786 -29.22265625 117.19921875 C-33.98233907 115.14405331 -37.60083062 114.07535662 -42.67578125 116.03125 C-47.13191455 118.07187692 -47.13191455 118.07187692 -51 121 C-52.65 121 -54.3 121 -56 121 C-56.29296875 118.796875 -56.29296875 118.796875 -56 116 C-53.98828125 113.640625 -53.98828125 113.640625 -51.3125 111.25 C-45.09029787 105.30101071 -40.31729234 99.25410266 -39.80859375 90.375 C-40.5563669 81.09650866 -45.97804734 73.51128264 -51 66 C-52.13837884 64.19587282 -53.26412622 62.38369211 -54.375 60.5625 C-54.85710938 59.78003906 -55.33921875 58.99757812 -55.8359375 58.19140625 C-59.69031371 50.93534901 -58.94316671 40.46466416 -57.28125 32.59765625 C-53.20978336 19.8414886 -45.94894728 7.30136414 -34.30078125 0.1796875 C-30.65192041 -1.6912055 -26.95423838 -2.94709629 -23 -4 C-22.195625 -4.2475 -21.39125 -4.495 -20.5625 -4.75 C-13.24785998 -5.46362342 -5.99619877 -4.46383686 0 0 Z " fill="#000000" transform="translate(76,10)"/>
</svg>
