<?xml version="1.0" encoding="UTF-8"?>
<!-- Generator: visioncortex VTracer 0.6.4 -->
<svg version="1.1" xmlns="http://www.w3.org/2000/svg" width="106" height="158">
<path d="M0 0 C0.87398437 0.02707031 1.74796875 0.05414063 2.6484375 0.08203125 C5.30792944 0.2239409 5.80473508 1.3086622 7.625 3.1875 C10.53440357 7.98801589 9.85681815 12.9302761 8.625 18.1875 C4.7878703 28.34218966 -1.77688677 37.32691719 -9.17578125 45.19921875 C-14.3457551 50.88546792 -17.25537945 55.40131459 -17.125 63.375 C-17.01247522 65.73776103 -16.83495686 68.08298362 -16.61767578 70.43847656 C-16.34225082 73.55848164 -16.16735475 76.67727377 -15.99609375 79.8046875 C-15.8550919 82.12000931 -15.71057406 84.43511973 -15.5625 86.75 C-15.49321289 87.84401123 -15.42392578 88.93802246 -15.35253906 90.06518555 C-14.6629427 100.66131523 -14.6629427 100.66131523 -9.91479492 109.87719727 C-7.69853706 111.7631424 -6.28771628 112.05510381 -3.375 112.1875 C6.13262058 109.76398887 12.76242673 100.61342614 18.625 93.1875 C19.945 93.1875 21.265 93.1875 22.625 93.1875 C22.27477864 98.57472852 19.17375841 101.63675092 15.75 105.5 C15.16718262 106.16354492 14.58436523 106.82708984 13.98388672 107.51074219 C9.05275514 112.98203305 3.96349551 117.37209493 -2.375 121.1875 C-2.98601563 121.56390625 -3.59703125 121.9403125 -4.2265625 122.328125 C-9.25909946 124.95172247 -14.8730848 124.79329157 -20.375 124.1875 C-24.0320069 122.9467298 -25.73031509 121.99335614 -28.125 119 C-31.84196565 110.63682729 -31.94640125 101.88703663 -32.4375 92.875 C-32.58996657 90.17022398 -32.7488855 87.46600259 -32.91015625 84.76171875 C-33.00889038 82.97640747 -33.00889038 82.97640747 -33.10961914 81.1550293 C-33.26491877 78.13362873 -33.26491877 78.13362873 -34.375 75.1875 C-34.9525 75.6825 -35.53 76.1775 -36.125 76.6875 C-38.375 78.1875 -38.375 78.1875 -42.375 78.1875 C-41.72883273 73.01816183 -39.5140993 70.85346978 -35.96875 67.25 C-32.94203936 63.33308035 -33.3025954 59.31714335 -33.44140625 54.51660156 C-33.9246104 36.8554899 -30.72649672 22.79102557 -18.17773438 9.52075195 C-12.80981703 4.0380963 -8.02751888 -0.32543995 0 0 Z M-13.75 14.375 C-19.42441073 21.17464798 -18.92532458 32.72822498 -18.375 41.1875 C-17.95980886 44.12221013 -17.95980886 44.12221013 -17.375 46.1875 C-11.58373523 40.92271385 -4.89677468 33.71317943 -4.13671875 25.6640625 C-3.91341415 19.51436415 -3.91341415 19.51436415 -6.375 14 C-9.46763992 11.19729507 -10.75584992 11.61723019 -13.75 14.375 Z " fill="#000000" transform="translate(63.375,9.8125)"/>
</svg>
