<?xml version="1.0" encoding="UTF-8"?>
<!-- Generator: visioncortex VTracer 0.6.4 -->
<svg version="1.1" xmlns="http://www.w3.org/2000/svg" width="170" height="91">
<path d="M0 0 C1.22589844 0.01353516 1.22589844 0.01353516 2.4765625 0.02734375 C3.41628906 0.04474609 3.41628906 0.04474609 4.375 0.0625 C7.68909411 4.09704936 8.50954227 7.22658185 8.47265625 12.390625 C8.46943359 13.18984375 8.46621094 13.9890625 8.46289062 14.8125 C8.45032227 16.05 8.45032227 16.05 8.4375 17.3125 C8.43298828 18.15296875 8.42847656 18.9934375 8.42382812 19.859375 C8.41207961 21.92711401 8.39414522 23.99481624 8.375 26.0625 C9.99128813 24.44621187 11.28329488 22.57454497 12.66308594 20.75756836 C26.12190954 3.06398342 26.12190954 3.06398342 32.375 0.0625 C35.4088403 -0.23689213 38.33919166 -0.18036467 41.375 0.0625 C46.12022339 4.39509526 45.67087524 9.59340748 45.98046875 15.61328125 C46.15380744 18.64371967 46.40948616 21.16595849 47.375 24.0625 C48.365 22.5775 48.365 22.5775 49.375 21.0625 C50.365 21.0625 51.355 21.0625 52.375 21.0625 C52.375 19.7425 52.375 18.4225 52.375 17.0625 C53.035 17.0625 53.695 17.0625 54.375 17.0625 C54.44074219 16.34449219 54.50648437 15.62648438 54.57421875 14.88671875 C55.6255349 11.1789062 57.43236518 9.54138963 60.1875 6.875 C61.06019531 6.01519531 61.93289062 5.15539062 62.83203125 4.26953125 C66.65230026 0.9539368 69.06355659 -0.21136598 74.125 -0.0625 C74.92421875 -0.04445313 75.7234375 -0.02640625 76.546875 -0.0078125 C78.375 0.0625 78.375 0.0625 79.84741211 1.07348633 C82.16288551 4.08837554 81.81583748 7.23459765 81.81640625 10.88671875 C81.83621803 12.05531181 81.83621803 12.05531181 81.85643005 13.24751282 C81.89732005 15.74837588 81.9189303 18.2488791 81.9375 20.75 C81.06115597 41.83414746 81.06115597 41.83414746 87.375 61.0625 C89.355 61.5575 89.355 61.5575 91.375 62.0625 C96.59825977 57.59898711 101.58422972 52.9880107 106.375 48.0625 C107.695 48.0625 109.015 48.0625 110.375 48.0625 C109.99440979 53.35070085 107.10774147 56.25760167 103.75 60.0625 C103.24082031 60.66578125 102.73164063 61.2690625 102.20703125 61.890625 C98.01962314 66.71821329 93.5545653 71.0026449 87.375 73.0625 C85.14681559 73.13187062 82.91665476 73.14707084 80.6875 73.125 C79.50800781 73.11597656 78.32851562 73.10695313 77.11328125 73.09765625 C74.375 73.0625 74.375 73.0625 72.0625 71.0625 C65.05166122 63.86768536 65.89844163 54.26272762 65.8125 44.875 C65.69617506 35.1213298 65.14971649 25.68127863 63.375 16.0625 C60.98935923 16.63834432 58.70817216 17.28477595 56.375 18.0625 C56.375 19.0525 56.375 20.0425 56.375 21.0625 C55.385 21.0625 54.395 21.0625 53.375 21.0625 C53.2925 21.92875 53.21 22.795 53.125 23.6875 C52.26508133 27.55713402 50.65540293 29.85568338 48.375 33.0625 C47.13249955 36.79000136 47.16237086 40.30902026 47.09375 44.1953125 C47.07534058 44.9877536 47.05693115 45.7801947 47.03796387 46.59664917 C46.95926422 49.98796077 46.89134086 53.37946718 46.82275391 56.77099609 C46.7711644 59.24587237 46.71388058 61.72057075 46.65625 64.1953125 C46.64267456 64.96819611 46.62909912 65.74107971 46.6151123 66.53738403 C46.48785334 71.94964666 46.48785334 71.94964666 45.375 73.0625 C39.83247776 73.25697446 35.74633082 72.64730307 30.375 71.0625 C30.36691315 70.47891724 30.35882629 69.89533447 30.35049438 69.29406738 C30.2641178 63.19387846 30.16460153 57.09400218 30.05761719 50.99414062 C30.01944711 48.72075674 29.98457381 46.44731492 29.953125 44.17382812 C29.90721393 40.89692549 29.84926267 37.62041756 29.7890625 34.34375 C29.77751129 33.33509888 29.76596008 32.32644775 29.75405884 31.28723145 C29.63555801 25.55955105 29.00068887 20.56132131 27.375 15.0625 C19.1986777 18.76630412 13.87987521 28.06572529 10.15515137 35.9597168 C7.75460505 42.43003613 8.28659966 49.64049593 8.375 56.4375 C8.36688466 58.05991786 8.35518604 59.68232189 8.33984375 61.3046875 C8.30382562 65.22666187 8.34076269 69.13804878 8.375 73.0625 C3.425 73.0625 -1.525 73.0625 -6.625 73.0625 C-6.65005615 71.90951416 -6.6751123 70.75652832 -6.70092773 69.56860352 C-6.79658473 65.20541128 -6.8963886 60.84232131 -6.99731445 56.47924805 C-7.04007582 54.60687689 -7.08177871 52.7344812 -7.12231445 50.86206055 C-7.38196687 38.9084324 -7.82323223 26.9926077 -8.625 15.0625 C-13.22426699 16.71351892 -15.80085073 19.02575241 -18.9375 22.6875 C-19.39189453 23.203125 -19.84628906 23.71875 -20.31445312 24.25 C-21.42608006 25.5137443 -22.5266822 26.78717176 -23.625 28.0625 C-24.945 28.0625 -26.265 28.0625 -27.625 28.0625 C-27.23918239 22.80944491 -24.42547955 20.00242541 -21.0625 16.25 C-20.52254395 15.63487549 -19.98258789 15.01975098 -19.42626953 14.38598633 C-6.61362025 -0.09448029 -6.61362025 -0.09448029 0 0 Z " fill="#000000" transform="translate(41.625,9.9375)"/>
</svg>
