<?xml version="1.0" encoding="UTF-8"?>
<!-- Generator: visioncortex VTracer 0.6.4 -->
<svg version="1.1" xmlns="http://www.w3.org/2000/svg" width="186" height="145">
<path d="M0 0 C5.13272211 4.00695778 7.76514477 9.53476062 9.3515625 15.765625 C9.3515625 17.085625 9.3515625 18.405625 9.3515625 19.765625 C11.27731045 18.03245184 12.55563865 16.43094011 13.9140625 14.203125 C17.31049248 8.92866904 22.71469482 2.58405884 28.3515625 -0.234375 C34.8150982 -0.73752449 40.88355106 -1.1601268 46.3515625 2.765625 C49.52306319 6.16137322 50.16411889 9.51591498 51.0390625 14.015625 C51.29042969 15.27890625 51.54179688 16.5421875 51.80078125 17.84375 C51.98253906 18.80796875 52.16429688 19.7721875 52.3515625 20.765625 C52.75246094 19.9921875 53.15335937 19.21875 53.56640625 18.421875 C58.02085394 10.26043796 63.36804664 2.35213421 72.3515625 -1.234375 C77.12926844 -1.91239928 81.2235428 -1.67304933 85.7265625 0.078125 C92.35973923 6.86923451 93.45722159 17.27332402 93.50927734 26.39086914 C93.51953949 27.68984634 93.52980164 28.98882355 93.54037476 30.3271637 C93.54381268 31.01475832 93.5472506 31.70235294 93.55079269 32.41078377 C93.56269619 34.58664275 93.58218005 36.76231323 93.60391235 38.93809509 C93.66512224 45.12166905 93.71932566 51.30522294 93.75292969 57.48901367 C93.77409037 61.2827442 93.80956178 65.07612774 93.85368729 68.86965752 C93.86768199 70.30186264 93.87653157 71.73412911 93.87974167 73.166399 C93.72891508 90.19921794 93.72891508 90.19921794 101.3515625 104.765625 C104.86409396 107.10731264 106.21625606 107.26186177 110.3515625 106.765625 C112.0341238 105.45240642 113.70153422 104.11949436 115.3515625 102.765625 C118.1640625 102.515625 118.1640625 102.515625 120.3515625 102.765625 C119.56151503 108.99942418 116.05433004 111.91013294 111.3515625 115.765625 C104.51642322 120.52846912 97.630501 122.17081965 89.3515625 120.765625 C84.54778741 118.28447861 81.37134088 115.67735937 79.53569031 110.43609619 C77.71616768 103.96653618 76.84223456 97.95689126 76.68359375 91.25 C76.65046585 90.26997009 76.61733795 89.28994019 76.58320618 88.2802124 C76.34767144 80.69910354 76.25746041 73.11532919 76.17578125 65.53125 C76.16362579 64.42213257 76.15147034 63.31301514 76.13894653 62.17028809 C76.04301782 53.03681713 76.04301782 53.03681713 76.02563477 48.54882812 C76.01010457 45.16754556 75.9699575 41.78726427 75.92578125 38.40625 C75.92768967 37.39773987 75.92959808 36.38922974 75.93156433 35.35015869 C75.80901782 28.17158981 74.17158685 22.35375279 71.3515625 15.765625 C64.66099301 15.37877742 64.66099301 15.37877742 60.79296875 18.87109375 C55.27455702 26.12429074 53.191461 35.20551943 53.23803711 44.10449219 C53.23789108 44.83659409 53.23774506 45.56869598 53.2375946 46.32298279 C53.23828974 48.73618562 53.24606342 51.1493107 53.25390625 53.5625 C53.25577185 55.23830117 53.25719508 56.91410288 53.25819397 58.58990479 C53.26200798 62.99576326 53.27182874 67.40158866 53.28289795 71.80743408 C53.29313607 76.30521192 53.29769674 80.80299511 53.30273438 85.30078125 C53.313452 94.12241035 53.33051503 102.94401492 53.3515625 111.765625 C51.63536551 113.28044686 49.90305575 114.7770284 48.1640625 116.265625 C47.20113281 117.1009375 46.23820312 117.93625 45.24609375 118.796875 C42.19907121 120.86934377 40.93557944 121.2373786 37.3515625 120.765625 C35.66096996 119.07503246 36.19194444 116.93796332 36.16210938 114.62036133 C36.14534149 113.51505569 36.12857361 112.40975006 36.11129761 111.27095032 C36.09100998 109.45266975 36.09100998 109.45266975 36.0703125 107.59765625 C36.05235626 106.34715988 36.03440002 105.09666351 36.01589966 103.80827332 C35.97752748 101.12422322 35.94079588 98.44020423 35.90655518 95.75610352 C35.8528047 91.59054095 35.78983534 87.42515489 35.72412109 83.25976562 C35.70796407 82.23559445 35.70796407 82.23559445 35.69148064 81.19073296 C35.66978017 79.82010561 35.64802334 78.44947915 35.62620926 77.07885361 C35.59381094 75.03899317 35.56179465 72.99912704 35.52987671 70.95925903 C35.30470222 56.36139152 35.30470222 56.36139152 34.9765625 41.765625 C34.94852539 40.12170776 34.94852539 40.12170776 34.91992188 38.44458008 C34.70939953 31.44079297 34.03441914 24.299576 31.3515625 17.765625 C29.36338552 15.92598194 29.36338552 15.92598194 27.3515625 14.765625 C21.27508566 15.47830299 21.27508566 15.47830299 18.6015625 19.390625 C11.19933498 30.72221752 10.77807897 42.8438071 10.9609375 55.8828125 C10.96842067 57.47705364 10.97410375 59.07130414 10.97808838 60.66555786 C10.99318183 64.81177274 11.0323173 68.957405 11.0769043 73.10339355 C11.11821407 77.35400517 11.13617471 81.6047132 11.15625 85.85546875 C11.19883219 94.15911814 11.26687877 102.4622986 11.3515625 110.765625 C1.48590751 120.64232663 1.48590751 120.64232663 -2.5234375 121.078125 C-4.6484375 120.765625 -4.6484375 120.765625 -5.6484375 119.765625 C-5.76681952 117.90968158 -5.81583556 116.04928159 -5.83789062 114.18969727 C-5.85460815 112.99236465 -5.87132568 111.79503204 -5.8885498 110.56141663 C-5.90212524 109.24821945 -5.91570068 107.93502228 -5.9296875 106.58203125 C-5.9477617 105.21084406 -5.96636624 103.83966378 -5.98547363 102.4684906 C-6.03521221 98.82720233 -6.07962253 95.18587096 -6.12237549 91.54449463 C-6.40954338 66.34652825 -6.40954338 66.34652825 -7.0703125 41.15625 C-7.11690002 39.58847557 -7.11690002 39.58847557 -7.16442871 37.98902893 C-7.48627244 29.49890885 -8.14262934 20.21513159 -14.0859375 13.578125 C-17.72998997 11.00062447 -20.06887458 9.73201728 -24.5859375 9.828125 C-29.34819098 11.2859577 -32.32016421 13.58978684 -34.87890625 17.78125 C-37.65090176 23.5053707 -39.79371299 29.68958242 -38.01953125 36.00390625 C-36.44986584 39.59640408 -35.02900204 41.48654434 -31.8359375 43.828125 C-27.99167228 44.95879124 -25.52127685 44.71556673 -21.6484375 43.765625 C-20.6584375 43.105625 -19.6684375 42.445625 -18.6484375 41.765625 C-17.3284375 41.765625 -16.0084375 41.765625 -14.6484375 41.765625 C-15.01649507 47.66926846 -16.45990271 50.38863642 -20.5234375 54.640625 C-21.40773438 55.58679688 -22.29203125 56.53296875 -23.203125 57.5078125 C-26.9732405 60.98884567 -30.0612733 60.9474946 -35.0234375 61.015625 C-36.14492188 61.04140625 -37.26640625 61.0671875 -38.421875 61.09375 C-43.19536256 60.60831059 -45.54420761 58.83960201 -48.9296875 55.546875 C-52.80402455 49.27749322 -51.30228113 40.17075444 -49.953125 33.14453125 C-47.9878045 26.13378711 -45.14756097 20.46311313 -40.6484375 14.765625 C-40.09671875 14.00507813 -39.545 13.24453125 -38.9765625 12.4609375 C-30.24870048 1.38326648 -13.7969461 -6.43043506 0 0 Z " fill="#000000" transform="translate(57.6484375,15.234375)"/>
</svg>
