<?xml version="1.0" encoding="UTF-8"?>
<!-- Generator: visioncortex VTracer 0.6.4 -->
<svg version="1.1" xmlns="http://www.w3.org/2000/svg" width="134" height="105">
<path d="M0 0 C4.47341505 6.20505959 5.06966592 10.77917909 5.5625 18.3125 C5.64628906 19.56675781 5.73007812 20.82101563 5.81640625 22.11328125 C5.87699219 23.06589844 5.93757813 24.01851562 6 25 C6.32162109 24.52167725 6.64324219 24.04335449 6.97460938 23.55053711 C21.13841999 2.62052667 21.13841999 2.62052667 29 0 C30.72795352 -0.06802967 32.45835365 -0.08495645 34.1875 -0.0625 C35.08855469 -0.05347656 35.98960938 -0.04445313 36.91796875 -0.03515625 C37.60503906 -0.02355469 38.29210937 -0.01195312 39 0 C43.42592594 6.2819594 44.13815877 10.30674442 44.24609375 17.87890625 C44.27906508 19.45638507 44.31227611 21.0338589 44.34570312 22.61132812 C44.39279976 25.07719094 44.43718733 27.54303855 44.47680664 30.0090332 C43.92896522 46.94337346 43.92896522 46.94337346 50 62 C51.485 62.495 51.485 62.495 53 63 C57.73108647 60.10800055 61.22156357 56.89982724 64.875 52.75 C65.37257813 52.19570312 65.87015625 51.64140625 66.3828125 51.0703125 C67.59447749 49.71884001 68.79809664 48.3601611 70 47 C71.32 47 72.64 47 74 47 C73.77687128 53.28640923 70.60587313 56.23248252 66.4375 60.5 C65.84130859 61.13808594 65.24511719 61.77617188 64.63085938 62.43359375 C53.07607074 74.5456873 53.07607074 74.5456873 45.73046875 75.203125 C40.4719334 75.30005653 36.31220406 75.36562268 32 72 C27.76032534 64.73913985 27.8718312 55.77137771 27.75390625 47.58984375 C27.7209902 46.00715546 27.68777821 44.42447331 27.65429688 42.84179688 C27.60687382 40.38439797 27.56233322 37.92702783 27.52319336 35.46948242 C27.48326099 33.07186623 27.43180545 30.6747042 27.37890625 28.27734375 C27.3704921 27.55111313 27.36207794 26.82488251 27.35340881 26.0766449 C27.24011111 21.3492338 26.45702374 17.45122757 25 13 C16.84460872 16.27640174 12.14958101 27.67720999 8 35 C7.64800537 35.53995605 7.29601074 36.07991211 6.93334961 36.63623047 C5.5791304 40.06588007 5.75438822 43.41698481 5.8046875 47.046875 C5.80893234 48.20367767 5.80893234 48.20367767 5.81326294 49.3838501 C5.82442987 51.83939332 5.84952771 54.2945676 5.875 56.75 C5.88503432 58.41796347 5.89415939 60.08593268 5.90234375 61.75390625 C5.92435775 65.83607897 5.95886333 69.917977 6 74 C5.67 74.33 5.34 74.66 5 75 C2.68715544 74.85973717 0.37472409 74.71264442 -1.9375 74.5625 C-3.86916016 74.44068359 -3.86916016 74.44068359 -5.83984375 74.31640625 C-9 74 -9 74 -10 73 C-10.11165565 71.64145426 -10.15668144 70.27732822 -10.17358398 68.91430664 C-10.18707382 68.04572525 -10.20056366 67.17714386 -10.21446228 66.28224182 C-10.22490067 65.33445358 -10.23533905 64.38666534 -10.24609375 63.41015625 C-10.27906818 61.40819935 -10.31227914 59.40624632 -10.34570312 57.40429688 C-10.39286797 54.24474122 -10.4372156 51.08519702 -10.47680664 47.92553711 C-10.51688893 44.8785628 -10.5683824 41.83193477 -10.62109375 38.78515625 C-10.6295079 37.85558609 -10.63792206 36.92601593 -10.64659119 35.96827698 C-10.76131922 29.78480058 -11.58791824 24.01990078 -13 18 C-16.67280036 18.48775706 -16.67280036 18.48775706 -19.5546875 20.6015625 C-19.99039063 21.26929687 -20.42609375 21.93703125 -20.875 22.625 C-23.83956328 26.90200015 -27.22902647 30.42984755 -31 34 C-31.99 34 -32.98 34 -34 34 C-34.12375 34.78375 -34.2475 35.5675 -34.375 36.375 C-35 39 -35 39 -37 41 C-38.32 41 -39.64 41 -41 41 C-40.25 36.25 -40.25 36.25 -38 34 C-37.01 34 -36.02 34 -35 34 C-34.84144531 32.86884766 -34.84144531 32.86884766 -34.6796875 31.71484375 C-33.94186052 28.76777622 -33.20300018 27.71506957 -31.125 25.5625 C-28.20494157 22.4081159 -25.53756044 19.15291919 -22.92895508 15.74267578 C-10.73220564 -0.19874455 -10.73220564 -0.19874455 0 0 Z " fill="#000000" transform="translate(52,14)"/>
</svg>
