<?xml version="1.0" encoding="UTF-8"?>
<!-- Generator: visioncortex VTracer 0.6.4 -->
<svg version="1.1" xmlns="http://www.w3.org/2000/svg" width="142" height="137">
<path d="M0 0 C4.67067189 3.80170968 8.51740795 8.94009863 9.24609375 15.0703125 C9.25 17 9.25 17 9 20 C9.66 20 10.32 20 11 20 C11.13728516 18.6696875 11.13728516 18.6696875 11.27734375 17.3125 C12.98541922 9.48305137 19.92997262 3.57549628 26.23828125 -0.94140625 C31.08216256 -3.85203116 36.54138124 -3.44085761 42 -3 C46.18500306 -1.30819025 48.50814689 1.26222034 51 5 C52.30461915 9.68957694 52.31329499 14.53929802 52.5 19.375 C52.54133057 20.36870605 52.58266113 21.36241211 52.62524414 22.38623047 C52.91913227 30.10539446 53.08085562 37.82355331 53.21484375 45.546875 C53.24277512 47.08675583 53.24277512 47.08675583 53.27127075 48.65774536 C53.36533871 53.86208138 53.45033082 59.06626933 53.51953125 64.27099609 C53.27940406 85.61033677 53.27940406 85.61033677 61 105 C63.78144476 107.22721349 63.78144476 107.22721349 66.75 107.125 C71.57284354 105.45555416 73.94897851 101.96271726 77 98 C78.32 98 79.64 98 81 98 C80.81259815 105.30867228 76.02044 110.07525711 71.02734375 114.91015625 C65.47260863 119.30203093 60.29091056 119.87540663 53.3125 119.484375 C48.38742334 118.7641987 45.14720135 118.01382202 42 114 C35.80290736 101.04527367 35.87688543 87.37872824 35.75390625 73.2734375 C35.72099112 70.66926718 35.68777911 68.06510059 35.65429688 65.4609375 C35.60590812 61.40824491 35.56185511 57.35553133 35.52319336 53.30273438 C35.48500763 49.35532715 35.43185297 45.40817465 35.37890625 41.4609375 C35.3704921 40.25964203 35.36207794 39.05834656 35.35340881 37.82064819 C35.27871326 25.88318942 35.27871326 25.88318942 31.125 14.9375 C28.99269272 12.99333748 27.83664347 12.30392609 25 12 C20.02108444 13.99156622 18.51525264 17.26245127 16.30859375 21.84375 C15.87675781 22.8853125 15.44492188 23.926875 15 25 C14.51041557 26.04327202 14.51041557 26.04327202 14.01094055 27.10762024 C10.3315214 35.75511975 10.48529242 44.06292142 10.609375 53.26171875 C10.61685136 54.90508836 10.62253768 56.54846698 10.62652588 58.19184875 C10.64167266 62.4811235 10.68085719 66.76984153 10.7253418 71.05889893 C10.76653351 75.44999667 10.78458751 79.8411859 10.8046875 84.23242188 C10.84736441 92.82186779 10.91547947 101.4108643 11 110 C9.45025019 111.34813187 7.88462935 112.6780343 6.3125 114 C5.44238281 114.7425 4.57226562 115.485 3.67578125 116.25 C0.76416967 118.15423648 -0.60146088 118.39190361 -4 118 C-5.62682231 113.00607848 -6.29099172 108.54901817 -6.27124023 103.28320312 C-6.27646698 102.54549683 -6.28169373 101.80779053 -6.28707886 101.04772949 C-6.29726477 99.45620328 -6.30308975 97.86464426 -6.30496025 96.27308655 C-6.30865466 93.73948014 -6.3254685 91.2062546 -6.34571838 88.67272949 C-6.40080854 81.47264766 -6.43162712 74.27250912 -6.45629883 67.07226562 C-6.47233973 62.6549696 -6.50273389 58.23794126 -6.54106331 53.82078552 C-6.5525762 52.15297834 -6.55864244 50.48512292 -6.55874443 48.817276 C-6.34885259 29.35019275 -6.34885259 29.35019275 -14 12 C-18.57949132 7.85665071 -22.1127255 7.6152748 -28.0234375 7.859375 C-28.67570312 7.90578125 -29.32796875 7.9521875 -30 8 C-30.69419563 9.65538958 -31.35103764 11.32636023 -32 13 C-32.26425781 13.64324219 -32.52851562 14.28648438 -32.80078125 14.94921875 C-35.05585358 20.90218219 -36.06764101 26.66088149 -35 33 C-33.603723 35.79740219 -32.1013627 37.63596696 -30 40 C-25.47277866 41.05284217 -23.20875139 40.83458394 -19 39 C-16.1875 38.875 -16.1875 38.875 -14 39 C-13.6825163 42.15255743 -13.77222224 43.64383842 -15.50390625 46.3515625 C-21.48850014 52.9607345 -25.96865925 56.04026206 -35.0625 56.5 C-38.97806086 56.40688904 -41.54940354 56.18878361 -44.625 53.6875 C-50.22344811 47.35241398 -49.61324262 41.09147669 -49.1953125 33.04980469 C-48.76632382 28.54756854 -47.18166167 24.90685259 -45 21 C-44.29423828 19.68902344 -44.29423828 19.68902344 -43.57421875 18.3515625 C-40.86630943 13.57948458 -38.11663141 9.63232183 -34 6 C-33.01 6 -32.02 6 -31 6 C-30.6596875 5.1028125 -30.6596875 5.1028125 -30.3125 4.1875 C-28.2663172 0.77719534 -25.71536998 -0.4729493 -21.953125 -1.62890625 C-14.04092916 -3.57967178 -7.40513083 -4.05186404 0 0 Z " fill="#000000" transform="translate(53,11)"/>
</svg>
