<?xml version="1.0" encoding="UTF-8"?>
<!-- Generator: visioncortex VTracer 0.6.4 -->
<svg version="1.1" xmlns="http://www.w3.org/2000/svg" width="112" height="102">
<path d="M0 0 C6.11929403 3.91634818 10.73166519 9.17572381 12.6875 16.265625 C15.50618882 33.88243011 10.31677158 47.9565927 0.421875 62.50390625 C-6.06332983 70.83598463 -16.41547384 75.76382944 -26.8125 77.125 C-32.56019791 77.27849935 -37.1762139 76.32463621 -41.59375 72.51953125 C-48.23183422 65.40962242 -49.21484575 58.56426648 -49.078125 49.05078125 C-48.89335655 46.27570123 -48.49765867 43.70655663 -47.875 41 C-48.535 41 -49.195 41 -49.875 41 C-49.9471875 41.88300781 -50.019375 42.76601563 -50.09375 43.67578125 C-51.04031463 47.70341377 -52.49666729 49.25142296 -55.375 52.1875 C-56.72271484 53.60095703 -56.72271484 53.60095703 -58.09765625 55.04296875 C-58.55930176 55.52685059 -59.02094727 56.01073242 -59.49658203 56.50927734 C-62.49527168 59.75228106 -65.20530834 63.24183691 -67.96484375 66.6875 C-69.52539602 68.57675756 -71.10357528 70.31187111 -72.875 72 C-74.195 72 -75.515 72 -76.875 72 C-77.15365021 69.05137414 -77.29223361 67.53887938 -75.44140625 65.1484375 C-74.44947266 64.27058594 -74.44947266 64.27058594 -73.4375 63.375 C-69.20877909 59.41571971 -65.62143201 55.1440653 -61.99609375 50.6328125 C-59.35834618 47.35870226 -56.62840653 44.17700754 -53.875 41 C-52.885 41 -51.895 41 -50.875 41 C-50.83375 40.154375 -50.7925 39.30875 -50.75 38.4375 C-49.73679511 34.4570522 -48.25852832 32.84989567 -45.5390625 29.8984375 C-43.83900531 27.95893564 -42.46152756 25.97747561 -41.0625 23.8125 C-31.27996797 8.857006 -20.41254299 -7.19078219 0 0 Z M-31.2578125 18.81640625 C-36.46586526 27.13441052 -36.70563137 35.86851101 -34.65625 45.29296875 C-32.77377028 51.81576098 -30.62431987 57.29386464 -24.75 61.0625 C-20.07151454 63.62019341 -16.23880168 64.45455946 -10.875 64 C-5.32615563 61.3365547 -2.61781593 57.32171855 0.125 52 C2.73121375 44.18135876 1.76439005 35.59278949 -1.69140625 28.21484375 C-2.27728516 27.11849609 -2.27728516 27.11849609 -2.875 26 C-3.21402344 25.34128906 -3.55304688 24.68257812 -3.90234375 24.00390625 C-7.16947044 18.59745106 -12.01890906 16.06200385 -17.875 14 C-23.73403597 13.23160184 -27.58414556 13.99082679 -31.2578125 18.81640625 Z " fill="#000000" transform="translate(82.875,11)"/>
</svg>
