<?xml version="1.0" encoding="UTF-8"?>
<!-- Generator: visioncortex VTracer 0.6.4 -->
<svg version="1.1" xmlns="http://www.w3.org/2000/svg" width="101" height="143">
<path d="M0 0 C10.54687889 7.55688992 14.95990818 19.15180558 17.18066406 31.55761719 C20.6515405 54.90812647 19.39608922 84.7090006 5.01171875 104.44140625 C4.4290625 105.24835938 3.84640625 106.0553125 3.24609375 106.88671875 C-2.22572697 113.66901755 -10.62679949 120.65424566 -18.98828125 123.44140625 C-29.36587585 124.43333604 -40.40632626 125.10866212 -48.98828125 118.44140625 C-49.61476563 117.97992188 -50.24125 117.5184375 -50.88671875 117.04296875 C-60.04780677 109.16203277 -64.3136952 96.30208266 -65.20532227 84.59057617 C-66.0710301 63.02609621 -63.65534051 37.2418858 -49.203125 19.83203125 C-48.47222656 19.043125 -47.74132812 18.25421875 -46.98828125 17.44140625 C-45.66828125 17.44140625 -44.34828125 17.44140625 -42.98828125 17.44140625 C-43.35389093 21.09750304 -44.0482579 23.5530869 -45.80078125 26.81640625 C-54.83143171 44.08380383 -53.16212236 64.86458238 -47.95703125 83.04296875 C-44.60547756 91.80682875 -39.53491366 99.8599438 -31.17578125 104.50390625 C-25.16755529 107.08412599 -18.97880771 108.47245137 -12.5390625 106.80859375 C-4.24514422 103.45723119 1.29000952 98.4015041 4.9453125 90.234375 C11.49105381 73.0907668 11.4526905 53.25875403 4.01171875 36.44140625 C-0.28424949 27.85989687 -5.33939187 22.09292575 -14.05078125 18.00390625 C-18.54382705 17.14353578 -21.96153667 17.32360247 -26.03515625 19.5703125 C-31.50445962 23.34330938 -36.08200973 27.93410895 -37.4296875 34.63671875 C-37.74486238 40.47253749 -36.07347268 45.51298543 -32.98828125 50.44140625 C-30.44064282 52.96998741 -30.44064282 52.96998741 -27.98828125 54.44140625 C-24.48697779 54.12310594 -22.47619496 53.84800101 -19.73828125 51.56640625 C-17.86076883 49.35928405 -17.86076883 49.35928405 -15.98828125 46.44140625 C-14.66828125 46.44140625 -13.34828125 46.44140625 -11.98828125 46.44140625 C-11.26364084 53.10809804 -13.37600573 57.86223725 -16.98828125 63.44140625 C-21.00805632 67.96628395 -25.45009459 70.0653786 -31.36328125 70.94140625 C-36.35504349 70.25288732 -38.853611 68.32126942 -41.98828125 64.44140625 C-48.00460253 54.42837684 -45.50105407 39.27844762 -42.90625 28.5703125 C-39.35864202 16.47825295 -32.58398515 6.2959077 -21.39453125 -0.0234375 C-13.96915801 -3.24339102 -7.28368752 -4.10691222 0 0 Z " fill="#000000" transform="translate(72.98828125,11.55859375)"/>
</svg>
