<?xml version="1.0" encoding="UTF-8"?>
<!-- Generator: visioncortex VTracer 0.6.4 -->
<svg version="1.1" xmlns="http://www.w3.org/2000/svg" width="133" height="157">
<path d="M0 0 C2.01512227 4.21865028 2.41354068 8.20885432 2.625 12.8125 C2.68300781 13.85180664 2.68300781 13.85180664 2.7421875 14.91210938 C2.83573568 16.60767015 2.91892364 18.30379712 3 20 C3.49306641 19.07380859 3.49306641 19.07380859 3.99609375 18.12890625 C8.06244466 10.88881805 13.0271794 3.05456009 20.96875 -0.2265625 C26.78843826 -1.71148296 31.9331221 -2.03343895 37.375 0.6875 C44.28842479 6.77789803 46.27619569 13.27418764 47.25390625 22.359375 C47.66817337 37.49393387 42.48386909 53.20619844 33 65 C27.67771741 69.92901048 23.71088557 73.14780099 16.375 73.0625 C15.37210938 73.05347656 14.36921875 73.04445313 13.3359375 73.03515625 C11 73 11 73 6 68 C5.27832523 60.31817299 6.48129185 55.28522862 11 49 C13.3125 46.4375 13.3125 46.4375 15 45 C16.65 45 18.3 45 20 45 C19.44687265 49.02992782 18.8441938 53.02022924 18 57 C18.99 57.99 19.98 58.98 21 60 C26.26995401 59.70853762 26.26995401 59.70853762 30.375 56.625 C34.76674492 49.53064281 33.75381385 39.0083903 32.5390625 30.9375 C30.99092207 25.1092066 28.12232676 20.39791406 24 16 C21.47946405 14.73973202 20.1457902 15.08125555 17.375 15.4375 C16.55773437 15.53933594 15.74046875 15.64117187 14.8984375 15.74609375 C12.22371302 16.10382439 11.89817885 17.37858168 10.25 19.5 C9.73953125 20.1496875 9.2290625 20.799375 8.703125 21.46875 C4.51971278 27.68629844 2.39534753 32.72187749 2.54589844 40.25195312 C2.54531433 41.03340698 2.54473022 41.81486084 2.54412842 42.61999512 C2.54689028 45.17421651 2.57788996 47.72723535 2.609375 50.28125 C2.61684419 52.06342939 2.62253392 53.84561705 2.62652588 55.62780762 C2.64172888 60.29686538 2.68096404 64.96541789 2.7253418 69.63427734 C2.76641019 74.40715706 2.78456151 79.18011916 2.8046875 83.953125 C2.84746401 93.30230416 2.91564997 102.65110991 3 112 C-0.3 115.3 -3.6 118.6 -7 122 C-8.98 122 -10.96 122 -13 122 C-12.99777939 121.11813019 -12.99555878 120.23626038 -12.99327087 119.32766724 C-12.97297203 110.88870145 -12.9578785 102.44974423 -12.94818783 94.01075935 C-12.94303784 89.67545631 -12.93608975 85.34017395 -12.92456055 81.00488281 C-12.85396362 56.43159835 -12.85396362 56.43159835 -13.44140625 31.8671875 C-13.49988991 30.29567429 -13.49988991 30.29567429 -13.55955505 28.69241333 C-13.74943425 24.34219905 -14.06903733 20.26366176 -15 16 C-15.66 16 -16.32 16 -17 16 C-17.63164063 16.83660156 -18.26328125 17.67320313 -18.9140625 18.53515625 C-24.73415981 26.14078966 -30.86764594 33.27911906 -37.49072266 40.19946289 C-38.0635498 40.79879639 -38.63637695 41.39812988 -39.2265625 42.015625 C-39.99347412 42.80888184 -39.99347412 42.80888184 -40.77587891 43.61816406 C-42.10952502 45.00376678 -42.10952502 45.00376678 -43 47 C-44.65 47 -46.3 47 -48 47 C-47.49663569 42.82926715 -46.47224557 41.04828364 -43.375 38.25 C-39.84543064 34.89534735 -36.903243 31.42149016 -33.97265625 27.54296875 C-31.16195315 23.91966634 -28.18346497 20.44740287 -25.20361328 16.96289062 C-22.9057488 14.27031552 -20.63489262 11.56532301 -18.43359375 8.79296875 C-17.65113281 7.80941406 -16.86867188 6.82585938 -16.0625 5.8125 C-15.37285156 4.93207031 -14.68320312 4.05164063 -13.97265625 3.14453125 C-9.45836522 -1.76308415 -6.17094167 -1.02849028 0 0 Z " fill="#000000" transform="translate(66,24)"/>
</svg>
