<?xml version="1.0" encoding="UTF-8"?>
<!-- Generator: visioncortex VTracer 0.6.4 -->
<svg version="1.1" xmlns="http://www.w3.org/2000/svg" width="115" height="143">
<path d="M0 0 C0.97018066 0.00829834 1.94036133 0.01659668 2.93994141 0.02514648 C12.93864219 0.26136936 21.10028356 2.20602432 28.46484375 9.34375 C34.66701911 17.16578763 35.14540308 26.84571104 34.125 36.4375 C32.38021585 45.92404162 27.95868003 51.81489889 21.125 58.4375 C20.135 59.4275 20.135 59.4275 19.125 60.4375 C17.475 60.4375 15.825 60.4375 14.125 60.4375 C14.54779531 57.05513749 15.53227101 54.61193284 17.1875 51.6875 C20.00006732 46.17569226 19.97587065 41.55446494 18.359375 35.6328125 C16.55345394 30.34404368 14.3943744 25.94698194 11.125 21.4375 C10.63 19.9525 10.63 19.9525 10.125 18.4375 C9.40441406 18.15132812 8.68382812 17.86515625 7.94140625 17.5703125 C6.16950881 16.85762143 4.40504557 16.12586096 2.65234375 15.3671875 C-7.43163218 11.26059097 -16.41762397 11.05883189 -26.53515625 15.25390625 C-33.82951791 18.94370856 -36.89776511 26.11731129 -39.6328125 33.4765625 C-41.88941476 41.19986319 -41.86635677 49.95910807 -38.875 57.4375 C-36.40182598 61.04119831 -36.40182598 61.04119831 -32.875 63.4375 C-27.46198217 63.81233219 -22.2079682 63.34523927 -16.875 62.4375 C-16.39647202 65.06940386 -16.51587326 66.83345157 -17.89453125 69.15234375 C-22.46451989 74.90574542 -27.74653602 78.87317759 -35.1328125 79.8828125 C-40.15633264 80.05445897 -43.88260614 79.88236621 -48.5 77.8125 C-54.36090246 71.95159754 -55.02471641 65.32247422 -55.125 57.375 C-55.08135454 41.80116008 -49.65703175 27.61628673 -38.6875 16.5 C-27.64058368 5.8053735 -15.41375897 -0.16954334 0 0 Z " fill="#000000" transform="translate(65.875,10.5625)"/>
<path d="M0 0 C1.65 0 3.3 0 5 0 C4.835 0.86625 4.67 1.7325 4.5 2.625 C2.30894671 19.12429519 7.00056143 31.50545949 14.23242188 45.96411133 C19.58975511 56.85045359 20.97192477 68.57753295 17.375 80.3125 C14.22536695 88.64128318 9.48091816 94.98200457 3 101 C2.01 101 1.02 101 0 101 C0 101.66 0 102.32 0 103 C-7.55594581 107.7757671 -14.10285193 109.22719284 -23 108 C-27.1959198 106.74986859 -30.10974141 104.71220687 -33.5 102 C-35.9212741 97.15745181 -35.74769386 92.29982998 -35 87 C-33.19196596 83.92634214 -32.13960536 82.56980268 -29 81 C-27.12620395 80.92966231 -25.24998898 80.9156978 -23.375 80.9375 C-21.87066406 80.95103516 -21.87066406 80.95103516 -20.3359375 80.96484375 C-18 81 -18 81 -16.5625 82.3125 C-13.15240257 85.99540522 -13.92306183 90.30677159 -14 95 C-15.32 96.32 -16.64 97.64 -18 99 C-18.66 99 -19.32 99 -20 99 C-19.01 99.99 -18.02 100.98 -17 102 C-12.22821506 101.51473373 -8.42792589 100.89768253 -4 99 C-3.01 99 -2.02 99 -1 99 C-0.30580437 97.34461042 0.35103764 95.67363977 1 94 C1.27585938 93.34515625 1.55171875 92.6903125 1.8359375 92.015625 C5.75465744 81.87728534 2.96062882 72.75745213 -1 63 C-3.58861267 57.24138788 -6.33651606 51.55893445 -9.1237793 45.89428711 C-12.93717563 37.65016838 -12.09441731 25.49845806 -10.3515625 16.7421875 C-8.02650523 10.56190705 -3.96260208 5.23152521 0 0 Z " fill="#000000" transform="translate(61,27)"/>
</svg>
