<?xml version="1.0" encoding="UTF-8"?>
<!-- Generator: visioncortex VTracer 0.6.4 -->
<svg version="1.1" xmlns="http://www.w3.org/2000/svg" width="110" height="151">
<path d="M0 0 C5.22630818 4.4642986 9.05065117 8.56018508 11.27734375 15.078125 C11.64601563 16.03074219 12.0146875 16.98335937 12.39453125 17.96484375 C20.73574384 43.18982113 14.74254429 71.47887486 4.27734375 95.078125 C3.91253906 95.94566406 3.54773438 96.81320313 3.171875 97.70703125 C-0.39623226 105.13033486 -6.79831622 110.88624794 -12.49511719 116.70874023 C-13.83434086 118.08148046 -13.83434086 118.08148046 -14.72265625 120.078125 C-13.46453125 119.995625 -12.20640625 119.913125 -10.91015625 119.828125 C-5.84280383 119.79615432 -1.91239702 121.32933795 2.74609375 123.1875 C5.68912584 124.22301129 8.17856845 124.41312774 11.27734375 124.078125 C12.59734375 122.428125 13.91734375 120.778125 15.27734375 119.078125 C16.92734375 119.078125 18.57734375 119.078125 20.27734375 119.078125 C20.27734375 124.80669186 17.47077801 127.92581725 13.7109375 131.88671875 C8.11478533 136.92595048 2.30099322 140.38388712 -5.34765625 140.640625 C-9.72494572 140.39882006 -13.31919256 139.30309041 -17.38671875 137.75390625 C-21.71307318 136.50230204 -26.27172496 136.51628613 -30.72265625 137.078125 C-31.71265625 137.738125 -32.70265625 138.398125 -33.72265625 139.078125 C-35.04265625 139.078125 -36.36265625 139.078125 -37.72265625 139.078125 C-37.72265625 137.098125 -37.72265625 135.118125 -37.72265625 133.078125 C-36.86800781 132.30726563 -36.01335938 131.53640625 -35.1328125 130.7421875 C-34.01678549 129.72932265 -32.90090781 128.71629327 -31.78515625 127.703125 C-31.22119141 127.19523438 -30.65722656 126.68734375 -30.07617188 126.1640625 C-26.98880913 123.45127613 -26.98880913 123.45127613 -24.72265625 120.078125 C-25.71265625 120.573125 -25.71265625 120.573125 -26.72265625 121.078125 C-36.72835555 121.84105957 -45.69783889 121.69786128 -53.93359375 115.3828125 C-62.62579003 107.40150216 -67.10692657 96.24446603 -67.89111328 84.5703125 C-68.42814426 71.80740056 -67.77956609 59.49201709 -64.72265625 47.078125 C-64.54573242 46.35898926 -64.36880859 45.63985352 -64.18652344 44.89892578 C-61.75249267 35.32885489 -58.56765066 26.71919751 -53.72265625 18.078125 C-52.40265625 18.078125 -51.08265625 18.078125 -49.72265625 18.078125 C-50.55131776 23.74927722 -52.13510312 29.06503501 -53.78515625 34.54296875 C-58.14271826 50.97460885 -56.75815027 71.57805223 -49.72265625 87.078125 C-45.11736755 94.86154261 -38.87105023 99.71844443 -30.72265625 103.453125 C-22.59273497 105.1468586 -16.0603898 104.03020254 -8.72265625 100.078125 C-0.04369971 92.9085522 3.44841123 82.70196399 4.49755859 71.78710938 C5.463033 55.01504131 3.71275246 35.18559316 -7.2109375 21.73046875 C-9.21090771 19.5444548 -11.27774348 17.75096005 -13.72265625 16.078125 C-14.32078125 15.665625 -14.91890625 15.253125 -15.53515625 14.828125 C-21.2146071 12.88088471 -25.61740818 13.75000332 -30.91015625 16.203125 C-36.11901057 19.07559612 -39.34397488 21.59772048 -41.6015625 27.296875 C-43.50599154 34.17458444 -42.13775339 39.872775 -38.72265625 46.078125 C-35.63377103 48.13738181 -35.01329698 48.3171624 -31.53515625 48.203125 C-30.27703125 48.161875 -29.01890625 48.120625 -27.72265625 48.078125 C-26.40265625 46.758125 -25.08265625 45.438125 -23.72265625 44.078125 C-22.40265625 44.078125 -21.08265625 44.078125 -19.72265625 44.078125 C-19.1512192 50.93536961 -20.89717389 55.54814572 -25.1953125 60.91796875 C-28.43618099 64.1741605 -31.11100743 65.51974727 -35.72265625 65.828125 C-40.27411451 65.50945365 -43.09654512 64.27042389 -46.31640625 61.04296875 C-51.43707719 53.88825353 -51.39335352 45.31876938 -50.32421875 36.96484375 C-47.79159723 22.44338398 -40.88308867 7.53844251 -28.73828125 -1.37890625 C-19.61806513 -6.89390873 -8.65726271 -6.11100897 0 0 Z " fill="#000000" transform="translate(76.72265625,8.921875)"/>
</svg>
