<?xml version="1.0" encoding="UTF-8"?>
<!-- Generator: visioncortex VTracer 0.6.4 -->
<svg version="1.1" xmlns="http://www.w3.org/2000/svg" width="144" height="144">
<path d="M0 0 C1.65 0.33 3.3 0.66 5 1 C4.99777939 1.72361221 4.99555878 2.44722443 4.99327087 3.19276428 C4.9731803 10.0335867 4.95798129 16.87440467 4.94818783 23.71524906 C4.94298356 27.23164701 4.93593082 30.74802045 4.92456055 34.2644043 C4.91155228 38.31299059 4.90675148 42.36155139 4.90234375 46.41015625 C4.89718246 47.66458023 4.89202118 48.91900421 4.88670349 50.21144104 C4.88633879 55.91235805 4.95439785 61.38848122 6 67 C6.495 66.21625 6.99 65.4325 7.5 64.625 C10.68704066 59.84443901 14.38722003 55.46054422 18 51 C20.11359419 48.34502905 22.22524894 45.68853122 24.3359375 43.03125 C26 41 26 41 28 39 C29.32 39 30.64 39 32 39 C31.4575417 42.85468434 30.49319202 45.09340893 28.05078125 48.109375 C27.44943359 48.86476562 26.84808594 49.62015625 26.22851562 50.3984375 C25.59623047 51.17445312 24.96394531 51.95046875 24.3125 52.75 C19.56264981 58.64361012 14.90693 64.50356167 11 71 C10.51418457 71.79994385 10.02836914 72.5998877 9.52783203 73.42407227 C5.14384334 81.64966065 5.42006662 89.65228836 5.6875 98.6875 C5.71264217 100.17899861 5.7354448 101.67053857 5.75585938 103.16210938 C5.80603314 106.77662707 5.90392022 110.38526512 6 114 C2.37 117.63 -1.26 121.26 -5 125 C-6.65 124.67 -8.3 124.34 -10 124 C-10.66 102.22 -11.32 80.44 -12 58 C-12.66 58 -13.32 58 -14 58 C-14.47566406 58.72703125 -14.47566406 58.72703125 -14.9609375 59.46875 C-20.40090752 67.28307157 -27.73571044 74.20323334 -37 77 C-42.26438491 77.55414578 -45.57396023 76.91930283 -50 74 C-58.42311199 66.40110661 -58.06729629 58.19244447 -59 47 C-68.24 56.24 -77.48 65.48 -87 75 C-88.32 75 -89.64 75 -91 75 C-90.48537266 71.03038282 -89.62057116 69.13947377 -86.71875 66.3984375 C-86.04577881 65.74875 -85.37280762 65.0990625 -84.67944336 64.4296875 C-83.96022705 63.75164062 -83.24101074 63.07359375 -82.5 62.375 C-76.89246382 56.94039436 -71.69936718 51.51367979 -66.87109375 45.37109375 C-65.15043591 43.1906359 -63.35954281 41.12444202 -61.5 39.0625 C-56.53612907 33.44819081 -52.18982194 27.33546221 -47.75195312 21.30371094 C-36.14276464 5.57138232 -36.14276464 5.57138232 -29 2 C-26.44842345 1.9283265 -23.92527029 1.90691558 -21.375 1.9375 C-20.31539062 1.94426758 -20.31539062 1.94426758 -19.234375 1.95117188 C-17.48954725 1.96296125 -15.744763 1.98089676 -14 2 C-10.57763294 5.77337907 -8.7612117 7.86400844 -8 13 C-7.50628906 12.14535156 -7.01257813 11.29070313 -6.50390625 10.41015625 C-5.86324219 9.30542969 -5.22257812 8.20070313 -4.5625 7.0625 C-3.92441406 5.96035156 -3.28632812 4.85820312 -2.62890625 3.72265625 C-1 1 -1 1 0 0 Z M-39.25 18.75 C-43.43258322 24.127607 -43.34043264 31.45258869 -43.3125 38 C-43.32861328 38.75539063 -43.34472656 39.51078125 -43.36132812 40.2890625 C-43.3665228 46.33565907 -42.50093499 52.08430598 -38.421875 56.83984375 C-34.33581142 59.52251633 -31.04030251 61.1800108 -26 61 C-18.64941663 57.51814472 -15.78204092 51.42173856 -13 44 C-11.2886086 37.35914631 -10.73708716 30.8357339 -11 24 C-13.64752004 26.57784846 -15.94432065 28.91648098 -18 32 C-20.125 32.6875 -20.125 32.6875 -22 33 C-21.835 32.195625 -21.67 31.39125 -21.5 30.5625 C-20.90752652 26.34112648 -20.91493291 22.25335455 -21 18 C-21.9075 17.175 -22.815 16.35 -23.75 15.5 C-24.26046875 15.0359375 -24.7709375 14.571875 -25.296875 14.09375 C-30.67246311 10.64153745 -35.1321106 15.54719713 -39.25 18.75 Z " fill="#000000" transform="translate(100,14)"/>
</svg>
