<?xml version="1.0" encoding="UTF-8"?>
<!-- Generator: visioncortex VTracer 0.6.4 -->
<svg version="1.1" xmlns="http://www.w3.org/2000/svg" width="131" height="132">
<path d="M0 0 C0.84691406 -0.01611328 1.69382813 -0.03222656 2.56640625 -0.04882812 C11.05778756 -0.05532995 18.39970765 1.96283563 25.125 7.3125 C32.49778246 15.19966263 34.51862277 22.51986878 34.40234375 33.0625 C33.6444768 41.94341979 29.69603873 49.61904437 25.296875 57.23046875 C24.04325098 59.05954534 24.04325098 59.05954534 24.125 60.3125 C24.77726562 60.32667969 25.42953125 60.34085938 26.1015625 60.35546875 C32.51851297 60.70565631 35.7145165 61.57123024 40.125 66.3125 C42.21449431 69.65458971 42.51833334 72.6500944 42.8359375 76.546875 C42.94679688 77.76117188 43.05765625 78.97546875 43.171875 80.2265625 C43.3892421 82.76768737 43.60026327 85.30936369 43.8046875 87.8515625 C44.45921092 94.88768926 45.19777337 100.35692555 49.125 106.3125 C51.4598282 107.78653003 53.45174788 108.48996089 56.125 109.3125 C59.75293998 107.44683512 59.75293998 107.44683512 62.125 104.3125 C63.115 104.3125 64.105 104.3125 65.125 104.3125 C65.59124377 108.22894767 65.35546856 109.95564545 63.1875 113.3125 C58.86195911 118.00986389 52.57514985 122.87172325 46.07421875 123.515625 C41.00128289 123.62076357 37.36707834 123.39764788 33.125 120.3125 C26.46539808 113.09793126 26.49448186 103.53754077 25.671875 94.23828125 C25.59090576 93.35301758 25.50993652 92.46775391 25.42651367 91.55566406 C25.27017464 89.80223959 25.12658044 88.04762016 24.99731445 86.29199219 C24.45385274 79.95056317 23.16864408 74.6356235 18.125 70.3125 C14.0965651 70.12938932 11.64124755 70.37091983 8.125 72.3125 C8.06554199 73.14273682 8.06554199 73.14273682 8.00488281 73.98974609 C6.85023197 89.31598171 5.29814591 100.87821211 -5.875 112.3125 C-14.64233349 119.82918039 -21.46826899 123.49954649 -33 123.6875 C-33.68151123 123.70167969 -34.36302246 123.71585937 -35.06518555 123.73046875 C-40.87108651 123.67391547 -44.82483061 122.08561948 -49.1875 118.3125 C-51.85903548 115.14623572 -52.03244471 112.37235392 -52.0625 108.375 C-52.07667969 107.52035156 -52.09085938 106.66570312 -52.10546875 105.78515625 C-51.75557224 102.03118185 -50.67454418 99.99090112 -47.8125 97.5625 C-43.77395374 95.84396968 -40.20219197 95.56913067 -35.875 96.3125 C-32.8125 98.3125 -32.8125 98.3125 -30.875 100.3125 C-29.4224729 109.32516815 -29.4224729 109.32516815 -31.25 113.3125 C-32.054375 114.3025 -32.054375 114.3025 -32.875 115.3125 C-33.205 115.9725 -33.535 116.6325 -33.875 117.3125 C-27.99774133 118.91253661 -24.1230579 117.03462349 -18.875 114.3125 C-13.78990309 110.98762894 -11.4202182 108.30475462 -9.875 102.3125 C-8.9548579 92.22678659 -10.34803869 84.02227518 -14.41015625 74.84375 C-19.82264282 62.30273983 -21.68476747 48.99375188 -16.91113281 35.86938477 C-14.7657241 30.59714279 -12.10761296 25.9646517 -8.875 21.3125 C-6.895 20.9825 -4.915 20.6525 -2.875 20.3125 C-3.04 21.405625 -3.205 22.49875 -3.375 23.625 C-5.02613752 37.69663472 -2.14075826 49.42316036 4.171875 62.10546875 C5.125 64.3125 5.125 64.3125 5.125 67.3125 C11.61150301 63.00202471 16.4218851 59.15134011 18.125 51.3125 C19.21138939 40.89459749 18.35898684 32.1342319 12.125 23.5625 C2.52487303 16.36240477 -5.86643362 13.83373811 -17.875 15.3125 C-27.14258932 17.28432751 -36.11418262 21.22043466 -41.875 29 C-45.88233127 35.63714241 -45.87781777 43.27472254 -44.37890625 50.8046875 C-42.88369188 55.28188307 -40.94088258 57.94861478 -36.875 60.3125 C-33.68737891 61.10940838 -33.68737891 61.10940838 -30.875 61.3125 C-30.153125 60.6525 -29.43125 59.9925 -28.6875 59.3125 C-25.65902067 57.1589147 -24.47796594 56.90073246 -20.875 57.3125 C-21.62714025 63.98625235 -26.17157707 67.87827139 -30.875 72.3125 C-36.59929712 76.73224218 -42.82069316 77.21933167 -49.875 76.3125 C-53.20839167 75.24122348 -54.52396434 74.78890554 -56.625 71.9375 C-61.18581847 62.35978122 -59.42715415 51.02999252 -56.07421875 41.34765625 C-51.46841172 29.69061371 -45.51448198 21.28323256 -35.875 13.3125 C-34.988125 12.466875 -34.10125 11.62125 -33.1875 10.75 C-23.95015524 3.08604913 -11.71867771 -0.04418808 0 0 Z " fill="#000000" transform="translate(65.875,2.6875)"/>
</svg>
