<?xml version="1.0" encoding="UTF-8"?>
<!-- Generator: visioncortex VTracer 0.6.4 -->
<svg version="1.1" xmlns="http://www.w3.org/2000/svg" width="100" height="132">
<path d="M0 0 C5.33982109 -0.18413176 8.91486237 0.30495412 14 2 C18.49785979 2.4550364 22.0078972 2.20253947 26 0 C28.75 -0.125 28.75 -0.125 31 0 C31 1.65 31 3.3 31 5 C30.47567383 5.49290527 29.95134766 5.98581055 29.41113281 6.49365234 C27.00785757 8.77097088 24.62913988 11.07248886 22.25 13.375 C21.425 14.14972656 20.6 14.92445312 19.75 15.72265625 C11.94775177 23.33614041 8.72084296 30.91171089 7.625 41.6875 C7.72666285 48.38454042 11.05909135 54.10320291 15.75 58.6875 C20.15734433 60.46738906 23.48993295 60.529501 28 59 C30.04716214 57.56816983 31.7505001 56.06530787 33.4921875 54.27734375 C35 53 35 53 38 53 C38.33 51.35 38.66 49.7 39 48 C40.32 48 41.64 48 43 48 C42.67 49.65 42.34 51.3 42 53 C41.01 53 40.02 53 39 53 C38.896875 53.74378906 38.79375 54.48757812 38.6875 55.25390625 C36.90554607 62.37159725 30.08573157 66.97709043 24.2109375 70.7734375 C19.09291073 73.61276684 14.82788346 74.33938138 9 74.3125 C7.95199219 74.33666992 7.95199219 74.33666992 6.8828125 74.36132812 C2.3896775 74.36556693 -0.44144594 73.76632122 -4 71 C-9.39802713 63.95257569 -9.69393916 57.67941819 -9 49 C-6.82751263 37.15291061 0.64602587 27.35397413 9 19 C4.05 18.67 -0.9 18.34 -6 18 C-11.02600137 22.94867827 -15.91802847 27.90377256 -20.4921875 33.2734375 C-21.93272895 34.92296942 -23.43326925 36.47079574 -25 38 C-26.65 38 -28.3 38 -30 38 C-29.84365314 33.14405059 -27.39865102 31.04838338 -24.08520508 27.88623047 C-23.4177124 27.26377441 -22.75021973 26.64131836 -22.0625 26 C-15.25288107 19.44234912 -9.57384488 12.62289642 -4 5 C-2.67530411 3.32645993 -1.34477783 1.65744627 0 0 Z " fill="#000000" transform="translate(37,20)"/>
</svg>
