<?xml version="1.0" encoding="UTF-8"?>
<!-- Generator: visioncortex VTracer 0.6.4 -->
<svg version="1.1" xmlns="http://www.w3.org/2000/svg" width="115" height="121">
<path d="M0 0 C1.65 0 3.3 0 5 0 C5.08942923 3.84545686 4.81192163 7.24725989 4 11 C9.80159794 16.25621577 9.80159794 16.25621577 15.875 21.1875 C19.39017102 24.18573411 21.1330479 27.51816725 22 32 C22.95013349 46.67225365 19.35980138 58.3543309 10.33984375 70.17578125 C2.55247809 78.47862265 -8.33834446 83.91623998 -19.75 84.375 C-25.03127094 84.16076855 -28.47007824 82.44722328 -32.3125 78.8125 C-34.89991077 74.50014872 -35.45096842 70.67258129 -34.62890625 65.80078125 C-32.16413546 57.02864671 -26.62921378 50.38642714 -18.796875 45.875 C-15.50812068 44.27351964 -12.91484733 43.88529207 -9.3125 43.9375 C-8.10013672 43.95103516 -8.10013672 43.95103516 -6.86328125 43.96484375 C-5 44 -5 44 0 49 C0.08645148 55.02690296 -0.46777417 59.01843344 -4.5625 63.625 C-5.68773054 64.77060694 -6.8268945 65.90346796 -8 67 C-9.65 66.67 -11.3 66.34 -13 66 C-12.67 63.69 -12.34 61.38 -12 59 C-12.99 57.68 -13.98 56.36 -15 55 C-17.475 55.495 -17.475 55.495 -20 56 C-20.42968661 60.29686609 -20.41369759 63.01214548 -17.6875 66.375 C-13.58268351 70.38435564 -9.98895504 70.34517003 -4.5078125 70.28125 C-0.79270942 69.86460293 1.25472199 68.47744601 4 66 C7.48758907 61.06927062 8.48572606 57.0230031 8 51 C6.0588079 44.04843369 1.81657769 39.02055639 -2.87890625 33.67578125 C-5.06524065 30.91769825 -6.53735862 28.19164237 -8 25 C-15.90674965 32.75335591 -22.51953915 41.19621093 -28.75 50.3125 C-34.27283435 58.35605891 -40.59503972 65.31013471 -47.38574219 72.29003906 C-50.03575481 75.09716073 -52.52250707 78.04067896 -55 81 C-56.32 81 -57.64 81 -59 81 C-59.36328125 78.90234375 -59.36328125 78.90234375 -59 76 C-57.12829257 73.6700367 -55.29813171 71.65221395 -53.1875 69.5625 C-47.04982581 63.23585801 -41.61113593 56.59497068 -36.25244141 49.60791016 C-34.37034792 47.19163965 -32.40181097 44.84960489 -30.4375 42.5 C-26.6113411 37.86078234 -23.11712201 33.04490579 -19.66650391 28.12548828 C-17.17491088 24.58868897 -14.58063544 21.20424398 -11.8125 17.875 C-8.09665516 13.33592938 -5.2069774 8.48400287 -2.34765625 3.37109375 C-1 1 -1 1 0 0 Z " fill="#000000" transform="translate(73,16)"/>
</svg>
