<?xml version="1.0" encoding="UTF-8"?>
<!-- Generator: visioncortex VTracer 0.6.4 -->
<svg version="1.1" xmlns="http://www.w3.org/2000/svg" width="109" height="145">
<path d="M0 0 C3.16000656 2.6333388 4.7021256 4.10637681 6 8 C6.9364809 21.48892675 6.9364809 21.48892675 3 27 C2.60941406 27.58265625 2.21882813 28.1653125 1.81640625 28.765625 C-2.66329948 34.80624803 -8.32025982 37.19795809 -15.62109375 38.44921875 C-20.53555798 38.78582589 -23.32669703 38.22511842 -27.125 35 C-29.97985225 32.15830375 -29.97985225 32.15830375 -30.4375 28.5625 C-30.44653201 23.50457465 -28.1334623 20.55420073 -24.95703125 16.7890625 C-22.41507852 14.46528136 -20.4242963 13.91648058 -17 14 C-17.04640625 14.73605469 -17.0928125 15.47210937 -17.140625 16.23046875 C-17.46222622 22.53124322 -17.46222622 22.53124322 -15 28.1875 C-14.34 28.785625 -13.68 29.38375 -13 30 C-10.525 29.505 -10.525 29.505 -8 29 C-6.21762898 25.24763995 -5.73468493 22.82504747 -7.0625 18.9375 C-9.33055667 13.74771094 -12.383871 10.86792113 -17.375 8.1875 C-23.79447408 6.08456884 -28.88145725 6.57042042 -34.91015625 9.4765625 C-39.42010096 12.76418574 -41.36598173 17.83556955 -42.4375 23.18359375 C-42.7554957 28.2814623 -40.94549027 32.02265008 -38 36 C-36.88625 37.546875 -36.88625 37.546875 -35.75 39.125 C-28.62025719 45.82695825 -15.81461508 47.08071417 -6.5625 49 C3.90497976 51.21285324 11.92915528 54.70034035 18 64 C21.78341766 73.30037452 20.73282681 82.98444624 17.2578125 92.21875 C10.33695441 107.52201385 -2.59919643 116.62135194 -17.9375 122.5 C-29.11315695 125.84823277 -42.38499563 125.15366282 -52.96875 120.05078125 C-57.11661183 117.47870026 -59.4731926 114.58042219 -61 110 C-61.83254952 100.8538488 -61.32013071 93.6522428 -56 86 C-53.5 83.125 -53.5 83.125 -51 81 C-50.319375 80.319375 -49.63875 79.63875 -48.9375 78.9375 C-41.59394236 74.09387688 -32.74685311 71.76997378 -24 73 C-18.10073651 74.74076628 -15.49387763 77.17022798 -12 82 C-10.13065028 85.73869943 -10.45238017 89.92935928 -11 94 C-12.60641613 97.52768982 -14.7923614 100.04221767 -17.8125 102.4375 C-21.23308189 103.3170782 -24.47541006 103.11748633 -28 103 C-28.25 97.375 -28.25 97.375 -26 94 C-25.97250522 91.93089407 -25.97250522 91.93089407 -26.375 89.8125 C-26.58125 88.554375 -26.7875 87.29625 -27 86 C-31.97504047 82.75099398 -34.88225104 81.50059192 -41 82 C-44.45068769 84.74285432 -46.3493316 86.91788134 -47.0625 91.25 C-47.39446467 97.10820011 -45.47631111 102.13943372 -41.640625 106.5703125 C-35.48031244 112.10134582 -29.03897275 113.56695182 -21.0625 113.5 C-20.26561768 113.49355469 -19.46873535 113.48710938 -18.64770508 113.48046875 C-13.57620792 113.32193557 -9.55002937 112.89971041 -5.47265625 109.62109375 C0.5728224 102.96625651 3.52987911 95.66780315 3.3125 86.66015625 C2.59306644 80.53597807 0.51840751 75.62434292 -3.6875 71.125 C-11.57049106 66.06798687 -19.20423782 64.20895803 -28.375 62.6875 C-38.81316541 60.77440549 -48.06095322 58.8404153 -54.625 49.75 C-58.20121261 42.59757478 -57.9894077 33.89355699 -56.421875 26.140625 C-53.96394839 19.12436176 -49.21764877 14.14842624 -44 9 C-43.33613281 8.32582031 -42.67226563 7.65164063 -41.98828125 6.95703125 C-31.35532387 -3.15829738 -13.37041994 -7.04732551 0 0 Z " fill="#000000" transform="translate(74,8)"/>
</svg>
