<?xml version="1.0" encoding="UTF-8"?>
<!-- Generator: visioncortex VTracer 0.6.4 -->
<svg version="1.1" xmlns="http://www.w3.org/2000/svg" width="118" height="138">
<path d="M0 0 C1.98 0 3.96 0 6 0 C5.835 1.093125 5.67 2.18625 5.5 3.3125 C4.25368067 14.05728334 5.36185252 21.15654026 10 31 C15.48295827 43.53915173 19.89543127 55.43726789 16.08984375 69.3203125 C10.48600025 83.41100581 2.38297291 92.33373435 -11.36328125 98.640625 C-18.1499344 101.17741909 -24.57008711 101.00750487 -31.4375 98.8125 C-35.23824244 96.87878894 -37.24882044 95.18105137 -40 92 C-40.62460568 82.09305994 -40.62460568 82.09305994 -38.25 77.9375 C-34.63475537 74.82437268 -32.03251472 73.7343378 -27.25 73.875 C-26.45078125 73.89304687 -25.6515625 73.91109375 -24.828125 73.9296875 C-24.22484375 73.95289062 -23.6215625 73.97609375 -23 74 C-18.05903916 79.55858095 -18.5814769 84.8153535 -19 92 C-12.55619011 91.6547959 -7.95985285 90.26273068 -3 86 C0.528993 80.53575277 1.81193686 74.46069759 1 68 C-0.63330791 61.18143142 -3.07942794 54.74010062 -5.73657227 48.27148438 C-10.84672941 35.72896773 -12.78815329 25.15938774 -8 12 C-5.76837357 7.82453606 -3.37781224 3.37781224 0 0 Z " fill="#000000" transform="translate(62,33)"/>
<path d="M0 0 C0.91209229 0.00467285 1.82418457 0.0093457 2.76391602 0.01416016 C10.35400041 0.17935177 16.61594163 1.62529827 23.6875 4.4375 C28.16805361 6.16494236 31.76198378 6.66046972 36.5625 6.5625 C37.71492188 6.54445313 38.86734375 6.52640625 40.0546875 6.5078125 C41.35792969 6.47300781 41.35792969 6.47300781 42.6875 6.4375 C43.409375 5.633125 44.13125 4.82875 44.875 4 C47.71265689 1.41457928 48.95916147 0.75707187 52.6875 0.4375 C53.16318191 4.43322807 52.96443468 6.04647238 50.6015625 9.3828125 C47.73748825 12.64401268 44.54314553 14.64597927 40.75 16.6875 C40.15509766 17.02523438 39.56019531 17.36296875 38.94726562 17.7109375 C30.27182407 22.5274668 22.33396552 24.12607692 12.69921875 21.38671875 C9.97450577 20.55235839 7.27713616 19.65149971 4.58203125 18.7265625 C-5.66184907 15.25642384 -16.97794577 13.13143574 -27.3125 17.4375 C-33.05037586 20.90691331 -35.26271184 26.28813552 -37.3125 32.4375 C-37.77510059 38.22000736 -36.88918495 43.25308571 -34.3125 48.4375 C-31.43436919 51.07578657 -29.75011334 51.38976036 -25.875 51.8125 C-22.00917748 51.40557131 -19.69996568 50.27851396 -16.3125 48.4375 C-13.4375 47.75 -13.4375 47.75 -11.3125 47.4375 C-11.3125 49.0875 -11.3125 50.7375 -11.3125 52.4375 C-18.48552299 59.42399047 -24.69552553 64.52640479 -35 64.875 C-39.44818987 64.68241077 -42.638919 64.1254861 -46.3125 61.4375 C-50.70823781 56.56654729 -51.36913257 51.78034807 -51.3125 45.4375 C-50.63058024 34.52678385 -44.85214361 22.67350483 -36.73828125 15.37890625 C-35.93777344 14.73824219 -35.13726562 14.09757812 -34.3125 13.4375 C-33.5397876 12.8185083 -33.5397876 12.8185083 -32.75146484 12.18701172 C-30.99943683 10.80551835 -29.22527616 9.45985999 -27.4375 8.125 C-26.88505615 7.70379883 -26.3326123 7.28259766 -25.76342773 6.84863281 C-17.95355791 1.2584102 -9.43405907 -0.10703573 0 0 Z " fill="#000000" transform="translate(54.3125,10.5625)"/>
</svg>
