<?xml version="1.0" encoding="UTF-8"?>
<!-- Generator: visioncortex VTracer 0.6.4 -->
<svg version="1.1" xmlns="http://www.w3.org/2000/svg" width="97" height="155">
<path d="M0 0 C1.98 0 3.96 0 6 0 C6.33 10.23 6.66 20.46 7 31 C11.455 25.555 11.455 25.555 16 20 C16.66 19.34 17.32 18.68 18 18 C19.32 18 20.64 18 22 18 C22.3984375 20.05859375 22.3984375 20.05859375 22 23 C20.13747161 25.60677327 17.89242346 27.80703552 15.625 30.0625 C14.42561216 31.278546 13.23015193 32.498481 12.0390625 33.72265625 C11.50490723 34.25640869 10.97075195 34.79016113 10.42041016 35.34008789 C3.33018155 43.62583287 6.06895973 57.40444636 6.61425781 67.49536133 C6.74984495 70.05956762 6.86378058 72.62415482 6.9765625 75.18945312 C7.0611856 76.84642182 7.14708037 78.50332615 7.234375 80.16015625 C7.26577576 80.91353775 7.29717651 81.66691925 7.32952881 82.44313049 C7.69167256 88.56682543 8.68118291 95.26710843 12.75 100.0625 C16.16680924 101.48617052 18.32258062 101.56096228 22 101 C26.48486913 98.18522858 29.88251813 94.23977535 33 90 C34.32 90 35.64 90 37 90 C36.62224392 95.3930708 34.5799841 98.29105162 30.9375 102.0625 C30.44378906 102.58690674 29.95007813 103.11131348 29.44140625 103.65161133 C23.35747522 109.94339687 17.31222696 114.08933122 8.29296875 114.28320312 C7.57753906 114.29287109 6.86210938 114.30253906 6.125 114.3125 C5.06345703 114.35600586 5.06345703 114.35600586 3.98046875 114.40039062 C0.31508459 114.44475747 -1.79211724 114.12916449 -4.9296875 112.1796875 C-12.39169229 104.32346359 -10.28295525 87.77380987 -10.5625 77.4375 C-10.60578362 75.93683922 -10.6494007 74.43618803 -10.69335938 72.93554688 C-10.79941797 69.29046701 -10.90096257 65.64527818 -11 62 C-11.3623877 62.44802979 -11.72477539 62.89605957 -12.09814453 63.35766602 C-13.77272695 65.42678495 -15.44885476 67.49464691 -17.125 69.5625 C-17.69476562 70.26697266 -18.26453125 70.97144531 -18.8515625 71.69726562 C-22.4987094 76.19403197 -26.21304535 80.62025458 -30 85 C-31.65 85 -33.3 85 -35 85 C-34.67079767 79.36135499 -32.28060655 76.57856475 -28.4375 72.75 C-27.34108916 71.61454249 -26.2473532 70.47649626 -25.15625 69.3359375 C-24.61871094 68.77616211 -24.08117187 68.21638672 -23.52734375 67.63964844 C-20.69093829 64.59468375 -18.16277641 61.31395999 -15.62109375 58.0234375 C-14 56 -14 56 -12.33203125 54.47265625 C-8.30385117 50.01921376 -10.01823624 41.35536797 -10.29418945 35.75463867 C-10.43692841 33.13548815 -10.58919742 30.5170068 -10.7421875 27.8984375 C-11.06239918 22.25879099 -11.07431421 16.64787961 -11 11 C-7.37 7.37 -3.74 3.74 0 0 Z " fill="#000000" transform="translate(45,18)"/>
</svg>
