<?xml version="1.0" encoding="UTF-8"?>
<!-- Generator: visioncortex VTracer 0.6.4 -->
<svg version="1.1" xmlns="http://www.w3.org/2000/svg" width="118" height="101">
<path d="M0 0 C2.07653629 1.68367283 2.92380498 2.5871886 3.41650391 5.25654602 C3.44623291 6.57842171 3.44623291 6.57842171 3.4765625 7.92700195 C3.50669434 8.92846756 3.53682617 9.92993317 3.56787109 10.96174622 C3.58672363 12.04300278 3.60557617 13.12425934 3.625 14.23828125 C3.65803223 15.35180466 3.69106445 16.46532806 3.72509766 17.6125946 C3.83047095 21.1790094 3.91738696 24.74548971 4 28.3125 C4.10897177 32.99670218 4.23642572 37.67987201 4.375 42.36328125 C4.39385254 43.43846512 4.41270508 44.51364899 4.43212891 45.62141418 C4.59888202 51.21597542 4.94559063 55.24841297 8 60 C10.97 60.495 10.97 60.495 14 61 C15.2778537 59.46414734 16.54695812 57.92101333 17.8125 56.375 C18.52019531 55.51648437 19.22789063 54.65796875 19.95703125 53.7734375 C24.47180815 47.64439046 25.42312478 43.17867727 25.2578125 35.76953125 C25.25119598 34.89729416 25.24457947 34.02505707 25.23776245 33.12638855 C25.21445982 30.35472473 25.17075215 27.58387629 25.125 24.8125 C25.0899097 22.03051211 25.05913504 19.24856894 25.03366089 16.46647644 C25.01671256 14.73911721 24.99359401 13.01180508 24.96365356 11.28462219 C24.92164431 7.92151941 24.92818766 5.21543703 26 2 C30.62 1.67 35.24 1.34 40 1 C43.01586252 4.01586252 42.31782833 7.44145915 42.34375 11.48828125 C42.3583728 12.3424614 42.37299561 13.19664154 42.38806152 14.07670593 C42.43464856 16.82192214 42.46872264 19.56706932 42.5 22.3125 C42.22301993 42.06829183 42.22301993 42.06829183 47 61 C49.31 61.33 51.62 61.66 54 62 C58.59687924 57.64157559 62.45941142 53.25723759 66 48 C67.32 48 68.64 48 70 48 C70.54183986 51.68999801 70.04193793 52.93807297 67.91015625 56.0859375 C66.97674116 57.19577756 66.02654459 58.29165946 65.0625 59.375 C64.31359497 60.23218628 64.31359497 60.23218628 63.54956055 61.10668945 C56.68456749 68.79334013 50.54466145 74.30985427 39.96875 75.1640625 C36.64183069 75.10008328 34.66367525 74.51372898 32.01171875 72.4609375 C27.51938166 67.79188321 25.72478467 63.38993829 25 57 C24.48050781 57.66386719 23.96101563 58.32773438 23.42578125 59.01171875 C13.12338625 72.05634088 13.12338625 72.05634088 7 74 C3.66796875 74.1953125 3.66796875 74.1953125 0.1875 74.125 C-0.97394531 74.10695313 -2.13539062 74.08890625 -3.33203125 74.0703125 C-6 74 -6 74 -8.375 71.9375 C-13.37566905 66.3415132 -13.30670211 59.78104019 -13.37890625 52.63671875 C-13.39590073 51.76352493 -13.4128952 50.89033112 -13.43040466 49.99067688 C-13.48319724 47.22302317 -13.52370579 44.45538247 -13.5625 41.6875 C-13.60645761 38.90183631 -13.6531059 36.1162865 -13.70530701 33.33076477 C-13.7372247 31.60248954 -13.76412707 29.87411299 -13.78553772 28.14567566 C-13.74624109 23.93839932 -13.74624109 23.93839932 -15 20 C-26.71534941 32.41592901 -26.71534941 32.41592901 -37 46 C-38.65 46 -40.3 46 -42 46 C-41.54816375 41.24703021 -39.3364078 38.60699643 -36.25 35.1875 C-35.24576556 34.0391841 -34.2432359 32.88937565 -33.2421875 31.73828125 C-32.44893066 30.83070068 -32.44893066 30.83070068 -31.63964844 29.90478516 C-28.81248162 26.62045587 -26.09700107 23.24654674 -23.375 19.875 C-22.829646 19.20227051 -22.28429199 18.52954102 -21.72241211 17.83642578 C-19.2239137 14.75413098 -16.73170171 11.66691487 -14.24609375 8.57421875 C-13.04146484 7.08341797 -13.04146484 7.08341797 -11.8125 5.5625 C-11.11769531 4.69753906 -10.42289063 3.83257812 -9.70703125 2.94140625 C-6.71370774 -0.46289989 -4.36444988 -0.09487935 0 0 Z " fill="#000000" transform="translate(46,8)"/>
</svg>
