<?xml version="1.0" encoding="UTF-8"?>
<!-- Generator: visioncortex VTracer 0.6.4 -->
<svg version="1.1" xmlns="http://www.w3.org/2000/svg" width="140" height="137">
<path d="M0 0 C4.74166593 4.46147658 6.86565799 7.75878747 7.13803101 14.33021545 C7.14948697 15.66941084 7.15568689 17.00865754 7.15771484 18.34790039 C7.16279556 19.08184021 7.16787628 19.81578003 7.17311096 20.57196045 C7.18379533 22.16355772 7.19242306 23.75516983 7.19923019 25.34678841 C7.21106447 27.87477949 7.23053198 30.40260319 7.25234985 32.93052673 C7.31379091 40.11760797 7.36783934 47.30467339 7.40136719 54.49194336 C7.4224457 58.89281843 7.45785798 63.29338972 7.50212479 67.69408989 C7.51618663 69.36240472 7.52498478 71.03077333 7.52817917 72.69914436 C6.99489222 88.5595728 6.99489222 88.5595728 13.6875 102.1875 C16.72360178 104.56714734 18.18367732 104.21601827 22 104 C25.97388702 102.07176866 27.93735961 100.11995063 30.125 96.3125 C30.60195312 95.50425781 31.07890625 94.69601563 31.5703125 93.86328125 C34.72060359 87.55409172 36.37690028 82.37498857 36.34057617 75.20703125 C36.34101425 74.47434525 36.34145233 73.74165924 36.34190369 72.98677063 C36.33983448 70.59506401 36.31659368 68.20408224 36.29296875 65.8125 C36.28736611 64.14241926 36.28309917 62.47233355 36.28010559 60.80224609 C36.26870932 56.42920058 36.23928776 52.05645902 36.20599365 47.68353271 C36.1751796 43.21224071 36.16157614 38.74089908 36.14648438 34.26953125 C36.11441247 25.51288211 36.06328014 16.75647898 36 8 C37.90582537 6.15410624 39.82318361 4.32375412 41.75 2.5 C42.28882812 1.97535156 42.82765625 1.45070313 43.3828125 0.91015625 C47.546875 -3 47.546875 -3 52 -3 C52.78749425 1.83845323 53.11403852 6.44991337 53.08178711 11.34960938 C53.07872055 12.04830139 53.07565399 12.74699341 53.07249451 13.46685791 C53.06538341 14.97329377 53.056017 16.47972038 53.04459953 17.98612976 C53.0270406 20.38516865 53.01685505 22.78413931 53.00868225 25.18322754 C52.98439186 32.00112358 52.94903911 38.81892834 52.90405273 45.63671875 C52.87696318 49.82045383 52.86012017 54.00413558 52.84918404 58.1879425 C52.84305552 59.76648418 52.83315626 61.34501666 52.81910515 62.92350769 C52.45861605 83.87388848 52.45861605 83.87388848 60 103 C61.95793765 105.39579148 61.95793765 105.39579148 65.625 105.25 C70.12260039 105.24203965 72.54891166 103.96954113 76 101 C77.86310322 98.39975951 77.86310322 98.39975951 79 96 C79.99 96 80.98 96 82 96 C82.40394487 100.9627512 81.67577819 103.18906617 78.5 107 C72.78966134 113.69905454 66.68097504 119.4063754 57.58203125 120.21484375 C52.58411376 120.39940496 48.95884669 120.37666335 45 117 C40.60114561 112.34238946 38.11921839 107.5035862 37.8125 101.0625 C37.874375 100.051875 37.93625 99.04125 38 98 C37.34 98 36.68 98 36 98 C35.68095703 99.29357422 35.68095703 99.29357422 35.35546875 100.61328125 C33.69319285 104.76657579 31.47978461 107.11371457 28.3125 110.1875 C27.80783203 110.70763672 27.30316406 111.22777344 26.78320312 111.76367188 C21.46498992 117.02809784 16.01124829 119.42838598 8.4375 119.4375 C3.17047767 119.29841675 -0.13653078 118.86346922 -4 115 C-10.40892553 106.0732823 -9.30005979 91.93143355 -9.34375 81.44140625 C-9.3574468 80.08103837 -9.37224167 78.72068115 -9.38806152 77.3603363 C-9.43564956 73.09445441 -9.4689695 68.82853031 -9.5 64.5625 C-9.5360464 59.61138004 -9.57841768 54.66046801 -9.63594055 49.70954704 C-9.65556868 47.75910842 -9.66410443 45.8085679 -9.67224121 43.85804749 C-9.3647391 26.88075382 -9.3647391 26.88075382 -16 12 C-19.8592771 9.53663164 -23.63804522 7.77428418 -28.2890625 8.21875 C-31.8914112 9.35207319 -33.79366346 10.77737373 -36.375 13.5625 C-39.42751379 20.0197407 -40.94781407 25.43404318 -38.5625 32.375 C-36.27407492 37.28429028 -34.06388751 39.13435723 -29 41 C-26.41666667 40.91666667 -26.41666667 40.91666667 -24 40 C-22.00102872 39.66055205 -20.00124361 39.32578384 -18 39 C-18.64628004 44.29767584 -20.75247722 46.14142776 -24.75 49.41796875 C-30.13081425 53.20135377 -35.39941352 54.72006398 -42 54 C-47.17080005 52.3348271 -50.02898102 50.57079843 -53 46 C-55.66240706 38.01277881 -54.48922459 29.15483322 -51.32421875 21.4921875 C-49.13784296 17.37741537 -46.28239437 14.26902413 -43 11 C-42.03513672 9.94619141 -42.03513672 9.94619141 -41.05078125 8.87109375 C-31.17015797 -1.66953187 -13.34942165 -8.27664142 0 0 Z " fill="#000000" transform="translate(58,9)"/>
</svg>
