<?xml version="1.0" encoding="UTF-8"?>
<!-- Generator: visioncortex VTracer 0.6.4 -->
<svg version="1.1" xmlns="http://www.w3.org/2000/svg" width="128" height="137">
<path d="M0 0 C8.03943475 5.55103828 10.9044458 11.52150729 12.625 20.8125 C13.02589844 20.1834375 13.42679688 19.554375 13.83984375 18.90625 C18.22696936 12.30069126 23.35832387 5.44583806 30.625 1.8125 C33.2267412 1.60832748 35.77018718 1.48884936 38.375 1.4375 C39.07882813 1.40011719 39.78265625 1.36273438 40.5078125 1.32421875 C44.44619351 1.25833505 46.88385352 1.60897507 50.00390625 4.1171875 C60.2127187 14.61507214 60.95833344 32.27855873 60.77734375 46.16015625 C60.1403706 70.59149819 55.85820864 97.45857672 38.5859375 116.05078125 C32.11516625 121.86416339 25.42697554 123.6565899 16.81640625 123.30078125 C10.78064778 122.37731759 5.75042405 120.12674246 1.59960938 115.60717773 C-7.23070035 103.10958187 -3.86512332 81.48490491 -3.92797852 66.74536133 C-3.95310057 60.98597036 -3.99318785 55.2268237 -4.04987907 49.467659 C-4.06589645 47.48497926 -4.06959633 45.50221191 -4.07289124 43.51947021 C-4.04819051 27.33440824 -4.04819051 27.33440824 -10.375 12.8125 C-14.63453552 9.78349696 -18.20810575 9.15489528 -23.375 9.8125 C-27.20348101 11.81375144 -28.72864397 14.0801097 -30.25 18 C-31.79680958 23.37405843 -31.99819363 28.6315641 -29.40625 33.7109375 C-27.25468347 37.10047934 -27.25468347 37.10047934 -23.5625 38.4375 C-20.22326598 39.17942966 -20.22326598 39.17942966 -17.375 36.8125 C-16.055 36.8125 -14.735 36.8125 -13.375 36.8125 C-13.375 38.4625 -13.375 40.1125 -13.375 41.8125 C-19.72119034 48.1241062 -25.17487124 51.29248712 -34.125 52.1875 C-38.63845 51.66671731 -41.10123778 50.22273674 -44.125 46.875 C-47.22619222 41.75803284 -46.80187446 36.14042409 -45.74609375 30.3828125 C-43.58379352 22.40311038 -40.89062056 16.92959195 -35.375 10.8125 C-34.98441406 10.16023437 -34.59382813 9.50796875 -34.19140625 8.8359375 C-31.33823554 5.65756669 -27.74231776 4.26224217 -23.875 2.5625 C-23.06708008 2.20696045 -22.25916016 1.8514209 -21.42675781 1.48510742 C-13.91354951 -1.65340692 -7.81748265 -2.75059575 0 0 Z M17.875 22.375 C12.47294912 29.44202549 12.17727101 39.17871487 12.26171875 47.7109375 C12.26122025 48.70775543 12.26072174 49.70457336 12.26020813 50.7315979 C12.26253111 52.8240154 12.27215332 54.91643664 12.28881836 57.00878906 C12.31239038 60.17278661 12.30936712 63.33593687 12.30273438 66.5 C11.429443 87.88719564 11.429443 87.88719564 20.1953125 106.40625 C23.14926715 108.79060802 25.29123438 109.75181534 29.0625 110.4375 C34.43593876 109.49479145 38.6004764 107.5425394 41.9140625 103.07421875 C52.19716775 82.86124469 49.6464667 52.77819197 43.74609375 31.66796875 C41.58940179 25.64908367 38.24135465 19.95971057 32.625 16.625 C26.76497457 14.24436467 21.9707245 18.55852944 17.875 22.375 Z " fill="#000000" transform="translate(49.375,5.1875)"/>
</svg>
