<?xml version="1.0" encoding="UTF-8"?>
<!-- Generator: visioncortex VTracer 0.6.4 -->
<svg version="1.1" xmlns="http://www.w3.org/2000/svg" width="120" height="107">
<path d="M0 0 C3.91227587 3.78607342 5.07745846 5.72025139 5.5625 11.125 C5.68818359 12.49011719 5.68818359 12.49011719 5.81640625 13.8828125 C5.87699219 14.58148438 5.93757813 15.28015625 6 16 C6.49628906 15.33613281 6.99257813 14.67226563 7.50390625 13.98828125 C16.17561396 2.71670671 16.17561396 2.71670671 21 1 C32.75796178 -0.03503185 32.75796178 -0.03503185 36.25 2.875 C42.91542854 9.76830643 43.55030255 18.11999564 43.39770508 27.25805664 C42.86497129 41.31493093 37.84600451 56.3408118 28 66.75 C21.03891883 72.94522548 13.58592048 75.41597631 4.34375 75.27734375 C-1.24432531 74.61608817 -4.97299895 72.29033465 -8.4375 67.9375 C-10.74099439 63.60693054 -11.15504094 60.41907753 -11.28125 55.56640625 C-11.33732422 53.6318457 -11.33732422 53.6318457 -11.39453125 51.65820312 C-11.4301018 50.29297948 -11.46525599 48.92774493 -11.5 47.5625 C-11.3044093 32.07756587 -11.3044093 32.07756587 -14 17 C-15.65 16.67 -17.3 16.34 -19 16 C-18.52207339 11.33811939 -16.72323415 9.12819266 -13.5625 5.75 C-12.75941406 4.87859375 -11.95632812 4.0071875 -11.12890625 3.109375 C-7.50481652 -0.4814662 -4.99191568 -0.09244288 0 0 Z M14.875 15.9375 C9.72353607 21.08896393 4.52948843 28.07108562 3.734375 35.47265625 C3.78766814 44.30599373 3.9068751 54.45462977 9 62 C11.83943664 64.6938245 14.08974009 66.42070224 18 67 C23.13544284 63.61527631 25.41027898 60.27901713 27.3125 54.4296875 C29.48566102 43.58857739 29.32171865 30.27614562 24.6875 20.125 C22.71117816 17.63629842 20.58624549 15.83759548 18 14 C16.64387943 13.88770769 16.64387943 13.88770769 14.875 15.9375 Z " fill="#000000" transform="translate(52,14)"/>
<path d="M0 0 C1.32 0 2.64 0 4 0 C3.59088366 4.993079 0.96180362 7.85252338 -2.25 11.4375 C-3.21372776 12.54020197 -4.17727039 13.64306577 -5.140625 14.74609375 C-5.61306641 15.28089355 -6.08550781 15.81569336 -6.57226562 16.36669922 C-8.76245736 18.87223662 -10.87991458 21.43500615 -13 24 C-14.32 24 -15.64 24 -17 24 C-17.3203125 21.8671875 -17.3203125 21.8671875 -17 19 C-15.34947326 16.84432984 -13.77421733 15.03124807 -11.875 13.125 C-10.86507899 12.07108468 -9.85595963 11.01640056 -8.84765625 9.9609375 C-8.35797363 9.45530273 -7.86829102 8.94966797 -7.36376953 8.42871094 C-4.78352579 5.72559845 -2.40409781 2.85892712 0 0 Z " fill="#000000" transform="translate(29,31)"/>
</svg>
