<?xml version="1.0" encoding="UTF-8"?>
<!-- Generator: visioncortex VTracer 0.6.4 -->
<svg version="1.1" xmlns="http://www.w3.org/2000/svg" width="164" height="146">
<path d="M0 0 C1.19367187 -0.02578125 2.38734375 -0.0515625 3.6171875 -0.078125 C8.85409959 0.41174205 12.86360579 2.38629823 16.375 6.3125 C21.83886134 13.31064808 21.46078733 22.91391105 21.6875 31.4375 C21.74272827 33.10014893 21.74272827 33.10014893 21.79907227 34.79638672 C22.05083729 42.91380416 22.19660723 51.03232074 22.3359375 59.15234375 C22.3741881 61.26733542 22.41251873 63.38232565 22.45092773 65.49731445 C22.52703765 69.70279897 22.58967676 73.90820671 22.64477539 78.11401367 C22.67815381 80.08903665 22.71191072 82.06405328 22.74609375 84.0390625 C22.758647 85.38308388 22.758647 85.38308388 22.77145386 86.7542572 C22.74224914 96.78375739 22.74224914 96.78375739 27.125 105.25 C30.46869643 104.67350062 31.98461096 103.88224612 34.125 101.25 C35.21250131 98.87779714 36.16521405 96.56695063 37.0625 94.125 C37.30162109 93.51785156 37.54074219 92.91070312 37.78710938 92.28515625 C38.65519131 89.96263626 39.39537493 87.61990842 40.125 85.25 C40.47933105 84.15856689 40.83366211 83.06713379 41.19873047 81.94262695 C45.37396982 67.79634072 44.5675081 53.29359769 44.375 38.6875 C44.35258293 36.01889375 44.33665154 33.3502967 44.3203125 30.68164062 C44.27665622 24.20410129 44.21006348 17.72712111 44.125 11.25 C45.23500169 10.12304884 46.3474559 8.99851297 47.4609375 7.875 C48.0801709 7.24851562 48.6994043 6.62203125 49.33740234 5.9765625 C51.47470231 3.91223781 53.37627572 2.40735759 56.125 1.25 C57.775 1.58 59.425 1.91 61.125 2.25 C61.62 12.645 61.62 12.645 62.125 23.25 C62.929375 21.47625 63.73375 19.7025 64.5625 17.875 C67.77679899 11.40804523 72.42681994 3.59909003 79.125 0.25 C84.27406185 -0.26322348 88.73054346 -0.36975846 93.5 1.75 C102.76343013 10.57231441 105.93402026 23.5958274 106.328125 36.04296875 C106.59902112 54.61919554 104.37916084 71.74215158 98.125 89.25 C97.81433594 90.28253906 97.50367188 91.31507812 97.18359375 92.37890625 C93.44649921 103.38501606 84.01348806 114.05936865 73.8125 119.6875 C67.91096102 122.08106343 62.75348568 122.24188139 56.8125 120 C51.03840159 116.24012196 49.34094167 112.87841709 47.71484375 106.34765625 C46.91331409 102.13829847 46.56942371 97.95861514 46.3359375 93.68359375 C46.2748874 91.24285308 46.2748874 91.24285308 45.125 89.25 C44.83367187 90.06082031 44.54234375 90.87164062 44.2421875 91.70703125 C35.65823029 114.89451314 35.65823029 114.89451314 26.125 121.25 C23.1640625 121.5859375 23.1640625 121.5859375 19.75 121.625 C18.62851562 121.65335937 17.50703125 121.68171875 16.3515625 121.7109375 C12.39144224 121.14520603 10.85331695 120.15184948 8.125 117.25 C5.19224996 111.58241558 5.6622993 104.86783215 5.5 98.625 C5.44090454 96.73769165 5.44090454 96.73769165 5.38061523 94.81225586 C5.1030359 85.25111612 5.11999173 75.69801379 5.17498779 66.13397217 C5.23374046 55.23320266 5.27521302 44.37355099 4.375 33.5 C4.31320557 32.65638916 4.25141113 31.81277832 4.18774414 30.94360352 C3.50304815 24.0403575 1.07719037 18.79869298 -3.125 13.3125 C-6.68163412 10.64502441 -9.46143686 9.9644165 -13.875 10.25 C-17.67912506 11.47019106 -19.35717184 12.55956245 -21.75 15.75 C-23.51384625 21.23752165 -24.39751632 27.1838213 -21.75 32.515625 C-19.22671992 36.18708731 -19.22671992 36.18708731 -15.25 37.8125 C-11.82347372 38.25667933 -9.23287629 37.96954492 -5.875 37.25 C-5.875 40.61513506 -6.33557037 42.65493414 -8.6171875 45.171875 C-14.16077244 50.08596861 -17.94849926 51.62467348 -25.3671875 51.52734375 C-29.121747 51.11211988 -31.12999237 49.79415341 -33.875 47.25 C-37.91007323 41.86990236 -37.48589587 35.68137592 -36.875 29.25 C-35.56773402 22.90975997 -32.00943951 18.10601622 -27.875 13.25 C-27.3490625 12.62867188 -26.823125 12.00734375 -26.28125 11.3671875 C-19.12331042 3.56773447 -10.42729013 0.13454568 0 0 Z M70.125 20.25 C59.3499522 32.6576308 60.58971298 50.96260854 61.125 66.25 C61.15255371 67.25708008 61.18010742 68.26416016 61.20849609 69.30175781 C61.29200413 72.34762905 61.39171812 75.39241443 61.5 78.4375 C61.53053467 79.35668213 61.56106934 80.27586426 61.5925293 81.22290039 C61.86532104 93.15034965 61.86532104 93.15034965 66.3125 103.875 C69.76568654 106.79102419 71.62292127 107.32898384 76.125 107.25 C81.62060794 105.45551578 85.03138642 101.99853051 88.125 97.25 C93.45133123 86.43983849 94.36474765 77.42104497 94.375 65.5 C94.37567474 64.80258698 94.37634949 64.10517395 94.37704468 63.3866272 C94.54460177 40.32283756 94.54460177 40.32283756 84.38671875 20.31640625 C79.1313084 15.44361679 75.54500544 14.96218982 70.125 20.25 Z " fill="#000000" transform="translate(44.875,9.75)"/>
</svg>
