<?xml version="1.0" encoding="UTF-8"?>
<!-- Generator: visioncortex VTracer 0.6.4 -->
<svg version="1.1" xmlns="http://www.w3.org/2000/svg" width="155" height="101">
<path d="M0 0 C4.00445887 3.86830727 4.50362456 6.88444484 4.70703125 12.19335938 C4.72121094 13.05767578 4.73539063 13.92199219 4.75 14.8125 C4.77964844 15.69615234 4.80929688 16.57980469 4.83984375 17.49023438 C4.9102039 19.65967218 4.95740607 21.82983948 5 24 C5.67482422 23.12601563 5.67482422 23.12601563 6.36328125 22.234375 C10.34421849 17.16047504 14.46717787 12.26251369 18.8125 7.5 C19.28018799 6.98405273 19.74787598 6.46810547 20.22973633 5.93652344 C22.38615931 3.59595384 24.33509104 1.77660597 27 0 C29.33199388 -0.07905064 31.66832622 -0.08798769 34 0 C38.02632135 4.80560936 39.09539469 7.98167226 39.5625 14.1875 C39.64628906 15.27417969 39.73007813 16.36085938 39.81640625 17.48046875 C39.87699219 18.31191406 39.93757813 19.14335937 40 20 C40.76183594 18.93072266 40.76183594 18.93072266 41.5390625 17.83984375 C52.85314926 2.09758445 52.85314926 2.09758445 58 0 C63.07227903 -0.57267666 64.9721632 -0.65936701 69.3125 2.125 C75.27570849 8.50424629 75.51898488 14.18960494 75.4375 22.5625 C75.42992676 23.63717529 75.42235352 24.71185059 75.41455078 25.8190918 C75.24737948 33.88541216 74.38630787 40.59442952 71 48 C70.36384766 49.41925781 70.36384766 49.41925781 69.71484375 50.8671875 C65.26356269 59.81934607 59.02510831 68.83227745 49.3203125 72.3828125 C42.83507323 74.10784248 37.04100899 74.84987136 30.7578125 72.08984375 C26.83340761 69.65671272 24.46134479 66.38403437 23 62 C22.89232883 60.66120313 22.83435616 59.31800617 22.81054688 57.97509766 C22.79382935 57.17061188 22.77711182 56.3661261 22.7598877 55.53726196 C22.74631226 54.67160614 22.73273682 53.80595032 22.71875 52.9140625 C22.70034058 52.02012787 22.68193115 51.12619324 22.66296387 50.20516968 C22.60421426 47.34518001 22.55141699 44.48513032 22.5 41.625 C22.43219242 37.86706563 22.35847072 34.10931386 22.28125 30.3515625 C22.26767456 29.48995514 22.25409912 28.62834778 22.2401123 27.7406311 C22.157003 23.70987976 21.99069119 19.93368577 21 16 C20.01 15.505 20.01 15.505 19 15 C18.773125 15.52722656 18.54625 16.05445312 18.3125 16.59765625 C16.21395341 20.43874599 13.37086635 23.73566735 10.6328125 27.13476562 C5.87943346 33.16086893 4.69865046 37.54529641 4.8046875 45.14453125 C4.80893234 46.2992115 4.80893234 46.2992115 4.81326294 47.47721863 C4.82440843 49.92247425 4.84950219 52.36735612 4.875 54.8125 C4.8850371 56.47590615 4.89416167 58.13931807 4.90234375 59.80273438 C4.92432927 63.86863237 4.95881986 67.93425294 5 72 C3.18783718 73.81216282 0.06063122 73.04400822 -2.375 73.0625 C-4.15003906 73.07990234 -4.15003906 73.07990234 -5.9609375 73.09765625 C-9 73 -9 73 -11 72 C-11.029729 70.19366089 -11.029729 70.19366089 -11.06005859 68.35083008 C-11.13692974 63.82362201 -11.2255114 59.29670182 -11.31738281 54.76977539 C-11.35533967 52.8215916 -11.39024627 50.87334563 -11.421875 48.92504883 C-11.59933913 38.124693 -11.87417682 27.62536886 -14 17 C-15.98 17.33 -17.96 17.66 -20 18 C-20.09152344 18.73605469 -20.18304688 19.47210937 -20.27734375 20.23046875 C-21.11638828 23.44605024 -22.31288392 24.89927548 -24.5625 27.3125 C-25.20316406 28.00988281 -25.84382813 28.70726563 -26.50390625 29.42578125 C-26.99761719 29.94527344 -27.49132812 30.46476562 -28 31 C-28.66 31 -29.32 31 -30 31 C-30.33 32.32 -30.66 33.64 -31 35 C-32.32 35.66 -33.64 36.32 -35 37 C-35.10183594 37.57234375 -35.20367187 38.1446875 -35.30859375 38.734375 C-36.12291016 41.40275646 -37.34673122 43.05965688 -39.0625 45.25 C-39.61035156 45.95640625 -40.15820312 46.6628125 -40.72265625 47.390625 C-41.14417969 47.92171875 -41.56570312 48.4528125 -42 49 C-43.32 49 -44.64 49 -46 49 C-46.3077917 45.86162389 -46.27813784 44.40656372 -44.46875 41.76171875 C-43.49421875 40.73498047 -43.49421875 40.73498047 -42.5 39.6875 C-41.8503125 38.99011719 -41.200625 38.29273438 -40.53125 37.57421875 C-40.0259375 37.05472656 -39.520625 36.53523438 -39 36 C-38.34 36 -37.68 36 -37 36 C-36.67 34.68 -36.34 33.36 -36 32 C-34.68 31.34 -33.36 30.68 -32 30 C-31.90847656 29.42765625 -31.81695312 28.8553125 -31.72265625 28.265625 C-30.82311542 25.44544295 -29.43047759 23.92415738 -27.4375 21.75 C-26.79683594 21.04359375 -26.15617187 20.3371875 -25.49609375 19.609375 C-25.00238281 19.07828125 -24.50867188 18.5471875 -24 18 C-23.01 18 -22.02 18 -21 18 C-20.85498047 16.90365234 -20.85498047 16.90365234 -20.70703125 15.78515625 C-19.90354737 12.62005126 -18.73606227 10.95981972 -16.6875 8.4375 C-16.09324219 7.69371094 -15.49898437 6.94992188 -14.88671875 6.18359375 C-9.54382826 0 -9.54382826 0 0 0 Z M51 15 C49.38930269 17.03679172 47.78646883 19.07903153 46.1875 21.125 C45.73568359 21.69476563 45.28386719 22.26453125 44.81835938 22.8515625 C39.08901048 30.21189393 37.26710575 35.68718863 38 45 C38.91360054 52.07532866 40.14223453 58.47453284 45.6875 63.375 C47.81904602 65.21756328 47.81904602 65.21756328 50.125 64.9375 C54.32224732 63.5688324 56.69258425 60.70938988 59 57 C60.50249272 51.00307725 60.26321535 44.8941535 60.3125 38.75 C60.35600586 36.96529297 60.35600586 36.96529297 60.40039062 35.14453125 C60.45285336 27.84010446 59.70024583 22.3612025 56 16 C54.35 15.67 52.7 15.34 51 15 Z " fill="#000000" transform="translate(59,12)"/>
</svg>
