<?xml version="1.0" encoding="UTF-8"?>
<!-- Generator: visioncortex VTracer 0.6.4 -->
<svg version="1.1" xmlns="http://www.w3.org/2000/svg" width="112" height="135">
<path d="M0 0 C4.98079792 3.68192605 7.16224989 9.69784349 9.5 15.25 C9.86351562 14.58613281 10.22703125 13.92226563 10.6015625 13.23828125 C14.43578971 6.50380525 18.08908038 1.26394794 25.5 -1.75 C31.01715176 -2.42716979 37.49496123 -3.17582011 42.25 0.1875 C45.19262099 4.19273413 45.87426991 7.32356351 45.5 12.25 C43.88314521 17.01073911 41.57955273 19.38328727 37.5 22.25 C33.48267071 22.01368651 30.99060292 21.58062371 27.625 19.3125 C24.69875208 15.09526034 24.60755715 11.28563018 24.5 6.25 C23.51 6.58 22.52 6.91 21.5 7.25 C21.12875 8.2090625 21.12875 8.2090625 20.75 9.1875 C19.5 12.25 19.5 12.25 18.546875 13.953125 C7.45962905 34.96924791 13.25447293 67.81447539 19.44140625 89.55859375 C21.39589952 95.06225053 23.9629085 98.56361316 28.5 102.25 C31.59946637 103.33090634 34.48631402 103.35544324 37.75 103.3125 C38.64203125 103.30347656 39.5340625 103.29445313 40.453125 103.28515625 C43.80566877 103.22757439 45.23749285 100.56637637 47.5 98.25 C48.49 96.765 48.49 96.765 49.5 95.25 C50.82 95.25 52.14 95.25 53.5 95.25 C53.61890018 100.71940807 52.01112238 103.23189407 48.375 107.3125 C46.76763139 108.97555697 45.14347316 110.62261304 43.5 112.25 C42.90574219 112.87777344 42.31148438 113.50554687 41.69921875 114.15234375 C36.60988277 119.12021586 31.04817577 120.19881474 24.0703125 120.27734375 C18.89550255 119.9375835 15.45884933 118.76897719 11.5 115.25 C5.81404685 108.29585632 3.16190238 100.97117579 1.5 92.25 C1.14808594 93.01183594 0.79617187 93.77367188 0.43359375 94.55859375 C-4.9680957 105.85559962 -9.75605893 113.44828649 -21.375 118.5 C-27.02071233 119.85497096 -32.15866926 120.31585586 -37.375 117.4375 C-43.10869565 113.42391304 -43.10869565 113.42391304 -44.5 109.25 C-44.91767184 102.77608645 -44.30769392 99.52564291 -40 94.5 C-37.29173144 92.24310953 -34.68065555 92.13228434 -31.3125 92.1875 C-30.054375 92.208125 -28.79625 92.22875 -27.5 92.25 C-23.67268639 95.83039015 -22.61719878 97.79673517 -22.1875 103.125 C-22.21044985 107.27127208 -23.54315885 109.29315885 -26.5 112.25 C-23.48936992 112.77686026 -21.31870966 112.69473117 -18.6015625 111.21875 C-9.5356809 104.19537927 -3.99080677 91.87723062 -1.89453125 80.80078125 C0.13624537 62.52379165 0.61248788 35.49542672 -10.171875 19.87109375 C-12.88084821 16.56455292 -15.46360368 14.59546544 -19.5 13.25 C-24.65701618 13.07809946 -29.41682196 13.40280366 -34.5 14.25 C-34.5 10.98818865 -34.05512449 8.89177807 -31.8984375 6.3984375 C-23.26247928 -1.43727749 -11.25176429 -5.8101596 0 0 Z " fill="#000000" transform="translate(52.5,7.75)"/>
</svg>
