<?xml version="1.0" encoding="UTF-8"?>
<!-- Generator: visioncortex VTracer 0.6.4 -->
<svg version="1.1" xmlns="http://www.w3.org/2000/svg" width="107" height="97">
<path d="M0 0 C4.44732447 2.22366224 7.10584781 4.99271235 10 9 C10.47050781 8.43410156 10.94101562 7.86820313 11.42578125 7.28515625 C12.04839844 6.55167969 12.67101563 5.81820313 13.3125 5.0625 C13.92738281 4.33160156 14.54226562 3.60070312 15.17578125 2.84765625 C18.33430043 -0.35144347 21.58897111 -0.18586989 25.875 -0.25 C27.41800781 -0.28867188 27.41800781 -0.28867188 28.9921875 -0.328125 C32.408592 0.04457367 34.23558589 1.0015692 37 3 C39.35890952 6.03288367 39.35622018 9.2605188 39.2578125 13.03515625 C38.87949755 15.91837475 37.79180855 17.74364849 36 20 C32.91111478 22.05925681 32.29064073 22.2390374 28.8125 22.125 C27.554375 22.08375 26.29625 22.0425 25 22 C23.35 20.35 21.7 18.7 20 17 C20 14.36 20 11.72 20 9 C16.19213788 11.70558624 14.36056887 13.5313426 13 18 C12.03022575 30.22200782 12.28608562 43.89284902 20 54 C23.27108825 56.98032485 25.70682498 58.22462866 30.0625 58.4375 C36.04415711 57.77287143 38.98299683 55.31455896 43 51 C43.66 51 44.32 51 45 51 C45 50.01 45 49.02 45 48 C46.32 48 47.64 48 49 48 C49 49.32 49 50.64 49 52 C48.34 52 47.68 52 47 52 C46.896875 52.57105469 46.79375 53.14210937 46.6875 53.73046875 C44.30997086 61.57901666 36.62525907 67.68587781 30 72 C23.87520407 74.04159864 16.64004758 73.80144302 10.5 71.9375 C7.27039381 69.4345552 4.95540847 66.5906837 3 63 C3 62.34 3 61.68 3 61 C2.34 61.70125 1.68 62.4025 1 63.125 C-4.1585369 68.2835369 -9.2757478 72.75171652 -16.75 73.25 C-22.23655627 73.15922977 -26.33394445 71.49517806 -30.4375 67.8125 C-32.46437373 64.16412729 -32.81161202 61.03442092 -32 57 C-30.50251293 54.34316811 -29.15347249 52.15347249 -27 50 C-25.41705218 49.94562393 -23.83355744 49.90703729 -22.25 49.875 C-20.92742188 49.84019531 -20.92742188 49.84019531 -19.578125 49.8046875 C-16.85093574 50.01129275 -15.28684592 50.52694159 -13 52 C-11.41126754 55.17746491 -11.58973779 58.54012202 -12 62 C-13.5 64.5 -13.5 64.5 -15 66 C-12.26316383 65.91950482 -10.50656279 65.44704167 -8.4375 63.62109375 C-1.72805031 56.12328373 -0.433867 48.95359885 -0.7109375 39.09375 C-1.12918616 31.57230343 -2.17565744 23.29485687 -8 18 C-11.26959907 15.71128065 -14.07973263 15.82180603 -18 16 C-21.40668753 19.31832964 -24.72219313 22.55079597 -27.5625 26.375 C-30.39186675 29.42201035 -31.91943727 29.81020638 -36 30 C-35.53707987 25.24220981 -33.63272766 23.08793778 -30.375 19.6875 C-27.28134048 16.42380476 -24.24980028 13.14790774 -21.375 9.6875 C-15.15342606 2.65378587 -9.83892027 -1.93146589 0 0 Z " fill="#000000" transform="translate(49,10)"/>
</svg>
