<?xml version="1.0" encoding="UTF-8"?>
<!-- Generator: visioncortex VTracer 0.6.4 -->
<svg version="1.1" xmlns="http://www.w3.org/2000/svg" width="116" height="140">
<path d="M0 0 C0.98484375 0.00902344 1.9696875 0.01804687 2.984375 0.02734375 C5.25 0.0625 5.25 0.0625 6.25 1.0625 C6.3725355 2.59632679 6.42777938 4.13560519 6.45532227 5.67407227 C6.4852401 7.14548424 6.4852401 7.14548424 6.51576233 8.6466217 C6.53247482 9.7132756 6.54918732 10.7799295 6.56640625 11.87890625 C6.58718735 12.9650975 6.60796844 14.05128876 6.62937927 15.1703949 C6.69499442 18.65519627 6.75381511 22.14007568 6.8125 25.625 C6.85567385 27.98112801 6.89928776 30.33724799 6.94335938 32.69335938 C7.05068792 38.48298937 7.15243165 44.27269775 7.25 50.0625 C7.91 50.0625 8.57 50.0625 9.25 50.0625 C9.51167969 49.47210938 9.77335937 48.88171875 10.04296875 48.2734375 C11.3139488 45.94536401 12.64130352 44.50220001 14.5625 42.6875 C17.70926766 39.63948028 20.5041721 36.47398314 23.25 33.0625 C24.57 33.0625 25.89 33.0625 27.25 33.0625 C27.60546875 35.16015625 27.60546875 35.16015625 27.25 38.0625 C25.4172745 40.39798273 23.64398568 42.41363393 21.5625 44.5 C20.49470922 45.60152414 19.42829132 46.70438085 18.36328125 47.80859375 C17.8420166 48.34726074 17.32075195 48.88592773 16.78369141 49.44091797 C11.30700556 54.84655871 11.30700556 54.84655871 9.23168945 61.95336914 C9.29682739 63.01479126 9.29682739 63.01479126 9.36328125 64.09765625 C10.1447407 82.11473869 6.02487203 97.22653804 -5.62109375 111.328125 C-10.67154381 116.81553553 -16.78394235 121.49600157 -24.38671875 122.36328125 C-26.875 122.375 -26.875 122.375 -30.75 122.0625 C-35.81382979 116.99867021 -35.81382979 116.99867021 -36 113.0625 C-35.88838009 102.77752284 -28.42399227 95.55445017 -22.28173828 87.96191406 C-19.70405819 84.76549214 -17.16488792 81.53896912 -14.625 78.3125 C-14.1518335 77.71614746 -13.67866699 77.11979492 -13.19116211 76.50537109 C-9.53218238 71.87007868 -8.62472078 69.83874675 -8.6875 63.9375 C-8.69652344 62.84179688 -8.70554688 61.74609375 -8.71484375 60.6171875 C-8.45214199 58.12792137 -8.45214199 58.12792137 -9.75 57.0625 C-10.18570313 57.58199219 -10.62140625 58.10148437 -11.0703125 58.63671875 C-16.14935555 64.58425618 -21.20132118 70.35636986 -28.75 73.0625 C-38.99623561 73.71440434 -38.99623561 73.71440434 -42.0625 71.0625 C-47.57254394 65.50166861 -48.18497875 58.49595629 -48.15625 51.07421875 C-48.16708618 50.24920364 -48.17792236 49.42418854 -48.18908691 48.57417297 C-48.2346487 45.07774106 -48.24649683 41.58139269 -48.26123047 38.0847168 C-48.27688569 35.51844701 -48.30984915 32.95280169 -48.34375 30.38671875 C-48.34072876 29.59609543 -48.33770752 28.80547211 -48.33459473 27.9908905 C-48.34498865 23.72283 -48.34498865 23.72283 -50.27539062 20.04223633 C-50.76201172 19.71892334 -51.24863281 19.39561035 -51.75 19.0625 C-52.08644531 19.85914063 -52.08644531 19.85914063 -52.4296875 20.671875 C-54.19795416 23.8735886 -56.51049081 26.54397104 -58.875 29.3125 C-59.34292969 29.86679687 -59.81085937 30.42109375 -60.29296875 30.9921875 C-61.44175328 32.35197326 -62.59539653 33.70765165 -63.75 35.0625 C-65.07 35.0625 -66.39 35.0625 -67.75 35.0625 C-67.36472468 29.81682828 -64.53798357 27.00203966 -61.1875 23.25 C-60.66736328 22.65251953 -60.14722656 22.05503906 -59.61132812 21.43945312 C-58.33264738 19.97307613 -57.04244159 18.51676294 -55.75 17.0625 C-55.09 17.0625 -54.43 17.0625 -53.75 17.0625 C-53.6675 16.50949219 -53.585 15.95648438 -53.5 15.38671875 C-52.50509929 12.30356292 -50.80940868 10.36467799 -48.75 7.875 C-48.028125 6.99457031 -47.30625 6.11414063 -46.5625 5.20703125 C-45.65474803 4.13298851 -44.74437957 3.05687957 -43.75 2.0625 C-40.45 2.0625 -37.15 2.0625 -33.75 2.0625 C-31.96346844 5.63556312 -31.50035977 6.64347202 -31.47875977 10.32104492 C-31.46857315 11.15258591 -31.45838654 11.98412689 -31.44789124 12.84086609 C-31.44575119 13.73255997 -31.44361115 14.62425385 -31.44140625 15.54296875 C-31.41623357 17.4485706 -31.39083574 19.35416949 -31.36523438 21.25976562 C-31.33658425 24.25039819 -31.31255688 27.24097898 -31.29370117 30.23168945 C-31.27189292 33.12739429 -31.23243052 36.02248132 -31.19140625 38.91796875 C-31.19129044 39.79954147 -31.19117462 40.6811142 -31.1910553 41.58940125 C-31.09190683 47.88748139 -30.58358416 54.96459932 -26.14625549 59.81584167 C-25.45510902 60.43293755 -25.45510902 60.43293755 -24.75 61.0625 C-19.40451637 59.64751904 -16.75724835 56.46482341 -13.75 52.0625 C-8.26828961 42.19472492 -9.29617341 31.27491507 -9.5 20.375 C-9.52010017 18.49806598 -9.5383447 16.62111112 -9.5546875 14.74414062 C-9.59839437 10.18307194 -9.66722616 5.62302012 -9.75 1.0625 C-6.40278514 0.15674617 -3.47693522 -0.04139209 0 0 Z M-7.75 79.0625 C-9.49307927 81.26583054 -11.22131435 83.47749812 -12.92578125 85.7109375 C-14.28393902 87.46171047 -15.71773889 89.15430798 -17.1875 90.8125 C-19.69227465 96.02243127 -19.05343473 101.38152749 -18.75 107.0625 C-17.43 108.3825 -16.11 109.7025 -14.75 111.0625 C-11.34171127 109.65217363 -9.76982845 108.1278223 -7.75 105.0625 C-4.59560318 96.75806756 -5.95807589 87.68805182 -6.75 79.0625 C-7.08 79.0625 -7.41 79.0625 -7.75 79.0625 Z " fill="#000000" transform="translate(78.75,10.9375)"/>
</svg>
