<?xml version="1.0" encoding="UTF-8"?>
<!-- Generator: visioncortex VTracer 0.6.4 -->
<svg version="1.1" xmlns="http://www.w3.org/2000/svg" width="128" height="141">
<path d="M0 0 C3.80683288 2.6216868 5.77674334 4.60455981 6.65625 9.140625 C6.75069902 10.47662029 6.80118282 11.81624887 6.81396484 13.15551758 C6.82422699 13.93345169 6.83448914 14.7113858 6.84506226 15.51289368 C6.85236359 16.34524033 6.85966492 17.17758698 6.8671875 18.03515625 C6.89525923 19.8131602 6.92392372 21.59115487 6.953125 23.36914062 C6.99432558 26.16023465 7.03123139 28.95115603 7.05761719 31.74243164 C7.08534821 34.44453288 7.13121871 37.14585775 7.1796875 39.84765625 C7.18294037 40.67393021 7.18619324 41.50020416 7.18954468 42.35151672 C7.30127986 47.66219804 8.26258128 51.38786896 10.65625 56.140625 C13.62625 56.470625 16.59625 56.800625 19.65625 57.140625 C20.8009375 55.8721875 20.8009375 55.8721875 21.96875 54.578125 C22.39800781 54.10246094 22.82726562 53.62679687 23.26953125 53.13671875 C28.14841738 46.11387139 28.09003442 39.66655889 28.15625 31.328125 C28.31575845 11.44653633 28.31575845 11.44653633 34.59375 3.703125 C35.07714844 3.08566406 35.56054688 2.46820312 36.05859375 1.83203125 C37.78063926 0.00893662 39.61086498 -1.41479422 41.65625 -2.859375 C43.30625 -2.529375 44.95625 -2.199375 46.65625 -1.859375 C46.5840625 -1.14394531 46.511875 -0.42851562 46.4375 0.30859375 C46.13243119 3.58384636 45.88372086 6.85907812 45.65625 10.140625 C45.58792969 11.06875 45.51960938 11.996875 45.44921875 12.953125 C45.1683655 20.60897667 46.35079372 27.73965542 47.65625 35.265625 C51.37825707 57.15577045 51.10299254 78.95017535 38.6171875 98.30078125 C30.62741998 109.37937642 22.66180044 115.80544152 9.65625 120.140625 C2.23610223 120.8111865 -4.21689641 120.73207431 -10.34375 116.140625 C-15.25820049 110.84813986 -15.7371141 107.21494939 -15.703125 100.13671875 C-15.16660181 95.66374826 -13.6768208 94.07690166 -10.34375 91.140625 C-7.93829362 89.93789681 -6.39378047 90.03991028 -3.71875 90.078125 C-2.90148438 90.08714844 -2.08421875 90.09617187 -1.2421875 90.10546875 C1.43712993 90.15508574 2.68869001 91.48689709 4.52734375 93.3203125 C6.92555955 97.18733174 6.37288708 101.80275097 5.65625 106.140625 C4.56545471 108.59374402 3.43294439 110.08632211 1.65625 112.140625 C6.1522411 113.57934215 10.4902137 114.03601908 14.93359375 112.19921875 C21.84559726 108.5304515 27.76457656 103.91022899 30.28125 96.234375 C33.51801402 83.10749869 31.7573337 68.47160266 30.65625 55.140625 C30.099375 55.80449219 29.5425 56.46835938 28.96875 57.15234375 C22.21675177 64.9650444 16.44843145 70.57460988 5.90625 71.453125 C1.29695913 71.35853134 -2.86141759 70.24253454 -6.34375 67.140625 C-11.35797943 59.86955326 -10.71475481 52.97804645 -10.40625 44.390625 C-10.01363469 32.62388555 -10.26733205 21.55734149 -16.34375 11.140625 C-24.3074348 7.33432627 -24.3074348 7.33432627 -27.59375 9.203125 C-32.06112959 12.35059698 -34.28673874 16.7750345 -35.34375 22.140625 C-35.8403296 27.07385839 -36.20261354 31.52278865 -33.34375 35.765625 C-30.5673498 39.06260024 -28.5875043 38.66909674 -24.34375 39.140625 C-22.00114357 38.8803354 -19.6619929 38.56642472 -17.34375 38.140625 C-17.84856425 42.39442743 -19.03911338 44.35961535 -22.09375 47.328125 C-22.76921875 48.00230469 -23.4446875 48.67648438 -24.140625 49.37109375 C-28.57178612 52.93016465 -32.67400652 53.52683996 -38.1953125 53.3984375 C-42.49502664 52.8824718 -45.63093576 50.39600209 -48.34375 47.140625 C-51.33788386 38.15822343 -49.88910559 28.23110263 -45.89453125 19.859375 C-39.65580437 8.92195962 -31.56242864 1.22473324 -19.40234375 -2.4453125 C-12.53581589 -3.82643575 -6.10167984 -3.55097761 0 0 Z " fill="#000000" transform="translate(58.34375,16.859375)"/>
</svg>
