<?xml version="1.0" encoding="UTF-8"?>
<!-- Generator: visioncortex VTracer 0.6.4 -->
<svg version="1.1" xmlns="http://www.w3.org/2000/svg" width="85" height="96">
<path d="M0 0 C5.96806297 1.72155662 11.71101516 3.08944628 17.375 0 C18.1175 -0.495 18.86 -0.99 19.625 -1.5 C22.4375 -1.6875 22.4375 -1.6875 24.625 -1.5 C24.9375 0.64453125 24.9375 0.64453125 24.625 3.5 C23.01517227 5.5921842 21.47857416 7.34088052 19.625 9.1875 C18.59908562 10.2554386 17.57566558 11.32577869 16.5546875 12.3984375 C16.0503418 12.9253418 15.54599609 13.45224609 15.02636719 13.99511719 C13.14798437 16.01225163 11.44372173 18.1390116 9.75 20.3125 C6.35431361 24.65841962 2.76507399 28.79740161 -0.875 32.9375 C-6.09257217 38.88690116 -10.88506339 44.97534891 -15.375 51.5 C-14.26125 51.4175 -13.1475 51.335 -12 51.25 C-5.94637406 51.23928562 -0.76550721 53.81155464 4.5703125 56.46875 C9.04637447 58.63652889 11.86188129 59.00414275 16.625 57.5 C18.80838812 55.78037665 20.77745947 53.97296872 22.73046875 51.99609375 C24.625 50.5 24.625 50.5 28.625 50.5 C27.586653 58.60487521 21.07777094 64.58366916 14.9375 69.5 C8.23338769 74.59855707 1.90524146 75.6214774 -6.375 74.5 C-10.30537967 73.25690317 -14.00377939 71.55667457 -17.734375 69.8125 C-22.07104625 68.24906487 -24.80308213 68.11540123 -29.375 68.5 C-32.04898476 70.43897879 -32.04898476 70.43897879 -34.375 72.5 C-37.1875 72.75 -37.1875 72.75 -39.375 72.5 C-39.375 69.38188846 -38.98699521 67.20690356 -36.9140625 64.8125 C-35.5496179 63.5204545 -34.18062493 62.23320515 -32.80859375 60.94921875 C-29.95741259 58.07973145 -27.5241027 55.01568619 -25.0625 51.8125 C-21.33988652 46.9804553 -17.53225558 42.25649486 -13.5625 37.625 C-9.64383644 33.04488632 -5.90955873 28.38267568 -2.375 23.5 C-1.37688423 22.16525557 -0.37732947 20.83158305 0.625 19.5 C0.07972656 19.37882812 -0.46554688 19.25765625 -1.02734375 19.1328125 C-1.78144531 18.96523438 -2.53554688 18.79765625 -3.3125 18.625 C-4.54419922 18.35623047 -4.54419922 18.35623047 -5.80078125 18.08203125 C-7.449996 17.70914354 -9.09417704 17.31275158 -10.73046875 16.88671875 C-15.59640971 15.65557706 -19.52014453 14.76612305 -24.375 16.5 C-28.91619866 20.71356185 -32.70850854 25.52238976 -36.375 30.5 C-37.695 30.5 -39.015 30.5 -40.375 30.5 C-40.60944584 27.66222853 -40.72449605 26.0275206 -39.125 23.61328125 C-38.5475 23.01902344 -37.97 22.42476562 -37.375 21.8125 C-34.54737017 18.80317508 -31.99224671 15.73046854 -29.5 12.4375 C-21.40631521 2.21804196 -13.10704998 -3.86795461 0 0 Z " fill="#000000" transform="translate(44.375,12.5)"/>
</svg>
