<?xml version="1.0" encoding="UTF-8"?>
<!-- Generator: visioncortex VTracer 0.6.4 -->
<svg version="1.1" xmlns="http://www.w3.org/2000/svg" width="120" height="145">
<path d="M0 0 C3.9482407 1.67035429 6.25166823 2.1445383 10.36499023 0.67211914 C12.82205665 -0.39429361 14.05730542 -1.19988354 15.98608398 -3.12866211 C17.96608398 -3.12866211 19.94608398 -3.12866211 21.98608398 -3.12866211 C21.50512903 2.35591198 19.50183311 5.77465466 16.54858398 10.24633789 C15.63683433 11.66411934 14.72538465 13.08209373 13.81420898 14.50024414 C13.34563477 15.22228027 12.87706055 15.94431641 12.39428711 16.68823242 C10.154231 20.16094077 7.97915484 23.67359926 5.79858398 27.18383789 C2.33896403 32.73502286 -1.16843412 38.25227983 -4.73657227 43.73461914 C-6.15314546 45.93010293 -6.15314546 45.93010293 -7.01391602 48.87133789 C-5.57554851 48.75675096 -4.13820636 48.62924673 -2.70141602 48.49633789 C-1.5006543 48.39192383 -1.5006543 48.39192383 -0.27563477 48.28540039 C2.25832839 47.97569363 2.25832839 47.97569363 4.98608398 45.87133789 C7.67358398 45.74633789 7.67358398 45.74633789 9.98608398 45.87133789 C8.95590424 53.30150928 3.54427431 57.94433059 -2.20141602 62.37133789 C-7.55266923 65.79688061 -12.86465765 65.43319906 -19.01391602 64.87133789 C-19.26842529 65.5711377 -19.52293457 66.2709375 -19.78515625 66.99194336 C-21.15204835 70.19502809 -22.8262958 72.98967315 -24.67407227 75.94165039 C-25.02400742 76.5045578 -25.37394257 77.06746521 -25.73448181 77.64743042 C-26.84470938 79.43277063 -27.96002908 81.21484373 -29.07641602 82.99633789 C-30.19605539 84.78516211 -31.31446184 86.5746997 -32.42906189 88.3666687 C-33.43735702 89.98753531 -34.45025157 91.60553805 -35.46337891 93.22338867 C-37.11851002 95.84097242 -37.11851002 95.84097242 -38.01391602 98.87133789 C-36.94141602 98.37633789 -35.86891602 97.88133789 -34.76391602 97.37133789 C-27.59862113 94.80335633 -20.94067375 94.42964426 -13.89672852 97.55883789 C-9.85284513 99.51384316 -5.93469263 101.68289786 -2.01391602 103.87133789 C3.00351096 106.59663096 5.33617899 107.28381414 10.98608398 105.87133789 C15.61402132 104.23794824 18.06940978 102.30016522 20.27905273 97.82446289 C21.53451255 94.35634185 22.01718876 91.39039871 20.98608398 87.87133789 C18.93563906 84.89488559 16.59066892 82.36961323 13.98608398 79.87133789 C12.0701243 79.78999998 10.15316466 79.73199422 8.23608398 79.68383789 C7.16874023 79.6490332 6.10139648 79.61422852 5.00170898 79.57836914 C1.63100561 79.90583385 0.51785935 80.73931653 -2.01391602 82.87133789 C-4.76391602 83.05883789 -4.76391602 83.05883789 -7.01391602 82.87133789 C-6.61283937 77.63463902 -5.26598778 75.53681117 -1.32641602 72.12133789 C-0.47692383 71.36336914 0.37256836 70.60540039 1.24780273 69.82446289 C6.29040951 66.22773908 10.87835115 65.57892912 16.98608398 65.55883789 C18.16170898 65.54208008 19.33733398 65.52532227 20.54858398 65.50805664 C25.75500888 66.05828109 28.9671161 67.94294493 32.79858398 71.43383789 C35.90699653 75.49791126 36.22817728 79.8781636 35.98608398 84.87133789 C34.80226946 92.22085306 30.81128952 97.40146926 25.98608398 102.87133789 C25.41116211 103.55196289 24.83624023 104.23258789 24.24389648 104.93383789 C16.47092461 113.47409884 5.35514877 119.77651684 -6.11938477 121.27758789 C-16.18194418 121.58367335 -23.26558364 118.2768199 -31.38891602 112.55883789 C-34.4412791 110.59660448 -36.3859304 109.94692092 -40.01391602 109.87133789 C-43.90655684 111.27931436 -46.56580009 113.30888135 -49.57641602 116.05883789 C-51.97393599 118.21660587 -52.65486803 118.82550198 -55.95141602 119.24633789 C-56.97235352 119.06071289 -56.97235352 119.06071289 -58.01391602 118.87133789 C-57.5030413 114.27598412 -56.39759995 111.41902058 -53.76782227 107.63305664 C-53.09992676 106.6561084 -52.43203125 105.67916016 -51.74389648 104.67260742 C-51.02862793 103.64506348 -50.31335937 102.61751953 -49.57641602 101.55883789 C-43.35084278 92.43269777 -37.49126506 83.22118768 -32.02172852 73.62670898 C-30.51319556 70.99920125 -28.95245589 68.40387976 -27.38891602 65.80883789 C-26.92227539 65.03411133 -26.45563477 64.25938477 -25.97485352 63.46118164 C-25.65774414 62.9365332 -25.34063477 62.41188477 -25.01391602 61.87133789 C-31.34021171 60.96758136 -36.68762032 60.96758136 -43.01391602 61.87133789 C-42.89462706 57.93480227 -41.47944997 56.02030871 -38.82641602 53.30883789 C-37.56694389 52.15052819 -36.29666958 51.0038107 -35.01391602 49.87133789 C-34.16829102 49.06696289 -33.32266602 48.26258789 -32.45141602 47.43383789 C-26.85973831 44.89216621 -21.05952774 45.57319813 -15.01391602 45.87133789 C-14.68520508 45.31188477 -14.35649414 44.75243164 -14.01782227 44.17602539 C-10.56132642 38.3496286 -6.96615616 32.62983548 -3.26220703 26.95874023 C-0.6947625 23.00698432 1.67825698 18.98052308 3.98608398 14.87133789 C3.22295898 15.20133789 2.45983398 15.53133789 1.67358398 15.87133789 C-8.38457699 18.59897477 -15.83466548 16.29000291 -25.01391602 11.87133789 C-29.42166004 9.7739727 -33.0277349 8.1125712 -38.01391602 8.87133789 C-41.51512081 11.0993773 -43.44673184 13.06133903 -45.01391602 16.87133789 C-45.59952056 21.12267478 -45.48087874 24.79732362 -43.76391602 28.74633789 C-41.18129511 31.88237756 -39.36707151 33.72959674 -35.21704102 34.16430664 C-34.24250977 34.12950195 -33.26797852 34.09469727 -32.26391602 34.05883789 C-31.27907227 34.03176758 -30.29422852 34.00469727 -29.27954102 33.97680664 C-28.15805664 33.92459961 -28.15805664 33.92459961 -27.01391602 33.87133789 C-27.74829102 38.60571289 -27.74829102 38.60571289 -30.13891602 40.99633789 C-37.07094896 45.51722894 -42.73501559 46.95489986 -51.01391602 45.87133789 C-54.96112808 44.60565576 -57.43083427 42.64251053 -59.95141602 39.30883789 C-61.76707964 33.43463204 -62.32122139 27.90864406 -59.84204102 22.14868164 C-53.3585574 11.06994547 -43.44508512 1.0836732 -31.07641602 -3.25366211 C-19.85988746 -5.75637288 -10.32348161 -4.67925004 0 0 Z " fill="#000000" transform="translate(72.013916015625,13.128662109375)"/>
</svg>
