<?xml version="1.0" encoding="UTF-8"?>
<!-- Generator: visioncortex VTracer 0.6.4 -->
<svg version="1.1" xmlns="http://www.w3.org/2000/svg" width="43" height="73">
<path d="M0 0 C1 1 1 1 1.3203125 4.203125 C1.23121716 10.66972236 -1.13018853 16.66485358 -3.125 22.75 C-3.53765196 24.03694539 -3.94901883 25.32430351 -4.35913086 26.61206055 C-4.97719598 28.55188125 -5.5961377 30.49137258 -6.2195282 32.42948914 C-8.07600642 38.20179487 -9.83563376 44.00033089 -11.5625 49.8125 C-11.81338379 50.65329102 -12.06426758 51.49408203 -12.32275391 52.36035156 C-12.88322023 54.23982213 -13.44186082 56.11983704 -14 58 C-12.02 58.33 -10.04 58.66 -8 59 C-8.33 60.65 -8.66 62.3 -9 64 C-17.91 64 -26.82 64 -36 64 C-36 62.35 -36 60.7 -36 59 C-33.69 58.34 -31.38 57.68 -29 57 C-25.78950883 50.19791234 -23.28060557 43.26718305 -20.9375 36.125 C-20.59912109 35.11308594 -20.26074219 34.10117187 -19.91210938 33.05859375 C-17.71712373 26.42693499 -15.76739219 19.75792111 -14 13 C-16.64 13 -19.28 13 -22 13 C-22 11.68 -22 10.36 -22 9 C-21.02417969 8.51789062 -20.04835938 8.03578125 -19.04296875 7.5390625 C-17.75775951 6.90114842 -16.47260618 6.26312169 -15.1875 5.625 C-14.54490234 5.30789062 -13.90230469 4.99078125 -13.24023438 4.6640625 C-3.48482534 -0.18836894 -3.48482534 -0.18836894 0 0 Z " fill="#000000" transform="translate(36,6)"/>
</svg>
