<?xml version="1.0" encoding="UTF-8"?>
<!-- Generator: visioncortex VTracer 0.6.4 -->
<svg version="1.1" xmlns="http://www.w3.org/2000/svg" width="57" height="70">
<path d="M0 0 C0.70125 0.598125 1.4025 1.19625 2.125 1.8125 C2.888125 2.451875 3.65125 3.09125 4.4375 3.75 C7.15573632 8.68309554 7.00814651 13.32193022 6.125 18.8125 C1.72735367 30.52849363 -9.03846269 36.09745661 -19.25 42.11328125 C-21.95478093 43.54887387 -21.95478093 43.54887387 -22.875 45.8125 C-20.60791675 46.6780047 -18.33724921 47.53009315 -16.0625 48.375 C-15.41990234 48.62185547 -14.77730469 48.86871094 -14.11523438 49.12304688 C-10.05985271 50.66038661 -10.05985271 50.66038661 -5.875 49.8125 C-4.18961399 47.81584686 -4.18961399 47.81584686 -2.875 45.8125 C-1.555 45.8125 -0.235 45.8125 1.125 45.8125 C0.57710135 51.42846119 -1.08107254 56.39440542 -5.4140625 60.14453125 C-9.65541308 62.88494726 -13.87089033 63.77625445 -18.875 62.8125 C-21.23204393 61.88250988 -23.48099951 60.82185206 -25.75390625 59.703125 C-28.53008802 58.53743542 -30.90390328 58.50777213 -33.875 58.8125 C-34.865 59.8025 -35.855 60.7925 -36.875 61.8125 C-38.525 61.8125 -40.175 61.8125 -41.875 61.8125 C-41.49173999 55.93093296 -40.00132964 53.07990903 -36.125 48.6875 C-35.26390625 47.69492187 -34.4028125 46.70234375 -33.515625 45.6796875 C-30.01179486 41.87523288 -26.45421757 38.27090762 -22.5 34.9375 C-13.89116571 27.59639697 -7.97387621 21.20711771 -6.59765625 9.44140625 C-6.51695705 7.3705942 -6.51695705 7.3705942 -6.875 4.8125 C-11.01593698 4.60279441 -11.01593698 4.60279441 -14.875 5.8125 C-14.524375 6.493125 -14.17375 7.17375 -13.8125 7.875 C-12.62222693 11.60452228 -12.9641734 14.02906644 -13.875 17.8125 C-15.4375 19.75 -15.4375 19.75 -16.875 20.8125 C-19.515 20.8125 -22.155 20.8125 -24.875 20.8125 C-27.875 17.8125 -27.875 17.8125 -28.125 14.6875 C-27.82542911 10.04415128 -26.86536619 8.33959858 -23.875 4.8125 C-17.09471909 -1.0238903 -8.65053593 -3.57304745 0 0 Z " fill="#000000" transform="translate(41.875,3.1875)"/>
</svg>
