<?xml version="1.0" encoding="UTF-8"?>
<!-- Generator: visioncortex VTracer 0.6.4 -->
<svg version="1.1" xmlns="http://www.w3.org/2000/svg" width="61" height="77">
<path d="M0 0 C1.09570312 0.00902344 2.19140625 0.01804687 3.3203125 0.02734375 C4.58488281 0.04474609 4.58488281 0.04474609 5.875 0.0625 C6.06900834 5.645629 5.57985206 10.01353225 3.90625 15.40625 C3.7064856 16.06081177 3.50672119 16.71537354 3.30090332 17.38977051 C2.66933386 19.45072681 2.02250872 21.50650289 1.375 23.5625 C0.94038193 24.97103851 0.50677893 26.37989065 0.07421875 27.7890625 C-0.98049449 31.21724096 -2.04893088 34.64095635 -3.125 38.0625 C0.175 38.0625 3.475 38.0625 6.875 38.0625 C6 44.9375 6 44.9375 4.875 46.0625 C1.245 46.0625 -2.385 46.0625 -6.125 46.0625 C-6.785 50.0225 -7.445 53.9825 -8.125 58.0625 C-5.155 58.5575 -5.155 58.5575 -2.125 59.0625 C-2.125 60.7125 -2.125 62.3625 -2.125 64.0625 C-13.015 64.0625 -23.905 64.0625 -35.125 64.0625 C-35.125 62.4125 -35.125 60.7625 -35.125 59.0625 C-30.67 58.5675 -30.67 58.5675 -26.125 58.0625 C-24.145 54.1025 -22.165 50.1425 -20.125 46.0625 C-21.47335938 46.07410156 -22.82171875 46.08570313 -24.2109375 46.09765625 C-25.97395695 46.10703401 -27.7369779 46.11613423 -29.5 46.125 C-30.38945312 46.13337891 -31.27890625 46.14175781 -32.1953125 46.15039062 C-33.47148438 46.15522461 -33.47148438 46.15522461 -34.7734375 46.16015625 C-35.95172119 46.16801147 -35.95172119 46.16801147 -37.15380859 46.17602539 C-39.125 46.0625 -39.125 46.0625 -41.125 45.0625 C-41.43442707 41.96280074 -41.42057997 40.49013128 -39.62109375 37.88671875 C-38.94175781 37.18160156 -38.26242188 36.47648437 -37.5625 35.75 C-36.82386719 34.96367188 -36.08523437 34.17734375 -35.32421875 33.3671875 C-34.59847656 32.60664062 -33.87273438 31.84609375 -33.125 31.0625 C-32.03347321 29.8406035 -30.94977614 28.611656 -29.875 27.375 C-29.31425781 26.73175781 -28.75351562 26.08851562 -28.17578125 25.42578125 C-27.49902344 24.64589844 -26.82226562 23.86601562 -26.125 23.0625 C-25.67044434 22.53962402 -25.21588867 22.01674805 -24.74755859 21.47802734 C-17.38586606 13.05729049 -17.38586606 13.05729049 -10.5 4.25 C-7.0923816 -0.32338258 -5.49223351 -0.05842802 0 0 Z M-11.125 15.0625 C-18.07356165 21.62020506 -24.33988369 28.76239085 -29.125 37.0625 C-28.795 37.3925 -28.465 37.7225 -28.125 38.0625 C-24.495 38.0625 -20.865 38.0625 -17.125 38.0625 C-15.78038414 34.39958093 -14.44780421 30.73328169 -13.125 27.0625 C-12.64546875 25.76119141 -12.64546875 25.76119141 -12.15625 24.43359375 C-11.8778125 23.65113281 -11.599375 22.86867188 -11.3125 22.0625 C-10.93158203 21.010625 -10.93158203 21.010625 -10.54296875 19.9375 C-9.9090805 17.85182015 -9.9090805 17.85182015 -11.125 15.0625 Z " fill="#000000" transform="translate(42.125,5.9375)"/>
</svg>
