<?xml version="1.0" encoding="UTF-8"?>
<!-- Generator: visioncortex VTracer 0.6.4 -->
<svg version="1.1" xmlns="http://www.w3.org/2000/svg" width="65" height="78">
<path d="M0 0 C3.76411846 3.09986226 3.76411846 3.09986226 5.125 5.75 C5.36515592 8.47002684 5.26204628 11.00907443 5.125 13.75 C4.135 14.74 3.145 15.73 2.125 16.75 C-0.845 16.75 -3.815 16.75 -6.875 16.75 C-8.875 14.75 -8.875 14.75 -9 11.5 C-8.8864175 8.09252515 -8.66226636 6.54260369 -6.875 3.75 C-12.90542566 5.68178042 -14.86444085 9.43826633 -17.875 14.75 C-19.00122937 17.06129162 -19.95423028 19.34576795 -20.875 21.75 C-19.1425 21.4096875 -19.1425 21.4096875 -17.375 21.0625 C-12.62853239 20.49124372 -8.98354765 21.29189457 -4.875 23.75 C-0.70116137 27.63456269 1.29965656 31.14941853 1.5625 36.8125 C1.45102325 44.58546977 -1.96681438 48.74972183 -7.21875 54.16796875 C-13.44103886 60.05417719 -19.04121078 64.93109369 -27.875 65 C-29.2094432 64.93688444 -30.54367968 64.86094336 -31.875 64.75 C-37.8774438 57.89006423 -40.60866963 51.66332869 -40.4375 42.5625 C-40.42654297 41.73242432 -40.41558594 40.90234863 -40.40429688 40.04711914 C-39.97451455 27.7063971 -35.12694001 18.72912246 -26.875 9.75 C-26.28460938 9.0796875 -25.69421875 8.409375 -25.0859375 7.71875 C-18.35449003 0.46477008 -9.78643115 -4.25497007 0 0 Z M-16.875 25.75 C-23.39993572 30.53284123 -26.57702492 34.99920271 -28.875 42.75 C-29.0709375 43.40097656 -29.266875 44.05195312 -29.46875 44.72265625 C-29.96270938 47.18770354 -29.97055349 49.48793493 -29.9375 52 C-29.92847656 52.89203125 -29.91945313 53.7840625 -29.91015625 54.703125 C-30.10411894 57.2157404 -30.10411894 57.2157404 -26.875 59.75 C-21.39853108 58.0766345 -19.2360631 55.30714885 -16.5859375 50.328125 C-11.51190479 39.8671928 -11.51190479 39.8671928 -11.75 28.625 C-12.875 26.2491327 -12.875 26.2491327 -16.875 25.75 Z " fill="#000000" transform="translate(43.875,5.25)"/>
</svg>
