<?xml version="1.0" encoding="UTF-8"?>
<!-- Generator: visioncortex VTracer 0.6.4 -->
<svg version="1.1" xmlns="http://www.w3.org/2000/svg" width="52" height="71">
<path d="M0 0 C1.20849609 0.00644531 2.41699219 0.01289062 3.66210938 0.01953125 C5.55606445 0.04466797 5.55606445 0.04466797 7.48828125 0.0703125 C8.76251953 0.07933594 10.03675781 0.08835937 11.34960938 0.09765625 C14.50018752 0.12125609 17.65039108 0.15418056 20.80078125 0.1953125 C20.17967959 4.52359178 19.72854678 6.72737549 16.67578125 9.8828125 C11.36046898 16.32230785 9.17477537 24.1703917 6.55566406 31.97753906 C5.92118672 33.84157275 5.23765951 35.68880928 4.54296875 37.53125 C1.55874951 45.59969461 0.62156454 53.68508577 -0.19921875 62.1953125 C-3.37412815 64.1031709 -5.30507086 64.3562166 -8.94921875 63.8203125 C-9.7484375 63.70945313 -10.54765625 63.59859375 -11.37109375 63.484375 C-12.27601562 63.34128906 -12.27601562 63.34128906 -13.19921875 63.1953125 C-16.15977694 58.75447522 -15.13971083 55.292636 -14.19921875 50.1953125 C-11.7975137 39.586342 -5.16898645 30.42378143 0.49267578 21.30566406 C1.95294462 18.94982909 3.38414153 16.57762012 4.80078125 14.1953125 C0.39163342 13.09302554 -3.68304276 13.11876714 -8.19921875 13.1953125 C-8.85921875 13.8553125 -9.51921875 14.5153125 -10.19921875 15.1953125 C-11.51921875 15.1953125 -12.83921875 15.1953125 -14.19921875 15.1953125 C-14.93250753 10.5022643 -13.00964839 7.77145274 -10.5859375 3.96484375 C-7.46591875 -0.01647595 -4.75584062 -0.04465578 0 0 Z " fill="#000000" transform="translate(21.19921875,4.8046875)"/>
</svg>
