<?xml version="1.0" encoding="UTF-8"?>
<!-- Generator: visioncortex VTracer 0.6.4 -->
<svg version="1.1" xmlns="http://www.w3.org/2000/svg" width="65" height="74">
<path d="M0 0 C2.94303386 3.41771674 3.54786602 6.49565187 3.34375 11.01171875 C2.74763432 14.45970603 1.29631369 16.40928712 -1 19 C-3.27384284 20.56783168 -5.51744623 21.75872312 -8 23 C-7.175 23.7425 -6.35 24.485 -5.5 25.25 C-2.21616422 29.19808747 -2.35649518 33.05914197 -2.578125 38.02734375 C-3.69966649 45.93005738 -7.92445527 50.80214749 -14.0859375 55.63671875 C-20.03311142 59.76509676 -24.83701755 60.65405346 -32.01953125 60.6015625 C-36.65679948 59.66560011 -39.09487563 56.92958719 -42.3125 53.625 C-45.21103994 47.3985068 -45.38916182 40.05865711 -43.15234375 33.5234375 C-40.58993605 29.0240233 -37.00314615 26.12452452 -32.76953125 23.2265625 C-30.86631024 21.98519087 -30.86631024 21.98519087 -29 20 C-29.495 19.34 -29.99 18.68 -30.5 18 C-32.37406482 14.25187036 -32.70600761 11.07558939 -32 7 C-29.51892118 1.9385992 -25.94882094 -1.40577597 -21 -4 C-12.97896663 -6.00525834 -6.65918373 -4.61020412 0 0 Z M-14 0 C-18.25132164 5.95185029 -20.35111355 10.62661543 -20 18 C-18.35 18.33 -16.7 18.66 -15 19 C-9.49381411 12.92907709 -8.83785995 9.26914256 -9 1 C-10.65 0.67 -12.3 0.34 -14 0 Z M-23 25 C-26.2807312 29.48389915 -28.12471427 33.62603853 -29.6875 38.9375 C-29.89955078 39.61490234 -30.11160156 40.29230469 -30.33007812 40.99023438 C-31.64472769 45.31572174 -32.46741265 49.51104949 -33 54 C-32.34 54.66 -31.68 55.32 -31 56 C-25.05783536 55.68727688 -25.05783536 55.68727688 -22.75 52.25 C-17.77165053 45.27748213 -15.47125612 36.4826102 -15 28 C-15.33 27.34 -15.66 26.68 -16 26 C-18.31 25.67 -20.62 25.34 -23 25 Z " fill="#000000" transform="translate(48,7)"/>
</svg>
