<?xml version="1.0" encoding="UTF-8"?>
<!-- Generator: visioncortex VTracer 0.6.4 -->
<svg version="1.1" xmlns="http://www.w3.org/2000/svg" width="63" height="71">
<path d="M0 0 C-0.34882186 5.69742377 -1.77397908 9.96762424 -6 14 C-9.70984633 15.52353318 -13.80281059 15.11100044 -17.75 15.0625 C-18.44738281 15.05798828 -19.14476563 15.05347656 -19.86328125 15.04882812 C-21.57555803 15.0371002 -23.28779033 15.01916653 -25 15 C-25.99 17.97 -26.98 20.94 -28 24 C-26.68 24.061875 -25.36 24.12375 -24 24.1875 C-18.78216423 24.78829182 -14.89850549 26.44924852 -11 30 C-8.2051532 34.71630398 -7.26354588 38.5686509 -8 44 C-11.57927097 53.84697213 -17.68772629 60.66156519 -27.15625 65.1328125 C-32.36662552 66.72169075 -37.61694285 66.37968271 -43 66 C-46.58477452 63.15056384 -48.34712095 60.99510978 -49 56.5 C-49.23461759 52.4645774 -48.68984361 50.15360975 -46 47 C-43.8125 45.1875 -43.8125 45.1875 -42 44 C-39.69 44.33 -37.38 44.66 -35 45 C-32.76448241 48.35327639 -32.82716472 48.90743657 -33.375 52.6875 C-33.54128906 53.89986328 -33.54128906 53.89986328 -33.7109375 55.13671875 C-33.85402344 56.05904297 -33.85402344 56.05904297 -34 57 C-35.65 57.99 -37.3 58.98 -39 60 C-35.65747276 60.07427838 -33.1964086 60.06546953 -30 59 C-29.7525 58.34 -29.505 57.68 -29.25 57 C-28.25781835 54.61876404 -27.18953354 52.4064188 -26 50.125 C-22.84479323 43.82640371 -21.56449258 39.03398636 -23 32 C-25.35367713 31.3121764 -25.35367713 31.3121764 -28 31 C-28.99 31.66 -29.98 32.32 -31 33 C-33.6875 33.125 -33.6875 33.125 -36 33 C-36.33303141 27.31626392 -35.31242294 23.24449065 -33.1875 18 C-32.92646484 17.32710937 -32.66542969 16.65421875 -32.39648438 15.9609375 C-30.69160145 11.59980488 -28.86262047 7.29577333 -27 3 C-26.40985107 2.98018066 -25.81970215 2.96036133 -25.21166992 2.93994141 C-22.53649904 2.84465341 -19.86210502 2.73499061 -17.1875 2.625 C-16.25873047 2.5940625 -15.32996094 2.563125 -14.37304688 2.53125 C-13.48037109 2.49257813 -12.58769531 2.45390625 -11.66796875 2.4140625 C-10.84578857 2.3826416 -10.0236084 2.3512207 -9.17651367 2.31884766 C-5.362698 1.76014398 -4.2106829 0 0 0 Z " fill="#000000" transform="translate(50,0)"/>
</svg>
