<?xml version="1.0" encoding="UTF-8"?>
<!-- Generator: visioncortex VTracer 0.6.4 -->
<svg version="1.1" xmlns="http://www.w3.org/2000/svg" width="63" height="73">
<path d="M0 0 C3.69655654 3.5966496 5.11688594 6.94216494 6 12 C6 28.92777648 -0.69278833 41.47197578 -12.28515625 53.34765625 C-18.16977928 59.09680594 -21.72446682 61.25555247 -30.125 61.625 C-34.37238207 61.47932344 -37.45883331 61.3534068 -40.8125 58.625 C-43.63289007 55.24053192 -44.19014241 53.91444778 -43.8125 49.625 C-43.41601749 46.58040593 -43.07625398 45.11731381 -41.375 42.5 C-38.28950409 40.55126574 -35.60351091 40.27719315 -32 40 C-30.68 40.99 -29.36 41.98 -28 43 C-27.63076923 49.4 -27.63076923 49.4 -29.5 52.4375 C-29.995 52.953125 -30.49 53.46875 -31 54 C-31.66 54 -32.32 54 -33 54 C-33 54.66 -33 55.32 -33 56 C-26.56252504 54.62667201 -22.96057124 52.7252727 -19.28515625 47.20703125 C-17.34326847 43.87217838 -15.62551495 40.50110913 -14 37 C-14.94359375 37.10441406 -14.94359375 37.10441406 -15.90625 37.2109375 C-22.106087 37.60309586 -25.47560544 36.70551293 -30.30859375 32.80078125 C-35.07672261 27.72432074 -35.48367173 23.618239 -35.27734375 16.8671875 C-34.67865065 10.67788137 -31.45481428 6.77016612 -27.0859375 2.61328125 C-18.817215 -3.78181686 -9.22901608 -5.14695128 0 0 Z M-10 1 C-15.68276272 3.84138136 -17.97669024 7.31892842 -20.171875 13.0703125 C-23.23199839 22.03837798 -23.23199839 22.03837798 -21 31 C-17.9968485 30.92849639 -15.77895678 30.60896861 -13.37109375 28.7265625 C-8.0226885 23.01623509 -5.85369985 16.13430417 -5.8125 8.375 C-5.65393674 4.45700345 -5.65393674 4.45700345 -10 1 Z " fill="#000000" transform="translate(48,6)"/>
</svg>
