<?xml version="1.0" encoding="UTF-8"?>
<!-- Generator: visioncortex VTracer 0.6.4 -->
<svg version="1.1" xmlns="http://www.w3.org/2000/svg" width="57" height="69">
<path d="M0 0 C3.57466048 3.13872628 5.19099429 4.93734651 6.5 9.5625 C6.57694598 14.10231298 5.53390983 16.91287819 2.5625 20.25 C-0.3070642 22.4884573 -3.29570123 24.41728405 -6.4375 26.25 C-6.004375 26.61609375 -5.57125 26.9821875 -5.125 27.359375 C-1.33418344 31.0448911 0.06927818 33.85688836 0.3125 39.1875 C-0.0399247 45.46849133 -1.95346914 48.95125967 -6.4375 53.25 C-7.10265625 53.889375 -7.7678125 54.52875 -8.453125 55.1875 C-14.9338687 60.78238664 -21.75550149 63.25 -30.3125 63.25 C-34.14649751 62.0231208 -35.88895699 60.32324304 -38.4375 57.25 C-40.03203633 54.06092735 -39.82311702 50.72055318 -39.4375 47.25 C-37.29861111 42.68055556 -37.29861111 42.68055556 -34.4375 41.25 C-32.89726004 41.18049459 -31.35415012 41.16547643 -29.8125 41.1875 C-28.58660156 41.20103516 -28.58660156 41.20103516 -27.3359375 41.21484375 C-25.4375 41.25 -25.4375 41.25 -22.4375 44.25 C-22.12980769 51.01923077 -22.12980769 51.01923077 -24.4375 54.25 C-26.5625 55.5 -26.5625 55.5 -28.4375 56.25 C-27.1175 56.58 -25.7975 56.91 -24.4375 57.25 C-18.38890663 52.20950552 -15.784475 45.51378429 -14.5625 37.8125 C-14.08687195 34.14377824 -14.08687195 34.14377824 -16.4375 31.25 C-19.9025 30.755 -19.9025 30.755 -23.4375 30.25 C-23.4375 28.6 -23.4375 26.95 -23.4375 25.25 C-22.76203125 25.10304688 -22.0865625 24.95609375 -21.390625 24.8046875 C-17.02722997 23.70753326 -14.12915319 22.95894452 -10.9375 19.6875 C-9.03649587 15.33103221 -7.87248316 10.99216935 -7.4375 6.25 C-7.7675 5.59 -8.0975 4.93 -8.4375 4.25 C-10.0875 4.58 -11.7375 4.91 -13.4375 5.25 C-13.1075 5.91 -12.7775 6.57 -12.4375 7.25 C-12.39727609 9.5829866 -12.39429753 11.91706666 -12.4375 14.25 C-13.7575 15.57 -15.0775 16.89 -16.4375 18.25 C-19.0775 17.92 -21.7175 17.59 -24.4375 17.25 C-26.9290904 13.5126144 -26.89543285 11.67668417 -26.4375 7.25 C-24.0239396 2.73769143 -20.54600566 0.83899734 -15.94140625 -1.01953125 C-10.19887162 -2.69481046 -5.35216895 -2.72474056 0 0 Z " fill="#000000" transform="translate(41.4375,2.75)"/>
</svg>
