<?xml version="1.0" encoding="UTF-8"?>
<!-- Generator: visioncortex VTracer 0.6.4 -->
<svg version="1.1" xmlns="http://www.w3.org/2000/svg" width="54" height="85">
<path d="M0 0 C5.88936712 6.36688337 8.66648595 12.44763275 8.34375 21.2421875 C6.36767475 37.09570032 -2.09917874 51.29987476 -13.96484375 61.7265625 C-19.35072561 65.66960075 -24.51393566 65.53653106 -31 65 C-37.22185907 58.15595502 -37.69981941 50.19424784 -37.4453125 41.27734375 C-36.69548946 30.90007578 -31.2341093 21.10091676 -25 13 C-24.236875 11.96875 -23.47375 10.9375 -22.6875 9.875 C-15.54344656 2.23252422 -10.74070772 -1.26479362 0 0 Z M-9 5 C-16.36256557 15.5246931 -19.70747205 27.87618653 -23.375 40.0625 C-23.73303711 41.24030029 -24.09107422 42.41810059 -24.45996094 43.6315918 C-24.7902832 44.75476807 -25.12060547 45.87794434 -25.4609375 47.03515625 C-25.75790527 48.0394165 -26.05487305 49.04367676 -26.36083984 50.07836914 C-27.03031862 53.13858783 -27.11433179 55.8773493 -27 59 C-25.35 59.33 -23.7 59.66 -22 60 C-16.48928114 52.93014612 -13.10506918 46.02979 -10.25 37.5625 C-9.69119141 35.97985352 -9.69119141 35.97985352 -9.12109375 34.36523438 C-3.87918672 20.47494594 -3.87918672 20.47494594 -4 6 C-5.65 5.67 -7.3 5.34 -9 5 Z " fill="#000000" transform="translate(40,5)"/>
</svg>
