<?xml version="1.0" encoding="UTF-8"?>
<!-- Generator: visioncortex VTracer 0.6.4 -->
<svg version="1.1" xmlns="http://www.w3.org/2000/svg" width="42" height="68">
<path d="M0 0 C5.61756932 1.9256982 9.94249464 5.98639612 13 11 C18.47613963 23.22382872 18.76267016 36.42490893 14.40625 49.04296875 C11.60479492 54.93380624 7.24350225 60.59773818 1 63 C-3.85094817 63.77192643 -8.50447206 63.80091182 -12.75 61.125 C-19.64640492 55.36984412 -23.34101613 46.73178588 -24.20288086 37.92749023 C-24.78227998 25.64162806 -23.99360209 15.62137538 -15.75 5.91796875 C-10.76686601 0.45654288 -7.36297986 -1.22927547 0 0 Z M-6 5 C-8.2477975 7.05233685 -9.0022242 8.00667261 -10 11 C-10.10859607 13.46923728 -10.16402502 15.90933099 -10.16796875 18.37890625 C-10.17129715 19.1056102 -10.17462555 19.83231415 -10.17805481 20.58103943 C-10.18311713 22.12180958 -10.18546335 23.66259068 -10.18530273 25.20336914 C-10.18746941 27.52965134 -10.20557663 29.85544357 -10.22460938 32.18164062 C-11.01608911 45.26025862 -11.01608911 45.26025862 -6.42651367 56.75610352 C-4.68736065 58.54768 -4.68736065 58.54768 0 58 C3.98944641 53.08826222 3.59950768 47.65960238 3.75 41.625 C3.78311279 40.55314453 3.81622559 39.48128906 3.8503418 38.37695312 C4.68318584 21.49152643 4.68318584 21.49152643 -1 6 C-2.65 5.67 -4.3 5.34 -6 5 Z " fill="#000000" transform="translate(24,3)"/>
</svg>
