<?xml version="1.0" encoding="UTF-8"?>
<!-- Generator: visioncortex VTracer 0.6.4 -->
<svg version="1.1" xmlns="http://www.w3.org/2000/svg" width="40" height="73">
<path d="M0 0 C0.02505615 1.08716309 0.0501123 2.17432617 0.07592773 3.29443359 C0.17181281 7.42097053 0.27155128 11.54740767 0.37231445 15.67382812 C0.4149932 17.44235868 0.45669748 19.21091308 0.49731445 20.97949219 C0.77431782 33.00349002 1.25645333 44.9955986 2 57 C3.98 57.33 5.96 57.66 8 58 C8 59.65 8 61.3 8 63 C-1.24 63 -10.48 63 -20 63 C-19.67 61.35 -19.34 59.7 -19 58 C-16.525 57.505 -16.525 57.505 -14 57 C-12.84589746 54.69179492 -12.8789703 53.39215724 -12.88647461 50.82568359 C-12.88655014 49.96494232 -12.88662567 49.10420105 -12.88670349 48.21737671 C-12.89186478 47.28712677 -12.89702606 46.35687683 -12.90234375 45.3984375 C-12.90446617 43.97103745 -12.90446617 43.97103745 -12.90663147 42.51480103 C-12.91223988 39.46816903 -12.92479381 36.42160987 -12.9375 33.375 C-12.94251392 31.31250106 -12.94707701 29.25000097 -12.95117188 27.1875 C-12.96221204 22.12497183 -12.97948233 17.06249827 -13 12 C-13.76699219 12.32742187 -14.53398437 12.65484375 -15.32421875 12.9921875 C-18.09718753 14.03660494 -20.06773447 14.16755803 -23 14 C-23 12.35 -23 10.7 -23 9 C-22.02160156 8.52820313 -22.02160156 8.52820313 -21.0234375 8.046875 C-17.07166756 6.11179002 -13.38370412 4.27837358 -9.8125 1.6875 C-6.32144681 -0.40713191 -4.00407614 -0.12703884 0 0 Z " fill="#000000" transform="translate(31,7)"/>
</svg>
