<?xml version="1.0" encoding="UTF-8"?>
<!-- Generator: visioncortex VTracer 0.6.4 -->
<svg version="1.1" xmlns="http://www.w3.org/2000/svg" width="50" height="68">
<path d="M0 0 C3.71351979 2.76133523 5.9706485 5.4119455 7.4375 9.8125 C8.4379833 17.60197713 6.89541896 23.38758174 2.4375 29.8125 C-7.91731864 42.64648317 -7.91731864 42.64648317 -13.5625 44.8125 C-13.5625 45.4725 -13.5625 46.1325 -13.5625 46.8125 C-12.63630859 46.76029297 -12.63630859 46.76029297 -11.69140625 46.70703125 C-5.37705703 46.50520274 -0.40801745 47.44040596 5.4375 49.8125 C6.18 49.3175 6.9225 48.8225 7.6875 48.3125 C10.4375 46.8125 10.4375 46.8125 14.4375 46.8125 C14.93394634 49.54295487 14.80167913 51.25213009 13.27734375 53.59765625 C9.98116107 57.56824971 6.82833794 61.26226261 1.51171875 62.125 C-5.06004676 62.49852841 -10.57481733 60.31949237 -16.5625 57.8125 C-19.03050047 58.96423355 -20.61033565 59.86033565 -22.5625 61.8125 C-24.2125 61.8125 -25.8625 61.8125 -27.5625 61.8125 C-27.86588844 57.22869634 -27.45405953 54.91537264 -24.6875 51.25 C-24.05585938 50.39535156 -23.42421875 49.54070313 -22.7734375 48.66015625 C-21.18616098 46.61576652 -19.58847426 44.58331218 -17.9765625 42.55859375 C-10.78513593 33.49389212 -6.20602319 25.83086109 -6.5625 13.8125 C-7.27569249 10.66900188 -8.27272788 7.76367348 -9.5625 4.8125 C-11.5425 4.8125 -13.5225 4.8125 -15.5625 4.8125 C-17.2125 6.4625 -18.8625 8.1125 -20.5625 9.8125 C-19.77875 9.93625 -18.995 10.06 -18.1875 10.1875 C-15.5625 10.8125 -15.5625 10.8125 -13.5625 12.8125 C-13.4375 16.4375 -13.4375 16.4375 -13.5625 19.8125 C-14.8825 21.1325 -16.2025 22.4525 -17.5625 23.8125 C-25.5625 23.8125 -25.5625 23.8125 -27.0625 22.375 C-29.2939372 18.56296145 -29.10387715 15.12847891 -28.5625 10.8125 C-26.73715409 5.53927847 -23.95530797 3.01558914 -19.5625 -0.1875 C-13.40955161 -2.2384828 -6.11765143 -2.03921714 0 0 Z " fill="#000000" transform="translate(34.5625,4.1875)"/>
<path d="M0 0 C0.33 0 0.66 0 1 0 C1 2.64 1 5.28 1 8 C0.67 8 0.34 8 0 8 C0 5.36 0 2.72 0 0 Z " fill="#000000" transform="translate(49,56)"/>
</svg>
