<?xml version="1.0" encoding="UTF-8"?>
<!-- Generator: visioncortex VTracer 0.6.4 -->
<svg version="1.1" xmlns="http://www.w3.org/2000/svg" width="44" height="67">
<path d="M0 0 C4.69742531 2.53645641 8.65248751 4.75433752 10.39453125 9.98046875 C11.09455275 17.40069668 8.14419469 20.8815192 3.64453125 26.35546875 C2.90203125 27.22171875 2.15953125 28.08796875 1.39453125 28.98046875 C2.72484375 29.28984375 2.72484375 29.28984375 4.08203125 29.60546875 C8.27553174 31.34616707 9.90270425 33.20713073 12.39453125 36.98046875 C13.90820926 41.99452715 13.39736813 45.95277419 11.60546875 50.76953125 C9.39129408 54.81218565 6.09953277 57.3411916 2.39453125 59.98046875 C1.50765625 60.61984375 0.62078125 61.25921875 -0.29296875 61.91796875 C-6.83262263 64.01559358 -13.88527507 64.22125885 -20.16796875 61.35546875 C-24.01562538 57.60646998 -26.40581176 54.87721019 -26.98046875 49.41796875 C-26.62146412 46.12709294 -26.24393714 43.84778843 -24.60546875 40.98046875 C-21.43496767 38.60259294 -18.46459861 38.80505376 -14.60546875 38.98046875 C-12.89706594 40.61459318 -11.67093828 41.84952969 -10.60546875 43.98046875 C-10.56524484 46.31345535 -10.56226628 48.64753541 -10.60546875 50.98046875 C-13.08046875 53.45546875 -13.08046875 53.45546875 -15.60546875 55.98046875 C-12.64882356 57.45879135 -9.86317138 57.04079658 -6.60546875 56.98046875 C-3.34995246 54.14958502 -2.76532359 51.84339245 -2.40234375 47.61328125 C-2.30307419 42.30235985 -2.53290351 38.53241726 -5.60546875 33.98046875 C-8.7930924 31.85538631 -10.87059098 31.47845245 -14.60546875 30.98046875 C-14.60546875 29.33046875 -14.60546875 27.68046875 -14.60546875 25.98046875 C-11.63546875 25.32046875 -8.66546875 24.66046875 -5.60546875 23.98046875 C-3.64911644 20.06776412 -4.23580285 15.25627095 -4.60546875 10.98046875 C-5.89809244 7.89050042 -5.89809244 7.89050042 -7.60546875 5.98046875 C-9.91546875 5.98046875 -12.22546875 5.98046875 -14.60546875 5.98046875 C-14.11046875 6.84671875 -13.61546875 7.71296875 -13.10546875 8.60546875 C-11.52242667 12.16731343 -11.10491185 14.14286584 -11.60546875 17.98046875 C-13.10546875 20.35546875 -13.10546875 20.35546875 -14.60546875 21.98046875 C-17.24546875 21.98046875 -19.88546875 21.98046875 -22.60546875 21.98046875 C-25.99962084 18.58631666 -25.71033883 18.73361576 -25.98046875 14.41796875 C-25.98046875 10.40321708 -25.54952851 8.16062982 -22.98046875 5.04296875 C-16.58897031 -1.24472345 -8.54449872 -3.3434995 0 0 Z " fill="#000000" transform="translate(29.60546875,1.01953125)"/>
</svg>
