<?xml version="1.0" encoding="UTF-8"?>
<!-- Generator: visioncortex VTracer 0.6.4 -->
<svg version="1.1" xmlns="http://www.w3.org/2000/svg" width="46" height="67">
<path d="M0 0 C3.63 0 7.26 0 11 0 C12.52375793 3.04751586 12.21902264 6.2503275 12.28125 9.59765625 C12.30886414 10.72185219 12.30886414 10.72185219 12.33703613 11.86875916 C12.41584103 15.081711 12.48360069 18.2948742 12.55224609 21.50805664 C12.60385395 23.85053256 12.66114063 26.19282152 12.71875 28.53515625 C12.73232544 29.26742935 12.74590088 29.99970245 12.7598877 30.75416565 C12.54712387 34.16685811 12.54712387 34.16685811 14 37 C15.155 37.165 16.31 37.33 17.5 37.5 C21 38 21 38 22 39 C22.04080783 40.99958364 22.04254356 43.00045254 22 45 C19.36 45.99 16.72 46.98 14 48 C14.495 51.465 14.495 51.465 15 55 C16.98 55.99 18.96 56.98 21 58 C21 59.32 21 60.64 21 62 C18.33821779 63.3308911 16.31260604 63.11268993 13.3359375 63.09765625 C12.21445312 63.09443359 11.09296875 63.09121094 9.9375 63.08789062 C8.761875 63.07951172 7.58625 63.07113281 6.375 63.0625 C5.19164063 63.05798828 4.00828125 63.05347656 2.7890625 63.04882812 C-0.14067507 63.03701467 -3.07031272 63.02054258 -6 63 C-5.67 61.35 -5.34 59.7 -5 58 C-3.68 57.34 -2.36 56.68 -1 56 C-0.67 53.03 -0.34 50.06 0 47 C-6.6 47.33 -13.2 47.66 -20 48 C-20.66 47.34 -21.32 46.68 -22 46 C-21.4969104 40.68356662 -20.13538328 36.60540011 -17.625 31.875 C-17.28065918 31.20774902 -16.93631836 30.54049805 -16.58154297 29.85302734 C-15.81946533 28.38070271 -15.05245156 26.91092549 -14.28125 25.44335938 C-12.87183048 22.75557917 -11.48233251 20.05797549 -10.09375 17.359375 C-9.10494554 15.44751364 -8.11536997 13.53605088 -7.125 11.625 C-6.64885254 10.70315918 -6.17270508 9.78131836 -5.68212891 8.83154297 C-5.23272949 7.97189941 -4.78333008 7.11225586 -4.3203125 6.2265625 C-3.92086426 5.45908691 -3.52141602 4.69161133 -3.10986328 3.90087891 C-2 2 -2 2 0 0 Z M-1 14 C-2.84335203 17.43221809 -4.67292909 20.87159127 -6.5 24.3125 C-7.02464844 25.28896484 -7.54929687 26.26542969 -8.08984375 27.27148438 C-8.58613281 28.20927734 -9.08242187 29.14707031 -9.59375 30.11328125 C-10.05458984 30.97735596 -10.51542969 31.84143066 -10.99023438 32.73168945 C-12.20334289 35.04296514 -12.20334289 35.04296514 -12 38 C-8.37 38 -4.74 38 -1 38 C-0.67 37.67 -0.34 37.34 0 37 C0 29.41 0 21.82 0 14 C-0.33 14 -0.66 14 -1 14 Z " fill="#000000" transform="translate(24,2)"/>
</svg>
