<?xml version="1.0" encoding="UTF-8"?>
<!-- Generator: visioncortex VTracer 0.6.4 -->
<svg version="1.1" xmlns="http://www.w3.org/2000/svg" width="45" height="68">
<path d="M0 0 C2.68406987 1.81776318 4.54442477 3.08884954 6 6 C6.13415472 8.6723621 6.04318541 11.32250488 6 14 C4.68 15.32 3.36 16.64 2 18 C0.02 18 -1.96 18 -4 18 C-5.32 16.35 -6.64 14.7 -8 13 C-7.67 10.69 -7.34 8.38 -7 6 C-8.65 6.33 -10.3 6.66 -12 7 C-13.69832609 12.83799592 -14.25287193 17.93107371 -14 24 C-12.845 23.484375 -11.69 22.96875 -10.5 22.4375 C-4.74582121 20.29239094 -0.49890623 21.03888222 5.25 23.25 C8.85383207 25.54334768 11.09467105 28.18934209 13 32 C13.83336972 42.28733441 12.86886028 49.9535146 6.75 58.3125 C2.22006742 62.73947956 -2.22545332 65.17679057 -8.625 65.5 C-13.90309221 65.2102934 -16.94983108 63.18376389 -20.55859375 59.33984375 C-27.57339784 50.82061783 -29.70225722 41.76650262 -29.390625 30.859375 C-28.21603748 19.25445031 -24.54453455 9.04398042 -15.484375 1.36328125 C-10.68675602 -1.26937445 -5.26151914 -1.09811475 0 0 Z M-8 27 C-8.98475214 28.09918816 -9.96260473 29.2045602 -10.9375 30.3125 C-11.48277344 30.92738281 -12.02804688 31.54226562 -12.58984375 32.17578125 C-16.09508114 36.71025733 -15.42301259 42.56020652 -15 48 C-13.94809146 52.44703402 -12.39497643 55.88080597 -9 59 C-5.95153135 58.67043582 -4.41570354 58.4305501 -2.25 56.1875 C0.25925482 51.79630406 0.16251761 47.63147046 0.1875 42.625 C0.20876953 40.69527344 0.20876953 40.69527344 0.23046875 38.7265625 C0.00714141 35.11547289 -0.68706968 32.35238333 -2 29 C-3.98 28.34 -5.96 27.68 -8 27 Z " fill="#000000" transform="translate(32,1)"/>
</svg>
