<?xml version="1.0" encoding="UTF-8"?>
<!-- Generator: visioncortex VTracer 0.6.4 -->
<svg version="1.1" xmlns="http://www.w3.org/2000/svg" width="40" height="68">
<path d="M0 0 C1.21171875 0.00322266 2.4234375 0.00644531 3.671875 0.00976562 C4.94289063 0.01814453 6.21390625 0.02652344 7.5234375 0.03515625 C8.8021875 0.03966797 10.0809375 0.04417969 11.3984375 0.04882812 C14.56515042 0.06064422 17.73177106 0.0771181 20.8984375 0.09765625 C22.09786937 4.9300907 21.3481035 6.91257919 19.0234375 11.34765625 C16.36137207 16.85049058 14.9474745 21.02687549 14.8984375 27.09765625 C14.86105469 28.13277344 14.82367187 29.16789062 14.78515625 30.234375 C14.62140138 37.93085397 15.2955784 45.2373856 16.4609375 52.8203125 C16.83699325 55.63737301 16.98417501 58.26295977 16.8984375 61.09765625 C16.2384375 61.75765625 15.5784375 62.41765625 14.8984375 63.09765625 C10.9384375 63.09765625 6.9784375 63.09765625 2.8984375 63.09765625 C-0.13256333 60.06665542 0.72003455 55.98084161 0.70068359 51.84204102 C0.83083386 38.54791402 4.72950073 27.15850872 9.8984375 15.09765625 C4.2884375 14.76765625 -1.3215625 14.43765625 -7.1015625 14.09765625 C-7.1015625 14.75765625 -7.1015625 15.41765625 -7.1015625 16.09765625 C-9.0815625 16.09765625 -11.0615625 16.09765625 -13.1015625 16.09765625 C-12.63188131 10.46148192 -11.19483937 5.88348084 -8.1015625 1.09765625 C-5.33538687 -0.28543156 -3.0913825 -0.01444571 0 0 Z " fill="#000000" transform="translate(16.1015625,1.90234375)"/>
</svg>
