<?xml version="1.0" encoding="UTF-8"?>
<!-- Generator: visioncortex VTracer 0.6.4 -->
<svg version="1.1" xmlns="http://www.w3.org/2000/svg" width="46" height="68">
<path d="M0 0 C5.91266609 3.48487196 10.16119423 9.61413831 11.98828125 16.171875 C12.48291625 20.07435956 12.55993199 23.92852347 12.55078125 27.859375 C12.54836426 28.92921631 12.54594727 29.99905762 12.54345703 31.10131836 C12.34758803 39.50000177 11.12640406 45.33665013 5.98828125 52.171875 C5.21677734 53.23921875 5.21677734 53.23921875 4.4296875 54.328125 C1.07332013 58.58242961 -2.35081868 61.8065832 -7.9140625 62.5703125 C-14.76055844 62.51744381 -19.60372392 62.23907035 -24.88671875 57.484375 C-26.58629921 53.99079295 -26.20466383 51.03077658 -26.01171875 47.171875 C-22.94323405 44.19637469 -21.54935544 43.20712987 -17.19921875 42.921875 C-14.01171875 43.171875 -14.01171875 43.171875 -12.51171875 44.796875 C-10.60908062 47.80938537 -10.71319186 49.664184 -11.01171875 53.171875 C-11.34171875 54.161875 -11.67171875 55.151875 -12.01171875 56.171875 C-10.03171875 56.171875 -8.05171875 56.171875 -6.01171875 56.171875 C-4.2069577 52.91545832 -3.2722307 49.71850705 -2.38671875 46.109375 C-1.99613281 44.54509766 -1.99613281 44.54509766 -1.59765625 42.94921875 C-0.90850545 40.15572373 -0.90850545 40.15572373 -1.01171875 37.171875 C-2.52765625 37.666875 -2.52765625 37.666875 -4.07421875 38.171875 C-10.3965263 39.92383974 -15.3196129 39.65468558 -21.08203125 36.515625 C-25.25577751 33.6092106 -28.40292523 29.99825555 -30.01171875 25.171875 C-30.8944146 16.78626443 -27.58377882 11.25169442 -23.19921875 4.296875 C-16.50798091 -2.20318462 -8.62792098 -3.55168786 0 0 Z M-11.01171875 3.171875 C-15.02790903 6.94593922 -15.02790903 6.94593922 -16.21484375 12.1484375 C-16.3630289 22.05196049 -16.3630289 22.05196049 -13.01171875 31.171875 C-10.49982734 33.20095508 -10.49982734 33.20095508 -8.01171875 34.171875 C-4.93335262 33.21651999 -4.01050549 32.16996844 -2.26171875 29.421875 C-0.07490597 23.72654942 -0.29167379 17.14401257 -1.01171875 11.171875 C-2.43232015 8.32273587 -3.76582814 6.41776561 -6.01171875 4.171875 C-8.58233186 3.52419707 -8.58233186 3.52419707 -11.01171875 3.171875 Z " fill="#000000" transform="translate(34.01171875,3.828125)"/>
</svg>
