<?xml version="1.0" encoding="UTF-8"?>
<!-- Generator: visioncortex VTracer 0.6.4 -->
<svg version="1.1" xmlns="http://www.w3.org/2000/svg" width="41" height="70">
<path d="M0 0 C3.42772907 2.61269127 5.62613367 5.19345505 6.51171875 9.47265625 C6.76151653 15.18355037 5.6569461 18.48259599 2 23 C1.30570621 24.3191582 0.62469505 25.64649406 0 27 C1.093125 27.556875 2.18625 28.11375 3.3125 28.6875 C6.81140782 30.46996247 8.32595387 32.44517313 10 36 C11.07536083 43.65346897 10.65963373 49.78715503 6 56 C5.38125 56.9075 4.7625 57.815 4.125 58.75 C-0.25971811 63.39264271 -4.19945757 64.22288845 -10.4375 64.4375 C-16.06310703 64.27786302 -19.74349379 63.71515505 -24 60 C-24.65097656 59.48695312 -25.30195313 58.97390625 -25.97265625 58.4453125 C-29.29371607 55.36854535 -30.81473969 53.09654078 -31.578125 48.578125 C-31.73294303 43.33642884 -31.56487703 39.23838426 -29.375 34.4375 C-26.71408091 31.70655672 -24.01718346 29.33145995 -21 27 C-21.5053125 26.56171875 -22.010625 26.1234375 -22.53125 25.671875 C-26.58405377 21.71556656 -28.56845641 18.75134157 -28.875 13 C-28.55394148 7.37077391 -26.7289738 4.37965271 -22.82421875 0.42578125 C-17.04683609 -4.08973197 -6.264902 -2.82534796 0 0 Z M-15 4 C-17.23675337 6.23675337 -16.18938059 11.69983413 -16.19921875 14.70703125 C-15.95939901 18.67111047 -15.21319383 20.77242567 -13 24 C-11.35 24 -9.7 24 -8 24 C-5.45047495 19.21964053 -5.40251435 14.28211955 -6 9 C-7.31227434 5.96534298 -7.31227434 5.96534298 -9 4 C-10.98 4 -12.96 4 -15 4 Z M-14 30 C-18.77730153 35.12591542 -18.1431592 42.37377434 -18 49 C-17.32048279 52.30669523 -16.3635303 54.89115093 -15 58 C-12.69 58.33 -10.38 58.66 -8 59 C-3.43700191 54.67100181 -1.85713165 52.14244316 -1.6875 45.875 C-1.71695669 40.33714164 -2.9040073 34.0959927 -7 30 C-9.31 30 -11.62 30 -14 30 Z " fill="#000000" transform="translate(31,3)"/>
</svg>
