<?xml version="1.0" encoding="UTF-8"?>
<!-- Generator: visioncortex VTracer 0.6.4 -->
<svg version="1.1" xmlns="http://www.w3.org/2000/svg" width="43" height="73">
<path d="M0 0 C1.32 0 2.64 0 4 0 C4.52843782 6.20914438 2.92081028 10.53374462 0 16 C-0.33 16.33 -0.66 16.66 -1 17 C-7.27 17 -13.54 17 -20 17 C-19.67 20.3 -19.34 23.6 -19 27 C-18.01 26.67 -17.02 26.34 -16 26 C-9.44736042 25.43511728 -4.65200344 26.56643578 1 30 C5.42109706 34.42109706 7.09184611 38.63974513 7.375 44.8125 C7.23378219 51.12964326 5.27521694 55.72478306 0.8125 60.1875 C-0.115625 60.785625 -1.04375 61.38375 -2 62 C-2.67289063 62.44472656 -3.34578125 62.88945313 -4.0390625 63.34765625 C-9.34060981 66.61785468 -12.78964405 67.78861663 -19 67 C-23.46567954 65.80326214 -26.90804887 64.54286067 -30 61 C-31.40274739 57.42937028 -31.33174098 53.78184718 -31 50 C-29.5625 47.125 -29.5625 47.125 -27 45 C-23.96389916 44.09752599 -21.16018517 43.77385831 -18 44 C-15.4375 45.4375 -15.4375 45.4375 -14 47 C-14 49.97 -14 52.94 -14 56 C-15.65 57.32 -17.3 58.64 -19 60 C-15.69492676 60.2253459 -13.60786486 60.34500438 -10.6875 58.6875 C-7.36962056 55.36962056 -7.83597487 51.56644547 -7.8125 47.125 C-7.79123047 45.30355469 -7.79123047 45.30355469 -7.76953125 43.4453125 C-7.99311503 40.10292442 -8.41796027 37.93281785 -10 35 C-10.99 34.34 -11.98 33.68 -13 33 C-16.74667202 34.6327851 -16.74667202 34.6327851 -20 37 C-21.98 37 -23.96 37 -26 37 C-26.94373083 33.09479735 -27.04984848 29.61311436 -26.87890625 25.60546875 C-26.80639648 23.80239258 -26.80639648 23.80239258 -26.73242188 21.96289062 C-26.67634766 20.71701172 -26.62027344 19.47113281 -26.5625 18.1875 C-26.51029297 16.92228516 -26.45808594 15.65707031 -26.40429688 14.35351562 C-26.27486616 11.23541194 -26.13990871 8.11764822 -26 5 C-25.37955811 4.97494385 -24.75911621 4.9498877 -24.11987305 4.92407227 C-21.30887603 4.80803279 -18.49820759 4.68534241 -15.6875 4.5625 C-14.22280273 4.50352539 -14.22280273 4.50352539 -12.72851562 4.44335938 C-11.79072266 4.40146484 -10.85292969 4.35957031 -9.88671875 4.31640625 C-9.02264404 4.27974854 -8.15856934 4.24309082 -7.26831055 4.20532227 C-4.8352174 4.07252646 -4.8352174 4.07252646 -2 3 C-1.34 2.01 -0.68 1.02 0 0 Z " fill="#000000" transform="translate(34,3)"/>
</svg>
