<?xml version="1.0" encoding="UTF-8"?>
<!-- Generator: visioncortex VTracer 0.6.4 -->
<svg version="1.1" xmlns="http://www.w3.org/2000/svg" width="102" height="120">
<path d="M0 0 C5.61 0 11.22 0 17 0 C19.04652734 4.77523047 20.52672897 8.51902018 21.68359375 13.4296875 C21.97169922 14.63882812 22.25980469 15.84796875 22.55664062 17.09375 C22.84732422 18.3415625 23.13800781 19.589375 23.4375 20.875 C23.72431641 22.08414063 24.01113281 23.29328125 24.30664062 24.5390625 C25.52984245 29.70429781 26.74205597 34.87178377 27.92919922 40.04541016 C29.6814596 47.64337149 31.54963286 55.19730838 33.578125 62.7265625 C33.79686783 63.53995087 34.01561066 64.35333923 34.24098206 65.19137573 C35.13773787 68.51919771 36.03670038 71.84633687 36.94726562 75.17041016 C37.62377931 77.64540211 38.28925801 80.12315299 38.953125 82.6015625 C39.15931458 83.34330719 39.36550415 84.08505188 39.57794189 84.84927368 C39.76523865 85.55466278 39.9525354 86.26005188 40.14550781 86.98681641 C40.31109192 87.59506256 40.47667603 88.20330872 40.64727783 88.82998657 C41.13804719 91.84929238 41 94.94106847 41 98 C34.73 98 28.46 98 22 98 C18 86.375 18 86.375 18 83 C11.4 83 4.8 83 -2 83 C-2.12375 84.546875 -2.2475 86.09375 -2.375 87.6875 C-2.70116843 91.76460539 -3.40709863 94.01774657 -5 98 C-10.94 98 -16.88 98 -23 98 C-23.33 97.67 -23.66 97.34 -24 97 C-23.51591143 90.08405534 -22.31119912 83.72589981 -20.4375 77.0625 C-17.9122111 67.75724956 -15.68095938 58.41013339 -13.56893921 49.00482178 C-10.89765018 37.11142852 -8.14801222 25.24706938 -5.125 13.4375 C-4.83890869 12.3021582 -4.55281738 11.16681641 -4.25805664 9.99707031 C-3.98985107 8.96549805 -3.72164551 7.93392578 -3.4453125 6.87109375 C-3.21344238 5.97318115 -2.98157227 5.07526855 -2.74267578 4.15014648 C-2 2 -2 2 0 0 Z M7 42 C6.30147903 45.12264249 5.6180743 48.24840124 4.9375 51.375 C4.63875977 52.70917969 4.63875977 52.70917969 4.33398438 54.0703125 C4.15029297 54.92109375 3.96660156 55.771875 3.77734375 56.6484375 C3.60452881 57.43395996 3.43171387 58.21948242 3.25366211 59.02880859 C2.80429883 61.07335918 2.80429883 61.07335918 4 63 C6.97 63 9.94 63 13 63 C12.29843593 55.84404654 10.69214979 48.98144819 9 42 C8.34 42 7.68 42 7 42 Z " fill="#000000" transform="translate(42,11)"/>
</svg>
