<?xml version="1.0" encoding="UTF-8"?>
<!-- Generator: visioncortex VTracer 0.6.4 -->
<svg version="1.1" xmlns="http://www.w3.org/2000/svg" width="52" height="58">
<path d="M0 0 C3.54953124 2.80226151 5.09632169 5.8131903 5.70703125 10.33154297 C5.89230673 13.13937273 5.99579387 15.93690731 6.0625 18.75 C6.11374023 20.21179687 6.11374023 20.21179687 6.16601562 21.703125 C6.24804293 24.09363491 6.31733848 26.48379905 6.375 28.875 C8.685 29.865 10.995 30.855 13.375 31.875 C13.87 36.33 13.87 36.33 14.375 40.875 C9.94855249 45.30144751 4.38019816 43.95141475 -1.64990234 43.98486328 C-3.12616847 43.99490591 -4.60241479 44.00854265 -6.07861328 44.02587891 C-8.20350034 44.05020421 -10.32812385 44.0615004 -12.453125 44.0703125 C-13.7309082 44.08078613 -15.00869141 44.09125977 -16.32519531 44.10205078 C-19.44650951 43.88728146 -21.09430458 43.64884504 -23.625 41.875 C-27.01767938 36.78598093 -26.31168205 30.80846622 -25.625 24.875 C-24.27161589 21.88529433 -22.9165047 20.28107994 -20.625 17.875 C-21.945 16.555 -23.265 15.235 -24.625 13.875 C-24.91821709 8.89030948 -24.80838925 5.82679356 -21.625 1.875 C-15.2756049 -2.76925719 -7.28748183 -2.26163229 0 0 Z M-10.625 10.875 C-10.955 12.195 -11.285 13.515 -11.625 14.875 C-10.305 14.875 -8.985 14.875 -7.625 14.875 C-7.955 13.555 -8.285 12.235 -8.625 10.875 C-9.285 10.875 -9.945 10.875 -10.625 10.875 Z M-11.625 26.875 C-12.285 27.535 -12.945 28.195 -13.625 28.875 C-13.295 30.195 -12.965 31.515 -12.625 32.875 C-10.975 31.555 -9.325 30.235 -7.625 28.875 C-7.625 28.215 -7.625 27.555 -7.625 26.875 C-8.945 26.875 -10.265 26.875 -11.625 26.875 Z " fill="#000000" transform="translate(31.625,9.125)"/>
</svg>
