<?xml version="1.0" encoding="UTF-8"?>
<!-- Generator: visioncortex VTracer 0.6.4 -->
<svg version="1.1" xmlns="http://www.w3.org/2000/svg" width="37" height="76">
<path d="M0 0 C3.96 0 7.92 0 12 0 C13.585869 3.171738 13.37866445 6.63513822 13.5625 10.125 C13.60568359 10.87910156 13.64886719 11.63320313 13.69335938 12.41015625 C13.7994832 14.27321888 13.90025001 16.13658524 14 18 C14.65226562 17.95359375 15.30453125 17.9071875 15.9765625 17.859375 C20.3297791 17.67959614 23.42406397 17.76345484 27.5 19.4375 C33.23889323 25.31986556 32.33773717 34.87214064 32.3125 42.625 C32.32861328 43.62273438 32.34472656 44.62046875 32.36132812 45.6484375 C32.36520441 51.50938087 32.02283691 55.90962452 29 61 C25.55594936 63.94162443 20.88341379 63.33094967 16.5625 63.3125 C15.43618164 63.33666992 15.43618164 63.33666992 14.28710938 63.36132812 C9.74779801 63.36532048 6.58761107 63.07796913 3 60 C0.61310672 55.53268526 0.65709255 51.22990261 0.5859375 46.2890625 C0.56657135 45.44387054 0.5472052 44.59867859 0.5272522 43.72787476 C0.46770943 41.02701844 0.42134615 38.3261115 0.375 35.625 C0.33676323 33.84763829 0.2977083 32.07029399 0.2578125 30.29296875 C0.0413378 20.19431901 -0.05209618 10.10087128 0 0 Z M16 33 C13.03090402 36.27301919 12.65645206 38.38065762 12.8125 42.75 C12.83957031 43.73484375 12.86664063 44.7196875 12.89453125 45.734375 C12.76558581 48.43904623 12.76558581 48.43904623 16 51 C16.99 50.34 17.98 49.68 19 49 C19.02692484 46.70839681 19.04636124 44.41670454 19.0625 42.125 C19.07410156 40.84882812 19.08570313 39.57265625 19.09765625 38.2578125 C19.23176569 35.11335348 19.23176569 35.11335348 18 33 C17.34 33 16.68 33 16 33 Z " fill="#000000" transform="translate(4,5)"/>
</svg>
