<?xml version="1.0" encoding="UTF-8"?>
<!-- Generator: visioncortex VTracer 0.6.4 -->
<svg version="1.1" xmlns="http://www.w3.org/2000/svg" width="79" height="115">
<path d="M0 0 C1.48384188 -0.01994325 2.96760696 -0.04710834 4.45117188 -0.08203125 C21.52479863 -0.47346976 21.52479863 -0.47346976 28.87744141 4.21972656 C35.41332133 10.89131272 35.09205925 17.75797722 35.11767578 26.56152344 C35.12737463 28.58082382 35.15840897 30.59910268 35.18994141 32.61816406 C35.19767578 34.53628906 35.19767578 34.53628906 35.20556641 36.49316406 C35.21491211 37.66282715 35.22425781 38.83249023 35.23388672 40.03759766 C34.84493485 43.50992552 33.88454033 45.39852712 31.87744141 48.21972656 C32.51681641 48.96222656 33.15619141 49.70472656 33.81494141 50.46972656 C38.0157225 56.07076803 37.13135282 62.59532153 37.18994141 69.34472656 C37.21894531 70.43527344 37.24794922 71.52582031 37.27783203 72.64941406 C37.34244943 80.96020533 36.01279437 87.89510178 31.06494141 94.71972656 C25.73908055 98.37174543 19.75241299 98.50298557 13.53759766 98.41503906 C12.77064072 98.41220917 12.00368378 98.40937927 11.21348572 98.40646362 C8.7888052 98.39536131 6.36450831 98.37027623 3.93994141 98.34472656 C2.28564991 98.33468386 0.63135255 98.32556028 -1.02294922 98.31738281 C-13.09050998 98.25177517 -13.09050998 98.25177517 -14.12255859 97.21972656 C-14.14568002 84.72015556 -14.16347266 72.22058961 -14.17437077 59.72100163 C-14.17960003 53.91759043 -14.18669847 48.11419382 -14.19799805 42.31079102 C-14.20882538 36.71521803 -14.2148351 31.11965911 -14.21743584 25.52407646 C-14.21929037 23.38413712 -14.2229115 21.2441986 -14.22828865 19.10426521 C-14.23549704 16.11807691 -14.23654962 13.13194749 -14.23608398 10.14575195 C-14.23967926 9.25167633 -14.24327454 8.35760071 -14.24697876 7.43643188 C-14.22991653 -2.60647183 -8.44026034 0.0921627 0 0 Z M4.87744141 20.21972656 C4.87744141 26.15972656 4.87744141 32.09972656 4.87744141 38.21972656 C6.02578348 39.58980399 6.02578348 39.58980399 9.12744141 39.40722656 C12.98610328 39.21429347 14.16561928 38.8230758 16.87744141 36.21972656 C17.25474303 30.05713344 16.84179573 25.6923807 13.87744141 20.21972656 C11.36105754 18.96153463 7.0442809 18.05288707 4.87744141 20.21972656 Z M5.87744141 57.21972656 C3.77746323 59.31970474 4.8143946 64.24427628 4.81103516 67.08300781 C4.88475151 70.5650216 5.25552055 73.79916185 5.87744141 77.21972656 C8.79453065 79.20334725 10.00125044 79.20734566 13.62744141 78.84472656 C14.69994141 78.63847656 15.77244141 78.43222656 16.87744141 78.21972656 C18.47156424 75.03148089 17.97918876 71.59075994 17.93994141 68.09472656 C17.93542969 67.340625 17.93091797 66.58652344 17.92626953 65.80957031 C18.126544 60.97667345 18.126544 60.97667345 14.87744141 57.21972656 C11.90744141 57.21972656 8.93744141 57.21972656 5.87744141 57.21972656 Z " fill="#000000" transform="translate(28.12255859375,4.7802734375)"/>
</svg>
