<?xml version="1.0" encoding="UTF-8"?>
<!-- Generator: visioncortex VTracer 0.6.4 -->
<svg version="1.1" xmlns="http://www.w3.org/2000/svg" width="46" height="57">
<path d="M0 0 C0.80566406 0.00322266 1.61132812 0.00644531 2.44140625 0.00976562 C3.70404297 0.02233398 3.70404297 0.02233398 4.9921875 0.03515625 C5.84167969 0.03966797 6.69117187 0.04417969 7.56640625 0.04882812 C13.85149401 0.08413761 13.85149401 0.08413761 16.34765625 2.234375 C19.24590592 5.52804478 19.4368901 6.64059315 19.1796875 10.91015625 C19.11201172 12.37388672 19.11201172 12.37388672 19.04296875 13.8671875 C18.98496094 14.60324219 18.92695312 15.33929688 18.8671875 16.09765625 C15.8971875 16.42765625 12.9271875 16.75765625 9.8671875 17.09765625 C6.8671875 14.09765625 6.8671875 14.09765625 5.8671875 12.09765625 C5.2071875 12.09765625 4.5471875 12.09765625 3.8671875 12.09765625 C2.44838487 14.93526151 2.7351403 17.374486 2.7421875 20.53515625 C2.73960938 21.68886719 2.73703125 22.84257812 2.734375 24.03125 C2.72822828 27.13891292 2.72822828 27.13891292 3.8671875 30.09765625 C4.8571875 30.42765625 5.8471875 30.75765625 6.8671875 31.09765625 C7.1971875 29.44765625 7.5271875 27.79765625 7.8671875 26.09765625 C12.81086204 24.89188197 16.07581162 25.46858845 20.8671875 27.09765625 C21.31083786 35.82277994 21.31083786 35.82277994 17.8671875 40.09765625 C15.04547286 42.83340468 13.45860084 44.00980889 9.52734375 44.59375 C8.34011719 44.57441406 7.15289063 44.55507813 5.9296875 44.53515625 C4.15271484 44.53322266 4.15271484 44.53322266 2.33984375 44.53125 C-2.19484886 43.96505104 -5.52219967 42.7180724 -8.77734375 39.44311523 C-10.66607424 36.17491749 -10.53808109 33.60811432 -10.56640625 29.84765625 C-10.5716481 29.1525293 -10.57688995 28.45740234 -10.58229065 27.74121094 C-10.58869779 26.27540418 -10.58739072 24.80954592 -10.57885742 23.34375 C-10.57033867 21.10453638 -10.59913418 18.86786853 -10.63085938 16.62890625 C-10.63247141 15.20182368 -10.63189381 13.7747366 -10.62890625 12.34765625 C-10.63168579 10.40632813 -10.63168579 10.40632813 -10.63452148 8.42578125 C-10.05347204 4.57134521 -9.17651554 3.43694626 -6.1328125 1.09765625 C-3.8362755 -0.05061225 -2.54968083 -0.0179555 0 0 Z " fill="#000000" transform="translate(18.1328125,5.90234375)"/>
</svg>
