<?xml version="1.0" encoding="UTF-8"?>
<!-- Generator: visioncortex VTracer 0.6.4 -->
<svg version="1.1" xmlns="http://www.w3.org/2000/svg" width="60" height="102">
<path d="M0 0 C0.98097656 -0.020625 1.96195313 -0.04125 2.97265625 -0.0625 C10.08772483 -0.10090793 14.38445232 0.93575973 19.9375 5.625 C24.852616 11.5231392 23.19278788 19.99669649 23.125 27.25 C17.515 27.25 11.905 27.25 6.125 27.25 C4.805 24.94 3.485 22.63 2.125 20.25 C-0.185 19.92 -2.495 19.59 -4.875 19.25 C-5.71595274 25.81076621 -6.03274208 32.20147239 -6 38.8125 C-5.99734131 39.79323486 -5.99468262 40.77396973 -5.99194336 41.78442383 C-5.94466775 49.34074128 -5.73575949 56.88715886 -5.4375 64.4375 C-5.39834473 65.45851807 -5.35918945 66.47953613 -5.31884766 67.53149414 C-5.27679199 68.48403076 -5.23473633 69.43656738 -5.19140625 70.41796875 C-5.15474854 71.25610107 -5.11809082 72.0942334 -5.08032227 72.95776367 C-4.88377169 75.15207204 -4.47358302 77.13350538 -3.875 79.25 C-1.895 79.25 0.085 79.25 2.125 79.25 C3.50833333 78.06666667 3.50833333 78.06666667 3.625 74.75 C4.125 71.25 4.125 71.25 5.125 70.25 C11.065 70.25 17.005 70.25 23.125 70.25 C24.88500919 72.01000919 24.33914179 74.42494094 24.375 76.8125 C24.30080907 83.75347341 23.29065498 88.46558645 18.9375 94.0625 C11.29816759 100.00420299 3.48466348 99.97853597 -5.875 99.25 C-17.15671157 97.69211118 -17.15671157 97.69211118 -20.9375 93.5625 C-26.11269795 84.71458092 -26.32255058 77.18482981 -26.2734375 67.09375 C-26.27546227 65.62219092 -26.27837705 64.15063282 -26.28213501 62.67907715 C-26.28653944 59.60610328 -26.28018851 56.53339234 -26.26611328 53.46044922 C-26.24902223 49.53998632 -26.25887359 45.62013974 -26.27683067 41.6996994 C-26.28771974 38.66432124 -26.28419884 35.62908694 -26.2764473 32.59370422 C-26.27445941 31.14895045 -26.27685444 29.70418322 -26.28388596 28.25944519 C-26.3494346 11.0098091 -26.3494346 11.0098091 -20.97265625 5.19140625 C-20.30105469 4.73636719 -19.62945312 4.28132812 -18.9375 3.8125 C-18.26847656 3.33941406 -17.59945313 2.86632812 -16.91015625 2.37890625 C-11.66749427 -0.52921143 -5.8286041 0.03039689 0 0 Z " fill="#000000" transform="translate(34.875,-0.25)"/>
</svg>
