<?xml version="1.0" encoding="UTF-8"?>
<!-- Generator: visioncortex VTracer 0.6.4 -->
<svg version="1.1" xmlns="http://www.w3.org/2000/svg" width="49" height="76">
<path d="M0 0 C2.97 0 5.94 0 9 0 C11.46368908 2.46368908 11.28923223 3.25151899 11.4140625 6.65234375 C11.45281494 7.64057129 11.49156738 8.62879883 11.53149414 9.64697266 C11.56235107 10.73284668 11.59320801 11.8187207 11.625 12.9375 C11.66294678 14.05946777 11.70089355 15.18143555 11.73999023 16.33740234 C12.20248328 31.88597813 12.08814032 47.44662273 12 63 C10.97011963 62.99202393 9.94023926 62.98404785 8.87915039 62.97583008 C7.51448654 62.96937915 6.14982175 62.96312315 4.78515625 62.95703125 C3.76935486 62.9483905 3.76935486 62.9483905 2.73303223 62.9395752 C-0.77571471 62.92783312 -4.10950355 63.067882 -7.5625 63.6875 C-11.77514651 64.07046786 -13.58171655 63.46434388 -17 61 C-19.67848222 56.60965801 -20.37643228 53.3199334 -20.36328125 48.2109375 C-20.36263672 46.93992188 -20.36199219 45.66890625 -20.36132812 44.359375 C-20.34521484 43.04453125 -20.32910156 41.7296875 -20.3125 40.375 C-20.31460665 39.0390602 -20.31785175 37.70312167 -20.32226562 36.3671875 C-20.26133617 25.46635432 -20.26133617 25.46635432 -18 22 C-14.18279249 18.76115726 -10.8735888 18.69883436 -6.0859375 18.796875 C-4 19 -4 19 -1 20 C-1.33 14.06 -1.66 8.12 -2 2 C-1.34 1.34 -0.68 0.68 0 0 Z M-6 31 C-9.07598407 36.76747013 -8.780283 43.8330997 -7 50 C-5.68 50.33 -4.36 50.66 -3 51 C-2.34 50.34 -1.68 49.68 -1 49 C-1 43.72 -1 38.44 -1 33 C-1.66 32.34 -2.32 31.68 -3 31 C-3.99 31 -4.98 31 -6 31 Z " fill="#000000" transform="translate(29,5)"/>
</svg>
