<?xml version="1.0" encoding="UTF-8"?>
<!-- Generator: visioncortex VTracer 0.6.4 -->
<svg version="1.1" xmlns="http://www.w3.org/2000/svg" width="76" height="110">
<path d="M0 0 C5.14113816 -0.0993309 10.28171025 -0.17168514 15.42358398 -0.21972656 C17.17042784 -0.23976622 18.91720525 -0.26700587 20.66381836 -0.30175781 C23.18359832 -0.35061582 25.70248685 -0.37304486 28.22265625 -0.390625 C28.99585709 -0.41127014 29.76905792 -0.43191528 30.56568909 -0.45318604 C36.18691391 -0.4554803 39.32141236 0.88463102 44 4 C44.763125 4.45375 45.52625 4.9075 46.3125 5.375 C52.42394895 11.26009899 50.90810862 23.98345746 51.09082031 31.96972656 C51.13362435 36.02217401 51.1412974 40.07245841 51.125 44.125 C51.12311676 44.83734802 51.12123352 45.54969604 51.11929321 46.28363037 C51.09166591 55.23262735 51.01971171 64.18146793 50.6875 73.125 C50.66510254 73.93984863 50.64270508 74.75469727 50.61962891 75.59423828 C50.34214945 81.47906271 49.3015256 86.42680211 45.24609375 90.9609375 C44.64925781 91.42757812 44.05242188 91.89421875 43.4375 92.375 C42.83808594 92.85710937 42.23867188 93.33921875 41.62109375 93.8359375 C34.62204251 98.86176224 23.12258966 97.11906893 14.9375 97.0625 C13.69033203 97.05798828 12.44316406 97.05347656 11.15820312 97.04882812 C2.01379207 97.01379207 2.01379207 97.01379207 1 96 C0.87590805 93.88852205 0.82197231 91.77290413 0.79467773 89.65795898 C0.77982834 88.66218086 0.77982834 88.66218086 0.76467896 87.64628601 C0.73287206 85.42959224 0.7081774 83.21287854 0.68359375 80.99609375 C0.66298656 79.44075516 0.6419892 77.8854217 0.62062073 76.33009338 C0.57652236 73.04715961 0.53566149 69.7642071 0.49731445 66.48120117 C0.44899702 62.34736497 0.3952582 58.2136252 0.33934593 54.07988548 C0.09627652 36.05264641 -0.07049226 18.02923509 0 0 Z M20 18 C17.16444685 20.83555315 18.9534546 32.43264611 18.94506836 36.54760742 C18.94009019 38.53068587 18.93330524 40.51376075 18.92456055 42.49682617 C18.87496779 54.04610395 18.99982361 65.48838698 20 77 C23.23253661 77.9198036 24.6861785 78.03549111 27.75 76.5625 C28.8225 76.046875 29.895 75.53125 31 75 C31.85443523 72.05188475 32.1075763 69.48283994 32.0534668 66.41845703 C32.0398259 65.51717072 32.026185 64.6158844 32.01213074 63.68728638 C31.9809893 62.23719681 31.9809893 62.23719681 31.94921875 60.7578125 C31.9303511 59.75668427 31.91148346 58.75555603 31.89204407 57.72409058 C31.85019793 55.60750674 31.80546421 53.4909783 31.75805664 51.37451172 C31.6879194 48.14431541 31.63351773 44.91410403 31.58007812 41.68359375 C31.53742111 39.62497982 31.49383194 37.56638496 31.44921875 35.5078125 C31.43453049 34.54513458 31.41984222 33.58245667 31.40470886 32.59060669 C31.45576985 24.72405921 31.45576985 24.72405921 28 18 C25.36 18 22.72 18 20 18 Z " fill="#000000" transform="translate(14,3)"/>
</svg>
