<?xml version="1.0" encoding="UTF-8"?>
<!-- Generator: visioncortex VTracer 0.6.4 -->
<svg version="1.1" xmlns="http://www.w3.org/2000/svg" width="76" height="111">
<path d="M0 0 C2.07194526 -0.00503688 4.14388695 -0.0118666 6.21582031 -0.02050781 C9.18946207 -0.03260157 12.16305694 -0.03830303 15.13671875 -0.04272461 C16.06696869 -0.04788589 16.99721863 -0.05304718 17.95565796 -0.05836487 C18.81639923 -0.0584404 19.6771405 -0.05851593 20.56396484 -0.05859375 C21.323414 -0.06081436 22.08286316 -0.06303497 22.86532593 -0.06532288 C24.73828125 0.05493164 24.73828125 0.05493164 26.73828125 1.05493164 C27.23328125 9.46993164 27.23328125 9.46993164 27.73828125 18.05493164 C24.33930452 20.32091613 23.17508952 20.29235818 19.1953125 20.25024414 C17.5855957 20.24057617 17.5855957 20.24057617 15.94335938 20.23071289 C14.2640332 20.20557617 14.2640332 20.20557617 12.55078125 20.17993164 C11.41962891 20.1709082 10.28847656 20.16188477 9.12304688 20.15258789 C6.32803496 20.12900129 3.53313166 20.09313005 0.73828125 20.05493164 C0.73828125 25.66493164 0.73828125 31.27493164 0.73828125 37.05493164 C5.02828125 37.05493164 9.31828125 37.05493164 13.73828125 37.05493164 C15.73828125 39.05493164 15.73828125 39.05493164 15.93359375 42.75024414 C15.92029025 44.22693272 15.8964296 45.70355523 15.86328125 47.17993164 C15.85425781 47.9340332 15.84523437 48.68813477 15.8359375 49.46508789 C15.76552484 55.02768805 15.76552484 55.02768805 14.73828125 56.05493164 C10.41337272 56.52016085 6.07892588 56.75993637 1.73828125 57.05493164 C1.73828125 63.65493164 1.73828125 70.25493164 1.73828125 77.05493164 C6.1192305 77.68078153 9.71620496 78.17929236 14.015625 78.15258789 C14.94052734 78.14936523 15.86542969 78.14614258 16.81835938 78.14282227 C17.76130859 78.13444336 18.70425781 78.12606445 19.67578125 78.11743164 C21.13081055 78.11066406 21.13081055 78.11066406 22.61523438 78.10375977 C24.98964885 78.09206314 27.36393146 78.0756725 29.73828125 78.05493164 C30.73828125 79.05493164 30.73828125 79.05493164 30.85180664 80.82080078 C30.84656982 81.56966553 30.84133301 82.31853027 30.8359375 83.09008789 C30.83271484 83.89897461 30.82949219 84.70786133 30.82617188 85.54125977 C30.81360352 86.81646484 30.81360352 86.81646484 30.80078125 88.11743164 C30.79626953 88.97143555 30.79175781 89.82543945 30.78710938 90.70532227 C30.75171173 97.04150116 30.75171173 97.04150116 29.73828125 98.05493164 C14.22828125 98.05493164 -1.28171875 98.05493164 -17.26171875 98.05493164 C-18.87571798 96.44093241 -18.42721901 94.66938462 -18.46704102 92.43554688 C-18.48697617 91.44223358 -18.50691132 90.44892029 -18.52745056 89.42550659 C-18.54417313 88.3325528 -18.56089569 87.239599 -18.578125 86.11352539 C-18.59899673 84.9788382 -18.61986847 83.844151 -18.64137268 82.67507935 C-18.70790483 78.94760243 -18.76655779 75.22005566 -18.82421875 71.49243164 C-18.84506531 70.23316864 -18.86591187 68.97390564 -18.88739014 67.67648315 C-19.16307911 50.99065403 -19.36292485 34.30560787 -19.38671875 17.61743164 C-19.38930695 16.76414276 -19.39189514 15.91085388 -19.39456177 15.03170776 C-19.40029924 12.66570594 -19.39892348 10.29983994 -19.39453125 7.93383789 C-19.39340332 6.61971924 -19.39227539 5.30560059 -19.39111328 3.95166016 C-19.08746379 -2.846078 -5.54501208 0.011009 0 0 Z " fill="#000000" transform="translate(34.26171875,1.945068359375)"/>
</svg>
