<?xml version="1.0" encoding="UTF-8"?>
<!-- Generator: visioncortex VTracer 0.6.4 -->
<svg version="1.1" xmlns="http://www.w3.org/2000/svg" width="43" height="56">
<path d="M0 0 C3.16903203 4.85967036 3.3844774 8.78892294 3.1875 14.375 C3.16719727 15.47908203 3.16719727 15.47908203 3.14648438 16.60546875 C3.04221854 21.95778146 3.04221854 21.95778146 2 23 C-0.69235776 23.23678716 -3.36498156 23.42198025 -6.0625 23.5625 C-7.20041992 23.62727539 -7.20041992 23.62727539 -8.36132812 23.69335938 C-10.24065438 23.79973633 -12.12030244 23.90039934 -14 24 C-14 25.98 -14 27.96 -14 30 C-12.02 29.505 -12.02 29.505 -10 29 C-9.34 27.68 -8.68 26.36 -8 25 C-4.7 25 -1.4 25 2 25 C4.36086122 28.54129184 4.57269578 29.82750218 4 34 C1.12699069 38.26847098 -1.12258703 40.47668191 -6 42 C-17.89942089 43.28078873 -17.89942089 43.28078873 -22.6875 40.1875 C-27.64051504 35.5022155 -27.84466732 30.82090026 -28.10693359 24.36962891 C-28.16940535 21.51641879 -28.18558337 18.66636361 -28.1875 15.8125 C-28.19974609 14.84119141 -28.21199219 13.86988281 -28.22460938 12.86914062 C-28.22654297 11.92876953 -28.22847656 10.98839844 -28.23046875 10.01953125 C-28.23663208 8.75266479 -28.23663208 8.75266479 -28.24291992 7.46020508 C-27.96579011 4.6535346 -27.21776754 2.53644597 -26 0 C-19.33630195 -5.12592158 -6.72689492 -3.88090092 0 0 Z M-15 9 C-15 9.99 -15 10.98 -15 12 C-13.35 12 -11.7 12 -10 12 C-10 11.01 -10 10.02 -10 9 C-11.65 9 -13.3 9 -15 9 Z " fill="#000000" transform="translate(35,6)"/>
</svg>
