<?xml version="1.0" encoding="UTF-8"?>
<!-- Generator: visioncortex VTracer 0.6.4 -->
<svg version="1.1" xmlns="http://www.w3.org/2000/svg" width="79" height="107">
<path d="M0 0 C15.51 0 31.02 0 47 0 C48 1 48 1 48.11352539 2.76586914 C48.10828857 3.51473389 48.10305176 4.26359863 48.09765625 5.03515625 C48.09443359 5.84404297 48.09121094 6.65292969 48.08789062 7.48632812 C48.07532227 8.7615332 48.07532227 8.7615332 48.0625 10.0625 C48.05798828 10.91650391 48.05347656 11.77050781 48.04882812 12.65039062 C48.03700373 14.76695663 48.01906769 16.88348685 48 19 C41.67410373 20.13955862 35.47721662 20.1142637 29.0625 20.0625 C27.46438477 20.05573242 27.46438477 20.05573242 25.83398438 20.04882812 C23.22263178 20.03711802 20.61130837 20.01918512 18 20 C18.495 28.415 18.495 28.415 19 37 C21.124375 37.144375 23.24875 37.28875 25.4375 37.4375 C31.875 37.875 31.875 37.875 33 39 C33.07319621 41.69654854 33.09242537 44.36691458 33.0625 47.0625 C33.05798828 47.82111328 33.05347656 48.57972656 33.04882812 49.36132812 C33.01344937 54.98655063 33.01344937 54.98655063 32 56 C30.19188816 56.20896317 28.37783968 56.36780361 26.5625 56.5 C22.63565085 56.71419183 22.63565085 56.71419183 19 58 C18.97494385 59.17618896 18.9498877 60.35237793 18.92407227 61.56420898 C18.83017194 65.91214622 18.72990952 70.25991716 18.62768555 74.60766602 C18.58427067 76.49239218 18.54260057 78.37715936 18.50268555 80.26196289 C18.44514107 82.96513249 18.38140196 85.66809436 18.31640625 88.37109375 C18.29133751 89.64296791 18.29133751 89.64296791 18.26576233 90.9405365 C18.11387171 96.88612829 18.11387171 96.88612829 17 98 C11.72 98 6.44 98 1 98 C-1.83445411 95.16554589 -1.27649753 93.27004802 -1.31884766 89.29736328 C-1.33391609 88.26246765 -1.33391609 88.26246765 -1.34928894 87.20666504 C-1.38031187 84.91122258 -1.3972383 82.61589954 -1.4140625 80.3203125 C-1.43279847 78.71197544 -1.45237365 77.10364795 -1.4727478 75.49533081 C-1.5242558 71.23856478 -1.56371241 66.98176549 -1.60089111 62.72485352 C-1.64033385 58.47142819 -1.69192308 54.21815239 -1.7421875 49.96484375 C-1.82588097 42.73968213 -1.89327918 35.51452158 -1.94766617 28.28908157 C-1.98114268 23.93428697 -2.03073019 19.58009046 -2.09277344 15.22558594 C-2.11171442 13.39779042 -2.13031112 11.56999128 -2.1484375 9.7421875 C-2.16379547 8.95119659 -2.17915344 8.16020569 -2.19497681 7.34524536 C-2.20637183 5.56234836 -2.1148498 3.77923047 -2 2 C-1.34 1.34 -0.68 0.68 0 0 Z " fill="#000000" transform="translate(17,7)"/>
</svg>
