<?xml version="1.0" encoding="UTF-8"?>
<!-- Generator: visioncortex VTracer 0.6.4 -->
<svg version="1.1" xmlns="http://www.w3.org/2000/svg" width="70" height="76">
<path d="M0 0 C5.74496592 2.33505066 5.74496592 2.33505066 7.59765625 5.046875 C8.50413847 7.650106 8.55674893 9.73416561 8.484375 12.484375 C8.46632813 13.37640625 8.44828125 14.2684375 8.4296875 15.1875 C8.359375 17.234375 8.359375 17.234375 7.359375 18.234375 C4.389375 18.234375 1.419375 18.234375 -1.640625 18.234375 C-4.640625 15.234375 -4.640625 15.234375 -5.640625 13.234375 C-6.630625 12.904375 -7.620625 12.574375 -8.640625 12.234375 C-8.640625 14.214375 -8.640625 16.194375 -8.640625 18.234375 C-6.000625 19.224375 -3.360625 20.214375 -0.640625 21.234375 C-0.970625 24.534375 -1.300625 27.834375 -1.640625 31.234375 C-3.950625 31.894375 -6.260625 32.554375 -8.640625 33.234375 C-8.63538818 34.04181152 -8.63015137 34.84924805 -8.62475586 35.68115234 C-8.60402571 39.32388538 -8.59097751 42.96660602 -8.578125 46.609375 C-8.56974609 47.88039062 -8.56136719 49.15140625 -8.55273438 50.4609375 C-8.54951172 51.67265625 -8.54628906 52.884375 -8.54296875 54.1328125 C-8.53773193 55.25349121 -8.53249512 56.37416992 -8.52709961 57.52880859 C-8.640625 60.234375 -8.640625 60.234375 -9.640625 62.234375 C-11.07702671 62.43011108 -12.51482004 62.61565316 -13.953125 62.796875 C-15.15388672 62.95349609 -15.15388672 62.95349609 -16.37890625 63.11328125 C-18.640625 63.234375 -18.640625 63.234375 -21.640625 62.234375 C-22.82582849 56.59634536 -22.81946201 51.05799845 -22.84375 45.32421875 C-22.85230011 43.7566256 -22.85230011 43.7566256 -22.86102295 42.15736389 C-22.8704427 39.95444747 -22.87699486 37.75151715 -22.88085938 35.54858398 C-22.89060171 32.17992808 -22.92166883 28.81187325 -22.953125 25.44335938 C-22.95965221 23.29948278 -22.96490378 21.15560183 -22.96875 19.01171875 C-22.9810968 18.0064061 -22.9934436 17.00109344 -23.00616455 15.96531677 C-22.97839612 7.25614011 -22.97839612 7.25614011 -19.640625 3.234375 C-13.94661743 -2.032582 -7.19452972 -2.08598791 0 0 Z " fill="#000000" transform="translate(42.640625,6.765625)"/>
</svg>
