<?xml version="1.0" encoding="UTF-8"?>
<!-- Generator: visioncortex VTracer 0.6.4 -->
<svg version="1.1" xmlns="http://www.w3.org/2000/svg" width="59" height="99">
<path d="M0 0 C2.30824665 1.48352428 4.01873672 3.0682683 6 5 C6 7.64 6 10.28 6 13 C4.35 13.66 2.7 14.32 1 15 C1.64839844 15.48726562 2.29679687 15.97453125 2.96484375 16.4765625 C5.77200593 19.95722808 5.6250195 23.0942529 5.5625 27.375 C5.59827148 28.48875 5.59827148 28.48875 5.63476562 29.625 C5.62440433 33.5346626 5.25379626 36.21776524 2.828125 39.359375 C0.00184383 41.99827842 -2.25581142 43.41804323 -5.8125 44.875 C-6.78832031 45.28492188 -7.76414062 45.69484375 -8.76953125 46.1171875 C-9.50558594 46.40851562 -10.24164062 46.69984375 -11 47 C-10.443125 47.01417969 -9.88625 47.02835938 -9.3125 47.04296875 C-3.33999565 47.41625027 1.56927823 48.7924081 6 53 C8.64984422 58.1529544 8.6750976 63.33251398 8 69 C5.81473658 73.45146251 3.0605479 76.18885145 -1 79 C-6.67750011 80.89250004 -12.8304784 80.78891694 -18.4375 78.75 C-20.94921027 77.03468567 -22.97202887 75.2619678 -25 73 C-25 69.37 -25 65.74 -25 62 C-24.01 61.34 -23.02 60.68 -22 60 C-22.639375 59.505 -23.27875 59.01 -23.9375 58.5 C-26.64959311 55.21261442 -27.23169002 52.16269738 -27 48 C-26.23978638 45.44510487 -25.24083252 43.38239845 -24 41 C-24.495 40.030625 -24.99 39.06125 -25.5 38.0625 C-27.97726142 32.21144446 -27.75315867 26.58152898 -25.6875 20.625 C-24.23235478 17.49913249 -23.51436621 16.12324257 -21 14 C-20.01 13.67 -19.02 13.34 -18 13 C-17.89042969 12.38511719 -17.78085937 11.77023438 -17.66796875 11.13671875 C-17.50941406 10.32847656 -17.35085937 9.52023438 -17.1875 8.6875 C-17.03667969 7.88699219 -16.88585938 7.08648437 -16.73046875 6.26171875 C-15.63283644 2.86316737 -13.85283519 1.4873344 -10.8125 -0.25 C-7.02305062 -1.26051984 -3.71360034 -1.15823792 0 0 Z M-6 11 C-5.34 11.66 -4.68 12.32 -4 13 C-4 12.34 -4 11.68 -4 11 C-4.66 11 -5.32 11 -6 11 Z M-13 25 C-13.33 25.33 -13.66 25.66 -14 26 C-14 27.65 -14 29.3 -14 31 C-12.515 31.99 -12.515 31.99 -11 33 C-9.68 32.67 -8.36 32.34 -7 32 C-6.67 30.68 -6.34 29.36 -6 28 C-6.66 27.01 -7.32 26.02 -8 25 C-9.65 25 -11.3 25 -13 25 Z M-13 60 C-12.81535634 64.34184202 -12.81535634 64.34184202 -11 68 C-9.35 68 -7.7 68 -6 68 C-5.34 67.34 -4.68 66.68 -4 66 C-4.33 64.68 -4.66 63.36 -5 62 C-8.08809695 60.23537317 -9.23312136 60 -13 60 Z " fill="#000000" transform="translate(41,7)"/>
</svg>
