<?xml version="1.0" encoding="UTF-8"?>
<!-- Generator: visioncortex VTracer 0.6.4 -->
<svg version="1.1" xmlns="http://www.w3.org/2000/svg" width="78" height="119">
<path d="M0 0 C1.7734375 1.12890625 1.7734375 1.12890625 3.3125 2.3125 C4.240625 3.01375 5.16875 3.715 6.125 4.4375 C10.21090856 9.80755125 11.72573384 15.66778034 11.0625 22.375 C10.51043814 26.11456186 10.51043814 26.11456186 9.3125 27.3125 C4.0325 27.3125 -1.2475 27.3125 -6.6875 27.3125 C-8.6875 21.3125 -8.6875 21.3125 -8.6875 19.3125 C-11.6575 19.6425 -14.6275 19.9725 -17.6875 20.3125 C-18.59335645 23.03006935 -18.81805219 24.63133849 -18.83276367 27.42578125 C-18.83914352 28.25094238 -18.84552338 29.07610352 -18.85209656 29.92626953 C-18.85320938 30.81685059 -18.8543222 31.70743164 -18.85546875 32.625 C-18.85879715 33.54909668 -18.86212555 34.47319336 -18.86555481 35.42529297 C-18.87062102 37.38557437 -18.87296323 39.3458644 -18.87280273 41.30615234 C-18.87497132 44.27326181 -18.89308036 47.23998846 -18.91210938 50.20703125 C-19.15068977 63.90667557 -19.15068977 63.90667557 -16.6875 77.3125 C-16.1925 77.8075 -16.1925 77.8075 -15.6875 78.3125 C-12.2225 77.8175 -12.2225 77.8175 -8.6875 77.3125 C-7.93591359 73.31673817 -7.57628592 69.57494634 -7.625 65.51171875 C-7.63273437 64.45275391 -7.64046875 63.39378906 -7.6484375 62.30273438 C-7.66132812 61.21283203 -7.67421875 60.12292969 -7.6875 59 C-7.71287531 56.81645431 -7.7339537 54.63285292 -7.75 52.44921875 C-7.76160156 51.48717529 -7.77320312 50.52513184 -7.78515625 49.53393555 C-7.6875 47.3125 -7.6875 47.3125 -6.6875 46.3125 C-3.82872091 46.07548761 -0.98866703 45.89030818 1.875 45.75 C2.68130859 45.70681641 3.48761719 45.66363281 4.31835938 45.61914062 C6.31618805 45.51274738 8.3143207 45.41209112 10.3125 45.3125 C12.24457569 47.24457569 11.4763232 50.86168271 11.48046875 53.49609375 C11.48546135 54.59039452 11.48546135 54.59039452 11.49055481 55.70680237 C11.49563201 57.25952524 11.49796289 58.81225907 11.49780273 60.36499023 C11.49996224 62.70901388 11.51803282 65.05254583 11.53710938 67.39648438 C11.62041467 88.53202609 11.62041467 88.53202609 5.140625 95.9375 C-0.1595022 99.92392046 -6.29778503 99.64838217 -12.625 99.625 C-13.92727539 99.64916992 -13.92727539 99.64916992 -15.25585938 99.67382812 C-21.65108977 99.67866201 -26.44225706 98.85340015 -31.61328125 94.8046875 C-32.07089844 94.27101563 -32.52851562 93.73734375 -33 93.1875 C-33.47050781 92.66929688 -33.94101562 92.15109375 -34.42578125 91.6171875 C-38.7822991 83.65946139 -38.12260839 73.86878679 -38.3125 65.0625 C-38.34850383 63.60457038 -38.38463862 62.14664398 -38.42089844 60.6887207 C-38.50927275 56.95927889 -38.58179677 53.22971556 -38.64782715 49.49981689 C-38.68630239 47.378529 -38.72986094 45.25739831 -38.77441406 43.13623047 C-38.85290976 39.25767822 -38.89835251 35.37916029 -38.9375 31.5 C-38.95893066 30.34661133 -38.98036133 29.19322266 -39.00244141 28.00488281 C-39.07327893 10.07511773 -39.07327893 10.07511773 -33.82519531 4.24291992 C-25.46321372 -2.64717122 -9.9745507 -4.70174432 0 0 Z " fill="#000000" transform="translate(50.6875,9.6875)"/>
</svg>
