<?xml version="1.0" encoding="UTF-8"?>
<!-- Generator: visioncortex VTracer 0.6.4 -->
<svg version="1.1" xmlns="http://www.w3.org/2000/svg" width="46" height="82">
<path d="M0 0 C3.63 0 7.26 0 11 0 C13.03571286 2.03571286 12.36876544 6.12567806 12.5 8.9375 C12.54291236 14.12702618 12.54291236 14.12702618 14 19 C17.96 19 21.92 19 26 19 C30.705975 23.46464295 32.06951599 25.87283721 32.26576233 32.3712616 C32.28247482 33.07761246 32.29918732 33.78396332 32.31640625 34.51171875 C32.33718735 35.23994339 32.35796844 35.96816803 32.37937927 36.71846008 C32.44468746 39.04137875 32.50367237 41.36440906 32.5625 43.6875 C32.60570305 45.26368335 32.64931792 46.83985548 32.69335938 48.41601562 C32.8003496 52.27722975 32.90166961 56.13855603 33 60 C32.34 60.66 31.68 61.32 31 62 C27.37 62 23.74 62 20 62 C18.30500236 60.30500236 18.79090062 58.11464523 18.71875 55.79296875 C18.68136719 54.73142578 18.64398437 53.66988281 18.60546875 52.57617188 C18.57066406 51.45791016 18.53585938 50.33964844 18.5 49.1875 C18.43099395 46.99336311 18.35822795 44.79934043 18.28125 42.60546875 C18.25095703 41.62731201 18.22066406 40.64915527 18.18945312 39.64135742 C18.02116022 37.29501602 17.65826324 35.2509538 17 33 C15.515 33.495 15.515 33.495 14 34 C13.97494385 34.81267334 13.9498877 35.62534668 13.92407227 36.46264648 C13.80850882 40.12110752 13.68560416 43.77928528 13.5625 47.4375 C13.50352539 49.3565918 13.50352539 49.3565918 13.44335938 51.31445312 C13.40146484 52.52939453 13.35957031 53.74433594 13.31640625 54.99609375 C13.26141968 56.68496704 13.26141968 56.68496704 13.20532227 58.40795898 C13 61 13 61 12 62 C8.37 62 4.74 62 1 62 C0.67 61.67 0.34 61.34 0 61 C0 40.87 0 20.74 0 0 Z " fill="#000000" transform="translate(8,8)"/>
</svg>
