<?xml version="1.0" encoding="UTF-8"?>
<!-- Generator: visioncortex VTracer 0.6.4 -->
<svg version="1.1" xmlns="http://www.w3.org/2000/svg" width="80" height="111">
<path d="M0 0 C2.70347561 2.70347561 2.30728274 4.16888714 2.4140625 7.9609375 C2.45281494 9.27223633 2.49156738 10.58353516 2.53149414 11.93457031 C2.56335094 13.41469889 2.59449468 14.89484295 2.625 16.375 C2.64368134 17.12567749 2.66236267 17.87635498 2.68161011 18.64978027 C3.33751356 45.0875238 3.08500658 71.55641318 3 98 C-2.94 98 -8.88 98 -15 98 C-15.495 97.505 -15.495 97.505 -16 97 C-16 83.8 -16 70.6 -16 57 C-21.445 57.495 -21.445 57.495 -27 58 C-27.02505615 59.17618896 -27.0501123 60.35237793 -27.07592773 61.56420898 C-27.16982806 65.91214622 -27.27009048 70.25991716 -27.37231445 74.60766602 C-27.41572933 76.49239218 -27.45739943 78.37715936 -27.49731445 80.26196289 C-27.55485893 82.96513249 -27.61859804 85.66809436 -27.68359375 88.37109375 C-27.70866249 89.64296791 -27.70866249 89.64296791 -27.73423767 90.9405365 C-27.88612829 96.88612829 -27.88612829 96.88612829 -29 98 C-31.52596259 98.23653523 -34.03107207 98.42173692 -36.5625 98.5625 C-37.62887695 98.62727539 -37.62887695 98.62727539 -38.71679688 98.69335938 C-40.47761912 98.79971777 -42.2387832 98.90038846 -44 99 C-44.99 98.01 -45.98 97.02 -47 96 C-47 64.65 -47 33.3 -47 1 C-41.06 1 -35.12 1 -29 1 C-28.02891348 4.88434607 -27.78115305 8.42511438 -27.68359375 12.390625 C-27.66281265 13.09523865 -27.64203156 13.79985229 -27.62062073 14.52581787 C-27.55546163 16.76711681 -27.49639752 19.00852864 -27.4375 21.25 C-27.39428274 22.77344897 -27.35066743 24.29688671 -27.30664062 25.8203125 C-27.19981509 29.54675591 -27.09845361 33.27332494 -27 37 C-23.7 37 -20.4 37 -17 37 C-16.67 25.12 -16.34 13.24 -16 1 C-5 0 -5 0 0 0 Z " fill="#000000" transform="translate(65,2)"/>
</svg>
