<?xml version="1.0" encoding="UTF-8"?>
<!-- Generator: visioncortex VTracer 0.6.4 -->
<svg version="1.1" xmlns="http://www.w3.org/2000/svg" width="53" height="111">
<path d="M0 0 C0.95777344 0.00902344 1.91554688 0.01804687 2.90234375 0.02734375 C5.0625 0.0625 5.0625 0.0625 7.0625 2.0625 C7.3409729 4.33859253 7.3409729 4.33859253 7.38134766 7.22607422 C7.40121231 8.31211945 7.42107697 9.39816467 7.44154358 10.51712036 C7.45309982 11.70514252 7.46465607 12.89316467 7.4765625 14.1171875 C7.49597397 15.35040741 7.51538544 16.58362732 7.53538513 17.85421753 C7.5855691 21.19248983 7.62683533 24.5306331 7.66359329 27.86906433 C7.69534397 30.61616927 7.73433123 33.36315121 7.77336216 36.11016083 C8.06552494 56.76034793 8.20180925 77.41043889 8.0625 98.0625 C7.7325 98.3925 7.4025 98.7225 7.0625 99.0625 C1.1225 99.0625 -4.8175 99.0625 -10.9375 99.0625 C-13.59394492 95.07783261 -13.20243591 91.62471918 -13.16455078 87.0012207 C-13.16484283 86.07419342 -13.16513489 85.14716614 -13.16543579 84.19204712 C-13.16404104 81.12403037 -13.14847293 78.05625565 -13.1328125 74.98828125 C-13.12908289 72.86264682 -13.12623567 70.73701067 -13.12423706 68.6113739 C-13.11659654 63.01357283 -13.0969444 57.41587535 -13.0748291 51.81811523 C-13.05437973 46.10727337 -13.04523729 40.39641479 -13.03515625 34.68554688 C-13.01369895 23.47781904 -12.9795579 12.27016813 -12.9375 1.0625 C-8.57071184 0.4103027 -4.41718936 -0.0545332 0 0 Z " fill="#000000" transform="translate(33.9375,5.9375)"/>
</svg>
