<?xml version="1.0" encoding="UTF-8"?>
<!-- Generator: visioncortex VTracer 0.6.4 -->
<svg version="1.1" xmlns="http://www.w3.org/2000/svg" width="36" height="73">
<path d="M0 0 C3.96 0 7.92 0 12 0 C13 1 13 1 13.11352539 4.78540039 C13.11336622 6.47282729 13.10766917 8.16025905 13.09765625 9.84765625 C13.0962413 10.7340831 13.09482635 11.62050995 13.09336853 12.53379822 C13.08775215 15.37673254 13.07519691 18.21958931 13.0625 21.0625 C13.05748711 22.98502491 13.05292384 24.90755104 13.04882812 26.83007812 C13.01571294 40.98428706 13.01571294 40.98428706 12 42 C8.04 42 4.08 42 0 42 C-0.33 28.47 -0.66 14.94 -1 1 C-0.67 0.67 -0.34 0.34 0 0 Z " fill="#000000" transform="translate(15,26)"/>
<path d="M0 0 C1.22589844 0.01353516 1.22589844 0.01353516 2.4765625 0.02734375 C4.375 0.0625 4.375 0.0625 6.375 2.0625 C6.5703125 4.2265625 6.5703125 4.2265625 6.5 6.6875 C6.48195313 7.50476563 6.46390625 8.32203125 6.4453125 9.1640625 C6.375 11.0625 6.375 11.0625 4.375 13.0625 C1.075 13.0625 -2.225 13.0625 -5.625 13.0625 C-5.955 12.7325 -6.285 12.4025 -6.625 12.0625 C-6.625 8.4325 -6.625 4.8025 -6.625 1.0625 C-4.21954362 -0.14022819 -2.67503047 -0.03821472 0 0 Z " fill="#000000" transform="translate(21.625,5.9375)"/>
</svg>
