<?xml version="1.0" encoding="UTF-8"?>
<!-- Generator: visioncortex VTracer 0.6.4 -->
<svg version="1.1" xmlns="http://www.w3.org/2000/svg" width="66" height="114">
<path d="M0 0 C5.94 0 11.88 0 18 0 C18.14572764 7.21429357 18.2879423 14.42864593 18.42724609 21.64306641 C18.47484157 24.08449051 18.52330893 26.52589781 18.57275391 28.96728516 C18.74135286 37.31121284 18.8843083 45.65516912 19 54 C19.01772461 55.20483032 19.03544922 56.40966064 19.05371094 57.65100098 C19.10026539 61.17619451 19.13088171 64.70115926 19.15625 68.2265625 C19.1711145 69.28048187 19.185979 70.33440125 19.20129395 71.42025757 C19.2337589 79.87387525 18.93148349 88.46015922 13 95 C6.77952963 98.77117555 1.03350413 99.60638404 -6.125 99.4375 C-6.97964844 99.44458984 -7.83429687 99.45167969 -8.71484375 99.45898438 C-15.50659712 99.39117117 -20.2296007 98.07779947 -25.75 93.9375 C-30.51100029 87.72174962 -31.33713921 80.69066008 -31.30078125 73.03125 C-31 71 -31 71 -29 69 C-23.39 69 -17.78 69 -12 69 C-11.34 71.97 -10.68 74.94 -10 78 C-8.02 78.66 -6.04 79.32 -4 80 C-3.01 79.01 -2.02 78.02 -1 77 C-1.00222061 76.05008682 -1.00444122 75.10017365 -1.00672913 74.12147522 C-1.02696127 65.18908904 -1.04197249 56.25670748 -1.05181217 47.32430363 C-1.05704082 42.7315736 -1.06413812 38.138862 -1.07543945 33.54614258 C-1.086269 29.11766312 -1.09227698 24.68920144 -1.09487724 20.26070976 C-1.09673137 18.56734372 -1.10035175 16.87397871 -1.10573006 15.18062019 C-1.1129414 12.81708768 -1.1139909 10.45362955 -1.11352539 8.09008789 C-1.11712067 7.38302704 -1.12071594 6.67596619 -1.12442017 5.94747925 C-1.11405216 1.11405216 -1.11405216 1.11405216 0 0 Z " fill="#000000" transform="translate(40,9)"/>
</svg>
