<?xml version="1.0" encoding="UTF-8"?>
<!-- Generator: visioncortex VTracer 0.6.4 -->
<svg version="1.1" xmlns="http://www.w3.org/2000/svg" width="51" height="98">
<path d="M0 0 C3.63 0 7.26 0 11 0 C12.24956796 2.49913591 12.14042304 4.21640175 12.16113281 7.01293945 C12.17074036 8.05774979 12.1803479 9.10256012 12.19024658 10.17903137 C12.19449646 11.31233383 12.19874634 12.44563629 12.203125 13.61328125 C12.20882507 14.77498337 12.21452515 15.93668549 12.22039795 17.1335907 C12.22985796 19.59580573 12.23638589 22.05803348 12.24023438 24.52026367 C12.2499331 28.28652073 12.28094508 32.05223065 12.3125 35.81835938 C12.31903055 38.20833009 12.32428082 40.59830471 12.328125 42.98828125 C12.3404718 44.11551102 12.3528186 45.24274078 12.36553955 46.40412903 C12.36253845 47.45839584 12.35953735 48.51266266 12.35644531 49.59887695 C12.36009094 50.52328079 12.36373657 51.44768463 12.36749268 52.40010071 C11.75315052 56.74638525 9.69168087 59.34378995 6.5625 62.3125 C0.85763092 65.0148064 -5.10071525 64.88931056 -11.2265625 63.4921875 C-14.06075479 62.44293333 -15.90991704 61.09880067 -17.9375 58.875 C-19.40377171 54.90744125 -19.42794952 51.18896746 -19 47 C-18.67 46.34 -18.34 45.68 -18 45 C-13.9472484 44.01751476 -10.16138263 43.91840426 -6 44 C-5.67 45.98 -5.34 47.96 -5 50 C-3.68 50 -2.36 50 -1 50 C-1.00222061 49.38834488 -1.00444122 48.77668976 -1.00672913 48.14649963 C-1.02878122 41.80429669 -1.04390627 35.46210456 -1.05493164 29.11987305 C-1.05997341 26.75007688 -1.06680665 24.38028385 -1.07543945 22.01049805 C-1.0875119 18.61245961 -1.09322971 15.21446215 -1.09765625 11.81640625 C-1.10281754 10.74975235 -1.10797882 9.68309845 -1.11329651 8.5841217 C-1.11340981 7.11270973 -1.11340981 7.11270973 -1.11352539 5.61157227 C-1.115746 4.74331314 -1.11796661 3.87505402 -1.12025452 2.98048401 C-1 1 -1 1 0 0 Z " fill="#000000" transform="translate(27,26)"/>
<path d="M0 0 C1 1 1 1 1.09765625 3.50390625 C1.08605469 4.51324219 1.07445312 5.52257812 1.0625 6.5625 C1.05347656 7.57441406 1.04445313 8.58632812 1.03515625 9.62890625 C1 12 1 12 0 13 C-3.3 13 -6.6 13 -10 13 C-10.33 12.67 -10.66 12.34 -11 12 C-11 8.7 -11 5.4 -11 2 C-7.17679443 0.57741188 -4.08718695 -0.24042276 0 0 Z " fill="#000000" transform="translate(37,6)"/>
</svg>
