<?xml version="1.0" encoding="UTF-8"?>
<!-- Generator: visioncortex VTracer 0.6.4 -->
<svg version="1.1" xmlns="http://www.w3.org/2000/svg" width="77" height="111">
<path d="M0 0 C5.94 0 11.88 0 18 0 C18.91089421 3.64357683 19.10329782 6.29577717 19.0625 10.0078125 C19.05476563 11.15894531 19.04703125 12.31007813 19.0390625 13.49609375 C19.01972656 15.29240234 19.01972656 15.29240234 19 17.125 C18.97457156 19.50255946 18.95351105 21.88017097 18.9375 24.2578125 C18.92589844 25.3111377 18.91429688 26.36446289 18.90234375 27.44970703 C18.82403327 29.99195122 18.82403327 29.99195122 20 32 C23.63 21.44 27.26 10.88 31 0 C36.61 0 42.22 0 48 0 C49.07064897 5.35324484 48.27949715 8.13445519 46.5078125 13.046875 C46.24241669 13.81751282 45.97702087 14.58815063 45.70358276 15.38214111 C44.85545658 17.84223249 43.99183913 20.29644534 43.125 22.75 C42.26622888 25.18954789 41.41135102 27.63014291 40.56784058 30.07501221 C40.0438589 31.5931239 39.51131184 33.10831782 38.96853638 34.61981201 C36.15407591 42.75937747 35.19900921 49.24042342 38.16796875 57.52734375 C38.4040535 58.20116592 38.64013824 58.8749881 38.88337708 59.56922913 C39.6342928 61.69854696 40.41043903 63.81760402 41.1875 65.9375 C41.68980197 67.35293083 42.19046535 68.76894428 42.68945312 70.18554688 C45.03828607 76.80730301 47.46153922 83.37221453 50.3293457 89.79125977 C51 92 51 92 51 98 C44.73 98 38.46 98 32 98 C29.4221176 92.84423521 27.45715147 88.85717156 25.859375 83.53125 C25.54452148 82.49548828 25.22966797 81.45972656 24.90527344 80.39257812 C24.5240332 79.10802734 24.14279297 77.82347656 23.75 76.5 C22.5125 72.375 21.275 68.25 20 64 C20 74.56 20 85.12 20 96 C19.67 96.33 19.34 96.66 19 97 C13.06 97 7.12 97 1 97 C0.67 96.67 0.34 96.34 0 96 C0 64.32 0 32.64 0 0 Z " fill="#000000" transform="translate(19,4)"/>
</svg>
