<?xml version="1.0" encoding="UTF-8"?>
<!-- Generator: visioncortex VTracer 0.6.4 -->
<svg version="1.1" xmlns="http://www.w3.org/2000/svg" width="52" height="77">
<path d="M0 0 C3.3 0 6.6 0 10 0 C11 1 11 1 11.11352539 3.77563477 C11.10828857 4.98533936 11.10305176 6.19504395 11.09765625 7.44140625 C11.09443359 8.74658203 11.09121094 10.05175781 11.08789062 11.39648438 C11.07953401 12.7851569 11.07106905 14.17382877 11.0625 15.5625 C11.05748666 16.95507656 11.05292347 18.34765481 11.04882812 19.74023438 C11.03699434 23.1601987 11.0205088 26.58007844 11 30 C11.66 30 12.32 30 13 30 C13.268125 29.113125 13.53625 28.22625 13.8125 27.3125 C14.91710819 24.23122452 16.22849144 21.73778595 18 19 C19.41655793 18.9727585 20.83327045 18.95349533 22.25 18.9375 C23.43335938 18.92009766 23.43335938 18.92009766 24.640625 18.90234375 C26.90691002 18.99614694 28.8288895 19.36758937 31 20 C30.68978386 26.97986313 27.5048042 32.07291522 24 38 C25.73386576 43.58035437 28.18169005 48.64654271 30.7578125 53.87890625 C31.95846249 56.89563373 32.27392901 58.8021765 32 62 C31.67 62.33 31.34 62.66 31 63 C27.04 63 23.08 63 19 63 C15.23312136 59.23312136 14.32347012 57.85272378 13 53 C12.67 56.3 12.34 59.6 12 63 C7.71 63 3.42 63 -1 63 C-4.66624504 59.33375496 -2.08763314 44.35514236 -2.10362434 38.63453865 C-2.11407249 35.01819127 -2.12825032 31.40193784 -2.15087891 27.78564453 C-2.1725708 24.29731189 -2.18456085 20.80906976 -2.18975449 17.3206749 C-2.19526169 15.33860029 -2.21088034 13.35656221 -2.22659302 11.37454224 C-2.22674408 10.17344818 -2.22689514 8.97235413 -2.22705078 7.73486328 C-2.231492 6.67341095 -2.23593323 5.61195862 -2.24050903 4.51834106 C-2 2 -2 2 0 0 Z " fill="#000000" transform="translate(12,9)"/>
</svg>
