<?xml version="1.0" encoding="UTF-8"?>
<!-- Generator: visioncortex VTracer 0.6.4 -->
<svg version="1.1" xmlns="http://www.w3.org/2000/svg" width="65" height="106">
<path d="M0 0 C6.27 0 12.54 0 19 0 C20.69668207 1.69668207 20.11968993 3.81132018 20.12442017 6.07440186 C20.12082489 6.80016418 20.11722961 7.52592651 20.11352539 8.27368164 C20.11367142 9.03460617 20.11381744 9.7955307 20.1139679 10.57951355 C20.11326862 13.10642298 20.10547555 15.63325962 20.09765625 18.16015625 C20.09579212 19.9075059 20.0943682 21.65485607 20.09336853 23.40220642 C20.08954293 28.01031934 20.07971229 32.61840095 20.06866455 37.22650146 C20.05845134 41.92508521 20.0538711 46.62367399 20.04882812 51.32226562 C20.03809005 60.54819308 20.02049292 69.77408904 20 79 C29.57 79 39.14 79 49 79 C49.9455671 82.7822684 50.13374142 85.75255208 50.125 89.625 C50.12886719 91.34589844 50.12886719 91.34589844 50.1328125 93.1015625 C50 96 50 96 49 98 C33.16 98 17.32 98 1 98 C-0.49474199 95.01051602 -0.0919231 92.32392123 -0.0625 88.98828125 C-0.05386183 87.4550791 -0.04540834 85.9218759 -0.03710938 84.38867188 C-0.03090576 83.56423584 -0.02470215 82.7397998 -0.01831055 81.89038086 C0.11405717 63.2547709 -0.13878849 44.63193796 -0.5 26 C-0.52400879 24.75521881 -0.54801758 23.51043762 -0.57275391 22.22793579 C-0.71019329 15.15185282 -0.85230889 8.07587635 -1 1 C-0.67 0.67 -0.34 0.34 0 0 Z " fill="#000000" transform="translate(9,3)"/>
</svg>
