<?xml version="1.0" encoding="UTF-8"?>
<!-- Generator: visioncortex VTracer 0.6.4 -->
<svg version="1.1" xmlns="http://www.w3.org/2000/svg" width="64" height="56">
<path d="M0 0 C0.66 -0.33 1.32 -0.66 2 -1 C7.41101594 -1.48755092 12.31552836 -1.89177911 17.1875 0.6875 C20.65121299 5.10672002 20.13773366 10.30236707 20.09765625 15.70703125 C20.0962413 16.43242599 20.09482635 17.15782074 20.09336853 17.90519714 C20.08779931 20.2076745 20.07525261 22.51005235 20.0625 24.8125 C20.05748102 26.37955588 20.05291881 27.9466133 20.04882812 29.51367188 C20.01590966 40.98409034 20.01590966 40.98409034 19 42 C15.37 42 11.74 42 8 42 C6.57732138 39.15464275 6.78028131 36.63781448 6.68359375 33.4609375 C6.64169922 32.15898438 6.59980469 30.85703125 6.55664062 29.515625 C6.51682701 28.13541955 6.47711478 26.75521117 6.4375 25.375 C6.39430593 23.98696585 6.35069135 22.59894472 6.30664062 21.2109375 C6.20028 17.80739744 6.09825286 14.40378222 6 11 C5.34 11 4.68 11 4 11 C2.61691219 13.76617563 2.88789804 16.01018 2.90234375 19.1015625 C2.90717773 20.91914062 2.90717773 20.91914062 2.91210938 22.7734375 C2.92048828 24.04445313 2.92886719 25.31546875 2.9375 26.625 C2.94201172 27.90375 2.94652344 29.1825 2.95117188 30.5 C2.96298797 33.66671292 2.97946185 36.83333356 3 40 C2.34 40.66 1.68 41.32 1 42 C-2.63 42 -6.26 42 -10 42 C-11.38308781 39.23382437 -11.11210196 36.98982 -11.09765625 33.8984375 C-11.09443359 32.68671875 -11.09121094 31.475 -11.08789062 30.2265625 C-11.07951172 28.95554687 -11.07113281 27.68453125 -11.0625 26.375 C-11.05798828 25.09625 -11.05347656 23.8175 -11.04882812 22.5 C-11.03701203 19.33328708 -11.02053815 16.16666644 -11 13 C-11.66 12.34 -12.32 11.68 -13 11 C-15.03352174 14.36496446 -15.22492713 16.88979352 -15.16015625 20.7890625 C-15.14919922 21.89507813 -15.13824219 23.00109375 -15.12695312 24.140625 C-15.10568359 25.29046875 -15.08441406 26.4403125 -15.0625 27.625 C-15.02816682 29.90879245 -14.99800338 32.19265264 -14.97265625 34.4765625 C-14.95468994 35.48799316 -14.93672363 36.49942383 -14.91821289 37.54150391 C-15 40 -15 40 -16 42 C-19.96 42 -23.92 42 -28 42 C-28.33 41.67 -28.66 41.34 -29 41 C-29 27.14 -29 13.28 -29 -1 C-24.05 -1 -19.1 -1 -14 -1 C-8.84549584 -2.71816805 -4.88857725 -2.30050694 0 0 Z " fill="#000000" transform="translate(37,7)"/>
</svg>
