<?xml version="1.0" encoding="UTF-8"?>
<!-- Generator: visioncortex VTracer 0.6.4 -->
<svg version="1.1" xmlns="http://www.w3.org/2000/svg" width="100" height="112">
<path d="M0 0 C0.80244141 -0.01611328 1.60488281 -0.03222656 2.43164062 -0.04882812 C3.59663086 -0.04979492 3.59663086 -0.04979492 4.78515625 -0.05078125 C5.48648682 -0.05376221 6.18781738 -0.05674316 6.91040039 -0.05981445 C9.75630249 0.46288827 10.91977211 1.20898925 12.9375 3.3125 C13.88611862 5.94948912 14.60151177 8.38138173 15.2265625 11.09375 C15.5106044 12.24683655 15.5106044 12.24683655 15.80038452 13.42321777 C16.40215569 15.88307139 16.98216266 18.34751232 17.5625 20.8125 C17.95960353 22.44043014 18.3580279 24.06803869 18.7578125 25.6953125 C20.74548596 33.85739481 22.59683681 42.01469477 23.9375 50.3125 C24.5975 50.3125 25.2575 50.3125 25.9375 50.3125 C26.05609375 49.35859375 26.1746875 48.4046875 26.296875 47.421875 C26.96949932 42.7323194 28.07155075 38.16338837 29.1875 33.5625 C29.40639893 32.6552417 29.62529785 31.7479834 29.85083008 30.81323242 C30.53956845 27.97793023 31.23660427 25.14482014 31.9375 22.3125 C32.16550293 21.38969238 32.39350586 20.46688477 32.62841797 19.51611328 C33.28418687 16.88315172 33.95186672 14.25357025 34.625 11.625 C34.82706055 10.81772461 35.02912109 10.01044922 35.23730469 9.17871094 C36.70493387 3.54506613 36.70493387 3.54506613 38.9375 1.3125 C46.8575 1.3125 54.7775 1.3125 62.9375 1.3125 C64.8991218 3.2741218 64.19369756 7.04997402 64.25390625 9.734375 C64.28514587 10.9160878 64.28514587 10.9160878 64.3170166 12.12167358 C64.38413587 14.76850601 64.44261634 17.41543957 64.5 20.0625 C64.52117889 20.96901306 64.54235779 21.87552612 64.56417847 22.80950928 C65.13535858 47.64030107 65.03413215 72.47694179 64.9375 97.3125 C64.6075 97.6425 64.2775 97.9725 63.9375 98.3125 C58.3275 98.3125 52.7175 98.3125 46.9375 98.3125 C46.02562511 87.01751189 45.63720594 75.76265601 45.375 64.4375 C45.33167847 62.67056558 45.28806055 60.9036384 45.24414062 59.13671875 C45.13851911 54.86205473 45.03687711 50.58731356 44.9375 46.3125 C43.99225533 50.40494011 43.05209303 54.49850642 42.11734009 58.59335327 C41.78995535 60.0274295 41.46197579 61.46137007 41.13339233 62.89517212 C38.97886106 72.31707058 37.03131331 81.70873878 35.73828125 91.29296875 C34.82956477 94.71949479 33.64544143 96.08989226 30.9375 98.3125 C29.20869018 98.36699838 27.47937288 98.40551688 25.75 98.4375 C24.78707031 98.46070312 23.82414062 98.48390625 22.83203125 98.5078125 C19.9375 98.3125 19.9375 98.3125 14.9375 96.3125 C11.6375 80.8025 8.3375 65.2925 4.9375 49.3125 C4.6075 65.1525 4.2775 80.9925 3.9375 97.3125 C-1.6725 97.3125 -7.2825 97.3125 -13.0625 97.3125 C-13.3925 96.9825 -13.7225 96.6525 -14.0625 96.3125 C-14.0625 65.2925 -14.0625 34.2725 -14.0625 2.3125 C-8.8348395 0.2214358 -5.47195232 -0.02208213 0 0 Z " fill="#000000" transform="translate(27.0625,4.6875)"/>
</svg>
