<?xml version="1.0" encoding="UTF-8"?>
<!-- Generator: visioncortex VTracer 0.6.4 -->
<svg version="1.1" xmlns="http://www.w3.org/2000/svg" width="83" height="112">
<path d="M0 0 C5.28 0 10.56 0 16 0 C17.72893843 3.65546982 19.45370979 7.31257391 21.16967773 10.97412109 C22.03023161 12.80629843 22.89683569 14.63563031 23.76367188 16.46484375 C28.30810914 26.13732688 32.22218163 36.00558198 36 46 C35.9592334 44.74340576 35.9184668 43.48681152 35.87646484 42.19213867 C35.72812553 37.53519266 35.59343505 32.87793501 35.46289062 28.22045898 C35.40444929 26.20374578 35.3422941 24.18713667 35.27636719 22.1706543 C35.18230994 19.27411855 35.10156368 16.37747249 35.0234375 13.48046875 C34.99124115 12.57725388 34.9590448 11.674039 34.9258728 10.74345398 C34.90570099 9.90280899 34.88552917 9.062164 34.86474609 8.19604492 C34.84253998 7.45658127 34.82033386 6.71711761 34.79745483 5.95524597 C35 4 35 4 37 1 C42.28 1 47.56 1 53 1 C55.12720057 3.12720057 54.43079804 7.76008775 54.55859375 10.6953125 C54.60084579 11.65196808 54.64309784 12.60862366 54.68663025 13.5942688 C55.27173964 28.83680563 55.10996037 44.09983969 55.06866455 59.35064697 C55.0582661 63.60875949 55.05383226 67.86687833 55.04882812 72.125 C55.0170827 96.9829173 55.0170827 96.9829173 54 98 C48.72 98 43.44 98 38 98 C35.37548677 94.50064902 34.17170732 92.23673664 32.73046875 88.23046875 C32.31909668 87.10036377 31.90772461 85.97025879 31.48388672 84.8059082 C31.0560791 83.6118335 30.62827148 82.41775879 30.1875 81.1875 C29.29966744 78.74685317 28.4103525 76.30674506 27.51953125 73.8671875 C27.08979004 72.68866211 26.66004883 71.51013672 26.21728516 70.29589844 C23.94484942 64.1430941 21.49874666 58.06403153 19 52 C18.67 52 18.34 52 18 52 C18 66.52 18 81.04 18 96 C15.94844219 98.05155781 11.88991475 97.45882524 9.0625 97.625 C8.32064453 97.6765625 7.57878906 97.728125 6.81445312 97.78125 C1.24875151 98.12437576 1.24875151 98.12437576 -1 97 C-1.02312143 84.500429 -1.04091406 72.00086305 -1.05181217 59.50127506 C-1.05704144 53.69786387 -1.06413987 47.89446725 -1.07543945 42.09106445 C-1.08626678 36.49549147 -1.0922765 30.89993255 -1.09487724 25.3043499 C-1.09673177 23.16441056 -1.10035291 21.02447204 -1.10573006 18.88453865 C-1.11293844 15.89835034 -1.11399103 12.91222093 -1.11352539 9.92602539 C-1.11712067 9.03194977 -1.12071594 8.13787415 -1.12442017 7.21670532 C-1.11405216 1.11405216 -1.11405216 1.11405216 0 0 Z " fill="#000000" transform="translate(17,5)"/>
</svg>
