<?xml version="1.0" encoding="UTF-8"?>
<!-- Generator: visioncortex VTracer 0.6.4 -->
<svg version="1.1" xmlns="http://www.w3.org/2000/svg" width="49" height="53">
<path d="M0 0 C0.90621094 0.08378906 1.81242188 0.16757812 2.74609375 0.25390625 C10.85518575 0.98442536 10.85518575 0.98442536 18.9375 0.375 C23.44600346 -0.29074163 26.05059069 0.77845726 30 3 C33.81156216 10.62312433 32.12373507 22.42203004 32.0625 30.75 C32.05798828 31.9359375 32.05347656 33.121875 32.04882812 34.34375 C32.01398026 42.98601974 32.01398026 42.98601974 31 44 C27.37 44 23.74 44 20 44 C19.34 43.34 18.68 42.68 18 42 C18.01047363 41.25838623 18.02094727 40.51677246 18.03173828 39.75268555 C18.07327196 36.39765807 18.09931789 33.04268467 18.125 29.6875 C18.14175781 28.52025391 18.15851562 27.35300781 18.17578125 26.15039062 C18.18222656 25.03212891 18.18867188 23.91386719 18.1953125 22.76171875 C18.20578613 21.73006592 18.21625977 20.69841309 18.22705078 19.63549805 C18.19297515 16.76812408 18.19297515 16.76812408 16 14 C15.01 14.99 14.02 15.98 13 17 C13 25.58 13 34.16 13 43 C12.505 43.495 12.505 43.495 12 44 C8.04 44 4.08 44 0 44 C-2.8653109 41.1346891 -1.04645333 29.28972696 -1.05493164 25.1105957 C-1.05997278 23.08031702 -1.06680557 21.05004198 -1.07543945 19.01977539 C-1.08751467 16.10822653 -1.09323034 13.1967255 -1.09765625 10.28515625 C-1.10281754 9.3716188 -1.10797882 8.45808136 -1.11329651 7.51686096 C-1.11349168 5.34424573 -1.06211805 3.17172704 -1 1 C-0.67 0.67 -0.34 0.34 0 0 Z " fill="#000000" transform="translate(12,3)"/>
</svg>
