<?xml version="1.0" encoding="UTF-8"?>
<!-- Generator: visioncortex VTracer 0.6.4 -->
<svg version="1.1" xmlns="http://www.w3.org/2000/svg" width="76" height="119">
<path d="M0 0 C0.886875 0.70125 1.77375 1.4025 2.6875 2.125 C3.43 2.681875 4.1725 3.23875 4.9375 3.8125 C10.27479495 10.86535403 8.98131348 21.55798155 8.953125 29.94140625 C8.9544754 31.3666948 8.95641904 32.7919829 8.95892334 34.2172699 C8.96185604 37.19005766 8.9576365 40.16272445 8.94824219 43.13549805 C8.93683824 46.92690166 8.94342477 50.71802232 8.95538712 54.50941563 C8.96264718 57.44783117 8.96029902 60.38618068 8.95513153 63.32459831 C8.95380702 64.7219032 8.95540024 66.11921428 8.96009064 67.51651192 C9.00625698 85.12732769 9.00625698 85.12732769 4.953125 90.3671875 C4.28796875 90.90601562 3.6228125 91.44484375 2.9375 92 C2.28265625 92.55429688 1.6278125 93.10859375 0.953125 93.6796875 C-6.69837734 98.5608183 -16.56505462 98.12557085 -25.3125 97.125 C-31.8400337 95.28146624 -36.83595935 91.95661657 -40.3125 86.125 C-41.62111028 78.0690649 -41.49402472 69.94154816 -41.515625 61.80078125 C-41.51986607 60.71562257 -41.51986607 60.71562257 -41.52419281 59.60854149 C-41.53908585 55.78907289 -41.54838087 51.96964119 -41.55273438 48.15014648 C-41.55824235 44.21948911 -41.58234701 40.28917403 -41.61070633 36.35862446 C-41.62935819 33.31907661 -41.63453939 30.27961145 -41.63607025 27.24001122 C-41.63908538 25.7907948 -41.64707523 24.34157944 -41.66025543 22.89241982 C-41.67738748 20.86625714 -41.67358055 18.83995051 -41.66894531 16.8137207 C-41.67441376 15.08905327 -41.67441376 15.08905327 -41.67999268 13.32954407 C-41.08677648 8.15668601 -38.9831009 4.20798558 -35 0.875 C-34.44699219 0.39546875 -33.89398438 -0.0840625 -33.32421875 -0.578125 C-24.04089678 -6.56271314 -9.36476015 -5.30080763 0 0 Z M-20.3125 16.125 C-20.9725 16.785 -21.6325 17.445 -22.3125 18.125 C-22.3125 36.275 -22.3125 54.425 -22.3125 73.125 C-20.6625 74.775 -19.0125 76.425 -17.3125 78.125 C-15.3325 77.465 -13.3525 76.805 -11.3125 76.125 C-9.44696422 71.39848445 -9.03584465 67.20716613 -9.125 62.1875 C-9.13289551 61.39915771 -9.14079102 60.61081543 -9.14892578 59.79858398 C-9.1873193 56.90690334 -9.2489033 54.01623757 -9.3125 51.125 C-9.33715332 49.85398438 -9.36180664 48.58296875 -9.38720703 47.2734375 C-9.4568145 43.78015062 -9.5404365 40.28740119 -9.63290405 36.79464722 C-9.66919205 35.39410108 -9.70275771 33.99348167 -9.73355103 32.59280396 C-9.77898107 30.60459738 -9.83846389 28.61672728 -9.8984375 26.62890625 C-9.9298584 25.47205322 -9.9612793 24.3152002 -9.99365234 23.12329102 C-10.29750886 20.26596956 -10.82905626 18.55167602 -12.3125 16.125 C-14.9525 16.125 -17.5925 16.125 -20.3125 16.125 Z " fill="#000000" transform="translate(56.3125,10.875)"/>
</svg>
