<?xml version="1.0" encoding="UTF-8"?>
<!-- Generator: visioncortex VTracer 0.6.4 -->
<svg version="1.1" xmlns="http://www.w3.org/2000/svg" width="60" height="55">
<path d="M0 0 C3.40228828 1.80881149 5.21055297 3.68187324 6.5390625 7.234375 C6.79785156 10.27124023 6.79785156 10.27124023 6.8046875 13.79296875 C6.80855469 15.70239258 6.80855469 15.70239258 6.8125 17.65039062 C6.80621582 18.64099487 6.80621582 18.64099487 6.79980469 19.65161133 C6.78911538 21.66192946 6.79970657 23.67135043 6.8125 25.68164062 C6.80992188 26.95587891 6.80734375 28.23011719 6.8046875 29.54296875 C6.80243164 30.70626709 6.80017578 31.86956543 6.79785156 33.06811523 C6.41100799 37.80110981 5.53035878 40.36400492 1.9453125 43.51171875 C-2.24790138 45.63236935 -5.33742889 45.86594323 -9.9609375 45.796875 C-11.06115234 45.83264648 -11.06115234 45.83264648 -12.18359375 45.86914062 C-16.06633563 45.85872182 -18.72758475 45.45082945 -21.8671875 43.07421875 C-27.33241434 37.09045382 -26.79800976 30.56523564 -26.7734375 22.859375 C-26.79760742 21.35503906 -26.79760742 21.35503906 -26.82226562 19.8203125 C-26.82633697 13.59929527 -26.38263146 8.78251806 -23.4609375 3.234375 C-17.16295181 -2.4762806 -7.90936618 -2.4606917 0 0 Z M-11.4609375 12.234375 C-13.84319291 15.80775812 -13.70126859 17.44058514 -13.6484375 21.671875 C-13.64199219 22.80496094 -13.63554687 23.93804687 -13.62890625 25.10546875 C-13.49123169 27.67005761 -13.21015856 29.79491124 -12.4609375 32.234375 C-10.8109375 32.564375 -9.1609375 32.894375 -7.4609375 33.234375 C-4.93318399 29.44274473 -5.23650715 26.42563469 -5.3359375 22.046875 C-5.34496094 21.29728516 -5.35398437 20.54769531 -5.36328125 19.77539062 C-5.14649454 15.55346637 -5.14649454 15.55346637 -7.4609375 12.234375 C-8.7809375 12.234375 -10.1009375 12.234375 -11.4609375 12.234375 Z " fill="#000000" transform="translate(42.4609375,4.765625)"/>
</svg>
