<?xml version="1.0" encoding="UTF-8"?>
<!-- Generator: visioncortex VTracer 0.6.4 -->
<svg version="1.1" xmlns="http://www.w3.org/2000/svg" width="75" height="110">
<path d="M0 0 C1.8021372 -0.01504747 3.60423802 -0.03549037 5.40625 -0.06152344 C8.00285849 -0.09808529 10.59898103 -0.11497189 13.19580078 -0.12817383 C14.39615463 -0.15139961 14.39615463 -0.15139961 15.62075806 -0.1750946 C21.65224782 -0.17689209 25.83246164 1.02867254 30.34423828 5.28979492 C37.11209088 16.40840991 35.51499496 34.98081275 33.03173828 47.28979492 C31.90743711 50.98546434 30.67757052 53.01209139 27.59423828 55.35229492 C19.03521245 59.78464758 16.43762133 58.43871357 4.09423828 59.16479492 C4.09423828 71.70479492 4.09423828 84.24479492 4.09423828 97.16479492 C-5.31076172 97.65979492 -5.31076172 97.65979492 -14.90576172 98.16479492 C-17.0365687 96.03398794 -16.09207951 91.19099664 -16.11108398 88.23876953 C-16.12098358 87.30228073 -16.13088318 86.36579193 -16.14108276 85.40092468 C-16.17279925 82.28968884 -16.19749513 79.1784377 -16.22216797 76.06713867 C-16.24272874 73.91622001 -16.26372497 71.76530546 -16.28514099 69.61439514 C-16.34045222 63.94102303 -16.38982144 58.26761391 -16.43798828 52.59417725 C-16.48813739 46.80974009 -16.54385777 41.02535696 -16.59912109 35.2409668 C-16.7068133 23.88228894 -16.80823354 12.52356427 -16.90576172 1.16479492 C-14.20407005 -1.53689674 -3.89789931 0.02652354 0 0 Z M4.09423828 18.16479492 C3.43423828 18.82479492 2.77423828 19.48479492 2.09423828 20.16479492 C2.42423828 26.43479492 2.75423828 32.70479492 3.09423828 39.16479492 C6.39423828 39.16479492 9.69423828 39.16479492 13.09423828 39.16479492 C13.75423828 38.50479492 14.41423828 37.84479492 15.09423828 37.16479492 C15.09423828 32.21479492 15.09423828 27.26479492 15.09423828 22.16479492 C11.92931915 18.96399763 11.92931915 18.96399763 7.90673828 18.47729492 C6.01955078 18.32260742 6.01955078 18.32260742 4.09423828 18.16479492 Z " fill="#000000" transform="translate(32.90576171875,2.835205078125)"/>
</svg>
