<?xml version="1.0" encoding="UTF-8"?>
<!-- Generator: visioncortex VTracer 0.6.4 -->
<svg version="1.1" xmlns="http://www.w3.org/2000/svg" width="47" height="81">
<path d="M0 0 C0.76183594 0.08378906 1.52367187 0.16757813 2.30859375 0.25390625 C7.28765547 0.74497476 11.91490938 1.16352723 16.875 0.375 C21.07278816 -0.20295634 23.47236535 0.48026096 27 3 C32.22740888 9.30894175 31.182029 18.97023793 31.1875 26.75 C31.19974609 27.68199219 31.21199219 28.61398438 31.22460938 29.57421875 C31.22654297 30.47269531 31.22847656 31.37117188 31.23046875 32.296875 C31.23457764 33.10479492 31.23868652 33.91271484 31.24291992 34.74511719 C30.96800676 37.29697445 30.37679842 38.83984583 29 41 C24.90805396 44.0063277 22.34302174 45.24022462 17.25390625 45.109375 C16.05423218 45.08568848 16.05423218 45.08568848 14.83032227 45.06152344 C14.22631592 45.0412207 13.62230957 45.02091797 13 45 C12.95101563 46.27617188 12.90203125 47.55234375 12.8515625 48.8671875 C12.77653809 50.53648072 12.70099012 52.20575046 12.625 53.875 C12.57859375 55.13763672 12.57859375 55.13763672 12.53125 56.42578125 C12.47324219 57.63427734 12.47324219 57.63427734 12.4140625 58.8671875 C12.3826416 59.61081543 12.3512207 60.35444336 12.31884766 61.12060547 C12 63 12 63 10 65 C6.7 65 3.4 65 0 65 C-1.7795968 63.2204032 -1.17124664 60.60470219 -1.20532227 58.19506836 C-1.22526749 56.95385727 -1.24521271 55.71264618 -1.26576233 54.43382263 C-1.28274793 53.0691643 -1.29962669 51.70450463 -1.31640625 50.33984375 C-1.33696936 48.95121125 -1.35796566 47.5625851 -1.37937927 46.17396545 C-1.43466647 42.51285941 -1.48404626 38.85169627 -1.53222656 35.19049072 C-1.58239321 31.45702003 -1.63810446 27.72363262 -1.69335938 23.99023438 C-1.80102218 16.6602267 -1.90244894 9.33014995 -2 2 C-1.34 1.34 -0.68 0.68 0 0 Z M14 13 C13.01 13.495 13.01 13.495 12 14 C12 18.95 12 23.9 12 29 C13.32 30.32 14.64 31.64 16 33 C18.16205669 28.68413875 18.06986614 25.44756775 17.625 20.6875 C17.51414062 19.43324219 17.40328125 18.17898437 17.2890625 16.88671875 C17.19367187 15.93410156 17.09828125 14.98148438 17 14 C16.01 13.67 15.02 13.34 14 13 Z " fill="#000000" transform="translate(9,5)"/>
</svg>
