<?xml version="1.0" encoding="UTF-8"?>
<!-- Generator: visioncortex VTracer 0.6.4 -->
<svg version="1.1" xmlns="http://www.w3.org/2000/svg" width="73" height="125">
<path d="M0 0 C6.14224744 6.31774022 6.82646369 13.18870348 6.9375 21.6875 C6.97762207 23.38579956 6.97762207 23.38579956 7.01855469 25.1184082 C7.08508198 28.40049349 7.12919013 31.6820271 7.16210938 34.96459961 C7.18960453 37.43942793 7.22709787 39.9139915 7.265625 42.38867188 C7.33468546 46.98577433 7.38228771 51.58271011 7.41564941 56.1802063 C7.4301323 58.00778059 7.4488808 59.83532642 7.4720459 61.66281128 C7.50203723 64.25845436 7.51144935 66.85342085 7.515625 69.44921875 C7.52791138 70.21913147 7.54019775 70.98904419 7.55285645 71.7822876 C7.52731756 78.15703943 6.35375118 83.77764811 2.03125 88.7109375 C1.2578125 89.34257813 0.484375 89.97421875 -0.3125 90.625 C-1.47265625 91.59566406 -1.47265625 91.59566406 -2.65625 92.5859375 C-4.32547878 93.87414666 -6.05811499 95.08040999 -7.8125 96.25 C-7.3175 102.19 -7.3175 102.19 -6.8125 108.25 C-8.67758628 110.11508628 -12.07139587 109.3841192 -14.5625 109.4375 C-15.81546875 109.47230469 -17.0684375 109.50710937 -18.359375 109.54296875 C-22.02016317 109.23238152 -23.38151378 108.96148463 -25.8125 106.25 C-26.640625 103.76953125 -26.640625 103.76953125 -27.0625 101.0625 C-27.21203125 100.16144531 -27.3615625 99.26039062 -27.515625 98.33203125 C-27.61359375 97.64496094 -27.7115625 96.95789063 -27.8125 96.25 C-28.41578125 95.95867187 -29.0190625 95.66734375 -29.640625 95.3671875 C-36.13204576 92.03771685 -39.5240015 89.1312409 -41.89135742 82.00024414 C-43.44731194 75.4697713 -43.12064649 68.73139232 -43.11328125 62.05859375 C-43.11717514 60.58463929 -43.12151122 59.11068594 -43.12626648 57.63673401 C-43.13369567 54.55962471 -43.13346062 51.48263023 -43.12817383 48.40551758 C-43.12237 44.47601852 -43.13934788 40.5469894 -43.1625185 36.61756802 C-43.17729437 33.57796006 -43.17812256 30.53846449 -43.17500877 27.49882698 C-43.1755196 26.05044687 -43.18071233 24.60206007 -43.19082069 23.15371513 C-43.28788186 7.3101025 -43.28788186 7.3101025 -38.1640625 1.32421875 C-26.24808231 -8.24630833 -12.64444515 -7.86765476 0 0 Z M-23.8125 16.25 C-25.00280484 22.71687575 -24.89499482 29.08943681 -24.76171875 35.64453125 C-24.7428511 36.71370285 -24.72398346 37.78287445 -24.70454407 38.88444519 C-24.66286749 41.13094727 -24.61815295 43.37739484 -24.57055664 45.6237793 C-24.49987194 49.06874116 -24.44577842 52.5137134 -24.39257812 55.95898438 C-24.34996554 58.14585319 -24.30637998 60.33270331 -24.26171875 62.51953125 C-24.24703049 63.55076614 -24.23234222 64.58200104 -24.21720886 65.64448547 C-24.19411148 66.59945419 -24.1710141 67.55442291 -24.1472168 68.53833008 C-24.13087692 69.37801834 -24.11453705 70.2177066 -24.09770203 71.08283997 C-23.93617478 73.54266582 -23.93617478 73.54266582 -21.8125 76.25 C-17.24419027 76.56147566 -15.31242118 76.14884776 -11.8125 73.25 C-11.76177793 65.79356797 -11.72675707 58.33718046 -11.70263672 50.88061523 C-11.69258099 48.34413999 -11.67893465 45.80767632 -11.66162109 43.27124023 C-11.63735437 39.62480814 -11.6260125 35.97852937 -11.6171875 32.33203125 C-11.60686493 31.19852737 -11.59654236 30.0650235 -11.58590698 28.89717102 C-11.58575592 27.83644882 -11.58560486 26.77572662 -11.58544922 25.68286133 C-11.581008 24.75242508 -11.57656677 23.82198883 -11.57199097 22.86335754 C-11.83815877 19.97119328 -12.51651473 17.84351936 -13.8125 15.25 C-17.39132562 13.46058719 -20.99418589 13.43168589 -23.8125 16.25 Z " fill="#000000" transform="translate(56.8125,9.75)"/>
</svg>
