<?xml version="1.0" encoding="UTF-8"?>
<!-- Generator: visioncortex VTracer 0.6.4 -->
<svg version="1.1" xmlns="http://www.w3.org/2000/svg" width="60" height="79">
<path d="M0 0 C1.60488281 0.01450195 1.60488281 0.01450195 3.2421875 0.02929688 C4.35335937 0.05443359 5.46453125 0.07957031 6.609375 0.10546875 C8.29933594 0.12577148 8.29933594 0.12577148 10.0234375 0.14648438 C18.31833423 0.25192798 18.31833423 0.25192798 19.359375 1.29296875 C19.45333557 3.22603373 19.47681017 5.16255713 19.47290039 7.09790039 C19.47282486 8.33911148 19.47274933 9.58032257 19.47267151 10.85914612 C19.46756411 12.22380615 19.4623481 13.58846577 19.45703125 14.953125 C19.455167 16.34175058 19.45374313 17.73037682 19.45274353 19.1190033 C19.44891887 22.7801799 19.43908903 26.44131705 19.42803955 30.10247803 C19.41782432 33.83589138 19.41324567 37.56931109 19.40820312 41.30273438 C19.37601833 63.27632542 19.37601833 63.27632542 17.359375 65.29296875 C14.389375 65.29296875 11.419375 65.29296875 8.359375 65.29296875 C7.699375 64.63296875 7.039375 63.97296875 6.359375 63.29296875 C6.359375 57.02296875 6.359375 50.75296875 6.359375 44.29296875 C4.4825 44.37546875 2.605625 44.45796875 0.671875 44.54296875 C-3.3589232 44.54296875 -5.24758947 44.50875296 -8.828125 42.54296875 C-13.28120095 37.0150124 -11.82473714 29.08037916 -11.828125 22.35546875 C-11.84037109 21.07994141 -11.85261719 19.80441406 -11.86523438 18.49023438 C-11.86716797 17.26111328 -11.86910156 16.03199219 -11.87109375 14.765625 C-11.87520264 13.64422119 -11.87931152 12.52281738 -11.88354492 11.36743164 C-11.55533639 7.21353212 -10.82789327 4.49479169 -7.86816406 1.4987793 C-5.06523323 -0.01850209 -3.17794008 -0.05071181 0 0 Z M1.359375 12.29296875 C1.359375 18.56296875 1.359375 24.83296875 1.359375 31.29296875 C2.679375 31.62296875 3.999375 31.95296875 5.359375 32.29296875 C5.689375 31.96296875 6.019375 31.63296875 6.359375 31.29296875 C6.359375 25.68296875 6.359375 20.07296875 6.359375 14.29296875 C5.699375 13.63296875 5.039375 12.97296875 4.359375 12.29296875 C3.369375 12.29296875 2.379375 12.29296875 1.359375 12.29296875 Z " fill="#000000" transform="translate(30.640625,4.70703125)"/>
</svg>
