<?xml version="1.0" encoding="UTF-8"?>
<!-- Generator: visioncortex VTracer 0.6.4 -->
<svg version="1.1" xmlns="http://www.w3.org/2000/svg" width="51" height="62">
<path d="M0 0 C8.25 0 16.5 0 25 0 C29.90974729 4.90974729 29.90974729 4.90974729 30.09765625 9.26171875 C30.08605469 10.06222656 30.07445313 10.86273438 30.0625 11.6875 C30.05347656 12.49574219 30.04445313 13.30398437 30.03515625 14.13671875 C30 16 30 16 29 17 C25.37 17 21.74 17 18 17 C17.01 15.35 16.02 13.7 15 12 C14.34 12.66 13.68 13.32 13 14 C13.00523682 14.83772949 13.01047363 15.67545898 13.01586914 16.53857422 C13.03290014 19.64338936 13.04544482 22.74818071 13.05493164 25.85302734 C13.06244036 27.85906551 13.0751447 29.86508202 13.08789062 31.87109375 C13.09111328 33.12792969 13.09433594 34.38476562 13.09765625 35.6796875 C13.10289307 36.84226074 13.10812988 38.00483398 13.11352539 39.20263672 C13 42 13 42 12 44 C8.04 44 4.08 44 0 44 C-0.95672661 39.18311427 -1.14601481 34.50237451 -1.1328125 29.609375 C-1.13376923 28.82355042 -1.13472595 28.03772583 -1.13571167 27.22808838 C-1.13638886 25.57751383 -1.13456691 23.92693655 -1.13037109 22.27636719 C-1.12498742 19.74408052 -1.13034638 17.21196891 -1.13671875 14.6796875 C-1.13605845 13.07291627 -1.13477828 11.46614516 -1.1328125 9.859375 C-1.13584885 8.72190826 -1.13584885 8.72190826 -1.13894653 7.5614624 C-1.11498043 2.22996085 -1.11498043 2.22996085 0 0 Z " fill="#000000" transform="translate(15,6)"/>
</svg>
