<?xml version="1.0" encoding="UTF-8"?>
<!-- Generator: visioncortex VTracer 0.6.4 -->
<svg version="1.1" xmlns="http://www.w3.org/2000/svg" width="84" height="113">
<path d="M0 0 C0.7314473 -0.00807175 1.46289459 -0.01614349 2.21650696 -0.02445984 C3.7656519 -0.03828238 5.31482706 -0.04901272 6.86401367 -0.05688477 C8.43799856 -0.06837607 10.01194535 -0.08878279 11.58569336 -0.1184082 C27.91717432 -0.42570717 27.91717432 -0.42570717 34.55078125 4.23828125 C39.2044304 10.24298983 38.73347638 16.65601616 38.73828125 23.92578125 C38.75052734 24.88162109 38.76277344 25.83746094 38.77539062 26.82226562 C38.79182251 34.85745957 38.33091626 42.50263646 33.55078125 49.23828125 C34.19015625 50.12515625 34.82953125 51.01203125 35.48828125 51.92578125 C38.89190397 57.39220562 38.68996296 62.51642326 38.6484375 68.8203125 C38.64702255 69.63449142 38.6456076 70.44867035 38.64414978 71.28752136 C38.63857442 73.87531281 38.62602649 76.46301617 38.61328125 79.05078125 C38.60826306 80.81054562 38.60370071 82.57031136 38.59960938 84.33007812 C38.58861306 88.63284619 38.57136546 92.93554881 38.55078125 97.23828125 C34.88647727 98.24491989 31.60946095 98.33886805 27.80078125 98.30078125 C26.6303125 98.29175781 25.45984375 98.28273438 24.25390625 98.2734375 C21.55078125 98.23828125 21.55078125 98.23828125 20.55078125 97.23828125 C20.36863885 94.70693969 20.24488275 92.19521394 20.15625 89.66015625 C20.08743266 88.09110858 20.0177432 86.52209897 19.94726562 84.953125 C19.84013375 82.47364721 19.73849621 79.99445243 19.65209961 77.51416016 C19.56638804 75.12426376 19.45692971 72.7363891 19.34375 70.34765625 C19.31380196 69.24269806 19.31380196 69.24269806 19.2832489 68.11541748 C19.02903327 63.26165539 17.9461643 60.70804057 14.55078125 57.23828125 C12.24078125 57.23828125 9.93078125 57.23828125 7.55078125 57.23828125 C7.55078125 70.43828125 7.55078125 83.63828125 7.55078125 97.23828125 C2.94557503 97.89616785 -0.84734307 98.35682293 -5.38671875 98.30078125 C-6.82337891 98.28724609 -6.82337891 98.28724609 -8.2890625 98.2734375 C-9.00191406 98.26183594 -9.71476562 98.25023438 -10.44921875 98.23828125 C-10.60285764 85.886428 -10.75103946 73.53452265 -10.89218235 61.18251991 C-10.95788798 55.44748974 -11.0254998 49.71249504 -11.09741211 43.97753906 C-11.16669389 38.44684677 -11.2310415 32.9161174 -11.29191399 27.38532639 C-11.31605874 25.27131426 -11.34200567 23.15732195 -11.36975288 21.04335403 C-11.40820251 18.09094596 -11.44034328 15.13853348 -11.47094727 12.18603516 C-11.48389328 11.30490555 -11.49683929 10.42377594 -11.51017761 9.51594543 C-11.56327091 3.46638557 -11.56327091 3.46638557 -10.44921875 1.23828125 C-6.91677887 0.06080129 -3.67912336 0.03865218 0 0 Z M7.55078125 19.23828125 C7.55078125 24.84828125 7.55078125 30.45828125 7.55078125 36.23828125 C7.88078125 36.56828125 8.21078125 36.89828125 8.55078125 37.23828125 C11.52078125 37.23828125 14.49078125 37.23828125 17.55078125 37.23828125 C20.23276889 34.18123993 20.94365322 32.2939747 20.86328125 28.23828125 C20.85941406 27.39265625 20.85554688 26.54703125 20.8515625 25.67578125 C20.53654399 23.12290396 19.83475121 21.4481419 18.55078125 19.23828125 C14.34688805 17.7248797 12.59294524 18.51797211 7.55078125 19.23828125 Z " fill="#000000" transform="translate(29.44921875,5.76171875)"/>
</svg>
