<?xml version="1.0" encoding="UTF-8"?>
<!-- Generator: visioncortex VTracer 0.6.4 -->
<svg version="1.1" xmlns="http://www.w3.org/2000/svg" width="44" height="60">
<path d="M0 0 C2.55395319 1.95803078 2.95557293 2.86671878 4 6 C4.06740865 7.56118428 4.08514456 9.1250252 4.0625 10.6875 C4.05347656 11.49574219 4.04445313 12.30398437 4.03515625 13.13671875 C4.02355469 13.75160156 4.01195313 14.36648437 4 15 C1.69 15.66 -0.62 16.32 -3 17 C-1.88625 17.556875 -0.7725 18.11375 0.375 18.6875 C2.94190215 19.97095108 3.85689376 20.72360853 5.1953125 23.30859375 C6.57236735 27.91437429 6.79292947 32.25597753 6 37 C3.76533099 41.03227341 1.38693602 43.53768799 -3 45 C-5.43362472 45.17241708 -7.87320596 45.26665768 -10.3125 45.3125 C-11.60800781 45.34988281 -12.90351563 45.38726562 -14.23828125 45.42578125 C-18.58758598 44.93349234 -20.64239299 43.75254341 -24 41 C-26.70238949 36.94641576 -26.22937614 34.81689896 -26 30 C-25.67 29.34 -25.34 28.68 -25 28 C-23.5629191 27.94577053 -22.12524538 27.90710277 -20.6875 27.875 C-19.48673828 27.84019531 -19.48673828 27.84019531 -18.26171875 27.8046875 C-16 28 -16 28 -13 30 C-13 30.66 -13 31.32 -13 32 C-11.35 32 -9.7 32 -8 32 C-8 31.01 -8 30.02 -8 29 C-8.58007812 28.82984375 -9.16015625 28.6596875 -9.7578125 28.484375 C-15.79348374 26.61192254 -20.4683568 24.5316432 -25 20 C-25.13572155 17.60225255 -25.23436868 15.21224755 -25.3125 12.8125 C-25.35439453 12.13896484 -25.39628906 11.46542969 -25.43945312 10.77148438 C-25.53423126 6.88558101 -25.16959861 5.21396864 -22.73046875 2.13671875 C-15.61143564 -3.43425565 -8.3904196 -3.18835945 0 0 Z M-12 11 C-12 12.32 -12 13.64 -12 15 C-10.35 15.33 -8.7 15.66 -7 16 C-7.66 14.35 -8.32 12.7 -9 11 C-9.99 11 -10.98 11 -12 11 Z " fill="#000000" transform="translate(34,8)"/>
</svg>
