<?xml version="1.0" encoding="UTF-8"?>
<!-- Generator: visioncortex VTracer 0.6.4 -->
<svg version="1.1" xmlns="http://www.w3.org/2000/svg" width="73" height="114">
<path d="M0 0 C5.41970479 3.19070514 8.32566509 6.86048603 10.3125 12.8125 C10.5078125 15.92578125 10.5078125 15.92578125 10.4375 19.125 C10.41945312 20.19363281 10.40140625 21.26226563 10.3828125 22.36328125 C10.35960937 23.17152344 10.33640625 23.97976562 10.3125 24.8125 C7.30936252 26.31406874 4.52182478 25.90531204 1.1875 25.875 C-0.09382813 25.86597656 -1.37515625 25.85695313 -2.6953125 25.84765625 C-3.68273438 25.83605469 -4.67015625 25.82445313 -5.6875 25.8125 C-7.0075 22.8425 -8.3275 19.8725 -9.6875 16.8125 C-11.3375 17.1425 -12.9875 17.4725 -14.6875 17.8125 C-16.93150826 21.17851238 -16.78080333 22.74945854 -16.46484375 26.6796875 C-14.02616254 33.37074248 -5.71185153 37.36043511 -0.01367188 41.08789062 C6.64242305 45.61403517 12.25792795 51.46601222 14.83984375 59.2890625 C16.58932558 68.6292713 16.76243697 79.69557259 11.3125 87.8125 C6.27130764 93.3803841 1.48978261 97.45230878 -6.17578125 98.11328125 C-16.09861575 98.1436883 -23.63870905 97.56247849 -31.2109375 90.45703125 C-36.35284067 84.73020259 -35.99125611 78.87065526 -35.890625 71.5078125 C-35.6875 68.8125 -35.6875 68.8125 -34.6875 67.8125 C-29.4075 67.8125 -24.1275 67.8125 -18.6875 67.8125 C-16.69652154 70.79896769 -15.74625074 73.40937262 -14.6875 76.8125 C-12.7075 77.1425 -10.7275 77.4725 -8.6875 77.8125 C-6.46345667 76.07194435 -5.69002308 74.81973284 -4.75 72.125 C-4.65172474 66.91641116 -6.62548897 63.10362337 -10.09375 59.25 C-13.6627385 56.03091234 -17.63616094 53.56753613 -21.6875 51 C-27.55853367 47.15473077 -33.30906458 42.55497423 -35.34375 35.5546875 C-36.56622664 25.80265791 -37.40931763 14.29220203 -31.6875 5.8125 C-23.40664793 -3.23478908 -11.26339361 -5.36272024 0 0 Z " fill="#000000" transform="translate(49.6875,7.1875)"/>
</svg>
