<?xml version="1.0" encoding="UTF-8"?>
<!-- Generator: visioncortex VTracer 0.6.4 -->
<svg version="1.1" xmlns="http://www.w3.org/2000/svg" width="80" height="109">
<path d="M0 0 C1.68106339 0.0001133 1.68106339 0.0001133 3.39608765 0.00022888 C4.59005157 0.00539017 5.7840155 0.01055145 7.01416016 0.01586914 C8.24864899 0.01728409 9.48313782 0.01869904 10.7550354 0.02015686 C14.6877894 0.02574267 18.62048593 0.03829264 22.55322266 0.05102539 C25.22379474 0.05660627 27.89436628 0.06060481 30.56494141 0.06469727 C37.10272135 0.07570747 43.64046789 0.09243154 50.17822266 0.11352539 C52.33522958 4.00957249 52.38596807 6.89527301 52.30322266 11.36352539 C52.28517578 12.62680664 52.26712891 13.89008789 52.24853516 15.19165039 C52.17822266 18.11352539 52.17822266 18.11352539 51.17822266 19.11352539 C40.78322266 19.60852539 40.78322266 19.60852539 30.17822266 20.11352539 C30.17822266 45.85352539 30.17822266 71.59352539 30.17822266 98.11352539 C24.23822266 98.11352539 18.29822266 98.11352539 12.17822266 98.11352539 C10.79610182 95.34928373 11.02282937 93.08010332 10.98876953 89.98657227 C10.972052 88.69763062 10.95533447 87.40868896 10.93811035 86.08068848 C10.93142838 85.38904099 10.9247464 84.69739349 10.91786194 83.98478699 C10.89679805 81.81428378 10.86976984 79.64392711 10.84118652 77.47351074 C10.78145634 72.85357294 10.72944978 68.23356416 10.67822266 63.61352539 C10.61874551 58.28509723 10.55603313 52.95673827 10.48634338 47.62843323 C10.46006277 45.50495642 10.43906009 43.38147176 10.41833496 41.25793457 C10.32798746 34.15574997 10.07165589 27.16334545 9.17822266 20.11352539 C8.48498901 20.08577026 7.79175537 20.05801514 7.07751465 20.02941895 C4.29834345 19.91692704 1.51956425 19.796376 -1.25927734 19.67602539 C-2.2525 19.63670898 -3.24572266 19.59739258 -4.26904297 19.55688477 C-5.21328125 19.51499023 -6.15751953 19.4730957 -7.13037109 19.42993164 C-8.00491943 19.39327393 -8.87946777 19.35661621 -9.78051758 19.31884766 C-11.82177734 19.11352539 -11.82177734 19.11352539 -12.82177734 18.11352539 C-12.49177734 12.50352539 -12.16177734 6.89352539 -11.82177734 1.11352539 C-7.58535627 0.40745521 -4.19716508 -0.00949585 0 0 Z " fill="#000000" transform="translate(19.82177734375,2.886474609375)"/>
</svg>
