<?xml version="1.0" encoding="UTF-8"?>
<!-- Generator: visioncortex VTracer 0.6.4 -->
<svg version="1.1" xmlns="http://www.w3.org/2000/svg" width="35" height="72">
<path d="M0 0 C3.63 0 7.26 0 11 0 C11.66 3.63 12.32 7.26 13 11 C13.969375 11.309375 14.93875 11.61875 15.9375 11.9375 C19 13 19 13 20 14 C20.36090226 21.45864662 20.36090226 21.45864662 18 25 C16.02 25 14.04 25 12 25 C12.33 30.61 12.66 36.22 13 42 C16.465 42.495 16.465 42.495 20 43 C21 44 21 44 21.09765625 46.28515625 C21.08605469 47.20167969 21.07445313 48.11820313 21.0625 49.0625 C21.05347656 49.98160156 21.04445313 50.90070312 21.03515625 51.84765625 C21 54 21 54 20 55 C14.72 55 9.44 55 4 55 C0.09916348 50.12395435 -1.12362652 48.30702282 -1.12939453 42.45263672 C-1.13254669 41.53513641 -1.13569885 40.61763611 -1.13894653 39.67233276 C-1.1369223 38.68475983 -1.13489807 37.69718689 -1.1328125 36.6796875 C-1.13376923 35.66528595 -1.13472595 34.6508844 -1.13571167 33.60574341 C-1.13639217 31.4622593 -1.13454691 29.31877312 -1.13037109 27.17529297 C-1.12500999 23.88113828 -1.13032616 20.58711925 -1.13671875 17.29296875 C-1.13605816 15.21354136 -1.1347774 13.13411406 -1.1328125 11.0546875 C-1.13483673 10.0630661 -1.13686096 9.0714447 -1.13894653 8.04977417 C-1.13421829 6.68298019 -1.13421829 6.68298019 -1.12939453 5.28857422 C-1.12859894 4.48265839 -1.12780334 3.67674255 -1.12698364 2.84640503 C-1 1 -1 1 0 0 Z " fill="#000000" transform="translate(7,5)"/>
</svg>
