<?xml version="1.0" encoding="UTF-8"?>
<!-- Generator: visioncortex VTracer 0.6.4 -->
<svg version="1.1" xmlns="http://www.w3.org/2000/svg" width="70" height="107">
<path d="M0 0 C1.26457031 -0.01160156 2.52914063 -0.02320312 3.83203125 -0.03515625 C7.1875 0.0625 7.1875 0.0625 10.1875 1.0625 C10.19780746 1.7639061 10.20811493 2.46531219 10.21873474 3.18797302 C10.31772399 9.87858482 10.42035843 16.56913036 10.52683926 23.25962734 C10.58142757 26.69722897 10.63472617 30.13483939 10.68481445 33.57250977 C8.81422658 56.92411484 8.81422658 56.92411484 13.1875 78.0625 C15.4975 78.0625 17.8075 78.0625 20.1875 78.0625 C22.57331507 74.48377739 22.45753045 71.9645606 22.41455078 67.8371582 C22.41484283 67.10520233 22.41513489 66.37324646 22.41543579 65.61911011 C22.41404274 63.20037979 22.39848289 60.78195774 22.3828125 58.36328125 C22.37908228 56.68605213 22.37623535 55.00882083 22.37423706 53.33158875 C22.36660132 48.91744977 22.34695335 44.50344244 22.3248291 40.08935547 C22.3043694 35.58497905 22.29523508 31.08058136 22.28515625 26.57617188 C22.26370737 17.73821411 22.22852573 8.9003886 22.1875 0.0625 C27.7975 0.0625 33.4075 0.0625 39.1875 0.0625 C41.35246407 2.22746407 40.44886241 7.2358601 40.50390625 10.24609375 C40.52486862 11.19669678 40.54583099 12.1472998 40.56742859 13.12670898 C40.63420114 16.25105077 40.69290381 19.37546718 40.75 22.5 C40.77018188 23.55816925 40.79036377 24.6163385 40.81115723 25.70657349 C40.93302729 32.15170485 41.04170658 38.5969585 41.14068604 45.04248047 C41.18434697 47.85909463 41.23134081 50.67563546 41.27880859 53.4921875 C41.34289912 57.44461101 41.38909347 61.39681011 41.41867065 65.34963989 C41.43110217 66.76935092 41.44851926 68.18902813 41.47122192 69.60861206 C41.7156181 85.73177684 41.7156181 85.73177684 36.5390625 92.0859375 C35.96929687 92.53195313 35.39953125 92.97796875 34.8125 93.4375 C34.24789062 93.89898437 33.68328125 94.36046875 33.1015625 94.8359375 C25.04922699 99.99600556 13.37478097 99.6999418 4.1875 98.0625 C-0.15138414 96.14809809 -3.04533086 92.84501285 -5.8125 89.0625 C-6.1425 88.7325 -6.4725 88.4025 -6.8125 88.0625 C-7.88684967 81.62342083 -7.90956014 75.33080323 -7.84375 68.81640625 C-7.77378548 54.87176561 -8.02537134 40.94115625 -8.3125 27 C-8.3609024 24.56055134 -8.40908042 22.12109821 -8.45703125 19.68164062 C-8.57294955 13.80854008 -8.69157858 7.93549956 -8.8125 2.0625 C-5.96764444 -0.78235556 -3.98726101 0.02827845 0 0 Z " fill="#000000" transform="translate(21.8125,0.9375)"/>
</svg>
