<?xml version="1.0" encoding="UTF-8"?>
<!-- Generator: visioncortex VTracer 0.6.4 -->
<svg version="1.1" xmlns="http://www.w3.org/2000/svg" width="49" height="61">
<path d="M0 0 C4.29 0 8.58 0 13 0 C13.33 9.57 13.66 19.14 14 29 C14.99 29 15.98 29 17 29 C18.05836661 25.82490018 18.20243789 23.35717617 18.31640625 20.01953125 C18.35830078 18.85615234 18.40019531 17.69277344 18.44335938 16.49414062 C18.48267578 15.27919922 18.52199219 14.06425781 18.5625 12.8125 C18.60568359 11.58595703 18.64886719 10.35941406 18.69335938 9.09570312 C18.79953014 6.06393808 18.90027764 3.031984 19 0 C23.29 0 27.58 0 32 0 C32 13.86 32 27.72 32 42 C31.67 42.33 31.34 42.66 31 43 C22.75 43 14.5 43 6 43 C0.03321191 37.03321191 0.03321191 37.03321191 -0.11352539 32.46826172 C-0.11336682 30.95539441 -0.10770365 29.44252146 -0.09765625 27.9296875 C-0.0962413 27.13345978 -0.09482635 26.33723206 -0.09336853 25.51687622 C-0.08776345 22.9695462 -0.07521014 20.42230353 -0.0625 17.875 C-0.05748565 16.14974085 -0.05292263 14.42448033 -0.04882812 12.69921875 C-0.03779237 8.46611209 -0.02052436 4.23307086 0 0 Z " fill="#000000" transform="translate(10,8)"/>
</svg>
