<?xml version="1.0" encoding="UTF-8"?>
<!-- Generator: visioncortex VTracer 0.6.4 -->
<svg version="1.1" xmlns="http://www.w3.org/2000/svg" width="92" height="113">
<path d="M0 0 C6.27 0 12.54 0 19 0 C20.44047646 4.32142937 21.61895463 8.38170664 22.62109375 12.796875 C22.91991993 14.09895878 23.21874812 15.4010421 23.51757812 16.703125 C23.97690781 18.7211476 24.43510171 20.73942436 24.89282227 22.7578125 C26.67311077 30.58916245 28.5398524 38.34922373 31 46 C31.33 46 31.66 46 32 46 C32.9430259 41.84170854 33.884941 37.68316732 34.82592773 33.52441406 C35.14464992 32.11647118 35.46364993 30.70859115 35.78295898 29.30078125 C36.24800733 27.25017438 36.71210232 25.19935443 37.17578125 23.1484375 C37.32886749 22.47254578 37.48195374 21.79665405 37.63967896 21.10028076 C38.40590174 17.70090675 39.15293063 14.29890659 39.86474609 10.88769531 C40.12980957 9.61764648 40.39487305 8.34759766 40.66796875 7.0390625 C40.90153076 5.89904785 41.13509277 4.7590332 41.37573242 3.58447266 C42 1 42 1 43 0 C48.94 0 54.88 0 61 0 C61.495 0.495 61.495 0.495 62 1 C61.54696226 8.15090855 60.15164842 14.5404582 58.0625 21.375 C53.83456982 35.76336297 50.63514959 50.37378262 47.37719727 65.00537109 C47.16823822 65.94189514 46.95927917 66.87841919 46.74398804 67.84332275 C46.35114485 69.60741548 45.96047461 71.37199411 45.57241821 73.137146 C44.53416635 77.814428 43.34792804 82.40266096 42 87 C41.60161154 88.80750322 41.2236115 90.61974004 40.875 92.4375 C40.58625 93.943125 40.2975 95.44875 40 97 C34.39 97 28.78 97 23 97 C22.36384766 94.1846875 22.36384766 94.1846875 21.71484375 91.3125 C20.14122822 84.4999298 18.38488883 77.7496234 16.5625 71 C16.04919261 69.0825397 15.53588953 67.16507824 15.02268982 65.24758911 C13.24645676 58.61676917 11.45701204 51.98953794 9.66542053 45.362854 C8.56711342 41.2959624 7.47318539 37.22789925 6.37985229 33.15966797 C5.83787212 31.1474024 5.29388717 29.13567565 4.74783325 27.12451172 C3.97411678 24.27441007 3.20711894 21.42257328 2.44140625 18.5703125 C2.20945557 17.72244171 1.97750488 16.87457092 1.73852539 16.00100708 C0.4041693 10.99911266 -0.47388302 6.15173158 -1 1 C-0.67 0.67 -0.34 0.34 0 0 Z " fill="#000000" transform="translate(18,5)"/>
</svg>
