<?xml version="1.0" encoding="UTF-8"?>
<!-- Generator: visioncortex VTracer 0.6.4 -->
<svg version="1.1" xmlns="http://www.w3.org/2000/svg" width="55" height="52">
<path d="M0 0 C3.96 0 7.92 0 12 0 C14.31 4.95 16.62 9.9 19 15 C21.32724184 11.50913723 22.13427859 8.29106676 23.21875 4.27734375 C24 2 24 2 26 0 C29.63 0 33.26 0 37 0 C38.05656435 5.28282175 37.34674892 7.95427195 35.578125 12.78515625 C35.1871463 13.89231239 35.1871463 13.89231239 34.78826904 15.02183533 C34.23579389 16.57792704 33.67732843 18.13190329 33.11328125 19.68383789 C32.25341353 22.05309444 31.41438317 24.42896189 30.578125 26.80664062 C30.03767767 28.32074829 29.49605 29.83443526 28.953125 31.34765625 C28.70298645 32.05503433 28.4528479 32.76241241 28.19512939 33.4912262 C26.87736593 37.08976141 25.51623953 40.08913864 23 43 C20.03 43 17.06 43 14 43 C10.62514293 35.11402745 7.42348003 27.15620866 4.25 19.1875 C3.84918213 18.19741943 3.44836426 17.20733887 3.03540039 16.18725586 C1.01658809 11.08317827 -0.54137175 6.48060754 -1 1 C-0.67 0.67 -0.34 0.34 0 0 Z " fill="#000000" transform="translate(8,5)"/>
</svg>
