<?xml version="1.0" encoding="UTF-8"?>
<!-- Generator: visioncortex VTracer 0.6.4 -->
<svg version="1.1" xmlns="http://www.w3.org/2000/svg" width="108" height="113">
<path d="M0 0 C5.61 0 11.22 0 17 0 C18.73937208 4.3484302 19.63941925 8.14179296 20.2890625 12.70703125 C20.39721283 13.43242599 20.50536316 14.15782074 20.61679077 14.90519714 C20.95860564 17.20682609 21.29192189 19.50959219 21.625 21.8125 C21.85620945 23.37964022 22.08797439 24.94669859 22.3203125 26.51367188 C22.88664253 30.34153044 23.4453575 34.17043123 24 38 C26.30915903 27.78813652 28.40108964 17.7013718 29.31591797 7.25805664 C29.79816398 2.20183602 29.79816398 2.20183602 32 0 C36.95 0 41.9 0 47 0 C48.97221908 2.95832862 49.35775147 4.15449105 49.81640625 7.54296875 C50.0023938 8.89624268 50.0023938 8.89624268 50.19213867 10.27685547 C50.31435791 11.23736816 50.43657715 12.19788086 50.5625 13.1875 C50.75646362 14.65533936 50.75646362 14.65533936 50.9543457 16.15283203 C52.00932088 24.42389141 52.65391118 32.6700002 53 41 C53.66 41 54.32 41 55 41 C55.10957031 40.02804688 55.21914062 39.05609375 55.33203125 38.0546875 C55.86727701 33.36724968 56.42867549 28.68316817 57 24 C57.11778809 23.03239746 57.23557617 22.06479492 57.35693359 21.06787109 C57.72778591 18.06469449 58.11211144 15.06351953 58.5 12.0625 C58.61835205 11.09747559 58.7367041 10.13245117 58.85864258 9.13818359 C58.97747803 8.23793457 59.09631348 7.33768555 59.21875 6.41015625 C59.32123047 5.60715088 59.42371094 4.80414551 59.52929688 3.97680664 C60 2 60 2 62 0 C67.61 0 73.22 0 79 0 C79.1656784 6.5325799 78.59887058 12.51195643 77.42578125 18.9296875 C77.26156677 19.86632736 77.09735229 20.80296722 76.92816162 21.76799011 C76.57704096 23.76961497 76.2228253 25.77069901 75.86575317 27.77127075 C74.92872774 33.02794776 74.01736373 38.28902093 73.109375 43.55078125 C72.92750137 44.60412155 72.74562775 45.65746185 72.5582428 46.74272156 C70.21980957 60.40209389 68.2993248 74.11950517 66.44555664 87.85180664 C66.01261288 90.91088053 65.52135808 93.95486666 65 97 C58.42183137 98.07398671 52.52782527 98.40359383 46 97 C43.37919261 82.72533573 41.14411854 68.48213201 40 54 C39.34 54 38.68 54 38 54 C38.02175293 54.6077124 38.04350586 55.2154248 38.06591797 55.84155273 C38.21669895 63.64841752 37.42332561 71.24358335 36.40087891 78.96459961 C36.12151305 81.08901623 35.85908077 83.21510593 35.59765625 85.34179688 C35.42287747 86.69804623 35.24713278 88.05417154 35.0703125 89.41015625 C34.83465576 91.23752319 34.83465576 91.23752319 34.59423828 93.10180664 C34 96 34 96 32 98 C26.72 97.67 21.44 97.34 16 97 C14.63068077 92.8920423 13.62531519 89.51076337 12.921875 85.3359375 C12.73351074 84.23137207 12.54514648 83.12680664 12.35107422 81.98876953 C12.15271973 80.79622559 11.95436523 79.60368164 11.75 78.375 C11.53746582 77.12187012 11.32493164 75.86874023 11.10595703 74.57763672 C10.00055334 68.05257935 8.91996276 61.52339248 7.83984375 54.99411011 C7.57639932 53.40172627 7.31272671 51.80938017 7.04882812 50.21707153 C6.40993264 46.36195843 5.77357689 42.50647599 5.14355469 38.64990234 C3.80173027 30.49071749 2.31358541 22.39229331 0.57348633 14.30786133 C-0.26557333 9.46817666 -0.20135092 4.89953909 0 0 Z " fill="#000000" transform="translate(12,4)"/>
</svg>
