<?xml version="1.0" encoding="UTF-8"?>
<!-- Generator: visioncortex VTracer 0.6.4 -->
<svg version="1.1" xmlns="http://www.w3.org/2000/svg" width="66" height="55">
<path d="M0 0 C3.96 0 7.92 0 12 0 C13.90318884 2.85478326 14.4619099 4.41941308 15.125 7.6875 C15.29257812 8.49574219 15.46015625 9.30398438 15.6328125 10.13671875 C15.75398438 10.75160156 15.87515625 11.36648437 16 12 C16.33 12 16.66 12 17 12 C17.99 8.04 18.98 4.08 20 0 C23.63 0 27.26 0 31 0 C32.62319476 3.66983162 34.1069425 7.08095153 35 11 C35.20496094 10.28972656 35.40992188 9.57945313 35.62109375 8.84765625 C35.89050781 7.92855469 36.15992188 7.00945313 36.4375 6.0625 C36.70433594 5.14597656 36.97117188 4.22945312 37.24609375 3.28515625 C38 1 38 1 39 0 C42.96 0 46.92 0 51 0 C51.1630797 5.49313098 50.7238106 10.0617888 49.3203125 15.421875 C49.14748749 16.08914612 48.97466248 16.75641724 48.79660034 17.44390869 C48.43295893 18.83994981 48.06467329 20.23478894 47.69189453 21.62841797 C47.12338392 23.75604812 46.57034776 25.88725932 46.01953125 28.01953125 C43.30069154 38.39861692 43.30069154 38.39861692 41 43 C37.37 43 33.74 43 30 43 C27.37104854 39.05657281 26.94072002 35.63640581 26 31 C24.35 34.96 22.7 38.92 21 43 C17.37 43 13.74 43 10 43 C7.32080781 35.37460685 5.27496947 27.65008685 3.3125 19.8125 C2.99216797 18.56791016 2.67183594 17.32332031 2.34179688 16.04101562 C2.03951172 14.83767578 1.73722656 13.63433594 1.42578125 12.39453125 C1.15161377 11.31018799 0.87744629 10.22584473 0.5949707 9.10864258 C0 6 0 6 0 0 Z " fill="#000000" transform="translate(7,6)"/>
</svg>
