<?xml version="1.0" encoding="UTF-8"?>
<!-- Generator: visioncortex VTracer 0.6.4 -->
<svg version="1.1" xmlns="http://www.w3.org/2000/svg" width="72" height="109">
<path d="M0 0 C5.61 0 11.22 0 17 0 C19.39581978 3.99303297 20.76925264 6.91587851 22.125 11.25 C23.04439624 14.91421862 23.04439624 14.91421862 25 18 C25.33773437 17.11957031 25.67546875 16.23914063 26.0234375 15.33203125 C26.46945313 14.17058594 26.91546875 13.00914063 27.375 11.8125 C27.81585938 10.66394531 28.25671875 9.51539063 28.7109375 8.33203125 C29.78828217 5.54725851 30.89106259 2.77234352 32 0 C37.28 0 42.56 0 48 0 C48.495 0.495 48.495 0.495 49 1 C48.46606516 11.14476203 44.85364753 20.41161711 41.11328125 29.7578125 C40.79439941 30.55711182 40.47551758 31.35641113 40.14697266 32.17993164 C39.52053182 33.73551335 38.88391212 35.28704541 38.23583984 36.83374023 C35.52241713 43.52248525 35.32016143 48.08340975 38.125 54.875 C38.80949219 56.57269531 38.80949219 56.57269531 39.5078125 58.3046875 C40.00023437 59.52414063 40.49265625 60.74359375 41 62 C42.01652423 64.660549 43.00899241 67.32985632 44 70 C45.45867771 73.92644714 46.92650771 77.84522505 48.4921875 81.73046875 C48.94851562 82.87128906 49.40484375 84.01210937 49.875 85.1875 C50.28492188 86.19167969 50.69484375 87.19585937 51.1171875 88.23046875 C51.99992155 90.9997539 52.17925691 93.11607269 52 96 C51.34 96.66 50.68 97.32 50 98 C45.05 98 40.1 98 35 98 C32.60764461 94.81019281 31.4537005 93.02165424 30.17578125 89.453125 C29.86962891 88.60878906 29.56347656 87.76445313 29.24804688 86.89453125 C28.93931641 86.02183594 28.63058594 85.14914063 28.3125 84.25 C27.99216797 83.36183594 27.67183594 82.47367187 27.34179688 81.55859375 C26.55505865 79.3745145 25.77470359 77.18837075 25 75 C24.2054739 77.18646304 23.4145142 79.37422221 22.625 81.5625 C22.18414062 82.78066406 21.74328125 83.99882813 21.2890625 85.25390625 C20.0627446 88.81766039 19.00018873 92.36847363 18 96 C14.85826804 97.57086598 11.45554744 97.41960033 8 97.625 C7.26265625 97.6765625 6.5253125 97.728125 5.765625 97.78125 C0.24726055 98.12363028 0.24726055 98.12363028 -2 97 C-1.42861837 90.95967994 0.39092762 85.86723027 2.625 80.25 C3.34539547 78.38685149 4.06543974 76.52356714 4.78515625 74.66015625 C5.87297934 71.8695287 6.96725792 69.0820258 8.07763672 66.30029297 C9.08734859 63.76821719 10.07595668 61.22867329 11.0625 58.6875 C11.52873779 57.55199707 11.52873779 57.55199707 12.00439453 56.39355469 C15.99053454 46.02081976 11.61362228 37.77034167 7.625 28 C7.12411185 26.75556545 6.62410549 25.5107756 6.125 24.265625 C5.1722301 21.89134279 4.2178779 19.51769473 3.26171875 17.14477539 C-1.51409478 5.24128195 -1.51409478 5.24128195 -1 1 C-0.67 0.67 -0.34 0.34 0 0 Z " fill="#000000" transform="translate(13,4)"/>
</svg>
