<?xml version="1.0" encoding="UTF-8"?>
<!-- Generator: visioncortex VTracer 0.6.4 -->
<svg version="1.1" xmlns="http://www.w3.org/2000/svg" width="50" height="55">
<path d="M0 0 C3.63 0 7.26 0 11 0 C14 4.75 14 4.75 14 7 C14.66 7 15.32 7 16 7 C16.309375 6.195625 16.61875 5.39125 16.9375 4.5625 C18 2 18 2 19 1 C22.63 1 26.26 1 30 1 C29.71769203 8.48116133 26.81655817 13.65074114 23 20 C24.09389497 24.15680089 25.79574977 27.31520248 28.125 30.875 C31.07191152 35.59578059 31.60975677 38.51218908 31 44 C27.04 44 23.08 44 19 44 C17.35 41.69 15.7 39.38 14 37 C13.01 38.98 12.02 40.96 11 43 C5.06 43.495 5.06 43.495 -1 44 C-2 43 -2 43 -2.25 40.4609375 C-1.92905395 36.01784057 -0.30324641 33.35221294 2 29.625 C2.3815625 28.98433594 2.763125 28.34367187 3.15625 27.68359375 C4.09250152 26.11537245 5.04467157 24.55667355 6 23 C4.26776709 16.78617761 4.26776709 16.78617761 0.8125 11.4375 C-1.85111246 7.85540048 -1.36593977 5.39127727 -1 1 C-0.67 0.67 -0.34 0.34 0 0 Z " fill="#000000" transform="translate(11,3)"/>
</svg>
