<?xml version="1.0" encoding="UTF-8"?>
<!-- Generator: visioncortex VTracer 0.6.4 -->
<svg version="1.1" xmlns="http://www.w3.org/2000/svg" width="71" height="74">
<path d="M0 0 C0.99386719 0.10183594 1.98773438 0.20367187 3.01171875 0.30859375 C3.77097656 0.39238281 4.53023437 0.47617188 5.3125 0.5625 C4.72196972 5.2474477 3.83802066 9.65828657 2.53515625 14.1953125 C2.18646484 15.41347656 1.83777344 16.63164062 1.47851562 17.88671875 C0.93227539 19.76810547 0.93227539 19.76810547 0.375 21.6875 C0.01470703 22.94949219 -0.34558594 24.21148438 -0.71679688 25.51171875 C-3.43072898 34.93800962 -3.43072898 34.93800962 -4.78759766 38.23803711 C-6.46213853 42.56340436 -6.10250336 47.28083322 -6.24609375 51.87109375 C-6.71269115 55.77316939 -7.6398299 58.2301138 -9.6875 61.5625 C-14.61226509 65.16598665 -19.80599854 65.28047593 -25.6875 64.5625 C-28.89134041 63.26733047 -30.2780657 62.04252642 -32.5 59.4375 C-34.14899879 55.44518714 -33.9381862 51.8241654 -33.6875 47.5625 C-30.0433226 45.1330484 -27.97508728 45.40070425 -23.6875 45.5625 C-22.3675 47.2125 -21.0475 48.8625 -19.6875 50.5625 C-18.4095386 36.2493323 -25.94518821 21.72459669 -31.86328125 9.04296875 C-32.6875 6.5625 -32.6875 6.5625 -32.6875 0.5625 C-28.3975 0.5625 -24.1075 0.5625 -19.6875 0.5625 C-14.8125 12.1875 -14.8125 12.1875 -13.6875 15.5625 C-13.49414062 14.98242188 -13.30078125 14.40234375 -13.1015625 13.8046875 C-11.63020833 9.390625 -10.15885417 4.9765625 -8.6875 0.5625 C-5.3763987 -0.54120043 -3.44001051 -0.36423641 0 0 Z " fill="#000000" transform="translate(52.6875,6.4375)"/>
</svg>
