<?xml version="1.0" encoding="UTF-8"?>
<!-- Generator: visioncortex VTracer 0.6.4 -->
<svg version="1.1" xmlns="http://www.w3.org/2000/svg" width="76" height="114">
<path d="M0 0 C5.28 0 10.56 0 16 0 C20.49423077 4.49423077 20.49423077 4.49423077 22.03515625 8.22265625 C22.53692383 9.40118164 22.53692383 9.40118164 23.04882812 10.60351562 C23.38333984 11.41498047 23.71785156 12.22644531 24.0625 13.0625 C24.73427036 14.68114667 25.41243083 16.29715948 26.09765625 17.91015625 C26.53863647 18.97955444 26.53863647 18.97955444 26.98852539 20.07055664 C28.07157187 22.36953099 28.07157187 22.36953099 31 25 C34.96 17.08 38.92 9.16 43 1 C47.41529789 0.26411702 50.98267011 -0.11130367 55.375 -0.0625 C56.96441406 -0.04896484 56.96441406 -0.04896484 58.5859375 -0.03515625 C61 0 61 0 62 1 C61.54602158 7.57846622 59.74931495 12.3600299 56.78125 18.20703125 C56.36331177 19.0542424 55.94537354 19.90145355 55.51477051 20.77433777 C54.18753501 23.45936318 52.84438306 26.13602566 51.5 28.8125 C50.15911796 31.50844695 48.82153068 34.20600047 47.48522949 36.90422058 C46.65506618 38.57755976 45.82160349 40.24926704 44.98449707 41.91914368 C44.60740601 42.67390488 44.23031494 43.42866608 43.84179688 44.20629883 C43.50950073 44.86833817 43.17720459 45.5303775 42.83483887 46.21247864 C41.31903235 49.45805888 40.87679432 52.02992668 40.88647461 55.56323242 C40.88655014 56.48396042 40.88662567 57.40468842 40.88670349 58.35331726 C40.89186478 59.34402725 40.89702606 60.33473724 40.90234375 61.35546875 C40.9037587 62.37224197 40.90517365 63.3890152 40.90663147 64.43659973 C40.91223293 67.68692964 40.92478568 70.93719088 40.9375 74.1875 C40.94251481 76.38997296 40.94707775 78.59244701 40.95117188 80.79492188 C40.96220283 86.19663804 40.97894238 91.59831412 41 97 C40.67 97.33 40.34 97.66 40 98 C34.06 98 28.12 98 22 98 C21.505 97.505 21.505 97.505 21 97 C21.03542971 94.80335768 21.08034989 92.60653387 21.16816711 90.41136169 C22.26819497 62.69870469 20.03509087 42.50469005 4.90649414 19.04931641 C1.36214296 13.38035159 -1.85772038 7.861763 -1 1 C-0.67 0.67 -0.34 0.34 0 0 Z " fill="#000000" transform="translate(7,6)"/>
</svg>
