<?xml version="1.0" encoding="UTF-8"?>
<!-- Generator: visioncortex VTracer 0.6.4 -->
<svg version="1.1" xmlns="http://www.w3.org/2000/svg" width="72" height="110">
<path d="M0 0 C14.52 0 29.04 0 44 0 C44 5.69524513 43.5443081 9.32523993 41.7265625 14.46875 C41.48700836 15.1746376 41.24745422 15.88052521 41.00064087 16.60780334 C40.48538229 18.12244548 39.96537552 19.63547927 39.44104004 21.14700317 C38.33512515 24.33583473 37.25291223 27.53255205 36.16894531 30.72889709 C35.61157408 32.37135145 35.05297114 34.01338831 34.49316406 35.65501404 C31.90104338 43.25926656 29.38225605 50.88613813 26.90887451 58.52978516 C26.25917109 60.53420599 25.60356902 62.53663453 24.94775391 64.5390625 C24.3626001 66.34697266 24.3626001 66.34697266 23.765625 68.19140625 C23.42305664 69.24529541 23.08048828 70.29918457 22.72753906 71.38500977 C21.86598092 74.0293189 21.86598092 74.0293189 22 77 C22.94637329 77.03758423 22.94637329 77.03758423 23.91186523 77.07592773 C26.75396825 77.19154137 29.59571083 77.31442316 32.4375 77.4375 C33.43072266 77.47681641 34.42394531 77.51613281 35.44726562 77.55664062 C36.39150391 77.59853516 37.33574219 77.64042969 38.30859375 77.68359375 C39.18314209 77.72025146 40.05769043 77.75690918 40.95874023 77.79467773 C43 78 43 78 44 79 C44.23701239 81.85877909 44.42219182 84.69883297 44.5625 87.5625 C44.60568359 88.36880859 44.64886719 89.17511719 44.69335938 90.00585938 C44.79975262 92.00368805 44.90040888 94.0018207 45 96 C44.67 96.33 44.34 96.66 44 97 C27.83 97 11.66 97 -5 97 C-5.98798763 92.06006185 -5.94930172 90.84790517 -4.44873047 86.34619141 C-4.08439911 85.23378082 -3.72006775 84.12137024 -3.34469604 82.97525024 C-2.93961823 81.77943329 -2.53454041 80.58361633 -2.1171875 79.3515625 C-1.70590607 78.10684174 -1.29462463 76.86212097 -0.87088013 75.5796814 C0.22475036 72.26435057 1.33462987 68.95396245 2.4475708 65.64440918 C3.55955858 62.32958554 4.65814632 59.01033331 5.7578125 55.69140625 C7.80786986 49.51082202 9.87158695 43.33488739 11.94104004 37.1607666 C13.33785555 32.99157422 14.72805301 28.82019373 16.1171875 24.6484375 C17.04917969 21.85246094 17.04917969 21.85246094 18 19 C12.06 19 6.12 19 0 19 C-2.05922402 16.94077598 -1.41427579 12.78291876 -1.5625 9.9375 C-1.60568359 9.17888672 -1.64886719 8.42027344 -1.69335938 7.63867188 C-1.79973633 5.75934562 -1.90039934 3.87969756 -2 2 C-1.34 1.34 -0.68 0.68 0 0 Z " fill="#000000" transform="translate(20,6)"/>
</svg>
