<?xml version="1.0" encoding="UTF-8"?>
<!-- Generator: visioncortex VTracer 0.6.4 -->
<svg version="1.1" xmlns="http://www.w3.org/2000/svg" width="44" height="51">
<path d="M0 0 C7.59 0 15.18 0 23 0 C23 7.87115385 23 7.87115385 21.46875 11.98828125 C21.15292969 12.85904297 20.83710938 13.72980469 20.51171875 14.62695312 C20.17785156 15.51318359 19.84398438 16.39941406 19.5 17.3125 C18.84122509 19.09933155 18.18485037 20.88705044 17.53125 22.67578125 C17.23798828 23.45864502 16.94472656 24.24150879 16.64257812 25.0480957 C15.89576765 26.97412526 15.89576765 26.97412526 16 29 C17.06541016 29.09087891 17.06541016 29.09087891 18.15234375 29.18359375 C19.07144531 29.26738281 19.99054687 29.35117187 20.9375 29.4375 C22.31228516 29.55931641 22.31228516 29.55931641 23.71484375 29.68359375 C26 30 26 30 27 31 C27.07226502 32.85287502 27.0838122 34.70833878 27.0625 36.5625 C27.05347656 37.57441406 27.04445313 38.58632813 27.03515625 39.62890625 C27 42 27 42 26 43 C16.76 43 7.52 43 -2 43 C-2 35.125 -2 35.125 -0.46875 30.50390625 C-0.15292969 29.53388672 0.16289062 28.56386719 0.48828125 27.56445312 C0.82214844 26.57380859 1.15601563 25.58316406 1.5 24.5625 C2.00080078 23.03592773 2.00080078 23.03592773 2.51171875 21.47851562 C3.33200798 18.98249267 4.16161493 16.48999091 5 14 C2.69 13.34 0.38 12.68 -2 12 C-2.05395478 10.37536158 -2.09277195 8.75021459 -2.125 7.125 C-2.14820313 6.22007813 -2.17140625 5.31515625 -2.1953125 4.3828125 C-2 2 -2 2 0 0 Z " fill="#000000" transform="translate(11,3)"/>
</svg>
