<?xml version="1.0" encoding="UTF-8"?>
<!-- Generator: visioncortex VTracer 0.6.4 -->
<svg version="1.1" xmlns="http://www.w3.org/2000/svg" width="124" height="119">
<path d="M0 0 C0.94101563 0.00322266 1.88203125 0.00644531 2.8515625 0.00976562 C3.83640625 0.01814453 4.82125 0.02652344 5.8359375 0.03515625 C6.82851562 0.03966797 7.82109375 0.04417969 8.84375 0.04882812 C16.19746377 0.08418252 16.19746377 0.08418252 19.2109375 3.09765625 C19.4169382 10.40493238 18.62578162 17.29715856 17.53125 24.515625 C17.35842499 25.69046951 17.18559998 26.86531403 17.00753784 28.07575989 C16.45639502 31.81315164 15.89637492 35.54914814 15.3359375 39.28515625 C14.96684705 41.77530164 14.59835195 44.26553535 14.23046875 46.75585938 C12.99814419 55.08801991 11.76426254 63.41994928 10.51123047 71.74902344 C10.23883545 73.59028809 10.23883545 73.59028809 9.9609375 75.46875 C9.81398438 76.44900146 9.66703125 77.42925293 9.515625 78.43920898 C9.03178179 82.66081856 9.03503859 86.85653811 9.2109375 91.09765625 C12.54405225 92.88014805 15.45574693 93.58558481 19.2109375 94.09765625 C19.2109375 95.41765625 19.2109375 96.73765625 19.2109375 98.09765625 C3.0409375 98.42765625 -13.1290625 98.75765625 -29.7890625 99.09765625 C-29.4590625 97.44765625 -29.1290625 95.79765625 -28.7890625 94.09765625 C-27.6959375 93.74703125 -26.6028125 93.39640625 -25.4765625 93.03515625 C-22.49123376 91.71368276 -21.84891061 91.19384072 -20.0390625 88.28515625 C-17.13858789 79.87019904 -15.8872434 70.88310347 -14.7890625 62.09765625 C-27.1640625 63.08765625 -27.1640625 63.08765625 -39.7890625 64.09765625 C-45.60933805 74.57415225 -46.85190879 79.16253563 -43.7890625 90.09765625 C-40.12614312 92.57551348 -37.178144 93.58729794 -32.7890625 94.09765625 C-33.1190625 95.74765625 -33.4490625 97.39765625 -33.7890625 99.09765625 C-39.55484708 99.12238415 -45.32060075 99.14052953 -51.08642578 99.15258789 C-53.04769427 99.15761512 -55.00895902 99.16443782 -56.97021484 99.1730957 C-59.79004847 99.1852317 -62.60983252 99.19090069 -65.4296875 99.1953125 C-66.74395721 99.20305443 -66.74395721 99.20305443 -68.08477783 99.21095276 C-68.90532654 99.21102829 -69.72587524 99.21110382 -70.57128906 99.21118164 C-71.29076721 99.21340225 -72.01024536 99.21562286 -72.75152588 99.21791077 C-74.87278474 99.092715 -76.74872537 98.6768419 -78.7890625 98.09765625 C-78.7890625 96.77765625 -78.7890625 95.45765625 -78.7890625 94.09765625 C-77.5103125 94.13890625 -76.2315625 94.18015625 -74.9140625 94.22265625 C-67.85024899 93.40334246 -64.10306506 88.32778613 -59.7890625 83.09765625 C-56.59221613 78.88893851 -53.6607287 74.53155546 -50.7890625 70.09765625 C-49.891966 68.72523498 -48.99482895 67.35284021 -48.09765625 65.98046875 C-45.75593343 62.38587309 -43.43461344 58.77853691 -41.11914062 55.16699219 C-39.86455203 53.21510289 -38.60203514 51.26865651 -37.3359375 49.32421875 C-33.879844 44.00559028 -30.50223627 38.66832718 -27.3515625 33.16015625 C-24.2850539 27.82400439 -20.94179195 22.72129355 -17.49829102 17.62475586 C-14.26939343 12.84494605 -11.18103276 7.99130008 -8.1640625 3.07421875 C-5.85203212 -0.24932492 -3.82467443 -0.02304021 0 0 Z M-8.7890625 14.09765625 C-20.13205315 30.78354082 -20.13205315 30.78354082 -30.7890625 47.91015625 C-31.20333496 48.60165771 -31.61760742 49.29315918 -32.04443359 50.00561523 C-34.26168223 53.79444745 -34.26168223 53.79444745 -34.7890625 58.09765625 C-28.1890625 58.09765625 -21.5890625 58.09765625 -14.7890625 58.09765625 C-12.29259008 55.60118383 -12.28737121 54.23474413 -11.75390625 50.77734375 C-11.5847168 49.69114746 -11.41552734 48.60495117 -11.24121094 47.48583984 C-11.07137695 46.32648926 -10.90154297 45.16713867 -10.7265625 43.97265625 C-10.5502832 42.8017041 -10.37400391 41.63075195 -10.19238281 40.42431641 C-8.91395555 31.65053535 -8.0568131 22.96020119 -7.7890625 14.09765625 C-8.1190625 14.09765625 -8.4490625 14.09765625 -8.7890625 14.09765625 Z " fill="#000000" transform="translate(83.7890625,7.90234375)"/>
</svg>
