<?xml version="1.0" encoding="UTF-8"?>
<!-- Generator: visioncortex VTracer 0.6.4 -->
<svg version="1.1" xmlns="http://www.w3.org/2000/svg" width="121" height="113">
<path d="M0 0 C7.0616963 -0.07655567 14.12328413 -0.12881072 21.18530273 -0.16479492 C23.58378092 -0.17980862 25.98223199 -0.20022579 28.38061523 -0.22631836 C31.84365564 -0.26302904 35.3063306 -0.27980116 38.76953125 -0.29296875 C39.82831985 -0.30845261 40.88710846 -0.32393646 41.97798157 -0.33988953 C51.28478882 -0.34195657 60.64882114 0.84552468 68 7 C68.83724609 7.68835938 68.83724609 7.68835938 69.69140625 8.390625 C73.47882835 12.01108418 74.42606442 14.81947561 74.5625 20.0625 C74.18509518 26.65067543 72.6794606 30.63584 67.8125 35.125 C61.25010745 40.38315135 54.04135181 42.82488025 46 45 C46.59167969 45.43570313 47.18335937 45.87140625 47.79296875 46.3203125 C54.08952256 51.06583919 59.42737915 55.2933716 62 63 C63.16267369 72.6799344 61.21845965 80.030657 55.375 87.75 C47.59926444 96.19166757 35.76471777 98.1533793 24.8125 98.625 C24.02496338 98.66222168 23.23742676 98.69944336 22.42602539 98.73779297 C3.63980095 99.50631228 -15.24861131 99.4228696 -34 98 C-34 96.68 -34 95.36 -34 94 C-33.18015625 93.91363281 -32.3603125 93.82726562 -31.515625 93.73828125 C-30.43796875 93.59777344 -29.3603125 93.45726563 -28.25 93.3125 C-27.18265625 93.18488281 -26.1153125 93.05726562 -25.015625 92.92578125 C-21.12843684 91.73243463 -20.28016641 90.34156546 -18 87 C-16.90225587 84.42321411 -15.94353781 81.93952491 -15.0625 79.29296875 C-14.80799072 78.54935593 -14.55348145 77.8057431 -14.29125977 77.03959656 C-11.54628989 68.88578928 -9.24534159 60.61494622 -7 52.3125 C-6.56965884 50.73475295 -6.13890869 49.15711741 -5.70776367 47.57958984 C-5.06657353 45.23247059 -4.42603989 42.88518924 -3.78837585 40.53710938 C-2.55757485 36.010014 -1.29124845 31.49528789 0.01171875 26.98828125 C0.29982422 25.97918701 0.58792969 24.97009277 0.88476562 23.93041992 C1.40150348 22.12450913 1.92687325 20.32103448 2.46289062 18.52075195 C3.74694035 13.97028442 4.24727546 10.70185052 3 6 C2.01 5.34 1.02 4.68 0 4 C0 2.68 0 1.36 0 0 Z M34 4 C30.68679008 10.79972621 29.09569933 17.98984222 27.3125 25.3125 C26.98942276 26.61275217 26.66585898 27.91288356 26.34179688 29.21289062 C24.69477283 35.03851961 24.69477283 35.03851961 24 41 C32.01675798 41.62446422 32.01675798 41.62446422 39.5 39.1875 C43.22487198 35.3206241 44.47916699 30.01536931 46 25 C46.30035156 24.14664062 46.60070312 23.29328125 46.91015625 22.4140625 C48.91643941 16.49786008 49.35758052 11.22454983 49 5 C46.11584117 3.55792059 43.58278472 3.90605113 40.375 3.9375 C38.59222656 3.95103516 38.59222656 3.95103516 36.7734375 3.96484375 C35.40058594 3.98224609 35.40058594 3.98224609 34 4 Z M23 45 C19.77224649 52.46871262 17.48458175 60.00868587 15.4375 67.875 C15.14681641 68.96941406 14.85613281 70.06382813 14.55664062 71.19140625 C12.63822581 78.44447344 10.80219294 85.71726682 9 93 C10.66346496 94.66346496 12.77097964 94.24546587 15.0625 94.375 C19.13862593 94.35928229 21.70752746 94.12250007 24.9375 91.5625 C31.0983015 84.99170464 33.06904459 75.94433884 35.25 67.4375 C35.518125 66.44814453 35.78625 65.45878906 36.0625 64.43945312 C37.53247201 58.78831071 38.30538222 53.8369647 38 48 C35.22957891 45.22957891 33.23466195 45.60203894 29.375 45.375 C28.18648437 45.30023438 26.99796875 45.22546875 25.7734375 45.1484375 C24.40058594 45.07496094 24.40058594 45.07496094 23 45 Z " fill="#000000" transform="translate(41,6)"/>
</svg>
