<?xml version="1.0" encoding="UTF-8"?>
<!-- Generator: visioncortex VTracer 0.6.4 -->
<svg version="1.1" xmlns="http://www.w3.org/2000/svg" width="109" height="128">
<path d="M0 0 C1.6642135 0.67276716 3.32986582 1.34206835 5 2 C6.0725 1.505 7.145 1.01 8.25 0.5 C11.25416808 -0.88653911 12.45934895 -1 16 -1 C16.84719003 9.37807791 13.20559029 19.63683767 9 29 C7.35 29 5.7 29 4 29 C3.85304688 27.78183594 3.70609375 26.56367187 3.5546875 25.30859375 C2.46649228 14.15292707 2.46649228 14.15292707 -3.39453125 5.0625 C-7.00109364 2.67567526 -9.76567018 1.9748096 -14.0625 2.0625 C-17.88549429 3.28260456 -19.37857554 4.96910577 -22 8 C-23.17390688 10.45257648 -24.12621594 12.70811468 -25 15.2578125 C-25.24999756 15.95641388 -25.49999512 16.65501526 -25.75756836 17.37478638 C-28.48014826 25.11585473 -30.78452071 32.97656896 -33 40.875 C-33.31816681 41.9992186 -33.31816681 41.9992186 -33.64276123 43.14614868 C-36.50582255 53.27841464 -39.21285217 63.43736441 -41.625 73.6875 C-41.8725 74.72438965 -42.12 75.7612793 -42.375 76.82958984 C-43.62689185 82.35724467 -44.25544328 87.33319258 -44 93 C-41.70131653 94.99219234 -39.91476289 96.01480731 -36.828125 95.96484375 C-26.63921728 94.29373309 -17.43286896 89.0781419 -11 81 C-7.32501 75.87789855 -3.68897096 70.71918188 -1 65 C0.98 65 2.96 65 5 65 C4.49877075 69.76167791 2.26389984 72.98902304 -0.5 76.75 C-0.95068848 77.36689697 -1.40137695 77.98379395 -1.86572266 78.61938477 C-8.94584957 88.12453585 -18.61406441 99.03832328 -31 101 C-40.43649949 101.72908936 -49.17857121 102.13474663 -57 96 C-63.48444492 89.64242465 -67.09947901 80.97992004 -67.53125 71.9765625 C-67.54822936 69.85941746 -67.53712146 67.74188767 -67.5 65.625 C-67.48718994 64.51664795 -67.47437988 63.4082959 -67.46118164 62.26635742 C-67.26870623 54.52450529 -66.45354793 48.00927184 -63 41 C-62.50242187 39.86820313 -62.00484375 38.73640625 -61.4921875 37.5703125 C-57.77974986 29.37841379 -53.03354885 22.64233936 -47 16 C-46.45988281 15.36707031 -45.91976562 14.73414062 -45.36328125 14.08203125 C-34.12702067 1.71365373 -16.10717701 -8.211502 0 0 Z " fill="#000000" transform="translate(79,19)"/>
</svg>
