<?xml version="1.0" encoding="UTF-8"?>
<!-- Generator: visioncortex VTracer 0.6.4 -->
<svg version="1.1" xmlns="http://www.w3.org/2000/svg" width="118" height="111">
<path d="M0 0 C6.96387985 7.30777515 9.50416352 16.61952658 9.39453125 26.53515625 C8.30228908 47.42886055 1.14957609 64.50737274 -14.27734375 79.0546875 C-26.98187101 89.87506877 -36.95350852 91.69963886 -53.1953125 91.6328125 C-55.14480553 91.63069008 -55.14480553 91.63069008 -57.13368225 91.62852478 C-60.56790128 91.62472959 -64.00207717 91.61492533 -67.4362793 91.6038208 C-70.94905006 91.5935418 -74.46182787 91.58901333 -77.97460938 91.58398438 C-84.85158008 91.57330001 -91.72852234 91.55626013 -98.60546875 91.53515625 C-98.60546875 89.88515625 -98.60546875 88.23515625 -98.60546875 86.53515625 C-97.88101563 86.509375 -97.1565625 86.48359375 -96.41015625 86.45703125 C-90.42179995 86.10571435 -86.23725329 85.70376233 -81.60546875 81.53515625 C-79.03920849 77.80159403 -77.75876331 74.20767297 -76.5546875 69.85546875 C-76.28567627 68.89377777 -76.28567627 68.89377777 -76.01123047 67.91265869 C-75.4310517 65.83046852 -74.86179717 63.74547295 -74.29296875 61.66015625 C-73.89280152 60.214226 -73.49216283 58.76842614 -73.09106445 57.32275391 C-70.49750604 47.94188165 -67.98917505 38.53894204 -65.57641602 29.10986328 C-63.97019179 22.84164327 -62.20712696 16.64775801 -60.26953125 10.47265625 C-59.50508818 7.09111983 -59.49315794 3.99087334 -59.60546875 0.53515625 C-62.36770153 -2.22707653 -64.81253492 -2.04340666 -68.60546875 -2.46484375 C-68.60546875 -3.78484375 -68.60546875 -5.10484375 -68.60546875 -6.46484375 C-63.66167247 -6.60909855 -58.71782585 -6.75143699 -53.77392578 -6.89208984 C-52.09617669 -6.94008075 -50.41844184 -6.98857233 -48.74072266 -7.03759766 C-8.9848274 -8.19783522 -8.9848274 -8.19783522 0 0 Z M-28.60546875 -2.46484375 C-31.59213388 4.97346465 -33.71056968 12.63565321 -35.85546875 20.34765625 C-36.05177887 21.04879547 -36.24808899 21.74993469 -36.4503479 22.47232056 C-39.47897226 33.28940488 -42.35681615 44.14009281 -45.13598633 55.02416992 C-47.22582387 63.17730639 -49.473488 71.27594503 -51.82885742 79.35620117 C-53.05747593 82.89222284 -53.05747593 82.89222284 -53.60546875 86.53515625 C-40.66374479 88.16507527 -40.66374479 88.16507527 -36.98046875 83.97265625 C-27.80739473 73.09047965 -25.17978527 56.42925716 -21.70849609 43.01782227 C-20.85195802 39.70909461 -19.981887 36.40415694 -19.109375 33.09960938 C-18.54999944 30.96765289 -17.99137903 28.8354981 -17.43359375 26.703125 C-17.17837952 25.72997849 -16.92316528 24.75683197 -16.66021729 23.75419617 C-13.0105485 11.74057041 -13.0105485 11.74057041 -13.60546875 -0.46484375 C-15.54637701 -2.40575201 -19.07840777 -1.8640381 -21.66796875 -2.02734375 C-22.95832031 -2.11113281 -24.24867187 -2.19492188 -25.578125 -2.28125 C-27.07666016 -2.37212891 -27.07666016 -2.37212891 -28.60546875 -2.46484375 Z " fill="#000000" transform="translate(105.60546875,13.46484375)"/>
</svg>
