<?xml version="1.0" encoding="UTF-8"?>
<!-- Generator: visioncortex VTracer 0.6.4 -->
<svg version="1.1" xmlns="http://www.w3.org/2000/svg" width="131" height="118">
<path d="M0 0 C0.72264038 -0.00014603 1.44528076 -0.00029205 2.18981934 -0.0004425 C4.55968307 0.00024978 6.92946654 0.00800993 9.29931641 0.01586914 C10.94983884 0.01773575 12.60036183 0.01915851 14.25088501 0.02015686 C18.58109077 0.02396289 22.91126264 0.03377673 27.24145508 0.04486084 C31.66568544 0.05511622 36.08992132 0.0596633 40.51416016 0.06469727 C66.50914068 0.09678717 66.50914068 0.09678717 67.52587891 1.11352539 C66.91674951 10.09818395 64.83337116 19.13597247 60.52587891 27.11352539 C59.20587891 27.11352539 57.88587891 27.11352539 56.52587891 27.11352539 C56.34412109 26.38907227 56.16236328 25.66461914 55.97509766 24.91821289 C53.76707364 15.48076871 53.76707364 15.48076871 48.03759766 7.96899414 C43.3996123 5.51844571 39.79795781 5.66198314 34.65087891 5.86352539 C33.77173828 5.88157227 32.89259766 5.89961914 31.98681641 5.91821289 C29.8326957 5.9650416 27.67914117 6.03677545 25.52587891 6.11352539 C24.24957171 10.19516761 22.98087087 14.27913797 21.71337891 18.36352539 C21.35695313 19.50305664 21.00052734 20.64258789 20.63330078 21.81665039 C18.58594252 28.42830275 16.7288506 35.04112005 15.13256836 41.77661133 C14.52587891 44.11352539 14.52587891 44.11352539 13.52587891 46.11352539 C21.14201646 45.31472615 26.38579432 44.00289344 31.52587891 38.11352539 C32.18587891 37.12352539 32.84587891 36.13352539 33.52587891 35.11352539 C35.17587891 35.11352539 36.82587891 35.11352539 38.52587891 35.11352539 C38.9668556 41.66386667 37.33496027 47.28850724 35.52587891 53.55102539 C35.23970703 54.56874023 34.95353516 55.58645508 34.65869141 56.63500977 C33.95580587 59.13025342 33.24469685 61.62283396 32.52587891 64.11352539 C30.87587891 64.44352539 29.22587891 64.77352539 27.52587891 65.11352539 C27.21134766 64.42645508 26.89681641 63.73938477 26.57275391 63.03149414 C26.14478516 62.13043945 25.71681641 61.22938477 25.27587891 60.30102539 C24.85822266 59.40770508 24.44056641 58.51438477 24.01025391 57.59399414 C22.43157147 54.95593271 21.16670573 53.65739338 18.52587891 52.11352539 C15.3585547 51.86265815 15.3585547 51.86265815 12.52587891 52.11352539 C9.59393012 60.52983146 7.22832194 69.0947753 4.83837891 77.67602539 C4.41866054 79.17673336 3.99874028 80.67738489 3.57861328 82.17797852 C2.55870652 85.82251421 1.54153448 89.4678028 0.52587891 93.11352539 C15.18546114 94.15267632 15.18546114 94.15267632 28.52587891 89.11352539 C29.18201172 88.68942383 29.83814453 88.26532227 30.51416016 87.82836914 C36.96502662 83.33155155 44.36909987 77.4571903 47.52587891 70.11352539 C49.17587891 70.11352539 50.82587891 70.11352539 52.52587891 70.11352539 C52.80572247 76.49101283 51.84627394 81.85462425 50.15087891 87.98852539 C49.92916016 88.84188477 49.70744141 89.69524414 49.47900391 90.57446289 C47.79153773 96.84786657 47.79153773 96.84786657 45.52587891 99.11352539 C15.82587891 99.11352539 -13.87412109 99.11352539 -44.47412109 99.11352539 C-44.47412109 97.79352539 -44.47412109 96.47352539 -44.47412109 95.11352539 C-43.58208984 94.9549707 -42.69005859 94.79641602 -41.77099609 94.63305664 C-40.01529297 94.28307617 -40.01529297 94.28307617 -38.22412109 93.92602539 C-37.06396484 93.7055957 -35.90380859 93.48516602 -34.70849609 93.25805664 C-30.71583918 91.84519616 -29.65225644 90.72951478 -27.47412109 87.11352539 C-26.11519542 84.03216733 -25.0675433 80.88029594 -24.03662109 77.67602539 C-23.71169678 76.6826416 -23.38677246 75.68925781 -23.05200195 74.66577148 C-19.29761794 62.93236479 -15.92356575 51.08197423 -12.53662109 39.23852539 C-12.24377228 38.22307648 -11.95092346 37.20762756 -11.64920044 36.16140747 C-10.80144861 33.21314108 -9.96606664 30.26164259 -9.13427734 27.30883789 C-8.88045288 26.43030655 -8.62662842 25.55177521 -8.3651123 24.6466217 C-6.74314973 18.81615353 -5.88739897 13.14978949 -5.47412109 7.11352539 C-7.44234995 5.14529653 -10.82220819 5.45104158 -13.47412109 5.11352539 C-13.47412109 3.79352539 -13.47412109 2.47352539 -13.47412109 1.11352539 C-8.92645761 0.22853453 -4.62979566 -0.00790068 0 0 Z " fill="#000000" transform="translate(53.47412109375,7.886474609375)"/>
</svg>
