<?xml version="1.0" encoding="UTF-8"?>
<!-- Generator: visioncortex VTracer 0.6.4 -->
<svg version="1.1" xmlns="http://www.w3.org/2000/svg" width="124" height="114">
<path d="M0 0 C26.4 0 52.8 0 80 0 C80 10.125 80 10.125 78.90625 13.59765625 C78.68066406 14.33564453 78.45507812 15.07363281 78.22265625 15.83398438 C77.98417969 16.56939453 77.74570313 17.30480469 77.5 18.0625 C77.26152344 18.83271484 77.02304688 19.60292969 76.77734375 20.39648438 C76.19617066 22.26786173 75.59970799 24.13447978 75 26 C73.35 26 71.7 26 70 26 C69.75765625 25.20335938 69.5153125 24.40671875 69.265625 23.5859375 C66.63127546 13.97079834 66.63127546 13.97079834 60.14550781 6.86376953 C57.80568325 5.92176915 56.18284459 5.76881651 53.671875 5.8046875 C52.87265625 5.81113281 52.0734375 5.81757813 51.25 5.82421875 C50.425 5.84097656 49.6 5.85773437 48.75 5.875 C47.48929688 5.88853516 47.48929688 5.88853516 46.203125 5.90234375 C44.13529396 5.92584183 42.06761005 5.96171092 40 6 C36.15717406 17.86855092 32.79733423 29.84015302 29.58496094 41.89379883 C29.10804408 43.61097818 28.56357383 45.30927851 28 47 C37.0635502 45.78313446 42.85553913 41.65649927 49 35 C50.32 35 51.64 35 53 35 C53.37625629 41.80463507 52.0370235 47.38663445 50.0625 53.875 C49.78470703 54.82375 49.50691406 55.7725 49.22070312 56.75 C47.19009963 63.61980074 47.19009963 63.61980074 46 66 C44.35 66 42.7 66 41 66 C40.74605469 65.31292969 40.49210937 64.62585938 40.23046875 63.91796875 C39.88628906 63.01691406 39.54210937 62.11585937 39.1875 61.1875 C38.85105469 60.29417969 38.51460938 59.40085938 38.16796875 58.48046875 C37.03802681 56.08075928 35.98937707 54.71576647 34 53 C31.69 53 29.38 53 27 53 C20.83536919 72.1553587 20.83536919 72.1553587 18 92 C21.96 92.66 25.92 93.32 30 94 C30 95.32 30 96.64 30 98 C10.29097897 99.32892777 -9.28313225 98.72212762 -29 98 C-28.67 96.35 -28.34 94.7 -28 93 C-26.86111328 92.83564453 -26.86111328 92.83564453 -25.69921875 92.66796875 C-24.70535156 92.50941406 -23.71148437 92.35085937 -22.6875 92.1875 C-21.70136719 92.03667969 -20.71523438 91.88585937 -19.69921875 91.73046875 C-16.64425999 90.90372882 -15.94641049 90.43119949 -14 88 C-12.95611324 85.72101223 -12.04655475 83.50953356 -11.1953125 81.16015625 C-10.93855743 80.46221451 -10.68180237 79.76427277 -10.41726685 79.04518127 C-7.05449207 69.66467164 -4.49321886 60.04571159 -1.875 50.4375 C-1.35872983 48.56557391 -0.84180519 46.69382819 -0.32421875 44.82226562 C0.67281136 41.21171425 1.66115731 37.59897594 2.64160156 33.98388672 C3.49456571 30.83925005 4.36477563 27.70065391 5.25683594 24.56689453 C5.44607635 23.89038345 5.63531677 23.21387238 5.83029175 22.51686096 C6.325458 20.74682387 6.82815597 18.97889837 7.33154297 17.21118164 C8.05640296 13.72904743 8.11723238 10.5469806 8 7 C6.03177114 5.03177114 2.65191291 5.33751619 0 5 C0 3.35 0 1.7 0 0 Z " fill="#000000" transform="translate(38,8)"/>
</svg>
