<?xml version="1.0" encoding="UTF-8"?>
<!-- Generator: visioncortex VTracer 0.6.4 -->
<svg version="1.1" xmlns="http://www.w3.org/2000/svg" width="107" height="110">
<path d="M0 0 C1.051875 -0.495 2.10375 -0.99 3.1875 -1.5 C6.25452609 -2.82779788 8.62134936 -3.30715006 12 -3 C13.1524577 1.11685313 12.79733944 3.52732678 11.34765625 7.51953125 C10.98349609 8.54111328 10.61933594 9.56269531 10.24414062 10.61523438 C9.85419922 11.67033203 9.46425781 12.72542969 9.0625 13.8125 C8.67642578 14.88693359 8.29035156 15.96136719 7.89257812 17.06835938 C6.93928093 19.71640714 5.97480512 22.35981027 5 25 C3.35 25.33 1.7 25.66 0 26 C-2.01350063 20.21654075 -3.68853652 14.45185025 -5.05859375 8.48046875 C-6.41915888 4.89557724 -8.7015325 2.89549483 -11.8125 0.75 C-16.14654945 -0.73595981 -19.81396159 -0.47155514 -24.03710938 1.20751953 C-33.6238633 7.00728447 -35.82513462 23.98463212 -38.5 34.125 C-38.97917721 35.90784332 -39.45883649 37.69055713 -39.93896484 39.47314453 C-42.64257528 49.57197537 -45.24124842 59.69553158 -47.625 69.875 C-47.86025391 70.87547363 -48.09550781 71.87594727 -48.33789062 72.90673828 C-49.6922799 78.91968822 -50.53725876 84.85406134 -51 91 C-45.066884 92.1449873 -41.29326846 92.46098323 -36 89 C-28.98120283 79.37899572 -26.69950586 62.51605462 -25 51 C-27.64 50.01 -30.28 49.02 -33 48 C-33 46.68 -33 45.36 -33 44 C-16.83 44 -0.66 44 16 44 C15.67 45.65 15.34 47.3 15 49 C12.36 49.33 9.72 49.66 7 50 C3.91995906 54.23646657 2.22064693 57.80222989 0.859375 62.9296875 C0.68746643 63.56488312 0.51555786 64.20007874 0.33843994 64.85452271 C-0.20145349 66.85873429 -0.72594274 68.86659638 -1.25 70.875 C-1.61617123 72.24506368 -1.98334964 73.6148586 -2.3515625 74.984375 C-3.24602879 78.31989224 -4.12674021 81.65885973 -5 85 C-7.81845616 85.72474587 -9.68396162 86.07152447 -12.55126953 85.42260742 C-15.65343046 84.8872295 -16.59298463 85.52225 -19.1796875 87.23828125 C-19.94410156 87.72876953 -20.70851562 88.21925781 -21.49609375 88.72460938 C-22.28113281 89.24861328 -23.06617188 89.77261719 -23.875 90.3125 C-32.39212095 95.92702003 -39.62204992 99.02800449 -50 98 C-58.21234644 96.24232154 -63.7475423 91.28394371 -68.25 84.375 C-75.93026881 70.67783611 -75.15691828 55.68508615 -71.17578125 40.94921875 C-64.85456624 22.07956948 -50.25441684 5.94611609 -32.7578125 -3.16796875 C-21.76497618 -7.58584448 -9.99284065 -5.81703821 0 0 Z " fill="#000000" transform="translate(82,11)"/>
</svg>
