<?xml version="1.0" encoding="UTF-8"?>
<!-- Generator: visioncortex VTracer 0.6.4 -->
<svg version="1.1" xmlns="http://www.w3.org/2000/svg" width="142" height="111">
<path d="M0 0 C15.51 0 31.02 0 47 0 C47 1.32 47 2.64 47 4 C45.9275 4.33 44.855 4.66 43.75 5 C40.04589422 6.63927958 38.74434667 8.6233347 37.02636719 12.31640625 C34.76799764 18.22125832 33.31031269 24.3823099 31.75 30.5 C31.38362964 31.90906688 31.01644859 33.31792324 30.6484375 34.7265625 C29.7547355 38.14839449 28.87783003 41.57390608 28 45 C33.94 45 39.88 45 46 45 C47.12864887 41.18854674 48.25301451 37.37591496 49.375 33.5625 C49.85066406 31.95858398 49.85066406 31.95858398 50.3359375 30.32226562 C54.02061125 18.86400631 54.02061125 18.86400631 55 7 C53.02 6.34 51.04 5.68 49 5 C49 3.68 49 2.36 49 1 C51.37390836 -0.18695418 52.80244951 -0.12075833 55.44970703 -0.11352539 C56.83091232 -0.11341209 56.83091232 -0.11341209 58.24002075 -0.11329651 C59.73382767 -0.10555458 59.73382767 -0.10555458 61.2578125 -0.09765625 C62.78509476 -0.09553383 62.78509476 -0.09553383 64.3432312 -0.09336853 C67.60385035 -0.087759 70.86440151 -0.07520488 74.125 -0.0625 C76.33203026 -0.05748623 78.53906159 -0.05292311 80.74609375 -0.04882812 C86.16408581 -0.03778648 91.58203805 -0.02103905 97 0 C97 1.32 97 2.64 97 4 C93.7 4.99 90.4 5.98 87 7 C81.75585925 16.22930908 79.30876306 25.87662159 76.625 36.0625 C76.14514289 37.85574161 75.66425977 39.64870898 75.18237305 41.44140625 C74.46222098 44.12054854 73.74270443 46.79983318 73.02732849 49.48025513 C71.64846974 54.63774185 70.22077556 59.77593009 68.73046875 64.90234375 C68.40159668 66.03728271 68.07272461 67.17222168 67.73388672 68.34155273 C67.14042388 70.37590056 66.5397416 72.40816322 65.93017578 74.43774414 C64.37290693 79.82624279 63.70500061 84.38845609 64 90 C66.90092502 91.93395001 67.89674737 92.30131941 71.1875 92.625 C72.445625 92.74875 73.70375 92.8725 75 93 C75 94.65 75 96.3 75 98 C58.5 98 42 98 25 98 C25.33 96.35 25.66 94.7 26 93 C27.3303125 92.62875 27.3303125 92.62875 28.6875 92.25 C33.9309431 89.60681406 35.14712639 83.17737262 37 78 C38.40558835 73.44881866 39.63037191 68.86369198 40.8125 64.25 C41.12380859 63.0640625 41.43511719 61.878125 41.75585938 60.65625 C42.51159263 57.77283697 43.25691097 54.88669745 44 52 C38.39 52 32.78 52 27 52 C24.04101699 58.25865916 21.92116046 64.27569583 20.3125 71 C20.10044922 71.83789062 19.88839844 72.67578125 19.66992188 73.5390625 C18.32498203 79.02064699 17.51559069 84.37949489 17 90 C18.65 90.99 20.3 91.98 22 93 C22 94.65 22 96.3 22 98 C4.84 98 -12.32 98 -30 98 C-30 96.35 -30 94.7 -30 93 C-29.26394531 92.98582031 -28.52789062 92.97164063 -27.76953125 92.95703125 C-21.5683767 92.67471867 -21.5683767 92.67471867 -16.0625 90.0625 C-10.76299187 82.19353339 -8.5847453 72.60260836 -6.0625 63.5625 C-5.71477539 62.33200928 -5.36705078 61.10151855 -5.00878906 59.83374023 C-2.80581124 52.0000779 -0.68170022 44.14856554 1.33862305 36.26586914 C2.49442574 31.78732012 3.80978316 27.397805 5.25 23 C7.04857773 17.35043528 7.76305794 11.91170427 8 6 C5.36 5.34 2.72 4.68 0 4 C0 2.68 0 1.36 0 0 Z " fill="#000000" transform="translate(39,7)"/>
</svg>
