<?xml version="1.0" encoding="UTF-8"?>
<!-- Generator: visioncortex VTracer 0.6.4 -->
<svg version="1.1" xmlns="http://www.w3.org/2000/svg" width="95" height="117">
<path d="M0 0 C16.17 0 32.34 0 49 0 C49 1.32 49 2.64 49 4 C47.046875 4.09765625 45.09375 4.1953125 43.140625 4.29296875 C39.96761279 5.3409892 38.90743697 7.30502455 37 10 C35.84970724 12.70045866 35.84970724 12.70045866 35.0703125 15.62109375 C34.75312256 16.7097876 34.43593262 17.79848145 34.10913086 18.92016602 C33.78436768 20.08088623 33.45960449 21.24160645 33.125 22.4375 C32.60401733 24.24915649 32.60401733 24.24915649 32.07250977 26.09741211 C31.03375383 29.72767881 30.01322877 33.36253411 29 37 C28.58548584 38.4835498 28.58548584 38.4835498 28.16259766 39.99707031 C26.92585344 44.44243066 25.7127217 48.89327776 24.5234375 53.3515625 C23.40298851 57.54610241 22.23011615 61.72340821 21.0390625 65.8984375 C20.71043213 67.06882568 20.38180176 68.23921387 20.04321289 69.44506836 C19.40447333 71.71969355 18.75571484 73.99153667 18.09545898 76.26000977 C16.51658636 81.94439287 15.54708807 86.22939498 17 92 C20.63 92.33 24.26 92.66 28 93 C28 94.32 28 95.64 28 97 C15.31895851 98.00717083 2.71474009 98.12025465 -10 98.0625 C-11.95051967 98.05746954 -13.90104061 98.0529094 -15.8515625 98.04882812 C-20.56774052 98.03795747 -25.28385566 98.02078019 -30 98 C-30 96.35 -30 94.7 -30 93 C-29.33613281 92.90203125 -28.67226563 92.8040625 -27.98828125 92.703125 C-20.65624331 91.52094589 -20.65624331 91.52094589 -15 87 C-11.82824064 81.53752554 -9.85557737 75.8162338 -8.30078125 69.71484375 C-6.4812963 62.70577067 -4.5277183 55.73848778 -2.546875 48.7734375 C-1.92174483 46.56644312 -1.29674664 44.35941135 -0.671875 42.15234375 C0.29499133 38.73914743 1.26383568 35.32656827 2.23828125 31.91552734 C3.19086644 28.57815843 4.13520895 25.23854914 5.078125 21.8984375 C5.37180969 20.87761078 5.66549438 19.85678406 5.96807861 18.80502319 C6.23545837 17.85277863 6.50283813 16.90053406 6.77832031 15.91943359 C7.01496399 15.0875351 7.25160767 14.2556366 7.49542236 13.39852905 C8.02780533 10.86782628 8.08979948 8.57859445 8 6 C5.36 5.67 2.72 5.34 0 5 C0 3.35 0 1.7 0 0 Z " fill="#000000" transform="translate(38,9)"/>
</svg>
