<?xml version="1.0" encoding="UTF-8"?>
<!-- Generator: visioncortex VTracer 0.6.4 -->
<svg version="1.1" xmlns="http://www.w3.org/2000/svg" width="121" height="114">
<path d="M0 0 C16.17 0 32.34 0 49 0 C49 1.65 49 3.3 49 5 C46.03 5.66 43.06 6.32 40 7 C33.79792398 17.76242603 31.22733933 29.69809886 28.03320312 41.60351562 C27.34894888 44.15009717 26.66180666 46.6959043 25.97192383 49.2409668 C25.29963632 51.72463836 24.63497699 54.21039178 23.97924805 56.69848633 C19.80742997 72.14352196 14.58167303 86.23863223 0.203125 94.6328125 C-11.73040565 100.90245931 -25.86567311 103.86263868 -39.125 99.75 C-46.89289056 96.55145683 -52.23933666 91.52132668 -56 84 C-56.1509482 81.54709172 -56.23128564 79.14141991 -56.25 76.6875 C-56.27578125 75.37136719 -56.3015625 74.05523437 -56.328125 72.69921875 C-55.87320185 67.57050178 -54.2700629 65.14305661 -50.5 61.75 C-45.4947017 58.24629119 -39.91429123 58.10214799 -34 59 C-30.51059141 60.97571044 -27.80194466 63.39611069 -26 67 C-25.49238556 72.55879415 -25.28544955 77.43348556 -27.625 82.5625 C-31.23623131 86.26876372 -34.17970452 87.89887247 -39.375 88.1875 C-40.24125 88.125625 -41.1075 88.06375 -42 88 C-42 88.99 -42 89.98 -42 91 C-35.2484276 94.2805905 -28.55578753 96.57847481 -21 95 C-11.24057858 88.35307875 -9.34932374 74.11962513 -6.25 63.3125 C-5.82198893 61.83628304 -5.39376213 60.36012861 -4.96533203 58.8840332 C-3.6281834 54.2603572 -2.31091007 49.63117578 -1 45 C-0.66917419 43.83229065 -0.66917419 43.83229065 -0.33166504 42.64099121 C0.96632358 38.0520393 2.2523324 33.4599469 3.52307129 28.8633728 C3.92190619 27.42165054 4.32251934 25.98041893 4.72497559 24.53970337 C5.28430693 22.53215151 5.8348789 20.52240712 6.3828125 18.51171875 C6.69621582 17.37178467 7.00961914 16.23185059 7.33251953 15.05737305 C7.94536875 12.25023672 8.13804507 9.85860002 8 7 C6.50256881 5.50256881 5.01175761 5.66797307 2.9375 5.4375 C1.638125 5.293125 0.33875 5.14875 -1 5 C-0.67 3.35 -0.34 1.7 0 0 Z " fill="#000000" transform="translate(66,6)"/>
</svg>
