<?xml version="1.0" encoding="UTF-8"?>
<!-- Generator: visioncortex VTracer 0.6.4 -->
<svg version="1.1" xmlns="http://www.w3.org/2000/svg" width="134" height="109">
<path d="M0 0 C15.51 0 31.02 0 47 0 C47 1.32 47 2.64 47 4 C45.046875 4.35807292 43.09375 4.71614583 41.140625 5.07421875 C38.0213812 6.42323477 36.91383702 8.18824523 35 11 C33.90067911 13.80224001 33.15904203 16.66628644 32.421875 19.58203125 C32.20557434 20.39621017 31.98927368 21.2103891 31.76641846 22.04924011 C31.08256383 24.63407842 30.41607681 27.22303015 29.75 29.8125 C29.28760017 31.572566 28.82407044 33.33233557 28.359375 35.09179688 C27.22647419 39.39120974 26.10912054 43.69439407 25 48 C25.42435333 47.57122559 25.84870667 47.14245117 26.28591919 46.70068359 C38.884827 33.97475761 38.884827 33.97475761 43.625 29.9375 C49.41763216 24.95830129 53.09514042 19.47920325 55 12 C54.67918367 9.2690645 54.67918367 9.2690645 54 7 C52.02 6.01 50.04 5.02 48 4 C48 2.68 48 1.36 48 0 C62.52 0 77.04 0 92 0 C92 1.32 92 2.64 92 4 C91.26136719 4.12375 90.52273437 4.2475 89.76171875 4.375 C72.49313469 7.88576677 59.9201687 22.85977706 48 35 C48.46670626 45.01094602 49.83732382 54.49686476 51.875 64.3125 C52.13152344 65.60478516 52.38804688 66.89707031 52.65234375 68.22851562 C54.02922312 74.99874912 55.60787106 81.51731243 58 88 C58.33 88.99 58.66 89.98 59 91 C63.62 91.99 68.24 92.98 73 94 C73 95.32 73 96.64 73 98 C56.83 98 40.66 98 24 98 C24 96.35 24 94.7 24 93 C24.99 92.67 25.98 92.34 27 92 C28.55988384 85.17797639 27.30533256 79.00763352 26.125 72.1875 C25.93808594 71.04345703 25.75117187 69.89941406 25.55859375 68.72070312 C24.810238 63.19892886 24.810238 63.19892886 23 58 C19.67906972 62.72708995 18.35649756 67.88523091 16.8125 73.375 C16.53986328 74.29539062 16.26722656 75.21578125 15.98632812 76.1640625 C14.52820097 81.28029813 13.67031731 85.68111924 14 91 C16.31 91.99 18.62 92.98 21 94 C21 95.32 21 96.64 21 98 C3.18 98 -14.64 98 -33 98 C-32.67 96.35 -32.34 94.7 -32 93 C-31.19175781 92.98582031 -30.38351563 92.97164063 -29.55078125 92.95703125 C-22.90120177 92.73527723 -22.90120177 92.73527723 -17 90 C-12.5583494 83.3375241 -10.13660048 75.81403804 -7.875 68.1875 C-7.58858643 67.23552734 -7.30217285 66.28355469 -7.00708008 65.30273438 C-2.99621188 51.82470566 0.70554113 38.25437334 4.42753601 24.69429016 C5.29461866 21.53863803 6.18201407 18.39557591 7.12573242 15.26171875 C8.07549962 11.71832592 8.14905769 8.65191334 8 5 C5.36 4.67 2.72 4.34 0 4 C0 2.68 0 1.36 0 0 Z " fill="#000000" transform="translate(40,8)"/>
</svg>
