<?xml version="1.0" encoding="UTF-8"?>
<!-- Generator: visioncortex VTracer 0.6.4 -->
<svg version="1.1" xmlns="http://www.w3.org/2000/svg" width="99" height="110">
<path d="M0 0 C16.5 0 33 0 50 0 C49.67 1.65 49.34 3.3 49 5 C47.02 5 45.04 5 43 5 C35.04070145 11.41165717 33.39291593 22.67245708 30.72265625 32.125 C30.42942978 33.15197998 30.13620331 34.17895996 29.83409119 35.23706055 C29.21799405 37.39790091 28.60380616 39.55928648 27.99145508 41.72119141 C27.07236915 44.96516619 26.14706672 48.20731563 25.22070312 51.44921875 C22.44302502 61.19552304 19.70728218 70.9509442 17.12109375 80.75 C16.91815201 81.51803955 16.71521027 82.2860791 16.50611877 83.07739258 C15.56029185 86.70105018 14.68195865 90.31697018 14 94 C28.68118967 93.32724139 28.68118967 93.32724139 41 86 C41.825 85.2575 42.65 84.515 43.5 83.75 C47.35015466 79.51482987 51.19171907 75.27290779 55 71 C56.65 71.33 58.3 71.66 60 72 C59.35622648 77.46122478 58.12907699 82.54642632 56.5625 87.8125 C56.34529297 88.57498047 56.12808594 89.33746094 55.90429688 90.12304688 C54.2465343 95.7534657 54.2465343 95.7534657 52 98 C25.64980655 102.37793183 -3.37563166 98.77941159 -30 98 C-30 96.68 -30 95.36 -30 94 C-29.18015625 93.91363281 -28.3603125 93.82726562 -27.515625 93.73828125 C-26.43796875 93.59777344 -25.3603125 93.45726563 -24.25 93.3125 C-23.18265625 93.18488281 -22.1153125 93.05726562 -21.015625 92.92578125 C-17.1325767 91.73370554 -16.11827253 90.43754752 -14 87 C-12.95360757 84.46738535 -12.0647779 82.04135614 -11.25 79.4375 C-11.0017749 78.66937988 -10.7535498 77.90125977 -10.49780273 77.10986328 C-7.07669133 66.34763879 -4.08022329 55.45347452 -1.015625 44.5859375 C0.61122364 38.84191037 2.27043661 33.10746541 3.9375 27.375 C4.23197021 26.35583496 4.52644043 25.33666992 4.82983398 24.28662109 C5.10126221 23.35414551 5.37269043 22.42166992 5.65234375 21.4609375 C5.88945068 20.64415527 6.12655762 19.82737305 6.37084961 18.98583984 C7 17 7 17 8 15 C8.0689472 13.62657169 8.08467708 12.24997898 8.0625 10.875 C8.041875 9.59625 8.02125 8.3175 8 7 C6.03177114 5.03177114 2.65191291 5.33751619 0 5 C0 3.35 0 1.7 0 0 Z " fill="#000000" transform="translate(35,5)"/>
</svg>
