<?xml version="1.0" encoding="UTF-8"?>
<!-- Generator: visioncortex VTracer 0.6.4 -->
<svg version="1.1" xmlns="http://www.w3.org/2000/svg" width="146" height="109">
<path d="M0 0 C0.82153564 0.02634521 1.64307129 0.05269043 2.48950195 0.07983398 C8.33844065 0.38818705 8.33844065 0.38818705 10.49511719 2.28417969 C14.08852988 6.48162129 11.92452249 20.29137617 11.52734375 25.88671875 C11.35038081 27.43452134 11.16622376 28.98152993 10.97265625 30.52734375 C10.56543708 34.59239128 10.6718654 38.66963746 10.75 42.75 C11.33007812 41.71101563 11.91015625 40.67203125 12.5078125 39.6015625 C16.80966725 31.91327883 21.15170584 24.2659935 25.75 16.75 C26.42289062 15.63109375 27.09578125 14.5121875 27.7890625 13.359375 C28.50490393 12.176899 29.22104747 10.99460584 29.9375 9.8125 C30.59105469 8.73097656 31.24460937 7.64945313 31.91796875 6.53515625 C33.75 3.75 33.75 3.75 36.75 0.75 C47.31 0.75 57.87 0.75 68.75 0.75 C68.75 2.07 68.75 3.39 68.75 4.75 C67.63625 5.059375 67.63625 5.059375 66.5 5.375 C62.0738256 7.5880872 60.28313703 11.31007906 58.59909058 15.85842896 C58.29423737 16.96362885 57.98938416 18.06882874 57.67529297 19.20751953 C57.32167694 20.46968292 56.96806091 21.73184631 56.60372925 23.03225708 C56.23280721 24.39899819 55.86230389 25.765853 55.4921875 27.1328125 C55.09990476 28.55301946 54.70683453 29.97300912 54.3130188 31.39279175 C53.49111534 34.36486217 52.67658463 37.3388203 51.86767578 40.31445312 C50.83928785 44.09638114 49.79613889 47.8740301 48.74773979 51.65045357 C47.93469841 54.5833912 47.12800389 57.51804517 46.32327652 60.45327377 C45.94129891 61.84490459 45.55782575 63.23612592 45.17272568 64.6268959 C41.51701724 77.02164372 41.51701724 77.02164372 39.75 89.75 C40.74 91.235 40.74 91.235 41.75 92.75 C44.72 93.08 47.69 93.41 50.75 93.75 C50.75 95.4 50.75 97.05 50.75 98.75 C32.93 98.75 15.11 98.75 -3.25 98.75 C-2.92 97.1 -2.59 95.45 -2.25 93.75 C-1.64671875 93.66363281 -1.0434375 93.57726562 -0.421875 93.48828125 C0.37734375 93.34777344 1.1765625 93.20726563 2 93.0625 C2.78890625 92.93488281 3.5778125 92.80726562 4.390625 92.67578125 C7.75089308 91.35726546 8.82782225 89.80546172 10.75 86.75 C11.89843135 83.80780318 12.70125022 80.80325733 13.5 77.75 C13.7460498 76.85152344 13.99209961 75.95304687 14.24560547 75.02734375 C14.79021898 73.03523133 15.32949022 71.04165303 15.86425781 69.046875 C17.16438067 64.20760844 18.49700405 59.37742288 19.82910156 54.546875 C20.50889629 52.07904876 21.18550732 49.61034255 21.85839844 47.140625 C24.0052208 39.29437067 26.31190332 31.51065672 28.75 23.75 C28.35731934 24.42466309 27.96463867 25.09932617 27.56005859 25.79443359 C25.74905362 28.90501957 23.93703256 32.01501253 22.125 35.125 C21.50753906 36.18589844 20.89007813 37.24679688 20.25390625 38.33984375 C16.94329924 44.02014841 13.60659951 49.68242947 10.21533203 55.31494141 C1.79171578 69.31313342 -6.41060882 83.41612449 -14.25 97.75 C-17.22 98.245 -17.22 98.245 -20.25 98.75 C-21.77753327 97.22246673 -21.30270292 95.77273082 -21.3359375 93.625 C-21.33359313 86.94824061 -20.59487882 80.38129876 -19.875 73.75 C-19.59791816 71.09396086 -19.32241985 68.43784294 -19.05078125 65.78125 C-18.98237534 65.11339478 -18.91396942 64.44553955 -18.8434906 63.75744629 C-18.15251917 56.92936267 -17.58728414 50.09279283 -17.0625 43.25 C-16.97887207 42.1775 -16.89524414 41.105 -16.80908203 40 C-16.45199695 35.23272222 -16.21287562 30.53336737 -16.25 25.75 C-19.94907948 34.06921489 -23.61366562 42.40316815 -27.25 50.75 C-27.74048828 51.8755127 -28.23097656 53.00102539 -28.73632812 54.16064453 C-30.12854002 57.37267626 -31.50446741 60.59116704 -32.875 63.8125 C-33.30022949 64.79154297 -33.72545898 65.77058594 -34.16357422 66.77929688 C-38.29144025 76.44723174 -38.29144025 76.44723174 -37 86.5625 C-34.75980607 90.64285322 -33.66083069 92.2797231 -29.25 93.75 C-29.58 95.4 -29.91 97.05 -30.25 98.75 C-41.8 98.75 -53.35 98.75 -65.25 98.75 C-64.92 97.1 -64.59 95.45 -64.25 93.75 C-63.68152344 93.62625 -63.11304688 93.5025 -62.52734375 93.375 C-53.18742721 90.88019759 -49.35916224 84.81856286 -44.4375 76.875 C-40.19477825 69.45692082 -37.3058419 61.50152443 -34.33520508 53.51147461 C-31.93087917 47.05993572 -29.42227512 40.68447618 -26.72265625 34.3515625 C-26.42388077 33.64960251 -26.12510529 32.94764252 -25.817276 32.22441101 C-24.6306956 29.44324469 -23.44105658 26.6636169 -22.23428345 23.8911438 C-21.39620988 21.96567118 -20.56862755 20.03595656 -19.7421875 18.10546875 C-19.02071533 16.44487427 -19.02071533 16.44487427 -18.28466797 14.75073242 C-17.28340485 11.84688036 -17.02490164 9.78882787 -17.25 6.75 C-19.89 6.09 -22.53 5.43 -25.25 4.75 C-25.25 3.43 -25.25 2.11 -25.25 0.75 C-16.79471385 -0.0715151 -8.48865364 -0.36383433 0 0 Z " fill="#000000" transform="translate(71.25,4.25)"/>
</svg>
