<?xml version="1.0" encoding="UTF-8"?>
<!-- Generator: visioncortex VTracer 0.6.4 -->
<svg version="1.1" xmlns="http://www.w3.org/2000/svg" width="144" height="109">
<path d="M0 0 C0 1.32 0 2.64 0 4 C-0.556875 4.01417969 -1.11375 4.02835938 -1.6875 4.04296875 C-9.21777859 4.51361116 -13.92168716 6.82756608 -19.171875 12.23828125 C-26.71322237 21.08697899 -28.74378306 31.45129349 -31.7869873 42.44033813 C-37.09782383 61.60736434 -37.09782383 61.60736434 -39.75 69.8125 C-41.88839409 76.43486233 -43.64864186 83.12831637 -45.30175781 89.88598633 C-46.78627984 95.78627984 -46.78627984 95.78627984 -49 98 C-53.62 98 -58.24 98 -63 98 C-65.95365445 87.80922391 -68.73291067 77.58817415 -71.375 67.3125 C-71.66564331 66.18569824 -71.66564331 66.18569824 -71.9621582 65.03613281 C-75.44411477 51.50869581 -78.58725512 37.93055173 -81.47851562 24.26367188 C-81.99588628 21.85369865 -81.99588628 21.85369865 -83 19 C-86.03457531 27.91221874 -88.68432196 36.92117005 -91.29833984 45.96411133 C-91.8482888 47.85904767 -92.40295983 49.7526201 -92.96240234 51.64477539 C-99.54637589 70.89553374 -99.54637589 70.89553374 -96 90 C-92.88506641 92.55869545 -88.92074236 92.54760665 -85 93 C-85 94.65 -85 96.3 -85 98 C-100.18 98 -115.36 98 -131 98 C-131 96.35 -131 94.7 -131 93 C-130.21496094 92.93683594 -129.42992187 92.87367187 -128.62109375 92.80859375 C-122.23876338 92.06464113 -117.79412624 91.28494368 -113.63720703 86.16894531 C-107.43754204 77.95572972 -104.35513933 69.7006666 -101.6875 59.8125 C-101.31343748 58.46395918 -100.93791994 57.1158212 -100.56103516 55.76806641 C-99.97431614 53.66880502 -99.38885451 51.5692703 -98.80908203 49.46807861 C-97.40117774 44.37589673 -95.9131201 39.31171653 -94.38671875 34.25390625 C-93.96177816 32.83559568 -93.53705179 31.41722091 -93.11254883 29.9987793 C-92.49925792 27.94965305 -91.8831692 25.90165662 -91.25643921 23.8565979 C-90.67874776 21.96745571 -90.11638242 20.07364749 -89.5546875 18.1796875 C-89.22968262 17.10444824 -88.90467773 16.02920898 -88.56982422 14.92138672 C-87.97779235 11.88614535 -88.16625744 9.95116233 -89 7 C-91.97 6.01 -94.94 5.02 -98 4 C-98 2.68 -98 1.36 -98 0 C-93.10707468 -0.09911652 -88.21473779 -0.17158399 -83.32104492 -0.21972656 C-81.65752987 -0.23980207 -79.99408504 -0.26706876 -78.33081055 -0.30175781 C-75.9352076 -0.35045766 -73.54054008 -0.37300856 -71.14453125 -0.390625 C-70.03486748 -0.42159271 -70.03486748 -0.42159271 -68.90278625 -0.45318604 C-65.32996179 -0.45472732 -63.18633188 -0.11178344 -60.09960938 1.73999023 C-57.92493957 4.0807947 -57.09859409 5.50303284 -56.26171875 8.55078125 C-56.00269775 9.46279297 -55.74367676 10.37480469 -55.47680664 11.31445312 C-55.21633545 12.30380859 -54.95586426 13.29316406 -54.6875 14.3125 C-54.40189209 15.34181641 -54.11628418 16.37113281 -53.82202148 17.43164062 C-52.8564166 20.94821834 -51.92461891 24.47242766 -51 28 C-50.82239136 28.67512634 -50.64478271 29.35025269 -50.46179199 30.0458374 C-47.92636856 39.68506237 -45.44349461 49.33704598 -43 59 C-41.53441937 54.0626217 -40.09300861 49.11902224 -38.67260742 44.16845703 C-38.18716981 42.48885256 -37.69542415 40.81105688 -37.19702148 39.13525391 C-32.4211065 24.51656353 -32.4211065 24.51656353 -35.5625 10 C-36.036875 9.34 -36.51125 8.68 -37 8 C-37 7.34 -37 6.68 -37 6 C-40.96 5.67 -44.92 5.34 -49 5 C-49 3.68 -49 2.36 -49 1 C-48.24493164 0.97494385 -47.48986328 0.9498877 -46.71191406 0.92407227 C-43.22449906 0.80659976 -39.73725691 0.68457221 -36.25 0.5625 C-35.06277344 0.52318359 -33.87554687 0.48386719 -32.65234375 0.44335938 C-25.96950433 0.20599076 -19.33955994 -0.17134447 -12.68554688 -0.84375 C-8.40460749 -1.09282284 -4.23437413 -0.60892548 0 0 Z " fill="#000000" transform="translate(138,7)"/>
</svg>
