<?xml version="1.0" encoding="UTF-8"?>
<!-- Generator: visioncortex VTracer 0.6.4 -->
<svg version="1.1" xmlns="http://www.w3.org/2000/svg" width="103" height="116">
<path d="M0 0 C8.47707097 4.70581891 14.30556264 11.09793345 17.1796875 20.4453125 C20.50404762 36.82086418 15.87208692 54.7491675 6.9140625 68.69921875 C-2.83462075 81.98134667 -15.07348942 96.19116314 -31.1875 101.5625 C-33.80614161 101.7109944 -36.3807477 101.7935027 -39 101.8125 C-39.69931641 101.833125 -40.39863281 101.85375 -41.11914062 101.875 C-46.8781645 101.9180984 -50.7527508 100.6396301 -55.12890625 96.90625 C-63.35481806 87.55051416 -66.60971994 77.60739118 -66.45703125 65.28125 C-64.94429225 44.40983651 -53.915543 25.42389461 -38.875 11.25 C-27.41705054 1.64279011 -15.03400239 -6.90648333 0 0 Z M-19.1875 5.5625 C-24.70637294 13.43894973 -26.70561352 23.51775464 -29.32666016 32.63037109 C-30.55016677 36.79778867 -31.85616894 40.93813966 -33.15673828 45.08203125 C-36.16519322 54.69312558 -39.03926811 64.32849635 -41.625 74.0625 C-41.87185547 74.97491455 -42.11871094 75.8873291 -42.37304688 76.82739258 C-45.38836253 86.78253347 -45.38836253 86.78253347 -44.1875 96.5625 C-37.06662601 97.08959215 -37.06662601 97.08959215 -30.3125 95.25 C-24.50796138 87.90896586 -21.94258542 78.28655676 -19.3125 69.4375 C-18.97444336 68.31657959 -18.63638672 67.19565918 -18.28808594 66.04077148 C-17.24239767 62.55148256 -16.21204932 59.05805009 -15.1875 55.5625 C-14.86426758 54.46341309 -14.54103516 53.36432617 -14.20800781 52.23193359 C-11.08317606 41.53909975 -8.0968597 30.83101984 -5.75 19.9375 C-5.5039502 18.81033569 -5.5039502 18.81033569 -5.25292969 17.66040039 C-4.34349979 13.20836467 -4.03843933 9.10586917 -4.1875 4.5625 C-9.25136631 1.18658913 -14.63611604 1.49020909 -19.1875 5.5625 Z " fill="#000000" transform="translate(74.1875,5.4375)"/>
</svg>
