<?xml version="1.0" encoding="UTF-8"?>
<!-- Generator: visioncortex VTracer 0.6.4 -->
<svg version="1.1" xmlns="http://www.w3.org/2000/svg" width="130" height="109">
<path d="M0 0 C7.61305236 -0.07656573 15.22600404 -0.128815 22.83935547 -0.16479492 C25.4250052 -0.17980712 28.01062978 -0.20022313 30.59619141 -0.22631836 C34.32981604 -0.26303545 38.06310166 -0.27980274 41.796875 -0.29296875 C42.93799744 -0.30845261 44.07911987 -0.32393646 45.25482178 -0.33988953 C56.93039788 -0.34229411 69.30259188 1.53765697 78 10 C81.27346679 15.96238593 82.81475539 21.97786246 81.4453125 28.73828125 C78.83036706 37.10379256 73.9659477 43.00844696 66.3125 47.3125 C64.8940949 47.92154799 63.45382022 48.48113657 62 49 C60.75476563 49.44666016 60.75476563 49.44666016 59.484375 49.90234375 C47.9911659 53.23660361 35.84273305 52.26993956 24 52 C23.75765625 52.98097656 23.5153125 53.96195313 23.265625 54.97265625 C22.92718197 56.33596199 22.58863199 57.69924118 22.25 59.0625 C21.98364746 60.14047852 21.98364746 60.14047852 21.71191406 61.24023438 C20.80532318 64.88253094 19.87009565 68.51055639 18.84375 72.12109375 C17.02891622 78.53191449 15.45307101 84.30011993 16 91 C18.70183055 92.35091528 21.11808206 92.33858058 24.125 92.5625 C25.76855469 92.68818359 25.76855469 92.68818359 27.4453125 92.81640625 C28.28835937 92.87699219 29.13140625 92.93757813 30 93 C30 94.65 30 96.3 30 98 C23.48136111 99.21686722 17.1152121 99.035001 10.50390625 98.87890625 C8.72088356 98.84348976 8.72088356 98.84348976 6.90184021 98.80735779 C3.12192835 98.73105886 -0.65776097 98.64688957 -4.4375 98.5625 C-7.00715073 98.50924551 -9.57681218 98.45650536 -12.14648438 98.40429688 C-18.43112593 98.27548958 -24.71560346 98.14022776 -31 98 C-30.67 96.35 -30.34 94.7 -30 93 C-29.26394531 92.98582031 -28.52789062 92.97164063 -27.76953125 92.95703125 C-21.58797641 92.66602904 -21.58797641 92.66602904 -16.0625 90.125 C-10.87247646 82.26132797 -9.0494342 72.76337642 -6.6418457 63.75756836 C-3.91556785 53.57087368 -1.00119089 43.4396632 1.91778564 33.30688477 C2.35003115 31.80637133 2.78177394 30.30571297 3.21298218 28.80490112 C3.60809652 27.42981227 4.00434207 26.05504768 4.40200806 24.68069458 C7.55357334 15.42900402 7.55357334 15.42900402 7 6 C4.36 5.67 1.72 5.34 -1 5 C-0.67 3.35 -0.34 1.7 0 0 Z M38 5 C35.25473718 9.05943715 33.93567313 13.1576145 32.73828125 17.85546875 C32.54276169 18.59831619 32.34724213 19.34116364 32.14579773 20.10652161 C31.7363451 21.66795556 31.33063109 23.23037417 30.9284668 24.79370117 C30.3113097 27.19212579 29.68304837 29.58742484 29.05273438 31.98242188 C28.6556048 33.50243574 28.25909838 35.02261259 27.86328125 36.54296875 C27.6758284 37.2606694 27.48837555 37.97837006 27.29524231 38.71781921 C26.33273095 42.31262777 26.33273095 42.31262777 26 46 C30.76696961 48.3834848 36.89208684 47.26804351 41.875 46.0625 C48.74599798 41.52764133 50.25311681 31.39453987 52.3125 23.8125 C52.72725586 22.37487305 52.72725586 22.37487305 53.15039062 20.90820312 C54.51434667 15.93680666 55.46737656 12.10578394 54 7 C50.5233662 4.85663839 47.78770805 4.78722374 43.75 4.875 C42.13351563 4.90207031 42.13351563 4.90207031 40.484375 4.9296875 C39.25460938 4.96449219 39.25460938 4.96449219 38 5 Z " fill="#000000" transform="translate(39,8)"/>
</svg>
