<?xml version="1.0" encoding="UTF-8"?>
<!-- Generator: visioncortex VTracer 0.6.4 -->
<svg version="1.1" xmlns="http://www.w3.org/2000/svg" width="106" height="142">
<path d="M0 0 C5.61272194 5.01033441 11.65818559 12.27278968 12.50878906 20.01000977 C13.08028706 30.5931769 12.49320638 40.19475954 8.29296875 50.046875 C8.02983887 50.66626953 7.76670898 51.28566406 7.49560547 51.92382812 C-0.66804368 70.68127891 -14.17434659 85.00654089 -29.70703125 98.046875 C-29.70703125 98.706875 -29.70703125 99.366875 -29.70703125 100.046875 C-23.04952244 101.15869237 -18.66669849 101.39918782 -12.70703125 98.046875 C-12.04703125 97.386875 -11.38703125 96.726875 -10.70703125 96.046875 C-9.05703125 96.046875 -7.40703125 96.046875 -5.70703125 96.046875 C-5.36050739 99.25080049 -5.46763644 100.68985162 -7.2890625 103.40625 C-24.31966919 121.65971987 -24.31966919 121.65971987 -32.9140625 122.27734375 C-38.95894694 122.20530287 -44.72378096 121.93328245 -50.70703125 121.046875 C-54.70851302 120.96065803 -58.7052783 120.98773579 -62.70703125 121.046875 C-62.70703125 119.396875 -62.70703125 117.746875 -62.70703125 116.046875 C-58.08718974 111.89393237 -53.39688763 107.96280643 -48.37109375 104.30859375 C-46.57750387 103.00817067 -46.57750387 103.00817067 -44.70703125 101.046875 C-45.40828125 100.83933594 -46.10953125 100.63179688 -46.83203125 100.41796875 C-56.04016367 97.42782792 -62.8353236 92.87854921 -67.671875 84.3203125 C-73.49366019 71.53435408 -72.40448242 58.01431257 -67.70703125 45.046875 C-66.29082381 41.7960352 -64.69813712 38.66928748 -63.01953125 35.546875 C-62.57528809 34.71663818 -62.13104492 33.88640137 -61.67333984 33.03100586 C-58.26273551 26.79536381 -54.58885034 21.2419659 -49.70703125 16.046875 C-49.25569824 15.56138184 -48.80436523 15.07588867 -48.33935547 14.57568359 C-35.97499436 1.37914509 -18.13706741 -12.42670198 0 0 Z M-24.21435547 3.07226562 C-30.85438985 11.85613839 -33.59427058 24.46584502 -36.58203125 34.921875 C-36.79058746 35.64300476 -36.99914368 36.36413452 -37.21401978 37.1071167 C-40.23565007 47.56144539 -43.13771565 58.05093712 -45.85577393 68.58843994 C-46.21124028 69.96306826 -46.57097488 71.33660084 -46.9352417 72.70892334 C-48.81280858 79.82081291 -50.36125878 85.7902084 -48.70703125 93.046875 C-45.34101887 95.29088326 -43.77007271 95.14017833 -39.83984375 94.82421875 C-35.64920662 93.296862 -33.27628738 90.04132489 -31.1171875 86.26953125 C-26.96081299 76.52313421 -24.22806791 66.56239699 -21.56933594 56.31884766 C-19.92683908 50.08647424 -18.18310565 43.88151373 -16.45703125 37.671875 C-15.47374565 34.1301443 -14.49313212 30.58786936 -13.52490234 27.04199219 C-13.03659549 25.25376877 -12.54182126 23.46726228 -12.03369141 21.68457031 C-10.81161142 17.22122787 -10.49320726 13.16572233 -10.58203125 8.546875 C-10.60007813 7.3196875 -10.618125 6.0925 -10.63671875 4.828125 C-10.65992188 3.9103125 -10.683125 2.9925 -10.70703125 2.046875 C-15.5858479 -1.20566943 -19.79047507 -1.03777292 -24.21435547 3.07226562 Z " fill="#000000" transform="translate(79.70703125,12.953125)"/>
</svg>
