<?xml version="1.0" encoding="UTF-8"?>
<!-- Generator: visioncortex VTracer 0.6.4 -->
<svg version="1.1" xmlns="http://www.w3.org/2000/svg" width="128" height="114">
<path d="M0 0 C7.66802115 -0.05090046 15.33599836 -0.08581765 23.00415039 -0.10986328 C25.61028675 -0.11989248 28.21641193 -0.13351911 30.82250977 -0.15087891 C34.57831589 -0.1752626 38.33397263 -0.18651424 42.08984375 -0.1953125 C43.24645004 -0.20563507 44.40305634 -0.21595764 45.5947113 -0.22659302 C56.02523649 -0.22802483 64.12643925 0.7268197 72 8 C77.40679524 13.68853891 78.30874603 17.26928011 78.20703125 25.02734375 C77.77676721 31.20528588 74.5514955 35.16391673 70.234375 39.32421875 C64.97632437 43.26775673 58.38345027 45.56791331 52 47 C52.75925781 47.59167969 53.51851563 48.18335938 54.30078125 48.79296875 C55.29464844 49.58316406 56.28851563 50.37335937 57.3125 51.1875 C58.29863281 51.96480469 59.28476563 52.74210937 60.30078125 53.54296875 C63.8994785 56.81877276 65.74426487 59.19603054 66.43359375 64.05859375 C66.44403996 73.09456207 64.89087399 80.50805765 62 89 C62.99 90.485 62.99 90.485 64 92 C66.64 92.33 69.28 92.66 72 93 C72.33 94.65 72.66 96.3 73 98 C68.50022116 98.11690073 64.00083713 98.18748837 59.5 98.25 C58.2315625 98.28351563 56.963125 98.31703125 55.65625 98.3515625 C48.31708181 98.42801217 43.11594789 98.24553664 37 94 C33.77664281 88.49298526 34.05872907 82.73201619 35.59765625 76.63037109 C36.61843236 73.09038902 37.70410466 69.57852569 38.86523438 66.08203125 C40.34566328 61.56689893 41.37772963 57.8239222 41 53 C38.73881962 50.25584905 37.52405508 49.10589714 33.984375 48.390625 C32.91703125 48.34421875 31.8496875 48.2978125 30.75 48.25 C29.67234375 48.19328125 28.5946875 48.1365625 27.484375 48.078125 C26.25460938 48.03945312 26.25460938 48.03945312 25 48 C24.67128906 49.47533203 24.67128906 49.47533203 24.3359375 50.98046875 C24.0170925 52.38314689 23.69663989 53.7854601 23.375 55.1875 C23.20331299 55.93620361 23.03162598 56.68490723 22.85473633 57.45629883 C21.81450676 61.87716145 20.66136587 66.24121584 19.36328125 70.59375 C19.08629395 71.52421143 18.80930664 72.45467285 18.52392578 73.41333008 C17.97489802 75.23428818 17.41500979 77.0520142 16.84326172 78.8659668 C15.40863458 83.62665173 14.61653502 87.05674209 16 92 C19.3 92.33 22.6 92.66 26 93 C25.67 94.65 25.34 96.3 25 98 C6.52 98 -11.96 98 -31 98 C-31 96.35 -31 94.7 -31 93 C-29.78763672 92.88785156 -29.78763672 92.88785156 -28.55078125 92.7734375 C-21.73629076 91.98530589 -21.73629076 91.98530589 -16 88.5 C-10.90557417 80.73390839 -8.70642579 71.01975428 -6.25 62.1875 C-5.91218506 60.98424072 -5.57437012 59.78098145 -5.22631836 58.54125977 C-4.51364626 55.99882054 -3.80325233 53.45583378 -3.09521484 50.91210938 C-2.17922841 47.62882266 -1.24405182 44.35135216 -0.30233765 41.07536316 C0.25753853 39.12394492 0.81275878 37.17126673 1.36621094 35.21801758 C2.06194555 32.76281008 2.76405796 30.30939766 3.47363281 27.8581543 C5.42741771 20.88823039 6.65016011 14.23520047 7 7 C4.36 6.34 1.72 5.68 -1 5 C-0.67 3.35 -0.34 1.7 0 0 Z M37 5 C34.60740031 12.03792401 32.41537478 19.12042038 30.3125 26.25 C29.99216797 27.3121875 29.67183594 28.374375 29.34179688 29.46875 C29.03951172 30.49484375 28.73722656 31.5209375 28.42578125 32.578125 C28.15161377 33.50012695 27.87744629 34.42212891 27.5949707 35.37207031 C26.81598811 38.36368997 26.81598811 38.36368997 27 43 C39.64486725 44.45762178 39.64486725 44.45762178 43.1875 41.25 C51.13877279 33.16395987 52.73272217 19.69040495 55 9 C54.01 7.68 53.02 6.36 52 5 C47.05 5 42.1 5 37 5 Z " fill="#000000" transform="translate(41,6)"/>
</svg>
