<?xml version="1.0" encoding="UTF-8"?>
<!-- Generator: visioncortex VTracer 0.6.4 -->
<svg version="1.1" xmlns="http://www.w3.org/2000/svg" width="109" height="118">
<path d="M0 0 C3.08109839 1.66545859 4.84425493 1.73555431 8.3125 1.25 C9.52382029 0.60539497 10.71127212 -0.08548562 11.875 -0.8125 C15.3125 -2.75 15.3125 -2.75 18.25 -2.5 C18.930625 -2.2525 19.61125 -2.005 20.3125 -1.75 C20.78685524 3.70508521 19.68980386 7.34322366 17.53515625 12.33984375 C16.07873454 15.80640659 14.81222348 19.33030531 13.5625 22.875 C13.13453125 24.08414063 12.7065625 25.29328125 12.265625 26.5390625 C11.79382813 27.88097656 11.79382813 27.88097656 11.3125 29.25 C9.6625 29.25 8.0125 29.25 6.3125 29.25 C6.21453125 28.64414062 6.1165625 28.03828125 6.015625 27.4140625 C4.44561858 18.61661271 2.69613516 10.05883743 -4.76171875 4.4375 C-9.013538 1.81568854 -12.78116878 0.25 -17.8125 0.25 C-22.38681343 1.84106554 -25.51798644 4.41945703 -28.125 8.5 C-29.10292231 13.28095351 -29.21463296 17.81286315 -26.546875 22.0703125 C-22.38966164 26.58445832 -17.12163783 29.61327821 -11.96435547 32.84594727 C-1.80438068 39.26141625 4.45870065 45.68860195 8.3125 57.25 C8.97763765 68.74920676 8.86782172 77.19900818 1.375 86.375 C-5.55515555 93.73545932 -15.52525935 98.72633133 -25.640625 99.5859375 C-27.0726659 99.61573375 -28.50515273 99.62820113 -29.9375 99.625 C-30.68749268 99.62338867 -31.43748535 99.62177734 -32.21020508 99.62011719 C-39.92379829 99.45031326 -45.64780715 97.41285837 -51.9375 92.9375 C-54.56725289 90.9824432 -54.56725289 90.9824432 -57.625 91.3125 C-60.82585961 92.21949749 -60.82585961 92.21949749 -64.25 93.875 C-67.79108509 95.29143404 -69.14777134 95.42990955 -72.6875 94.25 C-72.12365943 87.51567877 -70.34191874 81.61541026 -68.125 75.25 C-67.79564453 74.28449219 -67.46628906 73.31898437 -67.12695312 72.32421875 C-66.32063798 69.96370194 -65.50737837 67.60583283 -64.6875 65.25 C-62.2125 64.755 -62.2125 64.755 -59.6875 64.25 C-59.3575 65.44625 -59.0275 66.6425 -58.6875 67.875 C-55.66080364 76.82720052 -51.1868114 87.0667834 -42.44921875 91.55078125 C-36.67640322 93.84198741 -30.15336163 94.71436894 -24.29296875 92.23828125 C-20.01953976 89.59811083 -16.31333643 87.12750928 -14.6875 82.25 C-13.77630148 76.51359112 -14.10794844 72.28447282 -17.5625 67.5 C-21.60900062 62.85794586 -26.33585982 60.16385317 -31.6875 57.25 C-40.95145413 51.68242492 -48.7515028 45.85174098 -52.0625 35.1796875 C-53.90658464 26.53554076 -53.46085834 18.80546364 -48.6875 11.25 C-37.04949355 -5.12159975 -17.27858065 -11.25116879 0 0 Z " fill="#000000" transform="translate(81.6875,12.75)"/>
</svg>
