<?xml version="1.0" encoding="UTF-8"?>
<!-- Generator: visioncortex VTracer 0.6.4 -->
<svg version="1.1" xmlns="http://www.w3.org/2000/svg" width="115" height="112">
<path d="M0 0 C1.3104126 0.04302246 2.6208252 0.08604492 3.97094727 0.13037109 C12.60380089 0.47880089 12.60380089 0.47880089 13.75 1.625 C13.08854315 7.28919943 11.76244028 12.58770761 10.1875 18.0625 C9.95353516 18.88943359 9.71957031 19.71636719 9.47851562 20.56835938 C8.90636985 22.58838426 8.32874796 24.60685676 7.75 26.625 C6.1 26.955 4.45 27.285 2.75 27.625 C0.27853915 25.15353915 0.36672556 19.48389961 -0.23828125 16.140625 C-1.31332141 12.40496421 -2.58153656 10.41217652 -5.25 7.625 C-7.53705831 6.48147084 -8.84264762 6.52165561 -11.375 6.5625 C-13.293125 6.5934375 -13.293125 6.5934375 -15.25 6.625 C-17.99719728 13.4973817 -20.06037292 20.5421142 -22.10180664 27.64916992 C-22.67952507 29.65974566 -23.2621878 31.66883434 -23.84570312 33.67773438 C-25.74925201 40.25495016 -27.59096934 46.84372453 -29.3359375 53.46484375 C-31.12773789 60.24538663 -33.12475238 66.94244927 -35.22460938 73.6328125 C-37.26232426 80.26723304 -38.64122179 85.66889104 -37.25 92.625 C-33.62 92.955 -29.99 93.285 -26.25 93.625 C-26.25 95.275 -26.25 96.925 -26.25 98.625 C-45.39 98.625 -64.53 98.625 -84.25 98.625 C-84.745 96.15 -84.745 96.15 -85.25 93.625 C-84.51394531 93.59921875 -83.77789062 93.5734375 -83.01953125 93.546875 C-82.04371094 93.49015625 -81.06789063 93.4334375 -80.0625 93.375 C-79.09957031 93.32859375 -78.13664062 93.2821875 -77.14453125 93.234375 C-73.52398639 92.47215503 -71.86634669 91.21906094 -69.25 88.625 C-65.32853116 81.98028891 -63.45420053 74.22047763 -61.47875977 66.81030273 C-60.02060501 61.34817576 -58.46571439 55.9215388 -56.8515625 50.50390625 C-56.63471298 49.77469971 -56.41786346 49.04549316 -56.19444275 48.29418945 C-55.31293819 45.33230507 -54.43079775 42.37064893 -53.53994751 39.41156006 C-50.90655399 30.65883838 -48.50950025 21.9047993 -46.5087738 12.98362732 C-45.34330481 7.81160962 -45.34330481 7.81160962 -44.25 5.625 C-58.14119769 7.04602022 -65.55125089 16.72305942 -74.25 26.625 C-75.57 26.625 -76.89 26.625 -78.25 26.625 C-78.55734369 20.74606694 -77.46674254 15.87351322 -75.8125 10.25 C-75.58240234 9.43144531 -75.35230469 8.61289063 -75.11523438 7.76953125 C-73.40053354 1.77553354 -73.40053354 1.77553354 -72.25 0.625 C-70.76335465 0.49708268 -69.27082951 0.43666111 -67.77905273 0.40380859 C-66.82028732 0.38068604 -65.86152191 0.35756348 -64.873703 0.33374023 C-63.82096695 0.31384033 -62.7682309 0.29394043 -61.68359375 0.2734375 C-60.04883842 0.23802856 -60.04883842 0.23802856 -58.38105774 0.2019043 C-54.81663445 0.12792329 -51.25213329 0.06300609 -47.6875 0 C-45.8858136 -0.03368683 -45.8858136 -0.03368683 -44.04772949 -0.0680542 C-29.35727115 -0.33514001 -14.68664526 -0.49222566 0 0 Z " fill="#000000" transform="translate(94.25,4.375)"/>
</svg>
