<?xml version="1.0" encoding="UTF-8"?>
<!-- Generator: visioncortex VTracer 0.6.4 -->
<svg version="1.1" xmlns="http://www.w3.org/2000/svg" width="121" height="111">
<path d="M0 0 C0.88815903 -0.00014603 1.77631805 -0.00029205 2.69139099 -0.0004425 C5.6240382 0.00025359 8.55662171 0.00803182 11.48925781 0.01586914 C13.52378301 0.0177344 15.55830866 0.01915779 17.59283447 0.02015686 C22.94563031 0.02397355 28.29839898 0.03379663 33.65118408 0.04486084 C39.114132 0.05509317 44.57708432 0.05965839 50.04003906 0.06469727 C60.75749891 0.07541963 71.4749386 0.09248591 82.19238281 0.11352539 C82.68738281 2.58852539 82.68738281 2.58852539 83.19238281 5.11352539 C82.63550781 5.12770508 82.07863281 5.14188477 81.50488281 5.15649414 C74.16596469 5.61517652 69.36538636 7.83242352 64.24316406 13.12915039 C57.27985355 21.47928376 55.54356356 31.35663206 52.94744873 41.72918701 C50.31743689 52.19234347 47.6025107 62.63490654 44.56738281 72.98852539 C44.31504883 73.88909668 44.06271484 74.78966797 43.80273438 75.7175293 C40.84906044 85.54138176 35.48038597 93.06552309 27.19238281 99.11352539 C17.51951635 104.18026497 4.38956954 102.70603049 -5.80761719 100.11352539 C-12.09338963 97.40036356 -16.67174978 94.24891814 -19.80761719 88.11352539 C-23.36008336 77.45612687 -19.02689585 66.77334082 -15.86572266 56.54272461 C-14.63417747 52.55142704 -13.42492258 48.5536608 -12.21777344 44.55493164 C-10.8662659 40.07989408 -9.51309668 35.60541999 -8.14794922 31.13452148 C-7.82811317 30.08590187 -7.82811317 30.08590187 -7.5018158 29.01609802 C-6.91656129 27.09840319 -6.33026181 25.18102735 -5.74389648 23.26367188 C-4.56958283 19.31264996 -3.6763637 15.98873478 -3.74511719 11.86352539 C-3.76574219 10.62602539 -3.78636719 9.38852539 -3.80761719 8.11352539 C-5.77584605 6.14529653 -9.15570428 6.45104158 -11.80761719 6.11352539 C-12.13761719 4.46352539 -12.46761719 2.81352539 -12.80761719 1.11352539 C-8.54398801 -0.0835951 -4.39750783 -0.01889967 0 0 Z M27.19238281 8.11352539 C24.05475792 13.97157355 22.12045099 20.20430784 20.38769531 26.59008789 C20.02051643 27.91054359 20.02051643 27.91054359 19.6459198 29.25767517 C18.86252616 32.08269099 18.08943857 34.91039197 17.31738281 37.73852539 C16.78150104 39.68515013 16.24528565 41.63168307 15.70874023 43.578125 C14.41898047 48.26626189 13.13896053 52.95698452 11.86334229 57.64898682 C11.26801596 59.83571308 10.66945837 62.02150765 10.06884766 64.20678711 C9.20429953 67.36064811 8.35079279 70.51712304 7.50488281 73.67602539 C7.27365723 74.52181152 7.04243164 75.36759766 6.80419922 76.23901367 C5.3684078 81.71570906 4.03917753 87.42424394 4.19238281 93.11352539 C4.85238281 94.10352539 5.51238281 95.09352539 6.19238281 96.11352539 C14.69168938 96.76453611 21.35674412 95.48407565 28.42285156 90.55883789 C34.81800296 84.96757982 36.91081125 78.06228019 39.19238281 70.11352539 C39.45374023 69.2242334 39.71509766 68.33494141 39.984375 67.41870117 C41.83018257 61.1120166 43.58618648 54.78435357 45.29296875 48.4387207 C45.89394962 46.2168533 46.50402706 43.99742696 47.12304688 41.78051758 C48.02087155 38.56339182 48.89100523 35.33991049 49.75488281 32.11352539 C50.03066162 31.1417334 50.30644043 30.16994141 50.59057617 29.16870117 C52.18644072 23.0422449 52.5587498 18.09395254 50.19238281 12.11352539 C48.06328367 8.6668467 46.13581737 6.42800358 42.19238281 5.11352539 C34.03622451 4.35988844 34.03622451 4.35988844 27.19238281 8.11352539 Z " fill="#000000" transform="translate(30.8076171875,5.886474609375)"/>
</svg>
