<?xml version="1.0" encoding="UTF-8"?>
<!-- Generator: visioncortex VTracer 0.6.4 -->
<svg version="1.1" xmlns="http://www.w3.org/2000/svg" width="108" height="110">
<path d="M0 0 C16.5 0 33 0 50 0 C50.495 2.475 50.495 2.475 51 5 C46.545 5.495 46.545 5.495 42 6 C39.98233586 9.02649622 39.73288765 9.78208946 39.58935547 13.20849609 C39.54946503 14.05302338 39.50957458 14.89755066 39.46847534 15.76766968 C39.41833786 17.13177475 39.41833786 17.13177475 39.3671875 18.5234375 C39.32562531 19.46176422 39.28406311 20.40009094 39.24124146 21.36685181 C39.11046832 24.36926961 38.99271584 27.37204481 38.875 30.375 C38.7885868 32.3906606 38.70135684 34.40628636 38.61328125 36.421875 C38.118113 46.70679943 38.118113 46.70679943 38 57 C41.80247983 51.61127859 45.56389622 46.2047875 49.18359375 40.69140625 C50.68642479 38.4646308 52.22325748 36.27504765 53.78515625 34.08984375 C54.28241211 33.38682129 54.77966797 32.68379883 55.29199219 31.95947266 C56.28789944 30.55324138 57.29218317 29.15289642 58.30566406 27.75927734 C61.48736475 23.24170581 63.55853652 19.52693849 62.65234375 13.8046875 C60.7531555 8.67791703 58.83446599 6.57838186 54 4 C54 2.68 54 1.36 54 0 C67.53 0 81.06 0 95 0 C95 1.32 95 2.64 95 4 C94.12601563 4.11601562 94.12601563 4.11601562 93.234375 4.234375 C77.43698093 7.51307943 67.60583176 25.74959984 59 38 C58.57090332 38.61020996 58.14180664 39.22041992 57.69970703 39.84912109 C55.87624378 42.45243026 54.07189507 45.06808636 52.27734375 47.69140625 C49.54462213 51.68179391 46.73612463 55.61821418 43.9375 59.5625 C39.89098339 65.27586071 35.93578557 71.0356851 32.078125 76.87890625 C29.48275797 80.7768353 26.83953358 84.64047992 24.1875 88.5 C23.71884521 89.18328369 23.25019043 89.86656738 22.76733398 90.57055664 C20.57102349 93.76190269 18.36018862 96.92626599 16 100 C14.35 100 12.7 100 11 100 C10.67 99.67 10.34 99.34 10 99 C10.01252808 98.44545135 10.02505615 97.89090271 10.03796387 97.31954956 C10.82213829 62.9175221 10.82213829 62.9175221 11.23217773 28.50958252 C11.24401454 26.88433232 11.26106479 25.25911134 11.28344727 23.63397217 C11.31295624 21.3925098 11.32328795 19.15178875 11.328125 16.91015625 C11.3374707 15.66371338 11.34681641 14.41727051 11.35644531 13.13305664 C10.96952284 9.73211414 10.47337876 8.33600807 8 6 C4.39534252 5.18685089 4.39534252 5.18685089 1 5 C0.67 3.35 0.34 1.7 0 0 Z " fill="#000000" transform="translate(6,5)"/>
</svg>
