<?xml version="1.0" encoding="UTF-8"?>
<!-- Generator: visioncortex VTracer 0.6.4 -->
<svg version="1.1" xmlns="http://www.w3.org/2000/svg" width="140" height="110">
<path d="M0 0 C12.21 0 24.42 0 37 0 C39 2 39 2 39.24050903 4.13870239 C39.2338472 5.4644075 39.2338472 5.4644075 39.22705078 6.81689453 C39.22689972 7.81778107 39.22674866 8.8186676 39.22659302 9.84988403 C39.21627045 10.93325043 39.20594788 12.01661682 39.1953125 13.1328125 C39.1924826 14.23978485 39.18965271 15.3467572 39.18673706 16.48727417 C39.17551519 20.03329137 39.15040691 23.57905875 39.125 27.125 C39.1149728 29.52473594 39.1058465 31.92447583 39.09765625 34.32421875 C39.07556932 40.21623151 39.04207207 46.10809791 39 52 C39.45673096 51.27264648 39.91346191 50.54529297 40.3840332 49.79589844 C43.5166858 44.83479963 46.65550736 39.93990363 50.1875 35.25 C50.85136719 34.3321875 51.51523437 33.414375 52.19921875 32.46875 C53.23392539 31.05023678 54.28827673 29.64470095 55.39453125 28.28125 C59.56625819 22.50274484 58.31454021 14.78882625 58 8 C54.99382731 4.99382731 52.17618402 5.40414684 48 5 C48 3.35 48 1.7 48 0 C63.18 0 78.36 0 94 0 C94 1.65 94 3.3 94 5 C90.535 6.485 90.535 6.485 87 8 C85.79572878 11.80966567 85.79536375 15.62531183 85.71875 19.58203125 C85.70034058 20.31443527 85.68193115 21.04683929 85.66296387 21.80143738 C85.60439928 24.13837908 85.55154496 26.4753936 85.5 28.8125 C85.43184627 31.88164713 85.35808858 34.95059072 85.28125 38.01953125 C85.26767456 38.71456253 85.25409912 39.40959381 85.2401123 40.12568665 C85.13043852 44.50322327 84.69336209 48.68648779 84 53 C87.74580491 49.6236208 90.16093389 45.83065908 92.75 41.5625 C93.62725884 40.12609113 94.50486813 38.68989623 95.3828125 37.25390625 C95.81883789 36.5386377 96.25486328 35.82336914 96.70410156 35.08642578 C97.91039039 33.14427349 99.15676516 31.23876775 100.4296875 29.33984375 C105.88469393 21.29920578 105.88469393 21.29920578 106 12 C104.6351132 8.59758176 104.6351132 8.59758176 103 6 C101.68 5.67 100.36 5.34 99 5 C99 3.35 99 1.7 99 0 C110.88 0 122.76 0 135 0 C135 1.65 135 3.3 135 5 C134.27554688 5.13535156 133.55109375 5.27070313 132.8046875 5.41015625 C125.51030158 7.03437285 122.11973445 8.85258375 118 15 C117.0409375 16.30904297 117.0409375 16.30904297 116.0625 17.64453125 C110.71188872 25.08761373 106.0387838 32.8777559 101.37695312 40.76538086 C98.16632943 46.16203745 94.75583779 51.26020243 90.96875 56.2734375 C88.60479891 59.54732215 86.48922116 62.93653755 84.375 66.375 C78.61392387 75.7422021 72.48796299 84.86012298 66.35351562 93.9855957 C65.23205614 95.65463651 64.11539832 97.32690252 63 99 C61.02 99 59.04 99 57 99 C56.92470027 84.76312203 57.15804518 70.54493497 57.5 56.3125 C57.54837766 54.23112444 57.59655578 52.14974424 57.64453125 50.06835938 C57.76073068 45.0455166 57.87959505 40.02274365 58 35 C57.60345215 35.62801514 57.2069043 36.25603027 56.79833984 36.90307617 C51.82014503 44.75931204 46.73345063 52.54076495 41.625 60.3125 C40.01222166 62.76640327 38.40012503 65.22075112 36.7890625 67.67578125 C36.39369797 68.27817627 35.99833344 68.88057129 35.59098816 69.5012207 C32.03024938 74.93572881 28.5229173 80.40368056 25.02709961 85.88012695 C22.13260838 90.33498705 19.09415294 94.68211454 16 99 C14.35 99 12.7 99 11 99 C10.89552398 85.36186054 10.89811675 71.73562763 11.2578125 58.1015625 C11.28208817 57.1684877 11.30636383 56.2354129 11.33137512 55.27406311 C11.45353974 50.66300012 11.58617861 46.05250642 11.73217773 41.44213867 C12.06980889 29.90354551 11.78736061 18.51648305 11 7 C7.3162378 5.45620868 3.96435532 4.55316586 0 4 C0 2.68 0 1.36 0 0 Z " fill="#000000" transform="translate(5,6)"/>
</svg>
