<?xml version="1.0" encoding="UTF-8"?>
<!-- Generator: visioncortex VTracer 0.6.4 -->
<svg version="1.1" xmlns="http://www.w3.org/2000/svg" width="134" height="107">
<path d="M0 0 C-0.33 1.65 -0.66 3.3 -1 5 C-2.65 5.33 -4.3 5.66 -6 6 C-5.52111154 13.16681346 -4.22645405 19.99856631 -2.62109375 26.99609375 C-2 30 -2 30 -2 33 C6.90021585 25.87043661 6.90021585 25.87043661 12 16 C11.86181805 12.96511505 11.48331202 9.99784078 11 7 C9.02 6.01 7.04 5.02 5 4 C5 2.68 5 1.36 5 0 C19.52 0 34.04 0 49 0 C49 1.32 49 2.64 49 4 C47.76636719 4.29390625 47.76636719 4.29390625 46.5078125 4.59375 C34.95030475 7.68998764 28.0402952 13.69711499 19.8671875 22.1328125 C18.12777749 23.87222251 16.33627016 25.43878898 14.4375 27 C9.23782138 31.35487958 5.04038755 36.58137572 1 42 C4.23105139 68.15335605 4.23105139 68.15335605 14 91 C15.80811184 91.20896317 17.62216032 91.36780361 19.4375 91.5 C24.78015267 91.89007634 24.78015267 91.89007634 27 93 C27 94.32 27 95.64 27 97 C9.84 97 -7.32 97 -25 97 C-25 95.35 -25 93.7 -25 92 C-22.36 92 -19.72 92 -17 92 C-18.52260713 82.18404341 -20.04636568 72.51028355 -23 63 C-24.79799669 64.74387639 -26.58832297 66.49458982 -28.375 68.25 C-29.13683594 68.98669922 -29.13683594 68.98669922 -29.9140625 69.73828125 C-33.41493219 73.19308686 -35.81828524 75.60136523 -36.1953125 80.578125 C-36.17210937 81.45984375 -36.14890625 82.3415625 -36.125 83.25 C-36.10695312 84.14203125 -36.08890625 85.0340625 -36.0703125 85.953125 C-35.97630714 88.68972552 -34.95133178 89.16043902 -33 91 C-30.89667109 91.71447643 -30.89667109 91.71447643 -29 92 C-29 93.65 -29 95.3 -29 97 C-44.84 97 -60.68 97 -77 97 C-77 95.35 -77 93.7 -77 92 C-76.10539062 92.020625 -75.21078125 92.04125 -74.2890625 92.0625 C-64.52280427 91.89591137 -59.89290096 89.73098718 -53 83 C-51.50043831 81.7078245 -50.0004205 80.41617818 -48.5 79.125 C-40.36632823 71.73669687 -32.72645038 63.80853918 -25 56 C-25.61752793 50.49621484 -26.51470753 45.17152897 -27.7421875 39.7734375 C-27.91122589 39.02212555 -28.08026428 38.2708136 -28.25442505 37.49673462 C-28.61043621 35.92151165 -28.96852464 34.34675682 -29.32861328 32.77246094 C-29.87473036 30.37618313 -30.40830466 27.97732737 -30.94140625 25.578125 C-31.29090406 24.03888914 -31.64113944 22.49982054 -31.9921875 20.9609375 C-32.14855682 20.25141937 -32.30492615 19.54190125 -32.46603394 18.81088257 C-33.68179382 13.57852893 -35.14356894 8.85643106 -39 5 C-40.98821313 4.60235737 -42.98944339 4.26224651 -45 4 C-45 2.68 -45 1.36 -45 0 C-40.35956021 -0.16956119 -35.71891935 -0.32987949 -31.07788086 -0.48217773 C-29.50390342 -0.53506698 -27.93000411 -0.59034386 -26.35620117 -0.64819336 C-17.48838292 -0.9724538 -8.82802469 -1.15830834 0 0 Z " fill="#000000" transform="translate(79,5)"/>
<path d="M0 0 C0.33 0 0.66 0 1 0 C1 1.65 1 3.3 1 5 C0.67 5 0.34 5 0 5 C0 3.35 0 1.7 0 0 Z " fill="#000000" transform="translate(0,5)"/>
</svg>
