<?xml version="1.0" encoding="UTF-8"?>
<!-- Generator: visioncortex VTracer 0.6.4 -->
<svg version="1.1" xmlns="http://www.w3.org/2000/svg" width="117" height="111">
<path d="M0 0 C0.495 2.475 0.495 2.475 1 5 C0.1646875 5.09474609 0.1646875 5.09474609 -0.6875 5.19140625 C-7.59098688 6.29922931 -11.21011061 9.04835074 -16 14 C-16.75925781 14.76183594 -17.51851563 15.52367187 -18.30078125 16.30859375 C-25.18788947 23.52522868 -30.81082684 31.49261642 -36.39526367 39.73339844 C-37.53745186 41.34667627 -38.73739628 42.91971603 -39.97387695 44.46191406 C-45.70592766 51.74126269 -48.42008642 58.88688985 -50.9375 67.75 C-51.32432027 69.03831782 -51.71298612 70.32608297 -52.10351562 71.61328125 C-54.66418111 80.17998739 -54.66418111 80.17998739 -56 89 C-55.01 90.485 -55.01 90.485 -54 92 C-50.7 92.33 -47.4 92.66 -44 93 C-44 94.65 -44 96.3 -44 98 C-62.81 98 -81.62 98 -101 98 C-101.495 95.525 -101.495 95.525 -102 93 C-100.89591797 92.94392578 -100.89591797 92.94392578 -99.76953125 92.88671875 C-92.28058333 92.60322154 -92.28058333 92.60322154 -86 89 C-82.91915593 82.65346121 -80.95788824 75.91301643 -78.875 69.1875 C-78.51535156 68.06279297 -78.15570313 66.93808594 -77.78515625 65.77929688 C-73.69767679 52.60597825 -74.0583399 43.35627132 -77.12280273 30.08447266 C-77.68998094 27.61419454 -78.22426776 25.13830768 -78.75585938 22.66015625 C-79.11004488 21.07769083 -79.46609888 19.4956422 -79.82421875 17.9140625 C-80.06044197 16.81090195 -80.06044197 16.81090195 -80.30143738 15.68545532 C-81.3224859 11.37712173 -82.39734645 8.66499957 -86 6 C-89.64721696 5.19234122 -89.64721696 5.19234122 -93 5 C-93 3.68 -93 2.36 -93 1 C-78.15 1 -63.3 1 -48 1 C-48 2.32 -48 3.64 -48 5 C-49.98 5.33 -51.96 5.66 -54 6 C-52.03509857 17.75963734 -49.67688743 29.38203678 -47 41 C-46.34 41 -45.68 41 -45 41 C-43.36842369 38.77539687 -41.74470115 36.54572432 -40.125 34.3125 C-39.66480469 33.68666016 -39.20460937 33.06082031 -38.73046875 32.41601562 C-34.45701653 26.50131002 -32.02070575 21.52211522 -33 14 C-33.81233703 11.51133742 -34.82368298 9.35263404 -36 7 C-37.98 6.34 -39.96 5.68 -42 5 C-42 3.68 -42 2.36 -42 1 C-37.62515941 0.82897275 -33.25010879 0.66401117 -28.875 0.5 C-27.65683594 0.45230469 -26.43867187 0.40460937 -25.18359375 0.35546875 C-16.78185664 0.0442933 -8.40696391 -0.05819087 0 0 Z " fill="#000000" transform="translate(108,7)"/>
</svg>
