<?xml version="1.0" encoding="UTF-8"?>
<!-- Generator: visioncortex VTracer 0.6.4 -->
<svg version="1.1" xmlns="http://www.w3.org/2000/svg" width="118" height="110">
<path d="M0 0 C22.11 0 44.22 0 67 0 C67 5.61807319 66.69876391 5.88874862 63 9.625 C58.95158042 13.90078792 55.4847382 18.31072773 52.078125 23.10546875 C49.48418216 26.71846056 46.77459207 30.23434903 44.05395508 33.75244141 C43.62493896 34.30722168 43.19592285 34.86200195 42.75390625 35.43359375 C42.08705811 36.29573486 42.08705811 36.29573486 41.40673828 37.17529297 C38.84148087 40.50273724 36.29792018 43.84677451 33.75 47.1875 C30.36270665 51.62859569 26.96288799 56.05834615 23.515625 60.453125 C15.41158194 70.78628626 7.60687643 81.29530058 0 92 C14.81168578 92.676676 22.11469512 88.91022181 33.05859375 79.3203125 C33.58735107 78.86406494 34.1161084 78.40781738 34.66088867 77.93774414 C36.18580698 76.61805374 37.69485668 75.28009414 39.203125 73.94140625 C42.18982422 71.86823654 43.45905359 71.52830458 47 72 C46.41124445 77.89424587 45.22679399 83.27854941 43.5 88.9375 C43.27441406 89.70384766 43.04882812 90.47019531 42.81640625 91.25976562 C41.13972622 96.86027378 41.13972622 96.86027378 40 98 C15.25 98 -9.5 98 -35 98 C-35 91.67494113 -34.98592762 91.25933421 -31.125 86.9375 C-30.30386719 85.98875 -29.48273437 85.04 -28.63671875 84.0625 C-28.20278809 83.56492187 -27.76885742 83.06734375 -27.32177734 82.5546875 C-25.08954845 79.92911794 -23.01951261 77.1825945 -20.9375 74.4375 C-18.08107126 70.696654 -15.20344769 66.97754596 -12.25 63.3125 C-4.55759994 53.7439048 3.11425056 44.11794993 10.25 34.125 C13.02305292 30.24747632 15.98117672 26.57179278 19.0625 22.9375 C26.24512157 14.46469593 26.24512157 14.46469593 32 5 C30.31154753 5.06106519 28.62410155 5.1501205 26.9375 5.25 C25.99777344 5.29640625 25.05804688 5.3428125 24.08984375 5.390625 C17.39397967 6.71117468 12.35649976 11.08757376 7.3125 15.4375 C6.75755859 15.90220703 6.20261719 16.36691406 5.63085938 16.84570312 C2.34655686 19.64575652 -0.40545705 22.52167114 -3 26 C-4.32 26 -5.64 26 -7 26 C-7.80377393 17.35943029 -4.37107812 8.84696336 -1 1 C-0.67 0.67 -0.34 0.34 0 0 Z " fill="#000000" transform="translate(46,6)"/>
</svg>
