<?xml version="1.0" encoding="UTF-8" standalone="no"?>
<svg
   width="210mm"
   height="297mm"
   viewBox="0 0 210 297"
   version="1.1"
   id="svg27"
   xmlns="http://www.w3.org/2000/svg"
   xmlns:svg="http://www.w3.org/2000/svg">
  <defs
     id="defs31" />
  <g
     id="layer1">
    <!-- ================== BEZIERS ================== -->
    <path
       id="bezier1"
       d="m 29.797807,42.949547 c 0,0 74.991163,-18.828174 72.756043,31.439386"
       style="fill:none;stroke:#000000;stroke-width:0.3" />
    <path
       id="bezier2"
       d="m 63.760824,127.71718 c 77.822436,4.75267 49.543666,27.63829 77.822436,4.75267"
       style="fill:none;stroke:#000000;stroke-width:0.3" />
    <path
       id="bezier3"
       d="M 146.60358,43.585668 C 134.2047,160.11828 176.34287,29.100275 177.59716,136.91749"
       style="fill:none;stroke:#000000;stroke-width:0.3" />
    <!-- ================== WORD 1 ================== -->
    <g
       id="word_1"
       data-bezier-ref="bezier1"
       data-text="test text is da">
      <g
         aria-label="test text is da"
         id="text9"
         style="font-size:7.8px;font-family:font6;text-anchor:middle">
        <path
           d="m 45.477097,35.182077 -0.428509,0.540114 c 0.02381,0.295544 0.0504,0.543725 0.08751,0.743709 0.02437,0.154282 0.04459,0.269786 0.06065,0.346511 0.06453,0.455921 0.06258,0.730691 -0.005,0.832066 -0.0493,0.05235 -0.09085,0.103868 -0.130741,0.170898 -0.133512,0.218262 -0.234892,0.370326 -0.303309,0.463946 -0.0061,0.01634 -0.01994,0.03351 -0.03379,0.05069 l -0.0277,0.03435 c -0.04931,0.05235 -0.09002,0.111624 -0.131572,0.163142 -0.166196,0.206075 -0.240155,0.394424 -0.228802,0.573634 l 0.217157,-0.02326 c 0.149854,-0.212168 0.299708,-0.424336 0.43322,-0.642598 0.02687,-0.0421 0.05457,-0.07645 0.06759,-0.101376 0.07977,-0.13406 0.148192,-0.227679 0.188079,-0.294709 0.01385,-0.01717 0.0277,-0.03435 0.04764,-0.06786 0.01828,0.170624 0.03572,0.333492 0.05927,0.480018 0.01,0.09307 0.0252,0.162038 0.02936,0.200816 l 0.03988,0.37227 c 0.0216,0.201646 0.03739,0.349003 0.05594,0.448996 0.01163,0.108578 0.04819,0.230176 0.101923,0.365623 0.05456,0.143203 0.129071,0.252891 0.214935,0.32214 0.115225,0.05041 0.250394,0.06731 0.405507,0.0507 l 0.09307,-0.01 0.09307,-0.01 c 0.324905,-0.04265 0.62627,-0.231824 0.887752,-0.573619 l 0.0277,-0.03435 c 0.01385,-0.01717 0.02078,-0.02576 0.02687,-0.0421 0.152346,-0.188901 0.21855,-0.376419 0.214122,-0.564216 l -0.17838,0.01911 c -0.16038,0.260363 -0.305801,0.440678 -0.436264,0.540944 -0.151789,0.04764 -0.285297,0.04625 -0.407447,0.0044 -0.157048,-0.147914 -0.270607,-0.402467 -0.324335,-0.757564 -8.31e-4,-0.0078 -0.01025,-0.02244 -0.01274,-0.0457 -0.0025,-0.02327 -0.0042,-0.03878 -0.0058,-0.05429 -0.0075,-0.0698 -0.02271,-0.138771 -0.03102,-0.216327 -0.02271,-0.138771 -0.04293,-0.254274 -0.05207,-0.339586 -0.127952,-0.755067 -0.116586,-1.234807 0.01859,-1.437558 l 0.0277,-0.03435 0.03462,-0.04293 c 0.04072,-0.05927 0.08919,-0.119379 0.137666,-0.179484 0.117722,-0.145969 0.199989,-0.256762 0.245971,-0.340134 l -0.02409,-0.224913 -0.170624,0.01828 -0.0831,0.103037 c -0.128249,0.194164 -0.242648,0.371156 -0.344028,0.523219 -0.02825,-0.263691 -0.09195,-0.711856 -0.192754,-1.360005 z"
           id="path33" />
        <path
           d="m 51.810301,35.758095 c -0.574596,-0.05308 -1.030441,0.245118 -1.374763,0.902928 -0.165209,0.316682 -0.282025,0.543916 -0.365457,0.690586 -0.0067,0.01611 -0.01335,0.03223 -0.02726,0.05667 -0.01391,0.02445 -0.02836,0.04111 -0.02781,0.04889 -0.04894,0.08167 -0.09066,0.155003 -0.118471,0.203893 -0.11792,0.211673 -0.185239,0.36502 -0.209187,0.468373 -0.0056,0.03167 -0.01115,0.06335 -0.0095,0.08669 l -0.101146,0.0072 c -0.08674,0.09999 -0.158478,0.191091 -0.198538,0.287768 l -0.04006,0.09668 c -0.0778,0.0055 -0.181212,0.09105 -0.325784,0.257696 l -0.08674,0.09999 c -0.03669,0.03388 -0.06561,0.06721 -0.09452,0.10054 -0.02169,0.025 -0.0506,0.05833 -0.08729,0.09221 -0.08619,0.107768 -0.141813,0.205548 -0.166312,0.301121 0.0011,0.01556 -0.0056,0.03167 -0.0039,0.05501 l -0.005,0.03945 c -0.108927,0.0077 -0.22177,0.07047 -0.354644,0.181546 l 0.01876,0.264536 0.210073,-0.0149 c 0.08729,-0.09221 0.150697,-0.19054 0.175196,-0.286112 -5.52e-4,-0.0078 -0.0017,-0.02334 0.0045,-0.04724 -0.0011,-0.01556 0.0056,-0.03167 0.0045,-0.04724 l 0.155609,-0.01104 c 0.136792,-0.166094 0.245773,-0.283298 0.333619,-0.367725 0.161789,-0.144408 0.261886,-0.276621 0.3153,-0.405523 0.0056,-0.03167 0.01059,-0.07113 0.02284,-0.118915 l 0.101146,-0.0072 c 0.12399,-0.126088 0.201849,-0.241085 0.225796,-0.344438 0,0 0.0067,-0.01611 0.0056,-0.03167 -0.0011,-0.01556 0.005,-0.03945 0.0039,-0.05502 l 0.08227,-0.05275 0.05281,-0.0272 0.05948,-0.04332 c 0.0099,0.140048 0.02599,0.256203 0.03984,0.341236 0.0033,0.04668 0.0144,0.09281 0.01771,0.139497 0.04812,0.457943 0.197441,0.799233 0.432401,1.024976 0.223317,0.171831 0.532825,0.235893 0.928524,0.192188 0.486306,-0.08923 0.897123,-0.360776 1.239681,-0.82297 0.09899,-0.147774 0.243014,-0.322201 0.432061,-0.52328 0.167362,-0.176082 0.255263,-0.369987 0.255372,-0.588943 l -0.264535,0.01876 c -0.221382,0.406682 -0.540545,0.757742 -0.971944,1.069846 -0.181764,0.08327 -0.39294,0.08261 -0.64186,-0.0092 -0.193353,-0.08012 -0.346094,-0.249138 -0.441558,-0.492595 0.388083,-0.371588 0.738421,-0.834334 1.051016,-1.388238 0.168022,-0.387258 0.205984,-0.734013 0.106106,-1.039712 -0.09552,-0.133978 -0.212171,-0.235179 -0.357737,-0.30305 z m -0.987396,0.851994 c 0.130115,-0.149982 0.242407,-0.220503 0.351333,-0.228229 0.07499,0.06506 0.151085,0.145676 0.228283,0.241855 0.05987,0.292898 0.06307,0.558537 0.0018,0.797469 -0.230818,0.383892 -0.440447,0.625529 -0.62944,0.71713 -0.181989,-0.581381 -0.171177,-1.090422 0.048,-1.528225 z"
           id="path35" />
        <path
           d="m 56.957028,35.527772 c -0.03036,0.03202 -0.06789,0.08764 -0.104807,0.166645 -0.163659,0.300857 -0.313383,0.538922 -0.441582,0.706189 -0.128199,0.167267 -0.2486,0.334327 -0.360997,0.508977 -0.195263,0.286092 -0.368586,0.516982 -0.504167,0.700051 -0.128406,0.15947 -0.218862,0.278917 -0.271577,0.350543 -0.285927,0.397742 -0.542532,0.72448 -0.7852,0.988424 -0.09888,0.09626 -0.189747,0.200115 -0.272614,0.311558 l 0.0064,0.241714 0.194931,-0.0052 c 0.143379,-0.183276 0.264402,-0.326944 0.355273,-0.430797 0.371697,-0.400023 0.658661,-0.758778 0.868689,-1.076474 0.314628,-0.492139 0.631122,-0.914102 0.965492,-1.25071 0.08253,0.169466 0.164239,0.307743 0.260709,0.414416 0.28941,0.320019 0.476004,0.588153 0.544603,0.820412 0.03824,0.264276 -0.02551,0.507857 -0.175646,0.730327 -0.137033,0.128489 -0.267927,0.194392 -0.407863,0.213719 -0.296088,0.01568 -0.508272,-0.0411 -0.636553,-0.170338 -0.09668,-0.11447 -0.140018,-0.277175 -0.122433,-0.49612 0.09274,-0.03368 0.178093,-0.05155 0.240471,-0.05321 0.01642,0.03077 0.04865,0.06893 0.09688,0.122268 l 0.04844,0.06113 c -0.02766,0.133383 -0.04015,0.250756 -0.03766,0.344323 l 0.06258,0.0061 0.05479,0.0063 0.0472,0.01435 0.07839,0.01352 0.159387,-0.168096 c 0.143793,-0.167682 0.207748,-0.403466 0.199661,-0.707558 -0.1603,-0.159595 -0.271742,-0.242462 -0.33412,-0.240803 l -0.116959,0.0031 c -0.171539,0.0046 -0.326655,0.0399 -0.457549,0.105801 -0.391646,0.236695 -0.640453,0.563225 -0.738624,0.979382 -0.03277,0.234954 0.01182,0.444443 0.133755,0.628466 0.176101,0.166978 0.38111,0.247356 0.607438,0.24914 0.560779,-0.03832 1.038195,-0.277298 1.432039,-0.724727 0.398739,-0.556797 0.569698,-1.169959 0.512672,-1.847282 -0.05259,-0.217079 -0.150719,-0.38613 -0.310189,-0.514536 -0.199078,-0.15076 -0.390567,-0.309526 -0.582262,-0.476089 0.02704,-0.156774 0.03787,-0.336525 0.03268,-0.531456 z"
           id="path37" />
        <path
           d="m 60.313297,34.424824 -0.489361,0.485664 c -0.01129,0.296287 -0.01424,0.54587 -0.001,0.74884 0.006,0.156081 0.01238,0.273165 0.01926,0.351251 0.01017,0.460352 -0.02425,0.732965 -0.103343,0.825639 -0.05515,0.04615 -0.102496,0.0924 -0.150029,0.154242 -0.15838,0.200946 -0.277028,0.339957 -0.356034,0.424831 -0.008,0.01551 -0.02377,0.03092 -0.03955,0.04634 l -0.03157,0.03083 c -0.05515,0.04615 -0.102589,0.100197 -0.149937,0.146442 -0.189395,0.18498 -0.285103,0.363264 -0.295018,0.542559 l 0.218385,0.0026 c 0.173887,-0.192963 0.347774,-0.385926 0.506155,-0.586873 0.03166,-0.03863 0.06322,-0.06946 0.0791,-0.09267 0.09506,-0.123687 0.174071,-0.208562 0.221604,-0.270405 0.01578,-0.01541 0.03157,-0.03083 0.05533,-0.06175 -0.002,0.171588 -0.004,0.335376 0.0021,0.483658 -0.0011,0.09359 0.0059,0.163881 0.0054,0.202878 l -0.0044,0.374374 c -0.0024,0.202786 -0.0041,0.350976 0.0025,0.45246 -0.0013,0.109193 0.02064,0.23426 0.05798,0.37511 0.03725,0.14865 0.09827,0.266377 0.175341,0.345292 0.108457,0.06368 0.24068,0.09644 0.396669,0.09828 l 0.09359,0.0011 0.09359,0.0011 c 0.327669,-0.0039 0.649286,-0.156155 0.949345,-0.464638 l 0.03157,-0.03083 c 0.01578,-0.01541 0.02367,-0.02312 0.03166,-0.03863 0.173612,-0.169565 0.261521,-0.347941 0.279327,-0.534944 l -0.179387,-0.0021 c -0.190038,0.239576 -0.355759,0.401433 -0.49716,0.485571 -0.156358,0.02936 -0.288764,0.0122 -0.405112,-0.04378 -0.138459,-0.165444 -0.221126,-0.431637 -0.232494,-0.790596 9.2e-5,-0.0078 -0.0075,-0.02349 -0.0072,-0.04689 2.76e-4,-0.0234 4.6e-4,-0.039 6.44e-4,-0.0546 8.28e-4,-0.0702 -0.0061,-0.140482 -0.0052,-0.218477 -0.0061,-0.140482 -0.01256,-0.257566 -0.01155,-0.34336 -0.03778,-0.764898 0.03022,-1.23993 0.188419,-1.425277 l 0.03157,-0.03083 0.03946,-0.03854 c 0.04744,-0.05404 0.10268,-0.107996 0.15792,-0.161949 0.134155,-0.131027 0.228944,-0.231316 0.28446,-0.308667 l 0.0027,-0.226184 -0.171588,-0.002 -0.0947,0.09249 c -0.150305,0.17764 -0.284828,0.339865 -0.403475,0.478876 0.0031,-0.265182 -0.0071,-0.717734 -0.03061,-1.373256 z"
           id="path39" />
        <path
           d="m 66.098163,34.654834 -0.517083,0.456034 c -0.02871,0.29511 -0.04632,0.544088 -0.04508,0.747483 -0.0032,0.156161 -0.0037,0.27342 -0.0014,0.351776 -0.01693,0.460153 -0.06732,0.73027 -0.151734,0.81813 -0.05777,0.04283 -0.107755,0.08621 -0.158843,0.145149 -0.169927,0.191281 -0.296547,0.323071 -0.380409,0.403151 -0.0089,0.01501 -0.02554,0.02947 -0.04221,0.04393 l -0.03333,0.02892 c -0.05777,0.04283 -0.108305,0.09399 -0.158292,0.137368 -0.199949,0.173518 -0.30598,0.345862 -0.326425,0.524264 l 0.217855,0.01542 c 0.184938,-0.1824 0.369876,-0.364799 0.539803,-0.556081 0.03387,-0.0367 0.0672,-0.06562 0.08441,-0.08786 0.102177,-0.117881 0.186039,-0.19796 0.237127,-0.256901 0.01666,-0.01446 0.03333,-0.02892 0.05887,-0.05839 -0.01211,0.171172 -0.02368,0.334563 -0.02636,0.482944 -0.0066,0.09337 -0.0038,0.163942 -0.0065,0.202845 l -0.02643,0.373466 c -0.01432,0.202294 -0.02478,0.350124 -0.02416,0.451822 -0.0077,0.108927 0.0068,0.235068 0.03581,0.377871 0.02844,0.150583 0.08243,0.271696 0.154725,0.355008 0.104522,0.06995 0.234589,0.110436 0.3902,0.121449 l 0.09337,0.0066 0.09337,0.0066 c 0.327333,0.01535 0.657348,-0.117689 0.975033,-0.407986 l 0.03332,-0.02892 c 0.01666,-0.01446 0.02499,-0.02169 0.03388,-0.0367 0.183285,-0.159058 0.281536,-0.331954 0.310312,-0.517585 l -0.178952,-0.01267 c -0.203803,0.227982 -0.378758,0.37981 -0.524864,0.455484 -0.157814,0.02011 -0.288982,-0.0048 -0.401835,-0.06753 -0.128487,-0.173303 -0.195351,-0.443898 -0.185583,-0.802904 5.51e-4,-0.0078 -0.0061,-0.02389 -0.0045,-0.04723 0.0017,-0.02334 0.0028,-0.0389 0.0039,-0.05446 0.005,-0.07003 0.0021,-0.1406 0.0076,-0.218406 0.0021,-0.1406 0.0026,-0.257859 0.0087,-0.343445 0.0073,-0.765797 0.103111,-1.236004 0.271937,-1.411725 l 0.03333,-0.02892 0.04166,-0.03615 c 0.05054,-0.05116 0.108856,-0.101769 0.167174,-0.152379 0.14163,-0.122908 0.242155,-0.217448 0.302125,-0.291398 l 0.01597,-0.225636 -0.171172,-0.01211 -0.09997,0.08676 c -0.160495,0.16849 -0.304327,0.322521 -0.430947,0.454311 0.01872,-0.264538 0.0351,-0.716911 0.05023,-1.372679 z"
           id="path41" />
        <path
           d="m 72.312569,36.436685 c -0.552343,-0.167016 -1.05865,0.03391 -1.527671,0.609485 -0.225252,0.277206 -0.385187,0.47646 -0.496288,0.603462 -0.0098,0.01445 -0.01953,0.0289 -0.03805,0.05007 -0.01852,0.02117 -0.03602,0.0346 -0.03703,0.04233 -0.0643,0.07022 -0.119852,0.13372 -0.156885,0.176054 -0.157902,0.183787 -0.254553,0.320556 -0.298703,0.417025 -0.0118,0.02992 -0.0236,0.05983 -0.02665,0.08303 l -0.100535,-0.01322 c -0.105001,0.0806 -0.193519,0.155504 -0.252119,0.242205 l -0.0586,0.0867 c -0.07733,-0.01017 -0.195769,0.05293 -0.370771,0.187272 l -0.105002,0.0806 c -0.04273,0.02585 -0.07773,0.05272 -0.112734,0.07959 -0.02625,0.02015 -0.06125,0.04702 -0.103985,0.07287 -0.106018,0.08834 -0.180085,0.173004 -0.223219,0.261739 -0.002,0.01547 -0.0118,0.02992 -0.01485,0.05312 l -0.01282,0.03765 c -0.108269,-0.01423 -0.231387,0.02465 -0.383806,0.106887 l -0.03457,0.262938 0.208804,0.02745 c 0.103984,-0.07287 0.185785,-0.15652 0.228919,-0.245255 0.001,-0.0077 0.0031,-0.0232 0.01383,-0.04538 0.002,-0.01547 0.0118,-0.02992 0.01383,-0.04538 l 0.15467,0.02033 c 0.167268,-0.135353 0.297503,-0.228372 0.400471,-0.293507 0.187419,-0.109103 0.311954,-0.218605 0.390088,-0.334208 0.0118,-0.02992 0.02462,-0.06757 0.04618,-0.111935 l 0.100535,0.01322 c 0.146719,-0.09872 0.24602,-0.195804 0.29017,-0.292273 0,0 0.0098,-0.01445 0.0118,-0.02992 0.002,-0.01547 0.01282,-0.03765 0.01485,-0.05312 l 0.09117,-0.03522 0.05718,-0.01608 0.06695,-0.03053 c -0.0183,0.139202 -0.02582,0.256221 -0.02926,0.342306 -0.0061,0.0464 -0.0045,0.09382 -0.01057,0.140218 -0.04452,0.458308 0.03347,0.82258 0.218492,1.090783 0.184404,0.213053 0.474826,0.33777 0.871266,0.374152 0.494325,0.0099 0.951181,-0.173908 1.379319,-0.558183 0.126568,-0.124969 0.302587,-0.267039 0.528057,-0.42621 0.199219,-0.13902 0.324153,-0.311406 0.368086,-0.52591 l -0.262938,-0.03457 c -0.298303,0.354141 -0.681274,0.634214 -1.166414,0.853653 -0.194753,0.0452 -0.401523,0.0023 -0.627027,-0.137499 -0.173404,-0.117201 -0.289223,-0.31337 -0.334025,-0.571007 0.454605,-0.28639 0.890477,-0.669649 1.307615,-1.149775 0.242135,-0.34579 0.348735,-0.67793 0.312066,-0.997435 -0.06677,-0.150385 -0.160804,-0.272886 -0.28984,-0.368521 z m -1.137948,0.637117 c 0.157502,-0.120903 0.281637,-0.167521 0.389905,-0.153288 0.06045,0.07875 0.11887,0.172969 0.175255,0.282653 3.4e-5,0.298955 -0.05,0.55986 -0.157832,0.781697 -0.302987,0.329924 -0.55674,0.524711 -0.760243,0.57663 -0.06194,-0.606043 0.05054,-1.102618 0.352915,-1.487692 z"
           id="path43" />
        <path
           d="m 76.282986,37.229545 c -0.364547,-0.159027 -0.766845,-0.07083 -1.214517,0.262926 -0.151764,0.110701 -0.342298,0.252888 -0.575911,0.409661 -0.222679,0.143185 -0.353891,0.306243 -0.40557,0.470619 0.182932,0.03975 0.341001,0.01024 0.474209,-0.08853 0.121276,-0.117325 0.327055,-0.2562 0.613025,-0.433525 0.243909,0.053 0.403316,0.127541 0.495121,0.219326 0.176327,0.253825 0.226411,0.647843 0.144283,1.172774 -0.108306,0.535207 -0.338247,0.932238 -0.680545,1.185126 -0.108027,0.05635 -0.224674,0.0789 -0.361873,0.04909 0.03711,-0.02386 0.09775,-0.08253 0.197158,-0.172676 0.0752,-0.199174 0.09805,-0.377796 0.05926,-0.5299 -0.09346,-0.08416 -0.191891,-0.145459 -0.310533,-0.187201 l -0.144821,-0.03147 c -0.09312,-0.01225 -0.176966,-0.03047 -0.245565,-0.04537 -0.09278,0.05966 -0.203125,0.163398 -0.338647,0.309556 -0.08879,0.188239 -0.09971,0.385418 -0.03705,0.574635 0.158429,0.22599 0.373187,0.376418 0.647584,0.436038 0.27771,0.04438 0.620687,-0.06469 1.028931,-0.327195 0.02618,-0.01028 0.07257,-0.04011 0.129896,-0.08352 l -0.02319,0.10671 c 0.05934,0.204461 0.155796,0.385058 0.289364,0.541791 0.325777,0.190514 0.661152,0.263383 1.004468,0.226229 0.538819,-0.202207 0.898017,-0.459405 1.066662,-0.758006 0.0017,-0.0076 0.01259,-0.02121 0.02518,-0.04242 0.0033,-0.01524 0.01425,-0.02883 0.01756,-0.04408 l 0.09909,0.02153 0.04472,-0.205798 -0.205798,-0.04472 -0.03312,0.152443 -0.10671,-0.02319 c -0.26476,0.189916 -0.513957,0.271465 -0.74759,0.244648 -0.194864,-0.0583 -0.353612,-0.172615 -0.474589,-0.350559 -0.223079,-0.479497 -0.210888,-1.12339 0.04585,-1.937644 0.09741,-0.154438 0.254144,-0.288006 0.459264,-0.387114 l -0.08943,0.411597 0.202845,0.315461 c 0.04573,0.0099 0.105054,0.03081 0.19652,0.05068 0.127921,0.03578 0.258156,0.02416 0.396671,-0.02556 0.117964,-0.102081 0.205439,-0.210787 0.247181,-0.329429 0.05896,-0.234631 0.05894,-0.418221 -0.0017,-0.543149 -0.124948,-0.122932 -0.248898,-0.213719 -0.382784,-0.258774 l -0.160065,-0.03478 c -0.268432,-0.05034 -0.462957,-0.03673 -0.583574,0.04082 -0.01856,0.01193 -0.03711,0.02386 -0.06495,0.04176 -0.02949,0.02552 -0.04805,0.03745 -0.05898,0.05104 l -0.12393,0.0928 c -0.04042,0.03911 -0.07754,0.06297 -0.09609,0.0749 -0.130594,-0.243889 -0.272782,-0.434422 -0.417283,-0.577567 z"
           id="path45" />
        <path
           d="m 81.379416,37.303858 -0.605231,0.330208 c -0.09334,0.281427 -0.16566,0.520321 -0.209487,0.718942 -0.03773,0.151569 -0.06417,0.265811 -0.0793,0.342725 -0.118404,0.444981 -0.227363,0.697231 -0.329136,0.764218 -0.06582,0.02897 -0.12417,0.06021 -0.187042,0.10637 -0.208066,0.148903 -0.360726,0.249382 -0.46024,0.308903 -0.01199,0.01267 -0.03144,0.02308 -0.05089,0.03349 l -0.0389,0.02082 c -0.06582,0.02897 -0.12643,0.06767 -0.184782,0.09891 -0.233408,0.124933 -0.374971,0.269519 -0.434415,0.438964 l 0.209032,0.06328 c 0.220738,-0.136918 0.441475,-0.273836 0.649542,-0.422739 0.04116,-0.02829 0.08006,-0.04911 0.101773,-0.06699 0.125744,-0.09233 0.225258,-0.151849 0.28813,-0.198013 0.01945,-0.01041 0.0389,-0.02082 0.07034,-0.0439 -0.04972,0.164239 -0.09718,0.321014 -0.132649,0.465117 -0.02712,0.08958 -0.03999,0.159034 -0.05129,0.196361 l -0.108476,0.358342 c -0.05876,0.194101 -0.101696,0.335944 -0.12361,0.435255 -0.03164,0.104516 -0.0454,0.230743 -0.04875,0.37642 -0.0056,0.153143 0.02021,0.283204 0.07227,0.380458 0.08644,0.09136 0.20431,0.159642 0.353618,0.204841 l 0.08959,0.02712 0.08958,0.02712 c 0.315808,0.08745 0.66709,0.0308 1.041173,-0.181942 l 0.0389,-0.02082 c 0.01945,-0.01041 0.02918,-0.01562 0.04116,-0.02829 0.213957,-0.114521 0.348055,-0.261367 0.417224,-0.436018 l -0.171705,-0.05198 c -0.249228,0.177191 -0.45346,0.286507 -0.612697,0.327948 -0.158349,-0.01534 -0.280741,-0.06869 -0.376904,-0.154842 -0.08692,-0.197453 -0.0922,-0.476137 -0.0032,-0.824067 0.0023,-0.0075 -6.86e-4,-0.02466 0.0061,-0.04705 0.0068,-0.0224 0.0113,-0.03733 0.01582,-0.05226 0.02034,-0.06719 0.03321,-0.136638 0.05581,-0.211292 0.03321,-0.136638 0.05965,-0.250879 0.08451,-0.332999 0.176679,-0.745173 0.374257,-1.182485 0.577803,-1.316458 l 0.0389,-0.02082 0.04863,-0.02603 c 0.06061,-0.0387 0.128689,-0.07514 0.196767,-0.111575 0.165331,-0.08849 0.284295,-0.158426 0.359152,-0.217261 l 0.06554,-0.216498 -0.164239,-0.04972 -0.116705,0.06247 c -0.193821,0.128767 -0.368192,0.247123 -0.520852,0.347602 0.07684,-0.253825 0.192982,-0.69134 0.352952,-1.327477 z"
           id="path47" />
        <path
           d="m 87.120908,41.184485 c -0.251624,0.148265 -0.538124,0.297254 -0.863204,0.436575 -0.06568,0.02927 -0.148806,0.05891 -0.235271,0.09559 -0.252348,0.113391 -0.435668,0.19046 -0.560351,0.234913 -0.02783,0.0041 -0.06939,0.01888 -0.11095,0.0337 -0.06903,0.03632 -0.14176,0.06225 -0.221539,0.08484 -0.284241,0.08963 -0.466838,0.201573 -0.540744,0.339177 l 0.218467,0.103631 c 0.238976,-0.0852 0.418953,-0.155223 0.546979,-0.206724 0.366641,-0.154138 0.736985,-0.297887 1.118082,-0.427902 -0.04536,0.168413 -0.111129,0.361672 -0.197684,0.56234 l -0.05014,0.10571 -0.206539,0.47181 c -0.06686,0.140946 -0.116641,0.264094 -0.156756,0.348662 l -0.05349,0.112757 c -0.11366,0.239609 -0.169406,0.411726 -0.18097,0.527103 0.03515,0.180701 0.09369,0.31207 0.186032,0.390403 0.222895,0.148896 0.475153,0.199492 0.760117,0.144738 1.061975,-0.273222 1.704725,-0.572645 1.920842,-0.919048 l -0.169136,-0.08023 c -0.08647,0.03668 -0.159197,0.06261 -0.214491,0.08818 -0.573723,0.263102 -0.999723,0.414982 -1.270593,0.476421 -0.0712,-0.06831 -0.149078,-0.122515 -0.233646,-0.16263 0.015,-0.28641 0.07598,-0.542372 0.189642,-0.781981 l 0.05349,-0.112758 c 0.07987,-0.186573 0.156756,-0.348661 0.230301,-0.503703 l 0.180518,-0.380555 0.05683,-0.119805 c 0.13706,-0.28894 0.188017,-0.52376 0.149527,-0.697413 z m 1.117716,-1.7921 c -0.234007,-0.180067 -0.457714,-0.199853 -0.664074,-0.05601 -0.111762,0.162812 -0.164526,0.310444 -0.161635,0.449945 0.09749,0.158474 0.204283,0.26093 0.334478,0.314056 0.119082,0.02195 0.251173,-0.0017 0.396276,-0.07102 l 0.183861,-0.387603 c -0.01626,-0.111311 -0.0459,-0.194433 -0.08891,-0.249366 z"
           id="path49" />
        <path
           d="m 93.146427,44.045156 c -0.04328,0.0086 -0.106041,0.03233 -0.181808,0.0755 -0.30737,0.151074 -0.567096,0.258936 -0.768359,0.321437 -0.201263,0.0625 -0.396041,0.129337 -0.588669,0.206991 -0.324641,0.120767 -0.599487,0.209142 -0.815904,0.280279 -0.196929,0.05602 -0.339762,0.101279 -0.424164,0.129303 -0.46314,0.159545 -0.861332,0.278062 -1.21188,0.353368 -0.136315,0.02147 -0.27048,0.05377 -0.402493,0.09688 l -0.134362,0.201033 0.162123,0.108356 c 0.222901,-0.0668 0.404677,-0.114183 0.538841,-0.146476 0.534474,-0.111867 0.975943,-0.238987 1.330891,-0.377025 0.54109,-0.220027 1.043173,-0.381689 1.510548,-0.463349 -0.0305,0.186011 -0.04367,0.346082 -0.02653,0.488882 0.05142,0.4284 0.04887,0.75506 -0.02927,0.984282 -0.121425,0.237825 -0.314152,0.399849 -0.565209,0.494742 -0.186077,0.02574 -0.330995,0.0039 -0.456392,-0.06111 -0.250761,-0.158216 -0.39118,-0.327121 -0.421257,-0.506712 -0.01281,-0.149285 0.04579,-0.30714 0.186604,-0.475715 0.09516,0.02607 0.175159,0.06078 0.227038,0.09545 -0.0044,0.03461 -9.9e-5,0.08437 0.0085,0.15577 l 0.0042,0.07788 c -0.09962,0.09291 -0.177606,0.181512 -0.229617,0.259331 l 0.04754,0.04116 0.04106,0.03683 0.03024,0.03898 0.05618,0.05631 0.227203,-0.04516 c 0.214233,-0.05383 0.402624,-0.209372 0.57166,-0.462284 -0.03868,-0.222868 -0.08179,-0.354882 -0.13367,-0.389556 l -0.09727,-0.06501 c -0.142668,-0.09535 -0.289704,-0.156099 -0.434622,-0.177902 -0.456424,-0.03298 -0.848131,0.08987 -1.168636,0.372889 -0.162452,0.172877 -0.247052,0.369641 -0.2538,0.590293 0.04731,0.238022 0.168246,0.422047 0.351974,0.554225 0.479918,0.292611 1.007676,0.373272 1.587611,0.235498 0.647098,-0.224229 1.140808,-0.626031 1.485464,-1.211891 0.08245,-0.207583 0.09998,-0.402263 0.04397,-0.599192 -0.07544,-0.238055 -0.140057,-0.47826 -0.200342,-0.72495 0.112625,-0.112362 0.225283,-0.252847 0.333639,-0.41497 z"
           id="path51" />
        <path
           d="m 100.20908,48.63293 c -0.0847,-0.606354 -0.49554,-0.992067 -1.238386,-1.151915 -0.373414,-0.04137 -0.646438,0.0053 -0.823729,0.123162 0.07779,0.0979 0.152058,0.156964 0.233826,0.177753 0.223842,0.05021 0.38681,0.10281 0.499353,0.16937 0.222241,0.188201 0.357596,0.454759 0.417081,0.800242 -0.01571,0.51833 -0.233801,0.998599 -0.665853,1.451254 0.02306,-0.125833 0.01251,-0.242356 -0.02121,-0.337984 -0.11151,-0.193531 -0.329665,-0.353907 -0.649241,-0.475337 -0.697075,-0.190622 -1.341701,-0.113443 -1.955911,0.2304 -0.05099,0.02498 -0.07939,0.04008 -0.09097,0.05053 l -0.0888,-0.09847 c -0.155364,0.01407 -0.288127,0.01826 -0.409305,0.01201 -0.03305,-0.0017 -0.07711,-0.004 -0.126402,-0.01205 -0.08813,-0.0045 -0.170467,-0.01432 -0.258596,-0.01887 l -0.132195,-0.0068 c -0.01624,-0.0064 -0.03827,-0.0075 -0.0603,-0.0086 l -0.0661,-0.0034 -0.0661,-0.0034 -0.05508,-0.0028 c -0.09449,0.01169 -0.185463,0.06222 -0.273487,0.162611 l 0.12537,0.139018 c 0.320607,-0.0055 0.751376,-0.0054 1.303323,0.001 -0.39616,0.399281 -0.598684,0.791989 -0.608708,1.200157 0.08379,0.302556 0.297397,0.551062 0.624577,0.739157 0.40543,0.170044 0.986339,0.150326 1.747952,-0.05336 1.02124,-0.311786 1.805599,-0.95612 2.341492,-1.922557 5.69e-4,-0.01102 0.0069,-0.02726 0.01908,-0.04872 0.0069,-0.02726 0.01908,-0.04872 0.03067,-0.05917 0.178787,-0.360797 0.263077,-0.709903 0.247657,-1.053111 z m -1.615875,1.667306 0.03134,0.03476 c -0.129709,0.158987 -0.28781,0.333078 -0.490546,0.515909 l -0.05213,0.04701 -0.05213,0.04701 c -0.313361,0.293099 -0.616948,0.503862 -0.915985,0.626494 -0.03362,0.0093 -0.07825,0.01805 -0.134469,0.03724 -0.08461,0.03429 -0.168655,0.05757 -0.25213,0.06983 -0.218049,-0.05544 -0.368864,-0.129496 -0.452444,-0.222175 -0.125476,-0.243957 -0.167478,-0.500173 -0.137021,-0.769217 0.06056,-0.317195 0.229,-0.584638 0.500107,-0.808123 0.26997,-0.201452 0.566733,-0.28002 0.885065,-0.241496 0.12992,0.05089 0.256996,0.156859 0.370782,0.306325 -0.0092,0.07132 -0.01841,0.142642 -0.02761,0.213963 -0.05089,0.129919 -0.11688,0.231446 -0.214214,0.298217 -0.01681,0.0047 -0.03941,0.01453 -0.0736,0.03486 -0.03419,0.02033 -0.06258,0.03543 -0.07416,0.04588 l 0.156713,0.173773 0.129814,-0.05405 c 0.205221,-0.01702 0.442248,-0.11524 0.705288,-0.289436 0.01159,-0.01045 0.02839,-0.0151 0.05156,-0.036 0.01738,-0.01567 0.03419,-0.02033 0.04577,-0.03077 z m -4.335687,-0.742955 c -0.08813,-0.0045 -0.200566,0.03383 -0.33731,0.115134 l 0.12537,0.139019 c 0.08291,-0.0012 0.195343,-0.03962 0.332087,-0.120927 z"
           id="path53" />
        <path
           d="m 102.98724,55.41213 c -0.16053,-0.400578 -0.38714,-0.659848 -0.67664,-0.788364 -0.0211,-0.0064 -0.0564,-0.02295 -0.0986,-0.0358 -0.0422,-0.01285 -0.0775,-0.02938 -0.0987,-0.0358 -0.23949,-0.08446 -0.41475,-0.11477 -0.53956,-0.08359 -0.0275,0.01468 -0.0656,0.02614 -0.10691,0.04816 l -0.0771,-0.144542 c -0.44138,-0.06522 -0.80568,-0.118501 -1.08647,-0.180945 -0.18949,-0.0404 -0.339522,-0.03997 -0.464327,-0.0088 -0.01376,0.0073 -0.0312,0.0078 -0.05873,0.02247 -0.0312,0.0078 -0.04497,0.01513 -0.05185,0.0188 l -0.07706,-0.144541 -0.259706,0.07658 -0.07339,-0.137659 c -0.105524,-0.03213 -0.248221,-0.01793 -0.414323,0.03527 l 0.102747,0.192721 c 0.09497,0.02892 0.192701,0.02985 0.286305,0.0065 0.01376,-0.0073 0.03441,-0.01835 0.06561,-0.02614 0.02753,-0.01468 0.04497,-0.01514 0.05873,-0.02247 l 0.07706,0.144542 c 0.104156,-0.02017 0.190877,-0.03989 0.259706,-0.07658 l 0.07706,0.144542 c -0.120679,0.0555 -0.21704,0.106872 -0.285869,0.143567 -0.04497,0.01513 -0.08626,0.03715 -0.120679,0.0555 -0.420315,0.206406 -0.682798,0.443577 -0.794791,0.697748 -0.06105,0.200496 -0.04181,0.402381 0.0646,0.601986 0.01468,0.02753 0.03991,0.05828 0.05826,0.09269 0.0367,0.06883 0.07339,0.137658 0.116969,0.202818 0.137617,0.191809 0.252305,0.30745 0.351403,0.360689 0.0991,0.05324 0.387227,0.129449 0.850623,0.235967 0.0385,0.006 0.0876,0.01516 0.13672,0.02434 -0.18998,0.207359 -0.318475,0.364257 -0.371714,0.463354 -0.10144,0.257385 -0.108364,0.526254 -0.01756,0.796057 0.158702,0.330836 0.483503,0.608474 0.964313,0.847137 0.39503,0.16065 0.73409,0.183185 1.01766,0.08504 -0.0697,-0.130775 -0.10275,-0.192722 -0.0991,-0.185839 -0.19315,-0.04729 -0.34823,-0.106042 -0.46843,-0.165708 -0.22709,-0.144105 -0.37572,-0.356564 -0.44221,-0.630492 0.012,-0.20968 0.0836,-0.406963 0.22492,-0.606071 0.45707,-0.535376 0.97283,-0.828025 1.55738,-0.89217 0.27897,-0.0073 0.52537,-0.05911 0.74975,-0.152214 l -0.10275,-0.192721 c -0.22436,-0.03949 -0.42761,-0.07256 -0.60288,-0.10287 l 0.1496,-0.150471 c 0.15236,-0.178459 0.22442,-0.358307 0.21986,-0.53266 z m -1.49472,-0.84722 c 0.29454,0.187704 0.48722,0.350158 0.58172,0.494243 0.0147,0.160132 -0.009,0.314293 -0.0753,0.4556 -0.1909,0.172488 -0.41437,0.300465 -0.65664,0.376593 -0.0174,4.56e-4 -0.0349,9.12e-4 -0.0555,0.01192 -0.0312,0.0078 -0.045,0.01514 -0.045,0.01514 0.0294,0.05506 0.0761,0.10967 0.14725,0.160152 0.12251,0.01424 0.2629,0.04546 0.41064,0.09045 l -0.29734,0.105483 c -0.12113,0.03806 -0.24915,0.0798 -0.36662,0.124743 -0.36937,0.152731 -0.74928,0.169649 -1.12917,0.05397 -0.176633,-0.08262 -0.29866,-0.212023 -0.36608,-0.388222 -0.01739,-0.264744 0.08359,-0.539563 0.313504,-0.821245 0.332246,-0.371596 0.846166,-0.601387 1.538536,-0.678821 z m -3.021249,-0.64328 c -0.06972,-0.130775 -0.138074,-0.209245 -0.201388,-0.228525 -0.302808,-0.103741 -0.529924,-0.115247 -0.674465,-0.03819 0.06605,0.123893 0.141287,0.198693 0.208271,0.224856 0.292255,0.100528 0.512488,0.115703 0.667582,0.04186 z m 0.218408,-0.05457 -0.192721,0.102747 0.09908,0.185839 0.192721,-0.102747 z"
           id="path55" />
      </g>
    </g>
    <!-- ================== WORD 2 ================== -->
    <g
       id="word_2"
       data-bezier-ref="bezier2"
       data-text="hier is a word">
      <g
         aria-label="hier is a word"
         id="text16"
         style="font-size:7.8px;font-family:font6;text-anchor:middle">
        <path
           d="m 75.94058,123.07824 c -0.160074,-0.0467 -0.31685,-0.0461 -0.471075,0.01 -0.04956,0.0266 -0.09136,0.0539 -0.116146,0.0672 -0.09913,0.0532 -0.182729,0.10785 -0.2508,0.16401 -0.394388,0.35397 -0.622852,0.85706 -0.694645,1.52405 l -0.04691,0.48916 c -0.121465,0.28611 -0.209213,0.46575 -0.271009,0.53819 -0.06254,0.0802 -0.224209,0.21357 -0.476498,0.39311 -0.01702,0.014 -0.03404,0.0281 -0.06733,0.0484 -0.03404,0.0281 -0.05105,0.0421 -0.06807,0.0562 -0.05105,0.0421 -0.0936,0.0772 -0.135398,0.10455 -0.153161,0.12636 -0.244206,0.25868 -0.273881,0.40471 l 0.178581,0.0171 c 0.114658,-0.0517 0.318127,-0.2124 0.625937,-0.48064 7.44e-4,-0.008 0.01776,-0.0218 0.04329,-0.0429 0.01776,-0.0218 0.03478,-0.0358 0.0518,-0.0499 0.119869,-0.10604 0.214212,-0.19103 0.283027,-0.25495 0.01627,-0.006 0.03329,-0.0203 0.06733,-0.0484 -2.12e-4,0.32908 -0.02233,0.80494 -0.05009,1.4213 -0.0082,0.0854 -0.01638,0.17082 -0.0168,0.25697 -0.01053,0.27325 -0.02212,0.47586 -0.02702,0.6086 -0.0022,0.0233 -0.0052,0.0543 -0.0082,0.0854 -0.0037,0.0388 0.0018,0.0629 3.2e-4,0.0784 l 0.06063,0.0215 0.03808,0.0115 0.04584,0.0122 0.06839,0.0222 c 0.06807,-0.0562 0.151672,-0.11083 0.267818,-0.17805 0.107638,-0.0602 0.182729,-0.10785 0.216765,-0.13593 l 0.0536,-0.55903 c 0.0074,-0.0776 0.02266,-0.15455 0.0301,-0.23219 0.01978,-0.28803 0.04063,-0.50543 0.07105,-0.65923 0.06233,-0.32312 0.244418,-0.58775 0.547761,-0.80941 0.263989,0.0253 0.475435,0.10828 0.625086,0.26367 0.0063,0.0163 0.02106,0.0255 0.0351,0.0425 0.01404,0.017 0.02106,0.0255 0.02882,0.0263 l 0.107531,0.10434 c 0.14295,0.22527 0.219318,0.49117 0.221339,0.79696 -0.03648,0.38046 -0.115402,0.63147 -0.244524,0.7523 -0.0418,0.0273 -0.06658,0.0406 -0.07509,0.0476 l -0.133165,0.0813 c -0.06211,-0.006 -0.122741,-0.0274 -0.174113,-0.0637 -0.149651,-0.1554 -0.214957,-0.37322 -0.204428,-0.64647 0,0 -0.0063,-0.0163 -0.004,-0.0396 0.0022,-0.0233 0.0037,-0.0388 0.0052,-0.0543 l -0.217403,-0.0209 c -0.1672,0.10934 -0.302279,0.29228 -0.413001,0.54808 -0.05339,0.22995 -0.05499,0.41002 -0.004,0.53245 0.06722,0.11614 0.145928,0.19421 0.243887,0.23495 0.267287,0.0726 0.561269,0.0303 0.875674,-0.14327 0.451291,-0.29367 0.742934,-0.72018 0.875672,-1.2873 0.116146,-0.63923 0.04807,-1.15508 -0.212724,-1.54053 -0.127847,-0.13764 -0.323765,-0.21911 -0.5785,-0.25921 -0.343122,-0.0172 -0.720386,0.15816 -1.131047,0.51841 -0.05956,0.0491 -0.09434,0.085 -0.111361,0.099 -0.03467,-0.12869 -0.05382,-0.2559 -0.0652,-0.38237 0.0046,-0.21112 0.120082,-0.43512 0.362054,-0.6705 0.05105,-0.0421 0.09434,-0.085 0.128378,-0.11306 0.451398,-0.45821 0.673905,-0.89918 0.659759,-1.32367 -0.04797,-0.15348 -0.137739,-0.27962 -0.276328,-0.38694 z m -0.672523,0.47618 0.131995,0.0127 c 0.146673,0.18646 0.221977,0.38174 0.225168,0.59361 -0.05488,0.24548 -0.226231,0.47979 -0.531062,0.71698 -0.06243,-0.65636 -0.0045,-1.09744 0.173899,-1.32324 z"
           id="path58" />
        <path
           d="m 80.366078,125.66509 c -0.190596,0.2213 -0.413984,0.45449 -0.67701,0.69093 -0.05279,0.0488 -0.121967,0.10362 -0.192047,0.16616 -0.202494,0.1885 -0.351302,0.32042 -0.455073,0.4026 -0.02504,0.0128 -0.05963,0.0402 -0.09422,0.0676 -0.05368,0.0566 -0.114218,0.10452 -0.1825,0.15156 -0.240333,0.17626 -0.377245,0.34096 -0.402986,0.49502 l 0.240187,0.0279 c 0.198894,-0.15751 0.346803,-0.28168 0.451474,-0.3716 0.297617,-0.26384 0.602083,-0.51902 0.921144,-0.76466 0.0112,0.17405 0.01105,0.3782 -0.0064,0.59604 l -0.0135,0.11622 -0.04388,0.51316 c -0.01799,0.15496 -0.02554,0.28758 -0.03633,0.38055 l -0.0144,0.12397 c -0.03059,0.26343 -0.02804,0.44433 -0.0019,0.5573 0.09138,0.15981 0.189053,0.26538 0.301673,0.30986 0.258932,0.0693 0.514063,0.0361 0.766294,-0.10733 0.917747,-0.60015 1.430104,-1.09033 1.523374,-1.48782 l -0.18595,-0.0216 c -0.07008,0.0625 -0.130614,0.11047 -0.174752,0.15246 -0.458672,0.43359 -0.813223,0.71437 -1.049958,0.85963 -0.08938,-0.0418 -0.180553,-0.0681 -0.273528,-0.0789 -0.07788,-0.27603 -0.10243,-0.53801 -0.07184,-0.80144 l 0.01439,-0.12396 c 0.01564,-0.20235 0.03634,-0.38055 0.05613,-0.55101 l 0.04858,-0.41839 0.01529,-0.13171 c 0.03689,-0.31767 0.0096,-0.5564 -0.08264,-0.70846 z m 0.482195,-2.0563 c -0.279477,-0.0953 -0.497668,-0.0421 -0.646825,0.16046 -0.05348,0.1901 -0.05598,0.34686 -0.0084,0.47803 0.143263,0.11871 0.277328,0.18139 0.417691,0.18984 0.119818,-0.0175 0.237286,-0.0824 0.352403,-0.19465 l 0.04948,-0.42614 c -0.05119,-0.10017 -0.105974,-0.16935 -0.164359,-0.20754 z"
           id="path60" />
        <path
           d="m 87.605499,126.11118 c -0.550689,-0.17239 -1.05893,0.0236 -1.533538,0.59456 -0.227943,0.275 -0.389812,0.47269 -0.502145,0.5986 -0.0099,0.0144 -0.01981,0.0287 -0.03854,0.0497 -0.01872,0.021 -0.03635,0.0342 -0.03744,0.042 -0.06498,0.0696 -0.121149,0.13254 -0.158593,0.17451 -0.159685,0.18224 -0.257664,0.31806 -0.302752,0.4141 -0.01209,0.0298 -0.02418,0.0596 -0.02746,0.0828 l -0.100402,-0.0142 c -0.105781,0.0796 -0.195025,0.15361 -0.254467,0.23974 l -0.05944,0.0861 c -0.07723,-0.0109 -0.196276,0.051 -0.372579,0.18365 l -0.105782,0.0796 c -0.04298,0.0254 -0.07824,0.052 -0.113505,0.0785 -0.02644,0.0199 -0.06171,0.0464 -0.104689,0.0719 -0.106874,0.0873 -0.181763,0.17124 -0.225759,0.25955 -0.0022,0.0154 -0.01209,0.0298 -0.01537,0.053 l -0.01318,0.0375 c -0.108125,-0.0153 -0.231616,0.0224 -0.384829,0.10314 l -0.03713,0.26259 0.208527,0.0295 c 0.104689,-0.0719 0.187301,-0.1547 0.231298,-0.24301 0.0011,-0.008 0.0033,-0.0232 0.01427,-0.0453 0.0022,-0.0154 0.01209,-0.0298 0.01427,-0.0452 l 0.154463,0.0218 c 0.16858,-0.13372 0.299715,-0.22547 0.403313,-0.28959 0.188473,-0.10727 0.314069,-0.21556 0.393326,-0.33039 0.01209,-0.0298 0.02527,-0.0673 0.04727,-0.11148 l 0.100402,0.0142 c 0.147673,-0.0973 0.247916,-0.1934 0.293004,-0.28943 0,0 0.0099,-0.0144 0.01209,-0.0298 0.0022,-0.0154 0.01318,-0.0375 0.01537,-0.053 l 0.09151,-0.0343 0.05734,-0.0155 0.06724,-0.0299 c -0.01966,0.13901 -0.02831,0.25595 -0.0326,0.342 -0.0066,0.0463 -0.0054,0.0938 -0.01193,0.14011 -0.04898,0.45785 0.02545,0.82287 0.207853,1.09286 0.182319,0.21484 0.471512,0.34238 0.867578,0.38262 0.494205,0.0147 0.952831,-0.16463 1.384693,-0.54471 0.12778,-0.12373 0.305175,-0.26408 0.532185,-0.42105 0.200564,-0.13707 0.327173,-0.30823 0.373194,-0.52229 l -0.262588,-0.0371 c -0.30174,0.35122 -0.687423,0.62754 -1.174678,0.84225 -0.195184,0.0433 -0.401526,-0.002 -0.625658,-0.14361 -0.172253,-0.11888 -0.286155,-0.31617 -0.328445,-0.57423 0.457376,-0.28195 0.896961,-0.66094 1.318758,-1.13698 0.245493,-0.34341 0.355325,-0.6745 0.321771,-0.99435 -0.0653,-0.15102 -0.158137,-0.27444 -0.286235,-0.37132 z m -1.144103,0.62599 c 0.158673,-0.11936 0.283257,-0.16477 0.391381,-0.14948 0.05968,0.0793 0.117178,0.17412 0.172492,0.28435 -0.0029,0.29894 -0.05545,0.55935 -0.165442,0.78012 -0.306187,0.32696 -0.561826,0.51926 -0.765826,0.5692 -0.05603,-0.60662 0.06129,-1.10208 0.367395,-1.48419 z"
           id="path62" />
        <path
           d="m 91.629126,126.80542 c -0.08098,0.0574 -0.164573,0.13025 -0.250785,0.21844 -0.380835,0.37829 -0.749897,0.68737 -1.116184,0.93363 l -0.06298,0.0447 c -0.02699,0.0191 -0.04499,0.0319 -0.06168,0.037 -0.23263,0.15823 -0.37037,0.31677 -0.396532,0.47056 l 0.261444,0.0445 c 0.09897,-0.0702 0.190258,-0.1417 0.272545,-0.20682 0.221176,-0.18392 0.511717,-0.4035 0.888309,-0.66383 0.16917,0.0288 0.426689,0.0963 0.767486,0.18595 -0.611839,0.43393 -1.007064,0.89681 -1.194671,1.395 -0.120858,0.4779 -0.100371,0.86908 0.06015,1.18122 0.132861,0.14919 0.308253,0.23441 0.538939,0.27366 l 0.107653,0.0183 c 0.292202,0.0497 0.564111,0.0327 0.815726,-0.0511 0.485395,-0.20226 0.784934,-0.42823 0.890926,-0.67921 0.0013,-0.008 0.0039,-0.0231 0.01685,-0.0525 0.0039,-0.0231 0.01554,-0.0448 0.01815,-0.0602 l 0.153791,0.0262 0.0983,-0.25229 -0.207617,-0.0353 -0.0983,0.25229 c -0.107654,-0.0183 -0.188473,-0.008 -0.242459,0.03 -0.107972,0.0766 -0.222325,0.14416 -0.325064,0.18998 -0.228388,0.0403 -0.442387,-0.004 -0.635615,-0.12396 -0.232347,-0.30853 -0.321051,-0.62428 -0.26611,-0.94724 0.137704,-0.53042 0.4225,-0.94878 0.85177,-1.23971 l 0.151652,-0.1008 c 0.179953,-0.12762 0.322607,-0.22204 0.42927,-0.29092 l 0.04499,-0.0319 0.05399,-0.0383 0.04317,-0.25375 -0.261444,-0.0445 c -0.187483,0.0789 -0.400333,0.0743 -0.632168,-0.005 -0.2356,-0.10338 -0.475124,-0.18369 -0.7135,-0.22424 z"
           id="path64" />
        <path
           d="m 98.382475,128.5382 c -0.211317,0.2016 -0.456431,0.41183 -0.741312,0.62143 -0.05731,0.0434 -0.131513,0.0912 -0.207371,0.14658 -0.219951,0.16781 -0.380943,0.28454 -0.492252,0.35619 -0.02617,0.0103 -0.06328,0.0342 -0.100379,0.058 -0.05896,0.0511 -0.12389,0.0929 -0.196442,0.133 -0.256413,0.15191 -0.408771,0.30245 -0.44945,0.45325 l 0.23631,0.0512 c 0.21334,-0.13731 0.372679,-0.24643 0.48564,-0.32569 0.321984,-0.23347 0.649938,-0.45767 0.991486,-0.67094 -0.0059,0.17431 -0.02597,0.37747 -0.06463,0.59256 l -0.02479,0.11434 -0.09384,0.50642 c -0.03306,0.15245 -0.05353,0.2837 -0.07336,0.37517 l -0.02644,0.12197 c -0.0562,0.25918 -0.07134,0.43946 -0.05637,0.55444 0.07532,0.16798 0.162204,0.28259 0.269936,0.33787 0.250914,0.0943 0.508068,0.0862 0.773116,-0.0319 0.972023,-0.50756 1.529848,-0.94529 1.661528,-1.33177 l -0.18295,-0.0397 c -0.0759,0.0554 -0.140787,0.0972 -0.188818,0.13464 -0.498863,0.38668 -0.879166,0.63145 -1.128968,0.75287 -0.08486,-0.0503 -0.173032,-0.0854 -0.264507,-0.10523 -0.05052,-0.28232 -0.04934,-0.54545 0.0069,-0.80462 l 0.02644,-0.12197 c 0.03535,-0.19985 0.07336,-0.37517 0.109726,-0.54288 l 0.08925,-0.41163 0.0281,-0.12959 c 0.06776,-0.31254 0.06399,-0.55279 -0.01298,-0.71315 z m 0.680912,-1.99932 c -0.268824,-0.12214 -0.49117,-0.0905 -0.659414,0.0965 -0.07181,0.18396 -0.08962,0.33973 -0.05508,0.47491 0.130972,0.13216 0.258267,0.20765 0.397131,0.22977 0.120955,-0.006 0.244203,-0.0588 0.369745,-0.15927 l 0.0909,-0.41925 c -0.04115,-0.1047 -0.08891,-0.17891 -0.143282,-0.22262 z"
           id="path66" />
        <path
           d="m 104.59573,129.49729 c -0.038,0.0224 -0.0895,0.0654 -0.1469,0.13106 -0.24065,0.2437 -0.4505,0.43092 -0.62004,0.5561 -0.16955,0.12517 -0.33154,0.2523 -0.48795,0.38895 -0.26692,0.22074 -0.49746,0.39453 -0.67848,0.53284 -0.16758,0.11762 -0.28761,0.20731 -0.35811,0.26152 -0.38498,0.30288 -0.72211,0.54568 -1.02844,0.732 -0.12169,0.0651 -0.23779,0.13967 -0.3483,0.22378 l -0.0608,0.23402 0.18873,0.0491 c 0.18856,-0.13635 0.34467,-0.24083 0.46077,-0.31543 0.46803,-0.2813 0.8432,-0.54644 1.13307,-0.79346 0.43873,-0.38562 0.85979,-0.70331 1.27437,-0.93403 0.0323,0.18571 0.0725,0.34122 0.13561,0.47045 0.18935,0.38771 0.29429,0.69706 0.29582,0.93923 -0.0365,0.26452 -0.1653,0.48089 -0.37123,0.65301 -0.16728,0.0855 -0.31132,0.1125 -0.45112,0.0923 -0.28883,-0.067 -0.47696,-0.1804 -0.56439,-0.34013 -0.0611,-0.13679 -0.0577,-0.30513 0.0199,-0.51062 0.0984,-0.007 0.1854,-1.6e-4 0.24579,0.0155 0.007,0.0341 0.0276,0.0797 0.0592,0.14433 l 0.0296,0.0722 c -0.0636,0.12049 -0.10809,0.2298 -0.13164,0.32039 l 0.0584,0.0232 0.0509,0.0213 0.0414,0.0269 0.0716,0.0347 0.19974,-0.11732 c 0.18465,-0.12124 0.31146,-0.33006 0.38799,-0.62447 -0.10977,-0.19778 -0.19388,-0.30829 -0.25427,-0.32399 l -0.11324,-0.0294 c -0.16608,-0.0432 -0.32491,-0.0522 -0.46894,-0.0252 -0.44191,0.11885 -0.77149,0.3636 -0.98118,0.73623 -0.0966,0.21667 -0.11186,0.4303 -0.0457,0.64092 0.12291,0.20925 0.2976,0.34331 0.51456,0.40777 0.54943,0.11864 1.07438,0.0214 1.57683,-0.29933 0.53747,-0.42443 0.87171,-0.96616 1.00469,-1.63275 0.01,-0.22315 -0.0378,-0.41278 -0.15539,-0.58036 -0.14948,-0.20004 -0.28945,-0.40567 -0.42746,-0.61885 0.0694,-0.14313 0.12968,-0.31283 0.17873,-0.50156 z"
           id="path68" />
        <path
           d="m 112.41166,131.95763 c -0.38841,-0.18805 -0.73054,-0.22713 -1.03111,-0.1272 -0.0199,0.009 -0.0572,0.021 -0.097,0.04 -0.0399,0.0189 -0.0771,0.0305 -0.097,0.0399 -0.23393,0.0988 -0.38391,0.19444 -0.45518,0.30153 -0.0105,0.0294 -0.0309,0.0635 -0.0466,0.1076 l -0.1543,-0.055 c -0.37023,0.24899 -0.67543,0.45491 -0.92507,0.59782 -0.16729,0.0977 -0.27792,0.19908 -0.3492,0.30617 -0.005,0.0147 -0.0178,0.0268 -0.0283,0.0562 -0.0178,0.0268 -0.0231,0.0415 -0.0257,0.0488 l -0.1543,-0.055 -0.14043,0.2315 -0.14695,-0.0524 c -0.0996,0.0473 -0.19559,0.15389 -0.28257,0.30507 l 0.20574,0.0733 c 0.0897,-0.0426 0.16257,-0.10769 0.21602,-0.18801 0.005,-0.0147 0.0131,-0.0367 0.0309,-0.0635 0.0105,-0.0294 0.023,-0.0415 0.0283,-0.0562 l 0.1543,0.055 c 0.0634,-0.085 0.11425,-0.15802 0.14043,-0.2315 l 0.1543,0.055 c -0.0519,0.12229 -0.0885,0.22516 -0.11467,0.29864 -0.0231,0.0415 -0.0388,0.0856 -0.0519,0.12229 -0.17175,0.43562 -0.2061,0.78772 -0.11774,1.05104 0.0899,0.18934 0.24003,0.32564 0.45312,0.40155 0.0294,0.0105 0.0687,0.0162 0.10548,0.0293 0.0735,0.0262 0.14695,0.0523 0.22305,0.0712 0.2309,0.0491 0.39356,0.0574 0.50267,0.03 0.10911,-0.0274 0.37345,-0.16504 0.78776,-0.39833 0.0325,-0.0215 0.075,-0.0478 0.11747,-0.0741 -8.2e-4,0.28124 0.01,0.48376 0.0372,0.59287 0.0983,0.25859 0.27425,0.46203 0.52306,0.60035 0.34011,0.13772 0.76719,0.12427 1.28336,-0.023 0.40022,-0.14723 0.66607,-0.35889 0.80962,-0.6224 -0.1396,-0.0497 -0.20573,-0.0733 -0.19838,-0.0707 -0.17465,0.0951 -0.32886,0.15609 -0.4579,0.19292 -0.26493,0.0464 -0.51787,-0.0106 -0.75148,-0.16835 -0.13235,-0.16308 -0.21226,-0.35715 -0.24183,-0.59953 -0.0226,-0.70358 0.16165,-1.26724 0.55061,-1.70828 0.20133,-0.19325 0.34861,-0.39746 0.45179,-0.61739 l -0.20573,-0.0733 c -0.19246,0.12188 -0.36499,0.2343 -0.51498,0.32991 l 0.009,-0.21198 c -0.008,-0.23453 -0.0754,-0.41602 -0.19614,-0.54185 z m -1.67554,0.38015 c 0.34414,-0.0596 0.59599,-0.0692 0.76287,-0.0263 0.11866,0.10851 0.20482,0.23857 0.25111,0.38754 -0.025,0.25607 -0.10402,0.50116 -0.23187,0.72058 -0.0126,0.0121 -0.0252,0.0241 -0.033,0.0462 -0.0178,0.0268 -0.023,0.0415 -0.023,0.0415 0.0588,0.0209 0.13014,0.0298 0.21671,0.0192 0.10016,-0.072 0.22497,-0.14342 0.36449,-0.20964 l -0.14879,0.2782 c -0.0639,0.10971 -0.13047,0.22677 -0.18705,0.33909 -0.17023,0.36165 -0.43971,0.62997 -0.79846,0.80026 -0.18622,0.0579 -0.36357,0.0444 -0.53206,-0.0405 -0.19113,-0.18401 -0.30153,-0.45519 -0.32123,-0.81825 -0.005,-0.49845 0.22061,-1.01439 0.68035,-1.53787 z m -2.66679,1.55885 c -0.13961,-0.0497 -0.24298,-0.0617 -0.30277,-0.0333 -0.29372,0.12721 -0.46938,0.27163 -0.52435,0.42593 0.13226,0.0471 0.23825,0.0518 0.30539,0.026 0.28376,-0.12248 0.45679,-0.25956 0.52173,-0.41859 z m 0.12473,-0.18741 -0.0733,0.20573 0.19839,0.0707 0.0733,-0.20573 z"
           id="path70" />
        <path
           d="m 119.6082,135.14977 c -0.22901,-0.11751 -0.38187,-0.17841 -0.45163,-0.17914 -0.0698,-7.2e-4 -0.20271,0.0363 -0.39884,0.11096 -0.0491,0.0274 -0.0947,0.0478 -0.13669,0.0614 -0.16126,0.0751 -0.28069,0.15405 -0.36542,0.25085 -0.0283,0.0381 -0.053,0.0692 -0.0673,0.097 l -0.13879,-0.0712 -0.063,0.0203 -0.0525,0.0169 c -0.021,0.007 -0.0456,0.0205 -0.0771,0.0306 -0.0351,0.0171 -0.0561,0.0238 -0.0666,0.0272 -0.17157,0.061 -0.28744,0.13305 -0.35793,0.20209 -0.007,0.0139 -0.0212,0.0242 -0.0283,0.0381 -0.0141,0.0103 -0.0212,0.0242 -0.0247,0.0311 l -0.23723,0.001 -0.13778,0.16601 -0.0971,-0.0499 c -0.0105,0.003 -0.0315,0.0101 -0.0525,0.0169 -0.0246,0.0137 -0.0456,0.0205 -0.0561,0.0238 -0.021,0.007 -0.0525,0.0169 -0.084,0.027 -0.0384,0.007 -0.0594,0.0133 -0.063,0.0203 -0.0456,0.0205 -0.0981,0.0374 -0.14007,0.0509 -0.10875,0.0582 -0.18654,0.15853 -0.24388,0.30444 l 0.18737,0.0961 c 0.004,-0.007 0.0246,-0.0137 0.0491,-0.0274 0.021,-0.007 0.0351,-0.0171 0.0456,-0.0204 0.0105,-0.003 0.0315,-0.0101 0.0666,-0.0272 0.0246,-0.0137 0.0456,-0.0205 0.0666,-0.0272 0.14025,-0.0683 0.25612,-0.14035 0.33017,-0.21632 0.007,-0.0139 0.0143,-0.0278 0.0283,-0.0381 0.007,-0.0139 0.0212,-0.0242 0.0283,-0.0381 l 0.10464,0.001 0.0523,5.5e-4 0.0803,-0.003 0.14472,-0.16245 0.0972,0.0499 0.042,-0.0135 0.063,-0.0203 c 0.0281,-0.0206 0.0806,-0.0375 0.14363,-0.0578 0.16107,-0.0576 0.28745,-0.13305 0.37218,-0.22984 0.007,-0.0139 0.0142,-0.0278 0.0354,-0.052 0.0107,-0.0208 0.0247,-0.0311 0.0319,-0.045 l 0.0521,0.018 0.0521,0.018 0.0452,0.0144 0.0521,0.018 0.1009,0.0255 c -0.11221,0.38953 -0.32696,0.91056 -0.6478,1.57001 -0.0463,0.0902 -0.0857,0.184 -0.13194,0.27422 -0.13175,0.25677 -0.24214,0.4719 -0.32066,0.64201 -0.032,0.0625 -0.0536,0.12154 -0.0821,0.17706 0.0377,0.0632 0.11031,0.12673 0.20747,0.17659 0.0555,0.0285 0.11459,0.05 0.17011,0.0785 0.19432,0.0997 0.31941,0.14636 0.37192,0.12946 l 0.29555,-0.57599 c 0.0144,-0.0452 0.0536,-0.12154 0.11057,-0.23258 l 0.17805,-0.34698 0.057,-0.11104 c 0.16042,-0.32973 0.39664,-0.56796 0.70508,-0.70777 0.29794,-0.13643 0.50832,-0.23889 0.61369,-0.30756 0.004,-0.007 0.0176,-0.0172 0.0317,-0.0276 0.0141,-0.0103 0.0281,-0.0206 0.0422,-0.031 l 0.0722,0.0984 c -0.0435,0.15304 -0.11522,0.34416 -0.22579,0.57673 l -0.0641,0.12491 c -0.10327,0.20126 -0.18535,0.37831 -0.25675,0.53455 -0.0855,0.16655 -0.14974,0.30891 -0.19959,0.40606 l -0.0677,0.13186 c -0.0142,0.0278 -0.0287,0.073 -0.0572,0.12847 l -0.057,0.11104 c -0.0356,0.0694 -0.0677,0.13185 -0.0892,0.19093 -0.041,0.25074 -0.005,0.47089 0.1221,0.66757 0.1756,0.22161 0.4635,0.37811 0.86728,0.46256 0.43903,0.0499 0.92918,-0.11938 1.47758,-0.5218 0.0422,-0.031 0.0879,-0.0688 0.13368,-0.10675 0.26735,-0.21349 0.50785,-0.52843 0.73538,-0.93769 0.0178,-0.0347 0.0497,-0.0797 0.0853,-0.14911 0.22078,-0.43027 0.29099,-0.80629 0.2035,-1.11419 -0.103,-0.15805 -0.26563,-0.28533 -0.48451,-0.37134 -0.19522,-0.0125 -0.59443,0.13333 -1.20118,0.44445 -0.0491,0.0274 -0.0947,0.0478 -0.12975,0.0649 0.004,-0.007 0.018,-0.0521 0.0536,-0.12153 0.0109,-0.0383 0.0324,-0.0973 0.068,-0.16674 0.11093,-0.26745 0.14161,-0.53226 0.0851,-0.79797 l -0.33311,-0.17092 c -0.14665,0.0124 -0.30059,0.0562 -0.46167,0.11379 -0.0666,0.0272 -0.10162,0.0443 -0.10162,0.0443 -0.32214,0.11525 -0.63397,0.24455 -0.94597,0.3913 -0.0351,0.0171 -0.0701,0.0342 -0.10519,0.0512 0.0641,-0.12492 0.10701,-0.22563 0.14974,-0.30891 0.007,-0.0139 0.0109,-0.0383 0.0251,-0.066 0.0142,-0.0278 0.0285,-0.0555 0.0356,-0.0694 l 0.0249,-0.0486 0.0356,-0.0694 c 0.11432,-0.25695 0.14106,-0.47994 0.0735,-0.68995 z m 2.03793,1.93993 0.21103,0.16965 c 0.0177,0.30717 -0.066,0.64118 -0.25117,1.00205 -0.039,0.0589 -0.0675,0.11442 -0.096,0.16993 -0.22059,0.41283 -0.38741,0.68667 -0.50045,0.82154 -0.22818,0.13716 -0.43107,0.19086 -0.60867,0.16109 -0.0835,-0.0253 -0.13861,-0.0887 -0.17258,-0.17622 -0.10885,-0.26626 -0.0808,-0.61132 0.0842,-1.05263 0.15759,-0.39255 0.43973,-0.68613 0.85337,-0.87716 0.004,-0.007 0.0246,-0.0137 0.0491,-0.0274 0.021,-0.007 0.0351,-0.0171 0.0561,-0.0238 0.12618,-0.058 0.24881,-0.10904 0.375,-0.16702 z"
           id="path72" />
        <path
           d="m 126.71508,138.7435 c -0.27209,-0.13955 -0.48161,-0.24634 -0.63583,-0.32321 -0.15421,-0.0769 -0.35979,-0.0649 -0.61674,0.0359 -0.26421,0.0979 -0.46905,0.19388 -0.60158,0.27616 -0.13254,0.0823 -0.32691,0.21581 -0.57018,0.38887 -0.12527,0.0851 -0.2376,0.15852 -0.33134,0.2057 -0.1903,0.10162 -0.33134,0.2057 -0.40857,0.31792 -0.0113,0.0291 -0.0356,0.0698 -0.0554,0.12071 l -0.14534,-0.0567 c -0.24081,0.12379 -0.43111,0.22541 -0.57092,0.30486 -0.32284,0.1839 -0.58384,0.31656 -0.79312,0.40241 -0.0404,0.0177 -0.0881,0.0326 -0.12847,0.0504 -0.0865,0.05 -0.15077,0.15052 -0.19289,0.30154 l 0.18895,0.0736 c 0.10827,-0.0415 0.21937,-0.0903 0.33898,-0.16086 0.28527,-0.17344 0.48567,-0.27949 0.59961,-0.33554 l 0.0404,-0.0177 0.0505,-0.0222 c 0.0606,-0.0266 0.12404,-0.0605 0.18464,-0.0871 0.19474,-0.0915 0.33578,-0.1956 0.41584,-0.31508 0.008,-0.0218 0.0255,-0.0654 0.0554,-0.12071 l 0.10174,0.0397 c -0.0801,0.11948 -0.15286,0.24179 -0.20829,0.3625 -0.20434,0.48125 -0.22811,0.90731 -0.083,1.26526 0.11209,0.22787 0.32075,0.4013 0.62437,0.50292 0.59519,0.1483 1.12188,0.0857 1.58292,-0.19499 0.80052,-0.55023 1.29297,-1.21217 1.46282,-1.9915 0.0374,-0.35376 -0.064,-0.69471 -0.30449,-1.02285 z m -1.85846,0.32199 c 0.219,-0.13229 0.46092,-0.13007 0.73018,0.0168 0.27443,0.24093 0.4374,0.48863 0.48888,0.74311 3.7e-4,0.042 0.0108,0.0796 0.014,0.11431 -0.002,0.0493 -0.002,0.0913 0.008,0.12884 0.036,0.46609 -0.0851,0.86259 -0.35314,1.18507 -0.2732,0.22836 -0.52854,0.34649 -0.75432,0.36731 -0.25115,-0.0644 -0.45661,-0.20312 -0.61477,-0.39872 -0.16702,-0.2158 -0.22775,-0.53248 -0.18217,-0.95005 0.0836,-0.53667 0.30891,-0.94278 0.66292,-1.20662 z"
           id="path74" />
        <path
           d="m 127.19286,138.3402 c -0.0419,0.09 -0.0784,0.19467 -0.10962,0.31399 -0.14337,0.51728 -0.31081,0.96862 -0.50696,1.36401 l -0.0326,0.07 c -0.014,0.03 -0.0233,0.05 -0.0353,0.0627 -0.12368,0.2527 -0.16477,0.45866 -0.11129,0.60521 l 0.24913,-0.0909 c 0.0512,-0.11002 0.0951,-0.21735 0.13427,-0.31469 0.101,-0.26934 0.24457,-0.60403 0.44271,-1.01675 0.1612,-0.0588 0.41835,-0.12774 0.75878,-0.21874 -0.31646,0.68007 -0.43042,1.27796 -0.34655,1.80366 0.13181,0.475 0.34342,0.80463 0.63751,0.99623 0.18932,0.0638 0.3839,0.0509 0.60372,-0.0293 l 0.10259,-0.0374 c 0.27844,-0.10159 0.50619,-0.25112 0.68323,-0.44856 0.32142,-0.41619 0.46965,-0.76088 0.43736,-1.0314 -0.003,-0.007 -0.008,-0.022 -0.0114,-0.054 -0.008,-0.022 -0.009,-0.0466 -0.0141,-0.0613 l 0.14655,-0.0535 -0.0396,-0.26784 -0.19784,0.0722 0.0396,0.26785 c -0.10258,0.0374 -0.16784,0.0862 -0.19576,0.14616 -0.0558,0.12001 -0.12169,0.23537 -0.18823,0.32607 -0.17844,0.14814 -0.38628,0.21567 -0.61353,0.20726 -0.35469,-0.15288 -0.58819,-0.3832 -0.70048,-0.69096 -0.14319,-0.52896 -0.10309,-1.03347 0.12564,-1.49886 l 0.0818,-0.1627 c 0.0931,-0.20002 0.17021,-0.35271 0.22873,-0.46539 l 0.0233,-0.05 0.0279,-0.06 -0.0882,-0.2418 -0.24914,0.0909 c -0.12377,0.16141 -0.31092,0.2629 -0.55144,0.30915 -0.25587,0.0269 -0.50371,0.0759 -0.73086,0.15874 z"
           id="path76" />
        <path
           d="m 130.55257,134.41614 c -0.61199,0.0175 -1.04056,0.3834 -1.28116,1.10415 -0.0822,0.3666 -0.0659,0.6431 0.0318,0.83228 0.10586,-0.0665 0.17274,-0.13387 0.20239,-0.21285 0.0745,-0.21696 0.14474,-0.37316 0.22328,-0.47769 0.21151,-0.20019 0.49134,-0.3054 0.84127,-0.32652 0.51345,0.0726 0.96682,0.34224 1.36919,0.82147 -0.12253,-0.0368 -0.23951,-0.0391 -0.33826,-0.0161 -0.20463,0.0896 -0.38803,0.28873 -0.54388,0.59301 -0.26615,0.67187 -0.26036,1.32108 0.0138,1.96939 0.0192,0.0534 0.0311,0.0833 0.0402,0.096 l -0.10765,0.0774 c -0.003,0.15597 -0.0135,0.28838 -0.0331,0.40814 -0.005,0.0327 -0.0124,0.0762 -0.0259,0.12431 -0.0142,0.0871 -0.033,0.16786 -0.0472,0.25495 l -0.0213,0.13064 c -0.008,0.0154 -0.0117,0.0372 -0.0152,0.059 l -0.0107,0.0653 -0.0107,0.0653 -0.009,0.0544 c 0.001,0.0952 0.0414,0.19119 0.13154,0.28972 l 0.15196,-0.10931 c 0.0298,-0.31928 0.0773,-0.74741 0.14438,-1.29531 0.35328,0.43768 0.72132,0.68218 1.12591,0.73705 0.30994,-0.05 0.58043,-0.23497 0.80338,-0.53947 0.21362,-0.38426 0.25792,-0.96382 0.13926,-1.74321 -0.19754,-1.04935 -0.75168,-1.89983 -1.6533,-2.53879 -0.0109,-0.002 -0.0263,-0.01 -0.0463,-0.0243 -0.0263,-0.01 -0.0463,-0.0243 -0.0554,-0.037 -0.33894,-0.21739 -0.67666,-0.33958 -1.01948,-0.36201 z m 1.47942,1.7895 0.038,-0.0273 c 0.14376,0.14641 0.2994,0.3227 0.45882,0.54432 l 0.041,0.057 0.041,0.057 c 0.25685,0.3437 0.43294,0.66863 0.52193,0.97934 0.006,0.0344 0.009,0.0798 0.0222,0.13775 0.0248,0.0879 0.0387,0.17397 0.0417,0.25828 -0.0791,0.21063 -0.16929,0.35238 -0.2706,0.42526 -0.25628,0.0979 -0.51556,0.11143 -0.77962,0.0516 -0.30861,-0.0951 -0.5559,-0.29192 -0.7482,-0.58597 -0.17053,-0.29049 -0.21597,-0.5941 -0.14266,-0.90626 0.0649,-0.12353 0.18418,-0.23818 0.34525,-0.33483 0.0699,0.017 0.13975,0.034 0.20963,0.051 0.12353,0.0649 0.21718,0.14164 0.27284,0.24572 0.003,0.0172 0.0101,0.0408 0.0266,0.077 0.0164,0.0362 0.0283,0.0661 0.0374,0.0788 l 0.18996,-0.13665 -0.0394,-0.13497 c 0.006,-0.20585 -0.0659,-0.45224 -0.21009,-0.73285 -0.009,-0.0127 -0.0119,-0.0299 -0.0301,-0.0552 -0.0137,-0.019 -0.0164,-0.0362 -0.0255,-0.0489 z m -1.21542,4.22763 c -0.0142,0.0871 0.0116,0.20307 0.0773,0.34793 l 0.15196,-0.10932 c 0.008,-0.0825 -0.0179,-0.19851 -0.0837,-0.34337 z"
           id="path78" />
      </g>
    </g>
    <!-- ================== WORD 3 ================== -->
    <g
       id="word_3"
       data-bezier-ref="bezier3"
       data-text="vocabulary">
      <g
         aria-label="vocabulary"
         id="text23"
         style="font-size:7.8px;font-family:font6;text-anchor:middle">
        <path
           d="m 148.24097,78.771762 c -0.004,-0.272974 -0.0611,-0.4672 -0.17177,-0.574879 -0.0552,-0.04604 -0.10268,-0.09219 -0.14211,-0.122846 -0.18956,-0.168994 -0.36244,-0.260211 -0.53424,-0.273435 l -0.0146,0.07041 -0.007,0.0469 -0.007,0.0547 -0.0144,0.08601 c -0.52905,0.100929 -1.05886,0.147262 -1.58921,0.1546 l -0.21058,0.0029 c -0.0702,9.71e-4 -0.14028,0.0097 -0.20268,0.0106 -0.25737,0.0036 -0.4672,0.06107 -0.63748,0.157033 -0.22381,0.174713 -0.34547,0.402618 -0.373,0.668224 -0.001,0.475862 0.15258,0.879374 0.4615,1.218333 0.52946,0.491922 1.21177,0.755509 2.05452,0.775053 0.57714,-0.008 1.00438,-0.138708 1.2661,-0.391953 0.0919,-0.126082 0.1195,-0.383889 0.0827,-0.789019 -0.0648,-0.17072 -0.28638,-0.401677 -0.68045,-0.692653 -0.0314,-0.01517 -0.063,-0.04593 -0.11026,-0.07648 l 0.10908,-0.0093 c 0.0467,-0.0084 0.10117,-0.017 0.14797,-0.01765 0.21805,-0.02642 0.40394,-0.122599 0.57315,-0.296557 z m -0.81604,0.783564 c 0.0711,0.06142 0.10301,0.115586 0.10366,0.162381 -0.10725,0.141898 -0.20713,0.25249 -0.31502,0.347592 -0.49603,0.233084 -1.08812,0.28808 -1.77629,0.164988 -0.28987,-0.0896 -0.51051,-0.250362 -0.66183,-0.47449 0.0293,-0.140819 0.11289,-0.297991 0.2509,-0.471516 0.2627,-0.183052 0.72156,-0.283009 1.37669,-0.292073 0.328,0.02666 0.66607,0.217007 1.02189,0.563118 z m -0.0818,-1.964657 c -0.21307,-0.176469 -0.36298,-0.299207 -0.44205,-0.376121 -0.0394,-0.03066 -0.0711,-0.06142 -0.0869,-0.0768 -0.0554,-0.05384 -0.1107,-0.107679 -0.16594,-0.15372 -0.0949,-0.0923 -0.19757,-0.184484 -0.30784,-0.260966 l -0.25738,0.0036 0.003,0.21058 c 0.17352,0.138012 0.30762,0.245368 0.40229,0.322065 0,0 0.0316,0.03077 0.0869,0.07681 0.0552,0.04604 0.11048,0.09208 0.17363,0.145812 0.22119,0.199759 0.42548,0.306143 0.59728,0.319368 z"
           id="path81" />
        <path
           d="m 148.54294,85.116871 c 0.009,-0.305659 0.0156,-0.540738 0.0187,-0.713017 0.003,-0.172279 -0.096,-0.352787 -0.29732,-0.541524 -0.20194,-0.196516 -0.37659,-0.340267 -0.50783,-0.4246 -0.13124,-0.08433 -0.33531,-0.20249 -0.5961,-0.347818 -0.13068,-0.07655 -0.24523,-0.146456 -0.3281,-0.210833 -0.17352,-0.128192 -0.3281,-0.210834 -0.46261,-0.232366 -0.0311,0.0023 -0.0784,-0.0021 -0.13281,0.0018 l -0.0113,-0.155592 c -0.21524,-0.164271 -0.38876,-0.292462 -0.52056,-0.384575 -0.30476,-0.212525 -0.53669,-0.391227 -0.70412,-0.543321 -0.0334,-0.02886 -0.0673,-0.06551 -0.10069,-0.09437 -0.0823,-0.0566 -0.20069,-0.07148 -0.35515,-0.04464 l 0.0147,0.202269 c 0.084,0.07994 0.17577,0.15931 0.29089,0.236992 0.27917,0.183098 0.46103,0.318505 0.56059,0.397314 l 0.0334,0.02886 0.0417,0.03608 c 0.0501,0.04329 0.1079,0.08602 0.15796,0.129319 0.16631,0.136535 0.32088,0.219177 0.46317,0.240146 0.0233,-0.0017 0.07,-0.0051 0.13282,-0.0018 l 0.008,0.108914 c -0.14228,-0.02097 -0.28401,-0.03416 -0.41683,-0.03235 -0.52236,0.02222 -0.91731,0.183793 -1.1782,0.468599 -0.15762,0.199115 -0.22459,0.462044 -0.18591,0.779879 0.12177,0.60117 0.40455,1.049902 0.85611,1.345633 0.84077,0.486494 1.65008,0.646808 2.42679,0.465385 0.33554,-0.118165 0.59982,-0.356292 0.79284,-0.714383 z m -1.08917,-1.539893 c 0.21354,0.140932 0.31547,0.360337 0.29856,0.666561 -0.0997,0.351324 -0.25333,0.604896 -0.46101,0.760717 -0.0378,0.01838 -0.0672,0.04397 -0.0972,0.06179 -0.0455,0.01894 -0.0833,0.03732 -0.11274,0.06292 -0.40544,0.232718 -0.8155,0.293721 -1.22185,0.190225 -0.32359,-0.148597 -0.53995,-0.328426 -0.65575,-0.523366 -0.0497,-0.254471 -0.0128,-0.499585 0.0959,-0.726436 0.12312,-0.243537 0.383,-0.434423 0.77964,-0.572658 0.52056,-0.155036 0.98406,-0.126067 1.3744,0.08025 z"
           id="path83" />
        <path
           d="m 149.41753,90.030802 c 0.0638,-0.397581 -0.15503,-0.772551 -0.65476,-1.117293 l -0.11161,-0.07116 c -0.1708,-0.121968 -0.33317,-0.205857 -0.47525,-0.270272 -0.0262,-0.01017 -0.0617,-0.02628 -0.10488,-0.04069 -0.0448,-0.02203 -0.0787,-0.03052 -0.0956,-0.03477 -0.21818,-0.119468 -0.39409,-0.19237 -0.53704,-0.224636 -0.64971,-0.04791 -1.23106,0.104749 -1.74829,0.474887 -0.27346,0.244279 -0.4184,0.56396 -0.44409,0.953112 0.0614,0.457752 0.26072,0.85301 0.58871,1.179845 0.6096,0.480197 1.11281,0.696345 1.50202,0.650131 l -0.0455,-0.205622 c -0.16068,-0.07627 -0.32136,-0.152548 -0.48036,-0.221206 -0.32049,-0.184696 -0.5242,-0.419212 -0.60686,-0.720466 -0.0455,-0.277535 0.0656,-0.605703 0.33666,-0.969275 0.23539,-0.23585 0.601,-0.388682 1.09683,-0.458498 0.42642,-0.0225 0.82731,0.128426 1.19338,0.446832 -0.28852,0.03191 -0.48571,0.115509 -0.60256,0.237242 -0.061,0.0854 -0.0746,0.168299 -0.0544,0.259686 l 0.0388,0.17516 c 0.0379,0.207308 0.0852,0.348634 0.14772,0.414675 0.26643,0.08482 0.53548,0.0732 0.81051,-0.01964 0.10924,-0.120047 0.18888,-0.265499 0.24655,-0.438042 z m -2.78608,-1.939681 c -0.0303,-0.137082 -0.0751,-0.231027 -0.1326,-0.274222 -0.26213,-0.17365 -0.47019,-0.247424 -0.63012,-0.212021 0.0303,0.137081 0.0734,0.223411 0.13092,0.266606 0.25451,0.175335 0.46257,0.24911 0.6318,0.219637 z m -1.50753,-1.144216 c -0.093,-0.0593 -0.22498,-0.07802 -0.39927,-0.07139 l 0.0455,0.205622 c 0.0837,0.05337 0.21736,0.0797 0.40095,0.07901 z m 1.895,1.162299 c -0.0465,-0.02965 -0.15987,-0.03651 -0.33416,-0.02988 l 0.11063,0.247131 0.27073,-0.004 z"
           id="path85" />
        <path
           d="m 150.92858,92.287323 c -0.33373,-0.273601 -0.65725,-0.391535 -0.97285,-0.364598 -0.0216,0.0045 -0.0605,0.0071 -0.10368,0.01618 -0.0432,0.0091 -0.0821,0.01163 -0.10369,0.01618 -0.25054,0.04143 -0.41871,0.09936 -0.51303,0.186833 -0.0171,0.02613 -0.0449,0.05453 -0.0705,0.09373 l -0.13718,-0.0895 c -0.41816,0.1556 -0.76303,0.28451 -1.03915,0.365141 -0.1855,0.05593 -0.31674,0.12863 -0.41106,0.216106 -0.009,0.01306 -0.0236,0.02187 -0.0406,0.048 -0.0236,0.02187 -0.0321,0.03494 -0.0364,0.04147 l -0.13719,-0.0895 -0.19063,0.192279 -0.13065,-0.08524 c -0.10795,0.02271 -0.22613,0.103931 -0.34602,0.230603 l 0.18291,0.119333 c 0.0972,-0.02044 0.18323,-0.06673 0.25397,-0.132333 0.009,-0.01306 0.0213,-0.03266 0.0449,-0.05453 0.017,-0.02613 0.0321,-0.03493 0.0406,-0.048 l 0.13719,0.0895 c 0.0815,-0.06788 0.14801,-0.126952 0.19063,-0.192279 l 0.13719,0.0895 c -0.079,0.106795 -0.13865,0.198252 -0.18127,0.26358 -0.0321,0.03493 -0.0577,0.07413 -0.079,0.106794 -0.26878,0.383439 -0.38444,0.717759 -0.36005,0.994436 0.0431,0.205097 0.15731,0.37271 0.34676,0.496305 0.0261,0.01705 0.0631,0.03182 0.0957,0.05313 0.0653,0.04262 0.13065,0.08524 0.20024,0.121324 0.21303,0.101726 0.36925,0.147768 0.48174,0.146649 0.11249,-0.0011 0.40167,-0.07323 0.85903,-0.203255 0.0366,-0.01335 0.0841,-0.02896 0.13152,-0.04458 -0.0665,0.273255 -0.10347,0.472659 -0.10235,0.585147 0.0352,0.274406 0.15871,0.513319 0.36832,0.705943 0.29851,0.213375 0.71692,0.300077 1.25323,0.277434 0.42354,-0.04964 0.73148,-0.193332 0.93263,-0.416003 -0.12412,-0.08098 -0.18292,-0.119333 -0.17639,-0.115072 -0.19203,0.05167 -0.35622,0.07494 -0.49029,0.0806 -0.26844,-0.0168 -0.50106,-0.131312 -0.69135,-0.339273 -0.0906,-0.189481 -0.12294,-0.396849 -0.0951,-0.639432 0.14242,-0.68939 0.45325,-1.194399 0.9345,-1.532356 0.24091,-0.140856 0.43182,-0.305013 0.58354,-0.494742 l -0.18292,-0.119333 c -0.21561,0.07354 -0.40964,0.142535 -0.57781,0.200458 l 0.0585,-0.203946 c 0.0475,-0.229797 0.0239,-0.422108 -0.0641,-0.572673 z m -1.71799,-0.02185 c 0.34854,0.02249 0.59566,0.07196 0.74791,0.152654 0.09,0.133238 0.1434,0.279821 0.15361,0.435487 -0.0841,0.243141 -0.21823,0.462983 -0.39381,0.646458 -0.0151,0.0088 -0.0301,0.01761 -0.0429,0.03721 -0.0236,0.02187 -0.0321,0.03494 -0.0321,0.03494 0.0523,0.0341 0.11958,0.05939 0.20622,0.06934 0.11419,-0.04657 0.25225,-0.08688 0.40338,-0.118675 l -0.20967,0.235737 c -0.0878,0.09174 -0.17984,0.190008 -0.2611,0.286007 -0.25002,0.311859 -0.57473,0.509799 -0.96333,0.591548 -0.19459,0.01275 -0.36388,-0.04181 -0.50788,-0.163696 -0.14284,-0.223576 -0.18683,-0.51304 -0.12116,-0.87066 0.112,-0.485724 0.45152,-0.93477 1.02083,-1.336342 z m -2.95719,0.892628 c -0.12412,-0.08098 -0.22183,-0.116782 -0.2866,-0.103157 -0.31531,0.05506 -0.51985,0.154448 -0.60935,0.291635 0.11759,0.07671 0.21956,0.105988 0.29086,0.09663 0.30452,-0.05279 0.50479,-0.145645 0.60509,-0.285103 z m 0.16506,-0.153082 -0.11933,0.182916 0.17638,0.115071 0.11933,-0.182916 z"
           id="path87" />
        <path
           d="m 152.36996,89.62458 c -0.24399,0.06118 -0.44002,0.245989 -0.57801,0.55887 l -0.0223,0.05047 -0.0178,0.04037 c -0.26587,0.630215 -0.28863,1.283252 -0.0711,1.951838 l 0.10958,0.325611 c 0.006,0.01454 0.01,0.04645 0.0209,0.07554 0.0141,0.03636 0.0254,0.06545 0.031,0.07999 0.0221,0.100178 0.0459,0.182992 0.0741,0.255712 -0.007,0.06946 0.0112,0.179731 0.0357,0.329183 l 0.12362,-0.04796 c 0.0705,0.181801 0.16243,0.39714 0.28298,0.643198 0.006,0.01454 0.0141,0.03636 0.0254,0.06545 0.0141,0.03636 0.0327,0.06263 0.0383,0.07717 0.29752,0.637557 0.61503,1.024731 0.97274,1.170426 0.29965,0.01762 0.57881,-0.08231 0.83747,-0.299772 0.14231,-0.172332 0.20625,-0.330998 0.20475,-0.464276 -0.006,-0.01454 -0.01,-0.04645 -0.0266,-0.09009 l 0.12363,-0.04796 c 0.1218,-0.289875 0.19716,-0.570096 0.21152,-0.835022 l 0.001,-0.126006 c 0.0181,-0.341658 -0.0676,-0.735098 -0.24699,-1.175871 -0.14148,-0.321599 -0.35212,-0.541077 -0.6319,-0.658435 -0.15064,-1.27e-4 -0.32636,0.04294 -0.54452,0.127567 -0.1398,0.07096 -0.23478,0.149637 -0.28775,0.22875 -0.0502,0.08639 -0.14688,0.333068 -0.29747,0.742868 -0.0162,0.02301 -0.0267,0.06056 -0.0417,0.108202 l -0.0169,-0.04363 -0.0226,-0.05818 c -0.0242,-0.04081 -0.0439,-0.09171 -0.0609,-0.135347 -0.0907,-0.190703 -0.0808,-0.445535 0.0325,-0.757227 0.14006,-0.372248 0.22876,-0.682749 0.26776,-0.948865 0.0618,-0.509227 0.012,-0.87477 -0.15941,-1.101081 -0.0864,-0.05015 -0.17885,-0.07285 -0.27012,-0.0709 -0.0218,0.0085 -0.0509,0.01975 -0.0974,0.0294 z m -0.39809,0.806998 c 0.0312,-0.07065 0.0881,-0.117856 0.17823,-0.144435 0.11666,0.06351 0.20706,0.145568 0.26392,0.249006 0.004,0.03191 0.0238,0.08281 0.0463,0.140989 0.0846,0.218161 0.0893,0.467352 0.0111,0.740301 -0.015,0.04764 -0.0211,0.0751 -0.0255,0.08519 l -0.0932,0.320593 c -0.0948,-0.07197 -0.15779,-0.147949 -0.19609,-0.22512 -0.19985,-0.558315 -0.26536,-0.942854 -0.1848,-1.166529 z m 1.14607,2.048582 c 0.0994,-0.08877 0.22587,-0.129451 0.36924,-0.126503 0.15584,0.05667 0.29389,0.153718 0.41857,0.281042 0.35181,0.432436 0.49511,0.995954 0.44445,1.684912 -0.0145,0.0056 -0.0263,0.01856 -0.0408,0.0242 -0.0145,0.0056 -0.0263,0.01856 -0.0335,0.02138 -0.0145,0.0056 -0.0218,0.0085 -0.0364,0.01411 -0.0263,0.01856 -0.0481,0.02702 -0.0626,0.03266 -0.11517,0.06977 -0.23271,0.09027 -0.35263,0.06149 -0.48359,-0.297656 -0.79621,-0.736925 -0.94679,-1.297622 0.0261,-0.27784 0.11109,-0.511608 0.24049,-0.695663 z m -1.36959,1.041633 c -0.0178,0.04037 -0.013,0.13892 0.0115,0.288373 l 0.0525,-0.03711 0.0408,-0.0242 0.0408,-0.0242 0.0598,-0.03993 c -0.0113,-0.02909 -0.0165,-0.08563 -0.0273,-0.156724 l -0.0108,-0.07109 z m -0.16557,0.457444 0.0382,0.227814 0.16726,-0.06488 -0.0382,-0.227815 z"
           id="path89" />
        <path
           d="m 156.58812,89.308869 c -0.22658,0.104706 -0.36272,0.219175 -0.40188,0.357566 -0.008,0.02071 -0.012,0.04849 -0.0201,0.08663 -0.008,0.03814 -0.0125,0.06592 -0.0201,0.08663 l -0.0478,0.193964 c -0.0555,0.214668 -0.10712,0.418984 -0.15497,0.612947 -0.008,0.02071 -0.012,0.04849 -0.0163,0.07628 -0.004,0.02779 -0.012,0.04849 -0.0158,0.05884 -0.0794,0.31165 -0.14193,0.529591 -0.18109,0.667983 -0.012,0.04849 -0.0201,0.08663 -0.0283,0.124767 -0.0305,0.08282 -0.0571,0.155288 -0.0734,0.231565 -0.0816,0.269703 -0.0918,0.489252 -0.034,0.651568 l 0.24074,-0.11125 c 0.1054,-0.590043 0.26638,-1.171396 0.47584,-1.740787 0.10138,0.107817 0.18152,0.22545 0.24369,0.359979 l 0.11779,0.254899 c 0.0556,0.120368 0.12488,0.251626 0.19032,0.393236 0.0818,0.177013 0.15105,0.308271 0.19359,0.400317 0.003,0.0071 0.0131,0.02832 0.0262,0.05665 0.0131,0.02832 0.0333,0.05337 0.0398,0.06753 0.20614,0.446072 0.43507,0.71835 0.66937,0.816297 0.10353,0.03808 0.20158,0.02714 0.28655,-0.01212 0,0 0.0316,-0.006 0.0741,-0.02564 0.0425,-0.01963 0.0708,-0.03272 0.0991,-0.04581 0.10621,-0.04908 0.21242,-0.09816 0.32243,-0.157595 0.17208,-0.148262 0.32281,-0.510065 0.45927,-1.088683 0.004,-0.02778 0.009,-0.073 0.025,-0.131848 0.16575,0.284294 0.39356,0.479759 0.68343,0.586395 0.14547,0.03589 0.29583,0.02655 0.44452,-0.04216 0.36926,-0.205013 0.63982,-0.605009 0.81876,-1.203258 0.0185,-0.03433 0.0267,-0.07247 0.0419,-0.113879 0.0163,-0.07628 0.043,-0.148744 0.0593,-0.22502 0.0261,-0.166714 -0.005,-0.307252 -0.0808,-0.435237 l -0.19117,0.08835 c -0.0581,0.301834 -0.14789,0.609675 -0.26976,0.940957 -0.14054,0.03057 -0.26037,0.06877 -0.35242,0.111304 -0.43717,-0.536939 -0.79972,-1.11695 -1.08004,-1.760741 -0.0791,-0.152499 -0.14124,-0.287029 -0.19032,-0.393236 l -0.0589,-0.127449 c -0.11779,-0.254899 -0.2388,-0.405199 -0.3456,-0.450364 -0.16285,0.07526 -0.37961,0.201205 -0.64975,0.360409 0.01,0.132921 0.0644,0.288156 0.15658,0.468977 0.0393,0.08497 0.0823,0.15958 0.1216,0.244546 l 0.18651,0.403589 c 0.0785,0.169932 0.14778,0.30119 0.19032,0.393236 l 0.0589,0.12745 c 0.16414,0.336592 0.21006,0.659077 0.1443,0.981616 -0.008,0.0207 -0.012,0.04849 -0.0201,0.08663 -0.0152,0.04141 -0.0196,0.0692 -0.0272,0.0899 -0.0283,0.124767 -0.0489,0.22883 -0.0723,0.308378 -0.11222,0.01749 -0.22116,0.04205 -0.31321,0.08459 -0.18146,-0.113771 -0.34608,-0.321251 -0.49059,-0.615361 -0.003,-0.0071 -0.0202,-0.02505 -0.0398,-0.06753 -0.0164,-0.0354 -0.0294,-0.06373 -0.0393,-0.08497 -0.11833,-0.237465 -0.23011,-0.46077 -0.32828,-0.673185 -0.0987,-0.194982 -0.1843,-0.361643 -0.24974,-0.503253 -0.0234,-0.03213 -0.0496,-0.08877 -0.0823,-0.159579 l -0.072,-0.155772 c -0.0202,-0.02505 -0.0431,-0.07461 -0.0758,-0.145418 l -0.0589,-0.12745 c -0.0638,-0.08223 -0.15969,-0.14102 -0.28772,-0.176369 z"
           id="path91" />
        <path
           d="m 164.14012,85.08042 c -0.25682,0.01905 -0.51371,0.187111 -0.76988,0.511952 -0.42736,0.562359 -0.58248,1.253067 -0.4723,2.080693 0.0362,0.270704 0.0169,0.460947 -0.0493,0.577676 -0.15199,0.196293 -0.23578,0.369762 -0.23587,0.51878 0.11637,-0.01218 0.20702,-0.0452 0.27197,-0.09906 l 0.0208,-0.02571 c 0.0216,-0.01795 0.0364,-0.02733 0.0503,-0.04447 0.0408,0.08984 0.0652,0.173551 0.0819,0.258073 0.006,0.06206 0.0122,0.116364 0.0248,0.162097 0.0232,0.146582 0.0439,0.269891 0.0614,0.36217 0.0895,0.555298 0.19218,0.93668 0.31577,1.143334 0.0967,0.09967 0.22119,0.165064 0.37346,0.196178 0.31355,-0.0015 0.5516,-0.04991 0.71252,-0.160871 0,0 0.0147,-0.0094 0.0286,-0.02652 0.0147,-0.0094 0.0294,-0.01877 0.0441,-0.02815 0.24752,-0.182767 0.46607,-0.417401 0.66505,-0.689199 0.0278,-0.03428 0.0478,-0.06775 0.0756,-0.102026 0.16344,-0.236706 0.24479,-0.433447 0.24488,-0.582466 l -0.17843,0.01868 c -0.33427,0.552612 -0.63861,0.866811 -0.89587,0.956488 -0.12493,0.0052 -0.22208,-0.0238 -0.2984,-0.07855 -0.16806,-0.256896 -0.28426,-0.54275 -0.33308,-0.859187 -0.0126,-0.04573 -0.0253,-0.09147 -0.0309,-0.14577 l -0.048,-0.308679 c -0.0342,-0.176801 -0.0566,-0.315625 -0.0749,-0.415662 -0.0269,-0.106982 -0.0452,-0.207018 -0.0558,-0.307867 -0.037,-0.278461 0.0509,-0.56216 0.27156,-0.85191 0.3387,-0.435436 0.56022,-0.866447 0.67314,-1.286086 0.0234,-0.300475 -0.0156,-0.52382 -0.11721,-0.670038 -0.10121,-0.06783 -0.1759,-0.107065 -0.23878,-0.108324 -0.0155,0.0016 -0.0396,-0.0037 -0.0629,-0.0013 z m -0.54544,0.708047 c 0.0981,-0.11222 0.20584,-0.131349 0.3242,-0.04963 0.0877,0.163357 0.13658,0.330775 0.15526,0.5092 -0.002,0.282522 -0.16405,0.605374 -0.49373,0.977125 -0.0375,-0.05881 -0.0603,-0.127005 -0.0701,-0.220097 -0.0997,-0.577758 -0.0713,-0.980706 0.0844,-1.216599 z"
           id="path93" />
        <path
           d="m 172.76465,89.771395 c -0.30127,-0.308977 -0.6097,-0.46212 -0.92633,-0.470406 -0.022,0.0021 -0.0609,3.28e-4 -0.10484,0.0046 -0.0439,0.0042 -0.0829,0.0024 -0.10484,0.0046 -0.2536,0.01335 -0.42716,0.05223 -0.53062,0.128687 -0.0198,0.02408 -0.0507,0.04921 -0.0804,0.08532 l -0.1264,-0.104185 c -0.43285,0.108188 -0.78991,0.197992 -1.07327,0.247452 -0.19057,0.03498 -0.32908,0.09265 -0.43253,0.169106 -0.01,0.01204 -0.0259,0.01911 -0.0457,0.04319 -0.0259,0.01911 -0.0358,0.03115 -0.0407,0.03717 l -0.12639,-0.104185 -0.21081,0.169913 -0.12038,-0.09922 c -0.1098,0.01058 -0.23627,0.07817 -0.3695,0.190739 l 0.16853,0.138913 c 0.0988,-0.0095 0.18951,-0.04596 0.2671,-0.103302 0.01,-0.01204 0.0248,-0.0301 0.0507,-0.04921 0.0198,-0.02408 0.0358,-0.03115 0.0457,-0.04319 l 0.12639,0.104185 c 0.0886,-0.0584 0.1612,-0.109724 0.21082,-0.169913 l 0.12639,0.104185 c -0.0904,0.09736 -0.15981,0.181623 -0.20943,0.241812 -0.0358,0.03115 -0.0656,0.06727 -0.0904,0.09736 -0.30971,0.351209 -0.4618,0.670612 -0.46829,0.948286 0.0201,0.208621 0.11493,0.387878 0.28948,0.531752 0.0241,0.01985 0.0591,0.03863 0.0892,0.06344 0.0602,0.04961 0.12038,0.09922 0.18553,0.142817 0.20041,0.12476 0.35056,0.18787 0.46247,0.199253 0.11192,0.01138 0.40732,-0.02815 0.87629,-0.106574 0.0379,-0.0092 0.0868,-0.01944 0.13566,-0.02969 -0.0965,0.264176 -0.15533,0.45824 -0.16671,0.570156 0.004,0.276617 0.10071,0.527773 0.28762,0.742488 0.27296,0.245213 0.67915,0.377856 1.21465,0.414928 0.42643,-0.0023 0.74843,-0.110882 0.97307,-0.309832 -0.11436,-0.09426 -0.16853,-0.138913 -0.16251,-0.133951 -0.19658,0.03002 -0.36234,0.0349 -0.49622,0.02564 -0.2649,-0.04651 -0.48337,-0.186158 -0.64938,-0.413969 -0.069,-0.198371 -0.0781,-0.408049 -0.0234,-0.646034 0.21811,-0.669304 0.58312,-1.136659 1.09894,-1.419067 0.25505,-0.113225 0.46302,-0.255159 0.63487,-0.42686 l -0.16852,-0.138913 c -0.22245,0.04913 -0.42294,0.09615 -0.5965,0.135033 l 0.0808,-0.19618 c 0.0727,-0.223101 0.0707,-0.416838 -1e-4,-0.576251 z m -1.70493,-0.212553 c 0.34388,0.06107 0.58398,0.13768 0.72632,0.234788 0.0747,0.142414 0.11144,0.294019 0.10428,0.449855 -0.1106,0.232293 -0.2683,0.435876 -0.46317,0.598713 -0.016,0.0071 -0.0319,0.01415 -0.0468,0.03221 -0.0259,0.01911 -0.0358,0.03115 -0.0358,0.03115 0.0481,0.03969 0.11225,0.0723 0.19724,0.09182 0.11867,-0.03359 0.26035,-0.05832 0.41407,-0.07313 l -0.23456,0.210988 c -0.0974,0.08142 -0.19983,0.168855 -0.29125,0.255235 -0.28311,0.282156 -0.6278,0.442801 -1.02308,0.480878 -0.1948,-0.0089 -0.35698,-0.08197 -0.48655,-0.219099 -0.11713,-0.23806 -0.12869,-0.530618 -0.0237,-0.87873 0.16526,-0.470278 0.55256,-0.87883 1.16296,-1.214677 z m -3.03805,0.558615 c -0.11436,-0.09426 -0.20748,-0.140701 -0.27336,-0.134355 -0.31948,0.01969 -0.5338,0.09575 -0.63798,0.222143 0.10834,0.0893 0.20643,0.129721 0.27833,0.128336 0.3085,-0.01863 0.51785,-0.08867 0.63301,-0.216124 z m 0.18105,-0.1338 -0.13892,0.168528 0.16251,0.133952 0.13892,-0.168528 z"
           id="path95" />
        <path
           d="m 176.38629,95.673991 c -0.092,-0.03723 -0.19842,-0.06837 -0.31918,-0.09342 -0.52394,-0.116748 -0.98324,-0.260898 -1.38814,-0.436586 l -0.0716,-0.02896 c -0.0307,-0.01241 -0.0511,-0.02068 -0.0644,-0.032 -0.25869,-0.110595 -0.46649,-0.141105 -0.61011,-0.08021 l 0.10352,0.244162 c 0.11248,0.0455 0.22192,0.08382 0.32114,0.118007 0.27414,0.0871 0.61573,0.21338 1.03804,0.39016 0.067,0.157987 0.14896,0.411283 0.25724,0.746617 -0.69536,-0.281286 -1.29829,-0.364543 -1.81901,-0.253907 -0.46764,0.155908 -0.78603,0.38409 -0.96235,0.687591 -0.054,0.192339 -0.0312,0.386001 0.0601,0.601438 l 0.0426,0.100537 c 0.1157,0.272887 0.27667,0.492691 0.48291,0.659414 0.43207,0.299722 0.78389,0.430139 1.0524,0.38407 0.007,-0.003 0.0215,-0.0091 0.0533,-0.01413 0.0215,-0.0091 0.0461,-0.01109 0.0605,-0.01718 l 0.0609,0.143624 0.26547,-0.05325 -0.0822,-0.193894 -0.26547,0.05325 c -0.0426,-0.100537 -0.0946,-0.163215 -0.15597,-0.188035 -0.12271,-0.04964 -0.24129,-0.109503 -0.33527,-0.17132 -0.15706,-0.170628 -0.23513,-0.374747 -0.23835,-0.602132 0.13456,-0.362042 0.35264,-0.607002 0.65425,-0.734878 0.52096,-0.170039 1.02685,-0.155781 1.50333,0.04886 l 0.16666,0.07337 c 0.20452,0.08273 0.36095,0.151961 0.47648,0.204645 l 0.0511,0.02068 0.0614,0.02482 0.23698,-0.100474 -0.10352,-0.244162 c -0.16752,-0.115362 -0.27845,-0.297076 -0.33693,-0.534917 -0.04,-0.254157 -0.1015,-0.49918 -0.19589,-0.721798 z"
           id="path97" />
        <path
           d="m 178.32048,101.62303 c -0.0444,-0.16576 -0.0958,-0.29734 -0.1582,-0.40983 -0.2185,0.0585 -0.41238,0.11851 -0.59321,0.16694 -0.0979,0.0262 -0.17881,0.056 -0.23908,0.0721 -0.67609,0.18913 -1.1443,0.24992 -1.42173,0.17886 -0.25132,-0.0942 -0.42178,-0.21812 -0.51891,-0.36975 0.009,-0.0266 0.018,-0.0533 0.0366,-0.0744 0.11235,-0.18351 0.35589,-0.32948 0.73261,-0.43036 l 0.11302,-0.0303 c 0.15621,-0.0499 0.28429,-0.0842 0.37471,-0.10842 l 0.39179,-0.10492 0.12055,-0.0323 0.12809,-0.0343 0.11302,-0.0303 c 0.0151,-0.004 0.0281,-0.0156 0.0583,-0.0237 0.0226,-0.006 0.0377,-0.0101 0.0527,-0.0141 0.10548,-0.0282 0.20841,-0.0962 0.32789,-0.19278 l -0.11501,-0.429469 c -0.0382,-0.02207 -0.0955,-0.05517 -0.16791,-0.08423 -0.0648,-0.03108 -0.11261,-0.05867 -0.13924,-0.06768 -0.16589,-0.0767 -0.28953,-0.116261 -0.37847,-0.11667 -0.0492,-0.003 -0.0794,0.0051 -0.0794,0.0051 l -0.0222,-0.08288 c -0.10306,-0.05315 -0.17746,-0.08975 -0.23275,-0.115316 -0.0191,-0.01103 -0.0362,-0.01453 -0.0553,-0.02557 -0.0266,-0.009 -0.0457,-0.02005 -0.0457,-0.02005 -0.24433,-0.128367 -0.44385,-0.179909 -0.58149,-0.151124 l 0.0464,0.173294 c 0.084,0.04212 0.15633,0.07118 0.21365,0.104282 0.0457,0.02005 0.0724,0.02907 0.0915,0.0401 0.18701,0.09527 0.33931,0.15138 0.44385,0.179909 0.0171,0.0035 0.0417,0.005 0.0759,0.01198 -0.008,0.002 -0.011,0.0191 -0.0145,0.03619 -0.004,0.01709 -0.009,0.02664 -0.007,0.03417 -0.0893,0.08852 -0.20182,0.150946 -0.32237,0.183229 -0.0322,5.36e-4 -0.0623,0.0086 -0.1075,0.02071 -0.14316,0.03834 -0.25416,0.07614 -0.32951,0.09631 l -0.45207,0.121058 c -0.0301,0.008 -0.0582,0.0237 -0.10346,0.0358 -0.39933,0.10694 -0.66345,0.26649 -0.79585,0.49574 -0.0607,0.10508 -0.0404,0.30151 0.0629,0.59684 0.13588,0.20586 0.41545,0.40553 0.83117,0.60105 0.0171,0.004 0.0437,0.0125 0.0819,0.0346 -0.02,0.0457 -0.0688,0.0749 -0.13859,0.0856 l -0.14315,0.0383 c -0.20343,0.0545 -0.40242,0.0351 -0.60248,-0.0486 -0.0266,-0.009 -0.0553,-0.0256 -0.0915,-0.0401 -0.22871,-0.10024 -0.39258,-0.16941 -0.50318,-0.22054 -0.60219,-0.25862 -1.01833,-0.36521 -1.2519,-0.30266 -0.111,0.0378 -0.21891,0.14745 -0.32171,0.33648 0.0132,0.10952 0.0374,0.19993 0.0576,0.27527 0.10278,0.26318 0.33364,0.49205 0.69259,0.68662 0.69018,0.31581 1.43232,0.34316 2.22291,0.0991 0.0281,-0.0156 0.0583,-0.0237 0.0884,-0.0317 0.21958,0.006 0.43067,0.0704 0.63127,0.18624 l 0.086,0.0496 c 0.0573,0.0331 0.12216,0.0642 0.17947,0.0973 0.10508,0.0607 0.21769,0.11935 0.34536,0.17398 l 0.2185,-0.0585 -0.0464,-0.17329 c -0.19253,-0.0857 -0.36245,-0.17748 -0.51529,-0.26575 -0.10709,-0.0682 -0.20611,-0.1063 -0.29356,-0.13133 -0.0171,-0.003 -0.0342,-0.007 -0.0513,-0.0105 -0.0171,-0.004 -0.0342,-0.007 -0.0417,-0.005 l -0.0222,-0.0829 c 0.26169,-0.0781 0.50831,-0.15227 0.74941,-0.21684 0.1336,-0.0439 0.23909,-0.0721 0.3069,-0.0903 0.19388,-0.06 0.34457,-0.10035 0.45005,-0.1286 l 0.0754,-0.0202 0.0678,-0.0182 0.13562,-0.0363 c 0.0432,-0.0196 0.0809,-0.0297 0.12607,-0.0418 0.0753,-0.0202 0.14113,-0.0459 0.20141,-0.062 0.0221,-0.0382 0.023,-0.095 0.007,-0.15526 z m -3.50945,0.58453 0.0101,0.0377 c -0.54141,0.20959 -0.92217,0.2954 -1.14026,0.26498 -0.14477,-0.0581 -0.2559,-0.14142 -0.3389,-0.24031 l 0.1289,-0.21217 c 0.32345,-0.11891 0.56307,-0.15886 0.71685,-0.12737 0.0955,0.0552 0.18701,0.0953 0.27648,0.12783 0.099,0.0381 0.21715,0.0872 0.34684,0.14937 z"
           id="path99" />
      </g>
    </g>
  </g>
</svg>
