<?xml version="1.0" encoding="UTF-8" standalone="no"?>
<!-- Created with Inkscape (http://www.inkscape.org/) -->

<svg
   width="210mm"
   height="297mm"
   viewBox="0 0 210 297"
   version="1.1"
   id="svg5"
   xmlns="http://www.w3.org/2000/svg"
   xmlns:svg="http://www.w3.org/2000/svg">
  <defs
     id="defs2" />
  <g
     id="layer1">
    <path
       style="fill:none;stroke:#000000;stroke-width:0.264583;stroke-linejoin:round;stroke-opacity:1"
       d="m 29.797807,42.949547 c 0,0 74.991163,-18.828174 72.756043,31.439386"
       id="bezier1" />
    <path
       style="fill:none;stroke:#000000;stroke-width:0.264583;stroke-linejoin:round;stroke-opacity:1"
       d="m 63.760824,127.71718 c 77.822436,4.75267 49.543666,27.63829 77.822436,4.75267"
       id="bezier2" />
    <path
       style="fill:none;stroke:#000000;stroke-width:0.264583;stroke-linejoin:round;stroke-opacity:1"
       d="M 146.60358,43.585668 C 134.2047,160.11828 176.34287,29.100275 177.59716,136.91749"
       id="bezier3" />
    <g
       aria-label="test text is da"
       id="text1054"
       style="font-size:7.7611px;font-family:font6;-inkscape-font-specification:font6;text-align:center;text-anchor:middle;stroke-width:0.264583;stroke-linejoin:round">
      <path
         d="m 54.11811,39.125931 q 0.155031,-0.0077 0.316659,-0.03903 0.161243,-0.03909 0.260474,-0.0751 l 0.02579,0.519354 q -0.105828,0.05965 -0.305829,0.100662 -0.199616,0.04876 -0.385653,0.058 -0.325566,0.01616 -0.610009,-0.0785 -0.277078,-0.102803 -0.461467,-0.373392 -0.184389,-0.270589 -0.209405,-0.77444 l -0.120076,-2.418484 -0.589118,0.02925 -0.01616,-0.325565 0.5834,-0.300939 0.22743,-0.897147 0.403081,-0.02001 0.04734,0.953441 1.20149,-0.05965 0.02617,0.527106 -1.20149,0.05965 0.119306,2.402981 q 0.01886,0.379826 0.206381,0.557012 0.194889,0.169049 0.481696,0.154809 z"
         id="path19" />
      <path
         d="m 57.080691,35.276834 q 0.535424,-0.0099 0.919972,0.215803 0.392307,0.225594 0.60198,0.648638 0.217288,0.41514 0.227798,0.981603 l 0.0076,0.411267 -2.847833,0.05284 q 0.02862,0.70585 0.376962,1.071984 0.355956,0.35823 0.976737,0.346712 0.395748,-0.0073 0.697083,-0.0828 0.308951,-0.08336 0.632269,-0.22908 l 0.01109,0.597502 q -0.315559,0.145579 -0.624798,0.213416 -0.309095,0.0756 -0.735882,0.08352 -0.589742,0.01094 -1.052031,-0.221116 -0.45453,-0.232202 -0.719385,-0.700796 -0.257239,-0.476498 -0.270052,-1.167117 -0.01267,-0.68286 0.203292,-1.1759 0.223723,-0.493185 0.630095,-0.764647 0.414132,-0.271607 0.965075,-0.281829 z m 0.0026,0.558847 q -0.488865,0.0091 -0.770074,0.332548 -0.273592,0.315573 -0.317544,0.875284 l 2.118416,-0.03931 q -0.01755,-0.52752 -0.26415,-0.848966 -0.246744,-0.329207 -0.766648,-0.31956 z"
         id="path21" />
      <path
         d="m 62.661425,38.397597 q -0.01211,0.605245 -0.46837,0.906624 -0.456262,0.30138 -1.216698,0.286168 -0.434535,-0.0087 -0.751279,-0.08489 -0.308985,-0.07605 -0.547047,-0.205009 l 0.01242,-0.620764 q 0.245822,0.12912 0.592829,0.244738 0.354921,0.108014 0.71962,0.11531 0.519889,0.0104 0.755935,-0.147895 0.236202,-0.166053 0.24179,-0.445397 0.0031,-0.155191 -0.07977,-0.281051 -0.08287,-0.12586 -0.305415,-0.254514 -0.214784,-0.128499 -0.622936,-0.291917 -0.400392,-0.163262 -0.684391,-0.324196 -0.283999,-0.160934 -0.434843,-0.381306 -0.150845,-0.220372 -0.144016,-0.561792 0.01056,-0.527649 0.443073,-0.806215 0.440278,-0.278411 1.138638,-0.264441 0.380217,0.0076 0.704566,0.09172 0.332264,0.07651 0.616728,0.214166 l -0.243652,0.538512 q -0.261651,-0.113912 -0.547202,-0.19725 -0.285551,-0.08334 -0.588174,-0.08939 -0.419015,-0.0084 -0.646836,0.126788 -0.219906,0.127567 -0.224563,0.360353 -0.0034,0.17071 0.09498,0.296881 0.09855,0.118411 0.329004,0.23946 0.238373,0.113446 0.631006,0.276553 0.392787,0.155348 0.669027,0.316127 0.276239,0.160778 0.419169,0.388754 0.143085,0.220217 0.136411,0.553877 z"
         id="path23" />
      <path
         d="m 65.060017,39.190709 q 0.154991,0.0085 0.319001,-0.0059 0.164433,-0.02211 0.26687,-0.04761 l -0.02835,0.51922 q -0.111456,0.04832 -0.314636,0.06832 -0.203604,0.02775 -0.389594,0.0176 -0.325481,-0.01777 -0.598543,-0.141493 -0.264888,-0.13105 -0.420148,-0.419342 -0.155261,-0.288291 -0.127762,-0.792013 l 0.131995,-2.417863 -0.588966,-0.03215 0.01777,-0.325482 0.611523,-0.238659 0.319464,-0.868643 0.402977,0.022 -0.05204,0.953196 1.201182,0.06558 -0.02877,0.52697 -1.201181,-0.06557 -0.131149,2.402363 q -0.02073,0.379729 0.147356,0.575449 0.176259,0.188393 0.462993,0.204046 z"
         id="path25" />
      <path
         d="m 69.887414,39.629537 q 0.154232,0.0175 0.318801,0.01275 0.165445,-0.01247 0.269196,-0.03193 l -0.05864,0.516676 q -0.114089,0.04173 -0.318091,0.04982 -0.204878,0.0158 -0.389956,-0.0052 -0.323887,-0.03676 -0.589251,-0.176229 -0.256778,-0.146306 -0.394925,-0.443179 -0.138147,-0.296872 -0.08126,-0.798125 l 0.273067,-2.406017 -0.586081,-0.06652 0.03676,-0.323887 0.624425,-0.202514 0.36968,-0.848489 0.401003,0.04551 -0.107652,0.948526 1.195297,0.135658 -0.05951,0.524388 -1.195297,-0.135658 -0.271318,2.390594 q -0.04288,0.377868 0.113476,0.583076 0.164949,0.198372 0.450277,0.230755 z"
         id="path27" />
      <path
         d="m 73.507564,36.357768 q 0.528445,0.08674 0.866004,0.378096 0.345218,0.292614 0.475201,0.746522 0.138899,0.447507 0.04713,1.006586 l -0.06663,0.405906 -2.810711,-0.461355 q -0.09908,0.699448 0.177559,1.122374 0.285554,0.416524 0.898243,0.517092 0.390589,0.06411 0.700589,0.04421 0.318916,-0.0263 0.663205,-0.111359 l -0.0968,0.589714 q -0.336631,0.08631 -0.653033,0.0973 -0.317658,0.01864 -0.738882,-0.0505 -0.582055,-0.09554 -0.994943,-0.407126 -0.405229,-0.310329 -0.58128,-0.818988 -0.167136,-0.515062 -0.05525,-1.196678 0.110625,-0.673958 0.411922,-1.119995 0.308955,-0.44478 0.757603,-0.638546 0.456307,-0.19251 1.000068,-0.103256 z m -0.09817,0.550163 q -0.482493,-0.0792 -0.817403,0.188293 -0.325994,0.261089 -0.470115,0.80371 l 2.090801,0.343188 q 0.07783,-0.522043 -0.106794,-0.882675 -0.183362,-0.36829 -0.696489,-0.452516 z"
         id="path29" />
      <path
         d="m 76.841785,39.158866 -0.932623,-2.30792 0.755534,0.177525 0.684037,1.771162 1.393682,-1.282969 0.747978,0.175749 -1.862852,1.651078 0.986873,2.416337 -0.755534,-0.177525 -0.723177,-1.876029 -1.498093,1.354106 -0.747979,-0.175749 z"
         id="path31" />
      <path
         d="m 80.847324,41.947226 q 0.14845,0.04535 0.311125,0.0707 0.164942,0.01793 0.270504,0.01771 l -0.151915,0.497308 q -0.119787,0.02021 -0.321842,-0.009 -0.204322,-0.02184 -0.382462,-0.07626 -0.311745,-0.09523 -0.547212,-0.280772 -0.225777,-0.190696 -0.307446,-0.507789 -0.08167,-0.317093 0.06571,-0.799556 l 0.707426,-2.315822 -0.564111,-0.172322 0.09523,-0.311745 0.650891,-0.0852 0.518271,-0.766807 0.38597,0.117904 -0.278889,0.912969 1.150489,0.351445 -0.154183,0.504731 -1.150489,-0.351446 -0.702891,2.300977 q -0.111102,0.363703 0.0052,0.593993 0.12599,0.225135 0.400623,0.309029 z"
         id="path33" />
      <path
         d="m 86.459646,38.436214 q 0.143202,0.05989 0.20868,0.205052 0.07563,0.140995 -0.01121,0.348638 -0.08385,0.200482 -0.240335,0.25281 -0.149326,0.05532 -0.292528,-0.0046 -0.157522,-0.06588 -0.222999,-0.211041 -0.06548,-0.14516 0.01837,-0.345643 0.08684,-0.207643 0.233174,-0.255806 0.149326,-0.05532 0.306848,0.01056 z m -0.294028,1.567948 -1.605101,3.837816 -0.630089,-0.263524 1.605101,-3.837816 z"
         id="path35" />
      <path
         d="m 88.707778,44.572486 q -0.275151,0.539222 -0.817213,0.611147 -0.542063,0.07192 -1.219546,-0.273777 -0.387134,-0.197544 -0.638823,-0.404393 -0.244775,-0.20332 -0.40264,-0.423285 l 0.282205,-0.553047 q 0.164778,0.223491 0.426482,0.479015 0.272144,0.252139 0.59706,0.417935 0.463177,0.236347 0.744649,0.196999 0.284999,-0.04626 0.411992,-0.295132 0.07055,-0.138262 0.05095,-0.287675 -0.0196,-0.149413 -0.163641,-0.362322 -0.137126,-0.209382 -0.432969,-0.534605 -0.288929,-0.321696 -0.474162,-0.590478 -0.185234,-0.268782 -0.224724,-0.5329 -0.03949,-0.264118 0.115723,-0.568294 0.239875,-0.470091 0.750616,-0.531859 0.517653,-0.05824 1.139832,0.259241 0.338742,0.172851 0.593816,0.390139 0.265515,0.213904 0.461331,0.461947 l -0.454323,0.378089 q -0.185659,-0.21672 -0.406168,-0.416371 -0.220509,-0.199652 -0.49012,-0.337227 -0.373307,-0.190489 -0.637283,-0.168352 -0.253535,0.01875 -0.359363,0.226143 -0.07761,0.152088 -0.04418,0.308556 0.03696,0.149555 0.191436,0.359079 0.16492,0.206138 0.446937,0.524306 0.285544,0.311255 0.463864,0.576509 0.17832,0.265255 0.207369,0.532758 0.03258,0.260591 -0.119108,0.557854 z"
         id="path37" />
      <path
         d="m 91.873111,48.166825 q -0.608839,-0.481313 -0.642035,-1.1902 -0.02838,-0.714975 0.635828,-1.555172 0.664212,-0.840197 1.366435,-0.977596 0.713124,-0.138674 1.321962,0.342639 0.37748,0.298414 0.504225,0.626159 0.132833,0.332559 0.126209,0.653804 l 0.03653,0.02888 q 0.05648,-0.08396 0.158545,-0.250611 0.112965,-0.167924 0.185162,-0.25925 l 1.03001,-1.302914 0.535778,0.423556 -3.657981,4.627172 -0.432275,-0.341733 0.267396,-0.500934 -0.02435,-0.01925 q -0.309768,0.09149 -0.668818,0.04509 -0.359051,-0.0464 -0.742619,-0.349631 z m 0.436596,-0.377068 q 0.517513,0.409116 0.945922,0.292697 0.43931,-0.117695 0.891745,-0.690003 l 0.07701,-0.09741 q 0.481313,-0.608838 0.535493,-1.090356 0.05899,-0.487606 -0.482874,-0.915975 -0.432275,-0.341732 -0.925806,-0.167967 -0.482629,0.17249 -0.939876,0.750886 -0.462061,0.584485 -0.504064,1.075629 -0.03591,0.495957 0.40245,0.842503 z"
         id="path39" />
      <path
         d="m 98.630516,48.579622 q 0.509772,0.56447 0.506579,1.05886 -0.0032,0.494391 -0.544623,0.983356 l -2.102362,1.898641 -0.332912,-0.368633 0.349322,-0.493252 -0.02081,-0.02304 q -0.435497,0.02728 -0.759323,-0.08812 -0.318625,-0.109639 -0.672344,-0.501312 -0.379729,-0.420473 -0.410537,-0.894614 -0.02505,-0.479344 0.447263,-0.905888 0.460792,-0.41614 1.036178,-0.276943 0.581146,0.133996 1.285616,0.867736 l 0.490639,0.508545 0.184317,-0.166456 q 0.385913,-0.348518 0.384819,-0.650801 -0.0011,-0.302282 -0.276787,-0.607557 -0.218473,-0.241915 -0.491019,-0.393169 -0.266785,-0.156454 -0.530602,-0.263303 l 0.239706,-0.498833 q 0.2915,0.102763 0.616062,0.311615 0.330323,0.20365 0.600815,0.503165 z m -1.512085,1.63746 q -0.543215,-0.555183 -0.907361,-0.634169 -0.358943,-0.07323 -0.652698,0.192062 -0.259195,0.234079 -0.239706,0.498833 0.02469,0.270514 0.248367,0.51819 0.35372,0.391673 0.800915,0.458403 0.452955,0.06153 0.902227,-0.344208 l 0.276475,-0.249685 z"
         id="path41" />
    </g>
    <g
       aria-label="hier is a word"
       id="text1058"
       style="font-size:7.7611px;font-family:font6;-inkscape-font-specification:font6;text-align:center;text-anchor:middle;stroke-width:0.264583;stroke-linejoin:round">
      <path
         d="m 82.683775,125.23813 q -0.03971,0.3079 -0.112944,0.57234 l 0.04618,0.006 q 0.240834,-0.28978 0.600365,-0.40775 0.367229,-0.11697 0.767491,-0.0653 0.754339,0.0973 1.08485,0.50771 0.331502,0.40272 0.229248,1.19555 l -0.346472,2.68637 -0.669669,-0.0864 0.340516,-2.64019 q 0.128066,-0.99296 -0.795616,-1.11209 -0.69276,-0.0893 -1.005101,0.26947 -0.30365,0.3521 -0.396969,1.07565 l -0.274994,2.13217 -0.677367,-0.0874 0.754497,-5.84998 0.677366,0.0874 z"
         id="path44" />
      <path
         d="m 87.395273,124.30776 q 0.153616,0.0223 0.253238,0.14651 0.108416,0.11767 0.07612,0.34041 -0.03118,0.21506 -0.169662,0.30478 -0.130802,0.0908 -0.284418,0.0686 -0.168978,-0.0245 -0.2686,-0.14873 -0.09962,-0.12424 -0.06844,-0.3393 0.03229,-0.22274 0.161982,-0.30589 0.130802,-0.0908 0.299779,-0.0663 z m 0.106446,1.59173 -0.596876,4.1169 -0.67591,-0.098 0.596876,-4.11691 z"
         id="path46" />
      <path
         d="m 90.472376,126.27964 q 0.528627,0.0856 0.866804,0.37626 0.345839,0.29188 0.476786,0.74551 0.13985,0.44721 0.04927,1.00648 l -0.06576,0.40605 -2.811685,-0.45538 q -0.09759,0.69965 0.179943,1.12199 0.286438,0.41592 0.899339,0.51518 0.390725,0.0633 0.700682,0.0427 0.318859,-0.027 0.662967,-0.11277 l -0.09554,0.58992 q -0.336447,0.087 -0.652824,0.0987 -0.317618,0.0193 -0.738988,-0.0489 -0.582256,-0.0943 -0.995805,-0.40501 -0.405888,-0.30946 -0.583019,-0.81775 -0.168229,-0.5147 -0.05779,-1.19656 0.109193,-0.67419 0.409542,-1.12086 0.30801,-0.44544 0.756245,-0.64016 0.455897,-0.19348 0.999847,-0.10538 z m -0.097,0.55037 q -0.48266,-0.0782 -0.817001,0.19003 -0.325439,0.26178 -0.468407,0.80471 l 2.091526,0.33875 q 0.07671,-0.52221 -0.10867,-0.88245 -0.184143,-0.3679 -0.697448,-0.45104 z"
         id="path48" />
      <path
         d="m 95.205281,127.11028 q 0.114482,0.0211 0.241411,0.0603 0.135969,0.033 0.23096,0.0742 l -0.19808,0.6027 q -0.09499,-0.0412 -0.214287,-0.079 -0.111664,-0.0364 -0.218514,-0.0561 -0.312918,-0.0578 -0.620081,0.067 -0.305754,0.11719 -0.531429,0.39911 -0.216633,0.2757 -0.292718,0.68783 l -0.402965,2.18279 -0.671627,-0.12399 0.755207,-4.09082 0.549514,0.10144 -0.06176,0.76204 0.03053,0.006 q 0.260431,-0.29918 0.618435,-0.48564 0.358005,-0.18646 0.785404,-0.10756 z"
         id="path50" />
      <path
         d="m 99.208637,126.41614 q 0.151686,0.0329 0.242386,0.16384 0.09993,0.12495 0.05216,0.3449 -0.04613,0.21235 -0.190537,0.29218 -0.136826,0.0815 -0.288511,0.0485 -0.166854,-0.0362 -0.257555,-0.16713 -0.0907,-0.13089 -0.04457,-0.34325 0.04777,-0.21995 0.182953,-0.29383 0.136827,-0.0815 0.30368,-0.0452 z m -0.005,1.59527 -0.882983,4.06516 -0.667414,-0.14496 0.882983,-4.06516 z"
         id="path52" />
      <path
         d="m 102.51134,131.8788 q -0.14186,0.58851 -0.65222,0.78483 -0.51035,0.19631 -1.24976,0.0181 -0.42252,-0.10185 -0.7155,-0.24432 -0.285432,-0.14065 -0.490227,-0.31775 l 0.145496,-0.6036 q 0.21234,0.17892 0.526401,0.36639 0.32343,0.18174 0.67804,0.26722 0.50552,0.12186 0.77006,0.018 0.26636,-0.11143 0.33184,-0.38305 0.0364,-0.1509 -0.0175,-0.29162 -0.0539,-0.14073 -0.2436,-0.31419 -0.18216,-0.17164 -0.54567,-0.41893 -0.35596,-0.24548 -0.59875,-0.46367 -0.2428,-0.21819 -0.34277,-0.46583 -0.1,-0.24763 -0.02,-0.57961 0.12368,-0.51306 0.60594,-0.6922 0.48982,-0.17731 1.16886,-0.0136 0.36971,0.0891 0.66841,0.24095 0.30807,0.14611 0.55632,0.34167 l -0.35366,0.47359 q -0.23107,-0.16747 -0.49205,-0.31021 -0.26098,-0.14274 -0.55523,-0.21367 -0.40743,-0.0982 -0.65897,-0.0151 -0.24218,0.0773 -0.29674,0.30369 -0.04,0.16599 0.029,0.31035 0.0708,0.13682 0.26988,0.30455 0.20843,0.16201 0.55685,0.40567 0.35024,0.23611 0.58549,0.45248 0.23524,0.21637 0.32585,0.46973 0.0924,0.24582 0.0142,0.57025 z"
         id="path54" />
      <path
         d="m 107.9012,130.1902 q 0.72781,0.22087 0.97995,0.64615 0.25215,0.42527 0.0403,1.12337 l -0.82262,2.71073 -0.4753,-0.14424 0.045,-0.60274 -0.0297,-0.009 q -0.3591,0.24789 -0.69606,0.31595 -0.32955,0.0703 -0.83456,-0.0829 -0.54214,-0.16453 -0.81298,-0.55492 -0.26859,-0.39782 -0.0838,-1.00681 0.1803,-0.59413 0.74509,-0.77149 0.56705,-0.18479 1.54896,0.0808 l 0.68258,0.18281 0.0721,-0.23765 q 0.151,-0.49759 -0.006,-0.75604 -0.15678,-0.25845 -0.55039,-0.3779 -0.31192,-0.0947 -0.62343,-0.0838 -0.30926,0.003 -0.5904,0.0479 l -0.0518,-0.55102 q 0.30275,-0.0622 0.68853,-0.0506 0.38803,0.004 0.77422,0.1214 z m -0.45148,2.18263 q -0.75168,-0.19567 -1.10443,-0.0756 -0.34531,0.1223 -0.46026,0.50106 -0.10141,0.3342 0.0518,0.55101 0.16061,0.21907 0.47996,0.31598 0.50501,0.15325 0.9226,-0.0201 0.41984,-0.1808 0.59564,-0.76008 l 0.10818,-0.35648 z"
         id="path56" />
      <path
         d="m 114.61281,134.56422 q 0.0275,-0.33269 0.0707,-0.64217 0.0533,-0.31371 0.0822,-0.4864 l -0.0287,-0.0118 q -0.0936,0.14616 -0.27607,0.40682 -0.17957,0.25349 -0.40387,0.51377 l -1.57641,1.87813 -0.71796,-0.29473 0.52437,-4.28157 0.65335,0.26821 -0.31165,2.27149 q -0.0478,0.34115 -0.10565,0.68653 -0.0579,0.34538 -0.11464,0.56538 l 0.0287,0.0118 q 0.0788,-0.11027 0.18841,-0.27502 0.11676,-0.16181 0.2466,-0.33503 0.13278,-0.1804 0.24788,-0.31772 l 1.57217,-1.88826 0.68925,0.28294 -0.22957,2.43942 q -0.0212,0.27653 -0.0673,0.59319 -0.0389,0.31961 -0.0957,0.53961 l 0.0287,0.0118 q 0.0952,-0.17065 0.2967,-0.45708 0.20867,-0.28349 0.4304,-0.57838 l 1.38142,-1.83234 0.64617,0.26526 -2.64956,3.40915 -0.7395,-0.30357 z"
         id="path58" />
      <path
         d="m 121.02083,137.91169 q -0.47143,0.91828 -1.19969,1.18127 -0.72134,0.26654 -1.51535,-0.14109 -0.49021,-0.25167 -0.76343,-0.67111 -0.26277,-0.42279 -0.26395,-0.96429 0.002,-0.5484 0.31784,-1.1629 0.47143,-0.91828 1.18924,-1.17791 0.7178,-0.25963 1.5118,0.148 0.50402,0.25876 0.76679,0.68155 0.27322,0.41944 0.2675,0.9574 0.005,0.53459 -0.31075,1.14908 z m -2.79628,-1.43556 q -0.33674,0.65592 -0.27977,1.17371 0.0674,0.51444 0.63357,0.8051 0.55926,0.28711 1.01658,0.0421 0.46086,-0.25195 0.7976,-0.90787 0.33673,-0.65591 0.26578,-1.16345 -0.071,-0.50753 -0.63712,-0.79818 -0.56616,-0.29066 -1.01303,-0.049 -0.44687,0.24169 -0.78361,0.8976 z"
         id="path60" />
      <path
         d="m 124.74398,137.54428 q 0.10211,0.0559 0.21037,0.13291 0.1188,0.0739 0.1961,0.1428 l -0.37685,0.51037 q -0.0773,-0.0689 -0.17876,-0.14215 -0.0947,-0.0695 -0.18995,-0.12173 -0.27909,-0.15286 -0.60989,-0.13051 -0.32707,0.0155 -0.62968,0.21262 -0.29207,0.19399 -0.49339,0.56157 l -1.06624,1.94681 -0.59902,-0.32807 1.99827,-3.64858 0.4901,0.26843 -0.29728,0.70437 0.0272,0.0149 q 0.34102,-0.20258 0.73941,-0.26755 0.39839,-0.065 0.77958,0.1438 z"
         id="path62" />
      <path
         d="m 125.04046,142.37149 q -0.76317,-0.14111 -1.12372,-0.75236 -0.35913,-0.61888 -0.16441,-1.67207 0.19472,-1.05318 0.7514,-1.50274 0.56572,-0.45578 1.3289,-0.31468 0.47317,0.0875 0.73835,0.31805 0.27282,0.23197 0.41705,0.51909 l 0.0458,0.008 q 0.0107,-0.10063 0.0231,-0.29565 0.0214,-0.20125 0.0426,-0.31573 l 0.30196,-1.63319 0.67159,0.12417 -1.07238,5.80013 -0.54185,-0.10018 0.002,-0.56783 -0.0305,-0.006 q -0.23114,0.22562 -0.57027,0.35234 -0.33914,0.12672 -0.81994,0.0378 z m 0.20985,-0.53737 q 0.6487,0.11994 0.97309,-0.18315 0.33343,-0.3093 0.46607,-1.02669 l 0.0226,-0.12211 q 0.14111,-0.76317 -0.036,-1.21422 -0.17565,-0.45868 -0.85488,-0.58426 -0.54185,-0.10018 -0.89702,0.28403 -0.34613,0.37799 -0.48018,1.10301 -0.13546,0.73265 0.0569,1.18652 0.19996,0.45528 0.74944,0.55687 z"
         id="path64" />
    </g>
    <g
       aria-label="vocabulary"
       id="text1062"
       style="font-size:7.7611px;font-family:font6;-inkscape-font-specification:font6;text-align:center;text-anchor:middle;stroke-width:0.264583;stroke-linejoin:round">
      <path
         d="m 144.72718,86.03491 3.9388,-2.06718 0.0883,0.724185 -2.32746,1.174958 q -0.16198,0.08229 -0.36154,0.176976 -0.19956,0.09469 -0.38559,0.172088 -0.17833,0.07646 -0.30648,0.115536 l 0.004,0.03082 q 0.13473,0.01485 0.3339,0.04531 0.20012,0.03816 0.41658,0.08215 0.2174,0.05169 0.38576,0.0859 l 2.54153,0.581576 0.0883,0.724185 -4.32093,-1.068388 z"
         id="path67" />
      <path
         d="m 148.09136,91.952704 q -0.99265,0.283065 -1.68222,-0.06909 -0.68744,-0.344693 -0.93219,-1.203004 -0.15111,-0.529914 -0.0315,-1.01598 0.12924,-0.480731 0.52387,-0.85152 0.4021,-0.372918 1.06636,-0.562338 0.99266,-0.283065 1.67263,0.06376 0.67997,0.346821 0.92473,1.205133 0.15537,0.544841 0.0261,1.025571 -0.11965,0.486067 -0.51642,0.849393 -0.38717,0.368661 -1.05143,0.55808 z m -0.86196,-3.022748 q -0.70904,0.202189 -1.04826,0.597527 -0.32962,0.400672 -0.1551,1.012686 0.1724,0.604549 0.66377,0.771108 0.49884,0.164431 1.20787,-0.03776 0.70904,-0.202189 1.0312,-0.600734 0.32216,-0.398545 0.14764,-1.010558 -0.17452,-0.612013 -0.6563,-0.773237 -0.48178,-0.161224 -1.19082,0.04097 z"
         id="path69" />
      <path
         d="m 147.57317,94.856894 q -0.36905,-0.409193 -0.49301,-0.88268 -0.11875,-0.467722 0.0665,-0.969225 0.19043,-0.49574 0.73794,-0.98955 0.57056,-0.514602 1.09942,-0.646689 0.52886,-0.132088 0.98708,0.03991 0.46342,0.177766 0.83768,0.592722 0.21312,0.236295 0.35877,0.502082 0.15142,0.260589 0.20701,0.461284 l -0.56106,0.223845 q -0.0729,-0.185101 -0.19312,-0.41111 -0.12023,-0.226009 -0.26577,-0.387381 -0.82128,-0.9106 -1.99123,0.144594 -0.55904,0.504206 -0.66121,0.993507 -0.0912,0.489866 0.30385,0.927876 0.22871,0.253584 0.45211,0.396991 0.2286,0.14917 0.44907,0.242968 l -0.44954,0.405444 q -0.22103,-0.08284 -0.43291,-0.23664 -0.21244,-0.142841 -0.45155,-0.407952 z"
         id="path71" />
      <path
         d="m 150.74726,91.650739 q 0.75952,-0.04033 1.14147,0.273589 0.38196,0.313917 0.42064,1.042434 l 0.1502,2.828817 -0.49601,0.02634 -0.16303,-0.582019 -0.031,0.0016 q -0.25315,0.355411 -0.54677,0.534214 -0.28586,0.178391 -0.81287,0.206374 -0.56577,0.03004 -0.95341,-0.244715 -0.38806,-0.282505 -0.4218,-0.91802 -0.0329,-0.620014 0.43764,-0.979197 0.47016,-0.366933 1.48379,-0.451841 l 0.70403,-0.0607 -0.0132,-0.248006 q -0.0276,-0.519262 -0.26303,-0.708833 -0.23545,-0.189571 -0.64621,-0.167761 -0.32551,0.01728 -0.61467,0.133673 -0.28956,0.108639 -0.53874,0.246222 l -0.23641,-0.500401 q 0.26344,-0.161657 0.6301,-0.282162 0.36624,-0.128255 0.76925,-0.149653 z m 0.3192,2.205853 q -0.77337,0.07215 -1.06411,0.305206 -0.28298,0.232642 -0.262,0.627901 0.0185,0.348759 0.23642,0.500402 0.22565,0.151231 0.5589,0.133536 0.52702,-0.02798 0.86055,-0.333257 0.33312,-0.313025 0.30102,-0.917539 l -0.0197,-0.372009 z"
         id="path73" />
      <path
         d="m 152.37074,90.816956 q 0.11211,0.23888 0.19697,0.45625 0.0886,0.207047 0.1306,0.333082 l 0.0351,-0.01649 q 0.0495,-0.314716 0.25469,-0.608201 0.20519,-0.293485 0.64782,-0.501212 0.70259,-0.329726 1.35495,-0.03575 0.65609,0.283652 1.11111,1.253222 0.45502,0.969569 0.25725,1.662512 -0.19777,0.692943 -0.89333,1.019372 -0.44263,0.207727 -0.7995,0.178022 -0.35687,-0.02971 -0.62398,-0.178695 l -0.0492,0.02308 0.0977,0.53711 -0.44263,0.207727 -2.50592,-5.339657 0.61828,-0.290159 z m 1.40053,0.225779 q -0.5972,0.280266 -0.66749,0.733343 -0.0703,0.453077 0.26933,1.176741 l 0.0132,0.0281 q 0.32643,0.69556 0.72601,0.962419 0.40331,0.256535 1.02158,-0.03362 0.50587,-0.237402 0.57702,-0.725177 0.0782,-0.491072 -0.25155,-1.193659 -0.66934,-1.42625 -1.68809,-0.948148 z"
         id="path75" />
      <path
         d="m 159.33068,87.757417 1.73585,3.780475 -0.50782,0.233175 -0.32163,-0.458671 -0.0282,0.01295 q -0.0474,0.380433 -0.30704,0.670468 -0.26291,0.282982 -0.62967,0.451386 -0.68415,0.314137 -1.17873,0.148382 -0.49781,-0.172809 -0.82815,-0.892228 l -1.13672,-2.475647 0.62773,-0.288229 1.11729,2.433328 q 0.41453,0.9028 1.25386,0.517415 0.62772,-0.28823 0.7056,-0.750996 0.0849,-0.466005 -0.21949,-1.128999 L 158.71,88.042408 Z"
         id="path77" />
      <path
         d="m 162.97814,90.935314 -0.65757,0.184556 -1.59389,-5.679001 0.65757,-0.184556 z"
         id="path79" />
      <path
         d="m 166.22718,86.439287 q 0.75749,0.06852 1.09071,0.433757 0.33322,0.365234 0.2675,1.091811 l -0.25522,2.821281 -0.49469,-0.04475 -0.0783,-0.599332 -0.0309,-0.0028 q -0.3013,0.315627 -0.61744,0.450677 -0.3084,0.13575 -0.83401,0.0882 -0.56426,-0.05104 -0.9087,-0.378329 -0.34375,-0.335015 -0.28642,-0.968837 0.0559,-0.618363 0.57297,-0.906682 0.51773,-0.296048 1.53309,-0.235368 l 0.70549,0.04044 0.0224,-0.247345 q 0.0469,-0.517879 -0.15912,-0.739125 -0.20598,-0.221245 -0.61565,-0.258304 -0.32464,-0.02937 -0.62745,0.04455 -0.30211,0.06618 -0.56838,0.166782 l -0.16254,-0.529029 q 0.28382,-0.122388 0.66392,-0.189309 0.38081,-0.07465 0.78275,-0.03829 z m 9.9e-4,2.228827 q -0.77576,-0.039 -1.09679,0.150153 -0.3133,0.189857 -0.34896,0.584063 -0.0315,0.34783 0.16255,0.529029 0.20175,0.181898 0.53412,0.211965 0.5256,0.04755 0.8993,-0.20698 0.3744,-0.262258 0.42894,-0.865162 l 0.0336,-0.371017 z"
         id="path81" />
      <path
         d="m 172.63858,89.290153 q 0.0918,0.07157 0.18634,0.164922 0.10541,0.092 0.17067,0.172393 l -0.4538,0.44334 q -0.0653,-0.08039 -0.15366,-0.168972 -0.0823,-0.08381 -0.16797,-0.150609 -0.25098,-0.19562 -0.58108,-0.226596 -0.32533,-0.0371 -0.65562,0.108909 -0.3194,0.144655 -0.57705,0.475204 l -1.36457,1.750684 -0.53867,-0.419869 2.55738,-3.281002 0.44073,0.343529 -0.40637,0.647597 0.0245,0.01909 q 0.36909,-0.145284 0.77274,-0.145544 0.40365,-2.6e-4 0.74644,0.266929 z"
         id="path83" />
      <path
         d="m 174.04539,90.873273 0.38435,0.620093 -1.53771,2.012287 q -0.20254,0.262501 -0.39755,0.492945 -0.18842,0.226356 -0.38158,0.400864 l 0.0164,0.02639 q 0.18945,-0.06264 0.50648,-0.14043 0.32362,-0.08188 0.65133,-0.157165 l 2.45107,-0.523935 0.38844,0.62669 -4.96851,0.970288 q -0.61584,0.126037 -1.09668,0.01318 -0.47676,-0.106262 -0.79568,-0.620807 -0.0981,-0.158322 -0.15194,-0.289329 -0.0604,-0.126919 -0.0938,-0.224943 l 0.46177,-0.286212 q 0.0318,0.08074 0.0799,0.18787 0.0522,0.113725 0.12173,0.22587 0.18808,0.303449 0.47408,0.381851 0.29009,0.085 0.63917,0.01473 l 0.58285,-0.105592 z"
         id="path85" />
    </g>
  </g>
</svg>
