<?xml version="1.0" encoding="UTF-8"?>
<!-- Generator: visioncortex VTracer 0.6.4 -->
<svg version="1.1" xmlns="http://www.w3.org/2000/svg" width="73" height="64">
<path d="M0 0 C3.76732635 2.37054221 5.41009152 5.72934334 6.5 9.9375 C6.96207358 14.20588657 7.05615249 18.45932476 7.125 22.75 C7.17585296 25.00660009 7.23035049 27.26312196 7.2890625 29.51953125 C7.30662598 30.51186768 7.32418945 31.5042041 7.34228516 32.52661133 C7.34424662 34.94922086 7.34424662 34.94922086 8.5 36.9375 C11.14 37.5975 13.78 38.2575 16.5 38.9375 C16.5 40.2575 16.5 41.5775 16.5 42.9375 C11.66772611 45.35363695 4.71713187 44.64760238 -0.29296875 43.04296875 C-2.41888634 42.08647483 -4.47151116 41.08492803 -6.5 39.9375 C-7.180625 40.411875 -7.86125 40.88625 -8.5625 41.375 C-12.14189587 43.27893397 -14.42651439 43.9375 -18.5 43.9375 C-22.78625034 42.08249295 -27.56065577 39.30102453 -29.5 34.9375 C-30.01583893 31.82488103 -30.08456258 29.04403255 -29.5 25.9375 C-27.4375 23.125 -27.4375 23.125 -24.5 20.9375 C-23.72076172 20.33228516 -23.72076172 20.33228516 -22.92578125 19.71484375 C-18.57431915 16.7225796 -15.35963564 16.72053245 -10.22265625 17.578125 C-9.65417969 17.69671875 -9.08570312 17.8153125 -8.5 17.9375 C-8.47303635 16.14591511 -8.45362083 14.35421527 -8.4375 12.5625 C-8.42589844 11.56476562 -8.41429688 10.56703125 -8.40234375 9.5390625 C-8.31993398 6.95317547 -8.31993398 6.95317547 -9.5 4.9375 C-10.49 4.6075 -11.48 4.2775 -12.5 3.9375 C-12.45875 5.175 -12.4175 6.4125 -12.375 7.6875 C-12.2638784 11.02114791 -12.84123921 13.0379339 -14.5 15.9375 C-16.10379341 15.99166188 -17.70811406 16.03036638 -19.3125 16.0625 C-20.20582031 16.08570312 -21.09914063 16.10890625 -22.01953125 16.1328125 C-24.5 15.9375 -24.5 15.9375 -27.5 13.9375 C-28.11714286 5.91464286 -28.11714286 5.91464286 -26 2.5625 C-18.23119369 -2.4872241 -8.47051407 -4.71795177 0 0 Z M-13.5 22.9375 C-14.81157516 25.56065032 -14.39649988 27.16783436 -14.0625 30.0625 C-13.96066406 30.97257812 -13.85882813 31.88265625 -13.75390625 32.8203125 C-13.67011719 33.51898438 -13.58632813 34.21765625 -13.5 34.9375 C-12.51 34.9375 -11.52 34.9375 -10.5 34.9375 C-9.51 33.2875 -8.52 31.6375 -7.5 29.9375 C-8.6678266 26.12336998 -8.6678266 26.12336998 -11.625 23.625 C-12.24375 23.398125 -12.8625 23.17125 -13.5 22.9375 Z " fill="#000000" transform="translate(42.5,10.0625)"/>
</svg>
