<?xml version="1.0" encoding="UTF-8"?>
<!-- Generator: visioncortex VTracer 0.6.4 -->
<svg version="1.1" xmlns="http://www.w3.org/2000/svg" width="74" height="85">
<path d="M0 0 C6.6 0 13.2 0 20 0 C22.48057628 2.48057628 22.29019005 3.36192464 22.4140625 6.7890625 C22.45273437 7.73007812 22.49140625 8.67109375 22.53125 9.640625 C22.5621875 10.62546875 22.593125 11.6103125 22.625 12.625 C22.66367187 13.61757813 22.70234375 14.61015625 22.7421875 15.6328125 C22.8366314 18.08835385 22.92219875 20.5438841 23 23 C23.60328125 22.51789062 24.2065625 22.03578125 24.828125 21.5390625 C27 20 27 20 29.75 19.375 C34.63891018 20.31517504 37.8751811 23.18546882 41 27 C44.11821798 34.16184258 44.19740902 42.91302074 42.41796875 50.47265625 C39.9409309 56.16192582 35.27963708 60.85314314 30 64 C25.1314109 65.32088142 21.14741386 65.0896268 16.62890625 62.796875 C10.7320621 58.33907722 9.10896168 53.09182452 8 46 C7.54362594 39.28141035 7.71558915 32.54079479 7.8125 25.8125 C7.82757625 23.983735 7.84125944 22.15495795 7.85351562 20.32617188 C7.8862834 15.8838128 7.93790249 11.44204193 8 7 C5.36 6.01 2.72 5.02 0 4 C0 2.68 0 1.36 0 0 Z M26 28 C21.7697547 34.06948238 21.84895379 40.47693991 21.8125 47.6875 C21.79832031 48.97011719 21.78414062 50.25273438 21.76953125 51.57421875 C21.98107402 54.71867654 22.32786596 56.38935595 24 59 C24.99 58.67 25.98 58.34 27 58 C28.438086 53.05384487 28.18419782 48.11177146 28.1875 43 C28.19974609 42.00226562 28.21199219 41.00453125 28.22460938 39.9765625 C28.22654297 39.01492187 28.22847656 38.05328125 28.23046875 37.0625 C28.23457764 36.18722656 28.23868652 35.31195313 28.24291992 34.41015625 C27.98407795 31.84202763 27.29503365 30.2121754 26 28 Z " fill="#000000" transform="translate(15,9)"/>
</svg>
