<?xml version="1.0" encoding="UTF-8"?>
<!-- Generator: visioncortex VTracer 0.6.4 -->
<svg version="1.1" xmlns="http://www.w3.org/2000/svg" width="52" height="57">
<path d="M0 0 C0.99 0.33 1.98 0.66 3 1 C4.98 1 6.96 1 9 1 C9 5.95 9 10.9 9 16 C7.35 16 5.7 16 4 16 C3.29423828 14.95199219 3.29423828 14.95199219 2.57421875 13.8828125 C1.95160156 12.97273438 1.32898438 12.06265625 0.6875 11.125 C0.07261719 10.22007813 -0.54226562 9.31515625 -1.17578125 8.3828125 C-2.94913949 5.80028615 -2.94913949 5.80028615 -6 4 C-8.55631225 14.79786294 -7.0314786 26.24404635 -5 37 C-3.515 37.495 -3.515 37.495 -2 38 C2.52048157 34.86077669 4.51545911 31.78504172 7 27 C8.32 27 9.64 27 11 27 C11.55816668 29.85285194 11.72695742 31.22877975 11 34 C4.68122633 43.00789538 4.68122633 43.00789538 -0.05859375 44.76171875 C-8.51640185 45.79979982 -8.51640185 45.79979982 -11.8984375 43.9765625 C-17.51356311 39.53840645 -21.66191657 33.07272671 -23 26 C-23.68409755 18.26443541 -23.11916035 11.90398135 -18.18359375 5.7265625 C-12.53322521 -0.03499398 -7.92054523 -1.25949654 0 0 Z " fill="#000000" transform="translate(30,5)"/>
</svg>
