<?xml version="1.0" encoding="UTF-8"?>
<!-- Generator: visioncortex VTracer 0.6.4 -->
<svg version="1.1" xmlns="http://www.w3.org/2000/svg" width="62" height="94">
<path d="M0 0 C7.26 0 14.52 0 22 0 C23.60160004 1.60160004 23.22181112 3.35445565 23.31640625 5.57421875 C23.35822021 6.54166016 23.40003418 7.50910156 23.44311523 8.50585938 C23.50221069 10.08077148 23.50221069 10.08077148 23.5625 11.6875 C23.60640869 12.75935547 23.65031738 13.83121094 23.69555664 14.93554688 C24.00519393 23.19092535 24.06637689 31.43100215 23.87524414 39.69018555 C23.79100561 45.78150262 24.22299056 51.44598113 27 57 C28.98 57.66 30.96 58.32 33 59 C33 60.32 33 61.64 33 63 C29.87150741 64.56424629 26.55569916 64.18446398 23.125 64.1875 C22.40441406 64.19974609 21.68382812 64.21199219 20.94140625 64.22460938 C17.13512088 64.23512398 14.22486888 64.13584248 11 62 C10.29875 62.495 9.5975 62.99 8.875 63.5 C5.36779048 65.32984844 3.90169037 65.76503733 0 65 C-6.67886967 60.69555738 -9.56906006 56.07333251 -11.6875 48.5625 C-12.75226004 39.8314677 -11.77964282 31.9314527 -6.26953125 24.7421875 C-2.6987698 21.22131693 -0.08220631 19.5945139 5 19.5625 C6.33671384 19.67314017 7.67275437 19.80644335 9 20 C9.02694851 18.04174127 9.04637218 16.08337774 9.0625 14.125 C9.07990234 12.48917969 9.07990234 12.48917969 9.09765625 10.8203125 C9.19744303 8.04822454 9.19744303 8.04822454 8 6 C5.36 5.67 2.72 5.34 0 5 C0 3.35 0 1.7 0 0 Z M4 26 C3.39434571 36.33938394 2.81384698 46.6374817 3 57 C3.99 57.33 4.98 57.66 6 58 C10.16232659 48.22758104 10.93560821 39.31754697 8 29 C7.34 28.01 6.68 27.02 6 26 C5.34 26 4.68 26 4 26 Z " fill="#000000" transform="translate(26,12)"/>
</svg>
