<?xml version="1.0" encoding="UTF-8"?>
<!-- Generator: visioncortex VTracer 0.6.4 -->
<svg version="1.1" xmlns="http://www.w3.org/2000/svg" width="43" height="52">
<path d="M0 0 C4.37365226 1.72171759 6.32514598 5.25491225 8.375 9.3125 C10.16583304 13.72298137 10.34316731 17.28144947 10 22 C9.505 22.495 9.505 22.495 9 23 C2.73 23 -3.54 23 -10 23 C-9.855625 24.918125 -9.71125 26.83625 -9.5625 28.8125 C-9.44068359 30.43091797 -9.44068359 30.43091797 -9.31640625 32.08203125 C-9.09787539 35.05989905 -9.09787539 35.05989905 -8 38 C-4.1295842 37.73610801 -2.46948077 37.49556303 0.25 34.625 C0.8275 33.75875 1.405 32.8925 2 32 C2.66 31.01 3.32 30.02 4 29 C5.32 29 6.64 29 8 29 C8.57782373 32.30184991 8.46909647 34.31905351 6.546875 37.109375 C0.01201458 44.6327017 0.01201458 44.6327017 -4.41796875 45.44140625 C-9.72873828 45.67361197 -13.24299503 45.46125504 -17.4375 42 C-23.14458051 36.24614015 -26.11598776 29.39018737 -26.3125 21.3125 C-26.20813923 13.43800541 -23.94650647 8.72119043 -18.625 3 C-13.11905378 -1.51239201 -6.74445643 -1.13771777 0 0 Z M-9 4 C-11.20914 7.31371 -11.22481553 8.3446021 -11.125 12.1875 C-11.10695313 13.08855469 -11.08890625 13.98960938 -11.0703125 14.91796875 C-11.04710937 15.60503906 -11.02390625 16.29210938 -11 17 C-8.03 17.495 -8.03 17.495 -5 18 C-3.79422572 13.05632546 -4.3709322 9.79137588 -6 5 C-6.99 4.67 -7.98 4.34 -9 4 Z " fill="#000000" transform="translate(30,5)"/>
</svg>
