<?xml version="1.0" encoding="UTF-8"?>
<!-- Generator: visioncortex VTracer 0.6.4 -->
<svg version="1.1" xmlns="http://www.w3.org/2000/svg" width="52" height="80">
<path d="M0 0 C0 3.96 0 7.92 0 12 C-4.422832 15.317124 -5.71910976 15.30466674 -11 15 C-14 12 -14 12 -14.0625 8.625 C-14 5 -14 5 -13 3 C-13.99 2.67 -14.98 2.34 -16 2 C-18.61281488 7.87883349 -18.18328202 13.70731728 -18 20 C-15.69 20 -13.38 20 -11 20 C-10.67 21.65 -10.34 23.3 -10 25 C-12.31 25.33 -14.62 25.66 -17 26 C-17.05878077 29.64576392 -17.0938558 33.29140352 -17.125 36.9375 C-17.14175781 37.95908203 -17.15851562 38.98066406 -17.17578125 40.03320312 C-17.21618815 46.35688352 -16.62010013 51.88316527 -15 58 C-13.02 58.66 -11.04 59.32 -9 60 C-9 61.32 -9 62.64 -9 64 C-18.24 64 -27.48 64 -37 64 C-37.495 61.525 -37.495 61.525 -38 59 C-36.02 58.34 -34.04 57.68 -32 57 C-32 46.77 -32 36.54 -32 26 C-33.98 25.67 -35.96 25.34 -38 25 C-38 23.68 -38 22.36 -38 21 C-36.02 20.67 -34.04 20.34 -32 20 C-31.98582031 19.2265625 -31.97164062 18.453125 -31.95703125 17.65625 C-31.63478625 10.61911602 -30.87805243 5.3033867 -26 0 C-18.31585692 -5.8545852 -8.25681731 -3.24858386 0 0 Z " fill="#000000" transform="translate(47,9)"/>
</svg>
