<?xml version="1.0" encoding="UTF-8"?>
<!-- Generator: visioncortex VTracer 0.6.4 -->
<svg version="1.1" xmlns="http://www.w3.org/2000/svg" width="65" height="85">
<path d="M0 0 C4.92307692 4.30769231 4.92307692 4.30769231 5.3125 7.8125 C5 10 5 10 2.8125 12 C-0.29855465 14.21230553 -1.33489775 14.19711474 -5 14 C-4.16855469 14.44730469 -3.33710937 14.89460938 -2.48046875 15.35546875 C-1.39378906 15.96003906 -0.30710937 16.56460937 0.8125 17.1875 C1.89144531 17.77917969 2.97039063 18.37085937 4.08203125 18.98046875 C7.17371808 21.12023059 8.50667342 22.57691688 10 26 C10.4036222 30.28573395 9.54997818 33.99170667 7.5 37.75 C-0.0316429 44.52847861 -6.98841115 45.82978752 -17 46 C-17 46.66 -17 47.32 -17 48 C-15.28103516 47.89558594 -15.28103516 47.89558594 -13.52734375 47.7890625 C0.28037662 47.19949548 0.28037662 47.19949548 4.4375 50.75 C8.65274837 55.29833339 9.39729806 59.42057765 9.24609375 65.46875 C8.73597713 70.7156638 6.93096228 74.44274189 3 77.875 C-2.81036865 81.99067779 -9.09868978 81.74784516 -16 81 C-19.7631846 79.48340831 -23.14429116 77.71141767 -25 74 C-25.40253336 68.71089889 -25.55311917 63.78709845 -23 59 C-23.515625 58.175 -24.03125 57.35 -24.5625 56.5 C-26.46082859 51.87798256 -26.17081766 49.83937965 -25 45 C-22.9375 42.5 -22.9375 42.5 -21 41 C-21.804375 40.21625 -22.60875 39.4325 -23.4375 38.625 C-26.37446258 35.61640418 -26.9078369 34.94006362 -27.3125 30.8125 C-26.94725066 26.35645804 -25.99013237 23.29064819 -23 20 C-19.80236083 17.72456397 -16.4782323 15.81213248 -13 14 C-12.97421875 13.39671875 -12.9484375 12.7934375 -12.921875 12.171875 C-12.45452463 5.58648339 -12.45452463 5.58648339 -10.0625 2.5 C-6.53186179 -0.06773688 -4.33667428 -0.09427553 0 0 Z M-10 20 C-10.66 20.66 -11.32 21.32 -12 22 C-12 27.28 -12 32.56 -12 38 C-11.34 38.66 -10.68 39.32 -10 40 C-8.68 39.67 -7.36 39.34 -6 39 C-4.18356239 35.88610696 -3.7280962 33.59222291 -3.75 30 C-3.74484375 29.154375 -3.7396875 28.30875 -3.734375 27.4375 C-4.01468845 24.86521189 -4.7051813 23.2196892 -6 21 C-7.32 20.67 -8.64 20.34 -10 20 Z M-18 63 C-18.66 63.66 -19.32 64.32 -20 65 C-19.6655974 68.09322404 -19.4404882 69.58887768 -17.125 71.75 C-12.64724094 74.38397592 -8.0708182 74.810641 -3 74 C-0.5459908 72.57348246 0.99291752 71.05854613 3 69 C2.62095792 65.70924004 2.62095792 65.70924004 1 63 C-5.27 63 -11.54 63 -18 63 Z " fill="#000000" transform="translate(38,2)"/>
</svg>
