<?xml version="1.0" encoding="UTF-8"?>
<!-- Generator: visioncortex VTracer 0.6.4 -->
<svg version="1.1" xmlns="http://www.w3.org/2000/svg" width="58" height="75">
<path d="M0 0 C2.95839355 -0.02689449 5.91654427 -0.04678741 8.875 -0.0625 C9.71675781 -0.07087891 10.55851562 -0.07925781 11.42578125 -0.08789062 C12.23144531 -0.09111328 13.03710938 -0.09433594 13.8671875 -0.09765625 C14.98262939 -0.10551147 14.98262939 -0.10551147 16.12060547 -0.11352539 C18 0 18 0 20 1 C20.88639389 3.65918166 21.17989025 5.48064641 21.31640625 8.23046875 C21.35830078 9.03291016 21.40019531 9.83535156 21.44335938 10.66210938 C21.48267578 11.49548828 21.52199219 12.32886719 21.5625 13.1875 C21.60568359 14.03248047 21.64886719 14.87746094 21.69335938 15.74804688 C21.79931518 17.83184433 21.9001502 19.91590103 22 22 C22.59941406 21.66742187 23.19882812 21.33484375 23.81640625 20.9921875 C26.93818024 19.57370701 28.73737799 20.06782228 32 21 C35.82477618 23.49055193 38.12498642 25.84968904 40 30 C40.4632261 33.82792859 40.5119951 37.64719773 40.5625 41.5 C40.59708834 43.55224169 40.63977821 45.60436626 40.69140625 47.65625 C40.70373291 48.56181641 40.71605957 49.46738281 40.72875977 50.40039062 C41.02433697 53.23324941 41.82987447 55.41564508 43 58 C44.32 58.33 45.64 58.66 47 59 C47 60.65 47 62.3 47 64 C40.73 64 34.46 64 28 64 C26.02170928 62.02170928 26.74496068 58.17672973 26.68359375 55.46484375 C26.66281265 54.71159317 26.64203156 53.95834259 26.62062073 53.18226624 C26.55504575 50.7674401 26.49620379 48.35250202 26.4375 45.9375 C26.3943223 44.30402471 26.35070827 42.6705609 26.30664062 41.03710938 C26.19935638 37.02485536 26.09811179 33.01248836 26 29 C23.75601679 29.84859076 23.75601679 29.84859076 23.01171875 32.39453125 C21.74104082 36.92285455 21.74454907 41.01319136 21.8125 45.6875 C21.8134668 46.96850586 21.8134668 46.96850586 21.81445312 48.27539062 C21.83962213 51.83540686 21.86451548 54.59354645 23 58 C23.66 58.33 24.32 58.66 25 59 C25 60.65 25 62.3 25 64 C16.75 64 8.5 64 0 64 C0 62.68 0 61.36 0 60 C1.98 59.34 3.96 58.68 6 58 C8.55877129 53.15377594 8.18363518 48.60026287 8.01171875 43.28125 C7.97773735 41.87800476 7.97773735 41.87800476 7.94306946 40.44641113 C7.89321804 38.47276822 7.83827087 36.49924828 7.77856445 34.52587891 C7.68782899 31.51093175 7.61306958 28.49591448 7.54101562 25.48046875 C7.49052153 23.55987094 7.43911966 21.63929673 7.38671875 19.71875 C7.36373215 18.81966919 7.34074554 17.92058838 7.31706238 16.9942627 C7.18876557 12.89091817 7.00654208 9.00344493 6 5 C3.03 4.505 3.03 4.505 0 4 C0 2.68 0 1.36 0 0 Z " fill="#000000" transform="translate(7,5)"/>
</svg>
