<?xml version="1.0" encoding="UTF-8"?>
<!-- Generator: visioncortex VTracer 0.6.4 -->
<svg version="1.1" xmlns="http://www.w3.org/2000/svg" width="49" height="77">
<path d="M0 0 C1.33901367 0.07250977 1.33901367 0.07250977 2.70507812 0.14648438 C4.09823242 0.2305957 4.09823242 0.2305957 5.51953125 0.31640625 C6.93008789 0.3947168 6.93008789 0.3947168 8.36914062 0.47460938 C10.69044626 0.60422543 13.01131534 0.73918806 15.33203125 0.87890625 C15.33203125 2.19890625 15.33203125 3.51890625 15.33203125 4.87890625 C14.34203125 5.53890625 13.35203125 6.19890625 12.33203125 6.87890625 C11.43095074 13.02198686 11.17955792 18.98701158 11.20703125 25.19140625 C11.20316406 26.08408203 11.19929688 26.97675781 11.1953125 27.89648438 C11.19724609 29.18135742 11.19724609 29.18135742 11.19921875 30.4921875 C11.20034668 31.26344971 11.20147461 32.03471191 11.20263672 32.8293457 C11.25700267 35.08019616 11.25700267 35.08019616 12.33203125 37.87890625 C13.98203125 38.20890625 15.63203125 38.53890625 17.33203125 38.87890625 C17.33203125 40.52890625 17.33203125 42.17890625 17.33203125 43.87890625 C9.74203125 43.87890625 2.15203125 43.87890625 -5.66796875 43.87890625 C-4.66796875 38.87890625 -4.66796875 38.87890625 -3.66796875 37.87890625 C-3.66796875 27.31890625 -3.66796875 16.75890625 -3.66796875 5.87890625 C-4.98796875 5.54890625 -6.30796875 5.21890625 -7.66796875 4.87890625 C-7.66796875 3.55890625 -7.66796875 2.23890625 -7.66796875 0.87890625 C-4.68926498 -0.11399501 -3.0761399 -0.17633923 0 0 Z " fill="#000000" transform="translate(18.66796875,26.12109375)"/>
<path d="M0 0 C1.21236328 0.01353516 1.21236328 0.01353516 2.44921875 0.02734375 C3.37154297 0.04474609 3.37154297 0.04474609 4.3125 0.0625 C6.7419516 3.7066774 6.47429575 5.77491272 6.3125 10.0625 C5.3225 11.0525 4.3325 12.0425 3.3125 13.0625 C0.6725 13.0625 -1.9675 13.0625 -4.6875 13.0625 C-7.18255962 10.56744038 -7.04698376 9.38921112 -7.3125 5.9375 C-7.38726562 5.02742187 -7.46203125 4.11734375 -7.5390625 3.1796875 C-7.58804687 2.48101562 -7.63703125 1.78234375 -7.6875 1.0625 C-4.80538698 0.10179566 -2.98899956 -0.04331883 0 0 Z " fill="#000000" transform="translate(22.6875,4.9375)"/>
</svg>
