<?xml version="1.0" encoding="UTF-8"?>
<!-- Generator: visioncortex VTracer 0.6.4 -->
<svg version="1.1" xmlns="http://www.w3.org/2000/svg" width="89" height="114">
<path d="M0 0 C1.07314453 0.00322266 2.14628906 0.00644531 3.25195312 0.00976562 C4.37150391 0.01814453 5.49105469 0.02652344 6.64453125 0.03515625 C8.34125977 0.04192383 8.34125977 0.04192383 10.07226562 0.04882812 C12.86724052 0.06062127 15.66210945 0.07707975 18.45703125 0.09765625 C18.45703125 1.74765625 18.45703125 3.39765625 18.45703125 5.09765625 C16.80703125 5.42765625 15.15703125 5.75765625 13.45703125 6.09765625 C12.5376455 8.85581351 12.32374705 10.53534213 12.29931641 13.38208008 C12.28392319 14.67406059 12.28392319 14.67406059 12.26821899 15.99214172 C12.26091766 16.92028183 12.25361633 17.84842194 12.24609375 18.8046875 C12.2180227 20.77279474 12.18935822 22.74089359 12.16015625 24.70898438 C12.11892205 27.80964908 12.08203124 30.91015753 12.05566406 34.01098633 C12.02800088 37.00504865 11.98212732 39.99840035 11.93359375 42.9921875 C11.93034088 43.91425491 11.92708801 44.83632233 11.92373657 45.78633118 C11.81125398 51.69871011 11.13051697 56.32753851 6.8359375 60.77734375 C0.92963486 64.66407194 -4.60192904 65.11783654 -11.54296875 64.09765625 C-15.64780408 62.80405497 -18.02514631 60.82584405 -20.54296875 57.28515625 C-21.77244229 53.36620933 -21.63990625 51.04663123 -20.54296875 47.09765625 C-18.48046875 44.66015625 -18.48046875 44.66015625 -16.54296875 43.09765625 C-9.54296875 43.09765625 -9.54296875 43.09765625 -7.54296875 44.59765625 C-5.07140418 47.68711196 -5.08346594 49.35559824 -5.26953125 53.19140625 C-5.5958018 55.46597812 -6.26826424 57.18559949 -7.54296875 59.09765625 C-5.56296875 58.60265625 -5.56296875 58.60265625 -3.54296875 58.09765625 C-2.3319868 54.46471041 -2.39973227 51.13305479 -2.41015625 47.3515625 C-2.40919952 46.58520981 -2.4082428 45.81885712 -2.40725708 45.02928162 C-2.40657632 43.40273965 -2.40842334 41.77619496 -2.41259766 40.1496582 C-2.41788145 37.70061852 -2.41268375 35.25176784 -2.40625 32.80273438 C-2.40295762 24.18493213 -2.61067458 15.67624918 -3.54296875 7.09765625 C-5.19296875 6.43765625 -6.84296875 5.77765625 -8.54296875 5.09765625 C-8.54296875 3.77765625 -8.54296875 2.45765625 -8.54296875 1.09765625 C-5.42453625 0.05817875 -3.26821289 -0.01729213 0 0 Z " fill="#000000" transform="translate(40.54296875,40.90234375)"/>
<path d="M0 0 C3.3 0 6.6 0 10 0 C12 2 12 2 12.1953125 3.9453125 C12 10 12 10 8 14 C5.36 13.67 2.72 13.34 0 13 C-2.215015 9.6774775 -2.19410876 9.12268409 -1.6875 5.375 C-1.58824219 4.57835937 -1.48898438 3.78171875 -1.38671875 2.9609375 C-1 1 -1 1 0 0 Z " fill="#000000" transform="translate(40,20)"/>
</svg>
