<?xml version="1.0" encoding="UTF-8"?>
<!-- Generator: visioncortex VTracer 0.6.4 -->
<svg version="1.1" xmlns="http://www.w3.org/2000/svg" width="56" height="72">
<path d="M0 0 C6.6 0 13.2 0 20 0 C20.06058594 2.08441406 20.12117188 4.16882813 20.18359375 6.31640625 C20.24556094 8.35525503 20.30887453 10.39405791 20.37231445 12.43286133 C20.41538658 13.84004557 20.45707864 15.24727282 20.49731445 16.65454102 C20.5556957 18.68779408 20.61918685 20.72083617 20.68359375 22.75390625 C20.72025146 23.97408447 20.75690918 25.1942627 20.79467773 26.45141602 C21.00081086 30.01401411 21.44468315 33.47640588 22 37 C22.84158536 35.73461631 23.67299748 34.46246221 24.5 33.1875 C24.9640625 32.47980469 25.428125 31.77210937 25.90625 31.04296875 C27.23599375 28.94541876 27.23599375 28.94541876 27 26 C25.68 25.67 24.36 25.34 23 25 C23 23.68 23 22.36 23 21 C26.30994713 19.34502644 29.99123 19.89915665 33.625 19.9375 C34.42679688 19.94201172 35.22859375 19.94652344 36.0546875 19.95117188 C38.03649006 19.96296832 40.01825433 19.98090395 42 20 C42.495 22.475 42.495 22.475 43 25 C41.9275 25.53625 40.855 26.0725 39.75 26.625 C35.98282786 28.79954652 33.91401695 31.01246469 32 35 C32.29388484 40.44878382 34.58019573 44.59013705 37.1875 49.25 C37.56197266 49.96929687 37.93644531 50.68859375 38.32226562 51.4296875 C40.36953554 55.11684478 41.34286206 56.70448235 45.30078125 58.484375 C46.19152344 58.65453125 47.08226562 58.8246875 48 59 C48 60.65 48 62.3 48 64 C41.73 64 35.46 64 29 64 C28.34 63.34 27.68 62.68 27 62 C26.07058594 62.32742187 25.14117187 62.65484375 24.18359375 62.9921875 C19.180683 64.42159057 14.2248398 64.21674356 9.0625 64.125 C7.6074707 64.11146484 7.6074707 64.11146484 6.12304688 64.09765625 C3.74843593 64.07426107 1.37435224 64.04148176 -1 64 C-0.67 62.35 -0.34 60.7 0 59 C1.98 58.34 3.96 57.68 6 57 C9.11535133 47.65394602 8.04964536 36.95038828 7.703125 27.21533203 C7.62414579 24.97577785 7.55745362 22.73608554 7.4921875 20.49609375 C7.4367832 12.6554003 7.4367832 12.6554003 6 5 C3.03 4.505 3.03 4.505 0 4 C0 2.68 0 1.36 0 0 Z M21 50 C21 52.31 21 54.62 21 57 C23.475 57.99 23.475 57.99 26 59 C24.68 56.03 23.36 53.06 22 50 C21.67 50 21.34 50 21 50 Z " fill="#000000" transform="translate(8,4)"/>
</svg>
