<?xml version="1.0" encoding="UTF-8"?>
<!-- Generator: visioncortex VTracer 0.6.4 -->
<svg version="1.1" xmlns="http://www.w3.org/2000/svg" width="47" height="74">
<path d="M0 0 C2.93756119 -0.0269501 5.87487555 -0.04681474 8.8125 -0.0625 C9.64587891 -0.07087891 10.47925781 -0.07925781 11.33789062 -0.08789062 C12.14033203 -0.09111328 12.94277344 -0.09433594 13.76953125 -0.09765625 C14.87711792 -0.10551147 14.87711792 -0.10551147 16.00708008 -0.11352539 C18 0 18 0 21 1 C22.253541 3.507082 22.13807746 5.23904354 22.15771484 8.04467773 C22.16797699 9.09594345 22.17823914 10.14720917 22.18881226 11.23033142 C22.19611359 12.36990799 22.20341492 13.50948456 22.2109375 14.68359375 C22.23899954 17.07878295 22.26766396 19.47396516 22.296875 21.86914062 C22.33820833 25.65925959 22.37508147 29.44924702 22.40136719 33.23950195 C22.42888547 36.88780937 22.47475219 40.5355158 22.5234375 44.18359375 C22.52669037 45.32114609 22.52994324 46.45869843 22.53329468 47.63072205 C22.55814438 49.21234886 22.55814438 49.21234886 22.58349609 50.82592773 C22.59562637 52.21919533 22.59562637 52.21919533 22.60800171 53.64060974 C23.07222976 56.43474218 23.76842075 57.31028028 26 59 C28.10332891 59.71447643 28.10332891 59.71447643 30 60 C30 61.32 30 62.64 30 64 C20.33456945 65.1922117 10.71824449 65.09622024 1 65 C1 63.68 1 62.36 1 61 C3.97 60.505 3.97 60.505 7 60 C7.17439753 58.27159593 7.33889015 56.54219325 7.5 54.8125 C7.5928125 53.84957031 7.685625 52.88664062 7.78125 51.89453125 C8.36231929 41.54942267 7.96710443 31.16115907 7.625 20.8125 C7.5940625 19.60013672 7.563125 18.38777344 7.53125 17.13867188 C7.49257813 15.98560547 7.45390625 14.83253906 7.4140625 13.64453125 C7.3826416 12.60659424 7.3512207 11.56865723 7.31884766 10.49926758 C7.23727218 7.82931428 7.23727218 7.82931428 5 6 C3.35008418 5.29289322 1.68437744 4.62056011 0 4 C0 2.68 0 1.36 0 0 Z " fill="#000000" transform="translate(10,6)"/>
</svg>
