<?xml version="1.0" encoding="UTF-8"?>
<!-- Generator: visioncortex VTracer 0.6.4 -->
<svg version="1.1" xmlns="http://www.w3.org/2000/svg" width="81" height="55">
<path d="M0 0 C0.495 -0.495 0.99 -0.99 1.5 -1.5 C4.95624938 -3.57374963 8.11741097 -3.70660145 12 -3 C14.3014515 -1.87840655 15.98152129 -0.61478297 18 1 C18.66 0.34 19.32 -0.32 20 -1 C24.01858853 -3.67905902 26.25305716 -3.32182663 31 -3 C31.98169476 -1.87720538 32.96027298 -0.75168527 33.9375 0.375 C34.75541016 1.31472656 34.75541016 1.31472656 35.58984375 2.2734375 C38.19209772 5.45957671 38.15458113 7.72459801 38.24609375 11.77734375 C38.27896484 12.93041016 38.31183594 14.08347656 38.34570312 15.27148438 C38.40680092 17.71149621 38.46410521 20.15160604 38.51757812 22.59179688 C38.55173828 23.74615234 38.58589844 24.90050781 38.62109375 26.08984375 C38.6461499 27.15066162 38.67120605 28.21147949 38.69702148 29.30444336 C38.81634735 32.22100459 38.81634735 32.22100459 41 35 C42.65 35.33 44.3 35.66 46 36 C45.67 37.65 45.34 39.3 45 41 C39.62484067 41.02467759 34.24971415 41.04284928 28.87451172 41.05493164 C27.04507879 41.05996737 25.21564991 41.06679627 23.38623047 41.07543945 C20.76008102 41.08753824 18.13398468 41.09323583 15.5078125 41.09765625 C14.68693146 41.10281754 13.86605042 41.10797882 13.02029419 41.11329651 C7.22774341 41.11387171 7.22774341 41.11387171 5 40 C4.01 40.495 4.01 40.495 3 41 C1.2595583 41.08449628 -0.48409722 41.10723024 -2.2265625 41.09765625 C-3.2578125 41.09443359 -4.2890625 41.09121094 -5.3515625 41.08789062 C-6.97191406 41.07532227 -6.97191406 41.07532227 -8.625 41.0625 C-10.25695312 41.05573242 -10.25695312 41.05573242 -11.921875 41.04882812 C-14.61463789 41.03701776 -17.30729188 41.02054778 -20 41 C-20.33 39.35 -20.66 37.7 -21 36 C-19.02 35.34 -17.04 34.68 -15 34 C-13.68177636 29.38062877 -13.81594277 24.89667331 -13.8125 20.125 C-13.80025391 19.23941406 -13.78800781 18.35382812 -13.77539062 17.44140625 C-13.76445906 12.55135117 -14.0843623 8.58844444 -16 4 C-17.32 3.34 -18.64 2.68 -20 2 C-20 0.68 -20 -0.64 -20 -2 C-12.40227775 -3.24044445 -6.83077618 -3.99850313 0 0 Z M23 4 C18.63183941 9.50768074 18.78851516 14.10596103 18.75 20.875 C18.729375 21.77347656 18.70875 22.67195313 18.6875 23.59765625 C18.65810405 28.57292042 18.7708186 31.93802971 22 36 C22.66 36 23.32 36 24 36 C24.86027573 33.01893528 25.12852034 30.36034996 25.1328125 27.26171875 C25.13410156 26.35873047 25.13539062 25.45574219 25.13671875 24.52539062 C25.13285156 23.58888672 25.12898438 22.65238281 25.125 21.6875 C25.12886719 20.76259766 25.13273437 19.83769531 25.13671875 18.88476562 C25.12951212 13.81490426 24.86831688 8.99626779 24 4 C23.67 4 23.34 4 23 4 Z M4 5 C-0.07813723 11.205861 -0.14095932 16.61234874 -0.0625 23.8125 C-0.05798828 24.60076172 -0.05347656 25.38902344 -0.04882812 26.20117188 C-0.22840997 31.64856636 -0.22840997 31.64856636 4 36 C7.22389977 32.77610023 6.05633387 27.64177631 6.0703125 23.21142578 C6.06065269 17.09555594 5.74924074 11.07420169 5 5 C4.67 5 4.34 5 4 5 Z " fill="#000000" transform="translate(33,6)"/>
</svg>
