<?xml version="1.0" encoding="UTF-8"?>
<!-- Generator: visioncortex VTracer 0.6.4 -->
<svg version="1.1" xmlns="http://www.w3.org/2000/svg" width="63" height="59">
<path d="M0 0 C2.16796875 1.13671875 2.16796875 1.13671875 4.1875 2.6875 C4.86167969 3.18636719 5.53585938 3.68523438 6.23046875 4.19921875 C9.94993056 7.98436642 10.26849718 12.27548399 10.4140625 17.39453125 C10.47207031 19.19760742 10.47207031 19.19760742 10.53125 21.03710938 C10.5621875 22.28298828 10.593125 23.52886719 10.625 24.8125 C10.68300781 26.71032227 10.68300781 26.71032227 10.7421875 28.64648438 C10.83630657 31.76417851 10.92194361 34.88186914 11 38 C13.31 38.66 15.62 39.32 18 40 C17.67 41.65 17.34 43.3 17 45 C10.4 45 3.8 45 -3 45 C-5.0568946 42.9431054 -4.25747076 38.64444002 -4.31640625 35.80859375 C-4.33718735 34.98875504 -4.35796844 34.16891632 -4.37937927 33.32423401 C-4.44496494 30.69541099 -4.50380126 28.06648496 -4.5625 25.4375 C-4.60567667 23.65949439 -4.64929067 21.88149935 -4.69335938 20.10351562 C-4.80065543 15.73578366 -4.90189704 11.36794773 -5 7 C-7.19548568 7.84907325 -7.19548568 7.84907325 -8.09912109 10.17651367 C-9.092432 13.28969542 -9.31760147 15.91218302 -9.4140625 19.17578125 C-9.45273437 20.33271484 -9.49140625 21.48964844 -9.53125 22.68164062 C-9.57765625 24.47891602 -9.57765625 24.47891602 -9.625 26.3125 C-9.66367187 27.53001953 -9.70234375 28.74753906 -9.7421875 30.00195312 C-9.83628002 33.00115228 -9.92192209 36.00034823 -10 39 C-8.35 39.33 -6.7 39.66 -5 40 C-5 41.32 -5 42.64 -5 44 C-13.66996704 45.16711095 -22.27369392 45.09744014 -31 45 C-31.33 43.35 -31.66 41.7 -32 40 C-29.69 39.34 -27.38 38.68 -25 38 C-25 27.77 -25 17.54 -25 7 C-27.31 6.34 -29.62 5.68 -32 5 C-32 3.68 -32 2.36 -32 1 C-29.08327116 0.97299325 -26.16679323 0.95315763 -23.25 0.9375 C-22.425 0.92912109 -21.6 0.92074219 -20.75 0.91210938 C-19.95078125 0.90888672 -19.1515625 0.90566406 -18.328125 0.90234375 C-17.5949707 0.89710693 -16.86181641 0.89187012 -16.10644531 0.88647461 C-14 1 -14 1 -11.88183594 1.56469727 C-8.03780738 2.45389069 -4.26878876 -0.38457556 0 0 Z " fill="#000000" transform="translate(43,6)"/>
</svg>
