<?xml version="1.0" encoding="UTF-8"?>
<!-- Generator: visioncortex VTracer 0.6.4 -->
<svg version="1.1" xmlns="http://www.w3.org/2000/svg" width="65" height="61">
<path d="M0 0 C4.67516952 3.47033509 8.87416525 9.50403685 9.7734375 15.31640625 C10.38023593 24.03329902 10.70191148 32.69831849 4.79296875 39.64453125 C0.202653 44.29171817 -1.27461527 45.39061106 -7.8515625 45.62890625 C-15.87106513 45.62082207 -15.87106513 45.62082207 -18.8515625 43.19140625 C-26.41102979 34.04047216 -26.89710983 26.88639569 -26.2265625 15.31640625 C-25.10992555 9.57495797 -22.29767279 5.38751654 -18.2265625 1.31640625 C-12.40419158 -2.48079218 -6.40183561 -2.99814473 0 0 Z M-9.2265625 3.31640625 C-13.02455739 8.09646841 -12.64151681 12.68859956 -12.5390625 18.50390625 C-12.54228516 19.39916016 -12.54550781 20.29441406 -12.54882812 21.21679688 C-12.49932074 27.45022723 -11.65716078 33.25417437 -10.2265625 39.31640625 C-9.5665625 39.64640625 -8.9065625 39.97640625 -8.2265625 40.31640625 C-3.8702109 35.96005465 -5.18745059 31.27132673 -5.1640625 25.25390625 C-5.15568359 24.12017578 -5.14730469 22.98644531 -5.13867188 21.81835938 C-5.12231403 16.20761758 -5.20844153 10.83991294 -6.2265625 5.31640625 C-7.2165625 4.65640625 -8.2065625 3.99640625 -9.2265625 3.31640625 Z " fill="#000000" transform="translate(47.2265625,7.68359375)"/>
</svg>
