<?xml version="1.0" encoding="UTF-8"?>
<!-- Generator: visioncortex VTracer 0.6.4 -->
<svg version="1.1" xmlns="http://www.w3.org/2000/svg" width="63" height="79">
<path d="M0 0 C0.515625 -0.495 1.03125 -0.99 1.5625 -1.5 C4.95173093 -3.58568057 7.07532775 -3.47366734 11 -3 C16.41329482 -0.34642411 18.4317039 2.76828573 21 8 C23.53013466 15.59040398 22.56906229 24.97508551 20.2421875 32.54296875 C17.96845331 37.04038638 14.42674802 39.72619257 10 42 C6.58947399 42.49607651 5.03632717 42.51816358 2 41 C2 45.95 2 50.9 2 56 C4.64 56.33 7.28 56.66 10 57 C10 58.32 10 59.64 10 61 C7.23382437 62.38308781 4.98982 62.11210196 1.8984375 62.09765625 C0.68671875 62.09443359 -0.525 62.09121094 -1.7734375 62.08789062 C-3.04445313 62.07951172 -4.31546875 62.07113281 -5.625 62.0625 C-6.90375 62.05798828 -8.1825 62.05347656 -9.5 62.04882812 C-12.66671292 62.03701203 -15.83333356 62.02053815 -19 62 C-19.33 60.35 -19.66 58.7 -20 57 C-18.02 56.34 -16.04 55.68 -14 55 C-12.79050568 51.37151705 -12.83775687 48.03211653 -12.83203125 44.25390625 C-12.82870285 43.48755356 -12.82537445 42.72120087 -12.82194519 41.93162537 C-12.8168808 40.30509032 -12.81453671 38.67854488 -12.81469727 37.05200195 C-12.81253561 34.60284387 -12.79444477 32.15415501 -12.77539062 29.70507812 C-12.74491463 20.939044 -13.11907428 12.60963109 -15 4 C-16.98 3.34 -18.96 2.68 -21 2 C-21 0.68 -21 -0.64 -21 -2 C-13.93930436 -3.17678261 -6.18051233 -4.12034155 0 0 Z M5 3 C0.17307643 11.56389665 -0.7272882 18.12296259 1.33203125 27.73828125 C1.99886449 29.99615519 2.87964346 31.9341949 4 34 C4.99 33.67 5.98 33.34 7 33 C7 23.43 7 13.86 7 4 C6.34 3.67 5.68 3.34 5 3 Z " fill="#000000" transform="translate(35,8)"/>
</svg>
