<?xml version="1.0" encoding="UTF-8"?>
<!-- Generator: visioncortex VTracer 0.6.4 -->
<svg version="1.1" xmlns="http://www.w3.org/2000/svg" width="62" height="78">
<path d="M0 0 C0.99 0.66 1.98 1.32 3 2 C3.33 1.67 3.66 1.34 4 1 C10.27 1 16.54 1 23 1 C23 2.32 23 3.64 23 5 C21.02 5.33 19.04 5.66 17 6 C15.8096266 8.3807468 15.87317797 9.83775707 15.87060547 12.49389648 C15.86587723 13.89060829 15.86587723 13.89060829 15.86105347 15.3155365 C15.8630777 16.32387039 15.86510193 17.33220428 15.8671875 18.37109375 C15.86623077 19.40436295 15.86527405 20.43763214 15.86428833 21.50221252 C15.86360696 23.6903591 15.86545827 25.87850769 15.86962891 28.06665039 C15.87497232 31.4201308 15.86968524 34.77347693 15.86328125 38.12695312 C15.86394215 40.2500003 15.86522354 42.37304738 15.8671875 44.49609375 C15.86516327 45.50240341 15.86313904 46.50871307 15.86105347 47.54551697 C15.86420563 48.47981033 15.86735779 49.4141037 15.87060547 50.37670898 C15.87140106 51.19896469 15.87219666 52.0212204 15.87301636 52.86839294 C15.9187968 55.18847939 15.9187968 55.18847939 17 58 C19.31 58.66 21.62 59.32 24 60 C24 61.32 24 62.64 24 64 C14.1 64 4.2 64 -6 64 C-6 62.35 -6 60.7 -6 59 C-3.03 58.505 -3.03 58.505 0 58 C0.86147274 51.02238162 0.86147274 51.02238162 1 44 C-0.485 44.495 -0.485 44.495 -2 45 C-9.0286253 45.11912924 -9.0286253 45.11912924 -12.8125 41.8125 C-18.67452325 35.92968943 -19.85376045 29.10508968 -20.0859375 21 C-19.69410346 13.57577616 -17.65480179 7.31262234 -12.3125 2 C-8.13685372 -0.52114492 -4.77966098 -0.86489103 0 0 Z M-4 7 C-4.33 7.33 -4.66 7.66 -5 8 C-5 17.57 -5 27.14 -5 37 C-4.01 37 -3.02 37 -2 37 C1.65963819 29.37575377 2.84419015 20.4766859 0.09765625 12.3203125 C-1.05603044 9.91646514 -1.05603044 9.91646514 -3 7 C-3.33 7 -3.66 7 -4 7 Z " fill="#000000" transform="translate(29,7)"/>
</svg>
