<?xml version="1.0" encoding="UTF-8"?>
<!-- Generator: visioncortex VTracer 0.6.4 -->
<svg version="1.1" xmlns="http://www.w3.org/2000/svg" width="48" height="54">
<path d="M0 0 C1.42505859 0.02320313 1.42505859 0.02320313 2.87890625 0.046875 C5.4375 0.25 5.4375 0.25 8.4375 1.25 C11.09974904 5.31015239 11.03203757 9.55401483 10.4375 14.25 C8.9375 16.8125 8.9375 16.8125 7.4375 18.25 C6.179375 18.270625 4.92125 18.29125 3.625 18.3125 C2.91730469 18.32410156 2.20960937 18.33570312 1.48046875 18.34765625 C-0.5625 18.25 -0.5625 18.25 -3.5625 17.25 C-4.2225 14.28 -4.8825 11.31 -5.5625 8.25 C-8.62034895 14.36569789 -8.70116939 20.17798546 -8.6875 26.9375 C-8.69007812 28.22011719 -8.69265625 29.50273438 -8.6953125 30.82421875 C-8.59032791 33.53220371 -8.37845878 35.692034 -7.5625 38.25 C-4.0975 38.745 -4.0975 38.745 -0.5625 39.25 C-0.5625 40.9 -0.5625 42.55 -0.5625 44.25 C-10.71148301 45.39727634 -20.40956673 45.0403481 -30.5625 44.25 C-30.2325 42.6 -29.9025 40.95 -29.5625 39.25 C-27.5825 39.25 -25.6025 39.25 -23.5625 39.25 C-23.53343388 34.68751341 -23.51567887 30.1250507 -23.5 25.5625 C-23.48743164 23.62213867 -23.48743164 23.62213867 -23.47460938 21.64257812 C-23.47138672 20.39541016 -23.46816406 19.14824219 -23.46484375 17.86328125 C-23.45960693 16.71641846 -23.45437012 15.56955566 -23.44897461 14.38793945 C-23.55174193 11.54736223 -23.90933584 9.00956208 -24.5625 6.25 C-26.2125 5.92 -27.8625 5.59 -29.5625 5.25 C-29.5625 3.93 -29.5625 2.61 -29.5625 1.25 C-26.79140693 1.19607603 -24.02136182 1.15636545 -21.25 1.125 C-20.46431641 1.10824219 -19.67863281 1.09148438 -18.86914062 1.07421875 C-18.11181641 1.06777344 -17.35449219 1.06132813 -16.57421875 1.0546875 C-15.87772217 1.04421387 -15.18122559 1.03374023 -14.46362305 1.02294922 C-12.5625 1.25 -12.5625 1.25 -9.5625 3.25 C-9.01722656 2.76015625 -8.47195312 2.2703125 -7.91015625 1.765625 C-5.03591488 -0.08995844 -3.38918824 -0.09222281 0 0 Z " fill="#000000" transform="translate(33.5625,4.75)"/>
</svg>
