<?xml version="1.0" encoding="UTF-8"?>
<!-- Generator: visioncortex VTracer 0.6.4 -->
<svg version="1.1" xmlns="http://www.w3.org/2000/svg" width="45" height="57">
<path d="M0 0 C2.12071771 0.46642367 4.23323498 0.96986028 6.34375 1.48046875 C7.5109068 4.98193916 7.47732453 7.80716911 7.34375 11.48046875 C7.01375 12.14046875 6.68375 12.80046875 6.34375 13.48046875 C4.69375 13.48046875 3.04375 13.48046875 1.34375 13.48046875 C-0.96625 10.84046875 -3.27625 8.20046875 -5.65625 5.48046875 C-7.96625 5.81046875 -10.27625 6.14046875 -12.65625 6.48046875 C-9.96510226 12.52246192 -5.2711136 13.88639164 0.45117188 16.35351562 C5.27492726 18.56645252 7.91064029 20.53938442 10.34375 25.48046875 C11.18941778 30.28146456 10.98625873 34.89110504 9.15625 39.41796875 C6.17428048 42.81124441 2.85289605 46.28641609 -1.828125 46.6484375 C-6.93281956 46.68710943 -10.81928167 46.23936632 -15.65625 44.48046875 C-18.90669709 44.31248406 -18.90669709 44.31248406 -21.65625 44.48046875 C-21.98625 44.15046875 -22.31625 43.82046875 -22.65625 43.48046875 C-22.65625 38.86046875 -22.65625 34.24046875 -22.65625 29.48046875 C-21.00625 29.15046875 -19.35625 28.82046875 -17.65625 28.48046875 C-17.26953125 29.02316406 -16.8828125 29.56585938 -16.484375 30.125 C-15.96359375 30.84042969 -15.4428125 31.55585937 -14.90625 32.29296875 C-14.39578125 33.00066406 -13.8853125 33.70835938 -13.359375 34.4375 C-11.59319427 36.5561067 -10.0045486 38.03536192 -7.65625 39.48046875 C-3.98910151 39.73110607 -3.98910151 39.73110607 -0.65625 39.48046875 C-0.65625 37.83046875 -0.65625 36.18046875 -0.65625 34.48046875 C-1.81125 33.90296875 -2.96625 33.32546875 -4.15625 32.73046875 C-4.88457031 32.36179688 -5.61289062 31.993125 -6.36328125 31.61328125 C-7.82554107 30.8908701 -9.30144206 30.19502729 -10.79296875 29.53515625 C-15.35035357 27.4691418 -19.62836819 25.29553058 -21.65625 20.48046875 C-22.54326629 15.22608216 -22.99005169 9.96467439 -20.40625 5.15234375 C-14.14600497 -2.29734783 -9.02280133 -1.76475379 0 0 Z " fill="#000000" transform="translate(29.65625,7.51953125)"/>
</svg>
