<?xml version="1.0" encoding="UTF-8"?>
<!-- Generator: visioncortex VTracer 0.6.4 -->
<svg version="1.1" xmlns="http://www.w3.org/2000/svg" width="46" height="77">
<path d="M0 0 C1.65 0 3.3 0 5 0 C4.25 4.75 4.25 4.75 2 7 C2 10.63 2 14.26 2 18 C4.31 18.66 6.62 19.32 9 20 C9 21.32 9 22.64 9 24 C6.69 24.66 4.38 25.32 2 26 C1.97103178 30.43748635 1.95321212 34.87494847 1.9375 39.3125 C1.92912109 40.57513672 1.92074219 41.83777344 1.91210938 43.13867188 C1.90888672 44.34716797 1.90566406 45.55566406 1.90234375 46.80078125 C1.89710693 47.91622314 1.89187012 49.03166504 1.88647461 50.1809082 C1.87250746 53.08052062 1.87250746 53.08052062 3 56 C5.31 56.66 7.62 57.32 10 58 C10 59.65 10 61.3 10 63 C-3.12813575 64.84114099 -3.12813575 64.84114099 -9.51171875 61.30078125 C-12.38487412 58.78959821 -12.96672039 56.48366364 -13.22705078 52.70019531 C-13.21134033 50.78352051 -13.21134033 50.78352051 -13.1953125 48.828125 C-13.1924826 48.1457074 -13.18965271 47.46328979 -13.18673706 46.76019287 C-13.17558098 44.58994693 -13.15048557 42.42012029 -13.125 40.25 C-13.11496426 38.77474556 -13.10583944 37.29948463 -13.09765625 35.82421875 C-13.07565687 32.21601058 -13.04115883 28.60804625 -13 25 C-14.98 25 -16.96 25 -19 25 C-19 23.35 -19 21.7 -19 20 C-17.35 20 -15.7 20 -14 20 C-14.04125 18.865625 -14.0825 17.73125 -14.125 16.5625 C-13.38715678 10.08331426 -7.74276743 6.84118704 -3 3 C-1.98377826 2.01648926 -0.975481 1.02393204 0 0 Z " fill="#000000" transform="translate(29,8)"/>
</svg>
