<?xml version="1.0" encoding="UTF-8"?>
<!-- Generator: visioncortex VTracer 0.6.4 -->
<svg version="1.1" xmlns="http://www.w3.org/2000/svg" width="61" height="57">
<path d="M0 0 C6.6 0 13.2 0 20 0 C20.33 11.55 20.66 23.1 21 35 C27.20425694 28.79574306 26.3724126 19.27814655 26.625 10.9375 C26.66367187 9.88111328 26.70234375 8.82472656 26.7421875 7.73632812 C26.83552754 5.15780941 26.91880751 2.5789298 27 0 C33.6 0 40.2 0 47 0 C47 1.32 47 2.64 47 4 C45.02 4.99 43.04 5.98 41 7 C40.94165605 10.87493616 40.90628799 14.74975836 40.875 18.625 C40.85824219 19.71941406 40.84148438 20.81382813 40.82421875 21.94140625 C40.774671 29.65484273 40.774671 29.65484273 43 37 C45.97 37.495 45.97 37.495 49 38 C49 39.65 49 41.3 49 43 C46.08277452 43.08103404 43.16780484 43.14051081 40.25 43.1875 C39.0125 43.22520508 39.0125 43.22520508 37.75 43.26367188 C31.57702246 43.33834499 31.57702246 43.33834499 28.421875 41.48828125 C27.95265625 40.99714844 27.4834375 40.50601563 27 40 C26.319375 40.495 25.63875 40.99 24.9375 41.5 C21.21507425 43.40081315 19.14179773 43.57128245 15 43 C12.15157723 41.75705188 9.93235522 40.44731004 8 38 C5.69447357 31.34798933 5.76137411 24.98362228 5.875 18 C5.88402344 16.93910156 5.89304687 15.87820312 5.90234375 14.78515625 C5.92572476 12.18986362 5.95849444 9.59505535 6 7 C4.02 6.34 2.04 5.68 0 5 C0 3.35 0 1.7 0 0 Z " fill="#000000" transform="translate(9,8)"/>
</svg>
