<?xml version="1.0" encoding="UTF-8"?>
<!-- Generator: visioncortex VTracer 0.6.4 -->
<svg version="1.1" xmlns="http://www.w3.org/2000/svg" width="65" height="55">
<path d="M0 0 C8.58 0 17.16 0 26 0 C26 1.65 26 3.3 26 5 C25.34 5 24.68 5 24 5 C26.64 10.28 29.28 15.56 32 21 C35.10805283 13.89110314 35.10805283 13.89110314 34 7 C32.68 6.34 31.36 5.68 30 5 C30 3.35 30 1.7 30 0 C38.25 0 46.5 0 55 0 C54.67 1.65 54.34 3.3 54 5 C51.69 5.66 49.38 6.32 47 7 C41.97970606 16.58254422 41.97970606 16.58254422 38 26.625 C35.86534421 32.90725454 32.48846496 38.38513926 29 44 C27.35 44 25.7 44 24 44 C21.62209067 39.33563939 19.36197316 34.63785408 17.1875 29.875 C16.41599609 28.21791016 16.41599609 28.21791016 15.62890625 26.52734375 C14.50350203 24.09031735 13.41113967 21.65144229 12.33984375 19.19140625 C9.00007985 11.34297848 9.00007985 11.34297848 2.5625 6.125 C1.386875 5.75375 0.21125 5.3825 -1 5 C-0.67 3.35 -0.34 1.7 0 0 Z " fill="#000000" transform="translate(8,6)"/>
</svg>
