<?xml version="1.0" encoding="UTF-8"?>
<!-- Generator: visioncortex VTracer 0.6.4 -->
<svg version="1.1" xmlns="http://www.w3.org/2000/svg" width="78" height="52">
<path d="M0 0 C2.7708983 -0.02696009 5.5415345 -0.04681952 8.3125 -0.0625 C9.09818359 -0.07087891 9.88386719 -0.07925781 10.69335938 -0.08789062 C11.45068359 -0.09111328 12.20800781 -0.09433594 12.98828125 -0.09765625 C13.68477783 -0.10289307 14.38127441 -0.10812988 15.09887695 -0.11352539 C17 0 17 0 20 1 C20.33 0.67 20.66 0.34 21 0 C35.19 0 49.38 0 64 0 C64 1.65 64 3.3 64 5 C62.91976562 5.48855469 61.83953125 5.97710938 60.7265625 6.48046875 C56.14341747 9.11341291 54.99448334 12.45864642 53.375 17.3125 C53.08923096 18.10269531 52.80346191 18.89289062 52.5090332 19.70703125 C51.64235913 22.12877039 50.81426393 24.56018177 50 27 C49.74943848 27.75071777 49.49887695 28.50143555 49.24072266 29.27490234 C48.15040503 32.56209556 47.07765672 35.85089867 46.04296875 39.15625 C45 42 45 42 43 44 C41.35 43.67 39.7 43.34 38 43 C37.60167969 41.89591797 37.60167969 41.89591797 37.1953125 40.76953125 C36.84210937 39.79371094 36.48890625 38.81789062 36.125 37.8125 C35.77695312 36.84957031 35.42890625 35.88664062 35.0703125 34.89453125 C34.09009512 32.24365141 33.06279566 29.6186902 32 27 C29.8348583 31.94889531 27.86749751 36.93107817 26 42 C23.525 42.495 23.525 42.495 21 43 C18.49648042 37.62812632 16.08565343 32.22456997 13.76953125 26.76953125 C13.37564209 25.84229248 12.98175293 24.91505371 12.57592773 23.9597168 C11.7844395 22.09145701 10.99611275 20.22185424 10.21118164 18.35083008 C7.33682243 10.49654435 7.33682243 10.49654435 1.8125 4.6875 C1.214375 4.460625 0.61625 4.23375 0 4 C0 2.68 0 1.36 0 0 Z M21 5 C22.74807129 10.46737191 24.65794081 15.75824848 27 21 C29.17517521 20.19269273 29.17517521 20.19269273 29.75 18.0625 C30.12640381 13.45155331 28.05465028 10.04757287 26 6 C24.35 5.67 22.7 5.34 21 5 Z M40 5 C40.45363171 6.58468677 40.91311452 8.16769924 41.375 9.75 C41.63023438 10.63171875 41.88546875 11.5134375 42.1484375 12.421875 C42.9209934 14.76080572 43.83625676 16.83442562 45 19 C45.66 19 46.32 19 47 19 C47.43177893 12.73920552 46.92739438 9.90924297 43 5 C42.01 5 41.02 5 40 5 Z " fill="#000000" transform="translate(7,6)"/>
</svg>
