<?xml version="1.0" encoding="UTF-8"?>
<!-- Generator: visioncortex VTracer 0.6.4 -->
<svg version="1.1" xmlns="http://www.w3.org/2000/svg" width="68" height="58">
<path d="M0 0 C14.19 0 28.38 0 43 0 C43 1.65 43 3.3 43 5 C42.113125 5.226875 41.22625 5.45375 40.3125 5.6875 C35.13412032 7.73931082 32.14934267 11.52461831 29 16 C30.33343178 20.46032932 32.1123453 24.19627213 34.5 28.1875 C35.41265625 29.72470703 35.41265625 29.72470703 36.34375 31.29296875 C38.9458779 35.93569285 38.9458779 35.93569285 43.625 38.1875 C44.73875 38.455625 45.8525 38.72375 47 39 C46.67 40.65 46.34 42.3 46 44 C30.16 44 14.32 44 -2 44 C-2.33 42.35 -2.66 40.7 -3 39 C-2.3709375 38.82726563 -1.741875 38.65453125 -1.09375 38.4765625 C6.70973173 35.91457603 10.43181413 31.68639497 15 25 C13.95012419 22.76409734 12.88590013 20.53708287 11.8125 18.3125 C11.37454102 17.37374023 11.37454102 17.37374023 10.92773438 16.41601562 C8.86969985 12.18929957 6.62037372 9.1122511 3 6 C2.01 5.67 1.02 5.34 0 5 C0 3.35 0 1.7 0 0 Z M22 5 C22.66 6.65 23.32 8.3 24 10 C24.66 9.34 25.32 8.68 26 8 C25.34 7.01 24.68 6.02 24 5 C23.34 5 22.68 5 22 5 Z M18 31 C18.33 32.65 18.66 34.3 19 36 C20.32 36.66 21.64 37.32 23 38 C22.01 35.69 21.02 33.38 20 31 C19.34 31 18.68 31 18 31 Z " fill="#000000" transform="translate(14,6)"/>
</svg>
