<?xml version="1.0" encoding="UTF-8"?>
<!-- Generator: visioncortex VTracer 0.6.4 -->
<svg version="1.1" xmlns="http://www.w3.org/2000/svg" width="72" height="85">
<path d="M0 0 C1.41705986 -0.00472824 1.41705986 -0.00472824 2.86274719 -0.009552 C3.88668076 -0.00752777 4.91061432 -0.00550354 5.96557617 -0.00341797 C7.01629807 -0.00437469 8.06701996 -0.00533142 9.14958191 -0.00631714 C11.37641459 -0.00699865 13.60324925 -0.00514635 15.83007812 -0.00097656 C19.23401381 0.0043561 22.63781658 -0.00091427 26.04174805 -0.00732422 C28.20385771 -0.00666312 30.3659673 -0.0053813 32.52807617 -0.00341797 C33.54593704 -0.0054422 34.56379791 -0.00746643 35.61250305 -0.009552 C36.56666611 -0.00639984 37.52082916 -0.00324768 38.50390625 0 C39.33948563 0.00079559 40.175065 0.00159119 41.03596497 0.00241089 C43.58647117 0.13679339 45.95684535 0.57056102 48.44604492 1.12939453 C48.44604492 2.44939453 48.44604492 3.76939453 48.44604492 5.12939453 C47.70999023 5.31244141 46.97393555 5.49548828 46.21557617 5.68408203 C42.39904505 7.67578375 41.01634949 10.54802257 39.13354492 14.25439453 C38.75182129 14.98924072 38.37009766 15.72408691 37.97680664 16.48120117 C32.53413136 27.42383122 29.01787353 39.25875887 25.62255859 50.96972656 C25.36450439 51.85901855 25.1064502 52.74831055 24.84057617 53.66455078 C24.61732666 54.4535376 24.39407715 55.24252441 24.1640625 56.05541992 C22.89534181 59.72008577 20.92366587 62.2126926 17.64526367 64.24658203 C15.01485522 65.30248312 13.02020272 65.32871447 10.19604492 65.25439453 C9.30401367 65.23634766 8.41198242 65.21830078 7.49291992 65.19970703 C5.44604492 65.12939453 5.44604492 65.12939453 1.44604492 61.12939453 C1.44604492 57.82939453 1.44604492 54.52939453 1.44604492 51.12939453 C6.35207791 47.44986979 7.62114176 47.83814937 13.44604492 48.12939453 C14.76604492 50.10939453 16.08604492 52.08939453 17.44604492 54.12939453 C19.49379677 49.90590635 20.03941523 46.80218573 19.44604492 42.12939453 C18.12912661 39.12999196 16.63298476 36.269153 15.09057617 33.37939453 C13.45183391 30.140835 12.1807986 26.91504965 10.94604492 23.50439453 C8.75405861 17.58531748 5.90548757 12.39583127 2.44604492 7.12939453 C-0.19395508 6.79939453 -2.83395508 6.46939453 -5.55395508 6.12939453 C-5.88395508 4.47939453 -6.21395508 2.82939453 -6.55395508 1.12939453 C-4.15871339 -0.06822631 -2.67361124 0.00255296 0 0 Z M21.44604492 5.12939453 C21.11604492 5.78939453 20.78604492 6.44939453 20.44604492 7.12939453 C21.40065902 9.40185639 22.3595595 11.67234173 23.32104492 13.94189453 C23.59045898 14.58449219 23.85987305 15.22708984 24.13745117 15.88916016 C25.39300223 18.84429862 26.6588167 21.4485522 28.44604492 24.12939453 C31.46413735 17.32602042 31.46413735 17.32602042 30.44604492 10.12939453 C28.33080114 7.33425096 27.08900833 6.30474819 23.69604492 5.37939453 C22.95354492 5.29689453 22.21104492 5.21439453 21.44604492 5.12939453 Z " fill="#000000" transform="translate(15.553955078125,10.87060546875)"/>
</svg>
