<?xml version="1.0" encoding="UTF-8"?>
<!-- Generator: visioncortex VTracer 0.6.4 -->
<svg version="1.1" xmlns="http://www.w3.org/2000/svg" width="75" height="60">
<path d="M0 0 C1.06347656 0.0515625 2.12695312 0.103125 3.22265625 0.15625 C4.86427734 0.25292969 4.86427734 0.25292969 6.5390625 0.3515625 C8.21548828 0.43664063 8.21548828 0.43664063 9.92578125 0.5234375 C12.67257938 0.66429894 15.41837818 0.81565026 18.1640625 0.9765625 C19.47449032 4.5933433 19.14905281 6.01482492 17.71704102 9.6652832 C17.00668156 11.08489885 16.28103732 12.49693494 15.54296875 13.90234375 C15.16422104 14.64993454 14.78547333 15.39752533 14.39524841 16.16777039 C13.18535939 18.54843943 11.95634792 20.91862047 10.7265625 23.2890625 C9.90171366 24.90364302 9.07813061 26.51887087 8.25585938 28.13476562 C6.23985858 32.08968613 4.20665361 36.03531384 2.1640625 39.9765625 C5.98106934 37.50433743 8.91982787 35.46832626 11.5390625 31.7265625 C12.04179688 31.02015625 12.54453125 30.31375 13.0625 29.5859375 C13.42601563 29.05484375 13.78953125 28.52375 14.1640625 27.9765625 C15.8140625 28.3065625 17.4640625 28.6365625 19.1640625 28.9765625 C19.35847618 31.267653 19.54439385 33.55946587 19.7265625 35.8515625 C19.88318359 37.76582031 19.88318359 37.76582031 20.04296875 39.71875 C20.1640625 42.9765625 20.1640625 42.9765625 19.1640625 44.9765625 C8.2740625 44.9765625 -2.6159375 44.9765625 -13.8359375 44.9765625 C-14.8359375 43.9765625 -14.8359375 43.9765625 -15.09375 41.484375 C-14.75331347 36.85237498 -12.97688193 33.8362197 -10.7109375 29.8515625 C-9.88557514 28.35088883 -9.06136313 26.84958192 -8.23828125 25.34765625 C-7.83077637 24.61144043 -7.42327148 23.87522461 -7.00341797 23.11669922 C-4.47198726 18.47627229 -2.16660543 13.72015723 0.1640625 8.9765625 C-0.4959375 8.6465625 -1.1559375 8.3165625 -1.8359375 7.9765625 C-2.1040625 8.7396875 -2.3721875 9.5028125 -2.6484375 10.2890625 C-3.78017862 12.85037134 -4.74817151 14.17349188 -6.8359375 15.9765625 C-8.4859375 15.6465625 -10.1359375 15.3165625 -11.8359375 14.9765625 C-11.8359375 10.6865625 -11.8359375 6.3965625 -11.8359375 1.9765625 C-6.85605511 0.3166017 -4.87119364 -0.26189213 0 0 Z " fill="#000000" transform="translate(40.8359375,9.0234375)"/>
</svg>
