<?xml version="1.0" encoding="UTF-8"?>
<!-- Generator: visioncortex VTracer 0.6.4 -->
<svg version="1.1" xmlns="http://www.w3.org/2000/svg" width="106" height="119">
<path d="M0 0 C7.92 0 15.84 0 24 0 C26.81443568 2.81443568 27.40501949 3.47528378 28.39453125 7.0078125 C28.62438721 7.81549072 28.85424316 8.62316895 29.09106445 9.45532227 C29.32913818 10.33631592 29.56721191 11.21730957 29.8125 12.125 C30.07184326 13.05948975 30.33118652 13.99397949 30.59838867 14.95678711 C33.03297621 23.85712117 35.16637288 32.82602518 37.2890625 41.8046875 C39.18207002 49.79662106 41.11879734 57.77740491 43.08773804 65.75094604 C43.48467153 67.36350223 43.87893869 68.9767173 44.27041626 70.59060669 C44.82321866 72.86812656 45.38516454 75.14321314 45.94921875 77.41796875 C46.11154999 78.09509918 46.27388123 78.77222961 46.44113159 79.46987915 C47.72003894 84.56364483 49.23306998 89.23306998 53 93 C54.96690374 93.67292501 54.96690374 93.67292501 57.125 94.125 C58.40375 94.41375 59.6825 94.7025 61 95 C61 96.32 61 97.64 61 99 C45.49 99 29.98 99 14 99 C14.33 97.35 14.66 95.7 15 94 C17.475 93.01 17.475 93.01 20 92 C20.32777713 85.96070635 19.12895968 80.8548594 17.5 75.0625 C16.675 72.071875 15.85 69.08125 15 66 C7.41 66 -0.18 66 -8 66 C-10.59822516 72.4955629 -10.69912865 76.62216161 -8.3125 83.125 C-6.49821639 87.29912102 -4.71846879 90.23276742 -1 93 C1.34204136 93.92217878 3.52394733 94.46594942 6 95 C6 96.32 6 97.64 6 99 C-7.53 99.33 -21.06 99.66 -35 100 C-35 98.35 -35 96.7 -35 95 C-33.3603125 94.7834375 -33.3603125 94.7834375 -31.6875 94.5625 C-28.06877013 94.11711896 -28.06877013 94.11711896 -25 93 C-18.29011393 80.45551349 -15.77220543 65.4717074 -12.5625 51.75 C-12.07872079 49.70538252 -11.59450545 47.66086818 -11.10986328 45.61645508 C-8.180279 33.22048045 -5.32418641 20.80907808 -2.66235352 8.35253906 C-2.45151123 7.37381836 -2.24066895 6.39509766 -2.0234375 5.38671875 C-1.75926025 4.13701294 -1.75926025 4.13701294 -1.48974609 2.86206055 C-1 1 -1 1 0 0 Z M2 18 C-1.10875949 27.92730531 -4.11715646 37.83970407 -6.375 48 C-6.54225586 48.74620605 -6.70951172 49.49241211 -6.88183594 50.26123047 C-7.60233085 53.61501808 -8 56.550315 -8 60 C-1.07 60 5.86 60 13 60 C14.05173088 56.84480736 13.99817798 56.14119747 13.19555664 53.0793457 C12.99527359 52.29876297 12.79499054 51.51818024 12.58863831 50.71394348 C12.25278969 49.45755318 12.25278969 49.45755318 11.91015625 48.17578125 C11.68678085 47.31438034 11.46340546 46.45297943 11.23326111 45.56547546 C10.51743203 42.81239111 9.7901207 40.06248883 9.0625 37.3125 C8.57541313 35.44746362 8.08907557 33.58223137 7.60351562 31.71679688 C6.41102934 27.14221238 5.20823599 22.57044877 4 18 C3.34 18 2.68 18 2 18 Z " fill="#000000" transform="translate(40,8)"/>
</svg>
