<?xml version="1.0" encoding="UTF-8"?>
<!-- Generator: visioncortex VTracer 0.6.4 -->
<svg version="1.1" xmlns="http://www.w3.org/2000/svg" width="116" height="124">
<path d="M0 0 C1.15260315 -0.01283524 2.3052063 -0.02567047 3.49273682 -0.03889465 C4.7426239 -0.04628159 5.99251099 -0.05366852 7.28027344 -0.0612793 C8.57221619 -0.06935104 9.86415894 -0.07742279 11.19525146 -0.08573914 C13.93908556 -0.10076816 16.68289385 -0.11059986 19.42675781 -0.11816406 C22.21409401 -0.12695972 25.00092117 -0.14767666 27.78808594 -0.1796875 C66.34212628 -0.61263359 66.34212628 -0.61263359 77.03417969 9.7746582 C80.79754266 14.49459504 81.55780936 17.59138896 81.63964844 23.55200195 C81.66542969 24.67348633 81.69121094 25.7949707 81.71777344 26.95043945 C81.12249247 32.80403563 77.85325943 36.14163724 73.50683594 39.7512207 C69.7719292 42.26642543 65.63010758 43.72654309 61.38964844 45.17700195 C62.34226562 45.61270508 63.29488281 46.0484082 64.27636719 46.49731445 C65.54366038 47.0981053 66.81056722 47.69971158 68.07714844 48.30200195 C69.0159082 48.72739258 69.0159082 48.72739258 69.97363281 49.16137695 C76.05013306 52.0882776 80.37891082 56.49909515 82.88574219 62.9309082 C84.72331826 71.12165427 84.24798299 79.7264249 80.38964844 87.17700195 C75.78745982 94.01453933 69.90094683 96.82877533 62.05415344 98.74865723 C56.01641554 99.71928148 49.83422467 99.41674834 43.73339844 99.37231445 C42.22025745 99.36857855 40.70711401 99.36573431 39.19396973 99.36373901 C35.23528214 99.35614797 31.2767442 99.33653907 27.31811523 99.31433105 C23.26906355 99.29377439 19.2199874 99.28471641 15.17089844 99.2746582 C7.24374687 99.25328833 -0.68328366 99.21920793 -8.61035156 99.17700195 C-8.28035156 97.52700195 -7.95035156 95.87700195 -7.61035156 94.17700195 C-6.83949219 94.12801758 -6.06863281 94.0790332 -5.27441406 94.02856445 C-3.77007812 93.91641602 -3.77007812 93.91641602 -2.23535156 93.80200195 C-1.23761719 93.73239258 -0.23988281 93.6627832 0.78808594 93.59106445 C3.54473723 93.41336232 3.54473723 93.41336232 5.38964844 91.17700195 C6.53140538 87.13555067 6.52826451 83.18371006 6.55078125 79.00341797 C6.55574615 78.30031494 6.56071106 77.59721191 6.56582642 76.87280273 C6.58037009 74.55882776 6.58723586 72.24492127 6.59277344 69.9309082 C6.59852995 68.31575012 6.60428762 66.70059204 6.61004639 65.08543396 C6.62053324 61.70376265 6.62639148 58.32211496 6.62988281 54.94042969 C6.6353721 50.61507681 6.659419 46.29003799 6.68785477 41.96478367 C6.70650748 38.630133 6.71168808 35.29555773 6.71321869 31.9608593 C6.71623824 30.36650813 6.72424317 28.77215806 6.73740387 27.17785835 C6.75452507 24.94499073 6.75257011 22.71288772 6.74609375 20.47998047 C6.74973938 19.211548 6.75338501 17.94311554 6.75714111 16.63624573 C6.3575077 12.87445812 5.27782212 10.42706506 3.38964844 7.17700195 C-2.55035156 6.18700195 -2.55035156 6.18700195 -8.61035156 5.17700195 C-8.61035156 3.85700195 -8.61035156 2.53700195 -8.61035156 1.17700195 C-5.49193227 0.13752886 -3.27265345 0.03177223 0 0 Z M33.38964844 6.17700195 C33.38964844 17.72700195 33.38964844 29.27700195 33.38964844 41.17700195 C35.18906856 42.97642207 38.14982303 42.30792722 40.57714844 42.36450195 C42.29998047 42.41670898 42.29998047 42.41670898 44.05761719 42.4699707 C47.66004043 42.15322775 49.48331683 41.26233593 52.38964844 39.17700195 C53.86100625 34.12160524 53.61365124 29.02743888 53.63964844 23.80200195 C53.66027344 22.77333008 53.68089844 21.7446582 53.70214844 20.68481445 C53.73079318 15.12773489 53.6570954 10.91955847 50.38964844 6.17700195 C47.38651096 4.67543321 44.59897321 5.08418991 41.26464844 5.11450195 C39.98332031 5.12352539 38.70199219 5.13254883 37.38183594 5.1418457 C34.50661946 4.82711409 34.50661946 4.82711409 33.38964844 6.17700195 Z M34.38964844 48.17700195 C34.34025514 54.24591887 34.30393201 60.31471908 34.27978516 66.38378906 C34.26972009 68.44891396 34.2560669 70.51402458 34.23876953 72.57910156 C34.21454351 75.54536459 34.20317047 78.51143939 34.19433594 81.4777832 C34.18401337 82.40287186 34.1736908 83.32796051 34.16305542 84.28108215 C34.16290436 85.14174789 34.1627533 86.00241364 34.16259766 86.88916016 C34.15815643 87.6463887 34.15371521 88.40361725 34.1491394 89.18379211 C34.27602746 91.49518624 34.27602746 91.49518624 36.38964844 94.17700195 C41.72966665 95.51200651 45.22920079 94.68954695 50.38964844 93.17700195 C52.80338136 88.19173663 53.77251574 84.55468813 53.78808594 78.9230957 C53.79095612 78.25915298 53.79382629 77.59521027 53.79678345 76.91114807 C53.79880993 75.51871885 53.79337995 74.12626024 53.78076172 72.73388672 C53.76465956 70.61596521 53.78066958 68.49994394 53.79980469 66.38208008 C53.7978225 65.02074779 53.79397933 63.65941668 53.78808594 62.2980957 C53.78470215 61.07533936 53.78131836 59.85258301 53.77783203 58.59277344 C53.34745734 54.80574682 52.39219724 52.40489891 50.38964844 49.17700195 C46.86285745 46.82580796 45.36085358 46.96256743 41.20214844 47.05200195 C39.57212891 47.07907227 39.57212891 47.07907227 37.90917969 47.10668945 C35.45108311 46.88653192 35.45108311 46.88653192 34.38964844 48.17700195 Z " fill="#000000" transform="translate(23.6103515625,9.822998046875)"/>
</svg>
