<?xml version="1.0" encoding="UTF-8"?>
<!-- Generator: visioncortex VTracer 0.6.4 -->
<svg version="1.1" xmlns="http://www.w3.org/2000/svg" width="97" height="125">
<path d="M0 0 C2.58868624 1.07118051 4.16714781 0.54360566 6.8125 -0.25 C7.4725 -0.600625 8.1325 -0.95125 8.8125 -1.3125 C11.26239787 -2.46088963 13.13888335 -2.39853426 15.8125 -2.25 C16.8125 -1.25 16.8125 -1.25 16.92602539 1.52563477 C16.91817017 3.34019165 16.91817017 3.34019165 16.91015625 5.19140625 C16.90532227 7.14916992 16.90532227 7.14916992 16.90039062 9.14648438 C16.89203401 10.5351569 16.88356905 11.92382877 16.875 13.3125 C16.86998666 14.70507656 16.86542347 16.09765481 16.86132812 17.49023438 C16.84949434 20.9101987 16.8330088 24.33007844 16.8125 27.75 C15.1625 27.42 13.5125 27.09 11.8125 26.75 C11.36261719 25.84378906 10.91273437 24.93757813 10.44921875 24.00390625 C5.40339912 14.29137089 -0.66480833 6.12900833 -11.1875 1.75 C-14.9317418 1.40961438 -17.49838713 1.47435485 -21 2.875 C-24.25136097 5.66188083 -25.02439975 8.71530825 -25.36459351 12.95925903 C-25.43549469 15.6014704 -25.43836342 18.23581705 -25.41796875 20.87890625 C-25.41751053 21.86382553 -25.41705231 22.84874481 -25.4165802 23.86351013 C-25.41356344 25.95223187 -25.40569439 28.04095147 -25.39331055 30.12963867 C-25.37536 33.24992317 -25.37279917 36.36990424 -25.37304688 39.49023438 C-25.3562197 49.43026111 -25.20496604 59.35782425 -24.7734375 69.2890625 C-24.739655 70.13082535 -24.7058725 70.9725882 -24.67106628 71.83985901 C-24.33256215 78.71301004 -23.138569 85.13599881 -21.1875 91.75 C-14.33050561 94.36218834 -8.77693565 96.28832957 -1.6875 93.25 C6.68780423 87.85383083 10.79398168 79.58190839 14.8125 70.75 C16.4625 70.75 18.1125 70.75 19.8125 70.75 C20.97785958 78.24159728 17.0435251 82.84624405 12.8125 88.75 C12.41933594 89.35328125 12.02617188 89.9565625 11.62109375 90.578125 C7.97336067 95.69302747 2.6270557 98.71973946 -3.1875 100.75 C-13.62529242 102.33789946 -22.41541804 100.96258855 -31.1875 94.75 C-44.22886079 84.79072448 -52.94069151 72.25915806 -55.1875 55.75 C-56.22334425 41.08499959 -55.64401246 26.15738777 -46.234375 14.09375 C-33.64341198 -0.32338322 -18.77372005 -10.72784003 0 0 Z " fill="#000000" transform="translate(66.1875,14.25)"/>
</svg>
