<?xml version="1.0" encoding="UTF-8"?>
<!-- Generator: visioncortex VTracer 0.6.4 -->
<svg version="1.1" xmlns="http://www.w3.org/2000/svg" width="107" height="107">
<path d="M0 0 C0.60199219 0.29132812 1.20398438 0.58265625 1.82421875 0.8828125 C10.4250689 5.7920618 16.18172508 19.53394213 18.73046875 28.59765625 C22.08854373 46.70829993 19.993131 63.46864911 10 79 C5.31536689 85.42811052 0.0256745 92.04717808 -8 94 C-20.02801803 95.641193 -32.41667012 95.15405573 -44.52954102 95.13037109 C-47.85111907 95.12493682 -51.17256628 95.13038498 -54.49414062 95.13671875 C-56.60677113 95.13605919 -58.71940156 95.13478056 -60.83203125 95.1328125 C-61.82459427 95.13483673 -62.81715729 95.13686096 -63.83979797 95.13894653 C-65.20844246 95.13421829 -65.20844246 95.13421829 -66.60473633 95.12939453 C-67.40776688 95.12859894 -68.21079742 95.12780334 -69.03816223 95.12698364 C-71 95 -71 95 -73 94 C-73 92.68 -73 91.36 -73 90 C-70.30816799 88.65408399 -67.9223234 89.04945289 -64.9765625 89.09765625 C-62.59112509 88.97979867 -60.98085564 88.32057043 -59 87 C-57.22674724 82.4154667 -56.74736246 78.60077588 -56.74121094 73.69702148 C-56.7377063 72.99216614 -56.73420166 72.28731079 -56.73059082 71.56109619 C-56.72183907 69.24765977 -56.72759862 66.9345329 -56.734375 64.62109375 C-56.73302661 63.00496869 -56.73108463 61.38884402 -56.72857666 59.77272034 C-56.72563442 56.39279298 -56.7298946 53.01297163 -56.73925781 49.63305664 C-56.750661 45.30656482 -56.74408175 40.98032093 -56.73211288 36.65383816 C-56.72487777 33.31922037 -56.72718964 29.98466115 -56.73236847 26.65004158 C-56.73369992 25.05488111 -56.73207496 23.45971528 -56.72740936 21.86456108 C-56.72231589 19.63409251 -56.73009325 17.40402293 -56.74121094 15.17358398 C-56.74280212 13.90594711 -56.74439331 12.63831024 -56.74603271 11.33226013 C-56.9952222 8.06268873 -57.45205824 5.8765091 -59 3 C-61.91765 1.0549 -63.62537285 0.54723683 -67 0 C-67 -1.32 -67 -2.64 -67 -4 C-60.82954061 -4.16927979 -54.65893308 -4.32963873 -48.48803711 -4.48217773 C-46.39422562 -4.53513875 -44.30047145 -4.59042406 -42.20678711 -4.64819336 C-9.68711129 -5.54095123 -9.68711129 -5.54095123 0 0 Z M-30 1 C-30 29.38 -30 57.76 -30 87 C-25.91748364 90.06188727 -25.43502071 90.37243503 -20.75 90.1875 C-19.85796875 90.16042969 -18.9659375 90.13335937 -18.046875 90.10546875 C-17.03367187 90.05326172 -17.03367187 90.05326172 -16 90 C-6.66141903 79.10498887 -8.82677874 63.93551835 -8.875 50.375 C-8.87688324 49.57829895 -8.87876648 48.7815979 -8.88070679 47.96075439 C-7.21459341 23.87646699 -7.21459341 23.87646699 -14.4140625 2.30859375 C-17.26833367 -0.04653148 -20.01680723 -0.13668268 -23.5625 -0.125 C-24.34753906 -0.12757813 -25.13257813 -0.13015625 -25.94140625 -0.1328125 C-28.06438977 -0.12976366 -28.06438977 -0.12976366 -30 1 Z " fill="#000000" transform="translate(77,8)"/>
</svg>
