<?xml version="1.0" encoding="UTF-8"?>
<!-- Generator: visioncortex VTracer 0.6.4 -->
<svg version="1.1" xmlns="http://www.w3.org/2000/svg" width="110" height="118">
<path d="M0 0 C7.19956829 -0.0235111 14.39912786 -0.0411073 21.59872723 -0.05181217 C24.94433686 -0.05695843 28.28989957 -0.06447435 31.63549805 -0.07543945 C44.5417693 -0.1166271 57.43651453 -0.14840554 70.33203125 0.44140625 C71.20856857 0.48039536 72.0851059 0.51938446 72.98820496 0.55955505 C78.87077571 0.87077571 78.87077571 0.87077571 80 2 C81.24328637 10.59556011 81.75232503 19.4574155 80 28 C78.68 28 77.36 28 76 28 C75.50371094 27.21496094 75.00742188 26.42992188 74.49609375 25.62109375 C67.30412096 13.98195298 67.30412096 13.98195298 56.23046875 6.42578125 C50.11136969 5.25768703 42.92980501 5.02339833 37 7 C36.97518181 11.73225528 36.95708417 16.46447221 36.94506836 21.19677734 C36.94005625 22.80485698 36.93324481 24.4129321 36.92456055 26.02099609 C36.91235774 28.33952961 36.90674036 30.65800259 36.90234375 32.9765625 C36.89718246 33.68930328 36.89202118 34.40204407 36.88670349 35.13638306 C36.88625245 39.19856429 37.21224393 43.01488106 38 47 C41.60019136 47.34287537 43.71187619 47.13805933 47 45.5625 C50.90931673 42.22329196 53.36291014 38.376447 56 34 C57.65 34 59.3 34 61 34 C61 45.22 61 56.44 61 68 C59.35 68 57.7 68 56 68 C55.69707031 67.48050781 55.39414063 66.96101563 55.08203125 66.42578125 C50.91107632 58.83121406 50.91107632 58.83121406 43.90625 54.4765625 C41.9476536 54.22139325 39.9726 54.1003017 38 54 C37.67 54.33 37.34 54.66 37 55 C37 67.87 37 80.74 37 94 C42.259375 93.87625 42.259375 93.87625 47.625 93.75 C48.71893066 93.73420898 49.81286133 93.71841797 50.93994141 93.70214844 C58.42404581 93.44128257 62.127128 91.74326875 67.59765625 86.51953125 C72.60507622 81.02009854 76.83128971 75.75435615 80 69 C81.65 69.33 83.3 69.66 85 70 C85 79.24 85 88.48 85 98 C82.12807323 100.87192677 74.09450724 99.45312345 70.0625 99.5625 C69.33823822 99.58334656 68.61397644 99.60419312 67.86776733 99.62567139 C53.01802155 100.04234422 38.16732801 100.10871993 23.3125 100.125 C21.65373337 100.12888229 21.65373337 100.12888229 19.9614563 100.13284302 C16.78286537 100.13871504 13.60437302 100.13711064 10.42578125 100.1328125 C9.00111542 100.13578087 9.00111542 100.13578087 7.54766846 100.1388092 C2.59052312 100.12154131 -2.11313104 99.8435891 -7 99 C-7 97.68 -7 96.36 -7 95 C-4.43106162 93.71553081 -2.23423663 93.67022856 0.625 93.4375 C1.62789062 93.35371094 2.63078125 93.26992187 3.6640625 93.18359375 C4.43492188 93.12300781 5.20578125 93.06242187 6 93 C12.41909828 84.90635434 10.16088389 71.19140716 10.125 61.375 C10.12378143 60.64965057 10.12256287 59.92430115 10.12130737 59.17697144 C10.09881738 47.63457052 9.89530158 36.09994283 9.5625 24.5625 C9.5429425 23.84527771 9.52338501 23.12805542 9.50323486 22.38909912 C9.44642274 20.36470744 9.38160436 18.3405452 9.31640625 16.31640625 C9.27974854 15.16599854 9.24309082 14.01559082 9.20532227 12.83032227 C9.11142936 9.92302433 9.11142936 9.92302433 8 7 C3.545 6.01 3.545 6.01 -1 5 C-0.67 3.35 -0.34 1.7 0 0 Z " fill="#000000" transform="translate(12,11)"/>
</svg>
