<?xml version="1.0" encoding="UTF-8"?>
<!-- Generator: visioncortex VTracer 0.6.4 -->
<svg version="1.1" xmlns="http://www.w3.org/2000/svg" width="101" height="108">
<path d="M0 0 C1.25908676 -0.00315216 2.51817352 -0.00630432 3.81541443 -0.009552 C5.18952469 -0.0077603 6.56363463 -0.00570887 7.93774414 -0.00341797 C9.35820024 -0.00409248 10.77865623 -0.00506373 12.19911194 -0.00631714 C15.18076676 -0.0077915 18.16239163 -0.00565082 21.14404297 -0.00097656 C24.92941951 0.00467386 28.71472441 0.00147013 32.50009823 -0.00454903 C35.4387107 -0.00820187 38.37730685 -0.00699384 41.31591988 -0.00442123 C42.70909191 -0.0037625 44.10226552 -0.00454273 45.49543571 -0.00690079 C47.46570677 -0.00950033 49.43598313 -0.00482393 51.40625 0 C52.52003525 0.00079559 53.6338205 0.00159119 54.78135681 0.00241089 C60.45895216 0.1824693 66.12168243 0.69372392 71.78540039 1.12939453 C72.11540039 10.36939453 72.44540039 19.60939453 72.78540039 29.12939453 C71.13540039 29.12939453 69.48540039 29.12939453 67.78540039 29.12939453 C67.14924805 28.06011719 67.14924805 28.06011719 66.50024414 26.96923828 C62.81518269 20.95165441 59.19781592 15.68908814 53.78540039 11.12939453 C52.9481543 10.36949219 52.9481543 10.36949219 52.09399414 9.59423828 C45.79284783 4.70846825 38.33158061 5.68723553 30.78540039 6.12939453 C29.49765593 9.99262791 29.55157246 13.7042999 29.46899414 17.73486328 C29.44821304 18.57406815 29.42743195 19.41327301 29.40602112 20.27790833 C29.34066021 22.95748747 29.28170325 25.63716423 29.22290039 28.31689453 C29.17970237 30.1339619 29.13608766 31.95101941 29.09204102 33.76806641 C28.98499259 38.22174253 28.8836872 42.67551679 28.78540039 47.12939453 C34.25431222 47.21174097 36.88778459 47.10534867 41.14086914 43.77392578 C43.96863828 40.94615664 45.89910285 37.63251853 47.78540039 34.12939453 C49.10540039 34.12939453 50.42540039 34.12939453 51.78540039 34.12939453 C51.78540039 44.68939453 51.78540039 55.24939453 51.78540039 66.12939453 C46.78540039 65.12939453 46.78540039 65.12939453 45.12524414 63.38720703 C44.6624707 62.68337891 44.19969727 61.97955078 43.72290039 61.25439453 C41.69517917 58.21000422 39.98136915 55.97940071 36.78540039 54.12939453 C33.1326557 53.40458369 33.1326557 53.40458369 29.78540039 53.12939453 C29.72668549 57.42100244 29.69156556 61.71250511 29.66040039 66.00439453 C29.64364258 67.20837891 29.62688477 68.41236328 29.60961914 69.65283203 C29.0644059 81.37273632 29.0644059 81.37273632 33.22216797 91.86865234 C35.27677019 93.52568278 36.73638078 93.59090566 39.34790039 93.75439453 C43.62540039 94.04939453 43.62540039 94.04939453 45.78540039 95.12939453 C45.78540039 96.44939453 45.78540039 97.76939453 45.78540039 99.12939453 C26.31540039 99.12939453 6.84540039 99.12939453 -13.21459961 99.12939453 C-13.70959961 96.65439453 -13.70959961 96.65439453 -14.21459961 94.12939453 C-13.07571289 94.07332031 -13.07571289 94.07332031 -11.91381836 94.01611328 C-10.91995117 93.95037109 -9.92608398 93.88462891 -8.90209961 93.81689453 C-7.9159668 93.75888672 -6.92983398 93.70087891 -5.91381836 93.64111328 C-3.26421717 93.31215022 -3.26421717 93.31215022 -1.48413086 92.02392578 C1.6957139 87.27861899 2.03665829 81.74610059 2.04418945 76.18774414 C2.04769409 75.53311691 2.05119873 74.87848969 2.05480957 74.20402527 C2.06353553 72.06315164 2.05781119 69.92261464 2.05102539 67.78173828 C2.05237451 66.28153928 2.0543171 64.7813407 2.05682373 63.28114319 C2.05976247 60.14677746 2.05551716 57.01252619 2.04614258 53.87817383 C2.03473884 49.87128831 2.04132118 45.86467051 2.05328751 41.85779476 C2.06053155 38.7633311 2.05820669 35.6689304 2.05303192 32.5744648 C2.05170297 31.09735647 2.05331656 29.62024232 2.05799103 28.14314079 C2.06309942 26.07582428 2.05528666 24.00893526 2.04418945 21.94165039 C2.04259827 20.7680748 2.04100708 19.59449921 2.03936768 18.38536072 C1.70684593 14.12229375 1.063061 10.45268587 -1.96459961 7.31689453 C-4.69657172 5.87502036 -7.16117271 5.47637486 -10.21459961 5.12939453 C-10.21459961 3.80939453 -10.21459961 2.48939453 -10.21459961 1.12939453 C-6.76539698 0.07657733 -3.59624324 0.00258547 0 0 Z " fill="#000000" transform="translate(19.214599609375,6.87060546875)"/>
</svg>
