<?xml version="1.0" encoding="UTF-8"?>
<!-- Generator: visioncortex VTracer 0.6.4 -->
<svg version="1.1" xmlns="http://www.w3.org/2000/svg" width="105" height="119">
<path d="M0 0 C3.77034161 1.34112822 6.47347532 0.72295439 10.328125 -0.171875 C10.988125 -0.501875 11.648125 -0.831875 12.328125 -1.171875 C14.308125 -1.171875 16.288125 -1.171875 18.328125 -1.171875 C18.823125 13.183125 18.823125 13.183125 19.328125 27.828125 C17.678125 28.158125 16.028125 28.488125 14.328125 28.828125 C14.03679687 28.3434375 13.74546875 27.85875 13.4453125 27.359375 C4.71292822 12.63683107 4.71292822 12.63683107 -8.671875 2.828125 C-11.26342419 2.58782541 -11.26342419 2.58782541 -13.921875 2.703125 C-15.25992188 2.73019531 -15.25992188 2.73019531 -16.625 2.7578125 C-18.82076121 2.62808537 -18.82076121 2.62808537 -20.609375 4.390625 C-24.9691003 9.54302763 -23.82833629 17.75515964 -23.796875 24.203125 C-23.79276611 25.24952148 -23.78865723 26.29591797 -23.78442383 27.37402344 C-23.75938193 31.19223921 -23.7173554 35.0101144 -23.671875 38.828125 C-23.66327454 39.62488647 -23.65467407 40.42164795 -23.64581299 41.24255371 C-23.58664174 46.61211967 -23.50715499 51.98094665 -23.40740967 57.34991455 C-23.37572315 59.14960425 -23.34848508 60.94937851 -23.32598877 62.74920654 C-23.18882017 73.18397375 -22.63551306 82.750153 -19.671875 92.828125 C-12.42481601 94.14915161 -12.42481601 94.14915161 -5.671875 91.828125 C-4.0175464 89.08668715 -3.3945989 86.88241434 -3.22265625 83.703125 C-3.15667236 82.52762085 -3.15667236 82.52762085 -3.08935547 81.32836914 C-3.05471191 80.50328857 -3.02006836 79.67820801 -2.984375 78.828125 C-2.9445752 77.9817749 -2.90477539 77.1354248 -2.86376953 76.26342773 C-2.54713606 68.30744358 -2.73365704 60.58099684 -4.671875 52.828125 C-7.971875 52.498125 -11.271875 52.168125 -14.671875 51.828125 C-14.671875 50.508125 -14.671875 49.188125 -14.671875 47.828125 C-11.84175373 46.88475124 -10.12887582 46.70639671 -7.20043945 46.71459961 C-5.84937859 46.71471291 -5.84937859 46.71471291 -4.47102356 46.71482849 C-3.50218735 46.71998978 -2.53335114 46.72515106 -1.53515625 46.73046875 C-0.04329048 46.73259117 -0.04329048 46.73259117 1.47871399 46.73475647 C4.65771482 46.74035739 7.83664543 46.75291004 11.015625 46.765625 C13.16992086 46.77063988 15.32421782 46.77520281 17.47851562 46.77929688 C22.76174274 46.79032712 28.04492885 46.80706614 33.328125 46.828125 C33.328125 48.478125 33.328125 50.128125 33.328125 51.828125 C32.214375 51.951875 31.100625 52.075625 29.953125 52.203125 C26.29708823 52.4747063 26.29708823 52.4747063 24.328125 54.828125 C24.328125 65.388125 24.328125 75.948125 24.328125 86.828125 C21.028125 86.828125 17.728125 86.828125 14.328125 86.828125 C10.23979504 87.90753359 8.00598034 89.82993795 5.015625 92.765625 C-2.08495581 99.18996002 -7.93242005 100.42967808 -17.4921875 100.17578125 C-27.87250556 99.04083247 -36.54768796 91.88608693 -43.0703125 84.09765625 C-50.88017323 73.03051215 -52.05075192 61.34772214 -52.109375 48.203125 C-52.14224609 46.92566406 -52.17511719 45.64820313 -52.20898438 44.33203125 C-52.28240134 31.15702312 -48.98904163 19.49934396 -39.671875 9.828125 C-27.94581894 -1.79397666 -15.92393291 -7.29418862 0 0 Z " fill="#000000" transform="translate(65.671875,12.171875)"/>
</svg>
