<?xml version="1.0" encoding="UTF-8"?>
<!-- Generator: visioncortex VTracer 0.6.4 -->
<svg version="1.1" xmlns="http://www.w3.org/2000/svg" width="127" height="113">
<path d="M0 0 C0.83496002 0.00141495 1.66992004 0.0028299 2.53018188 0.00428772 C5.17901292 0.00985451 7.8277573 0.02240078 10.4765625 0.03515625 C12.27994669 0.04017555 14.08333221 0.0447377 15.88671875 0.04882812 C20.29169971 0.05981305 24.69661644 0.07705462 29.1015625 0.09765625 C29.1015625 1.74765625 29.1015625 3.39765625 29.1015625 5.09765625 C28.1321875 5.38640625 27.1628125 5.67515625 26.1640625 5.97265625 C22.99492047 6.73980307 22.99492047 6.73980307 22.1015625 9.09765625 C22.01465249 11.94194982 21.98602448 14.76144801 22.00390625 17.60546875 C22.00602867 18.86639847 22.00602867 18.86639847 22.00819397 20.15280151 C22.01380013 22.842789 22.02635364 25.53269384 22.0390625 28.22265625 C22.04407671 30.04426963 22.04863975 31.86588432 22.05273438 33.6875 C22.0629215 38.15760969 22.08249565 42.62754024 22.1015625 47.09765625 C28.7015625 47.09765625 35.3015625 47.09765625 42.1015625 47.09765625 C42.02761092 41.73999198 41.94483036 36.38401305 41.83911133 31.02709961 C41.8058451 29.20459706 41.77781844 27.38199106 41.75512695 25.55932617 C41.72161169 22.94014375 41.66929898 20.32191077 41.61328125 17.703125 C41.60689133 16.88740524 41.6005014 16.07168549 41.59391785 15.23124695 C41.60710069 11.00928721 41.60710069 11.00928721 39.71125793 7.40132141 C37.8666291 5.90738765 36.42036117 5.49744912 34.1015625 5.09765625 C34.1015625 3.44765625 34.1015625 1.79765625 34.1015625 0.09765625 C48.9515625 0.09765625 63.8015625 0.09765625 79.1015625 0.09765625 C79.1015625 1.74765625 79.1015625 3.39765625 79.1015625 5.09765625 C78.53566406 5.23042969 77.96976562 5.36320313 77.38671875 5.5 C76.28650391 5.76490234 76.28650391 5.76490234 75.1640625 6.03515625 C74.06771484 6.29619141 74.06771484 6.29619141 72.94921875 6.5625 C71.10186352 6.93653194 71.10186352 6.93653194 70.1015625 8.09765625 C69.15532133 14.00166803 68.94550837 19.75223259 68.9765625 25.72265625 C68.98163818 27.18916626 68.98163818 27.18916626 68.98681641 28.68530273 C69.01085731 32.48963655 69.05308612 36.29357336 69.1015625 40.09765625 C69.11251953 40.97105652 69.12347656 41.84445679 69.13476562 42.74432373 C69.21391219 48.83717744 69.31012048 54.92955237 69.42095947 61.02191162 C69.45790038 63.10686283 69.49189726 65.19186837 69.52288818 67.2769165 C69.56843974 70.24996988 69.62643613 73.22254211 69.6875 76.1953125 C69.69906128 77.08931259 69.71062256 77.98331268 69.72253418 78.90440369 C69.84224893 83.99048963 70.47012408 88.27244202 72.1015625 93.09765625 C72.80023438 93.15824219 73.49890625 93.21882813 74.21875 93.28125 C75.58386719 93.40693359 75.58386719 93.40693359 76.9765625 93.53515625 C78.33394531 93.65697266 78.33394531 93.65697266 79.71875 93.78125 C82.1015625 94.09765625 82.1015625 94.09765625 84.1015625 95.09765625 C84.1015625 96.41765625 84.1015625 97.73765625 84.1015625 99.09765625 C67.9315625 99.09765625 51.7615625 99.09765625 35.1015625 99.09765625 C35.1015625 97.77765625 35.1015625 96.45765625 35.1015625 95.09765625 C37.0815625 94.10765625 39.0615625 93.11765625 41.1015625 92.09765625 C42.30406502 88.49014869 42.2449019 85.19196476 42.234375 81.4375 C42.23533173 80.69182266 42.23628845 79.94614532 42.23727417 79.1778717 C42.23795401 77.60352494 42.2361134 76.02917535 42.23193359 74.45483398 C42.226575 72.04078915 42.23188905 69.62692973 42.23828125 67.21289062 C42.23762058 65.68359334 42.23633965 64.15429617 42.234375 62.625 C42.23639923 61.90102524 42.23842346 61.17705048 42.24050903 60.43113708 C42.28494796 56.63847267 42.28494796 56.63847267 41.1015625 53.09765625 C34.5015625 53.09765625 27.9015625 53.09765625 21.1015625 53.09765625 C21.1759462 57.50937935 21.25910716 61.91921436 21.36401367 66.33007812 C21.39706116 67.82737097 21.42515452 69.32478235 21.44799805 70.82226562 C21.56623886 82.28711644 21.56623886 82.28711644 25.1015625 93.09765625 C26.7515625 93.42765625 28.4015625 93.75765625 30.1015625 94.09765625 C30.1015625 95.74765625 30.1015625 97.39765625 30.1015625 99.09765625 C13.6015625 99.09765625 -2.8984375 99.09765625 -19.8984375 99.09765625 C-19.8984375 97.77765625 -19.8984375 96.45765625 -19.8984375 95.09765625 C-13.9584375 94.10765625 -13.9584375 94.10765625 -7.8984375 93.09765625 C-4.08512166 86.32744748 -4.49782769 79.74521738 -4.5703125 72.125 C-4.57337824 70.75607004 -4.57524815 69.38713693 -4.57598877 68.01820374 C-4.58057747 65.15271996 -4.59493523 62.28751941 -4.6171875 59.42211914 C-4.64528015 55.79048778 -4.65638307 52.15908013 -4.6608696 48.52735043 C-4.66608944 45.01820612 -4.68058057 41.50911489 -4.6953125 38 C-4.69956238 36.71616928 -4.70381226 35.43233856 -4.70819092 34.10960388 C-4.39441143 19.90716956 -4.39441143 19.90716956 -6.8984375 6.09765625 C-9.5384375 5.76765625 -12.1784375 5.43765625 -14.8984375 5.09765625 C-14.8984375 3.77765625 -14.8984375 2.45765625 -14.8984375 1.09765625 C-9.87559863 0.08255105 -5.09630377 -0.03286966 0 0 Z " fill="#000000" transform="translate(34.8984375,4.90234375)"/>
</svg>
