<?xml version="1.0" encoding="UTF-8"?>
<!-- Generator: visioncortex VTracer 0.6.4 -->
<svg version="1.1" xmlns="http://www.w3.org/2000/svg" width="97" height="141">
<path d="M0 0 C15.84 0 31.68 0 48 0 C48 1.32 48 2.64 48 4 C46.865625 4.309375 45.73125 4.61875 44.5625 4.9375 C41.21224901 5.62924531 41.21224901 5.62924531 40 7 C38.04886079 25.43460447 38.97528482 44.44408884 39.3125 62.9375 C39.32955994 64.02651611 39.34661987 65.11553223 39.36419678 66.23754883 C39.41579717 69.37612948 39.48099087 72.51412042 39.55078125 75.65234375 C39.56551987 76.59295151 39.58025848 77.53355927 39.59544373 78.50267029 C39.73057131 83.68933166 40.32489553 88.08240493 42 93 C45.96 93.33 49.92 93.66 54 94 C54 95.32 54 96.64 54 98 C42.03276145 99.12997026 30.13309786 99.11655378 18.125 99.0625 C16.16536573 99.05747197 14.20573021 99.05291138 12.24609375 99.04882812 C7.49736415 99.03793266 2.74869638 99.02074085 -2 99 C-2.495 96.525 -2.495 96.525 -3 94 C-0.70370006 92.85185003 1.07698086 92.69230191 3.625 92.4375 C4.44226563 92.35371094 5.25953125 92.26992187 6.1015625 92.18359375 C6.72804688 92.12300781 7.35453125 92.06242187 8 92 C10.8819974 87.67700389 11.12484771 83.86968709 11.12939453 78.76098633 C11.13254669 77.73834183 11.13569885 76.71569733 11.13894653 75.6620636 C11.1369223 74.56315292 11.13489807 73.46424225 11.1328125 72.33203125 C11.13376923 71.18320969 11.13472595 70.03438812 11.13571167 68.85075378 C11.13639211 66.4139297 11.13454731 63.9771038 11.13037109 61.5402832 C11.1250846 57.87121313 11.13028743 54.20226907 11.13671875 50.53320312 C11.14074786 40.22980414 11.12175719 29.9297644 10.6171875 19.63671875 C10.58682404 18.93537308 10.55646057 18.2340274 10.525177 17.51142883 C10.28274034 13.38555395 9.4704171 9.85825797 8 6 C5.36 5.34 2.72 4.68 0 4 C0 2.68 0 1.36 0 0 Z " fill="#000000" transform="translate(22,19)"/>
</svg>
