<?xml version="1.0" encoding="UTF-8"?>
<!-- Generator: visioncortex VTracer 0.6.4 -->
<svg version="1.1" xmlns="http://www.w3.org/2000/svg" width="109" height="123">
<path d="M0 0 C16.5 0 33 0 50 0 C49.67 1.65 49.34 3.3 49 5 C46.36 5.33 43.72 5.66 41 6 C37.29215689 13.41568623 38.91359933 24.74473077 39.04296875 32.8515625 C39.06534197 35.27342945 39.08679899 37.69530501 39.10742188 40.1171875 C39.14454316 43.88045022 39.18778654 47.64326327 39.24682617 51.40625 C39.30153177 55.07558604 39.33045323 58.74441941 39.35546875 62.4140625 C39.39114204 64.08476303 39.39114204 64.08476303 39.42753601 65.78921509 C39.45817238 75.00363888 37.44049839 83.53912608 30.9296875 90.40625 C20.77450353 98.79352745 5.68308564 101.87427677 -7.28515625 101.40625 C-17.23432947 99.91745286 -25.34168374 95.47757218 -32 88 C-35.81143609 82.80258715 -35.65792791 77.21788204 -35 71 C-33.74241823 66.93135308 -32.25188669 64.899259 -28.75 62.625 C-25.02832606 60.76806415 -22.17351275 60.41424383 -18 61 C-13.28476126 62.70829352 -9.54930318 64.5271317 -7 69 C-6.6015625 72.05859375 -6.6015625 72.05859375 -6.625 75.4375 C-6.61726563 76.54996094 -6.60953125 77.66242188 -6.6015625 78.80859375 C-7.15186768 83.21643032 -8.73423741 85.85290265 -12 88.8125 C-14 90 -14 90 -17 90 C-14.81555707 93.27666439 -14.58954652 93.43754117 -11 94.1875 C-5.39822713 95.26441595 0.54048678 95.949922 6.10546875 94.421875 C9.08288185 92.18728043 10.0952151 89.50444452 11 86 C11.43453517 81.05317374 11.39835765 76.11390894 11.36328125 71.15234375 C11.36276142 69.69373068 11.36328385 68.2351169 11.36479187 66.77650452 C11.3647024 63.72272236 11.35433334 60.66920554 11.33618164 57.61547852 C11.31363697 53.74163751 11.31292751 49.86818825 11.31969929 45.99429989 C11.32307832 42.9801346 11.31633391 39.96605508 11.30657005 36.9519062 C11.30277441 35.52607233 11.30154585 34.10022881 11.3031559 32.67439079 C11.3049355 23.24037327 10.58226479 14.29446963 9 5 C6.03 5 3.06 5 0 5 C0 3.35 0 1.7 0 0 Z " fill="#000000" transform="translate(46,13)"/>
</svg>
