<?xml version="1.0" encoding="UTF-8"?>
<!-- Generator: visioncortex VTracer 0.6.4 -->
<svg version="1.1" xmlns="http://www.w3.org/2000/svg" width="109" height="121">
<path d="M0 0 C1.26108078 0.0001133 1.26108078 0.0001133 2.54763794 0.00022888 C3.91020218 0.00797081 3.91020218 0.00797081 5.30029297 0.01586914 C6.22969696 0.01728409 7.15910095 0.01869904 8.1166687 0.02015686 C11.09197171 0.02576486 14.06720011 0.03831871 17.04248047 0.05102539 C19.0568023 0.05603936 21.07112531 0.06060245 23.08544922 0.06469727 C28.02948849 0.07573689 32.97347182 0.0930069 37.91748047 0.11352539 C38.41248047 2.58852539 38.41248047 2.58852539 38.91748047 5.11352539 C36.93748047 5.44352539 34.95748047 5.77352539 32.91748047 6.11352539 C31.75970704 9.58684568 31.78798725 12.3135056 31.78466797 15.97680664 C31.78371124 16.64640915 31.78275452 17.31601166 31.7817688 18.00590515 C31.78108889 19.42223199 31.78293001 20.83856197 31.78710938 22.25488281 C31.79243515 24.40770604 31.78717111 26.56031824 31.78076172 28.71313477 C31.78142303 30.09269251 31.78270528 31.47225013 31.78466797 32.85180664 C31.78635986 34.72412964 31.78635986 34.72412964 31.78808594 36.63427734 C31.90899982 39.88549198 32.30133722 42.92298024 32.91748047 46.11352539 C34.67030472 43.90738453 36.41978092 41.69872049 38.16748047 39.48852539 C38.65861328 38.87106445 39.14974609 38.25360352 39.65576172 37.61743164 C42.59889861 33.88945825 45.31549548 30.09204438 47.91748047 26.11352539 C48.41892578 25.44708008 48.92037109 24.78063477 49.43701172 24.09399414 C52.11384762 20.38200719 53.28099687 17.93065778 52.79248047 13.30102539 C52.35427417 10.77463191 51.73206908 8.55729122 50.91748047 6.11352539 C48.93748047 5.78352539 46.95748047 5.45352539 44.91748047 5.11352539 C44.91748047 3.46352539 44.91748047 1.81352539 44.91748047 0.11352539 C57.78748047 0.11352539 70.65748047 0.11352539 83.91748047 0.11352539 C83.58748047 1.76352539 83.25748047 3.41352539 82.91748047 5.11352539 C82.25361328 5.21149414 81.58974609 5.30946289 80.90576172 5.41040039 C80.02275391 5.55993164 79.13974609 5.70946289 78.22998047 5.86352539 C77.35986328 6.00274414 76.48974609 6.14196289 75.59326172 6.28540039 C69.53757215 8.15957001 66.11295455 13.08671409 62.41748047 17.92602539 C61.95728516 18.51706055 61.49708984 19.1080957 61.02294922 19.71704102 C54.86565276 26.58101306 54.86565276 26.58101306 52.10571289 34.44750977 C53.25232022 39.62569193 55.55684555 44.03563531 57.90576172 48.76977539 C58.40536911 49.79026978 58.9049765 50.81076416 59.41972351 51.86218262 C60.47605343 54.01566013 61.53618497 56.16727646 62.59985352 58.31713867 C64.22214075 61.59767218 65.83147782 64.88431238 67.43896484 68.17211914 C68.46880228 70.26754566 69.49937696 72.36261004 70.53076172 74.45727539 C71.01007645 75.43555298 71.48939117 76.41383057 71.98323059 77.42175293 C75.66606253 86.0337289 75.66606253 86.0337289 82.13623047 92.13696289 C83.26544922 92.31098633 83.26544922 92.31098633 84.41748047 92.48852539 C85.17029297 92.62000977 85.92310547 92.75149414 86.69873047 92.88696289 C89.20898384 93.18124835 89.20898384 93.18124835 92.91748047 93.11352539 C92.91748047 95.09352539 92.91748047 97.07352539 92.91748047 99.11352539 C86.26058765 99.13882129 79.60370717 99.15636935 72.94677734 99.16845703 C70.68082211 99.17349465 68.41487014 99.18032491 66.14892578 99.18896484 C62.89729 99.20105535 59.64569708 99.20675931 56.39404297 99.21118164 C54.86742538 99.21892357 54.86742538 99.21892357 53.30996704 99.2268219 C51.89873062 99.2269352 51.89873062 99.2269352 50.45898438 99.22705078 C49.62847565 99.22927139 48.79796692 99.231492 47.94229126 99.23377991 C45.91748047 99.11352539 45.91748047 99.11352539 43.91748047 98.11352539 C44.24748047 96.46352539 44.57748047 94.81352539 44.91748047 93.11352539 C46.56748047 93.11352539 48.21748047 93.11352539 49.91748047 93.11352539 C48.0296429 89.10970461 46.13077448 85.1112094 44.22998047 81.11352539 C43.69953125 79.98817383 43.16908203 78.86282227 42.62255859 77.70336914 C39.70446694 71.58074739 36.65659464 65.77422514 32.91748047 60.11352539 C32.88845879 64.53017827 32.87067439 68.94680662 32.85498047 73.36352539 C32.84241211 75.24491211 32.84241211 75.24491211 32.82958984 77.16430664 C32.82636719 78.36958008 32.82314453 79.57485352 32.81982422 80.81665039 C32.8145874 81.92685547 32.80935059 83.03706055 32.80395508 84.1809082 C32.90089554 86.68509918 33.18517771 88.73164099 33.91748047 91.11352539 C35.89748047 92.10352539 37.87748047 93.09352539 39.91748047 94.11352539 C39.91748047 95.43352539 39.91748047 96.75352539 39.91748047 98.11352539 C24.07748047 98.11352539 8.23748047 98.11352539 -8.08251953 98.11352539 C-7.75251953 96.46352539 -7.42251953 94.81352539 -7.08251953 93.11352539 C-2.62751953 92.61852539 -2.62751953 92.61852539 1.91748047 92.11352539 C5.18543716 87.21159036 5.04362346 82.1923032 5.06274414 76.42480469 C5.06912399 75.11291672 5.07550385 73.80102875 5.08207703 72.4493866 C5.08360614 71.02883949 5.08471987 69.60829188 5.08544922 68.18774414 C5.08866698 66.71572335 5.09203143 65.24370288 5.09553528 63.77168274 C5.10150903 60.69104268 5.10337701 57.6104306 5.1027832 54.52978516 C5.10268174 50.60277549 5.11632537 46.67594727 5.13355541 42.74898052 C5.14473243 39.70930677 5.14670066 36.66967609 5.14617348 33.6299839 C5.14734534 32.18325997 5.151722 30.73653463 5.15950584 29.28983116 C5.19679015 21.64397255 4.97978119 14.52544544 2.91748047 7.11352539 C-1.53751953 6.12352539 -1.53751953 6.12352539 -6.08251953 5.11352539 C-6.08251953 3.79352539 -6.08251953 2.47352539 -6.08251953 1.11352539 C-3.79620459 -0.02963208 -2.53904547 -0.00760193 0 0 Z " fill="#000000" transform="translate(16.08251953125,8.886474609375)"/>
</svg>
