<?xml version="1.0" encoding="UTF-8"?>
<!-- Generator: visioncortex VTracer 0.6.4 -->
<svg version="1.1" xmlns="http://www.w3.org/2000/svg" width="114" height="133">
<path d="M0 0 C16.5 0 33 0 50 0 C50 1.32 50 2.64 50 4 C49.37351563 4.10957031 48.74703125 4.21914063 48.1015625 4.33203125 C47.28429687 4.49058594 46.46703125 4.64914063 45.625 4.8125 C44.40683594 5.03873047 44.40683594 5.03873047 43.1640625 5.26953125 C40.64179359 5.87544942 40.64179359 5.87544942 39 9 C38.70707472 11.11733818 38.70707472 11.11733818 38.76953125 13.51953125 C38.77073975 14.49680176 38.77194824 15.47407227 38.77319336 16.48095703 C38.78616455 17.58036621 38.79913574 18.67977539 38.8125 19.8125 C38.82325562 21.55829346 38.82325562 21.55829346 38.83422852 23.33935547 C38.87219159 27.89323756 38.93447254 32.44644627 39 37 C39.0143811 38.04512756 39.02876221 39.09025513 39.0435791 40.16705322 C39.14383682 47.41138565 39.25443473 54.655488 39.37533569 61.89950562 C39.41685022 64.3874631 39.45723127 66.87543975 39.49649048 69.36343384 C39.55369193 72.90125692 39.61761338 76.43889353 39.68359375 79.9765625 C39.70032135 81.05871536 39.71704895 82.14086823 39.73428345 83.2558136 C39.75421356 84.2472789 39.77414368 85.2387442 39.79467773 86.26025391 C39.81799416 87.56586777 39.81799416 87.56586777 39.84178162 88.89785767 C39.870843 91.05737165 39.870843 91.05737165 41 93 C52.09036351 94.14331919 52.09036351 94.14331919 62.0625 90.125 C68.04440833 84.48622217 72.65233936 77.48300614 76 70 C77.65 70 79.3 70 81 70 C81 78.91 81 87.82 81 97 C75.7654844 102.2345156 56.78635539 99.04364026 49.3761158 99.05181217 C44.79126149 99.0570378 40.20642569 99.06412967 35.62158203 99.07543945 C31.19958183 99.08627967 26.77759946 99.09227925 22.35558701 99.09487724 C20.66583856 99.09672944 18.97609113 99.10034614 17.28635025 99.10573006 C14.92541622 99.11295551 12.56455653 99.1139903 10.20361328 99.11352539 C9.14841492 99.1189183 9.14841492 99.1189183 8.07189941 99.12442017 C3.22810432 99.11405216 3.22810432 99.11405216 1 98 C1 96.68 1 95.36 1 94 C3.64 93.67 6.28 93.34 9 93 C11.03337863 88.78129756 11.25308868 85.31644789 11.25878906 80.65869141 C11.2622937 79.93768753 11.26579834 79.21668365 11.26940918 78.47383118 C11.27818313 76.09964252 11.27239154 73.725754 11.265625 71.3515625 C11.26697319 69.69395898 11.26891501 68.03635584 11.27142334 66.37875366 C11.27436898 62.90708649 11.27009609 59.43552236 11.26074219 55.96386719 C11.2493658 51.52656631 11.25589913 47.08950788 11.26788712 42.65221596 C11.27513608 39.22915848 11.27280356 35.80615785 11.26763153 32.3830986 C11.2663025 30.74772487 11.26791645 29.11234589 11.27259064 27.4769783 C11.27770395 25.18454704 11.26987802 22.89250048 11.25878906 20.60009766 C11.25719788 19.29835602 11.25560669 17.99661438 11.25396729 16.65542603 C10.98368 12.76510144 10.20038975 9.69086894 9 6 C4.545 5.01 4.545 5.01 0 4 C0 2.68 0 1.36 0 0 Z " fill="#000000" transform="translate(22,13)"/>
</svg>
