<?xml version="1.0" encoding="UTF-8"?>
<!-- Generator: visioncortex VTracer 0.6.4 -->
<svg version="1.1" xmlns="http://www.w3.org/2000/svg" width="132" height="126">
<path d="M0 0 C4.9296024 -0.02471455 9.85916874 -0.04286691 14.78881836 -0.05493164 C16.46590808 -0.05996113 18.14299342 -0.06678548 19.82006836 -0.07543945 C22.230317 -0.08756559 24.64050768 -0.09324215 27.05078125 -0.09765625 C27.80087967 -0.10281754 28.55097809 -0.10797882 29.32380676 -0.11329651 C32.48951232 -0.11363785 34.97337972 -0.00887343 38 1 C45.79233729 15.47516959 50.16184866 31.36420744 55 47 C58.82597023 38.17394538 61.4496913 29.03053051 64.07275391 19.79614258 C64.63439122 17.82657502 65.20719086 15.86050843 65.78125 13.89453125 C66.2772168 12.15973511 66.2772168 12.15973511 66.78320312 10.38989258 C68 7 68 7 72 0 C83.55 0 95.1 0 107 0 C106.67 1.65 106.34 3.3 106 5 C103.69 5.66 101.38 6.32 99 7 C97.6193764 9.76124719 97.87278347 11.98908262 97.87060547 15.0793457 C97.86587723 16.99823357 97.86587723 16.99823357 97.86105347 18.95588684 C97.8628454 20.36251866 97.86489688 21.76915016 97.8671875 23.17578125 C97.86651343 24.62151608 97.86554254 26.06725079 97.86428833 27.51298523 C97.86281106 30.55367098 97.86496341 33.59432742 97.86962891 36.63500977 C97.87527034 40.49667155 97.87208333 44.35826298 97.86605644 48.21992207 C97.8624035 51.21344002 97.86361183 54.20694194 97.86618423 57.20046043 C97.86684343 58.62154334 97.86606104 60.04262778 97.86370468 61.46370888 C97.17688589 77.17184542 97.17688589 77.17184542 101 92 C104.3 92.33 107.6 92.66 111 93 C111 94.65 111 96.3 111 98 C108.53838983 99.23080509 106.93503007 99.12043977 104.18310547 99.11352539 C103.18221893 99.11344986 102.1813324 99.11337433 101.15011597 99.11329651 C100.06674957 99.10813522 98.98338318 99.10297394 97.8671875 99.09765625 C96.76021515 99.0962413 95.6532428 99.09482635 94.51272583 99.09336853 C90.96679007 99.08775772 87.42091677 99.07520337 83.875 99.0625 C81.47526133 99.05748639 79.07552167 99.05292325 76.67578125 99.04882812 C70.78383275 99.03778478 64.89192084 99.0210361 59 99 C58.67 97.35 58.34 95.7 58 94 C63.94 93.505 63.94 93.505 70 93 C70.86815318 87.78293128 71.13895206 82.7949205 71.09375 77.51171875 C71.08837219 76.28747444 71.08837219 76.28747444 71.08288574 75.03849792 C71.01678801 64.62767643 70.75621134 54.22001081 70.5 43.8125 C70.45161758 41.77930175 70.40343947 39.74609863 70.35546875 37.71289062 C70.23932349 32.80853464 70.12045194 27.90425202 70 23 C65.63456506 36.98272413 61.38247324 50.99125961 57.3125 65.0625 C57.02644897 66.05002258 57.02644897 66.05002258 56.73461914 67.05749512 C54.93871195 73.25816147 53.15034685 79.46082591 51.390625 85.671875 C51.16076904 86.47488037 50.93091309 87.27788574 50.6940918 88.10522461 C50.28894528 89.5211232 49.88890615 90.93849901 49.49536133 92.35766602 C48.66917582 95.23137152 48.15389532 96.84610468 46 99 C44.68 99 43.36 99 42 99 C33.90908523 74.02888199 25.94497225 49.01788075 18 24 C17.89790371 30.91922282 17.82824438 37.83824869 17.78027344 44.75805664 C17.76025825 47.10806538 17.73303756 49.45802496 17.69824219 51.80786133 C17.64927876 55.20145867 17.62692941 58.59439296 17.609375 61.98828125 C17.58872986 63.02519608 17.56808472 64.0621109 17.54681396 65.13044739 C17.5439505 74.61019663 19.7100396 83.60769578 26.33984375 90.6953125 C29.0667183 92.83831509 31.61223012 93.39020142 35 94 C35 95.32 35 96.64 35 98 C31.56395235 99.71802382 27.61561104 99.1196618 23.8359375 99.09765625 C22.92872955 99.0962413 22.02152161 99.09482635 21.08682251 99.09336853 C18.18284845 99.08776096 15.27895085 99.07520718 12.375 99.0625 C10.40885528 99.05748598 8.44270935 99.0529229 6.4765625 99.04882812 C1.6510121 99.03778906 -3.17448097 99.02051935 -8 99 C-8 97.35 -8 95.7 -8 94 C-6.80375 93.7525 -5.6075 93.505 -4.375 93.25 C0.67129717 91.97279558 4.4490934 89.93863325 7.75 85.8125 C11.45676377 77.47228151 11.29420999 68.94850173 11.265625 59.98828125 C11.26697542 58.64788238 11.26891907 57.307484 11.27142334 55.96708679 C11.27435387 53.17421755 11.27014225 50.38147719 11.26074219 47.58862305 C11.24931539 44.02121707 11.25594045 40.45411105 11.26788712 36.88671589 C11.27513363 34.12509421 11.27280558 31.36354304 11.26763153 28.60191917 C11.26566312 26.65105873 11.27169908 24.70019547 11.27789307 22.74934387 C11.27158875 21.55758041 11.26528442 20.36581696 11.25878906 19.13793945 C11.25719788 18.09475052 11.25560669 17.05156158 11.25396729 15.97676086 C10.9644493 12.58330883 10.51426548 8.51426548 8 6 C6.48530552 5.76807135 4.96245438 5.58784762 3.4375 5.4375 C2.61121094 5.35371094 1.78492188 5.26992188 0.93359375 5.18359375 C0.29550781 5.12300781 -0.34257812 5.06242187 -1 5 C-0.67 3.35 -0.34 1.7 0 0 Z " fill="#000000" transform="translate(14,13)"/>
</svg>
