<?xml version="1.0" encoding="UTF-8"?>
<!-- Generator: visioncortex VTracer 0.6.4 -->
<svg version="1.1" xmlns="http://www.w3.org/2000/svg" width="122" height="133">
<path d="M0 0 C3.91665027 -0.02953391 7.83327113 -0.04697503 11.75 -0.0625 C12.84183594 -0.07087891 13.93367188 -0.07925781 15.05859375 -0.08789062 C34.74692978 -0.14614014 34.74692978 -0.14614014 39.91796875 2.484375 C42.93817887 6.13355946 45.11145523 10.0673476 47.3125 14.25 C47.79323975 15.14388428 48.27397949 16.03776855 48.76928711 16.95874023 C51.94827026 22.90509683 55.01620556 28.90443828 57.9934082 34.95410156 C62.15055566 43.39472751 66.59066423 51.68922013 71 60 C71.1245596 54.62899016 71.21478702 49.25883989 71.2746582 43.88671875 C71.29964279 42.06332738 71.33364279 40.24003452 71.37719727 38.41699219 C71.97399129 23.90041745 71.97399129 23.90041745 66 11 C62.68355281 7.59851571 59.54991616 6.26974404 55 5 C55 3.68 55 2.36 55 1 C67.54 0.67 80.08 0.34 93 0 C93.495 2.475 93.495 2.475 94 5 C92.783125 5.37125 91.56625 5.7425 90.3125 6.125 C85.23820118 8.05251634 82.45934508 10.9958252 80.06640625 15.921875 C77.41831994 22.45973402 76.85793812 28.97975503 76.99414062 36.00512695 C77.00535446 36.66617935 77.0165683 37.32723175 77.02812195 38.00831604 C77.05294697 39.42969034 77.08032098 40.85102204 77.11003113 42.27230263 C77.1569257 44.52067782 77.1968278 46.76908449 77.23498535 49.0176239 C77.31710699 53.78270615 77.40806069 58.54759852 77.5 63.3125 C77.60647723 68.8530644 77.70933797 74.39365475 77.80375671 79.93443871 C77.84331656 82.15149013 77.88912084 84.36835682 77.93518066 86.58528137 C77.95903805 87.93746426 77.98261318 89.28965217 78.00585938 90.6418457 C78.02886108 91.82430374 78.05186279 93.00676178 78.07556152 94.22505188 C78 97 78 97 77 99 C72.05 99.33 67.1 99.66 62 100 C58.83563128 96.83563128 57.21758245 94.98435379 55.1875 91.23828125 C54.67550049 90.29686279 54.16350098 89.35544434 53.63598633 88.38549805 C53.09611084 87.37140869 52.55623535 86.35731934 52 85.3125 C51.43112061 84.25393799 50.86224121 83.19537598 50.27612305 82.10473633 C45.71553204 73.53446007 41.47968748 64.8280897 37.33032227 56.05297852 C34.16732579 49.37706622 30.88805581 42.78207165 27.4375 36.25 C26.82902222 35.09794067 26.82902222 35.09794067 26.20825195 33.92260742 C24.23343221 30.21746144 22.17538101 26.59245758 20 23 C19.87261054 30.50713868 19.78540177 38.01399582 19.7253418 45.52197266 C19.70028873 48.07285987 19.66623672 50.62367595 19.62280273 53.17431641 C19.56174856 56.85336927 19.53369652 60.53146821 19.51171875 64.2109375 C19.48591232 65.34050873 19.4601059 66.47007996 19.43351746 67.63388062 C19.4306172 75.93069403 21.07925715 82.72201308 26.80644226 88.97103882 C29.93717141 91.91303117 32.57925356 93.73207597 37 94 C37 95.65 37 97.3 37 99 C23.47 99 9.94 99 -4 99 C-4 97.35 -4 95.7 -4 94 C0.455 93.01 0.455 93.01 5 92 C6.175625 90.14375 6.175625 90.14375 7.375 88.25 C8.03628906 87.20585937 8.03628906 87.20585937 8.7109375 86.140625 C9.13632812 85.43421875 9.56171875 84.7278125 10 84 C10.34804688 83.42362793 10.69609375 82.84725586 11.0546875 82.25341797 C12.27089982 79.35423416 12.32456174 76.94731147 12.4140625 73.8046875 C12.45297607 72.5470459 12.49188965 71.2894043 12.53198242 69.99365234 C12.56371346 68.6207848 12.59470038 67.24789988 12.625 65.875 C12.66171074 64.45914312 12.6985786 63.04329031 12.7355957 61.62744141 C12.98138988 51.62594414 13.12395239 41.62110462 13.17523193 31.61676025 C13.18336354 30.13086045 13.19443731 28.64497362 13.20855713 27.15911865 C13.22639685 25.07210659 13.23045283 22.98551677 13.23046875 20.8984375 C13.23457764 19.70911621 13.23868652 18.51979492 13.24291992 17.29443359 C12.98808484 13.83840894 12.38264304 11.17504335 11 8 C8.09907498 6.06604999 7.10325263 5.69868059 3.8125 5.375 C2.554375 5.25125 1.29625 5.1275 0 5 C0 3.35 0 1.7 0 0 Z " fill="#000000" transform="translate(16,12)"/>
</svg>
