<?xml version="1.0" encoding="UTF-8"?>
<!-- Generator: visioncortex VTracer 0.6.4 -->
<svg version="1.1" xmlns="http://www.w3.org/2000/svg" width="109" height="128">
<path d="M0 0 C13.81772653 11.06466906 23.23923044 22.52395909 26.05859375 40.6484375 C27.11438254 59.77445756 24.01024259 75.35215935 11.8203125 90.4140625 C4.53435203 98.23061689 -3.31848938 102.32370158 -14.0546875 102.77734375 C-22.169342 102.41498435 -27.94428745 98.88584452 -33.94140625 93.6484375 C-34.68519531 93.01035156 -35.42898437 92.37226562 -36.1953125 91.71484375 C-45.04904274 83.55023634 -51.26493449 72.8434426 -52.15893555 60.69165039 C-52.94345031 39.00183902 -50.98458987 24.02960348 -36.37890625 7.2109375 C-27.72940428 -2.05638604 -11.87035225 -7.45532146 0 0 Z M-21.94140625 4.6484375 C-23.91667715 8.5989793 -23.36459355 13.52531749 -23.5234375 17.875 C-23.56620316 19.02892242 -23.60896881 20.18284485 -23.6530304 21.37173462 C-24.06390901 33.9761939 -23.93746295 46.56366803 -23.69946289 59.17041016 C-23.62756687 63.09657981 -23.57408619 67.02274799 -23.52148438 70.94921875 C-23.4789547 73.46095619 -23.43537643 75.97267616 -23.390625 78.484375 C-23.37593674 79.65084564 -23.36124847 80.81731628 -23.34611511 82.01913452 C-23.32301773 83.09611603 -23.29992035 84.17309753 -23.27612305 85.28271484 C-23.25978317 86.22577484 -23.2434433 87.16883484 -23.22660828 88.14047241 C-22.92735438 90.77200468 -22.33402992 92.41062329 -20.94140625 94.6484375 C-17.50437694 97.19438514 -14.09094513 97.01243214 -9.94140625 96.6484375 C-7.06993631 95.27846593 -7.06993631 95.27846593 -4.94140625 93.6484375 C-2.69559714 86.4443413 -2.65126013 79.62971069 -2.67578125 72.12109375 C-2.6738678 70.81877304 -2.67195435 69.51645233 -2.66998291 68.17466736 C-2.66704583 65.42197905 -2.6712771 62.6694211 -2.68066406 59.91674805 C-2.69195798 56.44064138 -2.68536297 52.96484413 -2.67378998 49.48874855 C-1.06467399 25.81648044 -1.06467399 25.81648044 -6.94140625 3.6484375 C-9.26736571 2.48545777 -10.72863856 2.48243059 -13.31640625 2.4609375 C-14.08726563 2.44675781 -14.858125 2.43257812 -15.65234375 2.41796875 C-18.19918215 2.67439105 -19.78092134 3.29218596 -21.94140625 4.6484375 Z " fill="#000000" transform="translate(67.94140625,14.3515625)"/>
</svg>
