<?xml version="1.0" encoding="UTF-8"?>
<!-- Generator: visioncortex VTracer 0.6.4 -->
<svg version="1.1" xmlns="http://www.w3.org/2000/svg" width="113" height="122">
<path d="M0 0 C7.58150645 0.03835626 15.16260154 0.0981433 22.74371529 0.18390274 C26.26552075 0.22309852 29.78708662 0.25542117 33.30908203 0.27099609 C37.37571585 0.28930177 41.44145936 0.33937146 45.5078125 0.390625 C46.74798126 0.39185364 47.98815002 0.39308228 49.26589966 0.39434814 C61.33480392 0.59263566 72.92686203 2.56839704 82 11 C83.175625 11.99 83.175625 11.99 84.375 13 C88.08501468 17.56617191 88.4538075 22.72510019 88.30859375 28.4140625 C87.48918373 35.28051099 84.14807987 40.84888781 79.109375 45.5 C75.10210475 48.3496144 70.69968406 49.69562465 66 51 C65.23042969 51.22558594 64.46085937 51.45117188 63.66796875 51.68359375 C55.59987822 53.6765633 47.24753214 53.17222225 39 53 C38.84362704 61.73951125 39.10987535 70.45477997 39.4375 79.1875 C39.47673584 80.3108374 39.51597168 81.4341748 39.55639648 82.59155273 C39.61935913 84.17625366 39.61935913 84.17625366 39.68359375 85.79296875 C39.73858032 87.22419067 39.73858032 87.22419067 39.79467773 88.68432617 C39.85963758 91.02466708 39.85963758 91.02466708 41 93 C47.93 93.495 47.93 93.495 55 94 C55.33 95.65 55.66 97.3 56 99 C55.67 99.33 55.34 99.66 55 100 C35.2 100 15.4 100 -5 100 C-5 98.35 -5 96.7 -5 95 C-4.24074219 94.95101562 -3.48148438 94.90203125 -2.69921875 94.8515625 C-1.20841797 94.73941406 -1.20841797 94.73941406 0.3125 94.625 C1.79169922 94.52058594 1.79169922 94.52058594 3.30078125 94.4140625 C6.21528433 94.16134528 6.21528433 94.16134528 9 92 C10.16999052 88.49002843 10.13995464 85.33700453 10.12939453 81.6862793 C10.13114685 80.94445404 10.13289917 80.20262878 10.13470459 79.43832397 C10.13910899 76.98359849 10.13618916 74.52894498 10.1328125 72.07421875 C10.13348616 70.36652106 10.13445671 68.65882346 10.13571167 66.9511261 C10.13718691 63.36918222 10.13504045 59.78726325 10.13037109 56.20532227 C10.12468685 51.62219847 10.12794562 47.0391334 10.13394356 42.45601177 C10.1375649 38.92749086 10.13640313 35.39898376 10.13381577 31.87046242 C10.13315018 30.18123175 10.13396202 28.49199981 10.13629532 26.80277061 C10.13884622 24.43578165 10.13494641 22.06888633 10.12939453 19.7019043 C10.13141876 19.00818222 10.13344299 18.31446014 10.13552856 17.59971619 C10.11836188 13.63163768 9.76054618 9.89405399 9 6 C7.906875 6.020625 6.81375 6.04125 5.6875 6.0625 C2 6 2 6 -1 5 C-0.67 3.35 -0.34 1.7 0 0 Z M38 6 C38 19.2 38 32.4 38 46 C41.73965964 48.49310643 43.29070641 48.0603261 47.6875 47.625 C48.86699219 47.51414063 50.04648438 47.40328125 51.26171875 47.2890625 C54.0840737 47.31499155 54.0840737 47.31499155 55.4375 45.25 C59.30026337 39.68762075 58.22171439 32.55758239 58.25 26.0625 C58.270625 24.88236328 58.29125 23.70222656 58.3125 22.48632812 C58.31765625 21.34744141 58.3228125 20.20855469 58.328125 19.03515625 C58.3374707 17.9975415 58.34681641 16.95992676 58.35644531 15.89086914 C57.82830946 11.60754272 56.00843501 9.00843501 53 6 C51.00403779 5.49898096 51.00403779 5.49898096 48.75 5.3125 C48.00234375 5.22613281 47.2546875 5.13976562 46.484375 5.05078125 C43.39493201 4.91119645 43.39493201 4.91119645 38 6 Z " fill="#000000" transform="translate(17,9)"/>
</svg>
