<?xml version="1.0" encoding="UTF-8"?>
<!-- Generator: visioncortex VTracer 0.6.4 -->
<svg version="1.1" xmlns="http://www.w3.org/2000/svg" width="104" height="154">
<path d="M0 0 C10.8093807 10.24763336 15.7484655 23.51172146 16.27368164 38.21777344 C16.56772953 57.87274826 11.20968816 72.1326268 -2.0625 86.625 C-2.79339844 87.36878906 -3.52429688 88.11257812 -4.27734375 88.87890625 C-6.22794078 91.18415728 -7.16940002 93.21571262 -8.125 96.0625 C-5.54077541 95.94831333 -2.95820487 95.82157638 -0.375 95.6875 C0.35460937 95.6565625 1.08421875 95.625625 1.8359375 95.59375 C5.70351704 95.38279112 8.50064192 94.93207677 11.875 93.0625 C13.195 93.0625 14.515 93.0625 15.875 93.0625 C16.23974403 96.32203792 16.11459302 97.71528837 14.22265625 100.45703125 C-1.3828479 116.96952197 -1.3828479 116.96952197 -7.47314453 117.17602539 C-8.90137697 117.17586688 -10.32961542 117.17020735 -11.7578125 117.16015625 C-12.50964813 117.1587413 -13.26148376 117.15732635 -14.03610229 117.15586853 C-16.4407751 117.15026465 -18.84535527 117.13771157 -21.25 117.125 C-22.87890491 117.1199855 -24.50781127 117.1154225 -26.13671875 117.11132812 C-30.13284827 117.10029397 -34.12890842 117.08302679 -38.125 117.0625 C-38.125 115.4125 -38.125 113.7625 -38.125 112.0625 C-37.16078125 111.31484375 -36.1965625 110.5671875 -35.203125 109.796875 C-33.92697191 108.80222627 -32.65093644 107.80742663 -31.375 106.8125 C-30.74078125 106.32136719 -30.1065625 105.83023438 -29.453125 105.32421875 C-26.13812568 102.73437553 -23.01907236 100.13197068 -20.125 97.0625 C-20.87523437 96.91554688 -21.62546875 96.76859375 -22.3984375 96.6171875 C-32.28796655 94.44996073 -40.34756395 90.78124661 -47.125 83.0625 C-47.60453125 82.59714844 -48.0840625 82.13179688 -48.578125 81.65234375 C-58.99071107 70.95051918 -60.57774185 54.3983526 -60.55883789 40.18383789 C-60.23174256 24.72077942 -54.35311049 10.42297553 -43.75 -0.9375 C-30.05768499 -13.81340781 -13.70663496 -11.27176566 0 0 Z M-30.125 -1.9375 C-35.44669093 6.85060154 -33.22119532 20.20745366 -33.07421875 30.15234375 C-33.05493264 31.67020891 -33.03587882 33.18807704 -33.01704407 34.70594788 C-32.97639861 37.86173388 -32.93121968 41.01741587 -32.88305664 44.1730957 C-32.82206469 48.21002586 -32.77532405 52.24698487 -32.73222637 56.28414059 C-32.69685533 59.40780727 -32.65263095 62.53130245 -32.60587502 65.65481758 C-32.58490172 67.14387615 -32.56697829 68.63298104 -32.5522213 70.12211418 C-32.53059314 72.19877081 -32.49668583 74.27488574 -32.4597168 76.35131836 C-32.44337692 77.52979843 -32.42703705 78.7082785 -32.41020203 79.92247009 C-32.12346535 83.07939631 -31.603449 85.2673258 -30.125 88.0625 C-26.06104723 90.77180184 -22.889675 90.68215896 -18.125 90.0625 C-14.97956789 89.01382461 -14.97956789 89.01382461 -13.125 86.0625 C-10.76036082 77.25902602 -10.89880089 68.281056 -11.078125 59.2421875 C-11.09930007 57.84840912 -11.11977309 56.45461992 -11.1395874 55.06082153 C-11.18323233 52.16131155 -11.23448317 49.26206992 -11.29150391 46.36279297 C-11.36355325 42.67390727 -11.41754013 38.98502196 -11.46596146 35.2957592 C-11.50545609 32.4249281 -11.55398198 29.55430262 -11.60518646 26.6836586 C-11.63970204 24.67100657 -11.66726712 22.65823912 -11.69464111 20.64547729 C-11.68120854 10.15409587 -11.68120854 10.15409587 -14.125 0.0625 C-18.41409939 -3.74246741 -25.2096091 -5.90762342 -30.125 -1.9375 Z " fill="#000000" transform="translate(73.125,27.9375)"/>
</svg>
