<?xml version="1.0" encoding="UTF-8"?>
<!-- Generator: visioncortex VTracer 0.6.4 -->
<svg version="1.1" xmlns="http://www.w3.org/2000/svg" width="129" height="120">
<path d="M0 0 C7.38952521 -0.04658928 14.77901811 -0.08200308 22.16866112 -0.10362434 C25.60093799 -0.1140078 29.03311348 -0.12806596 32.46533203 -0.15087891 C36.42218766 -0.17701074 40.37900397 -0.18651771 44.3359375 -0.1953125 C45.55300385 -0.20563507 46.77007019 -0.21595764 48.02401733 -0.22659302 C59.14641393 -0.22804088 71.06632014 0.67063168 79.703125 8.5546875 C84.81950088 14.46498378 84.52532813 20.54628764 84 28 C82.25271777 33.44740931 78.4726408 37.51345324 74 41 C71.34277196 42.31932301 68.85937978 43.14720252 66 44 C67.08667969 44.63615234 67.08667969 44.63615234 68.1953125 45.28515625 C76.70904121 50.45015167 82.84538736 54.94435555 85.48828125 64.84375 C86.28443765 69.75439406 86.46175175 74.69615714 86.53442383 79.66723633 C86.65472931 84.24726101 87.05247167 87.26501925 90 91 C92.27592463 92.13796231 93.97383275 92.27034843 96.5 92.5 C100.77777778 92.88888889 100.77777778 92.88888889 103 94 C102.67 95.65 102.34 97.3 102 99 C97.69504985 99.09935088 93.39071817 99.17169268 89.08496094 99.21972656 C87.62227748 99.23976332 86.15967334 99.26700104 84.69726562 99.30175781 C82.5870399 99.35063225 80.47787864 99.37304659 78.3671875 99.390625 C77.09987793 99.41157227 75.83256836 99.43251953 74.52685547 99.45410156 C69.32603663 98.78446824 65.52441848 96.11066806 62.25 92.0625 C58.62013598 87.12185175 57.74539072 83.21730568 57.4375 77.125 C57.36273438 75.81015625 57.28796875 74.4953125 57.2109375 73.140625 C57.10382449 71.06715288 56.99967567 68.99354378 56.89550781 66.91992188 C56.79139774 64.90458004 56.67706561 62.88977452 56.5625 60.875 C56.50191406 59.67617187 56.44132812 58.47734375 56.37890625 57.2421875 C56.0163188 54.13963511 55.31268499 51.8166925 54 49 C51.03650719 48.01216906 49.0287337 47.86589475 45.9375 47.875 C45.05964844 47.87242188 44.18179688 47.86984375 43.27734375 47.8671875 C40.96801734 47.85166576 40.96801734 47.85166576 39 49 C37.18759381 70.98726519 37.18759381 70.98726519 41 92 C45.29 92.33 49.58 92.66 54 93 C54.33 94.65 54.66 96.3 55 98 C49.65136811 98.14567806 44.30265796 98.28789763 38.95385742 98.42724609 C37.14361233 98.47485469 35.33338961 98.52332309 33.52319336 98.57275391 C21.01206762 98.91361861 8.51572539 99.06449096 -4 99 C-4.042721 97.33388095 -4.04063832 95.66617115 -4 94 C-2.35696827 92.35696827 -0.31992705 92.68137147 1.9375 92.5 C5.60557465 92.24785057 5.60557465 92.24785057 9 91 C10.69803785 84.38978121 11.1453347 77.98726288 11.0859375 71.203125 C11.08193939 70.34380371 11.07794128 69.48448242 11.07382202 68.59912109 C11.05693373 65.7326282 11.02994013 62.86638542 11 60 C10.98972778 58.98272827 10.97945557 57.96545654 10.96887207 56.9173584 C10.89815965 50.39394865 10.79981505 43.87136648 10.68261719 37.34863281 C10.64371399 35.08763151 10.60898483 32.82655508 10.578125 30.56542969 C10.53266696 27.25172816 10.47478766 23.93845257 10.4140625 20.625 C10.40251129 19.61469727 10.39096008 18.60439453 10.37905884 17.56347656 C10.35918915 16.62729492 10.33931946 15.69111328 10.31884766 14.7265625 C10.30552399 13.90752441 10.29220032 13.08848633 10.2784729 12.24462891 C9.97392286 9.78980539 9.22584032 8.13204225 8 6 C5.36 5.34 2.72 4.68 0 4 C0 2.68 0 1.36 0 0 Z M38 6 C38 17.55 38 29.1 38 41 C40.12616812 43.12616812 45.06199408 42.12603308 47.9296875 42.1328125 C51.2574537 41.98886333 53.95433644 41.35362825 57 40 C58.21298921 35.23537838 58.18370055 30.56979127 58.1875 25.6875 C58.20586914 24.46256836 58.20586914 24.46256836 58.22460938 23.21289062 C58.30118441 13.98642431 58.30118441 13.98642431 54.2578125 6.015625 C51.32922868 4.69826896 49.07724546 4.67132075 45.875 4.75 C44.29332031 4.77320313 44.29332031 4.77320313 42.6796875 4.796875 C40.02899832 4.82786372 40.02899832 4.82786372 38 6 Z " fill="#000000" transform="translate(13,7)"/>
</svg>
