<?xml version="1.0" encoding="UTF-8"?>
<!-- Generator: visioncortex VTracer 0.6.4 -->
<svg version="1.1" xmlns="http://www.w3.org/2000/svg" width="103" height="128">
<path d="M0 0 C0.83297607 0.00443115 1.66595215 0.0088623 2.52416992 0.01342773 C8.93601973 0.19715368 13.82245784 1.83929767 19.65625 4.515625 C25.43561135 6.43254188 30.85668385 5.34457687 36.8125 4.5625 C36.8125 13.1425 36.8125 21.7225 36.8125 30.5625 C35.1625 30.5625 33.5125 30.5625 31.8125 30.5625 C31.4 29.70527344 30.9875 28.84804688 30.5625 27.96484375 C25.64765643 18.23389231 20.50088226 11.41272131 10.1015625 7.28515625 C2.88148028 5.00577876 -2.39015877 5.10420359 -9.1875 8.5625 C-11.69916813 11.38812664 -11.59261875 14.82313482 -11.5234375 18.53125 C-10.9860378 21.78064356 -9.14760294 23.98986489 -7.1875 26.5625 C-7.1875 27.2225 -7.1875 27.8825 -7.1875 28.5625 C-6.4759375 28.84480469 -5.764375 29.12710938 -5.03125 29.41796875 C-2.23744479 30.54239859 0.53758758 31.70481029 3.3125 32.875 C7.62864518 34.69148809 11.97123 36.34710392 16.375 37.9375 C22.77641417 40.3830702 28.23761522 43.60468917 33.8125 47.5625 C34.493125 47.99949219 35.17375 48.43648437 35.875 48.88671875 C41.87853197 53.19528803 44.09728963 59.57206484 45.8125 66.5625 C46.94523107 76.71392798 45.86982264 84.4459727 40 92.75 C34.36784475 99.79019406 28.36649446 103.74873363 19.3684082 104.8659668 C16.862606 104.99861081 14.38405033 105.02941047 11.875 105 C10.99908203 104.99532715 10.12316406 104.9906543 9.22070312 104.98583984 C2.74926403 104.83766654 -2.51103329 103.80281642 -8.1875 100.5625 C-11.4822069 98.83262606 -13.41448013 97.94828746 -17.1875 98.5625 C-19.02365803 99.77394219 -20.73579838 101.10001843 -22.47265625 102.44921875 C-24.76737188 103.93895441 -26.51895129 103.96682556 -29.1875 103.5625 C-29.5175 103.2325 -29.8475 102.9025 -30.1875 102.5625 C-30.1875 92.0025 -30.1875 81.4425 -30.1875 70.5625 C-28.5375 70.5625 -26.8875 70.5625 -25.1875 70.5625 C-24.7028125 71.32433594 -24.218125 72.08617188 -23.71875 72.87109375 C-15.59304616 85.38780293 -8.7222775 93.71757417 5.8125 98.5625 C11.94015548 99.19097749 17.36306886 98.53026532 22.8125 95.5625 C25.5922423 93.13022549 25.77635055 91.88784505 26.1875 88.1875 C25.61239181 82.62812082 23.88025023 79.72957583 20.125 75.625 C13.1313628 69.95851357 3.52934564 66.62204115 -5 64 C-14.36821005 61.04444616 -23.20206004 55.98551791 -28.46484375 47.50390625 C-32.70586124 39.03696385 -33.14330841 30.26217554 -30.3359375 21.2734375 C-26.43865035 12.07371884 -20.31440753 5.8056612 -11.45043945 1.43554688 C-7.65009882 -0.03063266 -4.03434955 -0.07213765 0 0 Z " fill="#000000" transform="translate(48.1875,9.4375)"/>
</svg>
