<?xml version="1.0" encoding="UTF-8"?>
<!-- Generator: visioncortex VTracer 0.6.4 -->
<svg version="1.1" xmlns="http://www.w3.org/2000/svg" width="109" height="121">
<path d="M0 0 C0.84304687 0.04769531 1.68609375 0.09539063 2.5546875 0.14453125 C4.57832749 0.25951079 6.60169877 0.3792059 8.625 0.5 C10.00808781 3.26617563 9.73710196 5.51018 9.72265625 8.6015625 C9.71782227 10.41914063 9.71782227 10.41914063 9.71289062 12.2734375 C9.70032227 14.17996094 9.70032227 14.17996094 9.6875 16.125 C9.68298828 17.40375 9.67847656 18.6825 9.67382812 20 C9.66201203 23.16671292 9.64553815 26.33333356 9.625 29.5 C7.975 29.5 6.325 29.5 4.625 29.5 C4.31796143 28.98091064 4.01092285 28.46182129 3.69458008 27.92700195 C2.28320689 25.55085911 0.86048482 23.18170578 -0.5625 20.8125 C-1.04525391 19.99587891 -1.52800781 19.17925781 -2.02539062 18.33789062 C-4.7486548 13.82348625 -7.29660057 9.88077847 -11.375 6.5 C-15.05941504 5.61472891 -15.05941504 5.61472891 -18.375 5.5 C-20.4848657 7.6098657 -19.39436162 13.55207013 -19.39546204 16.53385925 C-19.38542077 28.02292251 -19.28671784 39.51113671 -19.13928032 50.99917793 C-19.09416027 54.53336707 -19.05488722 58.0674232 -19.02856445 61.60180664 C-19.0025107 65.07986718 -18.9621726 68.55749333 -18.91181374 72.03528404 C-18.8872821 73.9749877 -18.87714941 75.9148565 -18.86735535 77.85469055 C-18.83766411 79.62395149 -18.83766411 79.62395149 -18.80737305 81.42895508 C-18.79071846 82.97514275 -18.79071846 82.97514275 -18.77372742 84.55256653 C-18.30588461 88.01090795 -17.07534468 90.47493192 -15.375 93.5 C-11.415 93.83 -7.455 94.16 -3.375 94.5 C-3.375 95.82 -3.375 97.14 -3.375 98.5 C-16.38847986 99.50935578 -29.39235394 99.61162067 -42.4375 99.625 C-43.30417297 99.62749756 -44.17084595 99.62999512 -45.06378174 99.63256836 C-47.55428069 99.63845286 -50.04465595 99.6369695 -52.53515625 99.6328125 C-53.67621071 99.63578842 -53.67621071 99.63578842 -54.84031677 99.63882446 C-60.14451887 99.61524056 -60.14451887 99.61524056 -62.375 98.5 C-62.375 97.18 -62.375 95.86 -62.375 94.5 C-57.755 94.17 -53.135 93.84 -48.375 93.5 C-47.46946874 88.97234369 -47.23979051 84.88575265 -47.26147461 80.31323242 C-47.26132858 79.50295593 -47.26118256 78.69267944 -47.2610321 77.85784912 C-47.26172653 75.19036138 -47.26949688 72.52294423 -47.27734375 69.85546875 C-47.2792096 68.0017348 -47.28063272 66.14800036 -47.28163147 64.29426575 C-47.28544349 59.42317333 -47.29526254 54.55211088 -47.30633545 49.68103027 C-47.31657785 44.70727951 -47.32113515 39.7335239 -47.32617188 34.75976562 C-47.336886 25.00649727 -47.35394662 15.25325113 -47.375 5.5 C-48.82147752 5.79009787 -50.26623222 6.08879493 -51.71020508 6.39111328 C-52.91728874 6.63923264 -52.91728874 6.63923264 -54.14875793 6.8923645 C-60.27146387 8.56350958 -64.23087559 14.53427185 -67.2734375 19.76171875 C-68.72685386 22.64466904 -70.09613308 25.53603785 -71.375 28.5 C-73.025 28.83 -74.675 29.16 -76.375 29.5 C-76.375 19.93 -76.375 10.36 -76.375 0.5 C-69.22577046 0.35629689 -62.0765338 0.21346154 -54.92724609 0.07275391 C-52.50080394 0.02474702 -50.07437134 -0.02374524 -47.64794922 -0.07275391 C-12.82334433 -0.77526755 -12.82334433 -0.77526755 0 0 Z " fill="#000000" transform="translate(91.375,9.5)"/>
</svg>
