<?xml version="1.0" encoding="UTF-8"?>
<!-- Generator: visioncortex VTracer 0.6.4 -->
<svg version="1.1" xmlns="http://www.w3.org/2000/svg" width="118" height="123">
<path d="M0 0 C11.17817692 -0.06811347 22.32830826 0.12951657 33.5 0.5 C35.0169197 0.54840887 36.53384679 0.59658686 38.05078125 0.64453125 C41.70060933 0.76037619 45.35032932 0.87928605 49 1 C49 2.32 49 3.64 49 5 C48.43410156 5.20496094 47.86820313 5.40992188 47.28515625 5.62109375 C46.18494141 6.02521484 46.18494141 6.02521484 45.0625 6.4375 C44.33160156 6.70433594 43.60070313 6.97117187 42.84765625 7.24609375 C41.01694322 7.85386948 41.01694322 7.85386948 40 9 C39.95339812 18.29348171 39.91799062 27.58692241 39.89637566 36.88049603 C39.88599493 41.19714714 39.87194178 45.51371757 39.84912109 49.83032227 C39.82718685 54.00599255 39.81538859 58.18158584 39.81024551 62.35730934 C39.80658631 63.9402875 39.79944239 65.52326205 39.78853989 67.10620689 C39.72600422 76.57332951 40.20375875 85.66612657 42 95 C46.56475204 97.28237602 51.97588612 96.20707468 56.6875 94.8125 C62.00009074 92.84656711 64.87060193 90.0484449 67.61230469 85.07568359 C69.74386501 79.89872426 69.39028469 74.55155243 69.328125 69.0390625 C69.32531525 67.32135147 69.32531525 67.32135147 69.32244873 65.56893921 C69.31574442 63.15335161 69.30186234 60.73777458 69.28125 58.32226562 C69.2501642 54.64442727 69.2402802 50.96701913 69.234375 47.2890625 C69.22520069 44.93489066 69.21482357 42.58072315 69.203125 40.2265625 C69.19887512 39.13566315 69.19462524 38.04476379 69.19024658 36.92080688 C69.3149374 23.24456937 69.3149374 23.24456937 64 11 C60.92122756 8.17370092 57.96349152 6.32116384 54 5 C54.33 3.35 54.66 1.7 55 0 C67.87 0 80.74 0 94 0 C93.67 1.65 93.34 3.3 93 5 C91.9275 5.2475 90.855 5.495 89.75 5.75 C86.00350563 6.99883146 84.47926118 8.02488658 82 11 C81.34 11 80.68 11 80 11 C79.690625 11.78375 79.38125 12.5675 79.0625 13.375 C78 16 78 16 77 18 C76.89989159 20.08162673 76.86439638 22.16646511 76.8581543 24.25048828 C76.85111984 25.56590607 76.84408539 26.88132385 76.83683777 28.23660278 C76.83502188 28.94229527 76.83320599 29.64798775 76.83133507 30.37506485 C76.82416451 32.58704329 76.80849112 34.79880054 76.78999329 37.01071167 C76.73757028 43.30072891 76.68960889 49.59062868 76.67407227 55.88085938 C76.66394604 59.72838453 76.63449968 63.57535815 76.59275246 67.42266464 C76.58049707 68.88412157 76.57531117 70.34565664 76.57755089 71.80716324 C76.58808683 80.93145397 76.47321839 88.25392356 69.88671875 95.2421875 C69.16097656 95.78101562 68.43523437 96.31984375 67.6875 96.875 C66.96949219 97.42929688 66.25148438 97.98359375 65.51171875 98.5546875 C56.03102463 104.01014135 42.26984849 103.30506919 31.7578125 101.41796875 C24.26333927 98.79610032 17.2957612 92.88353255 13.27734375 86.0859375 C11.18247177 81.0249318 10.87605309 76.18958715 10.91821289 70.75439453 C10.9247438 69.53938263 10.93127472 68.32437073 10.93800354 67.07254028 C10.95515663 65.12237503 10.95515663 65.12237503 10.97265625 63.1328125 C10.97961191 61.7705012 10.98581984 60.40818589 10.99131775 59.04586792 C11.01564194 53.28489592 11.05121316 47.5240325 11.09594727 41.76318359 C11.12287977 38.22902003 11.13982402 34.69491854 11.15081596 31.16067123 C11.15995956 29.17551582 11.18032801 27.19042221 11.20094299 25.20535278 C11.21870969 18.78323573 11.0258717 13.11943894 9 7 C7.50256881 5.50256881 6.01175761 5.66797307 3.9375 5.4375 C2.638125 5.293125 1.33875 5.14875 0 5 C0 3.35 0 1.7 0 0 Z " fill="#000000" transform="translate(9,14)"/>
</svg>
