<?xml version="1.0" encoding="UTF-8"?>
<!-- Generator: visioncortex VTracer 0.6.4 -->
<svg version="1.1" xmlns="http://www.w3.org/2000/svg" width="121" height="142">
<path d="M0 0 C15.51 0 31.02 0 47 0 C47.495 2.475 47.495 2.475 48 5 C46.02 5.33 44.04 5.66 42 6 C44.0302416 13.96509751 46.54658635 21.6601741 49.375 29.375 C49.77275635 30.46683594 50.1705127 31.55867188 50.58032227 32.68359375 C51.71524364 35.79091263 52.85722682 38.89556242 54 42 C54.28762207 42.79051758 54.57524414 43.58103516 54.87158203 44.39550781 C55.55246613 46.26651234 56.24429683 48.13352459 56.9375 50 C57.47697266 51.4540625 57.47697266 51.4540625 58.02734375 52.9375 C58.8190283 55.16710893 58.8190283 55.16710893 61 56 C68.9129874 37.07292434 68.9129874 37.07292434 69 17 C67.14047534 12.669964 64.86419249 8.96245769 60.6015625 6.76171875 C58.40715548 6.03140348 56.26933636 5.43873836 54 5 C54.33 3.35 54.66 1.7 55 0 C68.53 0 82.06 0 96 0 C95.67 1.65 95.34 3.3 95 5 C93.01432292 5.390625 91.02864583 5.78125 89.04296875 6.171875 C86.26687149 7.29717637 85.52899869 8.41407053 84 11 C82.89888392 13.63742127 81.89262608 16.24805853 80.9375 18.9375 C80.49241089 20.16521118 80.49241089 20.16521118 80.03833008 21.41772461 C76.88834611 30.17088373 73.91941062 38.98739045 70.91503906 47.79125977 C67.6368109 57.32504708 64.09129346 66.73412744 60.41674805 76.12133789 C57.67103721 83.15932098 55.16822667 90.22044314 52.9375 97.4375 C52 100 52 100 50 102 C48.35 101.67 46.7 101.34 45 101 C42.67848139 95.76059739 40.70732242 90.46941629 38.84765625 85.05078125 C35.16020257 74.41536307 31.36522526 63.82057301 27.53833008 53.23461914 C26.43248246 50.17361135 25.3304755 47.1112373 24.22851562 44.04882812 C17.91731161 24.92044259 17.91731161 24.92044259 9 7 C5.7 6.34 2.4 5.68 -1 5 C-0.67 3.35 -0.34 1.7 0 0 Z " fill="#000000" transform="translate(16,24)"/>
</svg>
