<?xml version="1.0" encoding="UTF-8"?>
<!-- Generator: visioncortex VTracer 0.6.4 -->
<svg version="1.1" xmlns="http://www.w3.org/2000/svg" width="166" height="135">
<path d="M0 0 C-0.33 1.65 -0.66 3.3 -1 5 C-3.31 5 -5.62 5 -8 5 C-6.2641244 9.8726468 -4.52230026 14.74311454 -2.77539062 19.61181641 C-2.1843104 21.26164825 -1.59474233 22.9120228 -1.00683594 24.56298828 C2.66493626 34.87026688 6.5388438 45.0056268 11 55 C14.52009489 50.66142259 15.94159192 46.05751403 17.6875 40.8125 C18.00783203 39.90435547 18.32816406 38.99621094 18.65820312 38.06054688 C21.44817095 29.75013097 22.32839024 22.86841034 18.8125 14.625 C18.40644531 13.62726562 18.00039062 12.62953125 17.58203125 11.6015625 C14.67145533 6.8152821 10.17066449 5.56322415 5 4 C5 2.68 5 1.36 5 0 C10.11607081 -0.84325776 15.08142603 -1.14733438 20.26953125 -1.1328125 C21.41285164 -1.13424759 21.41285164 -1.13424759 22.57926941 -1.13571167 C24.17678918 -1.13638773 25.77431179 -1.1345738 27.37182617 -1.13037109 C29.82281574 -1.1249773 32.27362516 -1.13035446 34.72460938 -1.13671875 C36.2812504 -1.13605859 37.83789132 -1.13477873 39.39453125 -1.1328125 C40.12783157 -1.13483673 40.8611319 -1.13686096 41.61665344 -1.13894653 C46.77002642 -1.11498679 46.77002642 -1.11498679 49 0 C48.67 1.65 48.34 3.3 48 5 C46.948125 5.04125 45.89625 5.0825 44.8125 5.125 C40.19675208 6.18435198 38.5210362 8.21335757 36 12 C34.44424659 15.26393341 34.44424659 15.26393341 33.25 18.875 C32.74306478 20.29718801 32.23519088 21.71904165 31.7265625 23.140625 C31.45360352 23.91470703 31.18064453 24.68878906 30.89941406 25.48632812 C29.2046888 30.2227264 27.40341284 34.91954526 25.625 39.625 C22.29767888 48.47778832 19.03906109 57.3537295 15.81787109 66.24560547 C11.71513954 77.56270242 7.55434488 88.85525016 3 100 C1.35 100.33 -0.3 100.66 -2 101 C-4.75676576 96.79882105 -6.44001308 92.50972355 -8.125 87.8125 C-8.41922852 87.00530518 -8.71345703 86.19811035 -9.01660156 85.36645508 C-10.84320362 80.32063218 -12.60778817 75.25468189 -14.3515625 70.1796875 C-14.94880127 68.44174927 -14.94880127 68.44174927 -15.55810547 66.66870117 C-16.34035299 64.38396798 -17.11817238 62.0977129 -17.89111328 59.80981445 C-19.64123107 54.68022624 -21.37957546 49.75159259 -24 45 C-24.19634033 45.57443848 -24.39268066 46.14887695 -24.5949707 46.74072266 C-25.4964936 49.37031896 -26.40443967 51.99765442 -27.3125 54.625 C-27.62123047 55.52863281 -27.92996094 56.43226562 -28.24804688 57.36328125 C-29.89224451 62.10549338 -31.72149645 66.52023032 -34 71 C-34.64887525 72.94397729 -35.25185065 74.90376711 -35.8125 76.875 C-38.14836875 84.73697068 -41.05442821 92.35133191 -44 100 C-46.475 100.495 -46.475 100.495 -49 101 C-54.1330454 93.04377963 -57.06843505 84.16934886 -60.0625 75.25 C-66.29608775 56.98557474 -73.04016 38.88957482 -80.4375 21.0625 C-80.74308838 20.31814697 -81.04867676 19.57379395 -81.36352539 18.80688477 C-83.18219308 14.51201172 -85.29333843 10.80122362 -88 7 C-91.3 6.34 -94.6 5.68 -98 5 C-98 3.35 -98 1.7 -98 0 C-92.96463223 -0.07432418 -87.92958592 -0.12868401 -82.89379883 -0.16479492 C-81.18182816 -0.1798534 -79.46989589 -0.20030455 -77.75805664 -0.22631836 C-75.29303495 -0.2628319 -72.82852465 -0.27975562 -70.36328125 -0.29296875 C-69.22080681 -0.31619453 -69.22080681 -0.31619453 -68.05525208 -0.33988953 C-63.51290472 -0.34131833 -60.56485239 0.11379385 -57 3 C-53.41343126 7.93415174 -51.75741391 14.32293755 -49.875 20.0625 C-47.15501349 28.1050997 -44.02392245 35.90819038 -40.625 43.6875 C-40.18397949 44.69756104 -39.74295898 45.70762207 -39.28857422 46.74829102 C-37.61292235 51.17139515 -37.61292235 51.17139515 -35 55 C-34.82984375 54.47792969 -34.6596875 53.95585938 -34.484375 53.41796875 C-34.12085937 52.31388672 -34.12085937 52.31388672 -33.75 51.1875 C-33.3478125 49.96353516 -33.3478125 49.96353516 -32.9375 48.71484375 C-32.28962609 46.83870888 -31.59913057 44.9769478 -30.875 43.12890625 C-30.50375 42.17886719 -30.1325 41.22882812 -29.75 40.25 C-29.39421875 39.36828125 -29.0384375 38.4865625 -28.671875 37.578125 C-27.15290006 31.74950022 -30.39655295 25.92866974 -32.4375 20.5 C-32.75009766 19.65824219 -33.06269531 18.81648438 -33.38476562 17.94921875 C-34.87560739 13.94632436 -36.38694111 9.95564189 -38 6 C-40.97 5.67 -43.94 5.34 -47 5 C-47.495 2.525 -47.495 2.525 -48 0 C-43.57525999 -0.17067352 -39.15028645 -0.33082005 -34.72485352 -0.48217773 C-33.22670829 -0.53478631 -31.72865258 -0.59002577 -30.23071289 -0.64819336 C-20.06618705 -1.04058022 -10.13929902 -0.88970517 0 0 Z " fill="#000000" transform="translate(114,19)"/>
</svg>
