<?xml version="1.0" encoding="UTF-8"?>
<!-- Generator: visioncortex VTracer 0.6.4 -->
<svg version="1.1" xmlns="http://www.w3.org/2000/svg" width="123" height="126">
<path d="M0 0 C15.51 0 31.02 0 47 0 C47.495 2.475 47.495 2.475 48 5 C47.67 5.33 47.34 5.66 47 6 C45.35 6 43.7 6 42 6 C43.12772823 12.67173487 45.2394966 18.09359288 48.5 24 C48.90347656 24.76183594 49.30695313 25.52367188 49.72265625 26.30859375 C51.65396161 30.33996683 51.65396161 30.33996683 55 33 C60.43344734 25.23556777 60.43344734 25.23556777 61 16 C59.84766876 13.51497262 58.46155311 11.32935026 57 9 C57 8.34 57 7.68 57 7 C54.69 6.34 52.38 5.68 50 5 C50 3.68 50 2.36 50 1 C54.81688573 0.04327339 59.49762549 -0.14601481 64.390625 -0.1328125 C65.56936188 -0.13424759 65.56936188 -0.13424759 66.77191162 -0.13571167 C68.42248617 -0.13638886 70.07306345 -0.13456691 71.72363281 -0.13037109 C74.25591948 -0.12498742 76.78803109 -0.13034638 79.3203125 -0.13671875 C80.92708373 -0.13605845 82.53385484 -0.13477828 84.140625 -0.1328125 C84.89893616 -0.13483673 85.65724731 -0.13686096 86.4385376 -0.13894653 C91.77003915 -0.11498043 91.77003915 -0.11498043 94 1 C94 2.32 94 3.64 94 5 C92.72125 5.144375 91.4425 5.28875 90.125 5.4375 C78.34404064 8.1661103 72.12098487 19.7791411 66.10449219 29.29394531 C63.91903437 32.66971437 61.46274308 35.82435761 59 39 C59.52808034 44.75329632 61.82431017 49.14294581 64.4375 54.1875 C65.10313965 55.49231323 65.10313965 55.49231323 65.78222656 56.82348633 C67.179401 59.55358881 68.58920447 62.27691593 70 65 C70.89197436 66.73955909 71.7839026 68.47914184 72.67578125 70.21875 C78.69219158 82.88250392 78.69219158 82.88250392 87 94 C88.84891946 94.23363881 90.70488031 94.41303635 92.5625 94.5625 C94.08037109 94.68818359 94.08037109 94.68818359 95.62890625 94.81640625 C96.41136719 94.87699219 97.19382812 94.93757813 98 95 C98 96.65 98 98.3 98 100 C80.84 100 63.68 100 46 100 C46.33 98.35 46.66 96.7 47 95 C48.98 94.505 48.98 94.505 51 94 C50.39458825 90.30090527 49.34742345 87.28645598 47.71484375 83.91796875 C47.26689453 82.98662109 46.81894531 82.05527344 46.35742188 81.09570312 C45.88884766 80.13599609 45.42027344 79.17628906 44.9375 78.1875 C44.46505859 77.20845703 43.99261719 76.22941406 43.50585938 75.22070312 C42.34229316 72.81129833 41.17353704 70.40455993 40 68 C35.78517845 69.40494052 35.01112567 71.77871223 33.02734375 75.6015625 C31.53795767 79.07868438 31.33269473 81.2630905 32 85 C34.00390491 89.60974323 35.76825577 93.17883718 40 96 C40 97.32 40 98.64 40 100 C25.48 100 10.96 100 -4 100 C-4 98.35 -4 96.7 -4 95 C-3.2265625 94.93683594 -2.453125 94.87367187 -1.65625 94.80859375 C8.90734985 93.56658634 13.14480805 89.66423776 19.65820312 81.5703125 C25.28531692 74.38822527 30.19255668 66.74532535 35 59 C29.71526038 45.58489173 23.11177276 32.91294365 16.25 20.25 C15.56043213 18.96319336 15.56043213 18.96319336 14.85693359 17.65039062 C11.1951812 10.58418131 11.1951812 10.58418131 4.859375 6.171875 C4.16328125 6.03265625 3.4671875 5.8934375 2.75 5.75 C1.5125 5.5025 0.275 5.255 -1 5 C-0.67 3.35 -0.34 1.7 0 0 Z " fill="#000000" transform="translate(16,5)"/>
</svg>
