<?xml version="1.0" encoding="UTF-8"?>
<!-- Generator: visioncortex VTracer 0.6.4 -->
<svg version="1.1" xmlns="http://www.w3.org/2000/svg" width="105" height="126">
<path d="M0 0 C15.18 0 30.36 0 46 0 C46 1.65 46 3.3 46 5 C45.01 5.66 44.02 6.32 43 7 C45.0284936 14.77427966 48.0421239 21.79271227 51.5625 29 C52.05685547 30.03511719 52.55121094 31.07023437 53.06054688 32.13671875 C55.4748415 37.44907106 55.4748415 37.44907106 59 42 C59.98065487 39.72979898 60.9595769 37.45887746 61.9375 35.1875 C62.21529297 34.54490234 62.49308594 33.90230469 62.77929688 33.24023438 C65.5421836 26.81569055 67.63618466 20.88050511 65.31640625 13.9609375 C63.06113475 9.56269017 60.57748955 7.64789624 56 6 C52.7633037 5.29241674 52.7633037 5.29241674 50 5 C50 3.35 50 1.7 50 0 C64.85 0 79.7 0 95 0 C95 1.65 95 3.3 95 5 C94.25234375 5.23074219 93.5046875 5.46148438 92.734375 5.69921875 C91.74953125 6.02535156 90.7646875 6.35148437 89.75 6.6875 C88.77546875 7.00074219 87.8009375 7.31398438 86.796875 7.63671875 C81.08024726 10.42317557 78.80341053 15.93701451 76.125 21.4375 C75.78057861 22.13472168 75.43615723 22.83194336 75.08129883 23.55029297 C72.29266418 29.25675543 69.75632027 35.04635625 67.32421875 40.9140625 C66.41875628 43.02413727 65.43760857 45.10288928 64.39453125 47.1484375 C62.01955346 52.00483466 61.85179628 56.26249858 61.8671875 61.6171875 C61.86623077 62.3519632 61.86527405 63.08673889 61.86428833 63.84378052 C61.86360917 65.39536627 61.86544501 66.9469549 61.86962891 68.49853516 C61.87496557 70.85976637 61.8696829 73.22080605 61.86328125 75.58203125 C61.86394238 77.09375042 61.86522426 78.60546946 61.8671875 80.1171875 C61.86516327 80.81738007 61.86313904 81.51757263 61.86105347 82.23898315 C61.88047352 86.35038809 62.31424804 89.88548821 63 94 C67.95 94.33 72.9 94.66 78 95 C78 96.65 78 98.3 78 100 C36.76019735 101.19388403 36.76019735 101.19388403 20 101 C19.505 100.505 19.505 100.505 19 100 C19 98.35 19 96.7 19 95 C23.95 94.67 28.9 94.34 34 94 C34.07478624 88.91376878 34.12889926 83.82786558 34.16479492 78.74121094 C34.17977675 77.01491716 34.20016939 75.28866074 34.22631836 73.5625 C34.42548586 60.06597264 33.10199154 50.14164836 26.5 38.1875 C25.61529648 36.54849484 24.73120653 34.90915838 23.84765625 33.26953125 C23.38633301 32.41955566 22.92500977 31.56958008 22.44970703 30.69384766 C19.39989124 25.02667564 16.45708045 19.30250254 13.4921875 13.59057617 C13.05003906 12.74342041 12.60789062 11.89626465 12.15234375 11.0234375 C11.76038818 10.26981934 11.36843262 9.51620117 10.96459961 8.73974609 C10.12014423 7.02829929 10.12014423 7.02829929 9 6 C7.65252916 5.76924918 6.29622435 5.58846937 4.9375 5.4375 C3.638125 5.293125 2.33875 5.14875 1 5 C0.67 3.35 0.34 1.7 0 0 Z " fill="#000000" transform="translate(5,12)"/>
</svg>
