<?xml version="1.0" encoding="UTF-8"?>
<!-- Generator: visioncortex VTracer 0.6.4 -->
<svg version="1.1" xmlns="http://www.w3.org/2000/svg" width="104" height="143">
<path d="M0 0 C1.95168343 0.00022659 1.95168343 0.00022659 3.9427948 0.00045776 C5.36331332 0.01067109 6.78383028 0.02110308 8.2043457 0.03173828 C9.65737209 0.03546895 11.11040099 0.03831567 12.56343079 0.04031372 C16.38574177 0.04794597 20.20790049 0.06759087 24.03015137 0.08972168 C27.93129415 0.11018895 31.83246156 0.11931732 35.73364258 0.12939453 C43.38670674 0.15083722 51.03964551 0.18496814 58.69262695 0.22705078 C59.49221883 3.81326631 59.89372823 5.70115566 58.25512695 9.03955078 C57.88000977 9.81814453 57.50489258 10.59673828 57.1184082 11.39892578 C56.41264648 12.79884766 56.41264648 12.79884766 55.69262695 14.22705078 C55.10868164 15.40783203 54.52473633 16.58861328 53.9230957 17.80517578 C51.53041577 22.62911754 49.10271331 27.43529632 46.67504883 32.24169922 C42.94754585 39.62740718 39.29634658 47.03306899 35.81762695 54.53955078 C32.53537186 61.61348919 28.95624484 68.50089366 25.28540039 75.37988281 C21.82845413 81.88699628 18.67027653 88.4849743 15.69262695 95.22705078 C27.78083145 94.88749448 35.20493101 93.57331221 43.66137695 84.73095703 C47.56233113 79.92228082 50.61784687 74.59156071 53.69262695 69.22705078 C55.34262695 69.22705078 56.99262695 69.22705078 58.69262695 69.22705078 C60.07571477 71.99322641 59.80472892 74.23723078 59.7902832 77.32861328 C59.78544922 79.14619141 59.78544922 79.14619141 59.78051758 81.00048828 C59.76794922 82.90701172 59.76794922 82.90701172 59.75512695 84.85205078 C59.75061523 86.13080078 59.74610352 87.40955078 59.74145508 88.72705078 C59.72963899 91.8937637 59.7131651 95.06038434 59.69262695 98.22705078 C54.83622407 99.78530551 50.71003258 100.48924448 45.56396484 100.54589844 C44.88994629 100.55594406 44.21592773 100.56598969 43.52148438 100.57633972 C41.31942508 100.60694327 39.11748604 100.62414232 36.9152832 100.64111328 C35.37828045 100.65984338 33.84128778 100.67941815 32.30430603 100.69979858 C28.27833017 100.75093141 24.25232104 100.79065741 20.22619629 100.82794189 C16.11010638 100.86810036 11.99415261 100.91913842 7.87817383 100.96923828 C-0.18358182 101.0657741 -8.24540535 101.15024964 -16.30737305 101.22705078 C-16.39452952 96.93370511 -16.24260128 94.3735714 -14.0690918 90.63720703 C-13.58480713 89.78360596 -13.10052246 88.93000488 -12.6015625 88.05053711 C-12.07135498 87.13941162 -11.54114746 86.22828613 -10.99487305 85.28955078 C-6.78339383 77.81149537 -2.77443681 70.30567428 0.88012695 62.53955078 C1.3085791 61.63084229 1.73703125 60.72213379 2.1784668 59.78588867 C3.12557334 57.77635955 4.07232957 55.7666653 5.01879883 53.75683594 C8.13534972 47.18462286 11.3079746 40.63950877 14.48233032 34.09506226 C15.60894633 31.77074838 16.73226774 29.44486208 17.85546875 27.11889648 C18.56010071 25.66526663 19.26492622 24.21173059 19.9699707 22.75830078 C20.28625427 22.10186081 20.60253784 21.44542084 20.92840576 20.76908875 C22.47334499 17.59362691 24.08732258 14.49724702 25.86279297 11.44384766 C27.75816935 8.35408712 27.75816935 8.35408712 28.69262695 5.22705078 C15.34178818 6.7403915 15.34178818 6.7403915 4.69262695 14.22705078 C2.44825741 17.4465602 0.54823439 20.77310302 -1.30737305 24.22705078 C-2.29984312 25.89821233 -3.29781118 27.56615867 -4.30737305 29.22705078 C-5.62737305 29.22705078 -6.94737305 29.22705078 -8.30737305 29.22705078 C-8.63737305 20.31705078 -8.96737305 11.40705078 -9.30737305 2.22705078 C-5.74183345 -0.14997562 -4.22865944 -0.01635845 0 0 Z " fill="#000000" transform="translate(26.307373046875,20.77294921875)"/>
</svg>
