<?xml version="1.0" encoding="UTF-8"?>
<!-- Generator: visioncortex VTracer 0.6.4 -->
<svg version="1.1" xmlns="http://www.w3.org/2000/svg" width="78" height="72">
<path d="M0 0 C1.299375 -0.02126953 1.299375 -0.02126953 2.625 -0.04296875 C5 0.1875 5 0.1875 8 2.1875 C8.52767767 9.57498733 6.60293408 15.58300434 4.3125 22.5625 C3.57773711 24.87706836 2.84467156 27.19217621 2.11328125 29.5078125 C1.5730835 31.20599121 1.5730835 31.20599121 1.02197266 32.93847656 C-0.38750005 37.41942803 -1.72119846 41.91768921 -3 46.4375 C-3.20713623 47.14438965 -3.41427246 47.8512793 -3.62768555 48.57958984 C-4.73895001 52.54679912 -5.20452121 56.07151064 -5 60.1875 C-2.69 60.5175 -0.38 60.8475 2 61.1875 C2 62.5075 2 63.8275 2 65.1875 C-2.4579968 65.38366609 -6.91640535 65.56797068 -11.375 65.75 C-13.28152344 65.83411133 -13.28152344 65.83411133 -15.2265625 65.91992188 C-16.43828125 65.96826172 -17.65 66.01660156 -18.8984375 66.06640625 C-20.57945557 66.13710327 -20.57945557 66.13710327 -22.29443359 66.20922852 C-25 66.1875 -25 66.1875 -27 65.1875 C-27 63.8675 -27 62.5475 -27 61.1875 C-26.55011719 60.81496094 -26.10023437 60.44242188 -25.63671875 60.05859375 C-23.51078762 57.62823334 -22.80147769 55.31545192 -21.8125 52.25 C-21.46832031 51.20972656 -21.12414063 50.16945312 -20.76953125 49.09765625 C-19.82957142 46.04468259 -19.82957142 46.04468259 -20 42.1875 C-26.44969924 41.48238244 -26.44969924 41.48238244 -28.8125 43.5625 C-31.95224329 47.33019194 -32.81697587 51.49125268 -34 56.1875 C-32.7625 57.30125 -32.7625 57.30125 -31.5 58.4375 C-29 61.1875 -29 61.1875 -29 65.1875 C-37.91 65.1875 -46.82 65.1875 -56 65.1875 C-56 63.8675 -56 62.5475 -56 61.1875 C-55.443125 61.09855469 -54.88625 61.00960937 -54.3125 60.91796875 C-46.22752545 59.01963858 -43.24525304 53.95200998 -39 47.1875 C-38.40316406 46.2696875 -37.80632813 45.351875 -37.19140625 44.40625 C-35.43429282 41.68252852 -33.71262601 38.93937861 -32 36.1875 C-28.38887529 30.39861367 -24.76342008 24.70886085 -20.609375 19.29296875 C-18.64258536 16.71991143 -16.72484185 14.1137665 -14.8125 11.5 C-14.15894531 10.60925781 -13.50539062 9.71851563 -12.83203125 8.80078125 C-10.95619513 6.21842842 -10.95619513 6.21842842 -9.44921875 3.41796875 C-7.07098136 -0.24233731 -4.04754349 0.03011565 0 0 Z M-13 18.1875 C-16.8132892 24.11095204 -20.57814171 30.02815508 -24 36.1875 C-22.02 36.5175 -20.04 36.8475 -18 37.1875 C-15.45547931 34.15694727 -14.2760998 31.49872782 -13.25 27.6875 C-12.98703125 26.7490625 -12.7240625 25.810625 -12.453125 24.84375 C-12.00119917 22.19452963 -12.124736 20.69501308 -13 18.1875 Z " fill="#000000" transform="translate(64,2.8125)"/>
</svg>
