<?xml version="1.0" encoding="UTF-8"?>
<!-- Generator: visioncortex VTracer 0.6.4 -->
<svg version="1.1" xmlns="http://www.w3.org/2000/svg" width="85" height="72">
<path d="M0 0 C0.495 0.495 0.495 0.495 1 1 C0.45398468 8.31053847 -1.26235998 14.78545777 -3.5 21.75 C-4.13751651 23.76496183 -4.7730071 25.78056602 -5.40625 27.796875 C-5.68791016 28.67698242 -5.96957031 29.55708984 -6.25976562 30.46386719 C-6.98874907 32.96145294 -7.52913115 35.44237823 -8 38 C-7.443125 37.505 -6.88625 37.01 -6.3125 36.5 C-3.61837017 34.75245633 -2.14624993 34.73781251 1 35 C1 36.32 1 37.64 1 39 C-4.7323266 42.9489361 -8.95737567 44.79577676 -16 44 C-19.5 42.5 -19.5 42.5 -22 41 C-22.495 41.495 -22.99 41.99 -23.5 42.5 C-26.95513381 44.57308029 -30.11825403 44.69454699 -34 44 C-37.06247955 42.20245766 -38.56734966 40.76228869 -40.3125 37.6875 C-42.40199619 29.51946946 -39.73819315 23.24982914 -36 16 C-32.23172036 10.00002076 -27.45955287 4.18703837 -21 1 C-18.12981637 0.5437144 -15.9246012 0.68664987 -13 1 C-13 1.66 -13 2.32 -13 3 C-12.525625 2.505 -12.05125 2.01 -11.5625 1.5 C-7.79641649 -0.70453669 -4.26540621 -0.24608113 0 0 Z M-18 7 C-20.91485079 12.18195695 -22.90939848 17.41111912 -24.6875 23.0625 C-24.90172607 23.73474609 -25.11595215 24.40699219 -25.33666992 25.09960938 C-26.65264807 29.39214232 -27.47232985 33.54089733 -28 38 C-27.34 38 -26.68 38 -26 38 C-24.70144393 35.79547458 -23.41111805 33.58676704 -22.125 31.375 C-21.76019531 30.75753906 -21.39539063 30.14007813 -21.01953125 29.50390625 C-17.71079096 23.78880939 -15.71102726 18.84788233 -15.875 12.125 C-15.89304687 11.15820312 -15.91109375 10.19140625 -15.9296875 9.1953125 C-15.95289063 8.47085937 -15.97609375 7.74640625 -16 7 C-16.66 7 -17.32 7 -18 7 Z " fill="#000000" transform="translate(63,17)"/>
</svg>
