<?xml version="1.0" encoding="UTF-8"?>
<!-- Generator: visioncortex VTracer 0.6.4 -->
<svg version="1.1" xmlns="http://www.w3.org/2000/svg" width="69" height="85">
<path d="M0 0 C0.7734375 -0.01417969 1.546875 -0.02835938 2.34375 -0.04296875 C4.5 0.1875 4.5 0.1875 7.5 2.1875 C8.0939348 9.76016875 5.93286286 16.06268733 3.5 23.1875 C4.8921875 22.70603516 4.8921875 22.70603516 6.3125 22.21484375 C9.75050425 21.1067615 11.92280125 20.66582518 15.5 21.1875 C17.76611731 22.67237595 19.52277118 24.30442493 21.5 26.1875 C22.38210374 36.59632409 18.89301395 45.51182637 12.5625 53.75 C9.52984119 57.26629108 6.61455572 59.95132841 2.5 62.1875 C1.613125 62.765 0.72625 63.3425 -0.1875 63.9375 C-4.96675346 65.74099187 -9.4491072 65.78623805 -14.5 65.1875 C-17.6875 63.6875 -17.6875 63.6875 -19.5 62.1875 C-20.39892934 57.97913899 -20.51502563 54.9992769 -19.38671875 50.8515625 C-19.1036084 49.80774414 -18.82049805 48.76392578 -18.52880859 47.68847656 C-16.33390789 40.21935551 -14.00193662 32.78939571 -11.60766602 25.38183594 C-8.97241444 17.20289808 -6.84127185 9.89639942 -7.5 1.1875 C-4.71398777 0.25882926 -2.88933911 0.02407783 0 0 Z M6.5 28.1875 C-0.4198211 35.36104787 -4.75283545 44.32500106 -6.5 54.1875 C-6.13603286 56.90323429 -6.13603286 56.90323429 -5.5 59.1875 C2.68089362 53.96081797 4.2625146 44.112683 6.86328125 35.32421875 C7.45947121 32.38716022 7.55224988 30.93692712 6.5 28.1875 Z " fill="#000000" transform="translate(37.5,9.8125)"/>
</svg>
