<?xml version="1.0" encoding="UTF-8"?>
<!-- Generator: visioncortex VTracer 0.6.4 -->
<svg version="1.1" xmlns="http://www.w3.org/2000/svg" width="76" height="76">
<path d="M0 0 C4.3924631 -0.07482575 8.78457672 -0.12891683 13.17749023 -0.16479492 C14.66811598 -0.17977042 16.15869851 -0.20015819 17.64916992 -0.22631836 C25.90309062 -0.36743467 33.31759987 -0.45708006 41 3 C44.01019786 6.01019786 44.22797042 8.83318519 44.4375 12.9375 C44.27484835 17.69682874 43.26122101 20.39549256 40 24 C34.73684211 28 34.73684211 28 32 28 C32.3609375 28.51046875 32.721875 29.0209375 33.09375 29.546875 C37.21141857 35.99788909 38.07350448 41.43385787 37 49 C35.38089443 55.35925016 31.7203549 58.42196478 26.31640625 61.87109375 C21.29327256 64.31913024 16.12007781 64.13481399 10.63671875 64.09765625 C9.84473587 64.0962413 9.05275299 64.09482635 8.23677063 64.09336853 C5.72030781 64.08779457 3.20393569 64.07524693 0.6875 64.0625 C-1.02408725 64.05748163 -2.73567591 64.05291931 -4.44726562 64.04882812 C-8.63154508 64.03783368 -12.81575719 64.02058707 -17 64 C-17 62.68 -17 61.36 -17 60 C-15.39125 59.505 -15.39125 59.505 -13.75 59 C-10.0819096 57.37219281 -8.55363777 55.39982224 -6.953125 51.65625 C-5.02718148 46.28886642 -3.32102658 40.87385616 -1.71044922 35.40527344 C-0.93486875 32.77949378 -0.14061777 30.1596421 0.65234375 27.5390625 C1.20690772 25.6722247 1.76030641 23.80504031 2.3125 21.9375 C2.71251221 20.61745972 2.71251221 20.61745972 3.12060547 19.27075195 C4.55560096 14.33223526 5.30005759 10.14284752 5 5 C2.525 4.505 2.525 4.505 0 4 C0 2.68 0 1.36 0 0 Z M24 5 C21.07617577 11.12610791 19.52785824 17.40095271 18 24 C19.98 24 21.96 24 24 24 C28.08531882 18.41673095 30.43055711 13.10419228 30 6 C29.67 5.67 29.34 5.34 29 5 C27.35 5 25.7 5 24 5 Z M17 30 C13.4693494 34.88777756 12.31370218 40.44586498 10.8125 46.1875 C10.53986328 47.19748047 10.26722656 48.20746094 9.98632812 49.24804688 C8.56144126 54.05989889 8.56144126 54.05989889 8 59 C9.98 59 11.96 59 14 59 C20.33329295 51.08338382 22.67650454 40.9784419 22 31 C20.35 30.67 18.7 30.34 17 30 Z " fill="#000000" transform="translate(24,5)"/>
</svg>
