<?xml version="1.0" encoding="UTF-8"?>
<!-- Generator: visioncortex VTracer 0.6.4 -->
<svg version="1.1" xmlns="http://www.w3.org/2000/svg" width="63" height="81">
<path d="M0 0 C0.99386719 0.00902344 1.98773438 0.01804687 3.01171875 0.02734375 C5.3125 0.0625 5.3125 0.0625 7.3125 1.5625 C9.77308824 4.6382353 9.8308941 6.32813049 9.65234375 10.15625 C9.19524864 12.72018577 8.13759684 14.23740316 6.3125 16.0625 C-0.0875 16.43173077 -0.0875 16.43173077 -3.125 14.5625 C-3.640625 14.0675 -4.15625 13.5725 -4.6875 13.0625 C-4.6875 10.7525 -4.6875 8.4425 -4.6875 6.0625 C-14.02741702 11.66645021 -16.17609018 25.2116006 -18.90991211 35.06982422 C-19.50228372 37.1956957 -20.11651308 39.31443752 -20.73242188 41.43359375 C-22.7129804 48.39990678 -24.23280439 54.75379335 -23.6875 62.0625 C-18.3276604 61.92850401 -15.50731838 59.80937958 -11.72265625 56.31640625 C-8.09911304 52.30338431 -5.38747798 47.72839945 -2.6875 43.0625 C-1.3675 43.0625 -0.0475 43.0625 1.3125 43.0625 C0.89203276 51.26161126 -4.45596239 57.17025923 -10.25 62.5 C-14.9832207 66.67637121 -19.20260333 68.57734574 -25.6328125 68.37109375 C-29.19081838 67.83671644 -32.07766737 66.541841 -34.6875 64.0625 C-38.29292472 58.8553848 -39.35229282 55.09174867 -39.1875 48.8125 C-39.17468994 48.06597168 -39.16187988 47.31944336 -39.14868164 46.55029297 C-38.55085246 30.11974742 -28.12576587 17.04126595 -16.6875 6.0625 C-11.32989148 1.93652563 -6.77247392 -0.07967616 0 0 Z " fill="#000000" transform="translate(47.6875,6.9375)"/>
</svg>
