<?xml version="1.0" encoding="UTF-8"?>
<!-- Generator: visioncortex VTracer 0.6.4 -->
<svg version="1.1" xmlns="http://www.w3.org/2000/svg" width="59" height="73">
<path d="M0 0 C2.69880057 1.40512059 3.96623896 2.67570167 6 5 C6 7.64 6 10.28 6 13 C4.68 14.32 3.36 15.64 2 17 C-5 17 -5 17 -6.9375 15.1875 C-9 13 -9 13 -10 10 C-15.87987335 25.0691785 -15.87987335 25.0691785 -18 41 C-12.37224317 37.8200442 -7.29975855 34.87305969 -3 30 C-1.68 30 -0.36 30 1 30 C1 35.9696521 0.54799702 35.47140334 -3.3125 39.375 C-4.11300781 40.18710937 -4.91351563 40.99921875 -5.73828125 41.8359375 C-10.42017734 46.31567918 -13.70938827 46.54785466 -19.9765625 46.44921875 C-24.65439805 45.7541915 -27.14587899 43.66205681 -30 40 C-32.84245782 35.55093558 -32.7079761 30.10488028 -32 25 C-29.42529391 17.27588173 -24.33123054 11.02429051 -19 5 C-18.54109375 4.42636719 -18.0821875 3.85273438 -17.609375 3.26171875 C-13.03258941 -1.63213331 -6.10304191 -1.00557091 0 0 Z " fill="#000000" transform="translate(41,18)"/>
</svg>
