<?xml version="1.0" encoding="UTF-8"?>
<!-- Generator: visioncortex VTracer 0.6.4 -->
<svg version="1.1" xmlns="http://www.w3.org/2000/svg" width="76" height="73">
<path d="M0 0 C1.02931641 -0.020625 2.05863281 -0.04125 3.11914062 -0.0625 C10.03037972 -0.09791955 15.57327012 0.10755986 20.7734375 5.15234375 C21.24007812 5.82394531 21.70671875 6.49554688 22.1875 7.1875 C22.66960937 7.85652344 23.15171875 8.52554687 23.6484375 9.21484375 C28.13826237 17.064504 25.79109071 27.95006565 23.8125 36.25 C19.8470638 48.6087093 15.03494776 56.45916071 3.96484375 63.41015625 C-7.40378653 67.84619166 -23.30017731 65.01463088 -35.1875 64.25 C-35.1875 62.93 -35.1875 61.61 -35.1875 60.25 C-32.5475 59.59 -29.9075 58.93 -27.1875 58.25 C-22.6819864 50.23006738 -20.02688334 41.85347886 -17.5 33.0625 C-17.10698034 31.72175265 -16.71310447 30.38125598 -16.31835938 29.04101562 C-15.26281697 25.44740941 -14.2216864 21.84981904 -13.1875 18.25 C-12.81906982 17.01338623 -12.45063965 15.77677246 -12.07104492 14.50268555 C-11.27061056 11.55596352 -11.0041151 9.27585078 -11.1875 6.25 C-11.8475 5.92 -12.5075 5.59 -13.1875 5.25 C-13.1875 3.93 -13.1875 2.61 -13.1875 1.25 C-9.24940423 -0.71904789 -4.33016532 0.02129153 0 0 Z M6.8125 5.25 C4.49063977 10.39111036 2.73054437 15.50932744 1.18359375 20.9296875 C0.94842545 21.74188751 0.71325714 22.55408752 0.47096252 23.39089966 C-0.02273204 25.09966018 -0.51424027 26.80905376 -1.00366211 28.51904297 C-1.74627049 31.11197782 -2.49659464 33.70258481 -3.24804688 36.29296875 C-3.72962689 37.96340905 -4.21076129 39.63397791 -4.69140625 41.3046875 C-5.02272301 42.4488765 -5.02272301 42.4488765 -5.36073303 43.61618042 C-6.83636399 48.78885264 -8.07491089 53.98756659 -9.1875 59.25 C-7.8675 59.58 -6.5475 59.91 -5.1875 60.25 C7.0272037 50.82722857 10.49424198 25.17093844 12.78125 10.6484375 C13.04208343 7.98175746 13.04208343 7.98175746 10.8125 5.25 C9.4925 5.25 8.1725 5.25 6.8125 5.25 Z " fill="#000000" transform="translate(43.1875,2.75)"/>
</svg>
