<?xml version="1.0" encoding="UTF-8"?>
<!-- Generator: visioncortex VTracer 0.6.4 -->
<svg version="1.1" xmlns="http://www.w3.org/2000/svg" width="63" height="81">
<path d="M0 0 C3.10408807 -0.05807043 6.2080364 -0.09361914 9.3125 -0.125 C10.19357422 -0.14175781 11.07464844 -0.15851562 11.98242188 -0.17578125 C12.82998047 -0.18222656 13.67753906 -0.18867188 14.55078125 -0.1953125 C15.33106689 -0.20578613 16.11135254 -0.21625977 16.9152832 -0.22705078 C19 0 19 0 22 2 C22.60514261 9.8866947 20.37429493 16.78701483 18.1875 24.3125 C17.47262778 26.829419 16.75778362 29.34634596 16.04296875 31.86328125 C15.05681374 35.31102645 14.06970789 38.75844291 13.07543945 42.20385742 C12.80304443 43.16783447 12.53064941 44.13181152 12.25 45.125 C12.01152344 45.95902344 11.77304687 46.79304688 11.52734375 47.65234375 C10.73515575 51.17904738 10.7962898 54.40111979 11 58 C13.97 57.505 13.97 57.505 17 57 C17.33 56.01 17.66 55.02 18 54 C19.32 54 20.64 54 22 54 C21.67 55.65 21.34 57.3 21 59 C20.01 59 19.02 59 18 59 C17.67 59.99 17.34 60.98 17 62 C12.10135176 65.39137186 6.79433634 65.97528433 1 65 C-1.3046875 63.4765625 -1.3046875 63.4765625 -3 62 C-5.96175123 62.61277612 -7.38058783 63.25372522 -10 65 C-16.63239075 65.88431877 -16.63239075 65.88431877 -20.078125 63.65625 C-21.80392423 62.16897587 -23.42927926 60.64925678 -25 59 C-25.63672454 47.55664505 -23.92026531 40.04058469 -16.859375 30.99609375 C-13.31207793 27.18796601 -9.16729259 24.0966443 -5 21 C-2.36 21.33 0.28 21.66 3 22 C4.80304155 16.69905784 6.50723624 11.39691512 8 6 C5.03 5.67 2.06 5.34 -1 5 C-0.67 3.35 -0.34 1.7 0 0 Z M-3 27 C-7.51570609 37.20837812 -10.59246588 47.92455473 -12 59 C-11.34 59 -10.68 59 -10 59 C-3.49187513 49.621168 0.6425713 41.56628337 0 30 C-0.99 29.01 -1.98 28.02 -3 27 Z " fill="#000000" transform="translate(37,9)"/>
</svg>
