<?xml version="1.0" encoding="UTF-8"?>
<!-- Generator: visioncortex VTracer 0.6.4 -->
<svg version="1.1" xmlns="http://www.w3.org/2000/svg" width="70" height="63">
<path d="M0 0 C3.27986111 1.62197511 5.34168979 3.68337957 7 7 C7.38638632 14.69681553 7.38638632 14.69681553 4.3125 18.1875 C-0.56583049 23.11571117 -6.56068965 24.82367612 -13 27 C-14.67113302 27.65539045 -16.33957735 28.31793047 -18 29 C-19.31626692 32.61973402 -20 35.09567131 -20 39 C-13.85348781 37.38457051 -10.9884564 36.05204477 -7 31 C-3.25 30.1875 -3.25 30.1875 0 30 C-0.22408031 33.71709694 -0.83054114 34.84318733 -3.6171875 37.421875 C-4.69284689 38.21210143 -5.7792619 38.98785898 -6.875 39.75 C-7.41769531 40.14832031 -7.96039063 40.54664063 -8.51953125 40.95703125 C-13.92225368 44.85386038 -18.45692808 45.81509258 -25 45 C-29.08386975 42.92093903 -31.34253834 41.25142631 -33 37 C-34.3866981 27.39978237 -32.38899949 19.98074288 -27 12 C-24.54747872 9.02680456 -21.93694073 6.48832453 -19 4 C-18.113125 3.175 -17.22625 2.35 -16.3125 1.5 C-10.99319192 -0.90874328 -5.72966343 -0.86526643 0 0 Z M-9 5 C-13.01008855 9.29652344 -17 15.92336048 -17 22 C-12.3312891 20.16586358 -9.95297376 16.90594752 -7.75 12.5 C-6.96036969 9.86789896 -6.84387643 7.7321625 -7 5 C-7.66 5 -8.32 5 -9 5 Z " fill="#000000" transform="translate(53,10)"/>
</svg>
