<?xml version="1.0" encoding="UTF-8"?>
<!-- Generator: visioncortex VTracer 0.6.4 -->
<svg version="1.1" xmlns="http://www.w3.org/2000/svg" width="86" height="82">
<path d="M0 0 C15.18 0 30.36 0 46 0 C46 6.75 46 6.75 44 10.875 C43.62875 11.65617187 43.2575 12.43734375 42.875 13.2421875 C42.441875 14.11230469 42.441875 14.11230469 42 15 C40.68 15 39.36 15 38 15 C37.60167969 14.15115234 37.60167969 14.15115234 37.1953125 13.28515625 C36.84210938 12.55167969 36.48890625 11.81820313 36.125 11.0625 C35.77695313 10.33160156 35.42890625 9.60070312 35.0703125 8.84765625 C34.1315023 6.83667541 34.1315023 6.83667541 32 6 C30.00039988 5.960008 27.99952758 5.95653201 26 6 C25.18177267 8.37316118 24.37031293 10.7482942 23.5625 13.125 C23.33240234 13.79015625 23.10230469 14.4553125 22.86523438 15.140625 C21.53325481 19.07865153 20.56074966 22.86205422 20 27 C20.721875 26.34 21.44375 25.68 22.1875 25 C25.29855465 22.78769447 26.33489775 22.80288526 30 23 C29.63176001 29.90767437 28.76081837 35.6381142 26 42 C24.35 41.67 22.7 41.34 21 41 C20.01 39.02 19.02 37.04 18 35 C14.88988277 42.85713826 12.47865559 50.92722447 10 59 C18.67189085 58.02091555 22.97522662 54.10845078 29 48 C29.33 47.67 29.66 47.34 30 47 C31.65 47 33.3 47 35 47 C34.42521361 53.32265026 33.0883233 57.73503009 31 64 C14.83 64 -1.34 64 -18 64 C-18 62.35 -18 60.7 -18 59 C-13.545 58.505 -13.545 58.505 -9 58 C-8.34 56.68 -7.68 55.36 -7 54 C-6.70843018 53.43385986 -6.41686035 52.86771973 -6.11645508 52.28442383 C-2.56454566 44.90312697 -0.53819691 37.02940023 1.62915039 29.15991211 C2.31660759 26.67263844 3.02194897 24.19088834 3.72851562 21.70898438 C4.17035492 20.12269739 4.61114815 18.53611859 5.05078125 16.94921875 C5.26213211 16.21064133 5.47348297 15.4720639 5.6912384 14.71110535 C7.03838271 9.82778973 7.03838271 9.82778973 6 5 C3.03 4.505 3.03 4.505 0 4 C0 2.68 0 1.36 0 0 Z " fill="#000000" transform="translate(31,7)"/>
</svg>
