<?xml version="1.0" encoding="UTF-8"?>
<!-- Generator: visioncortex VTracer 0.6.4 -->
<svg version="1.1" xmlns="http://www.w3.org/2000/svg" width="81" height="74">
<path d="M0 0 C15.18 0 30.36 0 46 0 C44.875 10.125 44.875 10.125 43 15 C41.35 15 39.7 15 38 15 C35.5 10 35.5 10 33 5 C29.65747276 4.92572162 27.1964086 4.93453047 24 6 C23.73445313 7.08539063 23.46890625 8.17078125 23.1953125 9.2890625 C22.83866918 10.73440647 22.4818912 12.17971722 22.125 13.625 C21.95097656 14.33785156 21.77695312 15.05070312 21.59765625 15.78515625 C20.57145662 19.92796216 19.41209271 23.96726678 18 28 C20.64 26.02 23.28 24.04 26 22 C27.65 22.33 29.3 22.66 31 23 C30.31195504 29.19240462 28.71951285 35.01955594 27 41 C24.525 41.495 24.525 41.495 22 42 C19 37.25 19 37.25 19 35 C18.01 35.33 17.02 35.66 16 36 C15.13372595 38.91355841 14.28168994 41.83004328 13.4375 44.75 C13.19064453 45.575 12.94378906 46.4 12.68945312 47.25 C12.46064453 48.04921875 12.23183594 48.8484375 11.99609375 49.671875 C11.78138428 50.4050293 11.5666748 51.13818359 11.34545898 51.89355469 C10.96085328 54.23869816 11.27121236 55.75825808 12 58 C13.98 58.33 15.96 58.66 18 59 C18 60.65 18 62.3 18 64 C6.45 64 -5.1 64 -17 64 C-17 62.35 -17 60.7 -17 59 C-14.36 58.34 -11.72 57.68 -9 57 C-4.75947712 48.59543205 -1.95521166 39.9812906 0.6496582 30.97338867 C1.3174156 28.67054797 2.00260783 26.37338269 2.68945312 24.07617188 C3.12343895 22.59665975 3.55641833 21.11685194 3.98828125 19.63671875 C4.19133377 18.95848557 4.39438629 18.28025238 4.60359192 17.58146667 C5.73521565 13.61767248 6.20520622 10.11727357 6 6 C4.02 5.34 2.04 4.68 0 4 C0 2.68 0 1.36 0 0 Z " fill="#000000" transform="translate(29,3)"/>
</svg>
