<?xml version="1.0" encoding="UTF-8"?>
<!-- Generator: visioncortex VTracer 0.6.4 -->
<svg version="1.1" xmlns="http://www.w3.org/2000/svg" width="78" height="82">
<path d="M0 0 C2.60218473 2.34196625 3.00386274 4.01517504 3.875 7.4375 C4.01383284 11.39423606 3.35224911 12.89503117 1 16 C-2.3 16 -5.6 16 -9 16 C-10.58873246 12.82253509 -10.41026221 9.45987798 -10 6 C-8.5 3.5 -8.5 3.5 -7 2 C-8.65 2.33 -10.3 2.66 -12 3 C-13.70695733 8.65571861 -15.39334698 14.31492008 -17 20 C-15.02 20.33 -13.04 20.66 -11 21 C-11 22.65 -11 24.3 -11 26 C-14.96 26.495 -14.96 26.495 -19 27 C-21.64 37.56 -24.28 48.12 -27 59 C-25.515 59.495 -25.515 59.495 -24 60 C-24 61.32 -24 62.64 -24 64 C-32.91 64 -41.82 64 -51 64 C-51 62.68 -51 61.36 -51 60 C-48.69 59.34 -46.38 58.68 -44 58 C-40.6386193 51.17475748 -38.5728209 44.30783452 -36.75 36.9375 C-36.481875 35.88111328 -36.21375 34.82472656 -35.9375 33.73632812 C-35.28448907 31.15926712 -34.63883034 28.58060572 -34 26 C-35.98 26 -37.96 26 -40 26 C-40 24.68 -40 23.36 -40 22 C-36.04 21.505 -36.04 21.505 -32 21 C-31.92523437 20.3709375 -31.85046875 19.741875 -31.7734375 19.09375 C-30.75469164 12.46191421 -28.9928238 7.62374442 -24 3 C-16.04712402 -2.38489626 -9.11387114 -3.50533505 0 0 Z " fill="#000000" transform="translate(63,4)"/>
</svg>
