<?xml version="1.0" encoding="UTF-8"?>
<!-- Generator: visioncortex VTracer 0.6.4 -->
<svg version="1.1" xmlns="http://www.w3.org/2000/svg" width="75" height="84">
<path d="M0 0 C1.32 0 2.64 0 4 0 C7.33333333 0 10.66666667 0 14 0 C14.495 0.495 14.495 0.495 15 1 C14.44902775 7.52426298 13.22967509 13.36514439 11.26953125 19.6015625 C10.99662766 20.4822641 10.72372406 21.3629657 10.44255066 22.27035522 C9.86610288 24.1187951 9.28517115 25.9658421 8.69995117 27.81152344 C7.81442475 30.61889799 6.95659573 33.43380192 6.09960938 36.25 C5.53292544 38.0552143 4.96461993 39.85992053 4.39453125 41.6640625 C4.0191497 42.9127562 4.0191497 42.9127562 3.63618469 44.18667603 C0.9336867 52.52068195 -4.11644774 58.17989444 -11.5 62.83203125 C-15.88976584 64.88287498 -20.19421874 65.34220733 -25 65 C-28.50723615 63.70786037 -30.38618754 62.61381246 -33 60 C-33.63019694 51.80743982 -33.63019694 51.80743982 -31 48.4375 C-29 47 -29 47 -25.1875 46.875 C-24.47980469 46.85179687 -23.77210937 46.82859375 -23.04296875 46.8046875 C-21 47 -21 47 -18 49 C-18 51.97 -18 54.94 -18 58 C-17.01585567 56.08588443 -16.03786651 54.1686033 -15.0625 52.25 C-14.24458984 50.64898437 -14.24458984 50.64898437 -13.41015625 49.015625 C-11.84348292 45.91578652 -11.84348292 45.91578652 -11 42 C-15.455 42.495 -15.455 42.495 -20 43 C-24.44916219 38.78500425 -26.7402878 36.51055124 -27.375 30.375 C-27.03622249 19.63375998 -20.28697804 11.69526166 -13.375 4.125 C-8.63000697 -0.12052008 -6.32882681 -1.48121478 0 0 Z M-4 5 C-7.13093935 11.91471285 -9.70530025 18.85793377 -11.875 26.125 C-12.1021167 26.87128662 -12.3292334 27.61757324 -12.56323242 28.38647461 C-13.91337686 32.23592885 -13.91337686 32.23592885 -13 36 C-5.71412571 28.85738729 -1.41437343 20.3593357 -1 10 C-1.81971716 7.15097933 -1.81971716 7.15097933 -3 5 C-3.33 5 -3.66 5 -4 5 Z " fill="#000000" transform="translate(51,10)"/>
</svg>
