<?xml version="1.0" encoding="UTF-8"?>
<!-- Generator: visioncortex VTracer 0.6.4 -->
<svg version="1.1" xmlns="http://www.w3.org/2000/svg" width="66" height="74">
<path d="M0 0 C0.79921875 0.00902344 1.5984375 0.01804688 2.421875 0.02734375 C4.25 0.0625 4.25 0.0625 6.6875 2.125 C9.73937063 5.62348585 10.25 7.4570905 10.25 12.0625 C8.90437601 15.01005732 8.16445456 16.60527272 5.25 18.0625 C2.9170134 18.10272391 0.58293334 18.10570247 -1.75 18.0625 C-2.74 17.0725 -3.73 16.0825 -4.75 15.0625 C-4.75 12.0625 -4.75 9.0625 -4.75 6.0625 C-5.41 6.0625 -6.07 6.0625 -6.75 6.0625 C-7.15992188 7.29806641 -7.15992188 7.29806641 -7.578125 8.55859375 C-8.3919345 10.99188415 -9.21414861 13.42090597 -10.046875 15.84765625 C-12.89616608 24.20007657 -15.58249918 32.59270527 -18.0625 41.0625 C-18.31676758 41.90949463 -18.57103516 42.75648926 -18.83300781 43.62915039 C-20.49952262 49.42397381 -21.34298282 55.04920101 -21.75 61.0625 C-20.76 61.0625 -19.77 61.0625 -18.75 61.0625 C-15.8893394 55.94518926 -14.46823027 50.82740874 -13.0625 45.1875 C-12.72508789 43.86878906 -12.72508789 43.86878906 -12.38085938 42.5234375 C-11.83111975 40.37126536 -11.28768545 38.21770924 -10.75 36.0625 C-12.07 35.7325 -13.39 35.4025 -14.75 35.0625 C-14.75 33.7425 -14.75 32.4225 -14.75 31.0625 C-5.37087413 30.26427652 3.83786748 29.93376263 13.25 30.0625 C13.25 31.7125 13.25 33.3625 13.25 35.0625 C11.6 35.7225 9.95 36.3825 8.25 37.0625 C7.84910156 38.18527344 7.44820312 39.30804688 7.03515625 40.46484375 C2.5697748 52.43131779 -2.70891917 61.35224763 -14.5546875 67.31640625 C-19.4997284 68.99701623 -23.26816017 67.75983639 -27.9375 65.5625 C-32.96111034 61.09706859 -35.63495624 56.84331415 -36.19921875 50.046875 C-36.55895107 41.67185704 -35.88320874 34.50227574 -31.75 27.0625 C-31.3375 26.258125 -30.925 25.45375 -30.5 24.625 C-25.53869756 15.60445011 -17.1215914 3.76690298 -6.8515625 0.44921875 C-4.5212723 0.0204107 -2.36781654 -0.03482083 0 0 Z " fill="#000000" transform="translate(46.75,1.9375)"/>
</svg>
