<?xml version="1.0" encoding="UTF-8"?>
<!-- Generator: visioncortex VTracer 0.6.4 -->
<svg version="1.1" xmlns="http://www.w3.org/2000/svg" width="76" height="84">
<path d="M0 0 C6.27 0 12.54 0 19 0 C22.19236051 3.19236051 22.23155534 3.45569603 22.265625 7.578125 C21.68359768 12.88484467 19.69738396 17.96089138 18 23 C18.66 22.67 19.32 22.34 20 22 C24.72722742 21.43347569 28.00700352 21.35151251 32.0625 24 C35.05590266 27.08996403 34.93934558 30.85977392 35 35 C34.32897249 38.79065693 33.22806743 42.39746632 32.0625 46.0625 C31.77181641 47.02349609 31.48113281 47.98449219 31.18164062 48.97460938 C30.46940822 51.32147354 29.74209678 53.66244311 29 56 C32.11227195 56 34.94152152 55.54372951 38 55 C37.70179167 58.57849992 37.25754642 59.76226484 34.5625 62.25 C29.98292826 65.37751241 26.46320597 65.53165427 21 65 C15.4 62.8 15.4 62.8 14 60 C13.3825844 53.51713625 15.3251424 48.30433331 17.5 42.25 C18.16018686 40.38159473 18.81661417 38.51185556 19.46875 36.640625 C19.76201172 35.82110352 20.05527344 35.00158203 20.35742188 34.15722656 C21.14273829 31.8959565 21.14273829 31.8959565 21 29 C20.01 29.33 19.02 29.66 18 30 C16.67209556 33.24743163 15.46602646 36.50050789 14.37890625 39.8359375 C14.08306641 40.73570313 13.78722656 41.63546875 13.48242188 42.5625 C12.87182639 44.42928874 12.26244034 46.29647353 11.65429688 48.1640625 C9.98616435 53.22997473 8.19068015 58.1362881 6 63 C3.11788698 63.96070434 1.30149956 64.10581883 -1.6875 64.0625 C-2.49574219 64.05347656 -3.30398437 64.04445313 -4.13671875 64.03515625 C-4.75160156 64.02355469 -5.36648437 64.01195313 -6 64 C-7.05027123 60.09681176 -6.9088516 57.76086953 -5.59375 53.95703125 C-5.2649585 52.97742432 -4.93616699 51.99781738 -4.59741211 50.98852539 C-4.23526611 49.94043701 -3.87312012 48.89234863 -3.5 47.8125 C-0.38688223 38.45927054 2.48442269 29.07781583 5.0625 19.5625 C5.37316406 18.43755127 5.68382812 17.31260254 6.00390625 16.15356445 C6.28234375 15.11417725 6.56078125 14.07479004 6.84765625 13.00390625 C7.09523682 12.08424072 7.34281738 11.1645752 7.59790039 10.21704102 C8.23445111 7.969193 8.23445111 7.969193 7 6 C4.69 5.67 2.38 5.34 0 5 C0 3.35 0 1.7 0 0 Z " fill="#000000" transform="translate(24,6)"/>
</svg>
