<?xml version="1.0" encoding="UTF-8"?>
<!-- Generator: visioncortex VTracer 0.6.4 -->
<svg version="1.1" xmlns="http://www.w3.org/2000/svg" width="85" height="72">
<path d="M0 0 C7.26 0 14.52 0 22 0 C23 1 23 1 23.21875 4.4375 C23.15523117 9.51900639 21.88168488 14.13796294 20.5 19 C20.26152344 19.87011719 20.02304687 20.74023438 19.77734375 21.63671875 C19.19393758 23.76031722 18.59823701 25.88053174 18 28 C21.96 27.505 21.96 27.505 26 27 C26.09796875 26.36835938 26.1959375 25.73671875 26.296875 25.0859375 C27.61401008 17.20583625 29.70070553 9.64571221 32 2 C34.91824244 0.33325679 36.97594379 -0.2432008 40.328125 -0.1953125 C41.12734375 -0.18886719 41.9265625 -0.18242188 42.75 -0.17578125 C43.575 -0.15902344 44.4 -0.14226562 45.25 -0.125 C46.09046875 -0.11597656 46.9309375 -0.10695312 47.796875 -0.09765625 C49.86470604 -0.07415817 51.93238995 -0.03828908 54 0 C54 1.65 54 3.3 54 5 C52.35 5.66 50.7 6.32 49 7 C45.82181885 15.22131768 43.27852666 23.58137099 40.90795898 32.06225586 C40.30993494 34.19665493 39.7012252 36.3278172 39.09179688 38.45898438 C38.70247881 39.84096396 38.31378495 41.22311957 37.92578125 42.60546875 C37.57942627 43.83418701 37.23307129 45.06290527 36.8762207 46.32885742 C35.94284629 50.23945957 35.42855478 54.00631043 35 58 C36.65 58.66 38.3 59.32 40 60 C40 61.32 40 62.64 40 64 C37.14839609 64.81434143 34.63373869 65.11881242 31.671875 65.09765625 C30.87265625 65.09443359 30.0734375 65.09121094 29.25 65.08789062 C28.425 65.07951172 27.6 65.07113281 26.75 65.0625 C25.90953125 65.05798828 25.0690625 65.05347656 24.203125 65.04882812 C18.01366071 65.01366071 18.01366071 65.01366071 17 64 C16.33849905 56.7234895 18.01836063 50.79988599 20.22143555 43.94165039 C21.34299627 40.42262868 22 37.73209968 22 34 C20.35 34 18.7 34 17 34 C13.80072642 41.11346862 11.67167497 48.41395603 9.66333008 55.92919922 C8.08419044 61.83161912 8.08419044 61.83161912 7 64 C-1.35104207 64.68271293 -9.61988971 65.15392039 -18 65 C-18 63.35 -18 61.7 -18 60 C-16.1746875 59.7525 -16.1746875 59.7525 -14.3125 59.5 C-10.73287758 58.60008408 -9.29948391 57.60370684 -7.39550781 54.44555664 C-4.95134555 50.24023589 -3.55325499 46.064228 -2.359375 41.37109375 C-2.14686096 40.57776138 -1.93434692 39.78442902 -1.71539307 38.96705627 C-1.27245815 37.303984 -0.8358146 35.63922419 -0.40527344 33.97290039 C0.2500956 31.43713011 0.92403806 28.90688431 1.6015625 26.37695312 C2.03233463 24.75028684 2.46205823 23.12334245 2.890625 21.49609375 C3.08851624 20.74798935 3.28640747 19.99988495 3.49029541 19.22911072 C4.62325665 14.83000269 5.44087689 10.50894968 6 6 C3.69 5.67 1.38 5.34 -1 5 C-0.67 3.35 -0.34 1.7 0 0 Z " fill="#000000" transform="translate(27,3)"/>
</svg>
