<?xml version="1.0" encoding="UTF-8"?>
<!-- Generator: visioncortex VTracer 0.6.4 -->
<svg version="1.1" xmlns="http://www.w3.org/2000/svg" width="68" height="74">
<path d="M0 0 C0 1.32 0 2.64 0 4 C-2.31 4.33 -4.62 4.66 -7 5 C-9.34802788 12.62033956 -11.4528224 20.29403015 -13.5 28 C-15.35935366 34.99896444 -17.23659717 41.96956709 -19.44848633 48.86669922 C-20.25929735 52.00298372 -20.21003213 54.77950735 -20 58 C-18.35 58.33 -16.7 58.66 -15 59 C-15 60.32 -15 61.64 -15 63 C-31.335 63.495 -31.335 63.495 -48 64 C-47.67 62.35 -47.34 60.7 -47 59 C-44.69 58.34 -42.38 57.68 -40 57 C-35.70047538 46.80491509 -32.56575185 36.35698337 -29.6875 25.6875 C-29.51105957 25.04528503 -29.33461914 24.40307007 -29.15283203 23.74139404 C-26.98850085 15.82761693 -25.38696834 8.20690927 -25 0 C-16.49951421 -1.20400323 -8.52252827 -0.73861912 0 0 Z " fill="#000000" transform="translate(58,3)"/>
</svg>
