<?xml version="1.0" encoding="UTF-8"?>
<!-- Generator: visioncortex VTracer 0.6.4 -->
<svg version="1.1" xmlns="http://www.w3.org/2000/svg" width="60" height="80">
<path d="M0 0 C0.75410156 0.00322266 1.50820313 0.00644531 2.28515625 0.00976562 C3.06246094 0.01814453 3.83976562 0.02652344 4.640625 0.03515625 C5.43339844 0.03966797 6.22617187 0.04417969 7.04296875 0.04882812 C8.99222008 0.0605706 10.94143238 0.07850479 12.890625 0.09765625 C12.36017414 6.7150307 11.03361946 12.4554083 8.890625 18.72265625 C7.03593435 24.19924278 5.50846307 29.33631625 4.890625 35.09765625 C5.880625 35.09765625 6.870625 35.09765625 7.890625 35.09765625 C8.550625 33.44765625 9.210625 31.79765625 9.890625 30.09765625 C11.540625 29.76765625 13.190625 29.43765625 14.890625 29.09765625 C15.4385467 32.82352383 14.92830001 34.04225182 12.765625 37.22265625 C9.58250811 40.67251478 6.43257216 42.81866205 1.6484375 43.34375 C-2.51050377 43.45965492 -5.49305961 43.33219174 -9.109375 41.09765625 C-11.27301325 36.77037975 -10.28479823 32.17660475 -8.83203125 27.7578125 C-8.28925226 26.22147196 -7.7356463 24.68891824 -7.171875 23.16015625 C-5.07211415 17.41626289 -3.65829701 12.20528219 -3.109375 6.09765625 C-4.759375 5.76765625 -6.409375 5.43765625 -8.109375 5.09765625 C-8.109375 3.77765625 -8.109375 2.45765625 -8.109375 1.09765625 C-5.33213575 0.3107718 -2.88327423 -0.02184299 0 0 Z " fill="#000000" transform="translate(25.109375,27.90234375)"/>
<path d="M0 0 C2.64 0 5.28 0 8 0 C10 2 10 2 10.1953125 3.9453125 C10 10 10 10 7 13 C4.69 13 2.38 13 0 13 C-1.5625 11.4375 -1.5625 11.4375 -3 9 C-2.67272727 2.67272727 -2.67272727 2.67272727 0 0 Z " fill="#000000" transform="translate(32,7)"/>
</svg>
