<?xml version="1.0" encoding="UTF-8"?>
<!-- Generator: visioncortex VTracer 0.6.4 -->
<svg version="1.1" xmlns="http://www.w3.org/2000/svg" width="76" height="96">
<path d="M0 0 C1.16660156 0.00322266 2.33320312 0.00644531 3.53515625 0.00976562 C4.75847656 0.01814453 5.98179688 0.02652344 7.2421875 0.03515625 C8.47324219 0.03966797 9.70429687 0.04417969 10.97265625 0.04882812 C14.02088142 0.06064295 17.06901064 0.07711597 20.1171875 0.09765625 C20.1171875 1.74765625 20.1171875 3.39765625 20.1171875 5.09765625 C18.1371875 5.75765625 16.1571875 6.41765625 14.1171875 7.09765625 C10.96845721 14.41445328 8.71880404 21.78172316 6.6796875 29.47265625 C-0.49015766 55.41624965 -0.49015766 55.41624965 -11.8828125 62.09765625 C-18.05701299 64.49654944 -23.03129723 65.20657885 -29.2578125 62.78515625 C-31.8828125 61.09765625 -31.8828125 61.09765625 -33.8828125 58.09765625 C-34.49829069 51.84029463 -33.792642 48.98494312 -29.8828125 44.09765625 C-28.6246875 44.05640625 -27.3665625 44.01515625 -26.0703125 43.97265625 C-25.36261719 43.94945312 -24.65492187 43.92625 -23.92578125 43.90234375 C-21.8828125 44.09765625 -21.8828125 44.09765625 -18.8828125 46.09765625 C-18.51358173 53.48227163 -18.51358173 53.48227163 -20.3828125 56.59765625 C-20.8778125 57.09265625 -21.3728125 57.58765625 -21.8828125 58.09765625 C-17.22511718 56.24912957 -16.16661616 53.46210207 -14.11425781 49.08886719 C-11.91785567 43.75375239 -10.33062926 38.26792326 -8.7578125 32.72265625 C-8.25701172 31.00949219 -8.25701172 31.00949219 -7.74609375 29.26171875 C-5.61718068 21.91488149 -3.68413339 14.53127627 -1.8828125 7.09765625 C-3.8628125 6.43765625 -5.8428125 5.77765625 -7.8828125 5.09765625 C-7.8828125 3.77765625 -7.8828125 2.45765625 -7.8828125 1.09765625 C-5.16879956 -0.25935022 -3.03434934 -0.01472985 0 0 Z " fill="#000000" transform="translate(47.8828125,24.90234375)"/>
<path d="M0 0 C2.64 0 5.28 0 8 0 C8.99 0.99 9.98 1.98 11 3 C11 4.98 11 6.96 11 9 C9.35 10.65 7.7 12.3 6 14 C3.69 13.67 1.38 13.34 -1 13 C-2.91903365 10.1778917 -2.99110212 8.87098068 -2.75 5.375 C-2 2 -2 2 0 0 Z " fill="#000000" transform="translate(55,4)"/>
</svg>
