<?xml version="1.0" encoding="UTF-8"?>
<!-- Generator: visioncortex VTracer 0.6.4 -->
<svg version="1.1" xmlns="http://www.w3.org/2000/svg" width="74" height="76">
<path d="M0 0 C9.57 0 19.14 0 29 0 C29 1.65 29 3.3 29 5 C28.071875 5.268125 27.14375 5.53625 26.1875 5.8125 C23.10125068 6.96227916 22.025913 7.55014716 20 10 C19.1234625 12.83453649 18.39032903 15.58814786 17.73046875 18.47265625 C17.31215102 20.19473486 16.89352095 21.91673762 16.47460938 23.63867188 C15.83062426 26.34038115 15.19200885 29.04319566 14.56030273 31.74780273 C8.62517676 56.98426452 8.62517676 56.98426452 -1 63 C-1.825 63.5775 -2.65 64.155 -3.5 64.75 C-8.91529204 66.68403287 -14.30744498 66.22804004 -20 66 C-20.33 65.01 -20.66 64.02 -21 63 C-22.65 63 -24.3 63 -26 63 C-29.04143836 59.40557285 -30.37549075 57.2150206 -30 52.4375 C-29.34906161 48.38112602 -27.9417954 45.9417954 -25 43 C-16 43 -16 43 -14 44.5625 C-12 47 -12 47 -11.625 50.5 C-12.16283925 55.51983299 -12.16283925 55.51983299 -14 58 C-16.125 59.25 -16.125 59.25 -18 60 C-16.68 60.33 -15.36 60.66 -14 61 C-9.51203984 57.4213651 -8.34950561 53.15520754 -6.6875 47.875 C-6.39552734 46.97080322 -6.10355469 46.06660645 -5.80273438 45.13500977 C-3.36647582 37.45157494 -1.14574386 29.70651638 1 21.9375 C1.31493408 20.8139209 1.62986816 19.6903418 1.9543457 18.53271484 C2.23753662 17.47906738 2.52072754 16.42541992 2.8125 15.33984375 C3.06644531 14.40519287 3.32039063 13.47054199 3.58203125 12.50756836 C4.00915198 9.94509344 3.83810818 8.43201036 3 6 C1.68 5.67 0.36 5.34 -1 5 C-0.67 3.35 -0.34 1.7 0 0 Z " fill="#000000" transform="translate(39,5)"/>
</svg>
