<?xml version="1.0" encoding="UTF-8"?>
<!-- Generator: visioncortex VTracer 0.6.4 -->
<svg version="1.1" xmlns="http://www.w3.org/2000/svg" width="61" height="81">
<path d="M0 0 C1 1 1 1 1.25 4.91015625 C1.18883111 10.4251872 -0.28742874 15.23421479 -2 20.4375 C-2.56461062 22.20635894 -3.12721499 23.97585992 -3.6875 25.74609375 C-3.93886719 26.51622803 -4.19023437 27.2863623 -4.44921875 28.07983398 C-5.09190726 29.98747951 -5.09190726 29.98747951 -5 32 C-4.75765625 31.45730469 -4.5153125 30.91460937 -4.265625 30.35546875 C-0.64096081 22.6182048 -0.64096081 22.6182048 3 21 C7.30194473 20.46771069 10.28771918 20.52514612 14 23 C14 25.97 14 28.94 14 32 C11 35 11 35 8.25 35.125 C5.1217954 35.00468444 3.61385994 34.6085292 1 33 C0.34 33.99 -0.32 34.98 -1 36 C-0.16855469 36.39832031 -0.16855469 36.39832031 0.6796875 36.8046875 C1.40414062 37.15789063 2.12859375 37.51109375 2.875 37.875 C3.95394531 38.39707031 3.95394531 38.39707031 5.0546875 38.9296875 C7 40 7 40 9 42 C9.37440428 47.52246315 8.74301123 51.7709663 7 57 C9.33524782 54.74259377 11.18705073 52.7194239 13 50 C14.32 50 15.64 50 17 50 C17.56123666 53.8164093 17.03056013 54.95670649 14.75 58.1875 C11.7486375 61.25707528 9.86189246 62.76688501 5.59765625 63.30078125 C0.56810513 63.32403033 -2.89825379 63.28139696 -7 60 C-7.25287193 53.93107371 -6.69832609 48.83799592 -5 43 C-5.99 43 -6.98 43 -8 43 C-8.17128418 43.5347998 -8.34256836 44.06959961 -8.51904297 44.62060547 C-9.29807533 47.04081336 -10.08641306 49.45788933 -10.875 51.875 C-11.14441406 52.71675781 -11.41382812 53.55851562 -11.69140625 54.42578125 C-11.95566406 55.23144531 -12.21992188 56.03710938 -12.4921875 56.8671875 C-12.73308105 57.61081543 -12.97397461 58.35444336 -13.22216797 59.12060547 C-14 61 -14 61 -16 63 C-19.96 63 -23.92 63 -28 63 C-27.46207001 55.45315865 -25.5768688 48.8036265 -23.25 41.625 C-20.68602988 33.49122501 -18.15809623 25.36011862 -15.9375 17.125 C-15.61410645 15.96798584 -15.61410645 15.96798584 -15.28417969 14.78759766 C-14.31304869 11.11212503 -13.88551636 8.62769171 -15 5 C-16.32 4.67 -17.64 4.34 -19 4 C-19 2.68 -19 1.36 -19 0 C-6.16472546 -1.36993899 -6.16472546 -1.36993899 0 0 Z " fill="#000000" transform="translate(34,6)"/>
</svg>
