<?xml version="1.0" encoding="UTF-8"?>
<!-- Generator: visioncortex VTracer 0.6.4 -->
<svg version="1.1" xmlns="http://www.w3.org/2000/svg" width="79" height="73">
<path d="M0 0 C1.19882812 -0.00257812 2.39765625 -0.00515625 3.6328125 -0.0078125 C6.26224796 0.09989931 8.38341473 0.34405536 10.875 1.125 C10.21740251 6.39270198 9.14235876 11.42633173 7.8125 16.5625 C7.62623047 17.29404297 7.43996094 18.02558594 7.24804688 18.77929688 C6.7936242 20.56203198 6.33477534 22.34363787 5.875 24.125 C8.25490178 19.62018592 10.20627953 15.27582943 11.8125 10.4375 C13.43095259 5.79492684 15.06172259 3.1968068 18.875 0.125 C27.06756018 -0.3476477 27.06756018 -0.3476477 30.4375 1.625 C31.875 3.125 31.875 3.125 31.875 12.125 C27.875 16.125 27.875 16.125 24.6875 16.3125 C20.71683507 16.1172214 19.03303031 15.42174932 15.875 13.125 C15.69324219 13.99511719 15.69324219 13.99511719 15.5078125 14.8828125 C14.53764526 19.40528442 13.44102217 23.76250966 11.875 28.125 C12.926875 28.49625 13.97875 28.8675 15.0625 29.25 C19.25308141 31.01311047 21.21549542 33.49840285 23.875 37.125 C23.27200836 44.36089973 21.7599413 51.11870876 19.875 58.125 C20.6175 57.63 21.36 57.135 22.125 56.625 C24.875 55.125 24.875 55.125 28.875 55.125 C28.60460418 58.36974984 28.0492292 59.91704902 25.9375 62.4375 C21.54998882 64.8551082 17.78008653 64.90310082 12.875 64.125 C9.52907682 62.83486025 6.5387958 61.4525916 4.875 58.125 C4.41609874 51.68971023 4.92049137 46.23283946 6.875 40.125 C7.04428543 37.33255955 7.04428543 37.33255955 6.875 35.125 C5.555 35.125 4.235 35.125 2.875 35.125 C2.10149853 37.56168248 1.33060499 39.99911479 0.5625 42.4375 C0.33393311 43.16211426 0.10536621 43.88672852 -0.13012695 44.63330078 C-1.72974605 49.74732885 -3.16782782 54.88176084 -4.44921875 60.0859375 C-5.125 62.125 -5.125 62.125 -7.125 64.125 C-9.92397088 64.46134446 -12.62867262 64.68343943 -15.4375 64.8125 C-16.19740234 64.85955078 -16.95730469 64.90660156 -17.74023438 64.95507812 C-21.71544537 65.16575395 -25.23721801 65.15708584 -29.125 64.125 C-29.125 62.805 -29.125 61.485 -29.125 60.125 C-26.815 59.135 -24.505 58.145 -22.125 57.125 C-18.48095891 48.8992548 -16.03778462 40.38577449 -13.60571289 31.74658203 C-12.93448165 29.36428744 -12.25398927 26.98477959 -11.57226562 24.60546875 C-11.13747569 23.07567567 -10.70321218 21.54573285 -10.26953125 20.015625 C-10.06850296 19.31238098 -9.86747467 18.60913696 -9.66035461 17.88458252 C-8.56748848 13.98528929 -7.71000124 10.13219994 -7.125 6.125 C-10.095 5.63 -10.095 5.63 -13.125 5.125 C-13.125 3.805 -13.125 2.485 -13.125 1.125 C-8.69847799 0.27218383 -4.50566529 -0.00973146 0 0 Z " fill="#000000" transform="translate(42.125,3.875)"/>
</svg>
