<?xml version="1.0" encoding="UTF-8"?>
<!-- Generator: visioncortex VTracer 0.6.4 -->
<svg version="1.1" xmlns="http://www.w3.org/2000/svg" width="59" height="84">
<path d="M0 0 C1.12664063 -0.01417969 2.25328125 -0.02835938 3.4140625 -0.04296875 C6.375 0.1875 6.375 0.1875 9.375 2.1875 C9.81112003 9.31934522 8.21542898 15.25504726 6.1875 22.0625 C5.54546294 24.28512448 4.90353667 26.50778098 4.26171875 28.73046875 C3.94251465 29.82149902 3.62331055 30.9125293 3.29443359 32.03662109 C1.99946989 36.47443349 0.74409231 40.92270759 -0.5 45.375 C-0.70262451 46.08575684 -0.90524902 46.79651367 -1.11401367 47.52880859 C-2.19961801 51.39425349 -3.0441918 55.21452473 -3.625 59.1875 C-1.975 57.5375 -0.325 55.8875 1.375 54.1875 C3.025 54.1875 4.675 54.1875 6.375 54.1875 C6.045 56.4975 5.715 58.8075 5.375 61.1875 C-1.06227052 65.62206414 -5.83906463 67.14214494 -13.625 66.1875 C-16.75 64.1875 -16.75 64.1875 -18.625 62.1875 C-18.94500363 56.36758476 -17.84626171 51.79689071 -16.03515625 46.2890625 C-15.63918495 45.03746841 -15.63918495 45.03746841 -15.23521423 43.7605896 C-14.39543241 41.10810063 -13.54289204 38.45999266 -12.6875 35.8125 C-11.83624497 33.17199049 -10.98822915 30.53066693 -10.15049744 27.88583374 C-9.63098341 26.24592103 -9.10393277 24.60836876 -8.56788635 22.9737854 C-6.89418465 17.69473154 -6.08873379 12.7090557 -5.625 7.1875 C-7.605 6.5275 -9.585 5.8675 -11.625 5.1875 C-11.625 3.8675 -11.625 2.5475 -11.625 1.1875 C-7.70617779 0.2701727 -4.02154323 0.02311232 0 0 Z " fill="#000000" transform="translate(30.625,9.8125)"/>
</svg>
