<?xml version="1.0" encoding="UTF-8"?>
<!-- Generator: visioncortex VTracer 0.6.4 -->
<svg version="1.1" xmlns="http://www.w3.org/2000/svg" width="70" height="75">
<path d="M0 0 C0 1.32 0 2.64 0 4 C-0.9075 4.309375 -1.815 4.61875 -2.75 4.9375 C-13.55491367 11.79446445 -15.8180041 35.89450163 -18.88671875 47.7578125 C-19.86444243 51.52379613 -20.91477099 55.26364075 -22 59 C-11.98099011 57.68230709 -7.05291491 52.70370988 -1 45 C0.32 45 1.64 45 3 45 C3.42446917 51.36703748 2.01472942 56.96625075 0 63 C-0.33 63.33 -0.66 63.66 -1 64 C-17.5 64 -34 64 -51 64 C-51 62.68 -51 61.36 -51 60 C-50.39671875 59.84144531 -49.7934375 59.68289062 -49.171875 59.51953125 C-47.97304688 59.16955078 -47.97304688 59.16955078 -46.75 58.8125 C-45.96109375 58.59207031 -45.1721875 58.37164062 -44.359375 58.14453125 C-40.41886449 56.23299221 -38.4655395 53.17516393 -36.875 49.16015625 C-36.58625 48.13792969 -36.2975 47.11570313 -36 46.0625 C-35.67 44.91910156 -35.34 43.77570312 -35 42.59765625 C-34.67 41.41042969 -34.34 40.22320312 -34 39 C-33.33402055 36.66647043 -32.66735524 34.33313649 -32 32 C-31.67515625 30.845 -31.3503125 29.69 -31.015625 28.5 C-29.69374087 23.94458392 -28.22738204 19.43949047 -26.734375 14.9375 C-25.96215216 11.84860863 -25.86787994 9.17088137 -26 6 C-27.32 5.67 -28.64 5.34 -30 5 C-30 3.68 -30 2.36 -30 1 C-9.46808511 -0.19148936 -9.46808511 -0.19148936 0 0 Z " fill="#000000" transform="translate(58,2)"/>
</svg>
