<?xml version="1.0" encoding="UTF-8"?>
<!-- Generator: visioncortex VTracer 0.6.4 -->
<svg version="1.1" xmlns="http://www.w3.org/2000/svg" width="100" height="73">
<path d="M0 0 C0 1.32 0 2.64 0 4 C-2.31 4.66 -4.62 5.32 -7 6 C-9.76006965 12.90902051 -11.84613848 19.99181363 -13.90673828 27.1340332 C-14.49407813 29.16700255 -15.08848424 31.19780903 -15.68359375 33.22851562 C-18.06895279 41.42594545 -20.18345854 49.65548527 -22 58 C-20.02 58.33 -18.04 58.66 -16 59 C-16 60.32 -16 61.64 -16 63 C-18.87018441 64.43509221 -21.33543723 64.11158506 -24.5390625 64.09765625 C-26.49199219 64.09282227 -26.49199219 64.09282227 -28.484375 64.08789062 C-29.86458399 64.07953466 -31.24479232 64.07106971 -32.625 64.0625 C-34.01301926 64.05748501 -35.40104022 64.0529221 -36.7890625 64.04882812 C-40.19275132 64.03700976 -43.59635439 64.02053434 -47 64 C-47 62.68 -47 61.36 -47 60 C-46.2575 59.855625 -45.515 59.71125 -44.75 59.5625 C-37.22202671 55.28524245 -35.24463673 40.95742121 -33 33 C-33 32.34 -33 31.68 -33 31 C-33.3623877 31.61407715 -33.72477539 32.2281543 -34.09814453 32.86083984 C-35.7733917 35.69911258 -37.44919322 38.53705764 -39.125 41.375 C-39.69476563 42.34050781 -40.26453125 43.30601563 -40.8515625 44.30078125 C-44.54203612 50.54942409 -48.25723371 56.78253643 -52 63 C-62.67921847 64.14403049 -73.2707384 64.09541833 -84 64 C-84.33 62.35 -84.66 60.7 -85 59 C-84.12988281 58.79697266 -84.12988281 58.79697266 -83.2421875 58.58984375 C-82.46101563 58.37457031 -81.67984375 58.15929688 -80.875 57.9375 C-79.72644531 57.64166016 -79.72644531 57.64166016 -78.5546875 57.33984375 C-71.92731594 53.86402044 -68.46196696 46.75014925 -65.1875 40.3125 C-64.76734619 39.50031006 -64.34719238 38.68812012 -63.91430664 37.85131836 C-55.64187502 22.43615049 -55.64187502 22.43615049 -50 6 C-51.98 5.67 -53.96 5.34 -56 5 C-55.67 3.35 -55.34 1.7 -55 0 C-48.07 0 -41.14 0 -34 0 C-32 2 -32 2 -31.8046875 5.0390625 C-31.82789063 6.22242188 -31.85109375 7.40578125 -31.875 8.625 C-31.89304688 9.81351563 -31.91109375 11.00203125 -31.9296875 12.2265625 C-31.95289063 13.14179688 -31.97609375 14.05703125 -32 15 C-31.04287109 13.50146484 -31.04287109 13.50146484 -30.06640625 11.97265625 C-29.23183727 10.66922829 -28.39719823 9.36584519 -27.5625 8.0625 C-27.14162109 7.40314453 -26.72074219 6.74378906 -26.28710938 6.06445312 C-23.11328125 1.11328125 -23.11328125 1.11328125 -22 0 C-15.08040938 -1.09256694 -6.75381682 -2.25127227 0 0 Z M-34 17 C-33 19 -33 19 -33 19 Z M-52 26 C-60.19807572 40.1308739 -60.19807572 40.1308739 -62 56 C-60.35 56.99 -58.7 57.98 -57 59 C-55.20066142 51.66227175 -53.6114978 44.3054798 -52.25 36.875 C-52.04056763 35.77393921 -52.04056763 35.77393921 -51.8269043 34.65063477 C-51.23064895 31.30716501 -50.90850691 29.27447926 -52 26 Z " fill="#000000" transform="translate(91,4)"/>
</svg>
