<?xml version="1.0" encoding="UTF-8"?>
<!-- Generator: visioncortex VTracer 0.6.4 -->
<svg version="1.1" xmlns="http://www.w3.org/2000/svg" width="96" height="67">
<path d="M0 0 C0.495 0.495 0.99 0.99 1.5 1.5 C2.11875 1.17 2.7375 0.84 3.375 0.5 C7.71091785 -0.88749371 11.97949664 -1.02100717 16.5 -0.5 C17.49 0.16 18.48 0.82 19.5 1.5 C19.5 2.49 19.5 3.48 19.5 4.5 C20.49 3.84 21.48 3.18 22.5 2.5 C23.49 2.5 24.48 2.5 25.5 2.5 C25.83 1.51 26.16 0.52 26.5 -0.5 C28.94777839 -1.7238892 30.23390541 -1.516364 32.9375 -1.25 C33.71996094 -1.18296875 34.50242188 -1.1159375 35.30859375 -1.046875 C37.85962232 -0.41025468 38.83607581 0.50971125 40.5 2.5 C41.24796901 10.87725289 38.78238664 17.74790174 36.13378906 25.56738281 C35.16523249 28.52080878 34.3322205 31.50556174 33.5 34.5 C37.12793998 32.63433512 37.12793998 32.63433512 39.5 29.5 C40.82 29.5 42.14 29.5 43.5 29.5 C43.5 31.15 43.5 32.8 43.5 34.5 C34.94255147 41.89052373 34.94255147 41.89052373 27.46875 41.6953125 C24.85627321 41.43613822 22.80073665 40.75494726 20.5 39.5 C18.16875414 34.83750827 19.66521578 28.21241244 21.140625 23.41845703 C22.39954586 19.85927579 23.79530635 16.36535693 25.22265625 12.87109375 C26.67716378 9.6332693 26.67716378 9.6332693 26.5 6.5 C18.932848 14.60766286 16.78777036 25.16735492 13.91992188 35.61279297 C12.59509385 40.40490615 12.59509385 40.40490615 11.5 41.5 C7.54 41.5 3.58 41.5 -0.5 41.5 C-0.995 41.005 -0.995 41.005 -1.5 40.5 C-0.90473195 34.1651721 0.54208335 28.43851514 2.4375 22.375 C2.70240234 21.50746094 2.96730469 20.63992187 3.24023438 19.74609375 C4.6007325 15.31012715 6.00888659 10.89410232 7.5 6.5 C0.14155403 13.04084086 -2.23430334 21.19448939 -4.75 30.5 C-5.018125 31.46550781 -5.28625 32.43101563 -5.5625 33.42578125 C-6.21566324 35.78183438 -6.8588706 38.1406438 -7.5 40.5 C-12.12 40.5 -16.74 40.5 -21.5 40.5 C-20.96958549 33.33203729 -19.30211899 27.10328875 -17 20.3125 C-14.17192059 12.05158908 -14.17192059 12.05158908 -12.5 3.5 C-13.82 3.5 -15.14 3.5 -16.5 3.5 C-16.5 2.18 -16.5 0.86 -16.5 -0.5 C-4.75 -2.85 -4.75 -2.85 0 0 Z " fill="#000000" transform="translate(37.5,9.5)"/>
</svg>
