<?xml version="1.0" encoding="UTF-8"?>
<!-- Generator: visioncortex VTracer 0.6.4 -->
<svg version="1.1" xmlns="http://www.w3.org/2000/svg" width="89" height="82">
<path d="M0 0 C7.92 0 15.84 0 24 0 C27.16137633 3.16137633 27.44109503 3.8099175 28.09765625 7.96484375 C28.25943359 8.92970703 28.42121094 9.89457031 28.58789062 10.88867188 C28.74451172 11.89478516 28.90113281 12.90089844 29.0625 13.9375 C29.38102798 15.92670086 29.70504255 17.91503274 30.03515625 19.90234375 C30.1731665 20.78398193 30.31117676 21.66562012 30.45336914 22.57397461 C30.99613044 24.98282634 31.79976844 26.85243056 33 29 C33.7047491 26.6498281 34.3887943 24.29658167 35.0625 21.9375 C35.26166016 21.28072266 35.46082031 20.62394531 35.66601562 19.94726562 C36.99155473 15.226486 36.99375663 11.80628206 36 7 C33.36 6.34 30.72 5.68 28 5 C28 3.35 28 1.7 28 0 C37.57 0 47.14 0 57 0 C57 1.32 57 2.64 57 4 C56.13375 4.37125 55.2675 4.7425 54.375 5.125 C47.30333405 9.0537033 44.86965663 12.51779043 42.64453125 20.1484375 C42.43302429 20.84908829 42.22151733 21.54973907 42.00360107 22.2716217 C41.55590651 23.75788654 41.11184535 25.24525002 40.6711731 26.73361206 C40.0140909 28.95241847 39.3475241 31.16813039 38.67749023 33.38305664 C37.13454824 38.4876929 35.59877319 43.59447725 34.07324219 48.7043457 C33.42147173 50.88579594 32.76576803 53.06603073 32.109375 55.24609375 C31.91148376 55.91257431 31.71359253 56.57905487 31.50970459 57.26573181 C30.1136176 61.8863824 30.1136176 61.8863824 29 63 C26.69 63 24.38 63 22 63 C19.26293692 59.02406075 18.22021936 55.27011916 17.4296875 50.58203125 C17.30312775 49.8835759 17.17656799 49.18512054 17.0461731 48.46549988 C16.64624569 46.24941242 16.26000605 44.03122386 15.875 41.8125 C15.48040355 39.5835828 15.08295293 37.35522014 14.68240356 35.12736511 C14.32166788 33.11428976 13.96898358 31.09977658 13.61669922 29.08520508 C13.16145743 26.10356472 13.16145743 26.10356472 12 24 C10.81637198 27.51535723 9.65621866 31.03804195 8.5 34.5625 C8.16613281 35.55314453 7.83226563 36.54378906 7.48828125 37.56445312 C4.49046398 46.44042013 4.49046398 46.44042013 6 55.4375 C7.4409061 58.08260323 7.4409061 58.08260323 15 59 C15 60.32 15 61.64 15 63 C-7.59489033 64.19388403 -7.59489033 64.19388403 -18 64 C-18.33 62.35 -18.66 60.7 -19 59 C-18.41992188 58.93683594 -17.83984375 58.87367187 -17.2421875 58.80859375 C-16.46101563 58.68613281 -15.67984375 58.56367187 -14.875 58.4375 C-13.72644531 58.28087891 -13.72644531 58.28087891 -12.5546875 58.12109375 C-7.8932699 56.07548695 -5.0664206 52.2984483 -2.94824219 47.7331543 C-2.02076573 45.21771801 -1.21032048 42.69209571 -0.4375 40.125 C-0.14866943 39.21041016 0.14016113 38.29582031 0.43774414 37.35351562 C1.3093321 34.57407829 2.15577079 31.78785018 3 29 C3.51747355 27.34090997 4.0356635 25.68204315 4.5546875 24.0234375 C5.01751271 22.51620336 5.47855383 21.00841981 5.9375 19.5 C6.14898682 18.81309082 6.36047363 18.12618164 6.57836914 17.41845703 C7.62800351 13.853004 8.23605231 10.71961221 8 7 C5.36 6.01 2.72 5.02 0 4 C0 2.68 0 1.36 0 0 Z " fill="#000000" transform="translate(24,5)"/>
</svg>
