<?xml version="1.0" encoding="UTF-8"?>
<!-- Generator: visioncortex VTracer 0.6.4 -->
<svg version="1.1" xmlns="http://www.w3.org/2000/svg" width="71" height="63">
<path d="M0 0 C2.56278699 -0.05420701 5.12441483 -0.09377007 7.6875 -0.125 C8.40873047 -0.14175781 9.12996094 -0.15851562 9.87304688 -0.17578125 C14.04876781 -0.21391569 17.2494138 0.1210081 21 2 C21.515625 1.67 22.03125 1.34 22.5625 1 C27.12775951 -0.87292698 30.86658542 -0.4617615 35.375 1.375 C38 3 38 3 39 5 C39.4429097 11.3905543 38.24964051 16.21665647 36.0625 22.1875 C35.50905345 23.74254356 34.9581948 25.29851104 34.41015625 26.85546875 C34.15766113 27.5726709 33.90516602 28.28987305 33.64501953 29.02880859 C32.89359863 31.32516451 32.37771657 33.61417004 32 36 C34.64752004 33.42215154 36.94432065 31.08351902 39 28 C40.32 28 41.64 28 43 28 C42.59892905 33.48130299 40.68205023 37.04675061 37 41 C33.03227125 43.46642598 28.56140155 43.61740183 24 43 C19.43055556 40.86111111 19.43055556 40.86111111 18 38 C17.77825841 30.47662464 20.27490691 23.59899449 22.74609375 16.61328125 C23.9668394 13.09555625 25.0098796 9.58745949 26 6 C17.87491402 11.41672399 16.11395085 20.43104291 13.875 29.375 C13.37861402 31.34272492 12.87629743 33.30896621 12.3671875 35.2734375 C12.04403564 36.56386963 12.04403564 36.56386963 11.71435547 37.88037109 C11 40 11 40 9 42 C5.04 42 1.08 42 -3 42 C-3.24098888 36.75849187 -2.52828442 32.85991984 -0.75 27.9375 C-0.29034258 26.63373541 0.16662227 25.32901887 0.62109375 24.0234375 C0.96696533 23.0329541 0.96696533 23.0329541 1.31982422 22.02246094 C3.09337862 16.74890578 4.52117148 11.36178609 6 6 C3.69 5.67 1.38 5.34 -1 5 C-0.67 3.35 -0.34 1.7 0 0 Z " fill="#000000" transform="translate(20,8)"/>
</svg>
