<?xml version="1.0" encoding="UTF-8"?>
<!-- Generator: visioncortex VTracer 0.6.4 -->
<svg version="1.1" xmlns="http://www.w3.org/2000/svg" width="68" height="67">
<path d="M0 0 C4.42460945 2.26397214 6.47264935 4.65232305 8.02734375 9.31640625 C8.90227099 16.89910898 6.73680259 24.35128389 2.27734375 30.50390625 C1.21832643 31.79507269 0.13451709 33.06628799 -0.97265625 34.31640625 C-1.52179687 34.94675781 -2.0709375 35.57710937 -2.63671875 36.2265625 C-8.82380319 42.87979714 -14.96351756 45.67289634 -23.97265625 46.31640625 C-31.94469384 40.11356417 -31.94469384 40.11356417 -32.97265625 35.31640625 C-33.92264051 25.97489436 -30.08746241 18.06677981 -24.8203125 10.49609375 C-18.51417757 3.05672104 -10.14724756 -3.51637292 0 0 Z M-7.97265625 4.31640625 C-12.31738827 10.60799915 -14.69587674 16.6925337 -16.84765625 24.00390625 C-17.3271875 25.53241211 -17.3271875 25.53241211 -17.81640625 27.09179688 C-19.80041621 33.62890494 -19.80041621 33.62890494 -18.97265625 40.31640625 C-10.74252613 32.85349165 -6.4193843 20.22376043 -4.97265625 9.31640625 C-5.34098964 6.57176598 -5.34098964 6.57176598 -5.97265625 4.31640625 C-6.63265625 4.31640625 -7.29265625 4.31640625 -7.97265625 4.31640625 Z " fill="#000000" transform="translate(50.97265625,7.68359375)"/>
</svg>
