<?xml version="1.0" encoding="UTF-8"?>
<!-- Generator: visioncortex VTracer 0.6.4 -->
<svg version="1.1" xmlns="http://www.w3.org/2000/svg" width="68" height="77">
<path d="M0 0 C3.84674394 2.26141917 6.98691953 4.97383906 9 9 C9.88049174 20.13193123 8.88999663 28.79936186 4 39 C3.62359375 39.9590625 3.2471875 40.918125 2.859375 41.90625 C-0.99651415 50.98467256 -9.89652974 63.44826487 -19 68 C-24.34692529 68.66647227 -29.68790425 69.21763338 -34.56640625 66.6484375 C-39.44869924 62.56637301 -41.58939883 59.00667267 -42.2421875 52.63671875 C-42.99535757 37.3296447 -35.3819024 22.82684471 -25.5 11.5625 C-24.01122219 10.0306793 -22.51179223 8.50911175 -21 7 C-20.37609375 6.28457031 -19.7521875 5.56914062 -19.109375 4.83203125 C-13.63497834 -0.92988625 -7.67476828 -1.7182317 0 0 Z M-8 4 C-12.63520022 7.07452674 -14.25943356 10.22343154 -15.875 15.375 C-16.11766602 16.10525391 -16.36033203 16.83550781 -16.61035156 17.58789062 C-17.42363535 20.05344629 -18.21132516 22.52647104 -19 25 C-19.62144487 26.89874901 -20.24387131 28.79717698 -20.8671875 30.6953125 C-21.49625429 32.6297333 -22.12387788 34.56462408 -22.75 36.5 C-23.04374512 37.40669434 -23.33749023 38.31338867 -23.64013672 39.24755859 C-26.15172923 47.15711396 -28.35523813 54.65190391 -28 63 C-25.08000442 62.68714333 -24.08932085 62.09671915 -22.06640625 59.90625 C-19.7584108 56.66022238 -18.16982095 53.35871781 -16.6875 49.6875 C-16.39407715 48.96546387 -16.1006543 48.24342773 -15.79833984 47.49951172 C-13.23567158 40.97920176 -11.12492806 34.33677316 -9.125 27.625 C-8.82682373 26.63975342 -8.52864746 25.65450684 -8.22143555 24.6394043 C-6.33779049 18.09682228 -5.37045951 11.7961876 -5 5 C-5.99 4.67 -6.98 4.34 -8 4 Z " fill="#000000" transform="translate(53,5)"/>
</svg>
