<?xml version="1.0" encoding="UTF-8"?>
<!-- Generator: visioncortex VTracer 0.6.4 -->
<svg version="1.1" xmlns="http://www.w3.org/2000/svg" width="77" height="76">
<path d="M0 0 C4.26837643 -0.04982839 8.536594 -0.08592015 12.80517578 -0.10986328 C14.25409906 -0.11985586 15.70300251 -0.13345453 17.15185547 -0.15087891 C37.13425904 -0.3849939 37.13425904 -0.3849939 42.4375 4.4375 C45.72989706 7.72989706 46.19150603 10.19189782 46.375 14.6875 C46.31188084 20.08418853 44.83501871 24.13822535 41 28 C36.03346936 31.15643966 31.34578014 31.69023921 25.625 32.1875 C24.37783203 32.3102832 24.37783203 32.3102832 23.10546875 32.43554688 C21.07131913 32.63428563 19.03577051 32.81861584 17 33 C16.15190799 35.49581362 15.32153079 37.99544125 14.5 40.5 C14.26152344 41.19609375 14.02304687 41.8921875 13.77734375 42.609375 C12.16290994 47.59105646 11.76420291 51.76530467 12 57 C13.65 57.66 15.3 58.32 17 59 C16.67 60.65 16.34 62.3 16 64 C11.62196815 64.16750929 7.24375401 64.32807935 2.86523438 64.48217773 C1.37525558 64.53560003 -0.11465609 64.59092962 -1.60449219 64.64819336 C-3.74399337 64.73009836 -5.88364093 64.80517709 -8.0234375 64.87890625 C-9.95582275 64.94960327 -9.95582275 64.94960327 -11.92724609 65.02172852 C-15 65 -15 65 -17 64 C-16.67 62.35 -16.34 60.7 -16 59 C-12.535 58.505 -12.535 58.505 -9 58 C-4.99199093 48.03963347 -1.73004603 37.9977329 1.14697266 27.66308594 C1.75720972 25.47413842 2.37625194 23.28780739 2.99609375 21.1015625 C3.38854123 19.70327095 3.7804873 18.30483855 4.171875 16.90625 C4.5234668 15.65134766 4.87505859 14.39644531 5.23730469 13.10351562 C6.11932557 10.04709045 6.11932557 10.04709045 6 7 C3.69 6.34 1.38 5.68 -1 5 C-0.67 3.35 -0.34 1.7 0 0 Z M25 5 C21.79371981 11.73318839 19.95977591 18.82741912 18 26 C19.65 26.33 21.3 26.66 23 27 C26.53993812 23.95009464 27.72112058 21.59528544 28.75 17.0625 C28.99234375 16.04285156 29.2346875 15.02320313 29.484375 13.97265625 C29.9587436 11.23784937 30.10191304 8.76693912 30 6 C28.35 5.67 26.7 5.34 25 5 Z " fill="#000000" transform="translate(24,4)"/>
</svg>
