<?xml version="1.0" encoding="UTF-8"?>
<!-- Generator: visioncortex VTracer 0.6.4 -->
<svg version="1.1" xmlns="http://www.w3.org/2000/svg" width="99" height="73">
<path d="M0 0 C1.010625 -0.02578125 2.02125 -0.0515625 3.0625 -0.078125 C6.40147806 0.29484595 8.27035507 1.34326273 11 3.25 C11.99 2.59 12.98 1.93 14 1.25 C16.69921875 1.0546875 16.69921875 1.0546875 19.6875 1.125 C21.17830078 1.15207031 21.17830078 1.15207031 22.69921875 1.1796875 C25.96561259 1.27950938 26.77389546 2.95643775 29 5.25 C31.47309287 10.19618575 30.49245018 16.4372739 29.09375 21.5859375 C25.59741896 31.20084785 20.52372754 40.48813623 11 45.25 C6.32818984 45.66527201 3.82491487 44.94993991 0 42.25 C-0.16435547 43.24966797 -0.16435547 43.24966797 -0.33203125 44.26953125 C-3.51351351 62.76351351 -3.51351351 62.76351351 -6 65.25 C-9.96 65.25 -13.92 65.25 -18 65.25 C-18.66 64.59 -19.32 63.93 -20 63.25 C-19.35796074 58.482674 -18.02990651 54.14141677 -16.4375 49.625 C-13.59079443 41.32455896 -11.10105448 32.93571381 -8.6875 24.5 C-8.3380835 23.28618652 -7.98866699 22.07237305 -7.62866211 20.82177734 C-7.3013208 19.66887207 -6.97397949 18.5159668 -6.63671875 17.328125 C-6.34498779 16.30106445 -6.05325684 15.27400391 -5.75268555 14.21582031 C-4.99746564 11.24001382 -4.46055159 8.28415574 -4 5.25 C-6.31 5.25 -8.62 5.25 -11 5.25 C-11 3.93 -11 2.61 -11 1.25 C-7.29565303 0.40562679 -3.79806243 0.05813361 0 0 Z M11.375 11.5546875 C6.87623059 17.10146569 4.85379497 24.28303365 4.875 31.3125 C4.87242188 32.16972656 4.86984375 33.02695312 4.8671875 33.91015625 C4.90634865 36.40564201 4.90634865 36.40564201 6 39.25 C6.66 39.25 7.32 39.25 8 39.25 C14.23916765 24.23440183 14.23916765 24.23440183 16 8.25 C13.95857068 8.25 12.73386965 10.2035387 11.375 11.5546875 Z " fill="#000000" transform="translate(58,3.75)"/>
</svg>
