<?xml version="1.0" encoding="UTF-8"?>
<!-- Generator: visioncortex VTracer 0.6.4 -->
<svg version="1.1" xmlns="http://www.w3.org/2000/svg" width="79" height="91">
<path d="M0 0 C0.99 0.33 1.98 0.66 3 1 C3.33 0.67 3.66 0.34 4 0 C9.94 0 15.88 0 22 0 C22 1.32 22 2.64 22 4 C20.02 4.66 18.04 5.32 16 6 C11.96802029 14.99030113 9.55194495 24.39110775 7 33.875 C6.15009244 37.01940082 5.29626572 40.16269415 4.4375 43.3046875 C4.23237793 44.05530457 4.02725586 44.80592163 3.81591797 45.57928467 C2.09645096 51.79899415 0.11421028 57.90206943 -2 64 C-5.96 64 -9.92 64 -14 64 C-14.29785422 58.3333235 -13.31081409 53.91174271 -11.5 48.5625 C-11.26152344 47.83095703 -11.02304687 47.09941406 -10.77734375 46.34570312 C-10.19403828 44.5607884 -9.59830065 42.77994443 -9 41 C-9.99 41.66 -10.98 42.32 -12 43 C-14.26171875 43.1953125 -14.26171875 43.1953125 -16.6875 43.125 C-17.49574219 43.10695312 -18.30398437 43.08890625 -19.13671875 43.0703125 C-21 43 -21 43 -26 38 C-26.99216631 26.93918295 -24.9891827 17.38496595 -18.03125 8.48046875 C-16.11201405 6.49110687 -14.1557481 4.72719577 -12 3 C-11.46117187 2.53722656 -10.92234375 2.07445312 -10.3671875 1.59765625 C-6.70645819 -1.24851287 -4.36028895 -1.25963903 0 0 Z M-4 5 C-7.29800071 11.1145939 -9.44694347 17.13109577 -11.3125 23.8125 C-11.72725586 25.22305664 -11.72725586 25.22305664 -12.15039062 26.66210938 C-12.40626953 27.56380859 -12.66214844 28.46550781 -12.92578125 29.39453125 C-13.15692627 30.20768799 -13.38807129 31.02084473 -13.6262207 31.85864258 C-14.20519285 34.17549841 -14.20519285 34.17549841 -13 37 C-5.59738965 29.26090737 -1.79355233 20.4835752 -1.9375 9.6875 C-1.94652344 8.80449219 -1.95554687 7.92148437 -1.96484375 7.01171875 C-1.97644531 6.34785156 -1.98804688 5.68398438 -2 5 C-2.66 5 -3.32 5 -4 5 Z " fill="#000000" transform="translate(44,15)"/>
</svg>
