<?xml version="1.0" encoding="UTF-8"?>
<!-- Generator: visioncortex VTracer 0.6.4 -->
<svg version="1.1" xmlns="http://www.w3.org/2000/svg" width="74" height="104">
<path d="M0 0 C4.58524986 3.84169583 6.99436943 7.32109906 7.73046875 13.375 C8.16067774 33.36947511 -0.09718468 47.58819071 -13.4609375 61.80078125 C-15.44552066 63.70528473 -17.44279589 65.35390738 -19.6875 66.9375 C-14.90271178 67.03514874 -10.41064313 66.70862541 -5.6875 65.9375 C-5.95984586 69.7067667 -6.33960163 71.54097068 -8.8671875 74.421875 C-9.75664063 75.16953125 -10.64609375 75.9171875 -11.5625 76.6875 C-12.44679688 77.44546875 -13.33109375 78.2034375 -14.2421875 78.984375 C-18.08951972 82.05732406 -19.90467206 83.196623 -24.79296875 82.9140625 C-26.26733398 82.83671875 -26.26733398 82.83671875 -27.77148438 82.7578125 C-28.79564453 82.69335938 -29.81980469 82.62890625 -30.875 82.5625 C-31.91076172 82.50578125 -32.94652344 82.4490625 -34.01367188 82.390625 C-36.57231271 82.24913334 -39.12997484 82.09772134 -41.6875 81.9375 C-41.6875 80.2875 -41.6875 78.6375 -41.6875 76.9375 C-40.90503906 76.31101562 -40.12257813 75.68453125 -39.31640625 75.0390625 C-38.30449219 74.22179687 -37.29257812 73.40453125 -36.25 72.5625 C-35.24066406 71.75039062 -34.23132813 70.93828125 -33.19140625 70.1015625 C-30.65221245 68.18715659 -30.65221245 68.18715659 -29.6875 65.9375 C-30.244375 65.89625 -30.80125 65.855 -31.375 65.8125 C-34.86573069 64.49168298 -36.72602721 61.98713967 -38.6875 58.9375 C-42.14313368 50.70980075 -41.65689736 40.98648245 -38.79296875 32.63671875 C-33.12442723 18.79586296 -26.2527009 7.5486167 -13.6875 -1.0625 C-8.94099039 -2.64466987 -4.55507636 -1.80084414 0 0 Z M-8.6875 2.9375 C-13.29801371 6.9175161 -15.15744774 10.66726733 -17.125 16.375 C-17.41721436 17.19540771 -17.70942871 18.01581543 -18.01049805 18.86108398 C-22.55351821 31.93285423 -26.12576108 45.34113907 -28.6875 58.9375 C-27.6975 59.9275 -26.7075 60.9175 -25.6875 61.9375 C-17.14689398 54.58308926 -15.11153646 43.25367717 -12.0625 32.8125 C-11.66461477 31.46728444 -11.26618055 30.12223114 -10.8671875 28.77734375 C-9.79830501 25.16665592 -8.73834002 21.55348874 -7.6875 17.9375 C-7.31834473 16.71047363 -6.94918945 15.48344727 -6.56884766 14.21923828 C-5.69514202 10.96595542 -5.52411146 8.28696505 -5.6875 4.9375 C-6.6775 4.2775 -7.6675 3.6175 -8.6875 2.9375 Z " fill="#000000" transform="translate(56.6875,9.0625)"/>
</svg>
