<?xml version="1.0" encoding="UTF-8"?>
<!-- Generator: visioncortex VTracer 0.6.4 -->
<svg version="1.1" xmlns="http://www.w3.org/2000/svg" width="77" height="68">
<path d="M0 0 C2.4377963 -0.05397335 4.87439685 -0.09365616 7.3125 -0.125 C8.00279297 -0.14175781 8.69308594 -0.15851562 9.40429688 -0.17578125 C13.17135396 -0.21217794 14.78431704 -0.14378864 18 2 C18.99 1.34 19.98 0.68 21 0 C25.10967735 -0.67197822 29.28302473 -0.96811768 32.98828125 1.12109375 C36.94549778 4.45497785 36.94549778 4.45497785 37.3125 8.125 C36.90667442 13.15723716 35.45029552 14.46344709 32 18 C25.375 18.25 25.375 18.25 22 16 C20.8125 12.375 20.8125 12.375 20 9 C14.18848657 19.13923619 11.10099686 29.79918605 8 41 C4.85671114 42.6760341 2.83237038 43.23036383 -0.75 43.125 C-1.94882812 43.09792969 -1.94882812 43.09792969 -3.171875 43.0703125 C-5 43 -5 43 -6 42 C-5.55643097 36.41103027 -4.63653281 31.74488039 -2.81323242 26.45922852 C-1.45034768 22.33784214 -0.39175034 18.14038123 0.6875 13.9375 C0.91244141 13.07189453 1.13738281 12.20628906 1.36914062 11.31445312 C1.91551056 9.21034762 2.45815403 7.10527504 3 5 C2.01 5 1.02 5 0 5 C0 3.35 0 1.7 0 0 Z " fill="#000000" transform="translate(23,11)"/>
</svg>
