<?xml version="1.0" encoding="UTF-8"?>
<!-- Generator: visioncortex VTracer 0.6.4 -->
<svg version="1.1" xmlns="http://www.w3.org/2000/svg" width="75" height="76">
<path d="M0 0 C2.71841562 4.31748362 3.19610069 7.40330761 2.125 12.375 C-1.36547675 18.54150892 -6.32750689 20.21369159 -12.875 22.375 C-12.441875 22.74109375 -12.00875 23.1071875 -11.5625 23.484375 C-8.75210511 26.21670337 -7.0605589 28.25855395 -6.40625 32.1953125 C-6.34176622 38.498602 -7.25483172 44.29936896 -8.875 50.375 C-8.153125 50.230625 -7.43125 50.08625 -6.6875 49.9375 C-4.8125 49.5625 -2.9375 49.1875 -1.0625 48.8125 C-0.340625 48.668125 0.38125 48.52375 1.125 48.375 C0.125 54.375 0.125 54.375 -2.4375 56.375 C-6.44214821 58.70497714 -8.31494282 58.93500702 -12.875 58.375 C-19.06321831 56.52939103 -22.12948878 53.38273478 -25.875 48.375 C-25.48783137 42.10019805 -24.49775197 36.47057165 -22.49609375 30.50390625 C-21.73496618 28.26461924 -21.73496618 28.26461924 -21.875 25.375 C-23.855 25.045 -25.835 24.715 -27.875 24.375 C-28.5270027 27.18619304 -29.17170121 29.99875031 -29.8125 32.8125 C-29.99490234 33.59560547 -30.17730469 34.37871094 -30.36523438 35.18554688 C-31.58520238 40.57558734 -32.35175456 45.87266112 -32.875 51.375 C-30.895 52.035 -28.915 52.695 -26.875 53.375 C-26.875 54.695 -26.875 56.015 -26.875 57.375 C-37.765 57.375 -48.655 57.375 -59.875 57.375 C-59.875 55.725 -59.875 54.075 -59.875 52.375 C-58.5446875 52.1275 -58.5446875 52.1275 -57.1875 51.875 C-52.52577758 49.76403136 -51.06019814 46.91450163 -48.875 42.375 C-47.2494536 37.72934623 -45.98931842 33.011334 -44.75 28.25 C-44.41613281 27.02023438 -44.08226562 25.79046875 -43.73828125 24.5234375 C-41.50637861 16.19100099 -39.60521595 7.82462736 -37.875 -0.625 C-40.845 -1.12 -40.845 -1.12 -43.875 -1.625 C-43.875 -2.945 -43.875 -4.265 -43.875 -5.625 C-8.70277277 -7.94600992 -8.70277277 -7.94600992 0 0 Z M-20.875 -0.625 C-21.71357688 1.97758324 -22.54603344 4.58185647 -23.375 7.1875 C-23.61347656 7.92548828 -23.85195313 8.66347656 -24.09765625 9.42382812 C-25.07440136 12.50755196 -25.875 15.11995809 -25.875 18.375 C-21.66679631 18.04528261 -21.66679631 18.04528261 -18.1875 15.875 C-15.75416319 11.24007274 -13.64769945 6.60254541 -14.1875 1.3125 C-14.414375 0.673125 -14.64125 0.03375 -14.875 -0.625 C-17.92413228 -1.63611093 -17.92413228 -1.63611093 -20.875 -0.625 Z " fill="#000000" transform="translate(66.875,11.625)"/>
</svg>
