<?xml version="1.0" encoding="UTF-8"?>
<!-- Generator: visioncortex VTracer 0.6.4 -->
<svg version="1.1" xmlns="http://www.w3.org/2000/svg" width="67" height="75">
<path d="M0 0 C3.55980151 1.98527392 5.83166629 3.51477222 8.25 6.8125 C8.65674328 9.61798572 8.49211657 11.95552445 8.25 14.8125 C6.93 16.1325 5.61 17.4525 4.25 18.8125 C0.95 18.8125 -2.35 18.8125 -5.75 18.8125 C-8.42927341 14.79358988 -7.90601248 12.57088077 -7.75 7.8125 C-6.76 6.8225 -5.77 5.8325 -4.75 4.8125 C-6.4 4.8125 -8.05 4.8125 -9.75 4.8125 C-14.19152791 8.32654609 -14.19152791 8.32654609 -13.8125 12.6875 C-13.19755976 18.45708636 -10.04440643 21.29750475 -6.11328125 25.31640625 C-0.10974655 31.65732968 3.6136333 37.66804405 3.45703125 46.48046875 C2.82417766 53.6090271 -1.5656454 59.19030433 -6.75 63.8125 C-12.16862575 67.18508864 -18.52735737 67.79650222 -24.75 66.8125 C-29.79952865 65.18010927 -34.38965994 63.05570752 -37.4375 58.5625 C-39.06303006 53.9181284 -38.73957538 50.55600807 -37.75 45.8125 C-34.6815153 42.83699969 -33.28763669 41.84775487 -28.9375 41.5625 C-25.75 41.8125 -25.75 41.8125 -23.25 43.8125 C-19.89694485 47.83616618 -20.31839023 49.71950467 -20.75 54.8125 C-22.4 56.4625 -24.05 58.1125 -25.75 59.8125 C-23.44 60.1425 -21.13 60.4725 -18.75 60.8125 C-15.63892033 58.18004797 -13.94041893 56.44326272 -12.75 52.5 C-12.75 46.73084244 -14.12385498 42.57049462 -18.0625 38.3125 C-18.949375 37.4875 -19.83625 36.6625 -20.75 35.8125 C-25.72010006 29.728412 -29.21122598 25.16088247 -29 17.12109375 C-28.32909545 10.92570959 -25.46718034 6.69107051 -20.75 2.8125 C-13.915559 -1.76373402 -7.81490891 -2.47472115 0 0 Z " fill="#000000" transform="translate(50.75,3.1875)"/>
</svg>
