<?xml version="1.0" encoding="UTF-8"?>
<!-- Generator: visioncortex VTracer 0.6.4 -->
<svg version="1.1" xmlns="http://www.w3.org/2000/svg" width="50" height="62">
<path d="M0 0 C5.28 0 10.56 0 16 0 C22 6 22 6 22.25 9.3125 C22 13 22 13 20.875 15.375 C18.36934592 17.54656687 16.24917885 17.7111841 13 18 C13.804375 18.78375 14.60875 19.5675 15.4375 20.375 C18.58734515 23.60167064 19.15087169 24.95373063 19.1875 29.3125 C19.10272752 34.61078014 18.19797794 37.56908191 14.75 41.6875 C9.91608641 45.75238188 5.12642559 46.29229676 -1.0625 46.3125 C-2.84333984 46.33763672 -2.84333984 46.33763672 -4.66015625 46.36328125 C-9.61608601 45.82421521 -12.70727637 43.63932612 -16 40 C-16.49230769 32.73846154 -16.49230769 32.73846154 -14 29 C-13.34 28.34 -12.68 27.68 -12 27 C-4 27 -4 27 -2 28.625 C0 31 0 31 0.4375 33.9375 C-0.04283885 37.29987194 -1.05594226 39.24591819 -3 42 C-0.69 41.34 1.62 40.68 4 40 C6.47440613 35.41390179 6.47440613 35.41390179 5.0625 32.375 C2.6054974 28.35445029 0.06562306 26.82139666 -3.94140625 24.4921875 C-6.27454021 22.80099742 -7.04554368 21.69759496 -8 19 C-8.57499271 14.8257023 -8.48940869 11.13336749 -6.8125 7.25 C-4.73217066 4.66752219 -2.34488398 2.34488398 0 0 Z M4 7 C4 8.65 4 10.3 4 12 C5.32 12.99 6.64 13.98 8 15 C8.33 11.7 8.66 8.4 9 5 C6.67642489 4.81509993 6.67642489 4.81509993 4 7 Z " fill="#000000" transform="translate(23,8)"/>
</svg>
