<?xml version="1.0" encoding="UTF-8"?>
<!-- Generator: visioncortex VTracer 0.6.4 -->
<svg version="1.1" xmlns="http://www.w3.org/2000/svg" width="78" height="73">
<path d="M0 0 C1.38137146 0.00212242 1.38137146 0.00212242 2.79064941 0.00428772 C5.70421734 0.00984218 8.61770568 0.022386 11.53125 0.03515625 C13.51822805 0.04017714 15.50520731 0.04473902 17.4921875 0.04882812 C32.01529112 0.08169737 32.01529112 0.08169737 33.03125 1.09765625 C33.44382648 7.08001522 32.70526588 10.74962449 30.03125 16.09765625 C27.55625 15.60265625 27.55625 15.60265625 25.03125 15.09765625 C22.03125 9.34765625 22.03125 9.34765625 22.03125 7.09765625 C19.55625 6.60265625 19.55625 6.60265625 17.03125 6.09765625 C14.97209603 11.43249953 13.15897838 16.75780225 11.5859375 22.25390625 C11.37059357 23.00047485 11.15524963 23.74704346 10.93338013 24.51623535 C10.48301956 26.0821126 10.03437921 27.64848555 9.58740234 29.21533203 C8.90744785 31.59346679 8.21766145 33.96860573 7.52734375 36.34375 C7.0879391 37.87612943 6.64911736 39.40867615 6.2109375 40.94140625 C6.00677216 41.64060181 5.80260681 42.33979736 5.59225464 43.06018066 C4.2726734 47.73227001 3.53468096 52.26742204 3.03125 57.09765625 C5.34125 57.75765625 7.65125 58.41765625 10.03125 59.09765625 C10.03125 60.41765625 10.03125 61.73765625 10.03125 63.09765625 C-1.31968354 63.83336491 -12.59401092 64.23712853 -23.96875 64.09765625 C-23.96875 62.44765625 -23.96875 60.79765625 -23.96875 59.09765625 C-21.65875 58.43765625 -19.34875 57.77765625 -16.96875 57.09765625 C-12.87075155 48.74988164 -10.42069424 40.02949959 -7.96875 31.09765625 C-7.69675781 30.11071777 -7.42476562 29.1237793 -7.14453125 28.10693359 C-6.28336124 24.96083796 -5.43594276 21.81138128 -4.59375 18.66015625 C-4.31869629 17.64679199 -4.04364258 16.63342773 -3.76025391 15.58935547 C-3.51194824 14.64463379 -3.26364258 13.69991211 -3.0078125 12.7265625 C-2.78303223 11.8816626 -2.55825195 11.0367627 -2.32666016 10.16625977 C-1.74873777 8.04338513 -1.74873777 8.04338513 -2.96875 6.09765625 C-6.21685263 8.18572222 -9.17716225 10.24561781 -12.03125 12.84765625 C-14.96875 15.09765625 -14.96875 15.09765625 -17.84375 15.41015625 C-18.895625 15.25546875 -18.895625 15.25546875 -19.96875 15.09765625 C-20.3377705 5.68763347 -20.3377705 5.68763347 -17.96875 1.09765625 C-11.93278819 0.21486629 -6.09499749 -0.03585334 0 0 Z " fill="#000000" transform="translate(35.96875,4.90234375)"/>
</svg>
