<?xml version="1.0" encoding="UTF-8"?>
<!-- Generator: visioncortex VTracer 0.6.4 -->
<svg version="1.1" xmlns="http://www.w3.org/2000/svg" width="58" height="69">
<path d="M0 0 C3.63 0 7.26 0 11 0 C11.87807504 4.39037518 12.08226278 5.79343492 11.0625 9.8125 C10.86785156 10.60269531 10.67320313 11.39289062 10.47265625 12.20703125 C10.31667969 12.79871094 10.16070312 13.39039063 10 14 C12.64 14 15.28 14 18 14 C18 15.65 18 17.3 18 19 C13.05 19.495 13.05 19.495 8 20 C6.84671965 24.018735 5.703717 28.04032423 4.5625 32.0625 C4.23701172 33.19623047 3.91152344 34.32996094 3.57617188 35.49804688 C2.02225766 40.9928157 0.58594764 46.31383207 0 52 C0.99 52 1.98 52 3 52 C3.33 51.01 3.66 50.02 4 49 C7.465 48.505 7.465 48.505 11 48 C10.71984352 51.36187774 10.22366109 52.76318238 7.875 55.25 C2.12980536 58.747075 -4.47529589 58.13315723 -11 58 C-12.32 56.68 -13.64 55.36 -15 54 C-14.64007683 45.81782372 -12.5393415 38.60413192 -9.9375 30.875 C-9.56044922 29.72773437 -9.18339844 28.58046875 -8.79492188 27.3984375 C-7.87238675 24.59579916 -6.94061968 21.79660966 -6 19 C-7.65 19 -9.3 19 -11 19 C-11 17.68 -11 16.36 -11 15 C-9.02 14.34 -7.04 13.68 -5 13 C-4.72285156 12.14535156 -4.44570313 11.29070313 -4.16015625 10.41015625 C-3.79792969 9.30542969 -3.43570312 8.20070313 -3.0625 7.0625 C-2.70285156 5.96035156 -2.34320313 4.85820312 -1.97265625 3.72265625 C-1 1 -1 1 0 0 Z " fill="#000000" transform="translate(29,4)"/>
</svg>
