<?xml version="1.0" encoding="UTF-8"?>
<!-- Generator: visioncortex VTracer 0.6.4 -->
<svg version="1.1" xmlns="http://www.w3.org/2000/svg" width="68" height="56">
<path d="M0 0 C1.32 1.32 2.64 2.64 4 4 C3.3850185 10.60132039 1.82360905 16.65462154 -0.0625 23 C-0.34416016 23.96550781 -0.62582031 24.93101563 -0.91601562 25.92578125 C-1.60524279 28.28550816 -2.30000011 30.64345085 -3 33 C-2.505 33.495 -2.505 33.495 -2 34 C1.54353912 31.63764058 1.54303482 30.38361423 2.40625 26.3984375 C3.06520815 23.73659338 3.96754621 21.25199904 4.9375 18.6875 C6.72577507 13.9276303 8.08472902 9.15261102 9.2890625 4.21484375 C10 2 10 2 12 0 C13.97956441 0.14033111 15.95865141 0.2874123 17.9375 0.4375 C19.03964844 0.51871094 20.14179687 0.59992187 21.27734375 0.68359375 C24 1 24 1 25 2 C24.24847721 9.52581272 21.76415539 16.47349365 19.43945312 23.63867188 C17.20279385 30.66476456 17.20279385 30.66476456 17 38 C17.66 38 18.32 38 19 38 C19.66 36.68 20.32 35.36 21 34 C23.97 33.505 23.97 33.505 27 33 C26.71349017 36.43811794 26.26566773 37.74171193 23.75 40.1875 C18.58031172 43.59479455 14.15399576 44.83296508 8 44 C3.43055556 41.86111111 3.43055556 41.86111111 2 39 C1.21625 39.825 0.4325 40.65 -0.375 41.5 C-4.05610418 44.64132688 -7.35503149 44.41677566 -12.0234375 44.17578125 C-14 44 -14 44 -15.9375 42.5 C-18.66444128 39.19461663 -19.05199585 36.1712229 -19 32 C-18.32917045 28.70380802 -17.26069738 25.59978627 -16.125 22.4375 C-14.20968617 16.93206596 -12.60853766 11.81231487 -12 6 C-14.97 5.505 -14.97 5.505 -18 5 C-18 3.68 -18 2.36 -18 1 C-11.95170514 0.10395632 -6.1105424 -0.11269443 0 0 Z " fill="#000000" transform="translate(31,6)"/>
</svg>
