<?xml version="1.0" encoding="UTF-8"?>
<!-- Generator: visioncortex VTracer 0.6.4 -->
<svg version="1.1" xmlns="http://www.w3.org/2000/svg" width="75" height="72">
<path d="M0 0 C-0.59446218 3.80455795 -1.82460359 7.17269723 -3.18862915 10.76092529 C-4.53949567 14.48880268 -5.61671287 18.28866439 -6.69921875 22.1015625 C-6.9391304 22.94165863 -7.17904205 23.78175476 -7.42622375 24.64730835 C-7.92798575 26.40986064 -8.42789584 28.17294111 -8.92602539 29.93652344 C-9.6879935 32.62674236 -10.4619497 35.31333096 -11.23632812 38 C-11.72469674 39.72114482 -12.2123517 41.44249233 -12.69921875 43.1640625 C-12.93041916 43.96107574 -13.16161957 44.75808899 -13.39982605 45.57925415 C-14.58817034 49.83794494 -15.26256909 53.53053027 -15 58 C-11.24020355 59.36283174 -11.24020355 59.36283174 -8.75 58.0625 C-1.63514745 52.72636059 -0.11712953 41.28144285 2.2019043 33.03369141 C2.81443622 30.86815473 3.44872203 28.70974369 4.08398438 26.55078125 C4.48050766 25.15663071 4.87573562 23.76211096 5.26953125 22.3671875 C5.80477417 20.49716064 5.80477417 20.49716064 6.35083008 18.58935547 C7.05619794 14.68927338 6.88907921 11.85022244 6 8 C4.08378425 5.579887 4.08378425 5.579887 2 4 C2 2.68 2 1.36 2 0 C5.24947861 -0.19738568 8.49958873 -0.3811754 11.75 -0.5625 C12.67039063 -0.61857422 13.59078125 -0.67464844 14.5390625 -0.73242188 C15.42851563 -0.78076172 16.31796875 -0.82910156 17.234375 -0.87890625 C18.05131836 -0.9260376 18.86826172 -0.97316895 19.70996094 -1.02172852 C21.97882075 -1.00020095 23.83320921 -0.64612135 26 0 C26 1.32 26 2.64 26 4 C25.113125 4.37125 24.22625 4.7425 23.3125 5.125 C11.98880681 11.53463765 10.35326917 26.37717007 7.04882812 37.9140625 C1.35837936 57.47429487 1.35837936 57.47429487 -5 64 C-9.59044392 66.29522196 -16.28372748 65.56729231 -21.20703125 64.5390625 C-25.75811783 62.85347488 -27.87484342 60.25031315 -30 56 C-32.56527887 46.65505553 -28.8609296 37.2426765 -25.96948242 28.36157227 C-23.50371156 20.68735005 -21.74226409 12.86452172 -20 5 C-22.97 4.505 -22.97 4.505 -26 4 C-26 2.68 -26 1.36 -26 0 C-22.6046836 -0.19777236 -19.20874308 -0.38139685 -15.8125 -0.5625 C-14.85279297 -0.61857422 -13.89308594 -0.67464844 -12.90429688 -0.73242188 C-11.50727539 -0.80493164 -11.50727539 -0.80493164 -10.08203125 -0.87890625 C-9.22843018 -0.9260376 -8.3748291 -0.97316895 -7.49536133 -1.02172852 C-4.87646242 -0.99892429 -2.54596848 -0.59213206 0 0 Z " fill="#000000" transform="translate(43,3)"/>
</svg>
