<?xml version="1.0" encoding="UTF-8"?>
<!-- Generator: visioncortex VTracer 0.6.4 -->
<svg version="1.1" xmlns="http://www.w3.org/2000/svg" width="76" height="74">
<path d="M0 0 C0.93779297 0.00322266 1.87558594 0.00644531 2.84179688 0.00976562 C4.30649414 0.02233398 4.30649414 0.02233398 5.80078125 0.03515625 C7.28288086 0.04192383 7.28288086 0.04192383 8.79492188 0.04882812 C11.23443599 0.06061322 13.67382814 0.07706614 16.11328125 0.09765625 C17.04708815 4.0894963 17.0510403 5.51074055 15.11328125 9.09765625 C13.98424909 16.36180654 13.99503395 23.76265689 14.11328125 31.09765625 C15.79706285 28.56597034 17.45996449 26.02412616 19.11328125 23.47265625 C19.59023438 22.75980469 20.0671875 22.04695313 20.55859375 21.3125 C23.25413102 17.11516339 24.85706327 14.25764403 24.11328125 9.09765625 C22.85786568 6.58682511 21.61264637 6.22640179 19.11328125 5.09765625 C19.11328125 3.77765625 19.11328125 2.45765625 19.11328125 1.09765625 C28.02328125 0.76765625 36.93328125 0.43765625 46.11328125 0.09765625 C47.11328125 1.09765625 47.11328125 1.09765625 47.17578125 3.66015625 C47.15515625 4.46453125 47.13453125 5.26890625 47.11328125 6.09765625 C45.93765625 6.11828125 44.76203125 6.13890625 43.55078125 6.16015625 C39.02289577 6.76600008 36.83007244 8.48968203 33.81640625 11.8359375 C31.22410133 15.27847086 29.15706559 18.95794571 27.0625 22.71875 C24.89390441 26.47793875 22.54125749 30.06554927 20.11328125 33.66015625 C17.19879683 37.97956603 14.32042348 42.3079365 11.55078125 46.72265625 C7.60283393 52.98459183 3.36192383 59.03780096 -0.88671875 65.09765625 C-2.20671875 65.09765625 -3.52671875 65.09765625 -4.88671875 65.09765625 C-5.11913676 56.08500248 -4.80776257 47.31438181 -3.88671875 38.34765625 C-2.81985868 27.90269285 -2.68192117 17.58784366 -2.88671875 7.09765625 C-5.36171875 6.10765625 -5.36171875 6.10765625 -7.88671875 5.09765625 C-7.88671875 3.77765625 -7.88671875 2.45765625 -7.88671875 1.09765625 C-4.94539984 0.11721661 -3.0617021 -0.01855577 0 0 Z " fill="#000000" transform="translate(23.88671875,3.90234375)"/>
</svg>
