<?xml version="1.0" encoding="UTF-8"?>
<!-- Generator: visioncortex VTracer 0.6.4 -->
<svg version="1.1" xmlns="http://www.w3.org/2000/svg" width="71" height="63">
<path d="M0 0 C0.99 -0.66 1.98 -1.32 3 -2 C5.48046875 -2.1953125 5.48046875 -2.1953125 8.1875 -2.125 C9.08855469 -2.10695313 9.98960938 -2.08890625 10.91796875 -2.0703125 C13.70859152 -1.97607008 14.95376224 -0.73840646 16.87109375 1.1953125 C19.31099486 5.09577726 18.62617274 9.61679085 18 14 C15.33210857 24.3890831 9.23101317 33.19395731 0.2109375 38.94140625 C-4.71089056 41.29797057 -10.62959093 41.88564641 -16 41 C-18.44905263 39.57055296 -19.9950786 38.05632964 -22 36 C-22.79890763 28.29497975 -20.94834671 22.5195614 -18.1796875 15.36328125 C-16.70290765 11.15299169 -16.22950365 7.43707064 -16 3 C-18.97 2.505 -18.97 2.505 -22 2 C-22 0.68 -22 -0.64 -22 -2 C-6.92307692 -4.15384615 -6.92307692 -4.15384615 0 0 Z M3 5 C-4.68572276 13.4078712 -7.70786046 24.71279046 -8 36 C-5.662372 35.06203284 -4.28033383 34.44109876 -2.91015625 32.28515625 C0.47464954 23.40978992 2.69475457 14.20208626 5 5 C4.34 5 3.68 5 3 5 Z " fill="#000000" transform="translate(37,10)"/>
</svg>
