<?xml version="1.0" encoding="UTF-8"?>
<!-- Generator: visioncortex VTracer 0.6.4 -->
<svg version="1.1" xmlns="http://www.w3.org/2000/svg" width="98" height="63">
<path d="M0 0 C0.70125 -0.474375 1.4025 -0.94875 2.125 -1.4375 C5.36285185 -3.19720209 7.30191038 -4 11 -4 C13.56709118 -2.59741591 15.78032041 -0.89789172 18 1 C18.680625 0.360625 19.36125 -0.27875 20.0625 -0.9375 C23.58232584 -3.40886708 25.71457806 -3.92481716 30 -4 C35.5862069 -1.82758621 35.5862069 -1.82758621 37 1 C38.09023547 12.09104926 34.84630712 19.67176892 28.19140625 28.41015625 C24.26193302 33.05407916 19.78363162 37.77882793 14 40 C11.37890625 40.1171875 11.37890625 40.1171875 8.5625 39.875 C7.63566406 39.81054688 6.70882812 39.74609375 5.75390625 39.6796875 C2.38731569 38.8487843 0.54786293 37.30278719 -2 35 C-2.85458988 24.08024043 -0.43904885 15.25573497 3 5 C-0.4228997 8.83600828 -2.30593159 12.70725098 -4 17.5 C-4.25346191 18.19544922 -4.50692383 18.89089844 -4.76806641 19.60742188 C-7.07080253 26.00666576 -9.07287791 32.47743293 -11 39 C-15.29 39 -19.58 39 -24 39 C-23.42773022 31.37510975 -21.59651834 24.44428595 -19.4375 17.125 C-18.78689547 14.89944871 -18.13959732 12.67292736 -17.49609375 10.4453125 C-17.20919678 9.47094238 -16.9222998 8.49657227 -16.62670898 7.49267578 C-15.87808415 4.9434666 -15.87808415 4.9434666 -16 2 C-18.97 1.505 -18.97 1.505 -22 1 C-22 -0.32 -22 -1.64 -22 -3 C-14.07730184 -4.19207264 -6.85537832 -4.92730317 0 0 Z M22 5 C14.33737187 13.51403126 12.08137444 21.77319241 10 33 C11.32 33 12.64 33 14 33 C17.09333622 28.71945585 19.08961631 24.61304554 20.6875 19.5625 C20.89955078 18.93279297 21.11160156 18.30308594 21.33007812 17.65429688 C22.70703865 13.42785338 23.48422992 9.39254735 24 5 C23.34 5 22.68 5 22 5 Z " fill="#000000" transform="translate(50,10)"/>
</svg>
