<?xml version="1.0" encoding="UTF-8"?>
<!-- Generator: visioncortex VTracer 0.6.4 -->
<svg version="1.1" xmlns="http://www.w3.org/2000/svg" width="93" height="81">
<path d="M0 0 C6.93 0 13.86 0 21 0 C21.66 0.66 22.32 1.32 23 2 C22.9278125 2.85980469 22.855625 3.71960938 22.78125 4.60546875 C22.14114331 12.75793867 21.87776659 20.82394294 22 29 C22.98635837 27.58833114 23.96381255 26.17043816 24.9375 24.75 C25.48277344 23.96109375 26.02804688 23.1721875 26.58984375 22.359375 C28.82876763 18.61336386 29.1259347 15.56355975 29.0625 11.25 C29.05347656 10.45078125 29.04445313 9.6515625 29.03515625 8.828125 C29.02355469 8.22484375 29.01195313 7.6215625 29 7 C28.01 6.34 27.02 5.68 26 5 C26 3.68 26 2.36 26 1 C32.27 1 38.54 1 45 1 C45.7140222 5.28413322 46.09947518 8.23213545 45.87890625 12.3984375 C45.83056641 13.37167969 45.78222656 14.34492188 45.73242188 15.34765625 C45.67634766 16.34667969 45.62027344 17.34570312 45.5625 18.375 C45.51029297 19.39722656 45.45808594 20.41945313 45.40429688 21.47265625 C45.27530513 23.98213196 45.14037142 26.4911394 45 29 C52.79347768 20.11128597 52.79347768 20.11128597 55 9 C52.61426621 7.10786631 50.92824652 5.97608217 48 5 C48 3.68 48 2.36 48 1 C51.71888866 0.1367399 55.14296488 -0.11721556 58.95703125 -0.09765625 C60.06884766 -0.09443359 61.18066406 -0.09121094 62.32617188 -0.08789062 C63.47666016 -0.07951172 64.62714844 -0.07113281 65.8125 -0.0625 C66.98232422 -0.05798828 68.15214844 -0.05347656 69.35742188 -0.04882812 C72.23833358 -0.0370693 75.11914044 -0.02063426 78 0 C77.67 1.65 77.34 3.3 77 5 C75.42412109 5.31517578 75.42412109 5.31517578 73.81640625 5.63671875 C69.59378021 6.86120609 67.4546482 9.32933774 64.9375 12.8125 C64.47835205 13.4214209 64.0192041 14.0303418 63.54614258 14.65771484 C58.29532527 21.73623224 53.49467672 29.13585402 48.65234375 36.49609375 C44.94005037 42.12239688 41.11524024 47.66544141 37.25 53.1875 C36.65340576 54.0429541 36.05681152 54.8984082 35.44213867 55.77978516 C34.88888916 56.56788574 34.33563965 57.35598633 33.765625 58.16796875 C33.27868164 58.86172607 32.79173828 59.5554834 32.29003906 60.27026367 C31 62 31 62 29 64 C27.35 64 25.7 64 24 64 C24.66666667 54.66666667 25.33333333 45.33333333 26 36 C25.03900391 37.55847656 25.03900391 37.55847656 24.05859375 39.1484375 C19.24342149 46.92456744 14.33112489 54.56368659 9 62 C8.34 62.99 7.68 63.98 7 65 C5.35 65 3.7 65 2 65 C2.38723844 57.52018387 2.82522112 50.08218961 3.78613281 42.65136719 C5.31182569 30.77468379 5.1979133 18.95700824 5 7 C3.02 6.34 1.04 5.68 -1 5 C-0.67 3.35 -0.34 1.7 0 0 Z " fill="#000000" transform="translate(13,10)"/>
</svg>
