<?xml version="1.0" encoding="UTF-8"?>
<!-- Generator: visioncortex VTracer 0.6.4 -->
<svg version="1.1" xmlns="http://www.w3.org/2000/svg" width="78" height="70">
<path d="M0 0 C1.2684375 0.7425 1.2684375 0.7425 2.5625 1.5 C3.5525 0.984375 4.5425 0.46875 5.5625 -0.0625 C9.95500386 -1.94627706 12.93661216 -1.57937383 17.5625 -0.5 C18.5525 0.49 19.5425 1.48 20.5625 2.5 C20.5625 5.47 20.5625 8.44 20.5625 11.5 C17.51742487 14.54507513 17.51742487 14.54507513 13.3125 14.6875 C12.52359375 14.72230469 11.7346875 14.75710937 10.921875 14.79296875 C8.04537032 14.43578688 6.71673231 13.38248282 4.5625 11.5 C1.08961911 19.09527005 -1.34362562 26.20614646 -2.4375 34.5 C-1.4475 34.995 -1.4475 34.995 -0.4375 35.5 C0.87537621 34.35459775 2.18779021 33.20866567 3.5 32.0625 C4.59634766 31.10537109 4.59634766 31.10537109 5.71484375 30.12890625 C6.68389353 29.27458541 7.64901175 28.41348825 8.5625 27.5 C10.2125 27.5 11.8625 27.5 13.5625 27.5 C13.06807747 31.85091823 11.77859965 33.76177899 8.625 36.75 C7.91472656 37.43578125 7.20445313 38.1215625 6.47265625 38.828125 C2.68774196 42.14089252 -0.72795835 41.81998832 -5.59375 41.80078125 C-9.73086759 41.3632015 -12.07770284 39.88918909 -15.4375 37.5 C-16.283125 38.16 -17.12875 38.82 -18 39.5 C-21.97337593 41.81178236 -23.91759183 42.15744119 -28.4375 41.5 C-31.19079021 39.70437595 -32.96377461 38.44745078 -34.4375 35.5 C-34.35098369 33.95386986 -34.19747364 32.41090613 -34 30.875 C-33.89816406 30.05773437 -33.79632813 29.24046875 -33.69140625 28.3984375 C-33.4375 26.5 -33.4375 26.5 -28.4375 22.5 C-26.1275 22.83 -23.8175 23.16 -21.4375 23.5 C-20.4475 25.48 -19.4575 27.46 -18.4375 29.5 C-18.02757813 28.27023438 -17.61765625 27.04046875 -17.1953125 25.7734375 C-14.94270833 19.015625 -12.69010417 12.2578125 -10.4375 5.5 C-11.18 5.995 -11.9225 6.49 -12.6875 7 C-15.4375 8.5 -15.4375 8.5 -19.4375 8.5 C-19.4375 6.85 -19.4375 5.2 -19.4375 3.5 C-12.88625276 -1.01308143 -7.74703826 -3.38052578 0 0 Z " fill="#000000" transform="translate(44.4375,13.5)"/>
</svg>
