<?xml version="1.0" encoding="UTF-8"?>
<!-- Generator: visioncortex VTracer 0.6.4 -->
<svg version="1.1" xmlns="http://www.w3.org/2000/svg" width="90" height="76">
<path d="M0 0 C2.13794525 0.0833804 4.27842009 0.10733747 6.41796875 0.09765625 C7.67158203 0.09443359 8.92519531 0.09121094 10.21679688 0.08789062 C11.52712891 0.07951172 12.83746094 0.07113281 14.1875 0.0625 C15.52278481 0.05748317 16.85807141 0.05292059 18.19335938 0.04882812 C21.46228473 0.03702695 24.73111991 0.02056297 28 0 C27.67 1.65 27.34 3.3 27 5 C25.80761719 5.20109375 24.61523438 5.4021875 23.38671875 5.609375 C18.4310266 6.85348182 16.01985623 9.42172701 12.8125 13.25 C12.0709668 14.09111328 12.0709668 14.09111328 11.31445312 14.94921875 C10.33231112 16.0698182 9.36349121 17.20224608 8.40893555 18.34643555 C7.4836189 19.43241192 6.52143638 20.4882124 5.52270508 21.50708008 C2.95528887 24.21429938 2.02658142 25.72776955 1.66015625 29.48046875 C1.85931641 31.31544922 1.85931641 31.31544922 2.0625 33.1875 C2.20042969 34.49847656 2.33835938 35.80945312 2.48046875 37.16015625 C2.65191406 38.42730469 2.82335938 39.69445313 3 41 C3.14050781 42.07121094 3.28101563 43.14242187 3.42578125 44.24609375 C4.17998504 49.07955631 4.97462779 53.01200936 8 57 C10.31 57.33 12.62 57.66 15 58 C15 59.65 15 61.3 15 63 C7.74105366 63.1689455 0.48194592 63.32869726 -6.77734375 63.48217773 C-9.24483784 63.53541787 -11.71228811 63.59073203 -14.1796875 63.64819336 C-17.73427892 63.73060828 -21.28896317 63.80546684 -24.84375 63.87890625 C-25.93989624 63.90594131 -27.03604248 63.93297638 -28.16540527 63.96083069 C-33.90008237 64.07159328 -39.33079093 63.88805648 -45 63 C-45 61.35 -45 59.7 -45 58 C-43.70964844 57.85433594 -42.41929688 57.70867188 -41.08984375 57.55859375 C-34.59051213 56.11104428 -30.97596125 51.7846463 -26.5625 47.0625 C-25.76134766 46.23814453 -24.96019531 45.41378906 -24.13476562 44.56445312 C-18.26483388 39.11398875 -18.26483388 39.11398875 -15.91796875 31.91796875 C-16.55979534 23.03471665 -17.8752427 14.67275151 -20 6 C-22.31 5.67 -24.62 5.34 -27 5 C-26.67 3.35 -26.34 1.7 -26 0 C-17.98720569 -1.30821132 -7.77403935 -2.59134645 0 0 Z M-2 5 C-2.05447047 6.41623216 -2.09300508 7.83308191 -2.125 9.25 C-2.14820313 10.03890625 -2.17140625 10.8278125 -2.1953125 11.640625 C-1.9828378 14.20731941 -1.28654105 15.7916067 0 18 C1.65 16.35 3.3 14.7 5 13 C5 10.69 5 8.38 5 6 C4.67 5.67 4.34 5.34 4 5 C2.02 5 0.04 5 -2 5 Z M-15 43 C-16.98 45.31 -18.96 47.62 -21 50 C-20.67 52.31 -20.34 54.62 -20 57 C-17.69 57.33 -15.38 57.66 -13 58 C-11.16317639 56.16317639 -11.93793602 53.62004255 -11.93359375 51.1796875 C-12.01846391 48.39394947 -12.45408006 45.72959969 -13 43 C-13.66 43 -14.32 43 -15 43 Z " fill="#000000" transform="translate(55,6)"/>
</svg>
