<?xml version="1.0" encoding="UTF-8"?>
<!-- Generator: visioncortex VTracer 0.6.4 -->
<svg version="1.1" xmlns="http://www.w3.org/2000/svg" width="74" height="81">
<path d="M0 0 C1.2375 -0.01417969 2.475 -0.02835937 3.75 -0.04296875 C7 0.1875 7 0.1875 10 2.1875 C10.47015221 10.10452741 8.75874987 16.69321713 6.5 24.25 C6.16613281 25.40177734 5.83226563 26.55355469 5.48828125 27.74023438 C4.66946959 30.55928595 3.8398625 33.37466263 3 36.1875 C11.73974591 27.67943127 13.67885418 13.61849789 17 2.1875 C24.28966318 -0.42186807 29.71690276 -0.72573889 37 2.1875 C37 3.5075 37 4.8275 37 6.1875 C34.69 6.5175 32.38 6.8475 30 7.1875 C29.89300781 7.96996094 29.78601562 8.75242187 29.67578125 9.55859375 C28.80804521 14.21828611 27.51301182 18.70248111 26.1875 23.25 C25.77939087 24.65064697 25.77939087 24.65064697 25.36303711 26.07958984 C24.82036548 27.93866226 24.27653087 29.79739565 23.73144531 31.65576172 C23.11567397 33.78711979 22.52842612 35.92185404 21.9609375 38.06640625 C18.90941218 49.0916999 14.044263 58.22103608 4 64.1875 C3.21625 64.661875 2.4325 65.13625 1.625 65.625 C-3.26715262 66.67331842 -8.60353114 66.62443597 -12.98046875 64 C-14.625 62.625 -14.625 62.625 -17 60.1875 C-16.64989059 51.99493982 -16.64989059 51.99493982 -13.9375 48.625 C-12 47.1875 -12 47.1875 -3 48.1875 C-0.5705484 51.8316774 -0.83820425 53.89991272 -1 58.1875 C-0.17988688 56.62898245 0.63076213 55.06548284 1.4375 53.5 C1.88996094 52.62988281 2.34242187 51.75976562 2.80859375 50.86328125 C3.95991928 48.27751736 4.56320753 45.97393472 5 43.1875 C3.80375 43.414375 2.6075 43.64125 1.375 43.875 C-2.8962171 44.41268868 -5.36333825 43.61194116 -9 41.1875 C-11.50359575 37.43210638 -11.32367387 35.64957547 -11 31.1875 C-9.9765625 27.57421875 -9.9765625 27.57421875 -8.625 23.875 C-6.55508182 18.04278226 -4.96439454 12.30492805 -4 6.1875 C-5.65 6.1875 -7.3 6.1875 -9 6.1875 C-9.33 4.5375 -9.66 2.8875 -10 1.1875 C-6.50953395 0.02401132 -3.67722983 0.01915224 0 0 Z " fill="#000000" transform="translate(33,6.8125)"/>
</svg>
