<?xml version="1.0" encoding="UTF-8"?>
<!-- Generator: visioncortex VTracer 0.6.4 -->
<svg version="1.1" xmlns="http://www.w3.org/2000/svg" width="81" height="73">
<path d="M0 0 C0.495 2.475 0.495 2.475 1 5 C0.14728516 5.185625 0.14728516 5.185625 -0.72265625 5.375 C-10.21453302 7.91039279 -14.43362252 14.72191228 -19.46875 22.703125 C-21 25 -21 25 -22.71875 26.984375 C-29.96121082 35.68803405 -31.57030438 47.21004688 -34 58 C-31.36 58.33 -28.72 58.66 -26 59 C-26 60.65 -26 62.3 -26 64 C-37.22 64.33 -48.44 64.66 -60 65 C-60.33 64.67 -60.66 64.34 -61 64 C-61 62.35 -61 60.7 -61 59 C-58.36 58.34 -55.72 57.68 -53 57 C-45.56549629 42.13099259 -43.18944003 27.25368483 -47 11 C-48.23933032 7.88564839 -48.51896549 7.22906405 -51.625 5.75 C-52.40875 5.5025 -53.1925 5.255 -54 5 C-54 3.68 -54 2.36 -54 1 C-48.23832663 0.8556895 -42.47660885 0.71335475 -36.71484375 0.57275391 C-34.75975262 0.52477819 -32.80467406 0.47628728 -30.84960938 0.42724609 C-10.01657633 -0.09464482 -10.01657633 -0.09464482 0 0 Z M-30 5 C-31.05428991 9.21715964 -30.78147146 11.52075611 -30.0625 15.75 C-29.86785156 16.92046875 -29.67320313 18.0909375 -29.47265625 19.296875 C-29.31667969 20.18890625 -29.16070312 21.0809375 -29 22 C-25.52867905 20.59070303 -24.11906726 19.09394917 -22.25 15.875 C-21.82203125 15.15054687 -21.3940625 14.42609375 -20.953125 13.6796875 C-20.63859375 13.12539063 -20.3240625 12.57109375 -20 12 C-20.66 10.35 -21.32 8.7 -22 7 C-24.64 6.34 -27.28 5.68 -30 5 Z " fill="#000000" transform="translate(73,4)"/>
</svg>
