<?xml version="1.0" encoding="UTF-8"?>
<!-- Generator: visioncortex VTracer 0.6.4 -->
<svg version="1.1" xmlns="http://www.w3.org/2000/svg" width="78" height="76">
<path d="M0 0 C1.12775345 0.03541649 1.12775345 0.03541649 2.27828979 0.07154846 C4.68311316 0.14821245 7.08761668 0.23222469 9.4921875 0.31640625 C11.12107802 0.36962422 12.74998422 0.42236464 14.37890625 0.47460938 C18.3752031 0.60383123 22.37122842 0.73964452 26.3671875 0.87890625 C26.62371832 5.21061231 26.42006734 7.55630603 23.76953125 11.015625 C23.21894043 11.75184082 22.66834961 12.48805664 22.10107422 13.24658203 C21.5082666 14.01212402 20.91545898 14.77766602 20.3046875 15.56640625 C19.0954117 17.18061261 17.88836343 18.7964902 16.68359375 20.4140625 C16.10367676 21.18766113 15.52375977 21.96125977 14.92626953 22.75830078 C12.49239952 26.06876036 10.34357469 29.53173898 8.18359375 33.0234375 C4.90757403 38.1734814 1.39259286 43.1624555 -2.08203125 48.1796875 C-4.30321733 51.38862261 -6.47850164 54.62473646 -8.6328125 57.87890625 C0.48202732 56.39465258 4.81465467 52.02745697 10.3671875 44.87890625 C12.0171875 44.87890625 13.6671875 44.87890625 15.3671875 44.87890625 C14.97739544 51.43816568 13.94605557 56.82417252 11.3671875 62.87890625 C2.07537602 63.74510034 -7.11652525 64.00513417 -16.4453125 63.94140625 C-17.72212891 63.93689453 -18.99894531 63.93238281 -20.31445312 63.92773438 C-23.42062461 63.91610077 -26.52669158 63.899757 -29.6328125 63.87890625 C-29.9628125 62.22890625 -30.2928125 60.57890625 -30.6328125 58.87890625 C-29.86839844 57.83476563 -29.10398437 56.790625 -28.31640625 55.71484375 C-21.33172 46.13063949 -14.54804401 36.43122178 -7.90380859 26.60791016 C-4.01571972 20.86932409 -0.04926706 15.22753008 4.14453125 9.70703125 C5.55249724 7.96838004 5.55249724 7.96838004 5.3671875 5.87890625 C-1.61575371 10.2787928 -1.61575371 10.2787928 -7.6328125 15.87890625 C-9.2828125 15.87890625 -10.9328125 15.87890625 -12.6328125 15.87890625 C-12.99477926 10.08743803 -12.01491739 6.19283255 -9.6328125 0.87890625 C-6.55406373 -0.66046814 -3.36544553 -0.12406161 0 0 Z " fill="#000000" transform="translate(42.6328125,5.12109375)"/>
</svg>
