<?xml version="1.0" encoding="UTF-8"?>
<!-- Generator: visioncortex VTracer 0.6.4 -->
<svg version="1.1" xmlns="http://www.w3.org/2000/svg" width="72" height="67">
<path d="M0 0 C1.21171875 0.00322266 2.4234375 0.00644531 3.671875 0.00976562 C4.94289063 0.01814453 6.21390625 0.02652344 7.5234375 0.03515625 C8.8021875 0.03966797 10.0809375 0.04417969 11.3984375 0.04882812 C20.88500702 0.08422577 20.88500702 0.08422577 21.8984375 1.09765625 C22.265625 3.2890625 22.265625 3.2890625 21.8984375 6.09765625 C20.33876748 8.25332184 18.81927297 10.09858787 17.0234375 12.03515625 C12.85188119 16.73643399 8.97247921 21.5319954 5.3359375 26.66015625 C4.91908691 27.24337646 4.50223633 27.82659668 4.07275391 28.42749023 C2.10522266 31.22304799 0.30903 33.97910311 -1.1015625 37.09765625 C0.19087218 35.97353865 1.48235825 34.84833033 2.7734375 33.72265625 C3.49273437 33.09617188 4.21203125 32.4696875 4.953125 31.82421875 C6.3060973 30.62338791 7.619272 29.37682175 8.8984375 28.09765625 C10.5484375 28.42765625 12.1984375 28.75765625 13.8984375 29.09765625 C13.78356002 30.68175619 13.65609242 32.26494588 13.5234375 33.84765625 C13.41902344 35.17023437 13.41902344 35.17023437 13.3125 36.51953125 C12.89993695 39.08832007 12.18682793 40.8560664 10.8984375 43.09765625 C-15.88608133 45.20539684 -15.88608133 45.20539684 -22.1015625 42.09765625 C-21.63594757 37.17646464 -20.41038836 34.7264969 -17.1640625 31.03515625 C-16.3596875 30.09542969 -15.5553125 29.15570313 -14.7265625 28.1875 C-14.29988281 27.6910498 -13.87320312 27.19459961 -13.43359375 26.68310547 C-11.08768315 23.89088709 -8.87889663 20.99416575 -6.6640625 18.09765625 C-6.23939697 17.54585693 -5.81473145 16.99405762 -5.37719727 16.42553711 C-3.53742236 14.02487788 -1.78016546 11.61556069 -0.1015625 9.09765625 C-1.7515625 10.74765625 -3.4015625 12.39765625 -5.1015625 14.09765625 C-6.7515625 14.09765625 -8.4015625 14.09765625 -10.1015625 14.09765625 C-10.29450658 9.27405436 -9.85903864 5.60118887 -8.1015625 1.09765625 C-5.33538687 -0.28543156 -3.0913825 -0.01444571 0 0 Z " fill="#000000" transform="translate(37.1015625,9.90234375)"/>
</svg>
