<?xml version="1.0" ?>
<svg xmlns="http://www.w3.org/2000/svg" xmlns:ev="http://www.w3.org/2001/xml-events" xmlns:xlink="http://www.w3.org/1999/xlink" baseProfile="full" height="441px" version="1.1" viewBox="14.943972023499994 23.525697835465323 177.50702295300007 130.18460206721963" width="600px">
	<defs/>
	<path d="M 29.797807,42.949547 C 29.797807,42.949547 104.78897,24.121373000000002 102.55385000000001,74.38893300000001" id="bezier1" style="fill:none;stroke:#000000;stroke-width:0.264583;stroke-linejoin:round;stroke-opacity:1"/>
	<path d="M 63.760824,127.71718 C 141.58326,132.46985 113.30449,155.35547 141.58326,132.46985" id="bezier2" style="fill:none;stroke:#000000;stroke-width:0.264583;stroke-linejoin:round;stroke-opacity:1"/>
	<path d="M 146.60358,43.585668 C 134.2047,160.11828 176.34287,29.100275 177.59716,136.91749" id="bezier3" style="fill:none;stroke:#000000;stroke-width:0.264583;stroke-linejoin:round;stroke-opacity:1"/>
	<path d="M 54.11811,39.125931 Q 54.273141,39.118231 54.434769,39.086901000000005 Q 54.596012,39.047811 54.695243000000005,39.011801000000006 L 54.721033000000006,39.531155000000005 Q 54.615205,39.590805 54.415204,39.631817000000005 Q 54.215588000000004,39.68057700000001 54.029551000000005,39.689817000000005 Q 53.703985,39.705977000000004 53.41954200000001,39.61131700000001 Q 53.142464000000004,39.508514000000005 52.95807500000001,39.237925000000004 Q 52.773686000000005,38.967336 52.74867000000001,38.463485000000006 L 52.628594000000014,36.045001000000006 L 52.039476000000015,36.074251000000004 L 52.023316000000015,35.748686000000006 L 52.60671600000001,35.44774700000001 L 52.83414600000001,34.55060000000001 L 53.23722700000001,34.53059000000001 L 53.28456700000001,35.48403100000001 L 54.48605700000001,35.42438100000001 L 54.51222700000001,35.951487000000014 L 53.31073700000001,36.01113700000001 L 53.43004300000001,38.41411800000001 Q 53.44890300000001,38.79394400000001 53.63642400000001,38.97113000000001 Q 53.831313000000016,39.14017900000001 54.11812000000001,39.12593900000001 L 54.11811,39.125931" id="path19"/>
	<path d="M 57.080691,35.276834 Q 57.616115,35.266934 58.000663,35.492637 Q 58.392970000000005,35.718231 58.602643,36.141275 Q 58.819931000000004,36.556415 58.830441,37.122878 L 58.838041,37.534145 L 55.990207999999996,37.586985000000006 Q 56.01882799999999,38.292835000000004 56.367169999999994,38.658969000000006 Q 56.72312599999999,39.017199000000005 57.343906999999994,39.005681 Q 57.73965499999999,38.998381 58.040989999999994,38.922881000000004 Q 58.349940999999994,38.839521000000005 58.673258999999995,38.693801 L 58.684349,39.291303 Q 58.36879,39.436882 58.059551,39.504719 Q 57.750456,39.580319 57.323669,39.588239 Q 56.733927,39.599179 56.271638,39.367123 Q 55.817108000000005,39.134921 55.552253,38.666327 Q 55.295014,38.189829 55.282201,37.499210000000005 Q 55.269531,36.81635000000001 55.485493,36.323310000000006 Q 55.709216,35.83012500000001 56.115587999999995,35.55866300000001 Q 56.52972,35.28705600000001 57.080662999999994,35.27683400000001 L 57.080691,35.276834 M 57.083291,35.835681 Q 56.594426000000006,35.844781 56.313217,36.168229000000004 Q 56.039625,36.483802000000004 55.995673000000004,37.043513000000004 L 58.11408900000001,37.004203000000004 Q 58.09653900000001,36.476683 57.849939000000006,36.15523700000001 Q 57.60319500000001,35.82603000000001 57.083291,35.835677000000004 L 57.083291,35.835681" id="path21"/>
	<path d="M 62.661425,38.397597 Q 62.649315,39.002842 62.193055,39.304221 Q 61.736793,39.605601 60.976357,39.590389 Q 60.541822,39.581689000000004 60.225078,39.505499 Q 59.916093000000004,39.429449 59.678031000000004,39.30049 L 59.690451,38.679726 Q 59.936273,38.808846 60.283280000000005,38.924464 Q 60.638201,39.032478 61.002900000000004,39.039774 Q 61.522789,39.050174 61.758835000000005,38.891879 Q 61.995037,38.725826000000005 62.00062500000001,38.446482 Q 62.00372500000001,38.291291 61.920855,38.165431000000005 Q 61.837985,38.039571 61.61544000000001,37.910917000000005 Q 61.400656000000005,37.78241800000001 60.992504000000004,37.61900000000001 Q 60.59211200000001,37.455738000000004 60.308113000000006,37.294804000000006 Q 60.024114000000004,37.13387000000001 59.873270000000005,36.913498000000004 Q 59.72242500000001,36.69312600000001 59.729254000000005,36.35170600000001 Q 59.739814,35.82405700000001 60.172327,35.545491000000005 Q 60.612605,35.26708000000001 61.310965,35.28105000000001 Q 61.691182000000005,35.288650000000004 62.015531,35.37277000000001 Q 62.347795000000005,35.44928000000001 62.632259000000005,35.58693600000001 L 62.38860700000001,36.125448000000006 Q 62.12695600000001,36.01153600000001 61.84140500000001,35.92819800000001 Q 61.55585400000001,35.84485800000001 61.25323100000001,35.83880800000001 Q 60.834216000000005,35.830408000000006 60.606395000000006,35.965596000000005 Q 60.386489000000005,36.093163000000004 60.381832,36.32594900000001 Q 60.378432000000004,36.49665900000001 60.476812,36.62283000000001 Q 60.575362000000005,36.74124100000001 60.805816,36.86229000000001 Q 61.044189,36.97573600000001 61.436822,37.13884300000001 Q 61.829609,37.294191000000005 62.105849,37.45497000000001 Q 62.382087999999996,37.61574800000001 62.525017999999996,37.84372400000001 Q 62.668102999999995,38.06394100000001 62.661429,38.39760100000001 L 62.661425,38.397597" id="path23"/>
	<path d="M 65.060017,39.190709 Q 65.215008,39.199208999999996 65.379018,39.184809 Q 65.543451,39.162699 65.645888,39.137199 L 65.617538,39.656419 Q 65.50608199999999,39.704739 65.302902,39.724739 Q 65.099298,39.752489 64.913308,39.742339 Q 64.587827,39.724569 64.314765,39.600846000000004 Q 64.049877,39.469796 63.894617,39.181504000000004 Q 63.739355999999994,38.893213 63.766855,38.38949100000001 L 63.89885,35.97162800000001 L 63.309884000000004,35.93947800000001 L 63.327654,35.61399600000001 L 63.939177,35.37533700000001 L 64.258641,34.50669400000001 L 64.661618,34.52869400000001 L 64.609578,35.48189000000001 L 65.81076,35.547470000000004 L 65.78199000000001,36.07444 L 64.580809,36.00887 L 64.44966000000001,38.411233 Q 64.42893000000001,38.790962 64.59701600000001,38.986682 Q 64.77327500000001,39.175075 65.06000900000001,39.190728 L 65.060017,39.190709" id="path25"/>
	<path d="M 69.887414,39.629537 Q 70.041646,39.647037 70.206215,39.642286999999996 Q 70.37166,39.629816999999996 70.475411,39.61035699999999 L 70.416771,40.12703299999999 Q 70.30268199999999,40.16876299999999 70.09868,40.17685299999999 Q 69.89380200000001,40.192652999999986 69.708724,40.171652999999985 Q 69.384837,40.134892999999984 69.119473,39.995423999999986 Q 68.862695,39.84911799999998 68.724548,39.552244999999985 Q 68.586401,39.255372999999985 68.643288,38.754119999999986 L 68.916355,36.34810299999999 L 68.330274,36.28158299999999 L 68.367034,35.95769599999999 L 68.991459,35.75518199999999 L 69.36113900000001,34.90669299999999 L 69.76214200000001,34.95220299999999 L 69.65449000000001,35.90072899999999 L 70.849787,36.03638699999999 L 70.790277,36.56077499999999 L 69.59498,36.42511699999999 L 69.32366200000001,38.81571099999999 Q 69.28078200000002,39.19357899999999 69.43713800000002,39.39878699999999 Q 69.60208700000001,39.59715899999999 69.88741500000002,39.629541999999994 L 69.887414,39.629537" id="path27"/>
	<path d="M 73.507564,36.357768 Q 74.036009,36.444508 74.373568,36.735864 Q 74.71878600000001,37.028478 74.848769,37.482386 Q 74.987668,37.929893 74.895899,38.488972 L 74.829269,38.894878 L 72.018558,38.433523 Q 71.919478,39.132971 72.196117,39.555897 Q 72.481671,39.972421000000004 73.09436,40.072989 Q 73.484949,40.137099 73.79494899999999,40.117199 Q 74.11386499999999,40.090899 74.458154,40.00584 L 74.36135399999999,40.595554 Q 74.024723,40.681864 73.708321,40.692854 Q 73.390663,40.711493999999995 72.969439,40.642354 Q 72.387384,40.546814 71.97449599999999,40.235228 Q 71.56926699999998,39.924898999999996 71.39321599999998,39.41624 Q 71.22607999999998,38.901178 71.33796599999998,38.219562 Q 71.44859099999998,37.545604000000004 71.74988799999998,37.099567 Q 72.05884299999998,36.654787 72.50749099999999,36.461021 Q 72.96379799999998,36.268511000000004 73.50755899999999,36.357765 L 73.507564,36.357768 M 73.409394,36.907931 Q 72.926901,36.828731 72.59199100000001,37.096224 Q 72.26599700000001,37.357313 72.121876,37.899934 L 74.212677,38.243122 Q 74.290507,37.721079 74.105883,37.360447 Q 73.922521,36.992157 73.409394,36.907931" id="path29"/>
	<path d="M 76.841785,39.158866 L 75.909162,36.850946 L 76.66469599999999,37.028471 L 77.348733,38.799633 L 78.742415,37.516664 L 79.490393,37.692413 L 77.627541,39.343491 L 78.614414,41.759828 L 77.85888,41.582302999999996 L 77.13570299999999,39.70627399999999 L 75.63761,41.060379999999995 L 74.889631,40.88463099999999 L 76.841785,39.158866" id="path31"/>
	<path d="M 80.847324,41.947226 Q 80.995774,41.992576 81.158449,42.017926 Q 81.323391,42.035856 81.428953,42.035636000000004 L 81.277038,42.532944 Q 81.157251,42.553154 80.955196,42.523944 Q 80.750874,42.502104 80.572734,42.447684 Q 80.260989,42.352454 80.025522,42.166912 Q 79.799745,41.976216 79.718076,41.659123 Q 79.636406,41.34203 79.78378599999999,40.859567 L 80.49121199999999,38.543745 L 79.927101,38.371423 L 80.022331,38.059678 L 80.673222,37.974478 L 81.191493,37.207671 L 81.577463,37.325575 L 81.29857399999999,38.238544 L 82.44906299999998,38.589988999999996 L 82.29487999999998,39.094719999999995 L 81.14439099999998,38.74327399999999 L 80.44149999999999,41.044250999999996 Q 80.33039799999999,41.407954 80.44669999999999,41.63824399999999 Q 80.57269,41.863378999999995 80.84732299999999,41.947272999999996 L 80.847324,41.947226" id="path33"/>
	<path d="M 86.459646,38.436214 Q 86.60284800000001,38.496104 86.66832600000001,38.641266 Q 86.74395600000001,38.782261 86.657116,38.989904 Q 86.573266,39.190386000000004 86.416781,39.242714 Q 86.267455,39.298034 86.124253,39.238113999999996 Q 85.966731,39.172233999999996 85.901254,39.027072999999994 Q 85.835774,38.881913 85.919624,38.68142999999999 Q 86.006464,38.473786999999994 86.152798,38.42562399999999 Q 86.302124,38.37030399999999 86.459646,38.43618399999999 L 86.459646,38.436214 M 86.16561800000001,40.004162 L 84.560517,43.841978 L 83.930428,43.578454 L 85.53552900000001,39.740638000000004 L 86.16561800000001,40.004162" id="path35"/>
	<path d="M 88.707778,44.572486 Q 88.43262700000001,45.111708 87.89056500000001,45.183633 Q 87.34850200000001,45.255553 86.67101900000002,44.909856 Q 86.28388500000001,44.712312 86.03219600000001,44.505463 Q 85.78742100000001,44.302143 85.62955600000001,44.082178 L 85.91176100000001,43.529131 Q 86.07653900000001,43.752622 86.338243,44.008145999999996 Q 86.610387,44.260284999999996 86.935303,44.426080999999996 Q 87.39848,44.662428 87.679952,44.623079999999995 Q 87.964951,44.57682 88.091944,44.32794799999999 Q 88.162494,44.189685999999995 88.142894,44.04027299999999 Q 88.123294,43.89085999999999 87.979253,43.67795099999999 Q 87.842127,43.468568999999995 87.546284,43.143345999999994 Q 87.257355,42.82164999999999 87.072122,42.552868 Q 86.886888,42.284085999999995 86.847398,42.019968 Q 86.807908,41.755849999999995 86.963121,41.451674 Q 87.202996,40.981583 87.713737,40.919815 Q 88.23138999999999,40.861575 88.853569,41.179056 Q 89.19231099999999,41.351907000000004 89.447385,41.569195 Q 89.71289999999999,41.783099 89.908716,42.031142 L 89.454393,42.409231000000005 Q 89.268734,42.192511 89.048225,41.99286000000001 Q 88.827716,41.79320800000001 88.558105,41.65563300000001 Q 88.184798,41.46514400000001 87.920822,41.48728100000001 Q 87.667287,41.50603100000001 87.561459,41.71342400000001 Q 87.48384899999999,41.86551200000001 87.517279,42.02198000000001 Q 87.554239,42.17153500000001 87.708715,42.381059000000015 Q 87.873635,42.58719700000002 88.155652,42.90536500000002 Q 88.441196,43.21662000000002 88.619516,43.48187400000002 Q 88.797836,43.74712900000002 88.826885,44.01463200000002 Q 88.859465,44.27522300000002 88.70777700000001,44.57248600000002 L 88.707778,44.572486" id="path37"/>
	<path d="M 91.873111,48.166825 Q 91.26427199999999,47.685512 91.23107599999999,46.976625000000006 Q 91.20269599999999,46.26165 91.86690399999999,45.42145300000001 Q 92.531116,44.581256 93.23333899999999,44.44385700000001 Q 93.94646299999998,44.30518300000001 94.55530099999999,44.78649600000001 Q 94.93278099999999,45.08491000000001 95.05952599999999,45.41265500000001 Q 95.192359,45.74521400000001 95.185735,46.06645900000001 L 95.222265,46.09533900000001 Q 95.27874499999999,46.01137900000001 95.38081,45.84472800000001 Q 95.493775,45.67680400000001 95.565972,45.58547800000001 L 96.595982,44.28256400000001 L 97.13176,44.706120000000006 L 93.473779,49.33329200000001 L 93.04150399999999,48.99155900000001 L 93.3089,48.49062500000001 L 93.28455,48.47137500000001 Q 92.97478199999999,48.56286500000001 92.615732,48.51646500000001 Q 92.256681,48.47006500000001 91.87311299999999,48.16683400000001 L 91.873111,48.166825 M 92.30970699999999,47.789757 Q 92.82721999999998,48.198873 93.25562899999998,48.082454 Q 93.69493899999999,47.964759 94.14737399999999,47.392451 L 94.22438399999999,47.295041 Q 94.70569699999999,46.686203 94.75987699999999,46.204685 Q 94.81886699999998,45.717079 94.277003,45.288709999999995 Q 93.84472799999999,44.946977999999994 93.351197,45.120743 Q 92.868568,45.293233 92.411321,45.871629 Q 91.94926,46.456114 91.907257,46.947258 Q 91.871347,47.443214999999995 92.309707,47.789761 L 92.30970699999999,47.789757" id="path39"/>
	<path d="M 98.630516,48.579622 Q 99.140288,49.144092 99.137095,49.638482 Q 99.133895,50.132873000000004 98.592472,50.621838000000004 L 96.49011,52.520479 L 96.15719800000001,52.151846 L 96.50652000000001,51.658594 L 96.48571000000001,51.635554 Q 96.05021300000001,51.662834 95.72638700000002,51.547433999999996 Q 95.40776200000002,51.437794999999994 95.05404300000002,51.046122 Q 94.67431400000002,50.625648999999996 94.64350600000002,50.151508 Q 94.61845600000002,49.672164 95.09076900000002,49.24562 Q 95.55156100000002,48.829480000000004 96.12694700000003,48.968677 Q 96.70809300000003,49.102673 97.41256300000003,49.836413 L 97.90320200000004,50.344958 L 98.08751900000003,50.178502 Q 98.47343200000003,49.829984 98.47233800000002,49.527701 Q 98.47123800000003,49.225419 98.19555100000002,48.920144 Q 97.97707800000002,48.678229 97.70453200000003,48.526975 Q 97.43774700000003,48.370521000000004 97.17393000000003,48.263672 L 97.41363600000003,47.764839 Q 97.70513600000002,47.867602000000005 98.02969800000002,48.076454000000005 Q 98.36002100000003,48.28010400000001 98.63051300000002,48.57961900000001 L 98.630516,48.579622 M 97.118431,50.217082 Q 96.575216,49.661899 96.21107,49.582913 Q 95.85212700000001,49.509682999999995 95.558372,49.774975 Q 95.299177,50.009054 95.31866600000001,50.273807999999995 Q 95.34335600000001,50.544321999999994 95.56703300000001,50.79199799999999 Q 95.920753,51.18367099999999 96.36794800000001,51.25040099999999 Q 96.82090300000002,51.31193099999999 97.27017500000001,50.90619299999999 L 97.54665000000001,50.65650799999999 L 97.118431,50.217082" id="path41"/>
	<path d="M 82.683775,125.23813 Q 82.644065,125.54603 82.570831,125.81047 L 82.617011,125.81647 Q 82.85784500000001,125.52669 83.217376,125.40872 Q 83.584605,125.29175000000001 83.98486700000001,125.34342000000001 Q 84.73920600000001,125.44072000000001 85.06971700000001,125.85113000000001 Q 85.40121900000001,126.25385000000001 85.29896500000001,127.04668000000001 L 84.952493,129.73305000000002 L 84.282824,129.64665000000002 L 84.62334,127.00646000000002 Q 84.751406,126.01350000000002 83.827724,125.89437000000002 Q 83.134964,125.80507000000003 82.82262300000001,126.16384000000002 Q 82.518973,126.51594000000001 82.42565400000001,127.23949000000002 L 82.15066,129.37166000000002 L 81.473293,129.28426000000002 L 82.22779,123.43428000000002 L 82.905156,123.52168000000002 L 82.683775,125.23813" id="path44"/>
	<path d="M 87.395273,124.30776 Q 87.548889,124.33006 87.648511,124.45427000000001 Q 87.756927,124.57194000000001 87.724631,124.79468000000001 Q 87.693451,125.00974000000001 87.554969,125.09946000000001 Q 87.424167,125.19026000000001 87.270551,125.16806000000001 Q 87.101573,125.14356000000001 87.00195099999999,125.01933000000001 Q 86.90233099999999,124.89509000000001 86.933511,124.68003000000002 Q 86.965801,124.45729000000001 87.09549299999999,124.37414000000001 Q 87.226295,124.28334000000001 87.39527199999999,124.30784000000001 L 87.395273,124.30776 M 87.50171900000001,125.89949 L 86.90484300000001,130.01639 L 86.22893300000001,129.91839 L 86.825809,125.80147999999998 L 87.50171900000001,125.89949" id="path46"/>
	<path d="M 90.472376,126.27964 Q 91.001003,126.36524 91.33918,126.6559 Q 91.685019,126.94778000000001 91.815966,127.40141 Q 91.955816,127.84862 91.86523600000001,128.40789 L 91.79947600000001,128.81394 L 88.98779100000002,128.35856 Q 88.89020100000002,129.05821 89.16773400000001,129.48055000000002 Q 89.45417200000001,129.89647000000002 90.06707300000001,129.99573 Q 90.45779800000001,130.05903 90.76775500000001,130.03843 Q 91.08661400000001,130.01143000000002 91.430722,129.92566 L 91.335182,130.51558 Q 90.998735,130.60258 90.68235800000001,130.61428 Q 90.36474000000001,130.63358 89.94337,130.56538 Q 89.361114,130.47108 88.947565,130.16037 Q 88.54167699999999,129.85091 88.364546,129.34262 Q 88.19631700000001,128.82792 88.30675600000001,128.14606 Q 88.41594900000001,127.47187000000001 88.71629800000001,127.02520000000001 Q 89.024308,126.57976000000001 89.47254300000002,126.38504000000002 Q 89.92844000000001,126.19156000000002 90.47239000000002,126.27966000000002 L 90.472376,126.27964 M 90.375376,126.83001 Q 89.89271600000001,126.75181 89.558375,127.02004 Q 89.232936,127.28182 89.089968,127.82475 L 91.181494,128.1635 Q 91.258204,127.64129 91.072824,127.28105 Q 90.88868099999999,126.91314999999999 90.375376,126.83000999999999 L 90.375376,126.83001" id="path48"/>
	<path d="M 95.205281,127.11028 Q 95.319763,127.13138000000001 95.446692,127.17058 Q 95.582661,127.20358 95.677652,127.24478 L 95.47957199999999,127.84748 Q 95.384582,127.80628 95.26528499999999,127.76848000000001 Q 95.15362099999999,127.73208000000001 95.04677099999999,127.71238000000001 Q 94.733853,127.65458000000001 94.42669,127.77938 Q 94.120936,127.89657 93.89526099999999,128.17849 Q 93.67862799999999,128.45419 93.602543,128.86632 L 93.199578,131.04911 L 92.527951,130.92512000000002 L 93.283158,126.83430000000003 L 93.832672,126.93574000000002 L 93.770912,127.69778000000002 L 93.801442,127.70378000000002 Q 94.06187299999999,127.40460000000002 94.419877,127.21814000000002 Q 94.777882,127.03168000000002 95.205281,127.11058000000001 L 95.205281,127.11028" id="path50"/>
	<path d="M 99.208637,126.41614 Q 99.360323,126.44904 99.45102299999999,126.57997999999999 Q 99.55095299999999,126.70492999999999 99.50318299999999,126.92487999999999 Q 99.45705299999999,127.13722999999999 99.31264599999999,127.21705999999999 Q 99.17581999999999,127.29856 99.02413499999999,127.26556 Q 98.85728099999999,127.22936 98.76657999999999,127.09843 Q 98.67587999999999,126.96754 98.72201,126.75518 Q 98.76978,126.53523 98.904963,126.46135 Q 99.04178999999999,126.37984999999999 99.208643,126.41615 L 99.208637,126.41614 M 99.203637,128.01141 L 98.320654,132.07657 L 97.65324000000001,131.93161 L 98.536223,127.86645 L 99.203637,128.01141" id="path52"/>
	<path d="M 102.51134,131.8788 Q 102.36948000000001,132.46731000000003 101.85912,132.66363 Q 101.34877,132.85994000000002 100.60936000000001,132.68173000000002 Q 100.18684,132.57988 99.89386,132.43741000000003 Q 99.608428,132.29676000000003 99.403633,132.11966000000004 L 99.549129,131.51606000000004 Q 99.76146899999999,131.69498000000004 100.07553,131.88245000000003 Q 100.39896,132.06419000000002 100.75357,132.14967000000004 Q 101.25909,132.27153000000004 101.52363,132.16767000000004 Q 101.78999,132.05624000000003 101.85547,131.78462000000005 Q 101.89187,131.63372000000004 101.83797,131.49300000000005 Q 101.78407,131.35227000000006 101.59437,131.17881000000006 Q 101.41221,131.00717000000006 101.0487,130.75988000000007 Q 100.69274,130.51440000000008 100.44995,130.29621000000006 Q 100.20715,130.07802000000007 100.10718,129.83038000000005 Q 100.00718,129.58275000000006 100.08718,129.25077000000005 Q 100.21086,128.73771000000005 100.69312000000001,128.55857000000003 Q 101.18294,128.38126000000003 101.86198,128.54497000000003 Q 102.23169,128.63407000000004 102.53039,128.78592000000003 Q 102.83846,128.93203000000003 103.08671,129.12759000000003 L 102.73304999999999,129.60118000000003 Q 102.50197999999999,129.43371000000002 102.24099999999999,129.29097000000002 Q 101.98001999999998,129.14823 101.68576999999999,129.0773 Q 101.27833999999999,128.97910000000002 101.0268,129.06220000000002 Q 100.78461999999999,129.13950000000003 100.73006,129.36589 Q 100.69005999999999,129.53188 100.75905999999999,129.67624 Q 100.82986,129.81306 101.02893999999999,129.98079 Q 101.23737,130.14280000000002 101.58578999999999,130.38646 Q 101.93602999999999,130.62257 102.17127999999998,130.83894 Q 102.40651999999999,131.05531000000002 102.49712999999998,131.30867 Q 102.58952999999998,131.55449000000002 102.51132999999999,131.87892 L 102.51134,131.8788" id="path54"/>
	<path d="M 107.9012,130.1902 Q 108.62901000000001,130.41107 108.88115,130.83635 Q 109.1333,131.26162000000002 108.92145000000001,131.95972 L 108.09883,134.67045000000002 L 107.62353,134.52621000000002 L 107.66853,133.92347 L 107.63883,133.91447000000002 Q 107.27973,134.16236000000004 106.94277,134.23042 Q 106.61322,134.30072 106.10821,134.14752000000001 Q 105.56607,133.98299 105.29523,133.5926 Q 105.02664,133.19478 105.21143000000001,132.58579 Q 105.39173000000001,131.99166 105.95652000000001,131.8143 Q 106.52357,131.62951 107.50548,131.8951 L 108.18806000000001,132.07791 L 108.26016000000001,131.84026 Q 108.41116000000001,131.34267 108.25416000000001,131.08422 Q 108.09738000000002,130.82576999999998 107.70377000000002,130.70631999999998 Q 107.39185000000002,130.61162 107.08034000000002,130.62251999999998 Q 106.77108000000003,130.62551999999997 106.48994000000002,130.67041999999998 L 106.43814000000002,130.11939999999998 Q 106.74089000000002,130.0572 107.12667000000002,130.06879999999998 Q 107.51470000000002,130.07279999999997 107.90089000000002,130.19019999999998 L 107.9012,130.1902 M 107.44972,132.37283 Q 106.69804,132.17716 106.34529,132.29722999999998 Q 105.99998000000001,132.41952999999998 105.88503,132.79828999999998 Q 105.78362,133.13249 105.93683,133.34929999999997 Q 106.09744,133.56836999999996 106.41679,133.66527999999997 Q 106.9218,133.81852999999998 107.33939000000001,133.64517999999995 Q 107.75923,133.46437999999995 107.93503000000001,132.88509999999997 L 108.04321000000002,132.52861999999996 L 107.44972,132.37283" id="path56"/>
	<path d="M 114.61281,134.56422 Q 114.64031,134.23153 114.68351,133.92205 Q 114.73680999999999,133.60834000000003 114.76571,133.43565 L 114.73701,133.42385000000002 Q 114.64341,133.57001000000002 114.46094,133.83067000000003 Q 114.28137,134.08416000000003 114.05707,134.34444000000002 L 112.48066,136.22257000000002 L 111.7627,135.92784000000003 L 112.28707,131.64627000000004 L 112.94042,131.91448000000005 L 112.62877,134.18597000000005 Q 112.58097000000001,134.52712000000005 112.52312,134.87250000000006 Q 112.46522,135.21788000000006 112.40848000000001,135.43788000000006 L 112.43718000000001,135.44968000000006 Q 112.51598000000001,135.33941000000004 112.62559000000002,135.17466000000005 Q 112.74235000000002,135.01285000000004 112.87219000000002,134.83963000000006 Q 113.00497000000001,134.65923000000006 113.12007000000001,134.52191000000005 L 114.69224000000001,132.63365000000005 L 115.38149000000001,132.91659000000004 L 115.15192000000002,135.35601000000005 Q 115.13072000000003,135.63254000000006 115.08462000000002,135.94920000000005 Q 115.04572000000002,136.26881000000006 114.98892000000002,136.48881000000006 L 115.01762000000002,136.50061000000005 Q 115.11282000000003,136.32996000000006 115.31432000000002,136.04353000000006 Q 115.52299000000002,135.76004000000006 115.74472000000003,135.46515000000005 L 117.12614000000004,133.63281000000006 L 117.77231000000003,133.89807000000008 L 115.12275000000004,137.3072200000001 L 114.38325000000003,137.00365000000008 L 114.61281,134.56422" id="path58"/>
	<path d="M 121.02083,137.91169 Q 120.5494,138.82997 119.82114,139.09296 Q 119.0998,139.3595 118.30579,138.95187 Q 117.81558,138.70020000000002 117.54236,138.28076000000001 Q 117.27959,137.85797000000002 117.27841000000001,137.31647 Q 117.28041,136.76807000000002 117.59625000000001,136.15357 Q 118.06768000000001,135.23529 118.78549000000001,134.97566 Q 119.50329,134.71603000000002 120.29729,135.12366 Q 120.80131,135.38242 121.06408,135.80521 Q 121.3373,136.22465 121.33158,136.76261 Q 121.33658,137.2972 121.02083,137.91169 M 118.22455000000001,136.47612999999998 Q 117.88781,137.13205 117.94478000000001,137.64983999999998 Q 118.01218000000001,138.16428 118.57835000000001,138.45494 Q 119.13761000000001,138.74205 119.59493000000002,138.49704 Q 120.05579000000002,138.24509 120.39253000000002,137.58917 Q 120.72926000000002,136.93326 120.65831000000003,136.42571999999998 Q 120.58731000000003,135.91818999999998 120.02119000000003,135.62753999999998 Q 119.45503000000004,135.33687999999998 119.00816000000003,135.57853999999998 Q 118.56129000000003,135.82022999999998 118.22455000000004,136.47614 L 118.22455000000001,136.47612999999998" id="path60"/>
	<path d="M 124.74398,137.54428 Q 124.84608999999999,137.60018 124.95434999999999,137.67719 Q 125.07314999999998,137.75109 125.15044999999999,137.81999 L 124.77359999999999,138.33035999999998 Q 124.6963,138.26145999999997 124.59483999999999,138.18821 Q 124.50013999999999,138.11871 124.40489,138.06647999999998 Q 124.1258,137.91361999999998 123.79499999999999,137.93597 Q 123.46792999999998,137.95147 123.16532,138.14858999999998 Q 122.87325,138.34258 122.67192999999999,138.71015999999997 L 121.60569,140.65696999999997 L 121.00667,140.32889999999998 L 123.00494,136.68031999999997 L 123.49504,136.94874999999996 L 123.19776,137.65311999999997 L 123.22496,137.66801999999998 Q 123.56598,137.46543999999997 123.96437,137.40046999999998 Q 124.36276000000001,137.33547 124.74395,137.54426999999998 L 124.74398,137.54428" id="path62"/>
	<path d="M 125.04046,142.37149 Q 124.27729,142.23038 123.91673999999999,141.61912999999998 Q 123.55761,141.00025 123.75232999999999,139.94706 Q 123.94704999999999,138.89388 124.50372999999999,138.44432 Q 125.06944999999999,137.98854 125.83263,138.12964 Q 126.30579999999999,138.21714 126.57097999999999,138.44769 Q 126.84379999999999,138.67965999999998 126.98803,138.96678 L 127.03383,138.97478 Q 127.04453,138.87415000000001 127.05693,138.67913000000001 Q 127.07833,138.47788000000003 127.09952999999999,138.3634 L 127.40148999999998,136.73021 L 128.07307999999998,136.85438 L 127.00069999999998,142.65451 L 126.45884999999998,142.55433 L 126.46084999999998,141.9865 L 126.43034999999998,141.9805 Q 126.19920999999998,142.20612 125.86007999999998,142.33284 Q 125.52093999999998,142.45956 125.04013999999998,142.37064 L 125.04046,142.37149 M 125.25031,141.83411999999998 Q 125.89901,141.95406 126.2234,141.65096999999997 Q 126.55683,141.34166999999997 126.68947,140.62427999999997 L 126.71207,140.50216999999998 Q 126.85318,139.73899999999998 126.67607,139.28794999999997 Q 126.50041999999999,138.82926999999998 125.82119,138.70368999999997 Q 125.27934,138.60350999999997 124.92417,138.98771999999997 Q 124.57804,139.36570999999998 124.44399,140.09072999999998 Q 124.30853,140.82338 124.50089,141.27724999999998 Q 124.70085,141.73252999999997 125.25033,141.83411999999998 L 125.25031,141.83411999999998" id="path64"/>
	<path d="M 144.72718,86.03491 L 148.66598,83.96773 L 148.75428,84.69191500000001 L 146.42682,85.86687300000001 Q 146.26484,85.94916300000001 146.06528,86.04384900000001 Q 145.86572,86.13853900000001 145.67969,86.21593700000001 Q 145.50136,86.29239700000001 145.37321,86.33147300000002 L 145.37721,86.36229300000002 Q 145.51193999999998,86.37714300000002 145.71111,86.40760300000002 Q 145.91123,86.44576300000003 146.12769,86.48975300000002 Q 146.34509,86.54144300000002 146.51345,86.57565300000002 L 149.05498,87.15722900000002 L 149.14328,87.88141400000002 L 144.82235,86.81302600000002 L 144.72718,86.03491" id="path67"/>
	<path d="M 148.09136,91.952704 Q 147.09871,92.23576899999999 146.40914,91.883614 Q 145.7217,91.53892099999999 145.47695000000002,90.68061 Q 145.32584000000003,90.150696 145.44545000000002,89.66463 Q 145.57469000000003,89.183899 145.96932,88.81311000000001 Q 146.37142,88.44019200000001 147.03568,88.25077200000001 Q 148.02834000000001,87.96770700000002 148.70831,88.31453200000001 Q 149.38828,88.66135300000002 149.63304000000002,89.51966500000002 Q 149.78841000000003,90.06450600000002 149.65914000000004,90.54523600000002 Q 149.53949000000003,91.03130300000002 149.14272000000003,91.39462900000002 Q 148.75555000000003,91.76329000000003 148.09129000000001,91.95270900000003 L 148.09136,91.952704 M 147.2294,88.929956 Q 146.52036,89.13214500000001 146.18114,89.527483 Q 145.85152,89.928155 146.02604,90.540169 Q 146.19844,91.14471800000001 146.68981,91.311277 Q 147.18865,91.475708 147.89768,91.273517 Q 148.60672,91.071328 148.92888000000002,90.672783 Q 149.25104000000002,90.274238 149.07652000000002,89.66222499999999 Q 148.90200000000002,89.05021199999999 148.42022000000003,88.888988 Q 147.93844000000004,88.727764 147.22940000000003,88.929958 L 147.2294,88.929956" id="path69"/>
	<path d="M 147.57317,94.856894 Q 147.20412000000002,94.447701 147.08016,93.974214 Q 146.96141,93.50649200000001 147.14666,93.00498900000001 Q 147.33709,92.50924900000001 147.8846,92.01543900000001 Q 148.45516,91.50083700000002 148.98402000000002,91.36875000000002 Q 149.51288000000002,91.23666200000002 149.9711,91.40866000000003 Q 150.43452000000002,91.58642600000003 150.80878,92.00138200000002 Q 151.02190000000002,92.23767700000002 151.16755,92.50346400000002 Q 151.31897,92.76405300000002 151.37456,92.96474800000003 L 150.8135,93.18859300000003 Q 150.7406,93.00349200000002 150.62038,92.77748300000003 Q 150.50015000000002,92.55147400000003 150.35461,92.39010200000003 Q 149.53333,91.47950200000002 148.36338,92.53469600000003 Q 147.80434,93.03890200000002 147.70217,93.52820300000002 Q 147.61097,94.01806900000003 148.00602,94.45607900000002 Q 148.23473,94.70966300000002 148.45813,94.85307000000002 Q 148.68673,95.00224000000001 148.90720000000002,95.09603800000002 L 148.45766,95.50148200000002 Q 148.23663,95.41864200000002 148.02475,95.26484200000003 Q 147.81231000000002,95.12200100000003 147.5732,94.85689000000004 L 147.57317,94.856894" id="path71"/>
	<path d="M 150.74726,91.650739 Q 151.50678000000002,91.610409 151.88873,91.924328 Q 152.27069,92.238245 152.30937,92.966762 L 152.45957,95.795579 L 151.96356,95.82191900000001 L 151.80053,95.2399 L 151.76953,95.2415 Q 151.51638,95.596911 151.22276,95.77571400000001 Q 150.93689999999998,95.95410500000001 150.40989,95.982088 Q 149.84412,96.012128 149.45648,95.737373 Q 149.06842,95.454868 149.03468,94.819353 Q 149.00178,94.19933900000001 149.47232,93.84015600000001 Q 149.94248,93.473223 150.95611,93.388315 L 151.66013999999998,93.32761500000001 L 151.64693999999997,93.079609 Q 151.61933999999997,92.56034700000001 151.38391,92.370776 Q 151.14846,92.181205 150.7377,92.20301500000001 Q 150.41218999999998,92.22029500000001 150.12303,92.33668800000001 Q 149.83347,92.445327 149.58429,92.58291000000001 L 149.34788,92.08250900000002 Q 149.61132,91.92085200000001 149.97798,91.80034700000002 Q 150.34422,91.67209200000002 150.74723,91.65069400000002 L 150.74726,91.650739 M 151.06646,93.856592 Q 150.29309,93.928742 150.00235,94.161798 Q 149.71937,94.39444 149.74035,94.789699 Q 149.75885,95.138458 149.97677000000002,95.29010099999999 Q 150.20242000000002,95.44133199999999 150.53567,95.423637 Q 151.06269,95.395657 151.39622,95.09038 Q 151.72934,94.777355 151.69724,94.17284099999999 L 151.67754,93.80083199999999 L 151.06646,93.856592" id="path73"/>
	<path d="M 152.37074,90.816956 Q 152.48285,91.055836 152.56771,91.273206 Q 152.65631000000002,91.480253 152.69831,91.606288 L 152.73341,91.589798 Q 152.78291,91.275082 152.9881,90.98159700000001 Q 153.19329,90.688112 153.63592,90.48038500000001 Q 154.33850999999999,90.15065900000002 154.99087,90.44463500000002 Q 155.64696,90.72828700000002 156.10198,91.69785700000001 Q 156.557,92.66742600000002 156.35923,93.36036900000002 Q 156.16146,94.05331200000002 155.4659,94.37974100000002 Q 155.02327,94.58746800000003 154.6664,94.55776300000002 Q 154.30953000000002,94.52805300000003 154.04242000000002,94.37906800000002 L 153.99322,94.40214800000001 L 154.09092,94.93925800000001 L 153.64829,95.14698500000002 L 151.14237,89.80732800000001 L 151.76065,89.51716900000001 L 152.37074,90.816956 M 153.77127000000002,91.04273500000001 Q 153.17407000000003,91.323001 153.10378000000003,91.77607800000001 Q 153.03348000000003,92.229155 153.37311000000003,92.95281900000002 L 153.38631000000004,92.98091900000001 Q 153.71274000000003,93.67647900000001 154.11232000000004,93.94333800000001 Q 154.51563000000004,94.19987300000001 155.13390000000004,93.90971800000001 Q 155.63977000000003,93.67231600000001 155.71092000000004,93.18454100000001 Q 155.78912000000005,92.69346900000001 155.45937000000004,91.99088200000001 Q 154.79003000000003,90.56463200000002 153.77128000000005,91.04273400000001 L 153.77127000000002,91.04273500000001" id="path75"/>
	<path d="M 159.33068,87.757417 L 161.06653,91.537892 L 160.55871,91.771067 L 160.23708,91.312396 L 160.20888,91.32534600000001 Q 160.16147999999998,91.705779 159.90184,91.99581400000001 Q 159.63893,92.27879600000001 159.27217,92.44720000000001 Q 158.58802,92.76133700000001 158.09344,92.59558200000001 Q 157.59563,92.422773 157.26529,91.703354 L 156.12857,89.22770700000001 L 156.7563,88.93947800000001 L 157.87359,91.37280600000001 Q 158.28812000000002,92.27560600000001 159.12745,91.89022100000001 Q 159.75517000000002,91.60199100000001 159.83305000000001,91.13922500000001 Q 159.91795000000002,90.67322000000001 159.61356,90.01022600000002 L 158.71,88.042408 L 159.33068,87.757417" id="path77"/>
	<path d="M 162.97814,90.935314 L 162.32057,91.11987 L 160.72668000000002,85.440869 L 161.38425,85.256313 L 162.97814,90.935314" id="path79"/>
	<path d="M 166.22718,86.439287 Q 166.98467,86.507807 167.31789,86.873044 Q 167.65111000000002,87.238278 167.58539000000002,87.964855 L 167.33017,90.786136 L 166.83548000000002,90.741386 L 166.75718,90.142054 L 166.72628,90.13925400000001 Q 166.42498,90.45488100000001 166.10884000000001,90.589931 Q 165.80044,90.72568100000001 165.27483,90.67813100000001 Q 164.71057000000002,90.62709100000001 164.36613,90.29980200000001 Q 164.02238,89.96478700000002 164.07971,89.33096500000002 Q 164.13561,88.71260200000002 164.65268,88.42428300000002 Q 165.17041,88.12823500000002 166.18577,88.18891500000002 L 166.89126,88.22935500000003 L 166.91366,87.98201000000003 Q 166.96056,87.46413100000004 166.75454,87.24288500000003 Q 166.54855999999998,87.02164000000003 166.13889,86.98458100000003 Q 165.81425000000002,86.95521100000003 165.51144,87.02913100000004 Q 165.20933,87.09531100000004 164.94306,87.19591300000003 L 164.78052,86.66688400000004 Q 165.06434,86.54449600000004 165.44444,86.47757500000004 Q 165.82524999999998,86.40292500000004 166.22718999999998,86.43928500000004 L 166.22718,86.439287 M 166.22817,88.66811399999999 Q 165.45241000000001,88.62911399999999 165.13138,88.81826699999999 Q 164.81808,89.008124 164.78242,89.40232999999999 Q 164.75092,89.75016 164.94497,89.93135899999999 Q 165.14672000000002,90.11325699999999 165.47909,90.14332399999999 Q 166.00469,90.190874 166.37839000000002,89.93634399999999 Q 166.75279000000003,89.67408599999999 166.80733000000004,89.071182 L 166.84093000000004,88.700165 L 166.22817,88.66811399999999" id="path81"/>
	<path d="M 172.63858,89.290153 Q 172.73038,89.361723 172.82492,89.45507500000001 Q 172.93033,89.547075 172.99559,89.62746800000001 L 172.54179,90.07080800000001 Q 172.47648999999998,89.99041800000002 172.38813,89.90183600000002 Q 172.30583,89.81802600000002 172.22016,89.75122700000001 Q 171.96918,89.55560700000001 171.63907999999998,89.52463100000001 Q 171.31374999999997,89.48753100000002 170.98345999999998,89.63354000000001 Q 170.66405999999998,89.77819500000001 170.40640999999997,90.10874400000002 L 169.04183999999998,91.85942800000002 L 168.50316999999998,91.43955900000002 L 171.06054999999998,88.15855700000002 L 171.50127999999998,88.50208600000002 L 171.09490999999997,89.14968300000002 L 171.11940999999996,89.16877300000003 Q 171.48849999999996,89.02348900000003 171.89214999999996,89.02322900000003 Q 172.29579999999996,89.02296900000003 172.63858999999997,89.29015800000003 L 172.63858,89.290153" id="path83"/>
	<path d="M 174.04539,90.873273 L 174.42974,91.493366 L 172.89203,93.505653 Q 172.68949,93.768154 172.49448,93.998598 Q 172.30606,94.224954 172.1129,94.399462 L 172.1293,94.425852 Q 172.31875,94.363212 172.63578,94.28542200000001 Q 172.95940000000002,94.20354200000001 173.28711,94.128257 L 175.73818,93.60432200000001 L 176.12662,94.231012 L 171.15811,95.2013 Q 170.54227,95.327337 170.06143,95.21448000000001 Q 169.58467,95.10821800000001 169.26575,94.59367300000001 Q 169.16765,94.43535100000001 169.11381,94.30434400000001 Q 169.05341,94.17742500000001 169.02001,94.07940100000002 L 169.48178000000001,93.79318900000001 Q 169.51358000000002,93.87392900000002 169.56168000000002,93.98105900000002 Q 169.61388000000002,94.09478400000002 169.68341000000004,94.20692900000002 Q 169.87149000000005,94.51037800000002 170.15749000000002,94.58878000000001 Q 170.44758000000002,94.67378000000001 170.79666000000003,94.60351000000001 L 171.37951000000004,94.49791800000001 L 174.04539,90.873273" id="path85"/>
	<path d="M 52.259223602660974,39.79026958547881 L 54.7315712339655,39.645523449884266 L 55.13241457977089,39.43002601186503 L 58.65052337392369,39.68503711073202 L 59.67389708368771,39.56472021349106 L 62.639090777333934,39.618943402009215 L 63.14214611200794,39.65821600845387 L 65.61613978750833,39.77126331042133 L 65.85335752065012,34.57985085479045 L 63.37936384514974,34.46680355282299 L 62.717811422427616,35.3141069146935 L 59.752617728781395,35.259883726175346 L 58.96017816493676,35.41306915225957 L 55.442069370783955,35.158058053392566 L 54.42783794084532,34.45758330412822 L 51.9554903095408,34.602329439722766 L 52.259223602660974,39.79026958547881" fill="none" id="word_bbox_b336aedc-68da-4fe6-a462-3935f71ae1a2" stroke="red" stroke-width="0.5"/>
	<path d="M 67.94549607201232,39.98416418507509 L 70.40865913725116,40.241600701255756 L 70.842610549653,40.09177409914749 L 74.25711848947752,40.976725412179874 L 74.90155352420628,40.887432407969854 L 78.61219411249108,41.75930623134057 L 78.87328933332859,41.94166232044911 L 81.24814593057361,42.6441520931767 L 82.7222450119349,37.660771460073654 L 80.34738841468986,36.958281687346066 L 79.56372647083242,37.70964388882694 L 75.8530858825476,36.83777006545623 L 75.33170227414531,36.830537016592196 L 71.9171943343208,35.945585703559814 L 70.94886158971151,35.07292164828875 L 68.48569852447265,34.81548513210808 L 67.94549607201232,39.98416418507509" fill="none" id="word_bbox_978ec69c-4ff6-467a-9d85-b97de5c8270e" stroke="red" stroke-width="0.5"/>
	<path d="M 83.92920927300608,43.58292536305578 L 84.65996015275303,43.879805950122574 L 85.51046628559502,44.31808914317177 L 88.15442393744252,45.661521162665785 L 90.10480516054295,41.82304978189706 L 87.46084750869545,40.479617762403045 L 86.81316668815855,38.579838089070016 L 86.0824158084116,38.282957502003214 L 83.92920927300608,43.58292536305578" fill="none" id="word_bbox_8f86d420-ec02-4801-af97-a23fb7a3cc6a" stroke="red" stroke-width="0.5"/>
	<path d="M 90.5400660713878,47.11299492387352 L 93.42564912264156,49.39417400591506 L 94.17660861504048,50.074456882862286 L 96.43255217721762,52.572459411653035 L 99.62925315805929,49.6855219827201 L 97.37330959588215,47.18751945392934 L 97.13176003771501,44.706119952293015 L 94.24617698646128,42.424940870251504 L 90.5400660713878,47.11299492387352" fill="none" id="word_bbox_2adce6e2-1625-4274-aced-db36cfe10b54" stroke="red" stroke-width="0.5"/>
	<path d="M 81.4732879460218,129.28429918593469 L 84.95249589346601,129.73302755059967 L 86.22886778666926,129.92302593741556 L 87.01055632510321,130.02820883057078 L 87.81538246741617,130.01933124335068 L 91.23174894418904,130.8970100692666 L 92.52795091165302,130.92512047855925 L 94.90813039509706,131.3645258318022 L 95.67741665070598,127.19744104555149 L 93.29723716726194,126.75803569230854 L 92.29751207434899,126.74852508529848 L 88.88114559757612,125.87084625938257 L 87.77344457063204,124.35864622635745 L 86.99175603219808,124.25346333320222 L 85.70699572610792,123.88302558775754 L 82.22778777866371,123.43429722309257 L 81.4732879460218,129.28429918593469" fill="none" id="word_bbox_82af443b-58bd-4293-951d-928bc62a7fba" stroke="red" stroke-width="0.5"/>
	<path d="M 97.65285278735479,131.93622228415128 L 98.42529654221829,132.0957508195136 L 99.34282571968451,132.37683423596266 L 102.22712391284782,133.066845057762 L 103.2288612128307,128.8795062609147 L 100.34456301966738,128.18949543911538 L 99.58233600115344,126.49331798732295 L 98.80989224628995,126.33378945196064 L 97.65285278735479,131.93622228415128" fill="none" id="word_bbox_1d4d43df-2b48-49c4-bd30-f8d4f7123a83" stroke="red" stroke-width="0.5"/>
	<path d="M 108.07629402660099,134.74471143197263 L 104.85540633634596,133.76727486257704 L 106.10623757877514,129.64548621923026 L 109.32712526903018,130.62292278862583 L 108.07629402660099,134.74471143197263" fill="none" id="word_bbox_390215d6-ec56-459a-bef7-e59084a41aef" stroke="red" stroke-width="0.5"/>
	<path d="M 110.7446103681593,135.509910027046 L 116.13882511850629,137.72434550643402 L 116.60981711887322,138.06128717561353 L 120.01425368775622,139.83916773852488 L 121.00667031597928,140.3288994230667 L 123.12953234001796,141.491557634419 L 123.36948994524121,142.06254608541096 L 126.98650385172876,142.73129202266392 L 128.07308003772891,136.85437979593013 L 124.45606613124137,136.18563385867716 L 125.16508153186041,137.77491069963403 L 123.04221950782173,136.61225248828174 L 122.00814984938422,136.0210861706124 L 118.60371328050124,134.24320560770104 L 117.71863496112078,133.8760357972158 L 112.32442021077267,131.66160031782692 L 110.7446103681593,135.509910027046" fill="none" id="word_bbox_89c81596-9d81-49b1-9ffb-f2d8c9efa97d" stroke="red" stroke-width="0.5"/>
	<path d="M 144.54724651019066,84.55958154499281 L 145.00198422915813,88.28811199850156 L 144.9684767460365,88.83414737937105 L 145.99650965513828,92.53466924033182 L 146.30032651457302,93.40895387410784 L 148.27628099871515,95.65672731780438 L 149.10251969378882,96.0514488151859 L 152.46367989011281,95.8729833077007 L 153.68125998834455,95.21723801248704 L 157.0092406875472,93.6554048472209 L 157.89597636167355,93.07691363311501 L 161.0980896938968,91.60662526254258 L 162.32057002468153,91.11987008793768 L 162.9781400000003,90.93531399999883 L 163.97094492732265,90.56012251822615 L 167.3231828444591,90.86337418341355 L 168.50316936363086,91.43955981643178 L 170.4121681582581,92.92753066722793 L 168.92757904079483,94.04545220964663 L 170.96621009959975,97.33446196760761 L 176.08402105880495,94.16228275796124 L 174.04539,90.873273 L 173.01726052234383,89.58531587836204 L 171.10826172771658,88.09734502756588 L 167.71125178826554,86.57353977446765 L 164.3590138711291,86.27028810928023 L 161.38424998017285,85.25631292935407 L 160.72668000485407,85.44086901729293 L 159.3306796017343,87.75741613262467 L 156.12856626951103,89.2277045031971 L 154.47035089487727,88.24549525167967 L 151.14237019567463,89.80732841694582 L 152.23529879566027,91.57172949634312 L 148.87413859933628,91.75019500382834 L 151.51466743685458,92.80995278108624 L 149.53871295271244,90.5621793373897 L 150.14665351102437,91.38172794673557 L 149.11862060192257,87.68120608577479 L 149.1314721662915,87.78447284402748 L 148.676734447324,84.05594239051874 L 144.54724651019066,84.55958154499281" fill="none" id="word_bbox_c724528b-5240-411b-8a3e-3b9ae77fd0ea" stroke="red" stroke-width="0.5"/>
	<path d="M 51.963952382936455,34.46909668312792 C 56.59852779599539,35.30149279239307 61.48045929696745,35.69389064993311 65.81898089720919,34.435997738150256" fill="none" id="upper_bezier_b336aedc-68da-4fe6-a462-3935f71ae1a2" stroke="blue" stroke-width="0.5"/>
	<path d="M 52.263000104069846,39.766420733376016 C 56.66772882828534,39.31274524150971 61.13161746765284,39.67789055979656 65.61818643659242,39.7447478306599" fill="none" id="lower_bezier_b336aedc-68da-4fe6-a462-3935f71ae1a2" stroke="green" stroke-width="0.5"/>
	<path d="M 68.51927369572506,34.68590224129499 C 73.14812847665597,36.24164423391435 78.14162228489602,37.72460978916569 82.71370930304298,37.50866490175777" fill="none" id="upper_bezier_978ec69c-4ff6-467a-9d85-b97de5c8270e" stroke="blue" stroke-width="0.5"/>
	<path d="M 67.95365201588027,39.96063431870031 C 72.46922555605518,40.24510701600975 76.89321696434851,41.270466962433574 81.25408562734414,42.62146206738621" fill="none" id="lower_bezier_978ec69c-4ff6-467a-9d85-b97de5c8270e" stroke="green" stroke-width="0.5"/>
	<path d="M 86.08241580841153,38.28295750200317 C 88.43166884239702,38.47409331707061 86.11718417953202,43.008606835099194 90.104805160543,41.823049781897076" fill="none" id="upper_bezier_8f86d420-ec02-4801-af97-a23fb7a3cc6a" stroke="blue" stroke-width="0.5"/>
	<path d="M 83.92920927300607,43.58292536305577 C 85.42095596554532,44.09397959607019 86.665307387535,45.142655921012256 88.15442393744249,45.66152116266577" fill="none" id="lower_bezier_8f86d420-ec02-4801-af97-a23fb7a3cc6a" stroke="green" stroke-width="0.5"/>
	<path d="M 94.24617698646128,42.424940870251504 C 99.62654828996027,42.898793685883106 95.07568308479227,48.47206496554327 99.6292531580593,49.685521982720104" fill="none" id="upper_bezier_2adce6e2-1625-4274-aced-db36cfe10b54" stroke="blue" stroke-width="0.5"/>
	<path d="M 90.54006607138777,47.11299492387351 C 92.69837360568818,48.70100321865606 94.8128752394938,50.40726299792403 96.43255217721769,52.57245941165307" fill="none" id="lower_bezier_2adce6e2-1625-4274-aced-db36cfe10b54" stroke="green" stroke-width="0.5"/>
	<path d="M 82.24204337778451,123.40812948536339 C 87.58230430866364,123.01608649657076 90.27285402704437,127.64005273511526 95.72875340109692,127.10562465817665" fill="none" id="upper_bezier_82af443b-58bd-4293-951d-928bc62a7fba" stroke="blue" stroke-width="0.5"/>
	<path d="M 81.47092040549293,129.29535967486163 C 86.04092642101173,129.64266115791173 90.40347099286464,130.74196949042678 94.90740857157314,131.36304706392895" fill="none" id="lower_bezier_82af443b-58bd-4293-951d-928bc62a7fba" stroke="green" stroke-width="0.5"/>
	<path d="M 98.80989224629005,126.33378945196075 C 101.19082642178881,126.03195311393416 99.17985005076444,131.17591071807766 103.2288612128307,128.8795062609147" fill="none" id="upper_bezier_1d4d43df-2b48-49c4-bd30-f8d4f7123a83" stroke="blue" stroke-width="0.5"/>
	<path d="M 97.65285278735475,131.93622228415123 C 99.21618858616463,132.1588829873926 100.61170029069963,133.03353524676876 102.22712391284789,133.0668450577621" fill="none" id="lower_bezier_1d4d43df-2b48-49c4-bd30-f8d4f7123a83" stroke="green" stroke-width="0.5"/>
	<path d="M 109.32712526903022,130.62292278862586 C 108.25349603894495,130.2971105988271 107.17986680886034,129.97129840902898 106.10623757877512,129.64548621923026" fill="none" id="upper_bezier_390215d6-ec56-459a-bef7-e59084a41aef" stroke="blue" stroke-width="0.5"/>
	<path d="M 108.07629402660102,134.74471143197263 C 107.00266479651616,134.41889924217426 105.92903556643098,134.09308705237564 104.85540633634588,133.76727486257693" fill="none" id="lower_bezier_390215d6-ec56-459a-bef7-e59084a41aef" stroke="green" stroke-width="0.5"/>
	<path d="M 112.25316390122049,131.61559655244588 C 119.2033538365207,133.55582476528687 124.09828848037111,138.9053149379025 127.80740148106135,136.64362049487684" fill="none" id="upper_bezier_89c81596-9d81-49b1-9ffb-f2d8c9efa97d" stroke="blue" stroke-width="0.5"/>
	<path d="M 110.73499427159894,135.52737116393993 C 116.71717213570318,136.822117917554 121.20594946537089,141.9095085267373 126.95131280630201,142.78895933592187" fill="none" id="lower_bezier_89c81596-9d81-49b1-9ffb-f2d8c9efa97d" stroke="green" stroke-width="0.5"/>
	<path d="M 149.8917962072587,84.04371210842422 C 144.1513039004426,106.42921371846576 163.38758646180935,70.16505938182992 177.09660085096044,95.1312754962187" fill="none" id="upper_bezier_c724528b-5240-411b-8a3e-3b9ae77fd0ea" stroke="blue" stroke-width="0.5"/>
	<path d="M 144.81548142679674,83.09313008043176 C 141.4197171184198,111.37849509524725 170.55732655902875,78.06976133840753 170.92330211167913,97.63751368212496" fill="none" id="lower_bezier_c724528b-5240-411b-8a3e-3b9ae77fd0ea" stroke="green" stroke-width="0.5"/>
	<path d="M 52.0,34.5 L 65.9,34.5 L 65.9,39.8 L 52.0,39.8 L 52.0,34.5" fill="none" id="word_bbox_rect_b336aedc-68da-4fe6-a462-3935f71ae1a2" stroke="blue" stroke-width="0.5"/>
	<path d="M 67.9,34.8 L 82.7,34.8 L 82.7,42.599999999999994 L 67.9,42.599999999999994 L 67.9,34.8" fill="none" id="word_bbox_rect_978ec69c-4ff6-467a-9d85-b97de5c8270e" stroke="blue" stroke-width="0.5"/>
	<path d="M 83.9,38.3 L 90.10000000000001,38.3 L 90.10000000000001,45.699999999999996 L 83.9,45.699999999999996 L 83.9,38.3" fill="none" id="word_bbox_rect_8f86d420-ec02-4801-af97-a23fb7a3cc6a" stroke="blue" stroke-width="0.5"/>
	<path d="M 90.5,42.4 L 99.6,42.4 L 99.6,52.5 L 90.5,52.5 L 90.5,42.4" fill="none" id="word_bbox_rect_2adce6e2-1625-4274-aced-db36cfe10b54" stroke="blue" stroke-width="0.5"/>
	<path d="M 81.5,123.4 L 95.7,123.4 L 95.7,131.3 L 81.5,131.3 L 81.5,123.4" fill="none" id="word_bbox_rect_82af443b-58bd-4293-951d-928bc62a7fba" stroke="blue" stroke-width="0.5"/>
	<path d="M 97.7,126.3 L 103.3,126.3 L 103.3,133.0 L 97.7,133.0 L 97.7,126.3" fill="none" id="word_bbox_rect_1d4d43df-2b48-49c4-bd30-f8d4f7123a83" stroke="blue" stroke-width="0.5"/>
	<path d="M 104.9,129.6 L 109.4,129.6 L 109.4,134.7 L 104.9,134.7 L 104.9,129.6" fill="none" id="word_bbox_rect_390215d6-ec56-459a-bef7-e59084a41aef" stroke="blue" stroke-width="0.5"/>
	<path d="M 110.7,131.7 L 128.0,131.7 L 128.0,142.79999999999998 L 110.7,142.79999999999998 L 110.7,131.7" fill="none" id="word_bbox_rect_89c81596-9d81-49b1-9ffb-f2d8c9efa97d" stroke="blue" stroke-width="0.5"/>
	<path d="M 144.5,84.1 L 176.0,84.1 L 176.0,97.39999999999999 L 144.5,97.39999999999999 L 144.5,84.1" fill="none" id="word_bbox_rect_c724528b-5240-411b-8a3e-3b9ae77fd0ea" stroke="blue" stroke-width="0.5"/>
</svg>
